<?xml version="1.0" encoding="UTF-8" standalone="no"?>
<!-- Created with Inkscape (http://www.inkscape.org/) -->

<svg
   xmlns:dc="http://purl.org/dc/elements/1.1/"
   xmlns:cc="http://creativecommons.org/ns#"
   xmlns:rdf="http://www.w3.org/1999/02/22-rdf-syntax-ns#"
   xmlns:svg="http://www.w3.org/2000/svg"
   xmlns="http://www.w3.org/2000/svg"
   xmlns:sodipodi="http://sodipodi.sourceforge.net/DTD/sodipodi-0.dtd"
   xmlns:inkscape="http://www.inkscape.org/namespaces/inkscape"
   width="197.55556mm"
   height="141.11111mm"
   viewBox="0 0 197.55556 141.11111"
   version="1.1"
   id="svg2222"
   inkscape:version="0.92.5 (0.92.5+69)"
   sodipodi:docname="featured_icon.svg">
  <defs
     id="defs2216" />
  <sodipodi:namedview
     id="base"
     pagecolor="#ffffff"
     bordercolor="#666666"
     borderopacity="1.0"
     inkscape:pageopacity="0.0"
     inkscape:pageshadow="2"
     inkscape:zoom="0.35"
     inkscape:cx="-43.809521"
     inkscape:cy="-30.476184"
     inkscape:document-units="mm"
     inkscape:current-layer="layer1"
     showgrid="false"
     fit-margin-top="0"
     fit-margin-left="0"
     fit-margin-right="0"
     fit-margin-bottom="0"
     inkscape:window-width="2560"
     inkscape:window-height="993"
     inkscape:window-x="0"
     inkscape:window-y="384"
     inkscape:window-maximized="1" />
  <metadata
     id="metadata2219">
    <rdf:RDF>
      <cc:Work
         rdf:about="">
        <dc:format>image/svg+xml</dc:format>
        <dc:type
           rdf:resource="http://purl.org/dc/dcmitype/StillImage" />
        <dc:title></dc:title>
      </cc:Work>
    </rdf:RDF>
  </metadata>
  <g
     inkscape:label="Layer 1"
     inkscape:groupmode="layer"
     id="layer1"
     transform="translate(22.426588,0.34127155)">
    <rect
       style="opacity:1;fill:none;fill-opacity:1;stroke:none;stroke-width:0.56444448;stroke-linecap:round;stroke-linejoin:round;stroke-miterlimit:4;stroke-dasharray:none;stroke-dashoffset:0;stroke-opacity:1"
       id="rect6917"
       width="197.55556"
       height="141.11111"
       x="-22.426588"
       y="-0.34127155"
       inkscape:export-xdpi="64.290001"
       inkscape:export-ydpi="64.290001" />
    <ellipse
       style="fill:#77ccac;fill-opacity:0.175083;stroke:none;stroke-width:0.59056133;stroke-miterlimit:4;stroke-dasharray:none;stroke-opacity:0.51149101"
       id="circle4603"
       cx="76.351189"
       cy="106.03889"
       rx="75.961037"
       ry="21.390907"
       inkscape:export-xdpi="64.290001"
       inkscape:export-ydpi="64.290001" />
    <ellipse
       style="fill:#49bb90;fill-opacity:0.309739;stroke:none;stroke-width:0.90454769;stroke-miterlimit:4;stroke-dasharray:none;stroke-opacity:0.67568102"
       id="circle4512"
       cx="76.351189"
       cy="106.03889"
       rx="60.370224"
       ry="16.304386"
       inkscape:export-xdpi="64.290001"
       inkscape:export-ydpi="64.290001" />
    <ellipse
       style="fill:#3ca27c;fill-opacity:0.63935601;stroke:none;stroke-width:1.13763511;stroke-miterlimit:4;stroke-dasharray:none;stroke-opacity:0.70614899"
       id="circle4510"
       cx="76.351189"
       cy="106.03889"
       rx="45.350655"
       ry="11.666345"
       inkscape:export-xdpi="64.290001"
       inkscape:export-ydpi="64.290001" />
    <g
       id="g7860"
       transform="matrix(0.21408029,0,0,0.21408029,51.877074,42.378271)"
       inkscape:export-xdpi="64.290001"
       inkscape:export-ydpi="64.290001">
      <path
         inkscape:connector-curvature="0"
         style="fill:#d1d1d1;fill-opacity:0.98039198;stroke:none;stroke-width:0.84918398px;stroke-linecap:butt;stroke-linejoin:miter;stroke-opacity:1"
         d="m 4.6659736,252.70813 220.6653964,-0.42333 0.70764,44.6267 -19.0277,15.79699 -30.24003,8.59705 -37.68279,3.99952 -34.92179,0.68328 -34.969428,-1.89562 -35.255579,-6.7899 L 11.62647,305.1158 2.6052749,294.46259 Z"
         id="path2262" />
      <path
         inkscape:connector-curvature="0"
         id="path2264"
         d="M 223.45659,252.02043 A 109.13445,33.961525 0 0 1 114.32214,285.98195 109.13445,33.961525 0 0 1 5.1876971,252.02043 109.13445,33.961525 0 0 1 114.32214,218.0589 109.13445,33.961525 0 0 1 223.45659,252.02043 Z"
         style="fill:#ececec;fill-opacity:1;stroke:none;stroke-width:2.95495009;stroke-linecap:round;stroke-linejoin:round;stroke-miterlimit:4;stroke-dasharray:none;stroke-dashoffset:0;stroke-opacity:1" />
      <path
         inkscape:connector-curvature="0"
         style="fill:none;fill-opacity:0.98000004;stroke:#4d4d4d;stroke-width:5.58158016;stroke-linecap:round;stroke-linejoin:round;stroke-miterlimit:4;stroke-dasharray:none;stroke-dashoffset:0;stroke-opacity:1"
         d="M 114.32215,219.80412 A 111.05762,33.961525 0 0 0 3.2641162,253.76467 V 292.9876 A 111.05762,33.961525 0 0 0 114.32215,326.94999 111.05762,33.961525 0 0 0 225.38017,292.9876 V 253.76467 A 111.05762,33.961525 0 0 0 114.32215,219.80412 Z"
         id="path2266" />
      <path
         inkscape:connector-curvature="0"
         style="fill:#d1d1d1;fill-opacity:0.98039198;stroke:none;stroke-width:0.84918398px;stroke-linecap:butt;stroke-linejoin:miter;stroke-opacity:1"
         d="m 4.6659736,178.74501 220.6653964,-0.42334 0.70764,44.62671 -19.0277,15.79699 -30.24003,8.59705 -37.68279,3.99952 -34.92179,0.68328 L 69.197272,250.1296 33.941693,243.3397 11.62647,231.15268 2.6052749,220.49947 Z"
         id="path2254" />
      <path
         inkscape:connector-curvature="0"
         id="path2256"
         d="M 223.45659,178.05731 A 109.13445,33.961525 0 0 1 114.32214,212.01883 109.13445,33.961525 0 0 1 5.1876971,178.05731 109.13445,33.961525 0 0 1 114.32214,144.09578 109.13445,33.961525 0 0 1 223.45659,178.05731 Z"
         style="fill:#ececec;fill-opacity:1;stroke:none;stroke-width:2.95495009;stroke-linecap:round;stroke-linejoin:round;stroke-miterlimit:4;stroke-dasharray:none;stroke-dashoffset:0;stroke-opacity:1" />
      <path
         inkscape:connector-curvature="0"
         style="fill:none;fill-opacity:0.98000004;stroke:#4d4d4d;stroke-width:5.58158016;stroke-linecap:round;stroke-linejoin:round;stroke-miterlimit:4;stroke-dasharray:none;stroke-dashoffset:0;stroke-opacity:1"
         d="M 114.32215,145.841 A 111.05762,33.961525 0 0 0 3.2641162,179.80155 v 39.22293 A 111.05762,33.961525 0 0 0 114.32215,252.98687 111.05762,33.961525 0 0 0 225.38017,219.02448 V 179.80155 A 111.05762,33.961525 0 0 0 114.32215,145.841 Z"
         id="path2258" />
      <path
         inkscape:connector-curvature="0"
         style="fill:#d1d1d1;fill-opacity:0.98039198;stroke:none;stroke-width:0.84918398px;stroke-linecap:butt;stroke-linejoin:miter;stroke-opacity:1"
         d="m 4.6659736,104.78189 220.6653964,-0.42333 0.70764,44.62671 -19.0277,15.79698 -30.24003,8.59706 -37.68279,3.99952 L 104.1667,178.0621 69.197272,176.16649 33.941693,169.37658 11.62647,157.18956 2.6052749,146.53635 Z"
         id="path2247" />
      <path
         inkscape:connector-curvature="0"
         id="path6945"
         d="M 223.45659,104.0942 A 109.13445,33.961525 0 0 1 114.32214,138.05572 109.13445,33.961525 0 0 1 5.1876971,104.0942 109.13445,33.961525 0 0 1 114.32214,70.132671 109.13445,33.961525 0 0 1 223.45659,104.0942 Z"
         style="fill:#ececec;fill-opacity:1;stroke:none;stroke-width:2.95495009;stroke-linecap:round;stroke-linejoin:round;stroke-miterlimit:4;stroke-dasharray:none;stroke-dashoffset:0;stroke-opacity:1" />
      <path
         inkscape:connector-curvature="0"
         style="fill:none;fill-opacity:0.98000004;stroke:#4d4d4d;stroke-width:5.58158016;stroke-linecap:round;stroke-linejoin:round;stroke-miterlimit:4;stroke-dasharray:none;stroke-dashoffset:0;stroke-opacity:1"
         d="M 114.32215,71.877887 A 111.05762,33.961525 0 0 0 3.2641162,105.83843 v 39.22294 A 111.05762,33.961525 0 0 0 114.32215,179.02376 111.05762,33.961525 0 0 0 225.38017,145.06137 V 105.83843 A 111.05762,33.961525 0 0 0 114.32215,71.877887 Z"
         id="ellipse6947" />
    </g>
    <ellipse
       style="fill:#000000;fill-opacity:0.17223301;stroke:none;stroke-width:0.14527784;stroke-miterlimit:4;stroke-dasharray:none;stroke-opacity:0.67568102"
       id="ellipse6872"
       cx="76.41304"
       cy="63.946114"
       rx="10.392386"
       ry="2.4431205"
       inkscape:export-xdpi="64.290001"
       inkscape:export-ydpi="64.290001" />
    <g
       id="g7869"
       transform="matrix(0.27802906,0,0,0.27802906,44.566314,29.237475)"
       inkscape:export-xdpi="64.290001"
       inkscape:export-ydpi="64.290001">
      <path
         inkscape:connector-curvature="0"
         d="m 115.79048,124.58903 21.98123,-19.78309 c 0.46599,-0.42204 0.72977,-1.01113 0.72977,-1.6354 V 89.981815 c 0,-0.86606 -0.50997,-1.652987 -1.3013,-2.009083 -0.79572,-0.3517 -1.72332,-0.206624 -2.36517,0.373681 L 114.32214,106.80623 93.813681,88.346413 c -0.646256,-0.580305 -1.573855,-0.729777 -2.365186,-0.373681 -0.795716,0.356096 -1.305681,1.143023 -1.305681,2.009083 v 13.188725 c 0,0.62427 0.268174,1.21336 0.725383,1.6354 l 21.981213,19.78309 c 0.83528,0.75176 2.11019,0.75176 2.94107,0 z"
         id="path7704"
         style="fill:#67b99b;fill-opacity:1;stroke:#333333;stroke-width:3.17097998;stroke-miterlimit:4;stroke-dasharray:none" />
      <path
         inkscape:connector-curvature="0"
         d="m 116.37784,75.002134 30.77369,-27.696326 c 0.6524,-0.590855 1.02168,-1.41559 1.02168,-2.289563 V 26.552029 c 0,-1.212484 -0.71395,-2.314182 -1.8218,-2.812717 -1.114,-0.492378 -2.41266,-0.289272 -3.31125,0.523154 l -28.71801,25.84375 -28.711856,-25.84375 c -0.904745,-0.812426 -2.203391,-1.021688 -3.311254,-0.523154 -1.114008,0.498535 -1.827959,1.600233 -1.827959,2.812717 v 18.464216 c 0,0.873973 0.375444,1.698708 1.015533,2.289563 l 30.773706,27.696326 c 1.16939,1.05246 2.95427,1.05246 4.11752,0 z"
         id="path7710"
         style="fill:#88c8b1;fill-opacity:1;stroke:#333333;stroke-width:4.43938017;stroke-miterlimit:4;stroke-dasharray:none" />
      <path
         inkscape:connector-curvature="0"
         d="m 116.96517,9.2002845 39.5662,-35.6095615 c 0.83879,-0.759672 1.31357,-1.820045 1.31357,-2.943724 v -23.73971 c 0,-1.558908 -0.91793,-2.975378 -2.34231,-3.616348 -1.4323,-0.63306 -3.10199,-0.371923 -4.25732,0.672624 l -36.92316,33.227681 -36.915242,-33.227681 c -1.163245,-1.044547 -2.832938,-1.313597 -4.25732,-0.672624 -1.432296,0.64097 -2.350232,2.05744 -2.350232,3.616348 v 23.73971 c 0,1.123679 0.482707,2.184052 1.305683,2.943724 L 111.67122,9.2002845 c 1.5035,1.3531625 3.79836,1.3531625 5.29395,0 z"
         id="path7817"
         style="fill:#abd8c8;fill-opacity:1;stroke:#333333;stroke-width:5.70776987;stroke-miterlimit:4;stroke-dasharray:none" />
    </g>
  </g>
</svg>
