<?xml version="1.0" encoding="UTF-8" standalone="no"?>
<svg
   xmlns:dc="http://purl.org/dc/elements/1.1/"
   xmlns:cc="http://creativecommons.org/ns#"
   xmlns:rdf="http://www.w3.org/1999/02/22-rdf-syntax-ns#"
   xmlns:svg="http://www.w3.org/2000/svg"
   xmlns="http://www.w3.org/2000/svg"
   xmlns:sodipodi="http://sodipodi.sourceforge.net/DTD/sodipodi-0.dtd"
   xmlns:inkscape="http://www.inkscape.org/namespaces/inkscape"
   width="531.19238"
   height="126.93429"
   version="1.1"
   id="svg34"
   sodipodi:docname="postgresql-horizontal.svg"
   inkscape:version="0.92.5 (0.92.5+69)">
  <metadata
     id="metadata40">
    <rdf:RDF>
      <cc:Work
         rdf:about="">
        <dc:format>image/svg+xml</dc:format>
        <dc:type
           rdf:resource="http://purl.org/dc/dcmitype/StillImage" />
        <dc:title></dc:title>
      </cc:Work>
    </rdf:RDF>
  </metadata>
  <defs
     id="defs38" />
  <sodipodi:namedview
     pagecolor="#ffffff"
     bordercolor="#666666"
     borderopacity="1"
     objecttolerance="10"
     gridtolerance="10"
     guidetolerance="10"
     inkscape:pageopacity="0"
     inkscape:pageshadow="2"
     inkscape:window-width="2560"
     inkscape:window-height="1003"
     id="namedview36"
     showgrid="false"
     inkscape:snap-global="false"
     inkscape:zoom="1.4495689"
     inkscape:cx="296.93145"
     inkscape:cy="88.686436"
     inkscape:window-x="0"
     inkscape:window-y="0"
     inkscape:window-maximized="1"
     inkscape:current-layer="svg34"
     fit-margin-top="0"
     fit-margin-left="0"
     fit-margin-right="0"
     fit-margin-bottom="0" />
  <style
     id="style2"><![CDATA[.B{stroke-width:1.369}.C{stroke:#fff}.D{stroke-linecap:round}.E{stroke-linejoin:round}]]></style>
  <rect
     style="opacity:1;vector-effect:none;fill:none;fill-opacity:1;stroke:none;stroke-width:0.84283465;stroke-linecap:round;stroke-linejoin:round;stroke-miterlimit:4;stroke-dasharray:none;stroke-dashoffset:0;stroke-opacity:1;paint-order:normal"
     id="rect880"
     width="531.19238"
     height="126.93429"
     x="0"
     y="0"
     rx="0"
     ry="0" />
  <g
     id="g878"
     transform="translate(14.019318,20.3712)">
    <path
       inkscape:connector-curvature="0"
       style="fill:#ffffff;stroke-width:1.60722256"
       id="path4"
       d="M 131.42546,44.41504 H 112.77525 V 25.658753 h 19.66277 c 7.19714,0 10.79571,3.174264 10.79571,9.524401 0,6.155662 -3.9377,9.235101 -11.80827,9.235101 M 144.8297,25.44017 c -2.57155,-2.288685 -6.13155,-3.433027 -10.7266,-3.433027 l -26.70883,0.147864 v 44.873656 h 5.38098 l -0.0482,-19.103448 h 19.87491 c 4.98239,0 8.90723,-1.144343 11.76969,-3.433028 2.86247,-2.288685 4.2945,-5.464557 4.2945,-9.526008 0,-4.061452 -1.27774,-7.235716 -3.83322,-9.526009 z m 34.83173,32.165346 a 9.1933133,9.1933133 0 0 1 -2.55388,3.817154 c -2.41083,2.352974 -6.08816,3.527854 -11.03519,3.527854 -4.46808,0 -7.89467,-1.125056 -10.28622,-3.429813 -2.39155,-2.304758 -3.58893,-5.34723 -3.58893,-9.182063 0,-1.996171 0.31341,-3.768937 0.93862,-5.315085 0.62521,-1.546148 1.53329,-2.851213 2.72263,-3.915195 2.47513,-2.254933 5.87922,-3.383203 10.21551,-3.383203 9.60476,0 14.40875,4.204494 14.40875,12.613483 0,1.997778 -0.27323,3.752865 -0.80361,5.266868 m 0.97558,-16.554392 C 177.37596,38.06169 172.52215,36.5509 166.09004,36.5509 c -6.0753,0 -10.7716,1.526862 -14.08248,4.580585 -2.98944,2.764423 -4.50023,6.493179 -4.50023,11.189483 0,4.660946 1.54294,8.421847 4.62881,11.282703 1.70365,1.542934 3.68857,2.661561 5.95636,3.352667 2.26779,0.691105 4.92775,1.036658 7.98147,1.036658 6.39675,0 11.25056,-1.478645 14.61287,-4.435934 2.98943,-2.700134 4.50022,-6.428891 4.50022,-11.237701 0,-4.821668 -1.51079,-8.582568 -4.53237,-11.285917 z m 40.69167,17.851421 c 0,6.039943 -5.41152,9.059914 -16.23295,9.059914 -3.30767,0 -6.09459,-0.208939 -8.35756,-0.630031 -2.26297,-0.421093 -4.10324,-1.11702 -5.51599,-2.086175 a 8.0682575,8.0682575 0 0 1 -2.60209,-2.893001 c -0.64289,-1.189345 -1.06077,-2.684062 -1.25364,-4.500223 l 5.03543,-0.04822 c 0,2.378689 0.88076,4.127348 2.64388,5.252404 1.89171,1.350066 5.23955,2.0251 10.04997,2.0251 7.56359,0 11.34699,-1.896523 11.34699,-5.686354 0,-2.217967 -1.28578,-3.741614 -3.8059,-4.580584 -0.51432,-0.160722 -3.57286,-0.586636 -9.16117,-1.276135 -5.58832,-0.689498 -9.09688,-1.309886 -10.47588,-1.856342 -2.98622,-1.189345 -4.47933,-3.326951 -4.47933,-6.409604 0,-3.021578 1.33399,-5.27169 4.01806,-6.74712 1.31792,-0.610745 2.96532,-1.083268 4.94381,-1.422392 1.97849,-0.339124 4.26879,-0.506275 6.87249,-0.506275 10.41801,0 15.62702,3.26909 15.62702,9.804058 h -4.78952 c 0,-4.596657 -3.66447,-6.911058 -10.98537,-6.911058 -3.72554,0 -6.50443,0.482167 -8.33505,1.398284 -1.83063,0.916117 -2.74514,2.362617 -2.74514,4.291284 0,1.80009 1.23756,3.10194 3.70947,3.905551 1.4465,0.417878 4.77024,0.900045 9.97442,1.446501 4.65773,0.417878 7.8545,1.01255 9.58869,1.767945 3.31088,1.285778 4.96311,3.4716 4.96311,6.552646 z m 19.77848,8.185585 -2.04921,0.2893 -1.27774,0.09643 c -3.27874,0 -5.62528,-0.47413 -7.09268,-1.425606 -1.46739,-0.951476 -2.17457,-2.614951 -2.17457,-4.98239 V 40.565742 h -5.95637 v -3.011935 h 5.92583 l 0.0482,-9.67548 h 4.59023 v 9.67548 h 7.99432 v 3.060152 l -7.99432,-0.04822 v 19.924739 c 0,1.483466 0.39377,2.507267 1.18131,3.053723 0.78754,0.546456 2.19225,0.845399 4.21735,0.845399 0.2893,0.03214 0.61074,0.0225 0.96433,-0.03214 a 16.956199,16.956199 0 0 0 1.59115,-0.363233 l 0.0482,3.053723 z m 31.75068,-6.798552 c -1.25363,1.028623 -2.68085,1.812947 -4.28646,2.362617 -1.60562,0.549671 -3.45232,0.803612 -5.53849,0.803612 -9.60155,0 -14.40072,-3.965018 -14.40072,-11.893448 0,-3.69179 1.22792,-6.581576 3.68536,-8.669358 2.45745,-2.087783 5.91458,-3.13087 10.37945,-3.13087 4.4954,0 7.90753,1.052731 10.23479,3.154978 2.32726,2.102247 3.4925,4.921316 3.4925,8.453991 0,3.852513 -1.18935,6.82266 -3.56482,8.908835 m 8.15665,-22.718092 h -4.59023 l -0.0482,5.062751 c -2.0251,-2.057244 -3.4716,-3.354273 -4.3395,-3.900729 -2.57156,-1.414356 -5.8953,-2.118319 -9.97603,-2.118319 -5.97566,0 -10.54017,1.366139 -13.68711,4.095203 -2.98944,2.507267 -4.48094,6.134769 -4.48094,10.887326 0,2.346545 0.3777,4.439149 1.13309,6.268168 0.7554,1.829019 1.85795,3.412134 3.30606,4.696305 3.15337,2.63263 7.6102,3.950553 13.37209,3.950553 6.91749,0 11.82434,-1.891701 14.72216,-5.67671 v 5.239545 c 0,3.343023 -1.05273,5.927437 -3.15658,7.759671 -2.10386,1.832234 -5.56582,2.732278 -10.38588,2.732278 -4.53236,0 -7.75967,-0.642889 -9.68673,-1.870807 -1.4465,-0.959512 -2.44298,-2.622987 -2.98943,-4.990426 h -4.72524 c 0.51432,3.306057 1.92867,5.697604 4.17878,7.173035 2.63585,1.700441 7.07178,2.550662 13.33995,2.550662 11.98988,0 18.00089,-4.456828 18.00089,-13.372092 V 37.574701 Z m 24.83159,2.978184 c -1.38221,-0.225011 -2.66477,-0.321445 -3.8509,-0.321445 -7.54591,0 -11.31807,4.138598 -11.31807,12.41258 v 14.391072 h -4.54201 l -0.0482,-29.447533 4.59183,0.045 v 5.255618 h 0.24108 c 0.77147,-2.070103 1.99296,-3.640359 3.66126,-4.709162 1.82902,-1.035051 4.55808,-1.552577 8.18719,-1.552577 h 3.08105 v 3.953768 z m 4.27039,9.897277 c 0.5786,-3.346238 1.88045,-5.937081 3.90073,-7.772529 1.31792,-1.060767 2.81264,-1.859557 4.48094,-2.38994 1.66829,-0.530383 3.53589,-0.797182 5.63813,-0.797182 4.07913,0 7.39323,1.118627 9.99693,3.35588 2.6037,2.237254 3.87662,4.773452 3.87662,7.602163 h -27.89335 m 28.34016,-9.084022 c -1.60723,-1.612044 -3.60018,-2.802996 -5.97887,-3.577677 -2.37869,-0.774682 -5.14311,-1.160415 -8.35756,-1.160415 -5.94672,0 -10.55945,1.382211 -13.8414,4.146634 -3.28195,2.764423 -4.9181,6.525324 -4.9181,11.285917 0,4.760594 1.57508,8.51828 4.72523,11.33092 3.40732,3.085867 8.19684,4.628801 14.41358,4.628801 2.47512,0 4.7622,-0.281264 6.86766,-0.840578 2.10546,-0.559313 3.94573,-1.353281 5.5192,-2.378689 2.76442,-1.98492 4.51308,-4.435934 5.25562,-7.345007 h -4.9631 c -1.70366,5.035428 -5.94191,7.553946 -12.71956,7.553946 -4.78631,0 -8.46525,-1.231133 -11.03359,-3.693398 -2.21796,-2.110283 -3.32373,-4.844169 -3.32373,-8.203264 h 32.72787 c 0,-4.995248 -1.4465,-8.912049 -4.38772,-11.732725 z" />
    <path
       style="fill:#367faf;stroke-width:1.60722256"
       inkscape:connector-curvature="0"
       id="path6"
       d="m 391.36479,54.995387 c 0,8.743291 -7.05088,13.114936 -21.15426,13.114936 -8.44917,0 -14.61769,-1.505967 -18.50396,-4.500223 -3.1823,-2.475123 -4.77023,-6.248881 -4.77023,-11.327705 h 5.67671 c 0,8.161477 5.86636,12.242215 17.59587,12.242215 5.62528,0 9.69155,-0.835756 12.21489,-2.504053 2.12154,-1.47543 3.1823,-3.788224 3.1823,-6.933558 0,-3.114798 -1.4465,-5.297406 -4.3395,-6.55104 -1.63937,-0.675033 -5.62528,-1.526861 -12.00595,-2.552269 -8.00397,-1.221489 -13.19208,-2.439764 -15.57077,-3.659646 -3.43946,-1.800089 -5.14312,-4.848991 -5.14312,-9.151526 0,-4.013235 1.4465,-6.999454 4.38772,-8.958658 3.15016,-2.150464 8.55043,-3.227303 16.19759,-3.227303 13.82212,0 20.73317,4.590227 20.73317,13.770683 h -5.72653 c 0,-6.878913 -5.13186,-10.315155 -15.39398,-10.315155 -5.14793,0 -8.91205,0.691106 -11.29235,2.08939 -2.25332,1.478644 -3.37516,3.648395 -3.37516,6.509251 0,2.989434 1.4465,5.094896 4.3395,6.316385 1.54293,0.707178 6.0753,1.687584 13.5971,2.941217 7.07178,1.060767 11.84523,2.298329 14.30428,3.696612 3.37517,1.735801 5.06275,4.741307 5.06275,9.000447 z m 46.12729,4.46165 c -2.12153,1.698834 -4.51951,2.973362 -7.18911,3.82519 -2.66959,0.851828 -5.66224,1.274527 -8.97473,1.274527 -6.75676,0 -12.21489,-1.820983 -16.38402,-5.461342 -4.16914,-3.640359 -6.24728,-8.492564 -6.24728,-14.556615 0,-6.3196 2.06528,-11.24413 6.19906,-14.773591 4.13378,-3.52946 9.61119,-5.292584 16.43064,-5.292584 6.91587,0 12.35311,1.845092 16.31009,5.533668 2.08939,1.800089 3.63232,3.899122 4.63202,6.305134 0.99969,2.406012 1.49471,5.149541 1.49471,8.22898 0,6.287455 -2.0926,11.260201 -6.27459,14.915026 m 3.01836,2.976576 c 2.95729,-2.086175 5.14633,-4.612729 6.56229,-7.582876 1.41596,-2.970148 2.12475,-6.396746 2.12475,-10.283011 0,-6.96731 -2.3144,-12.536336 -6.9432,-16.760117 -2.47513,-2.311186 -5.46456,-4.029307 -8.96831,-5.152756 -3.50374,-1.123448 -7.50573,-1.687583 -12.00595,-1.687583 -8.74329,0 -15.59006,2.121533 -20.57245,6.356565 -4.98239,4.235032 -7.47358,9.984067 -7.47358,17.240677 0,7.062136 2.51369,12.761347 7.54269,17.09442 5.029,4.333072 11.89827,6.501215 20.6046,6.501215 3.40731,0 6.37746,-0.229833 8.91526,-0.691106 2.5378,-0.461273 4.69309,-1.16845 6.46104,-2.121534 l 8.38648,5.813325 3.50375,-3.21766 -8.1213,-5.507952 z m 51.19004,4.591835 h -38.808 V 22.085897 l 5.33277,-0.09643 v 41.268655 h 33.50737 l -0.0482,3.751258 z" />
    <g
       transform="matrix(1.5268723,0,0,1.6110097,-4.0781921,-4.223024)"
       id="g860">
      <path
         style="fill:#231f20;stroke:#231f20;stroke-width:4.1079998"
         inkscape:connector-curvature="0"
         d="m 48.237,39.567 c 0.336,-2.37 0.235,-2.718 2.318,-2.334 l 0.53,0.04 c 1.602,0.062 3.697,-0.218 4.928,-0.703 2.65,-1.042 4.22,-2.782 1.608,-2.325 -5.96,1.042 -6.37,-0.67 -6.37,-0.67 C 57.544,25.66 60.175,15.612 57.905,13.152 51.7,6.445 40.99,9.617 40.8,9.7 L 40.743,9.71 C 39.565,9.503 38.247,9.38 36.767,9.36 c -2.697,-0.038 -4.743,0.6 -6.296,1.597 0,0 -19.126,-6.68 -18.236,8.4 0.19,3.208 5.425,24.273 11.668,17.91 2.282,-2.327 4.488,-4.294 4.488,-4.294 a 6.6,6.6 0 0 0 3.781,0.818 l 0.106,-0.077 c -0.033,0.29 -0.02,0.57 0.043,0.906 -1.608,1.523 -1.136,1.79 -4.352,2.352 -3.253,0.568 -1.342,1.58 -0.094,1.845 1.513,0.32 5.013,0.775 7.378,-2.03 l -0.094,0.32 c 0.63,0.428 0.588,3.075 0.678,4.967 0.09,1.892 0.24,3.657 0.694,4.698 0.454,1.041 0.992,3.72 5.218,2.954 3.532,-0.642 6.233,-1.565 6.48,-10.155"
         id="path8" />
      <path
         style="fill:#417ba2"
         inkscape:connector-curvature="0"
         d="m 57.62,34.244 c -5.96,1.042 -6.37,-0.67 -6.37,-0.67 C 57.543,25.658 60.174,15.61 57.904,13.151 51.71,6.444 40.99,9.617 40.8,9.7 L 40.742,9.71 C 39.564,9.503 38.246,9.38 36.765,9.36 c -2.697,-0.037 -4.743,0.6 -6.295,1.597 0,0 -19.127,-6.68 -18.237,8.4 0.19,3.208 5.424,24.274 11.668,17.91 2.282,-2.327 4.487,-4.294 4.487,-4.294 a 6.6,6.6 0 0 0 3.781,0.818 l 0.107,-0.077 c -0.033,0.29 -0.018,0.57 0.043,0.906 -1.608,1.523 -1.136,1.79 -4.35,2.352 -3.254,0.568 -1.342,1.58 -0.094,1.845 1.513,0.32 5.013,0.775 7.378,-2.03 l -0.094,0.32 c 0.63,0.428 1.073,2.783 1,4.92 -0.073,2.137 -0.124,3.6 0.373,4.746 0.497,1.146 0.992,3.72 5.22,2.954 3.532,-0.642 5.363,-2.304 5.617,-5.078 0.18,-1.972 0.59,-1.68 0.615,-3.443 l 0.328,-0.834 c 0.378,-2.673 0.06,-3.535 2.236,-3.134 l 0.53,0.04 c 1.602,0.062 3.698,-0.218 4.928,-0.703 2.65,-1.042 4.22,-2.782 1.608,-2.325 z"
         id="path10" />
      <g
         style="fill:none;stroke:#ffffff;stroke-width:1.36899996"
         class="C B"
         id="g24">
        <g
           style="stroke-linecap:round"
           class="D"
           id="g16">
          <path
             style="stroke-linejoin:round"
             inkscape:connector-curvature="0"
             d="m 35.518,35.777 c -0.164,4.973 0.04,9.982 0.615,11.2 0.575,1.218 1.804,3.585 6.032,2.817 3.532,-0.642 4.817,-1.884 5.374,-4.626 0.4,-2.017 1.203,-7.62 1.304,-8.767 M 30.45,10.843 c 0,0 -19.15,-6.63 -18.25,8.457 0.2,3.208 5.424,24.274 11.67,17.9 2.282,-2.327 4.345,-4.152 4.345,-4.152 M 40.8,9.633 c -0.663,0.176 10.647,-3.504 17.074,3.457 2.27,2.46 -0.36,12.508 -6.654,20.424"
             class="E"
             id="path12" />
          <path
             style="stroke-linejoin:bevel"
             inkscape:connector-curvature="0"
             d="m 51.21,33.513 c 0,0 0.4,1.71 6.37,0.668 2.612,-0.457 1.04,1.283 -1.61,2.326 -2.174,0.855 -7.048,1.074 -7.127,-0.107 -0.205,-3.05 2.565,-2.123 2.365,-2.887 -0.18,-0.688 -1.42,-1.363 -2.24,-3.047 C 48.253,28.996 39.158,17.724 51.49,19.398 51.942,19.318 48.273,9.454 36.73,9.294 25.187,9.134 25.57,21.324 25.57,21.324"
             id="path14" />
        </g>
        <g
           style="stroke-linejoin:round"
           class="E"
           id="g22">
          <path
             inkscape:connector-curvature="0"
             d="m 32.288,34.556 c -1.61,1.523 -1.136,1.79 -4.352,2.352 -3.254,0.57 -1.342,1.58 -0.094,1.845 1.513,0.32 5.013,0.775 7.378,-2.032 0.72,-0.855 -0.004,-2.22 -0.993,-2.566 -0.478,-0.168 -1.117,-0.378 -1.94,0.4 z"
             id="path18" />
          <path
             style="stroke-linecap:round"
             inkscape:connector-curvature="0"
             d="m 32.183,34.53 c -0.162,-0.896 0.347,-1.96 0.893,-3.208 0.82,-1.87 2.712,-3.742 1.2,-9.677 -1.128,-4.423 -8.697,-0.92 -8.7,-0.32 -0.003,0.6 0.342,3.04 -0.127,5.88 -0.612,3.708 2.783,6.843 6.692,6.523"
             class="D"
             id="path20" />
        </g>
      </g>
      <g
         style="fill:#ffffff;stroke:#ffffff"
         class="C"
         id="g30">
        <path
           style="stroke-width:0.456"
           inkscape:connector-curvature="0"
           d="m 30.382,21.233 c -0.034,0.205 0.443,0.75 1.064,0.824 0.621,0.074 1.15,-0.354 1.185,-0.558 0.035,-0.204 -0.442,-0.43 -1.064,-0.504 -0.622,-0.074 -1.152,0.034 -1.185,0.238 z"
           id="path26" />
        <path
           style="stroke-width:0.228"
           inkscape:connector-curvature="0"
           d="m 49.273,20.816 c 0.034,0.205 -0.442,0.75 -1.064,0.824 -0.622,0.074 -1.152,-0.354 -1.186,-0.56 -0.034,-0.206 0.443,-0.43 1.064,-0.504 0.621,-0.074 1.15,0.033 1.185,0.238 z"
           id="path28" />
      </g>
      <path
         style="fill:none;stroke:#ffffff;stroke-width:1.36899996;stroke-linecap:round;stroke-linejoin:round"
         inkscape:connector-curvature="0"
         d="m 51.493,19.398 c 0.102,1.607 -0.408,2.7 -0.473,4.412 -0.095,2.486 1.398,5.33 -0.852,8.18"
         class="B C D E"
         id="path32" />
    </g>
  </g>
</svg>
