<?xml version="1.0" encoding="UTF-8" standalone="no"?>
<!-- Created with Inkscape (http://www.inkscape.org/) -->

<svg
   xmlns:dc="http://purl.org/dc/elements/1.1/"
   xmlns:cc="http://creativecommons.org/ns#"
   xmlns:rdf="http://www.w3.org/1999/02/22-rdf-syntax-ns#"
   xmlns:svg="http://www.w3.org/2000/svg"
   xmlns="http://www.w3.org/2000/svg"
   xmlns:xlink="http://www.w3.org/1999/xlink"
   xmlns:sodipodi="http://sodipodi.sourceforge.net/DTD/sodipodi-0.dtd"
   xmlns:inkscape="http://www.inkscape.org/namespaces/inkscape"
   width="197.55556mm"
   height="141.11111mm"
   viewBox="0 0 197.55556 141.11111"
   version="1.1"
   id="svg1524"
   inkscape:version="0.92.5 (0.92.5+69)"
   sodipodi:docname="featured_img.svg">
  <defs
     id="defs1518">
    <filter
       inkscape:collect="always"
       style="color-interpolation-filters:sRGB"
       id="filter7329"
       x="-0.072201341"
       width="1.1444027"
       y="-0.76842856"
       height="2.5368571">
      <feGaussianBlur
         inkscape:collect="always"
         stdDeviation="0.84713911"
         id="feGaussianBlur7331" />
    </filter>
    <linearGradient
       inkscape:collect="always"
       xlink:href="#linearGradient4671"
       id="linearGradient3878"
       gradientUnits="userSpaceOnUse"
       gradientTransform="matrix(0.07539972,0,0,0.07612766,71.929392,155.44364)"
       x1="150.96111"
       y1="192.35176"
       x2="112.03144"
       y2="137.27299" />
    <linearGradient
       id="linearGradient4671">
      <stop
         style="stop-color:#ffd43b;stop-opacity:1;"
         offset="0"
         id="stop4673" />
      <stop
         style="stop-color:#ffe873;stop-opacity:1"
         offset="1"
         id="stop4675" />
    </linearGradient>
    <linearGradient
       inkscape:collect="always"
       xlink:href="#linearGradient4689"
       id="linearGradient3876"
       gradientUnits="userSpaceOnUse"
       gradientTransform="matrix(0.07539972,0,0,0.07612766,71.929392,155.44364)"
       x1="26.648937"
       y1="20.603781"
       x2="135.66525"
       y2="114.39767" />
    <linearGradient
       id="linearGradient4689">
      <stop
         style="stop-color:#5a9fd4;stop-opacity:1;"
         offset="0"
         id="stop4691" />
      <stop
         style="stop-color:#306998;stop-opacity:1;"
         offset="1"
         id="stop4693" />
    </linearGradient>
    <linearGradient
       inkscape:collect="always"
       xlink:href="#linearGradient4671"
       id="linearGradient3820"
       gradientUnits="userSpaceOnUse"
       gradientTransform="matrix(0.07539972,0,0,0.07612766,19.396022,144.56884)"
       x1="150.96111"
       y1="192.35176"
       x2="112.03144"
       y2="137.27299" />
    <linearGradient
       inkscape:collect="always"
       xlink:href="#linearGradient4689"
       id="linearGradient3818"
       gradientUnits="userSpaceOnUse"
       gradientTransform="matrix(0.07539972,0,0,0.07612766,19.396022,144.56884)"
       x1="26.648937"
       y1="20.603781"
       x2="135.66525"
       y2="114.39767" />
    <linearGradient
       inkscape:collect="always"
       xlink:href="#linearGradient4671"
       id="linearGradient1475"
       gradientUnits="userSpaceOnUse"
       gradientTransform="matrix(0.07539972,0,0,0.07612766,-33.137372,155.44364)"
       x1="150.96111"
       y1="192.35176"
       x2="112.03144"
       y2="137.27299" />
    <linearGradient
       inkscape:collect="always"
       xlink:href="#linearGradient4689"
       id="linearGradient1478"
       gradientUnits="userSpaceOnUse"
       gradientTransform="matrix(0.07539972,0,0,0.07612766,-33.137372,155.44364)"
       x1="26.648937"
       y1="20.603781"
       x2="135.66525"
       y2="114.39767" />
  </defs>
  <sodipodi:namedview
     id="base"
     pagecolor="#ffffff"
     bordercolor="#666666"
     borderopacity="1.0"
     inkscape:pageopacity="0.0"
     inkscape:pageshadow="2"
     inkscape:zoom="0.35"
     inkscape:cx="196.19049"
     inkscape:cy="220.9524"
     inkscape:document-units="mm"
     inkscape:current-layer="layer1"
     showgrid="false"
     fit-margin-top="0"
     fit-margin-left="0"
     fit-margin-right="0"
     fit-margin-bottom="0"
     inkscape:window-width="2560"
     inkscape:window-height="993"
     inkscape:window-x="0"
     inkscape:window-y="384"
     inkscape:window-maximized="1" />
  <metadata
     id="metadata1521">
    <rdf:RDF>
      <cc:Work
         rdf:about="">
        <dc:format>image/svg+xml</dc:format>
        <dc:type
           rdf:resource="http://purl.org/dc/dcmitype/StillImage" />
        <dc:title></dc:title>
      </cc:Work>
    </rdf:RDF>
  </metadata>
  <g
     inkscape:label="Layer 1"
     inkscape:groupmode="layer"
     id="layer1"
     transform="translate(85.92659,-66.182541)">
    <rect
       style="opacity:1;fill:#999999;fill-opacity:1;stroke:#4d4d4d;stroke-width:0.85699999;stroke-linecap:round;stroke-linejoin:round;stroke-miterlimit:4;stroke-dasharray:none;stroke-opacity:1"
       id="rect4512"
       width="20.312483"
       height="32.072342"
       x="-71.378922"
       y="143.88396"
       inkscape:export-xdpi="64.290001"
       inkscape:export-ydpi="64.290001" />
    <rect
       y="143.7616"
       x="-61.234329"
       height="32.317043"
       width="10.290236"
       id="rect5453"
       style="opacity:1;fill:#808080;fill-opacity:1;stroke:#4d4d4d;stroke-width:0.61229748;stroke-linecap:round;stroke-linejoin:round;stroke-miterlimit:4;stroke-dasharray:none;stroke-opacity:1"
       inkscape:export-xdpi="64.290001"
       inkscape:export-ydpi="64.290001" />
    <path
       style="fill:#3772a2;fill-opacity:1;stroke:#4d4d4d;stroke-width:0.588;stroke-miterlimit:4;stroke-dasharray:none"
       inkscape:connector-curvature="0"
       d="m -48.919161,95.316071 39.3774689,22.734599 -1.3154789,2.27848 -39.377472,-22.734601 z"
       id="path2621"
       sodipodi:nodetypes="ccccc"
       inkscape:transform-center-x="-43.977821"
       inkscape:transform-center-y="25.390598"
       inkscape:export-xdpi="64.290001"
       inkscape:export-ydpi="64.290001" />
    <path
       style="fill:#3772a2;fill-opacity:1;stroke:#4d4d4d;stroke-width:0.588;stroke-miterlimit:4;stroke-dasharray:none"
       inkscape:connector-curvature="0"
       d="m 27.539522,91.026414 h 2.63096 v 15.048526 h -2.63096 z"
       id="path2623"
       sodipodi:nodetypes="ccccc"
       inkscape:export-xdpi="64.290001"
       inkscape:export-ydpi="64.290001" />
    <path
       id="path2627"
       d="m -55.433692,107.71942 h -11.577981 l 2.124941,-14.871065 h 7.3281 z"
       inkscape:connector-curvature="0"
       style="fill:#e6e6e6;stroke:#4d4d4d;stroke-width:0.98799998;stroke-miterlimit:4;stroke-dasharray:none"
       inkscape:export-xdpi="64.290001"
       inkscape:export-ydpi="64.290001" />
    <path
       style="fill:#cccccc;stroke:#4d4d4d;stroke-width:0.78799999;stroke-miterlimit:4;stroke-dasharray:none"
       id="path2631"
       d="m -55.433692,107.71942 h -5.78899 V 92.848355 h 3.66405 z"
       inkscape:connector-curvature="0"
       inkscape:export-xdpi="64.290001"
       inkscape:export-ydpi="64.290001" />
    <path
       style="fill:#cccccc;stroke:#4d4d4d;stroke-width:0.98799998;stroke-miterlimit:4;stroke-dasharray:none"
       id="path2633"
       d="m -48.492714,93.426062 -8.058449,-4.652544 -3.215909,5.570122 8.058449,4.652544 c 1.53812,0.888034 3.50498,0.361019 4.393012,-1.177105 0.888039,-1.538123 0.361018,-3.504983 -1.177103,-4.393017 z"
       inkscape:connector-curvature="0"
       inkscape:transform-center-x="-8.0336793"
       inkscape:transform-center-y="4.3895992"
       inkscape:export-xdpi="64.290001"
       inkscape:export-ydpi="64.290001" />
    <path
       style="fill:#ffdd54;fill-opacity:1;stroke:#4d4d4d;stroke-width:0.68800002;stroke-miterlimit:4;stroke-dasharray:none"
       id="path2637"
       d="m -51.574953,115.43866 v 25.55811 h -19.29546 v -25.55811 c 0,-2.66428 1.079571,-5.076 2.82565,-6.82208 1.746081,-1.74608 4.15779,-2.82565 6.822081,-2.82565 5.32857,0 9.647729,4.31916 9.647729,9.64773 z"
       inkscape:connector-curvature="0"
       sodipodi:nodetypes="sccssss"
       inkscape:export-xdpi="64.290001"
       inkscape:export-ydpi="64.290001" />
    <path
       style="fill:#3772a2;fill-opacity:1;stroke:#4d4d4d;stroke-width:0.68800002;stroke-miterlimit:4;stroke-dasharray:none"
       inkscape:connector-curvature="0"
       d="m -51.574953,115.43866 v 26.35992 h -9.647729 v -36.00765 c 5.32857,0 9.647729,4.31916 9.647729,9.64773 z"
       id="path2641"
       sodipodi:nodetypes="scccs"
       inkscape:export-xdpi="64.290001"
       inkscape:export-ydpi="64.290001" />
    <circle
       style="fill:#f9f9f9;stroke:#4d4d4d;stroke-width:0.53092718;stroke-miterlimit:4;stroke-dasharray:none"
       cx="-61.222855"
       cy="115.43864"
       r="5.9285226"
       id="circle2643"
       inkscape:export-xdpi="64.290001"
       inkscape:export-ydpi="64.290001" />
    <path
       style="fill:#e6e6e6;stroke:#4d4d4d;stroke-width:0.98799998;stroke-miterlimit:4;stroke-dasharray:none"
       inkscape:connector-curvature="0"
       d="m -74.086323,173.60365 h 25.72728 v 6.43182 h -25.72728 z"
       id="path2647"
       inkscape:export-xdpi="64.290001"
       inkscape:export-ydpi="64.290001" />
    <path
       style="fill:#b3b3b3;stroke:#4d4d4d;stroke-width:0.99516886;stroke-miterlimit:4;stroke-dasharray:none"
       inkscape:connector-curvature="0"
       d="m -61.415952,173.60121 h 13.053329 v 6.43068 h -13.053329 z"
       id="path2649"
       inkscape:export-xdpi="64.290001"
       inkscape:export-ydpi="64.290001" />
    <path
       style="fill:#ffdd54;fill-opacity:1;stroke:#4d4d4d;stroke-width:0.68800002;stroke-miterlimit:4;stroke-dasharray:none"
       inkscape:connector-curvature="0"
       d="m -56.398382,89.711372 c 0,2.663409 -2.16001,4.823427 -4.8243,4.823427 -2.664291,0 -4.824311,-2.160018 -4.824311,-4.823427 0,-2.664286 2.16002,-4.824305 4.824311,-4.824305 2.66429,0 4.8243,2.160019 4.8243,4.824305 z"
       id="path2651"
       inkscape:export-xdpi="64.290001"
       inkscape:export-ydpi="64.290001" />
    <path
       style="fill:#3772a2;fill-opacity:1;stroke:#4d4d4d;stroke-width:0.68800002;stroke-miterlimit:4;stroke-dasharray:none"
       inkscape:connector-curvature="0"
       d="m -56.398382,89.711372 c 0,2.663409 -2.16001,4.823427 -4.8243,4.823427 v -9.647732 c 2.66429,0 4.8243,2.160019 4.8243,4.824305 z"
       id="path2653"
       inkscape:export-xdpi="64.290001"
       inkscape:export-ydpi="64.290001" />
    <path
       style="fill:#e6e6e6;stroke:#4d4d4d;stroke-width:0.18799999;stroke-miterlimit:4;stroke-dasharray:none"
       inkscape:connector-curvature="0"
       d="m -62.624113,88.395892 h 2.80285 v 2.63096 h -2.80285 z"
       id="path2655"
       inkscape:export-xdpi="64.290001"
       inkscape:export-ydpi="64.290001" />
    <path
       style="fill:#cccccc;stroke:#4d4d4d;stroke-width:0.18799999;stroke-miterlimit:4;stroke-dasharray:none"
       inkscape:connector-curvature="0"
       d="m -61.222682,88.395892 h 1.401419 v 2.63096 h -1.401419 z"
       id="path2657"
       inkscape:export-xdpi="64.290001"
       inkscape:export-ydpi="64.290001" />
    <rect
       style="opacity:1;fill:#efefef;fill-opacity:0;stroke:none;stroke-width:3.38666677;stroke-miterlimit:4;stroke-dasharray:none;stroke-opacity:0"
       id="rect4464"
       width="197.55556"
       height="141.11111"
       x="-85.92659"
       y="66.182541"
       ry="0"
       inkscape:export-xdpi="64.290001"
       inkscape:export-ydpi="64.290001" />
    <path
       inkscape:transform-center-y="-13.857048"
       inkscape:transform-center-x="-18.08375"
       sodipodi:nodetypes="ccccc"
       id="path4242"
       d="M 28.842462,91.026414 -9.3099621,120.33436 -10.916163,118.25059 27.236262,88.942646 Z"
       inkscape:connector-curvature="0"
       style="fill:#3772a2;fill-opacity:1;stroke:#4d4d4d;stroke-width:0.588;stroke-miterlimit:4;stroke-dasharray:none"
       inkscape:export-xdpi="64.290001"
       inkscape:export-ydpi="64.290001" />
    <path
       id="path4268"
       d="m 24.244262,122.45093 -2.02763,2.03343 c -0.0373,0.0374 -0.0109,0.10118 0.042,0.10118 h 0.68215 c 0.0435,0 0.0722,0.0453 0.0536,0.0847 l -0.74394,1.57123 c -0.0285,0.0601 0.0485,0.11435 0.0955,0.0673 l 2.03856,-2.03855 c 0.0374,-0.0374 0.0109,-0.10129 -0.0419,-0.10129 h -0.69876 c -0.0435,0 -0.0723,-0.0455 -0.0534,-0.0849 l 0.74939,-1.56568 c 0.0289,-0.0602 -0.0484,-0.11471 -0.0955,-0.0676 z"
       inkscape:connector-curvature="0"
       style="fill:#fce25c;stroke-width:0.02934906"
       inkscape:export-xdpi="64.290001"
       inkscape:export-ydpi="64.290001" />
    <path
       id="path4272"
       d="m 35.266402,122.66514 -1.96588,1.97151 c -0.0362,0.0363 -0.0105,0.0981 0.0407,0.0981 h 0.66137 c 0.0422,0 0.07,0.0439 0.052,0.0821 l -0.72132,1.52339 c -0.0276,0.0583 0.047,0.11088 0.0926,0.0653 l 1.97648,-1.97648 c 0.0363,-0.0363 0.0106,-0.0981 -0.0406,-0.0981 h -0.67747 c -0.0422,0 -0.0701,-0.0442 -0.0518,-0.0823 l 0.72657,-1.51801 c 0.0279,-0.0584 -0.047,-0.11124 -0.0926,-0.0654 z"
       inkscape:connector-curvature="0"
       style="fill:#fce25c;stroke-width:0.02845534"
       inkscape:export-xdpi="64.290001"
       inkscape:export-ydpi="64.290001" />
    <path
       style="fill:#fbd307;stroke-width:0.02934906"
       inkscape:connector-curvature="0"
       d="m 23.116792,124.0841 c -0.0189,0.0394 0.0102,0.0849 0.0534,0.0849 h 0.47358 c -0.0436,0 -0.0723,-0.0455 -0.0534,-0.0849 l 0.74938,-1.56568 c 0.0289,-0.0602 -0.0484,-0.11472 -0.0955,-0.0674 l -0.66499,0.66689 z"
       id="path4276"
       inkscape:export-xdpi="64.290001"
       inkscape:export-ydpi="64.290001" />
    <path
       style="fill:#fbd307;stroke-width:0.02934906"
       inkscape:connector-curvature="0"
       d="m 24.342612,124.16901 h -0.47358 c 0.0527,0 0.0793,0.0639 0.0419,0.10128 l -1.38112,1.3811 -0.27942,0.59013 c -0.0284,0.0601 0.0485,0.11435 0.0955,0.0673 l 2.03857,-2.03857 c 0.0374,-0.0373 0.0109,-0.10118 -0.0419,-0.10118 z"
       id="path4280"
       inkscape:export-xdpi="64.290001"
       inkscape:export-ydpi="64.290001" />
    <path
       style="fill:#fbd307;stroke-width:0.02845534"
       inkscape:connector-curvature="0"
       d="m 34.173252,124.24856 c -0.0183,0.0382 0.01,0.0823 0.0518,0.0823 h 0.45916 c -0.0422,0 -0.0701,-0.0442 -0.0518,-0.0823 l 0.72657,-1.51801 c 0.0279,-0.0584 -0.0469,-0.11122 -0.0926,-0.0653 l -0.64473,0.6466 z"
       id="path4286"
       inkscape:export-xdpi="64.290001"
       inkscape:export-ydpi="64.290001" />
    <path
       style="fill:#fbd307;stroke-width:0.02845534"
       inkscape:connector-curvature="0"
       d="m 35.361732,124.33088 h -0.45916 c 0.0511,0 0.0769,0.0619 0.0406,0.0981 l -1.33904,1.33905 -0.27092,0.57215 c -0.0276,0.0583 0.047,0.11088 0.0926,0.0653 l 1.97647,-1.9765 c 0.0363,-0.0363 0.0106,-0.0981 -0.0406,-0.0981 z"
       id="path4290"
       inkscape:export-xdpi="64.290001"
       inkscape:export-ydpi="64.290001" />
    <path
       style="fill:#dfdfdf;stroke:#4d4d4d;stroke-width:0.90385991;stroke-miterlimit:4;stroke-dasharray:none"
       inkscape:connector-curvature="0"
       d="m 36.168942,121.05923 h -3.60515 c -0.18341,0 -0.33205,-0.14864 -0.33205,-0.33205 v -8.05977 c 0,-1.87412 -1.49652,-3.42923 -3.37054,-3.4474 -1.89237,-0.0184 -3.43776,1.51575 -3.43772,3.40399 l -4e-5,8.10318 c 0,0.18341 -0.14863,0.33205 -0.33206,0.33205 h -3.60515 c -0.18341,0 -0.33206,-0.14864 -0.33206,-0.33205 l -4e-5,-8.02889 c 0,-4.24157 3.41011,-7.73586 7.65166,-7.74767 4.24111,-0.0121 7.6952,3.43506 7.6952,7.67336 v 8.1032 c 0,0.18341 -0.14864,0.33205 -0.33205,0.33205 z"
       id="path4246"
       inkscape:export-xdpi="64.290001"
       inkscape:export-ydpi="64.290001" />
    <path
       id="path4258"
       d="M 25.423422,117.50869 V 112.624 c 0,-1.88819 1.54532,-3.42231 3.43772,-3.40399 1.87404,0.0181 3.37056,1.57325 3.37052,3.4474 v 4.84133 h 4.26926 v -4.8847 c 0,-4.23836 -3.45408,-7.68524 -7.69519,-7.67335 -4.24155,0.0121 -7.65165,3.50609 -7.65165,7.74765 v 4.81042 z"
       inkscape:connector-curvature="0"
       style="fill:#4b90c8;fill-opacity:1;stroke:#4d4d4d;stroke-width:0.90385991;stroke-miterlimit:4;stroke-dasharray:none"
       inkscape:export-xdpi="64.290001"
       inkscape:export-ydpi="64.290001" />
    <path
       id="path4296"
       d="m 28.827542,104.95079 c -0.008,0 -0.0146,-2.4e-4 -0.0216,-1.9e-4 -4.24155,0.0121 -7.65166,3.50607 -7.65166,7.74763 l 4e-5,8.02897 c 0,0.18341 0.14864,0.33206 0.33206,0.33206 h 3.60513 c 0.18342,0 0.33207,-0.14865 0.33207,-0.33206 v -8.1032 c 0,-1.87697 1.52717,-3.40336 3.40414,-3.40342 z"
       inkscape:connector-curvature="0"
       style="fill:#dfdfdf;stroke:#4d4d4d;stroke-width:0.90385991;stroke-miterlimit:4;stroke-dasharray:none"
       inkscape:export-xdpi="64.290001"
       inkscape:export-ydpi="64.290001" />
    <path
       id="path4300"
       d="M 25.423422,117.50869 V 112.624 c 0,-1.87697 1.52715,-3.40336 3.40412,-3.40342 v -4.26973 c -0.008,0 -0.0146,-2.3e-4 -0.0216,-1.9e-4 -4.24155,0.0121 -7.65166,3.50608 -7.65166,7.74765 v 4.81043 z"
       inkscape:connector-curvature="0"
       style="fill:#ffdd54;fill-opacity:1;stroke:#4d4d4d;stroke-width:0.90385991;stroke-miterlimit:4;stroke-dasharray:none"
       inkscape:export-xdpi="64.290001"
       inkscape:export-ydpi="64.290001" />
    <path
       id="path4491"
       d="m -74.086323,139.92769 h 25.72728 v 6.43182 h -25.72728 z"
       inkscape:connector-curvature="0"
       style="fill:#e6e6e6;stroke:#4d4d4d;stroke-width:0.98799998;stroke-miterlimit:4;stroke-dasharray:none"
       inkscape:export-xdpi="64.290001"
       inkscape:export-ydpi="64.290001" />
    <path
       id="path4493"
       d="m -61.415952,139.93127 h 13.053329 v 6.43068 h -13.053329 z"
       inkscape:connector-curvature="0"
       style="fill:#b3b3b3;stroke:#4d4d4d;stroke-width:0.99516886;stroke-miterlimit:4;stroke-dasharray:none"
       inkscape:export-xdpi="64.290001"
       inkscape:export-ydpi="64.290001" />
    <path
       style="fill:#f2f2f2;stroke:#4d4d4d;stroke-width:0.66319704;stroke-miterlimit:4;stroke-dasharray:none"
       d="m -5.9217821,122.08525 -0.412599,-0.41482 c 0.162528,-0.29556 0.291568,-0.60863 0.384508,-0.93293 h 0.583341 c 0.11994,0 0.217521,-0.0983 0.217521,-0.21911 v -2.07706 c 0,-0.12079 -0.0976,-0.2191 -0.2175,-0.2191 h -0.583362 c -0.093,-0.32439 -0.222009,-0.63746 -0.384508,-0.93293 l 0.412599,-0.41482 c 0.0412,-0.0414 0.0638,-0.0964 0.0636,-0.15496 -1.11e-4,-0.0584 -0.0227,-0.11331 -0.0639,-0.15458 l -1.460841,-1.4688 c -0.0411,-0.0413 -0.0957,-0.0641 -0.153739,-0.0642 -2.41e-4,0 -2.64e-4,0 -5.29e-4,0 -0.058,0 -0.112681,0.0228 -0.153699,0.064 l -0.412602,0.41484 c -0.293909,-0.16341 -0.605268,-0.29314 -0.927909,-0.3866 v -0.58646 c 0,-0.12058 -0.0978,-0.21871 -0.217929,-0.21871 h -2.0658609 c -0.12015,0 -0.21793,0.0981 -0.21793,0.21871 v 0.58651 c -0.32267,0.0935 -0.63406,0.2232 -0.927909,0.38659 l -0.412631,-0.41488 c -0.041,-0.0413 -0.0956,-0.0639 -0.153699,-0.0639 -1.11e-4,0 -2.2e-4,0 -2.65e-4,0 -0.058,8e-5 -0.112731,0.0229 -0.153802,0.0643 l -1.460789,1.46868 c -0.0411,0.0413 -0.0639,0.0962 -0.064,0.15463 -1.21e-4,0.0585 0.02249,0.11359 0.0636,0.15497 l 0.412588,0.41484 c -0.162459,0.29542 -0.29148,0.60849 -0.384479,0.9329 h -0.583361 c -0.119938,0 -0.217519,0.0983 -0.217519,0.21914 v 2.07703 c 0,0.12083 0.0976,0.21911 0.217519,0.21911 h 0.583332 c 0.093,0.32444 0.222049,0.63748 0.384508,0.93292 l -0.41253,0.41477 c -0.0412,0.0415 -0.0638,0.0964 -0.0637,0.15501 1.08e-4,0.0585 0.02281,0.11335 0.0639,0.15461 l 1.460799,1.46872 c 0.0411,0.0413 0.0957,0.0642 0.153781,0.0643 1.01e-4,0 2.3e-4,0 5.29e-4,0 0.0581,0 0.112679,-0.0228 0.153639,-0.0639 l 0.412633,-0.41483 c 0.293899,0.16339 0.6053,0.2931 0.927909,0.3866 v 0.58646 c 0,0.12061 0.0978,0.21869 0.21794,0.21869 l 2.0659009,-3e-5 c 0.12015,0 0.21793,-0.0981 0.21793,-0.21866 v -0.58649 c 0.32264,-0.0935 0.634071,-0.22323 0.92792,-0.38661 l 0.41257,0.41484 c 0.0412,0.0413 0.0949,0.0637 0.154188,0.064 0.058,-10e-5 0.112713,-0.0229 0.153742,-0.0643 l 1.46086,-1.46871 c 0.0849,-0.0854 0.085,-0.22431 2.3e-4,-0.30954 z"
       id="path4700-7"
       inkscape:connector-curvature="0" />
    <circle
       style="fill:#cccccc;stroke:#4d4d4d;stroke-width:0.47531396;stroke-miterlimit:4;stroke-dasharray:none"
       cx="-10.282171"
       cy="119.47986"
       r="2.2217553"
       id="circle4519" />
    <path
       style="fill:#ffffff;stroke:#808080;stroke-width:0.13628502;stroke-miterlimit:4;stroke-dasharray:none;stroke-opacity:1"
       d="m -10.282221,115.73863 c -2.051862,0 -3.72115,1.6783 -3.72115,3.74123 0,2.06291 1.669288,3.74124 3.72115,3.74127 2.0518279,0 3.7211189,-1.67833 3.7211189,-3.74127 0,-2.06293 -1.669249,-3.74123 -3.7211189,-3.74123 z"
       id="path4708-6"
       inkscape:connector-curvature="0" />
    <path
       style="fill:#ffffff;stroke:#808080;stroke-width:0.0408855;stroke-miterlimit:4;stroke-dasharray:none;stroke-opacity:1"
       d="m -10.282221,122.9419 c -1.898721,-3e-5 -3.44342,-1.55307 -3.44342,-3.46204 0,-1.90897 1.544699,-3.46201 3.44342,-3.46201 1.8986899,0 3.4433879,1.55304 3.4433879,3.46201 0,1.90897 -1.544669,3.46204 -3.4433879,3.46204 z"
       id="path4485-2"
       inkscape:connector-curvature="0" />
    <path
       style="fill:#ffffff;stroke:#4d4d4d;stroke-width:0.39791825;stroke-miterlimit:4;stroke-dasharray:none"
       d="m -10.282213,122.36238 c -1.58092,0 -2.867049,-1.29311 -2.867049,-2.88252 0,-1.5894 1.286169,-2.88252 2.867049,-2.88252 1.5808719,0 2.8670299,1.29312 2.8670299,2.88252 0,1.58946 -1.286158,2.88252 -2.8670299,2.88252 z"
       id="path4489-6"
       inkscape:connector-curvature="0" />
    <path
       inkscape:connector-curvature="0"
       style="fill:#b3b3b3;fill-opacity:1;stroke:#4d4d4d;stroke-width:0.32754844;stroke-miterlimit:4;stroke-dasharray:none"
       d="m 55.429032,154.08565 -1.07418,-0.96323 c -1.03644,-0.92935 -2.64006,-0.84665 -3.57432,0.18441 -0.93421,1.03105 -0.85107,2.62632 0.18538,3.55571 l 1.07418,0.96323 c 1.03644,0.92935 2.64006,0.84665 3.57432,-0.18441 0.93425,-1.03106 0.85107,-2.62632 -0.18538,-3.55571 z m -3.49485,1.70831 c -0.44427,-0.39836 -0.47987,-1.08191 -0.0795,-1.52386 0.40045,-0.44196 1.08757,-0.47737 1.53183,-0.079 l 1.07418,0.96323 c 0.44427,0.39837 0.47987,1.08191 0.0795,1.52386 -0.40045,0.44196 -1.08757,0.47738 -1.53183,0.079 z"
       id="path4189" />
    <path
       inkscape:connector-curvature="0"
       style="fill:#b3b3b3;fill-opacity:1;stroke:#4d4d4d;stroke-width:0.32754844;stroke-miterlimit:4;stroke-dasharray:none"
       d="m 46.059782,153.52484 1.44424,-0.0745 c 1.39348,-0.0719 2.46859,-1.25843 2.39634,-2.64466 -0.0723,-1.38623 -1.26502,-2.45574 -2.6585,-2.38386 l -1.44423,0.0745 c -1.39348,0.0719 -2.4686,1.25842 -2.39634,2.64465 0.0723,1.38617 1.26501,2.45574 2.65849,2.38387 z m 1.257,-3.66631 c 0.59729,-0.0308 1.10839,0.42747 1.13934,1.02165 0.031,0.59418 -0.42971,1.10262 -1.027,1.13341 l -1.44423,0.0745 c -0.59728,0.0308 -1.10838,-0.42748 -1.13934,-1.02165 -0.0309,-0.59418 0.42967,-1.10261 1.02696,-1.1334 z"
       id="path4191" />
    <path
       id="path4193"
       d="m 57.110982,164.11917 -0.0749,-1.43671 c -0.0723,-1.38623 -1.26501,-2.45574 -2.65849,-2.38386 -1.39348,0.0719 -2.4686,1.25842 -2.39634,2.64465 l 0.0749,1.43671 c 0.0723,1.38623 1.26501,2.45575 2.65849,2.38387 1.39347,-0.0719 2.46863,-1.25848 2.39634,-2.64466 z m -3.68549,-1.25045 c -0.031,-0.59418 0.42971,-1.10262 1.027,-1.13341 0.59728,-0.0308 1.10838,0.42748 1.13934,1.02165 l 0.0749,1.43671 c 0.031,0.59418 -0.42972,1.10262 -1.027,1.13341 -0.59729,0.0308 -1.10839,-0.42747 -1.13934,-1.02165 z"
       style="fill:#b3b3b3;fill-opacity:1;stroke:#4d4d4d;stroke-width:0.32754844;stroke-miterlimit:4;stroke-dasharray:none"
       inkscape:connector-curvature="0" />
    <path
       id="path4195"
       d="m 61.593512,166.76906 1.44423,-0.0745 c 1.39348,-0.0719 2.4686,-1.25843 2.39634,-2.64465 -0.0723,-1.38623 -1.26501,-2.45575 -2.65849,-2.38387 l -1.44423,0.0745 c -1.39348,0.0719 -2.4686,1.25843 -2.39634,2.64466 0.0723,1.38622 1.26501,2.45574 2.65849,2.38386 z m 1.25696,-3.66629 c 0.59728,-0.0308 1.10838,0.42747 1.13934,1.02165 0.0309,0.59418 -0.42972,1.10261 -1.027,1.13341 l -1.44423,0.0745 c -0.59729,0.0308 -1.10839,-0.42748 -1.13935,-1.02165 -0.0309,-0.59418 0.42972,-1.10262 1.027,-1.13341 z"
       style="fill:#b3b3b3;fill-opacity:1;stroke:#4d4d4d;stroke-width:0.32754844;stroke-miterlimit:4;stroke-dasharray:none"
       inkscape:connector-curvature="0" />
    <path
       inkscape:connector-curvature="0"
       style="fill:#000000;fill-opacity:0.29411765;stroke-width:0.04333192"
       d="m 50.780532,153.30683 c 0.35999,-0.3973 0.81968,-0.65223 1.3077,-0.76424 l 0.73479,0.65888 c 0.26733,0.23971 0.42687,0.56386 0.46436,0.91713 -0.44238,-0.31403 -1.06021,-0.2595 -1.43263,0.15145 -0.37236,0.41098 -0.36293,1.02794 -0.003,1.43319 -0.35713,-5.3e-4 -0.69773,-0.1249 -0.96501,-0.36458 l -0.73478,-0.65887 c 0.0615,-0.49443 0.2688,-0.97565 0.62878,-1.37296 z"
       id="path4199" />
    <path
       inkscape:connector-curvature="0"
       style="fill:#000000;fill-opacity:0.29411765;stroke-width:0.04333192"
       d="m 47.429122,152.01359 c 0.59729,-0.0308 1.05796,-0.53923 1.027,-1.13341 -0.031,-0.59418 -0.54205,-1.05245 -1.13934,-1.02165 l -0.22376,0.0115 c 0.25112,-0.24246 0.57432,-0.38978 0.92712,-0.40798 0.38576,-0.0199 0.75625,0.11086 1.04315,0.36813 l 0.81141,0.72758 c 0.0124,0.0814 0.0212,0.16397 0.0256,0.24786 0.0538,1.03296 -0.52986,1.95429 -1.4072,2.38695 l -1.30117,-1.16676 z"
       id="path4201" />
    <path
       inkscape:connector-curvature="0"
       style="fill:#000000;fill-opacity:0.29411765;stroke-width:0.04333192"
       d="m 54.377612,160.2986 c 0.53695,-0.0277 1.04316,0.11537 1.46791,0.37947 l 0.0512,0.98274 c 0.0192,0.36805 -0.10733,0.70813 -0.32368,0.97444 -0.0899,-0.53287 -0.56537,-0.92861 -1.12055,-0.89995 -0.55518,0.0286 -0.98692,0.47117 -1.02094,1.01045 -0.24289,-0.24265 -0.40411,-0.56787 -0.42328,-0.93592 l -0.0512,-0.98274 c 0.39492,-0.30639 0.88359,-0.50081 1.42054,-0.52849 z"
       id="path4203" />
    <path
       inkscape:connector-curvature="0"
       style="fill:#000000;fill-opacity:0.29411765;stroke-width:0.04333192"
       d="m 54.540232,156.67813 c 0.34418,-0.37985 0.36413,-0.93716 0.0815,-1.3395 0.55958,0.17536 0.98078,0.67742 1.01291,1.29366 l 0.0482,0.92541 c -0.0231,0.0278 -0.0439,0.0566 -0.0684,0.0837 -0.72079,0.79545 -1.83922,1.02382 -2.78899,0.66104 l -0.0793,-1.52108 c -0.004,-0.0846 0.002,-0.16697 0.0122,-0.24832 l 0.25001,0.22419 c 0.44422,0.39834 1.13138,0.36291 1.53183,-0.079 z"
       id="path4205" />
    <path
       inkscape:connector-curvature="0"
       style="fill:#000000;fill-opacity:0.29411765;stroke-width:0.04333192"
       d="m 61.283892,163.19595 c -0.53565,0.0894 -0.93346,0.56243 -0.90466,1.11472 0.0288,0.55228 0.47364,0.98178 1.01574,1.01563 -0.24391,0.24162 -0.57083,0.402 -0.94081,0.42107 l -0.98788,0.051 c -0.30796,-0.39291 -0.50339,-0.879 -0.53128,-1.41318 -0.0278,-0.53416 0.11602,-1.03775 0.38146,-1.46028 l 0.98788,-0.051 c 0.36999,-0.019 0.71186,0.10686 0.97955,0.32204 z"
       id="path4208" />
    <path
       inkscape:connector-curvature="0"
       style="fill:#000000;fill-opacity:0.29411765;stroke-width:0.04333192"
       d="m 54.009612,165.16273 c 0.18236,0.11381 0.39929,0.17626 0.63014,0.16434 0.59729,-0.0308 1.05796,-0.53923 1.027,-1.13341 l -0.0562,-1.07753 1.44423,-0.0745 0.0562,1.07753 c 0.0367,0.70322 -0.22278,1.35421 -0.66844,1.83521 l -1.04321,0.0538 c -0.61081,0.0315 -1.15113,-0.32217 -1.38972,-0.84547 z"
       id="path4210" />
    <path
       inkscape:connector-curvature="0"
       style="fill:#b3b3b3;fill-opacity:1;stroke:#4d4d4d;stroke-width:0.32754844;stroke-miterlimit:4;stroke-dasharray:none"
       d="m 61.101362,164.27344 v 0 c -0.0207,-0.39673 -0.36077,-0.70166 -0.75958,-0.68108 l -5.05483,0.26079 c -0.39881,0.0206 -0.70533,0.35888 -0.68465,0.75561 v 0 c 0.0207,0.39674 0.36076,0.70166 0.75957,0.68109 l 5.05484,-0.26079 c 0.39881,-0.0206 0.70533,-0.35889 0.68465,-0.75562 z"
       id="path4214" />
    <path
       inkscape:connector-curvature="0"
       style="fill:#b3b3b3;fill-opacity:1;stroke:#4d4d4d;stroke-width:0.32754844;stroke-miterlimit:4;stroke-dasharray:none"
       d="m 54.152872,155.98844 v 0 c -0.39881,0.0206 -0.70533,0.35888 -0.68465,0.75561 l 0.26216,5.02852 c 0.0207,0.39674 0.36076,0.70166 0.75957,0.68109 v 0 c 0.39881,-0.0206 0.70533,-0.35889 0.68465,-0.75562 l -0.26216,-5.02852 c -0.0207,-0.39673 -0.36076,-0.70166 -0.75957,-0.68108 z"
       id="path4216" />
    <path
       inkscape:connector-curvature="0"
       style="fill:#b3b3b3;fill-opacity:1;stroke:#4d4d4d;stroke-width:0.32754844;stroke-miterlimit:4;stroke-dasharray:none"
       d="m 47.557972,150.41716 v 0 c -0.26739,0.29508 -0.24364,0.74992 0.053,1.01592 l 3.7597,3.3713 c 0.29662,0.26599 0.75385,0.24237 1.02123,-0.0527 v 0 c 0.26739,-0.29508 0.24365,-0.74992 -0.053,-1.01592 l -3.7597,-3.37131 c -0.29666,-0.26593 -0.75389,-0.24235 -1.02124,0.0527 z"
       id="path4218" />
    <path
       id="path2513"
       d="m 2.4175379,154.07495 1.071851,-0.96617 c 1.03419,-0.93219 2.63434,-0.84923 3.56656,0.18497 0.93219,1.0342 0.84923,2.63434 -0.184971,3.56657 l -1.07185,0.96617 c -1.034191,0.93218 -2.63433,0.84922 -3.56656,-0.18498 -0.93223,-1.0342 -0.84923,-2.63434 0.18497,-3.56656 z m 3.487269,1.71352 c 0.443312,-0.39958 0.47883,-1.08521 0.0793,-1.52851 -0.399579,-0.44331 -1.085209,-0.47883 -1.528511,-0.0793 l -1.071848,0.96616 c -0.443301,0.39959 -0.47883,1.08521 -0.0793,1.52852 0.39959,0.4433 1.08522,0.47882 1.528519,0.0793 z"
       style="fill:#b3b3b3;stroke:#4d4d4d;stroke-width:0.32769188;stroke-miterlimit:4;stroke-dasharray:none"
       inkscape:connector-curvature="0" />
    <path
       id="path2515"
       d="m 11.766458,153.51242 -1.441101,-0.0747 c -1.3904491,-0.0721 -2.4632391,-1.26227 -2.3911401,-2.65272 0.0721,-1.39046 1.262272,-2.46324 2.6527311,-2.39114 l 1.441101,0.0747 c 1.390449,0.0721 2.463243,1.26227 2.391143,2.65273 -0.0721,1.3904 -1.262274,2.46324 -2.652734,2.39114 z m -1.25427,-3.6775 c -0.5959901,-0.0309 -1.1059801,0.42878 -1.1368701,1.02477 -0.0309,0.59599 0.428781,1.10598 1.0247711,1.13687 l 1.441101,0.0747 c 0.595989,0.0309 1.105979,-0.42878 1.136869,-1.02477 0.0309,-0.59599 -0.428741,-1.10597 -1.024731,-1.13686 z"
       style="fill:#b3b3b3;stroke:#4d4d4d;stroke-width:0.32769188;stroke-miterlimit:4;stroke-dasharray:none"
       inkscape:connector-curvature="0" />
    <path
       inkscape:connector-curvature="0"
       style="fill:#b3b3b3;stroke:#4d4d4d;stroke-width:0.32769188;stroke-miterlimit:4;stroke-dasharray:none"
       d="m 0.73923885,164.13909 0.0747,-1.44109 c 0.0721,-1.39046 1.26226905,-2.46324 2.65272105,-2.39114 1.390459,0.0721 2.463239,1.26227 2.391151,2.65272 l -0.0747,1.4411 c -0.0721,1.39046 -1.262269,2.46324 -2.652728,2.39114 -1.390441,-0.0721 -2.46327105,-1.26232 -2.39114005,-2.65273 z m 3.67749905,-1.25427 c 0.0309,-0.59599 -0.428779,-1.10598 -1.024771,-1.13687 -0.59599,-0.0309 -1.10598,0.42879 -1.13687,1.02478 l -0.0747,1.44109 c -0.0309,0.59599 0.428781,1.10598 1.02477,1.13687 0.59599,0.0309 1.10598,-0.42878 1.13687,-1.02477 z"
       id="path2525" />
    <path
       inkscape:connector-curvature="0"
       style="fill:#b3b3b3;stroke:#4d4d4d;stroke-width:0.32769188;stroke-miterlimit:4;stroke-dasharray:none"
       d="m -3.7335611,166.79707 -1.441101,-0.0747 c -1.390459,-0.0721 -2.463239,-1.26227 -2.39114,-2.65273 0.0721,-1.39046 1.262271,-2.46324 2.652731,-2.39114 l 1.44109,0.0747 c 1.39046,0.0721 2.463239,1.26227 2.39114,2.65272 -0.0721,1.39046 -1.262261,2.46324 -2.65272,2.39114 z m -1.254231,-3.67748 c -0.59599,-0.0309 -1.10598,0.42878 -1.13687,1.02477 -0.0309,0.59599 0.428779,1.10598 1.024771,1.13687 l 1.441098,0.0747 c 0.59599,0.0309 1.10598,-0.42878 1.13687,-1.02477 0.0309,-0.59599 -0.428778,-1.10598 -1.024768,-1.13687 z"
       id="path2533" />
    <path
       id="path2519"
       d="m 7.0559489,153.29375 c -0.359201,-0.39851 -0.817901,-0.65422 -1.304862,-0.76657 l -0.733189,0.66089 c -0.266751,0.24044 -0.42594,0.56558 -0.46336,0.91993 0.441431,-0.31499 1.057921,-0.2603 1.429531,0.15191 0.371549,0.41224 0.36214,1.03108 0.003,1.43756 0.35636,-5.3e-4 0.69622,-0.12527 0.962909,-0.36569 l 0.7332,-0.66088 c -0.0614,-0.49594 -0.268218,-0.97863 -0.62743,-1.37715 z"
       style="fill:#000000;fill-opacity:0.29411765;stroke-width:0.0433509"
       inkscape:connector-curvature="0" />
    <path
       id="path2521"
       d="m 10.400089,151.99656 c -0.5959901,-0.0309 -1.0556611,-0.54088 -1.0247711,-1.13687 0.0309,-0.59599 0.54088,-1.05566 1.1368701,-1.02477 l 0.223271,0.0116 c -0.250561,-0.24321 -0.573061,-0.39098 -0.9251001,-0.40922 -0.384932,-0.02 -0.75461,0.11119 -1.040892,0.36925 l -0.809638,0.7298 c -0.01241,0.0816 -0.02119,0.16447 -0.02551,0.24861 -0.0537,1.03612 0.528709,1.96025 1.404149,2.39423 l 1.2983421,-1.17032 z"
       style="fill:#000000;fill-opacity:0.29411765;stroke-width:0.0433509"
       inkscape:connector-curvature="0" />
    <path
       id="path2527"
       d="m 3.4666769,160.30686 c -0.535778,-0.0278 -1.0409,0.11572 -1.464728,0.38063 l -0.0511,0.98574 c -0.0191,0.36917 0.1071,0.71029 0.322979,0.97741 0.0897,-0.53449 0.564142,-0.93144 1.118121,-0.9027 0.553969,0.0287 0.984769,0.47261 1.01872,1.01354 0.242361,-0.24339 0.403241,-0.5696 0.42236,-0.93878 l 0.0511,-0.98573 c -0.394062,-0.30733 -0.88167,-0.50234 -1.41746,-0.53011 z"
       style="fill:#000000;fill-opacity:0.29411765;stroke-width:0.0433509"
       inkscape:connector-curvature="0" />
    <path
       id="path2529"
       d="m 3.3044079,156.67534 c -0.343429,-0.38101 -0.363339,-0.94002 -0.0813,-1.34359 -0.558358,0.1759 -0.978649,0.67949 -1.010708,1.29761 l -0.0481,0.92823 c 0.02299,0.0279 0.0438,0.0568 0.0683,0.0839 0.719222,0.79788 1.835232,1.02694 2.782941,0.66306 l 0.0791,-1.52573 c 0.004,-0.0849 -0.0021,-0.16747 -0.0122,-0.24907 l -0.24947,0.22487 c -0.443249,0.39955 -1.12893,0.36402 -1.528509,-0.0793 z"
       style="fill:#000000;fill-opacity:0.29411765;stroke-width:0.0433509"
       inkscape:connector-curvature="0" />
    <path
       id="path2535"
       d="m -3.4246231,163.21306 c 0.534501,0.0897 0.931442,0.56414 0.9027,1.11811 -0.0287,0.55398 -0.472609,0.98478 -1.013539,1.01873 0.24339,0.24236 0.5696,0.40324 0.938781,0.42236 l 0.98574,0.0511 c 0.307289,-0.39411 0.50229,-0.88168 0.530119,-1.4175 0.0278,-0.53579 -0.115769,-1.04091 -0.38064,-1.46473 l -0.985729,-0.0511 c -0.369192,-0.0191 -0.710322,0.10719 -0.977432,0.32303 z"
       style="fill:#000000;fill-opacity:0.29411765;stroke-width:0.0433509"
       inkscape:connector-curvature="0" />
    <path
       id="path2537"
       d="m 3.8338869,165.18584 c -0.18197,0.11415 -0.398428,0.17679 -0.628779,0.16484 -0.59599,-0.0309 -1.055659,-0.54088 -1.024769,-1.13687 l 0.0561,-1.08082 -1.44110105,-0.0747 -0.0561,1.08082 c -0.0366,0.70537 0.2223,1.35836 0.66699805,1.84082 l 1.04094,0.054 c 0.609491,0.0316 1.14863,-0.32315 1.38671,-0.84805 z"
       style="fill:#000000;fill-opacity:0.29411765;stroke-width:0.0433509"
       inkscape:connector-curvature="0" />
    <path
       id="path2541"
       d="m -3.2424811,164.29384 v 0 c 0.02061,-0.39795 0.359979,-0.70381 0.75793,-0.68317 l 5.043858,0.26159 c 0.397952,0.0206 0.703811,0.35998 0.68317,0.75792 v 0 c -0.02061,0.39794 -0.359978,0.7038 -0.75792,0.68316 l -5.043868,-0.26158 c -0.397952,-0.0206 -0.7038,-0.35998 -0.68317,-0.75792 z"
       style="fill:#b3b3b3;stroke:#4d4d4d;stroke-width:0.32769188;stroke-miterlimit:4;stroke-dasharray:none"
       inkscape:connector-curvature="0" />
    <path
       id="path2543"
       d="m 3.6909279,155.98354 v 0 c 0.397941,0.0206 0.703799,0.35998 0.68317,0.75793 l -0.261589,5.04386 c -0.02061,0.39795 -0.359981,0.70381 -0.75792,0.68317 v 0 c -0.397952,-0.0206 -0.703802,-0.35998 -0.68317,-0.75793 l 0.261588,-5.04386 c 0.02061,-0.39795 0.359982,-0.70381 0.757921,-0.68317 z"
       style="fill:#b3b3b3;stroke:#4d4d4d;stroke-width:0.32769188;stroke-miterlimit:4;stroke-dasharray:none"
       inkscape:connector-curvature="0" />
    <path
       id="path2545"
       d="m 10.271528,150.39526 v 0 c 0.2668,0.29598 0.24311,0.75221 -0.0529,1.01902 l -3.7515381,3.38159 c -0.295981,0.26681 -0.75221,0.24312 -1.019021,-0.0529 v 0 c -0.266809,-0.29598 -0.24312,-0.75221 0.0529,-1.01902 l 3.75154,-3.38159 c 0.296018,-0.26675 0.7522581,-0.2431 1.0190291,0.0529 z"
       style="fill:#b3b3b3;stroke:#4d4d4d;stroke-width:0.32769188;stroke-miterlimit:4;stroke-dasharray:none"
       inkscape:connector-curvature="0" />
    <path
       style="fill:#4d4d4d;fill-opacity:1;fill-rule:evenodd;stroke:#1a1a1a;stroke-width:0.2855545;stroke-linecap:butt;stroke-linejoin:miter;stroke-miterlimit:4;stroke-dasharray:none;stroke-opacity:1"
       d="m -41.946432,180.02768 8.978381,-7.60984"
       id="path4502"
       inkscape:connector-curvature="0" />
    <path
       style="fill:#4d4d4d;fill-opacity:1;fill-rule:evenodd;stroke:#1a1a1a;stroke-width:0.2855545;stroke-linecap:butt;stroke-linejoin:miter;stroke-miterlimit:4;stroke-dasharray:none;stroke-opacity:1"
       d="m -5.4103211,180.02768 -9.2903809,-7.87429"
       id="path4504"
       inkscape:connector-curvature="0" />
    <path
       style="fill:#4d4d4d;fill-opacity:1;fill-rule:evenodd;stroke:#1a1a1a;stroke-width:0.2855545;stroke-linecap:butt;stroke-linejoin:miter;stroke-miterlimit:4;stroke-dasharray:none;stroke-opacity:1"
       d="m -5.4103211,149.06061 -8.8322999,7.48602"
       id="path4506"
       inkscape:connector-curvature="0" />
    <path
       style="fill:#4d4d4d;fill-opacity:1;fill-rule:evenodd;stroke:#1a1a1a;stroke-width:0.2855545;stroke-linecap:butt;stroke-linejoin:miter;stroke-miterlimit:4;stroke-dasharray:none;stroke-opacity:1"
       d="m -41.946432,149.06061 7.39807,6.27041"
       id="path4508"
       inkscape:connector-curvature="0" />
    <rect
       style="opacity:1;fill:#ffffff;fill-opacity:1;stroke:#4d4d4d;stroke-width:0.29573518;stroke-linecap:round;stroke-linejoin:round;stroke-miterlimit:4;stroke-dasharray:none;stroke-dashoffset:10.79999924;stroke-opacity:1"
       id="rect4162"
       width="25.446815"
       height="21.188766"
       x="-36.401745"
       y="153.94975" />
    <path
       inkscape:connector-curvature="0"
       style="fill:url(#linearGradient1478);fill-opacity:1;stroke-width:0.13403417"
       d="m -23.767062,157.01228 c -0.614371,0.003 -1.201079,0.0553 -1.717321,0.1466 -1.520788,0.26867 -1.796899,0.83102 -1.796899,1.8681 v 1.36966 h 3.59379 v 0.45655 h -3.59379 -1.348719 c -1.044461,0 -1.959012,0.62778 -2.245072,1.82203 -0.329969,1.36889 -0.344598,2.2231 0,3.65243 0.255461,1.06395 0.865532,1.82203 1.90998,1.82203 h 1.235641 v -1.64192 c 0,-1.18619 1.026311,-2.23251 2.245069,-2.23251 h 3.589602 c 0.999228,0 1.796899,-0.82272 1.796899,-1.82621 v -3.42206 c 0,-0.97394 -0.821629,-1.70556 -1.796899,-1.8681 -0.61736,-0.10277 -1.257922,-0.14946 -1.872281,-0.1466 z m -1.9435,1.10159 c 0.37121,0 0.674349,0.3081 0.674349,0.68693 0,0.37748 -0.303139,0.68273 -0.674349,0.68273 -0.372549,0 -0.674359,-0.30525 -0.674359,-0.68273 0,-0.37883 0.30181,-0.68693 0.674359,-0.68693 z"
       id="path1948" />
    <path
       inkscape:connector-curvature="0"
       style="fill:url(#linearGradient1475);fill-opacity:1;stroke-width:0.13403417"
       d="m -19.649712,160.85319 v 1.59585 c 0,1.23724 -1.04893,2.27858 -2.245069,2.27858 h -3.589602 c -0.98326,0 -1.796899,0.84153 -1.796899,1.82622 v 3.42206 c 0,0.97393 0.84691,1.5468 1.796899,1.82621 1.137592,0.3345 2.22848,0.39495 3.589602,0 0.904759,-0.26196 1.796899,-0.78914 1.796899,-1.82621 v -1.36967 h -3.58961 v -0.45655 h 3.58961 1.796889 c 1.044461,0 1.433671,-0.72853 1.796891,-1.82203 0.375211,-1.12573 0.359249,-2.20831 0,-3.65243 -0.258109,-1.03976 -0.751099,-1.82203 -1.796891,-1.82203 z m -2.01889,8.66615 c 0.372549,0 0.67437,0.30525 0.67437,0.68274 0,0.37883 -0.301821,0.68692 -0.67437,0.68692 -0.37121,0 -0.674351,-0.30809 -0.674351,-0.68692 0,-0.37749 0.303141,-0.68274 0.674351,-0.68274 z"
       id="path1950" />
    <rect
       style="opacity:1;fill:#ececec;fill-opacity:1;stroke:#4d4d4d;stroke-width:1.07906544;stroke-linecap:round;stroke-linejoin:round;stroke-miterlimit:4;stroke-dasharray:none;stroke-opacity:1"
       id="rect3782"
       width="13.067698"
       height="10.038871"
       x="-30.212233"
       y="138.77541" />
    <text
       xml:space="preserve"
       style="font-style:normal;font-variant:normal;font-weight:bold;font-stretch:normal;font-size:7.39565945px;line-height:1.25;font-family:'DejaVu Sans Mono';-inkscape-font-specification:'DejaVu Sans Mono Bold';letter-spacing:0px;word-spacing:0px;fill:#666666;fill-opacity:1;stroke:none;stroke-width:0.18489151"
       x="-25.904554"
       y="146.48694"
       id="text3950"><tspan
         sodipodi:role="line"
         id="tspan3948"
         x="-25.904554"
         y="146.48694"
         style="font-style:normal;font-variant:normal;font-weight:bold;font-stretch:normal;font-family:'DejaVu Sans Mono';-inkscape-font-specification:'DejaVu Sans Mono Bold';letter-spacing:0px;fill:#666666;stroke-width:0.18489151">0</tspan></text>
    <path
       inkscape:connector-curvature="0"
       id="path3796"
       d="m 10.586948,169.15288 8.978394,-7.60984"
       style="fill:#4d4d4d;fill-opacity:1;fill-rule:evenodd;stroke:#1a1a1a;stroke-width:0.2855545;stroke-linecap:butt;stroke-linejoin:miter;stroke-miterlimit:4;stroke-dasharray:none;stroke-opacity:1" />
    <path
       inkscape:connector-curvature="0"
       id="path3798"
       d="m 47.123062,169.15288 -9.29038,-7.87429"
       style="fill:#4d4d4d;fill-opacity:1;fill-rule:evenodd;stroke:#1a1a1a;stroke-width:0.2855545;stroke-linecap:butt;stroke-linejoin:miter;stroke-miterlimit:4;stroke-dasharray:none;stroke-opacity:1" />
    <path
       inkscape:connector-curvature="0"
       id="path3800"
       d="m 47.123062,138.18581 -8.8323,7.48602"
       style="fill:#4d4d4d;fill-opacity:1;fill-rule:evenodd;stroke:#1a1a1a;stroke-width:0.2855545;stroke-linecap:butt;stroke-linejoin:miter;stroke-miterlimit:4;stroke-dasharray:none;stroke-opacity:1" />
    <path
       inkscape:connector-curvature="0"
       id="path3802"
       d="m 10.586948,138.18581 7.398064,6.27041"
       style="fill:#4d4d4d;fill-opacity:1;fill-rule:evenodd;stroke:#1a1a1a;stroke-width:0.2855545;stroke-linecap:butt;stroke-linejoin:miter;stroke-miterlimit:4;stroke-dasharray:none;stroke-opacity:1" />
    <rect
       y="143.07495"
       x="16.131639"
       height="21.188766"
       width="25.446815"
       id="rect3806"
       style="opacity:1;fill:#ffffff;fill-opacity:1;stroke:#4d4d4d;stroke-width:0.29573518;stroke-linecap:round;stroke-linejoin:round;stroke-miterlimit:4;stroke-dasharray:none;stroke-dashoffset:10.79999924;stroke-opacity:1" />
    <path
       id="path3808"
       d="m 28.766332,146.13748 c -0.61437,0.003 -1.20108,0.0553 -1.71732,0.1466 -1.52079,0.26867 -1.7969,0.83103 -1.7969,1.8681 v 1.36966 h 3.59379 v 0.45656 h -3.59379 -1.34872 c -1.04446,0 -1.95901,0.62778 -2.24507,1.82203 -0.32997,1.36888 -0.3446,2.22309 0,3.65242 0.25546,1.06395 0.86553,1.82203 1.90998,1.82203 h 1.23564 v -1.64192 c 0,-1.18618 1.02631,-2.2325 2.24507,-2.2325 h 3.5896 c 0.99923,0 1.7969,-0.82273 1.7969,-1.82622 v -3.42206 c 0,-0.97393 -0.82163,-1.70555 -1.7969,-1.8681 -0.61736,-0.10277 -1.25792,-0.14945 -1.87228,-0.1466 z m -1.9435,1.10159 c 0.37121,0 0.67435,0.3081 0.67435,0.68693 0,0.37748 -0.30314,0.68273 -0.67435,0.68273 -0.37255,0 -0.67436,-0.30525 -0.67436,-0.68273 0,-0.37883 0.30181,-0.68693 0.67436,-0.68693 z"
       style="fill:url(#linearGradient3818);fill-opacity:1;stroke-width:0.13403417"
       inkscape:connector-curvature="0" />
    <path
       id="path3810"
       d="m 32.883682,149.9784 v 1.59584 c 0,1.23724 -1.04893,2.27858 -2.24507,2.27858 h -3.5896 c -0.98326,0 -1.7969,0.84153 -1.7969,1.82622 v 3.42206 c 0,0.97393 0.84691,1.5468 1.7969,1.82621 1.13759,0.3345 2.22848,0.39495 3.5896,0 0.90476,-0.26195 1.7969,-0.78914 1.7969,-1.82621 v -1.36966 h -3.58961 v -0.45656 h 3.58961 1.79689 c 1.04446,0 1.43367,-0.72853 1.79689,-1.82203 0.37521,-1.12573 0.35925,-2.20831 0,-3.65242 -0.25811,-1.03977 -0.7511,-1.82203 -1.79689,-1.82203 z m -2.01889,8.66614 c 0.37255,0 0.67437,0.30525 0.67437,0.68274 0,0.37883 -0.30182,0.68693 -0.67437,0.68693 -0.37121,0 -0.67435,-0.3081 -0.67435,-0.68693 0,-0.37749 0.30314,-0.68274 0.67435,-0.68274 z"
       style="fill:url(#linearGradient3820);fill-opacity:1;stroke-width:0.13403417"
       inkscape:connector-curvature="0" />
    <rect
       y="127.9006"
       x="22.321154"
       height="10.038871"
       width="13.067698"
       id="rect3944"
       style="opacity:1;fill:#ececec;fill-opacity:1;stroke:#4d4d4d;stroke-width:1.07906544;stroke-linecap:round;stroke-linejoin:round;stroke-miterlimit:4;stroke-dasharray:none;stroke-opacity:1" />
    <text
       id="text3954"
       y="135.61214"
       x="26.466234"
       style="font-style:normal;font-variant:normal;font-weight:bold;font-stretch:normal;font-size:7.39565945px;line-height:1.25;font-family:'DejaVu Sans Mono';-inkscape-font-specification:'DejaVu Sans Mono Bold';letter-spacing:0px;word-spacing:0px;fill:#666666;fill-opacity:1;stroke:none;stroke-width:0.18489151"
       xml:space="preserve"><tspan
         style="font-style:normal;font-variant:normal;font-weight:bold;font-stretch:normal;font-family:'DejaVu Sans Mono';-inkscape-font-specification:'DejaVu Sans Mono Bold';letter-spacing:0px;fill:#666666;stroke-width:0.18489151"
         y="135.61214"
         x="26.466234"
         sodipodi:role="line"
         id="tspan3956">1</tspan></text>
    <path
       inkscape:connector-curvature="0"
       id="path4033"
       d="m 10.588848,145.28325 7.084774,-7.08477 h 0.91573 l -8.000504,8.00049 z"
       style="fill:#000000;fill-opacity:0.05882353;stroke:none;stroke-width:0.09542269px;stroke-linecap:butt;stroke-linejoin:miter;stroke-opacity:1" />
    <path
       inkscape:connector-curvature="0"
       id="path4035"
       d="m 19.071302,138.19848 -8.434255,8.43425 v 4.24122 l 12.458595,-12.45859 z"
       style="fill:#000000;fill-opacity:0.05882353;stroke:none;stroke-width:0.09542269px;stroke-linecap:butt;stroke-linejoin:miter;stroke-opacity:1" />
    <path
       inkscape:connector-curvature="0"
       id="path4037"
       d="m 27.119992,138.10209 h 1.97602 L 10.37198,156.82613 v -1.90373 l 16.535602,-16.53561 z"
       style="fill:#000000;fill-opacity:0.05882353;stroke:none;stroke-width:0.09542269px;stroke-linecap:butt;stroke-linejoin:miter;stroke-opacity:1" />
    <path
       inkscape:connector-curvature="0"
       id="path4039"
       d="m 10.492468,162.48913 24.290644,-24.29065 h 1.25309 l -25.350953,25.35095 z"
       style="fill:#000000;fill-opacity:0.05882353;stroke:none;stroke-width:0.09542269px;stroke-linecap:butt;stroke-linejoin:miter;stroke-opacity:1" />
    <path
       inkscape:connector-curvature="0"
       id="path4041"
       d="m 10.685249,165.18809 v 1.20489 l 28.170413,-28.1704 h -1.61457 l -26.351024,26.35101 z"
       style="fill:#000000;fill-opacity:0.05882353;stroke:none;stroke-width:0.09542269px;stroke-linecap:butt;stroke-linejoin:miter;stroke-opacity:1" />
    <path
       inkscape:connector-curvature="0"
       id="path4043"
       d="m 10.637047,168.32081 30.074145,-30.07414 h 5.68709 l -30.89346,30.89347 h -4.867775 z"
       style="fill:#000000;fill-opacity:0.05882353;stroke:none;stroke-width:0.09542269px;stroke-linecap:butt;stroke-linejoin:miter;stroke-opacity:1" />
    <path
       inkscape:connector-curvature="0"
       id="path4045"
       d="m 23.890882,169.09194 23.18215,-23.18214 v 1.54226 l -21.76038,21.76037 z"
       style="fill:#000000;fill-opacity:0.05882353;stroke:none;stroke-width:0.09542269px;stroke-linecap:butt;stroke-linejoin:miter;stroke-opacity:1" />
    <path
       inkscape:connector-curvature="0"
       id="path4047"
       d="m 26.397052,169.04375 20.77236,-20.77236 v 1.44587 3.08453 l -16.24196,16.24196 z"
       style="fill:#000000;fill-opacity:0.05882353;stroke:none;stroke-width:0.09542269px;stroke-linecap:butt;stroke-linejoin:miter;stroke-opacity:1" />
    <path
       inkscape:connector-curvature="0"
       id="path4049"
       d="m 38.590572,169.04375 8.38606,-8.38606 v 1.01211 l -7.47033,7.47034 z"
       style="fill:#000000;fill-opacity:0.05882353;stroke:none;stroke-width:0.09542269px;stroke-linecap:butt;stroke-linejoin:miter;stroke-opacity:1" />
    <path
       inkscape:connector-curvature="0"
       id="path4051"
       d="m 40.566602,169.14014 6.57872,-6.57872 v 3.78336 l -3.02429,3.02429 z"
       style="fill:#000000;fill-opacity:0.05882353;stroke:none;stroke-width:0.09542269px;stroke-linecap:butt;stroke-linejoin:miter;stroke-opacity:1" />
    <rect
       y="138.18581"
       x="10.586901"
       height="30.967079"
       width="36.536102"
       id="rect4055"
       style="opacity:1;fill:#f2f2f2;fill-opacity:0.50970878;stroke:#4d4d4d;stroke-width:0.98710626;stroke-linecap:round;stroke-linejoin:round;stroke-miterlimit:4;stroke-dasharray:none;stroke-dashoffset:10.79999924;stroke-opacity:1" />
    <path
       style="fill:#4d4d4d;fill-opacity:1;fill-rule:evenodd;stroke:#1a1a1a;stroke-width:0.2855545;stroke-linecap:butt;stroke-linejoin:miter;stroke-miterlimit:4;stroke-dasharray:none;stroke-opacity:1"
       d="m 63.120322,180.02768 8.97839,-7.60984"
       id="path3854"
       inkscape:connector-curvature="0" />
    <path
       style="fill:#4d4d4d;fill-opacity:1;fill-rule:evenodd;stroke:#1a1a1a;stroke-width:0.2855545;stroke-linecap:butt;stroke-linejoin:miter;stroke-miterlimit:4;stroke-dasharray:none;stroke-opacity:1"
       d="m 99.656432,180.02768 -9.29038,-7.87429"
       id="path3856"
       inkscape:connector-curvature="0" />
    <path
       style="fill:#4d4d4d;fill-opacity:1;fill-rule:evenodd;stroke:#1a1a1a;stroke-width:0.2855545;stroke-linecap:butt;stroke-linejoin:miter;stroke-miterlimit:4;stroke-dasharray:none;stroke-opacity:1"
       d="m 99.656432,149.06061 -8.8323,7.48602"
       id="path3858"
       inkscape:connector-curvature="0" />
    <path
       style="fill:#4d4d4d;fill-opacity:1;fill-rule:evenodd;stroke:#1a1a1a;stroke-width:0.2855545;stroke-linecap:butt;stroke-linejoin:miter;stroke-miterlimit:4;stroke-dasharray:none;stroke-opacity:1"
       d="m 63.120322,149.06061 7.39807,6.27041"
       id="path3860"
       inkscape:connector-curvature="0" />
    <rect
       style="opacity:1;fill:#ffffff;fill-opacity:1;stroke:#4d4d4d;stroke-width:0.29573518;stroke-linecap:round;stroke-linejoin:round;stroke-miterlimit:4;stroke-dasharray:none;stroke-dashoffset:10.79999924;stroke-opacity:1"
       id="rect3864"
       width="25.446815"
       height="21.188766"
       x="68.664963"
       y="153.94975" />
    <path
       inkscape:connector-curvature="0"
       style="fill:url(#linearGradient3876);fill-opacity:1;stroke-width:0.13403417"
       d="m 81.299702,157.01228 c -0.61437,0.003 -1.20108,0.0553 -1.71732,0.1466 -1.52079,0.26867 -1.7969,0.83102 -1.7969,1.8681 v 1.36966 h 3.59379 v 0.45655 h -3.59379 -1.34872 c -1.04446,0 -1.95901,0.62778 -2.24507,1.82203 -0.32997,1.36889 -0.3446,2.2231 0,3.65243 0.25546,1.06395 0.86553,1.82203 1.90998,1.82203 h 1.23564 v -1.64192 c 0,-1.18619 1.02631,-2.23251 2.24507,-2.23251 h 3.5896 c 0.99923,0 1.7969,-0.82272 1.7969,-1.82621 v -3.42206 c 0,-0.97394 -0.82163,-1.70556 -1.7969,-1.8681 -0.61736,-0.10277 -1.25792,-0.14946 -1.87228,-0.1466 z m -1.9435,1.10159 c 0.37121,0 0.67435,0.3081 0.67435,0.68693 0,0.37748 -0.30314,0.68273 -0.67435,0.68273 -0.37255,0 -0.67436,-0.30525 -0.67436,-0.68273 0,-0.37883 0.30181,-0.68693 0.67436,-0.68693 z"
       id="path3866" />
    <path
       inkscape:connector-curvature="0"
       style="fill:url(#linearGradient3878);fill-opacity:1;stroke-width:0.13403417"
       d="m 85.417052,160.85319 v 1.59585 c 0,1.23724 -1.04893,2.27858 -2.24507,2.27858 h -3.5896 c -0.98326,0 -1.7969,0.84153 -1.7969,1.82622 v 3.42206 c 0,0.97393 0.84691,1.5468 1.7969,1.82621 1.13759,0.3345 2.22848,0.39495 3.5896,0 0.90476,-0.26196 1.7969,-0.78914 1.7969,-1.82621 v -1.36967 h -3.58961 v -0.45655 h 3.58961 1.79689 c 1.04446,0 1.43367,-0.72853 1.79689,-1.82203 0.37521,-1.12573 0.35925,-2.20831 0,-3.65243 -0.25811,-1.03976 -0.7511,-1.82203 -1.79689,-1.82203 z m -2.01889,8.66615 c 0.37255,0 0.67437,0.30525 0.67437,0.68274 0,0.37883 -0.30182,0.68692 -0.67437,0.68692 -0.37121,0 -0.67435,-0.30809 -0.67435,-0.68692 0,-0.37749 0.30314,-0.68274 0.67435,-0.68274 z"
       id="path3868" />
    <rect
       style="opacity:1;fill:#ececec;fill-opacity:1;stroke:#4d4d4d;stroke-width:1.07906544;stroke-linecap:round;stroke-linejoin:round;stroke-miterlimit:4;stroke-dasharray:none;stroke-opacity:1"
       id="rect3946"
       width="13.067698"
       height="10.038871"
       x="74.854538"
       y="138.77541" />
    <text
       xml:space="preserve"
       style="font-style:normal;font-variant:normal;font-weight:bold;font-stretch:normal;font-size:7.39565945px;line-height:1.25;font-family:'DejaVu Sans Mono';-inkscape-font-specification:'DejaVu Sans Mono Bold';letter-spacing:0px;word-spacing:0px;fill:#666666;fill-opacity:1;stroke:none;stroke-width:0.18489151"
       x="79.261398"
       y="146.48694"
       id="text3962"><tspan
         id="tspan3960"
         sodipodi:role="line"
         x="79.261398"
         y="146.48694"
         style="font-style:normal;font-variant:normal;font-weight:bold;font-stretch:normal;font-family:'DejaVu Sans Mono';-inkscape-font-specification:'DejaVu Sans Mono Bold';letter-spacing:0px;fill:#666666;stroke-width:0.18489151">2</tspan></text>
    <path
       style="fill:#000000;fill-opacity:0.05882353;stroke:none;stroke-width:0.09542269px;stroke-linecap:butt;stroke-linejoin:miter;stroke-opacity:1"
       d="m 63.122222,156.15805 7.08477,-7.08477 h 0.91573 l -8.0005,8.00049 z"
       id="path4059"
       inkscape:connector-curvature="0" />
    <path
       style="fill:#000000;fill-opacity:0.05882353;stroke:none;stroke-width:0.09542269px;stroke-linecap:butt;stroke-linejoin:miter;stroke-opacity:1"
       d="m 71.604672,149.07328 -8.43425,8.43425 v 4.24122 l 12.45859,-12.45859 z"
       id="path4061"
       inkscape:connector-curvature="0" />
    <path
       style="fill:#000000;fill-opacity:0.05882353;stroke:none;stroke-width:0.09542269px;stroke-linecap:butt;stroke-linejoin:miter;stroke-opacity:1"
       d="m 79.653362,148.97689 h 1.97602 l -18.72403,18.72404 v -1.90373 l 16.5356,-16.53561 z"
       id="path4063"
       inkscape:connector-curvature="0" />
    <path
       style="fill:#000000;fill-opacity:0.05882353;stroke:none;stroke-width:0.09542269px;stroke-linecap:butt;stroke-linejoin:miter;stroke-opacity:1"
       d="m 63.025842,173.36393 24.29064,-24.29065 h 1.25309 l -25.35095,25.35095 z"
       id="path4065"
       inkscape:connector-curvature="0" />
    <path
       style="fill:#000000;fill-opacity:0.05882353;stroke:none;stroke-width:0.09542269px;stroke-linecap:butt;stroke-linejoin:miter;stroke-opacity:1"
       d="m 63.218622,176.06289 v 1.20489 l 28.17041,-28.1704 h -1.61457 l -26.35102,26.35101 z"
       id="path4067"
       inkscape:connector-curvature="0" />
    <path
       style="fill:#000000;fill-opacity:0.05882353;stroke:none;stroke-width:0.09542269px;stroke-linecap:butt;stroke-linejoin:miter;stroke-opacity:1"
       d="m 63.170422,179.19561 30.07414,-30.07414 h 5.68709 l -30.89346,30.89347 h -4.86777 z"
       id="path4069"
       inkscape:connector-curvature="0" />
    <path
       style="fill:#000000;fill-opacity:0.05882353;stroke:none;stroke-width:0.09542269px;stroke-linecap:butt;stroke-linejoin:miter;stroke-opacity:1"
       d="m 76.424252,179.96674 23.18215,-23.18214 v 1.54226 l -21.76038,21.76037 z"
       id="path4071"
       inkscape:connector-curvature="0" />
    <path
       style="fill:#000000;fill-opacity:0.05882353;stroke:none;stroke-width:0.09542269px;stroke-linecap:butt;stroke-linejoin:miter;stroke-opacity:1"
       d="m 78.930422,179.91855 20.77236,-20.77236 v 1.44587 3.08453 l -16.24196,16.24196 z"
       id="path4073"
       inkscape:connector-curvature="0" />
    <path
       style="fill:#000000;fill-opacity:0.05882353;stroke:none;stroke-width:0.09542269px;stroke-linecap:butt;stroke-linejoin:miter;stroke-opacity:1"
       d="m 91.123942,179.91855 8.38606,-8.38606 v 1.01211 l -7.47033,7.47034 z"
       id="path4075"
       inkscape:connector-curvature="0" />
    <path
       style="fill:#000000;fill-opacity:0.05882353;stroke:none;stroke-width:0.09542269px;stroke-linecap:butt;stroke-linejoin:miter;stroke-opacity:1"
       d="m 93.099972,180.01494 6.57872,-6.57872 v 3.78336 l -3.02429,3.02429 z"
       id="path4077"
       inkscape:connector-curvature="0" />
    <rect
       style="opacity:1;fill:#f2f2f2;fill-opacity:0.50970878;stroke:#4d4d4d;stroke-width:0.98710626;stroke-linecap:round;stroke-linejoin:round;stroke-miterlimit:4;stroke-dasharray:none;stroke-dashoffset:10.79999924;stroke-opacity:1"
       id="rect4081"
       width="36.536102"
       height="30.967079"
       x="63.120346"
       y="149.06059" />
    <path
       style="fill:#000000;fill-opacity:0.05882353;stroke:none;stroke-width:0.09542269px;stroke-linecap:butt;stroke-linejoin:miter;stroke-opacity:1"
       d="m -41.944543,156.15805 7.084771,-7.08477 h 0.915729 l -8.0005,8.00049 z"
       id="path3987"
       inkscape:connector-curvature="0" />
    <path
       style="fill:#000000;fill-opacity:0.05882353;stroke:none;stroke-width:0.09542269px;stroke-linecap:butt;stroke-linejoin:miter;stroke-opacity:1"
       d="m -33.462092,149.07328 -8.43425,8.43425 v 4.24122 l 12.458589,-12.45859 z"
       id="path3989"
       inkscape:connector-curvature="0" />
    <path
       style="fill:#000000;fill-opacity:0.05882353;stroke:none;stroke-width:0.09542269px;stroke-linecap:butt;stroke-linejoin:miter;stroke-opacity:1"
       d="m -25.413403,148.97689 h 1.976022 l -18.724031,18.72404 v -1.90373 l 16.535599,-16.53561 z"
       id="path3991"
       inkscape:connector-curvature="0" />
    <path
       style="fill:#000000;fill-opacity:0.05882353;stroke:none;stroke-width:0.09542269px;stroke-linecap:butt;stroke-linejoin:miter;stroke-opacity:1"
       d="m -42.040923,173.36393 24.290642,-24.29065 h 1.25309 l -25.350951,25.35095 z"
       id="path3993"
       inkscape:connector-curvature="0" />
    <path
       style="fill:#000000;fill-opacity:0.05882353;stroke:none;stroke-width:0.09542269px;stroke-linecap:butt;stroke-linejoin:miter;stroke-opacity:1"
       d="m -41.848142,176.06289 v 1.20489 l 28.170409,-28.1704 h -1.614569 l -26.351021,26.35101 z"
       id="path3995"
       inkscape:connector-curvature="0" />
    <path
       style="fill:#000000;fill-opacity:0.05882353;stroke:none;stroke-width:0.09542269px;stroke-linecap:butt;stroke-linejoin:miter;stroke-opacity:1"
       d="m -41.896342,179.19561 30.07414,-30.07414 h 5.6870889 l -30.8934589,30.89347 h -4.86777 z"
       id="path3997"
       inkscape:connector-curvature="0" />
    <path
       style="fill:#000000;fill-opacity:0.05882353;stroke:none;stroke-width:0.09542269px;stroke-linecap:butt;stroke-linejoin:miter;stroke-opacity:1"
       d="M -28.642513,179.96674 -5.4603621,156.7846 v 1.54226 l -21.7603809,21.76037 z"
       id="path3999"
       inkscape:connector-curvature="0" />
    <path
       style="fill:#000000;fill-opacity:0.05882353;stroke:none;stroke-width:0.09542269px;stroke-linecap:butt;stroke-linejoin:miter;stroke-opacity:1"
       d="m -26.136343,179.91855 20.7723609,-20.77236 v 1.44587 3.08453 l -16.2419609,16.24196 z"
       id="path4001"
       inkscape:connector-curvature="0" />
    <path
       style="fill:#000000;fill-opacity:0.05882353;stroke:none;stroke-width:0.09542269px;stroke-linecap:butt;stroke-linejoin:miter;stroke-opacity:1"
       d="m -13.942821,179.91855 8.3860579,-8.38606 v 1.01211 l -7.4703299,7.47034 z"
       id="path4003"
       inkscape:connector-curvature="0" />
    <path
       style="fill:#000000;fill-opacity:0.05882353;stroke:none;stroke-width:0.09542269px;stroke-linecap:butt;stroke-linejoin:miter;stroke-opacity:1"
       d="m -11.966791,180.01494 6.5787189,-6.57872 v 3.78336 l -3.024291,3.02429 z"
       id="path4005"
       inkscape:connector-curvature="0" />
    <rect
       style="opacity:1;fill:#f2f2f2;fill-opacity:0.50970878;stroke:#4d4d4d;stroke-width:0.98710626;stroke-linecap:round;stroke-linejoin:round;stroke-miterlimit:4;stroke-dasharray:none;stroke-dashoffset:10.79999924;stroke-opacity:1"
       id="rect4138"
       width="36.536102"
       height="30.967079"
       x="-41.946426"
       y="149.06059" />
    <path
       inkscape:connector-curvature="0"
       id="path5495"
       d="m 35.979312,94.091076 -0.69368,-0.69742 c 0.27325,-0.496911 0.49021,-1.02325 0.64646,-1.56848 h 0.98074 c 0.20164,0 0.3657,-0.16523 0.3657,-0.36838 v -3.49206 c 0,-0.20308 -0.16402,-0.368371 -0.36566,-0.368371 h -0.98078 c -0.15629,-0.54537 -0.37325,-1.07173 -0.64646,-1.568479 l 0.69368,-0.69741 c 0.0692,-0.0696 0.10722,-0.162111 0.10695,-0.26054 -1.8e-4,-0.0982 -0.0382,-0.1905 -0.10749,-0.25989 l -2.45603,-2.46941 c -0.0691,-0.0694 -0.16087,-0.107771 -0.25848,-0.1079 -5.3e-4,0 -5.3e-4,0 -8e-4,0 -0.0976,0 -0.18944,0.0383 -0.2584,0.107629 l -0.69369,0.697451 c -0.49412,-0.274731 -1.0176,-0.49284 -1.56004,-0.64998 v -0.98598 c 0,-0.202731 -0.16435,-0.3677 -0.3664,-0.3677 h -3.47322 c -0.20201,0 -0.3664,0.16491 -0.3664,0.3677 v 0.98607 c -0.54249,0.15714 -1.06601,0.375259 -1.56006,0.64995 l -0.69373,-0.697511 c -0.069,-0.0694 -0.16072,-0.1075 -0.2584,-0.1075 -1.9e-4,0 -2.6e-4,0 -5.3e-4,0 -0.0976,1.4e-4 -0.18953,0.0385 -0.25858,0.10805 l -2.45594,2.46922 c -0.0691,0.0695 -0.10736,0.16178 -0.10763,0.259981 -2e-4,0.0984 0.0378,0.190969 0.10694,0.26054 l 0.69367,0.697449 c -0.27315,0.49667 -0.49006,1.023021 -0.64642,1.568441 h -0.98077 c -0.20164,0 -0.36571,0.16528 -0.36571,0.36843 v 3.491999 c 0,0.203141 0.16407,0.368381 0.36571,0.368381 h 0.98073 c 0.15635,0.54546 0.37331,1.071759 0.64646,1.568469 l -0.69357,0.697331 c -0.0692,0.0697 -0.10722,0.16211 -0.10709,0.26062 2e-4,0.0983 0.0384,0.19056 0.1075,0.25994 l 2.45597,2.469268 c 0.0691,0.0695 0.16091,0.107903 0.25855,0.10804 1.7e-4,0 2.6e-4,0 7.9e-4,0 0.0976,0 0.18943,-0.0383 0.2583,-0.107497 l 0.69373,-0.697421 c 0.49413,0.274699 1.01766,0.492771 1.56006,0.64996 v 0.985991 c 0,0.202769 0.16438,0.367668 0.3664,0.367668 l 3.4733,-4e-5 c 0.202,0 0.3664,-0.16491 0.3664,-0.367628 v -0.986031 c 0.54244,-0.157199 1.06602,-0.375319 1.56006,-0.650002 l 0.69363,0.697461 c 0.0692,0.0695 0.15959,0.10709 0.25923,0.10764 0.0976,-1.69e-4 0.18949,-0.0385 0.25848,-0.108051 l 2.45607,-2.469258 c 0.14277,-0.14364 0.14296,-0.377111 2.7e-4,-0.520419 z"
       style="fill:#f2f2f2;stroke:#4d4d4d;stroke-width:1.11500001;stroke-miterlimit:4;stroke-dasharray:none" />
    <circle
       id="circle5497"
       r="3.7353263"
       cy="89.710762"
       cx="28.648424"
       style="fill:#cccccc;stroke:#4d4d4d;stroke-width:0.79912168;stroke-miterlimit:4;stroke-dasharray:none" />
    <path
       inkscape:connector-curvature="0"
       id="path5499"
       d="m 28.648332,83.420826 c -3.4497,0 -6.25619,2.821629 -6.25619,6.28994 0,3.46827 2.80649,6.289949 6.25619,6.289999 3.44964,0 6.25613,-2.821678 6.25613,-6.289999 0,-3.468311 -2.80643,-6.28994 -6.25613,-6.28994 z"
       style="fill:#ffffff;stroke:#808080;stroke-width:0.22912917;stroke-miterlimit:4;stroke-dasharray:none;stroke-opacity:1" />
    <path
       inkscape:connector-curvature="0"
       id="path5501"
       d="m 28.648332,95.531325 c -3.19222,-5e-5 -5.78926,-2.611099 -5.78926,-5.820559 0,-3.20945 2.59704,-5.820501 5.78926,-5.820501 3.19216,0 5.7892,2.611051 5.7892,5.820501 0,3.20946 -2.59698,5.820559 -5.7892,5.820559 z"
       style="fill:#ffffff;stroke:#808080;stroke-width:0.06873875;stroke-miterlimit:4;stroke-dasharray:none;stroke-opacity:1" />
    <path
       inkscape:connector-curvature="0"
       id="path5503"
       d="m 28.648352,94.556994 c -2.65793,0 -4.82024,-2.174039 -4.82024,-4.846228 0,-2.67218 2.16238,-4.84624 4.82024,-4.84624 2.65783,0 4.82019,2.17406 4.82019,4.84624 0,2.67227 -2.16236,4.846228 -4.82019,4.846228 z"
       style="fill:#ffffff;stroke:#4d4d4d;stroke-width:0.66900003;stroke-miterlimit:4;stroke-dasharray:none" />
    <path
       style="fill:none;stroke:#e6e6e6;stroke-width:1.74500012;stroke-linecap:round;stroke-linejoin:round;stroke-miterlimit:4;stroke-dasharray:none;stroke-opacity:1"
       d="m -68.661023,154.13771 h 4.690651"
       id="path5507"
       inkscape:connector-curvature="0" />
    <path
       inkscape:connector-curvature="0"
       id="path5509"
       d="m -68.661023,156.9079 h 4.690651"
       style="fill:none;stroke:#e6e6e6;stroke-width:1.74500012;stroke-linecap:round;stroke-linejoin:round;stroke-miterlimit:4;stroke-dasharray:none;stroke-opacity:1" />
    <path
       style="fill:none;stroke:#e6e6e6;stroke-width:1.74500012;stroke-linecap:round;stroke-linejoin:round;stroke-miterlimit:4;stroke-dasharray:none;stroke-opacity:1"
       d="m -68.661023,159.67809 h 4.690651"
       id="path5511"
       inkscape:connector-curvature="0" />
    <path
       inkscape:connector-curvature="0"
       id="path5513"
       d="m -68.661023,162.44828 h 4.690651"
       style="fill:none;stroke:#e6e6e6;stroke-width:1.74500012;stroke-linecap:round;stroke-linejoin:round;stroke-miterlimit:4;stroke-dasharray:none;stroke-opacity:1" />
    <path
       style="fill:none;stroke:#e6e6e6;stroke-width:1.74500012;stroke-linecap:round;stroke-linejoin:round;stroke-miterlimit:4;stroke-dasharray:none;stroke-opacity:1"
       d="m -68.661023,165.21848 h 4.690651"
       id="path5515"
       inkscape:connector-curvature="0" />
    <path
       inkscape:connector-curvature="0"
       id="path5517"
       d="m -68.661023,167.98867 h 4.690651"
       style="fill:none;stroke:#e6e6e6;stroke-width:1.74500012;stroke-linecap:round;stroke-linejoin:round;stroke-miterlimit:4;stroke-dasharray:none;stroke-opacity:1" />
    <path
       inkscape:connector-curvature="0"
       id="path5519"
       d="m -68.661023,151.36752 h 4.690651"
       style="fill:none;stroke:#e6e6e6;stroke-width:1.74500012;stroke-linecap:round;stroke-linejoin:round;stroke-miterlimit:4;stroke-dasharray:none;stroke-opacity:1" />
    <path
       inkscape:connector-curvature="0"
       id="path5530"
       d="m -58.304323,154.13771 h 4.690652"
       style="fill:none;stroke:#b3b3b3;stroke-width:1.74500012;stroke-linecap:round;stroke-linejoin:round;stroke-miterlimit:4;stroke-dasharray:none;stroke-opacity:1" />
    <path
       style="fill:none;stroke:#b3b3b3;stroke-width:1.74500012;stroke-linecap:round;stroke-linejoin:round;stroke-miterlimit:4;stroke-dasharray:none;stroke-opacity:1"
       d="m -58.304323,156.9079 h 4.690652"
       id="path5532"
       inkscape:connector-curvature="0" />
    <path
       inkscape:connector-curvature="0"
       id="path5534"
       d="m -58.304323,159.67809 h 4.690652"
       style="fill:none;stroke:#b3b3b3;stroke-width:1.74500012;stroke-linecap:round;stroke-linejoin:round;stroke-miterlimit:4;stroke-dasharray:none;stroke-opacity:1" />
    <path
       style="fill:none;stroke:#b3b3b3;stroke-width:1.74500012;stroke-linecap:round;stroke-linejoin:round;stroke-miterlimit:4;stroke-dasharray:none;stroke-opacity:1"
       d="m -58.304323,162.44828 h 4.690652"
       id="path5536"
       inkscape:connector-curvature="0" />
    <path
       inkscape:connector-curvature="0"
       id="path5538"
       d="m -58.304323,165.21848 h 4.690652"
       style="fill:none;stroke:#b3b3b3;stroke-width:1.74500012;stroke-linecap:round;stroke-linejoin:round;stroke-miterlimit:4;stroke-dasharray:none;stroke-opacity:1" />
    <path
       style="fill:none;stroke:#b3b3b3;stroke-width:1.74500012;stroke-linecap:round;stroke-linejoin:round;stroke-miterlimit:4;stroke-dasharray:none;stroke-opacity:1"
       d="m -58.304323,167.98867 h 4.690652"
       id="path5540"
       inkscape:connector-curvature="0" />
    <path
       style="fill:none;stroke:#b3b3b3;stroke-width:1.74500012;stroke-linecap:round;stroke-linejoin:round;stroke-miterlimit:4;stroke-dasharray:none;stroke-opacity:1"
       d="m -58.304323,151.36752 h 4.690652"
       id="path5542"
       inkscape:connector-curvature="0" />
    <ellipse
       transform="matrix(1.3111646,0,0,0.88310916,-47.671926,72.133357)"
       ry="1.3229166"
       rx="14.079613"
       cy="120.73711"
       cx="58.365604"
       id="ellipse7333"
       style="opacity:1;fill:#323232;fill-opacity:0.59708737;stroke:none;stroke-width:1.74499989;stroke-linecap:round;stroke-linejoin:round;stroke-miterlimit:4;stroke-dasharray:none;stroke-opacity:1;filter:url(#filter7329)"
       inkscape:export-xdpi="64.290001"
       inkscape:export-ydpi="64.290001" />
  </g>
</svg>
