<?xml version="1.0" encoding="UTF-8" standalone="no"?>
<!-- Created with Inkscape (http://www.inkscape.org/) -->

<svg
   xmlns:dc="http://purl.org/dc/elements/1.1/"
   xmlns:cc="http://creativecommons.org/ns#"
   xmlns:rdf="http://www.w3.org/1999/02/22-rdf-syntax-ns#"
   xmlns:svg="http://www.w3.org/2000/svg"
   xmlns="http://www.w3.org/2000/svg"
   xmlns:xlink="http://www.w3.org/1999/xlink"
   xmlns:sodipodi="http://sodipodi.sourceforge.net/DTD/sodipodi-0.dtd"
   xmlns:inkscape="http://www.inkscape.org/namespaces/inkscape"
   width="635mm"
   height="333.375mm"
   viewBox="0 0 635 333.375"
   version="1.1"
   id="svg1694"
   sodipodi:docname="social_media.svg"
   inkscape:export-filename="C:\Users\f9539184\Desktop\Vinicius\Development\jekyll\pythonacademy.github.io\assets\posts\list-comprehensions-no-python\facebook_img.png"
   inkscape:export-xdpi="96"
   inkscape:export-ydpi="96"
   inkscape:version="0.92.3 (2405546, 2018-03-11)">
  <defs
     id="defs1688">
    <linearGradient
       inkscape:collect="always"
       id="linearGradient2369">
      <stop
         style="stop-color:#fcfcfc;stop-opacity:1"
         offset="0"
         id="stop2365" />
      <stop
         style="stop-color:#f0f0f0;stop-opacity:1"
         offset="1"
         id="stop2367" />
    </linearGradient>
    <linearGradient
       inkscape:collect="always"
       id="linearGradient2361">
      <stop
         style="stop-color:#b3b3b3;stop-opacity:1;"
         offset="0"
         id="stop2357" />
      <stop
         style="stop-color:#b3b3b3;stop-opacity:0;"
         offset="1"
         id="stop2359" />
    </linearGradient>
    <clipPath
       id="clipPath4510"
       clipPathUnits="userSpaceOnUse">
      <path
         style="fill:#ececec;stroke:#000000;stroke-width:0.52916676;stroke-miterlimit:4;stroke-dasharray:none"
         d="m 77.343267,258.28386 -4.52729,-4.52755 c -0.36036,-0.36037 -0.918099,-0.43366 -1.3589,-0.17807 -3.15939,1.83012 -6.550023,3.23506 -10.077715,4.17566 -0.0063,0.002 -0.01297,0.003 -0.01905,0.005 -0.530754,0.1516 -0.8636,0.66066 -0.810416,1.19194 v 6.28836 l -19.852217,2.6e-4 v -2.45216 h 9.40435 c 0.620977,0 1.124477,-0.5035 1.124477,-1.12448 0,-0.62097 -0.5035,-1.12448 -1.124477,-1.12448 h -9.40435 v -1.6039 c 0.04577,-0.53499 -0.297392,-1.03902 -0.830792,-1.18136 -3.522662,-0.93954 -6.909064,-2.3421 -10.065808,-4.16878 -0.0079,-0.005 -0.01614,-0.01 -0.02434,-0.014 -0.01588,-0.009 -0.03493,-0.019 -0.05107,-0.0272 -0.475721,-0.23759 -1.041665,-0.10741 -1.368425,0.2876 l -4.452937,4.45267 -14.0374688,-14.03772 4.4584938,-4.45824 c 0.404283,-0.33973 0.524404,-0.92842 0.258762,-1.40653 -0.0032,-0.006 -0.0064,-0.0114 -0.01005,-0.0175 -1.830387,-3.15965 -3.235589,-6.55081 -4.176977,-10.07956 -0.141816,-0.53129 -0.6400266,-0.87339 -1.1750136,-0.83132 h -6.311637 v -19.852 h 6.4008 c 0.5093229,0 0.9551456,-0.34237 1.0863786,-0.83451 0.940859,-3.52636 2.345267,-6.91515 4.173802,-10.07269 0.255323,-0.44078 0.182298,-0.99826 -0.1778,-1.35863 l -4.5270197,-4.5273 14.0372037,-14.03799 4.52755,4.52755 c 0.360363,0.36009 0.91784,0.43312 1.3589,0.1778 3.158861,-1.82986 6.548967,-3.23454 10.076392,-4.17513 0.530754,-0.14155 0.872858,-0.64109 0.830792,-1.17343 v -6.31269 h 19.852216 v 1.66926 H 50.101765 c -0.620978,0 -1.124482,0.5035 -1.124482,1.12447 0,0.62098 0.503504,1.12448 1.124482,1.12448 h 10.447866 v 2.40348 c -0.03572,0.51117 0.284954,0.99721 0.79375,1.15385 0.01905,0.006 0.03784,0.0111 0.05689,0.0159 3.519752,0.94059 6.902977,2.34341 10.056548,4.17009 0.440791,0.25533 0.99853,0.1823 1.35863,-0.1778 l 4.52755,-4.52781 14.037469,14.038 -4.527288,4.52728 c -0.36009,0.36037 -0.433382,0.91784 -0.1778,1.35864 1.82907,3.15807 3.233478,6.54711 4.174069,10.07269 0.131501,0.49212 0.577059,0.83449 1.08638,0.83449 h 6.4008 v 19.85222 h -6.300521 c -0.535249,-0.0474 -1.04299,0.29607 -1.1856,0.83053 -0.940329,3.52636 -2.345,6.91673 -4.175128,10.07692 -0.25532,0.44106 -0.18229,0.99827 0.1778,1.35863 l 4.52755,4.52729 z"
         id="path4512"
         inkscape:connector-curvature="0" />
    </clipPath>
    <clipPath
       id="clipPath4510-4"
       clipPathUnits="userSpaceOnUse">
      <path
         style="fill:#ececec;stroke:#000000;stroke-width:0.52916676;stroke-miterlimit:4;stroke-dasharray:none"
         d="m 77.343267,258.28386 -4.52729,-4.52755 c -0.36036,-0.36037 -0.918099,-0.43366 -1.3589,-0.17807 -3.15939,1.83012 -6.550023,3.23506 -10.077715,4.17566 -0.0063,0.002 -0.01297,0.003 -0.01905,0.005 -0.530754,0.1516 -0.8636,0.66066 -0.810416,1.19194 v 6.28836 l -19.852217,2.6e-4 v -2.45216 h 9.40435 c 0.620977,0 1.124477,-0.5035 1.124477,-1.12448 0,-0.62097 -0.5035,-1.12448 -1.124477,-1.12448 h -9.40435 v -1.6039 c 0.04577,-0.53499 -0.297392,-1.03902 -0.830792,-1.18136 -3.522662,-0.93954 -6.909064,-2.3421 -10.065808,-4.16878 -0.0079,-0.005 -0.01614,-0.01 -0.02434,-0.014 -0.01588,-0.009 -0.03493,-0.019 -0.05107,-0.0272 -0.475721,-0.23759 -1.041665,-0.10741 -1.368425,0.2876 l -4.452937,4.45267 -14.0374688,-14.03772 4.4584938,-4.45824 c 0.404283,-0.33973 0.524404,-0.92842 0.258762,-1.40653 -0.0032,-0.006 -0.0064,-0.0114 -0.01005,-0.0175 -1.830387,-3.15965 -3.235589,-6.55081 -4.176977,-10.07956 -0.141816,-0.53129 -0.6400266,-0.87339 -1.1750136,-0.83132 h -6.311637 v -19.852 h 6.4008 c 0.5093229,0 0.9551456,-0.34237 1.0863786,-0.83451 0.940859,-3.52636 2.345267,-6.91515 4.173802,-10.07269 0.255323,-0.44078 0.182298,-0.99826 -0.1778,-1.35863 l -4.5270197,-4.5273 14.0372037,-14.03799 4.52755,4.52755 c 0.360363,0.36009 0.91784,0.43312 1.3589,0.1778 3.158861,-1.82986 6.548967,-3.23454 10.076392,-4.17513 0.530754,-0.14155 0.872858,-0.64109 0.830792,-1.17343 v -6.31269 h 19.852216 v 1.66926 H 50.101765 c -0.620978,0 -1.124482,0.5035 -1.124482,1.12447 0,0.62098 0.503504,1.12448 1.124482,1.12448 h 10.447866 v 2.40348 c -0.03572,0.51117 0.284954,0.99721 0.79375,1.15385 0.01905,0.006 0.03784,0.0111 0.05689,0.0159 3.519752,0.94059 6.902977,2.34341 10.056548,4.17009 0.440791,0.25533 0.99853,0.1823 1.35863,-0.1778 l 4.52755,-4.52781 14.037469,14.038 -4.527288,4.52728 c -0.36009,0.36037 -0.433382,0.91784 -0.1778,1.35864 1.82907,3.15807 3.233478,6.54711 4.174069,10.07269 0.131501,0.49212 0.577059,0.83449 1.08638,0.83449 h 6.4008 v 19.85222 h -6.300521 c -0.535249,-0.0474 -1.04299,0.29607 -1.1856,0.83053 -0.940329,3.52636 -2.345,6.91673 -4.175128,10.07692 -0.25532,0.44106 -0.18229,0.99827 0.1778,1.35863 l 4.52755,4.52729 z"
         id="path4512-5"
         inkscape:connector-curvature="0" />
    </clipPath>
    <clipPath
       id="clipPath4510-5"
       clipPathUnits="userSpaceOnUse">
      <path
         style="fill:#ececec;stroke:#000000;stroke-width:0.52916676;stroke-miterlimit:4;stroke-dasharray:none"
         d="m 77.343267,258.28386 -4.52729,-4.52755 c -0.36036,-0.36037 -0.918099,-0.43366 -1.3589,-0.17807 -3.15939,1.83012 -6.550023,3.23506 -10.077715,4.17566 -0.0063,0.002 -0.01297,0.003 -0.01905,0.005 -0.530754,0.1516 -0.8636,0.66066 -0.810416,1.19194 v 6.28836 l -19.852217,2.6e-4 v -2.45216 h 9.40435 c 0.620977,0 1.124477,-0.5035 1.124477,-1.12448 0,-0.62097 -0.5035,-1.12448 -1.124477,-1.12448 h -9.40435 v -1.6039 c 0.04577,-0.53499 -0.297392,-1.03902 -0.830792,-1.18136 -3.522662,-0.93954 -6.909064,-2.3421 -10.065808,-4.16878 -0.0079,-0.005 -0.01614,-0.01 -0.02434,-0.014 -0.01588,-0.009 -0.03493,-0.019 -0.05107,-0.0272 -0.475721,-0.23759 -1.041665,-0.10741 -1.368425,0.2876 l -4.452937,4.45267 -14.0374688,-14.03772 4.4584938,-4.45824 c 0.404283,-0.33973 0.524404,-0.92842 0.258762,-1.40653 -0.0032,-0.006 -0.0064,-0.0114 -0.01005,-0.0175 -1.830387,-3.15965 -3.235589,-6.55081 -4.176977,-10.07956 -0.141816,-0.53129 -0.6400266,-0.87339 -1.1750136,-0.83132 h -6.311637 v -19.852 h 6.4008 c 0.5093229,0 0.9551456,-0.34237 1.0863786,-0.83451 0.940859,-3.52636 2.345267,-6.91515 4.173802,-10.07269 0.255323,-0.44078 0.182298,-0.99826 -0.1778,-1.35863 l -4.5270197,-4.5273 14.0372037,-14.03799 4.52755,4.52755 c 0.360363,0.36009 0.91784,0.43312 1.3589,0.1778 3.158861,-1.82986 6.548967,-3.23454 10.076392,-4.17513 0.530754,-0.14155 0.872858,-0.64109 0.830792,-1.17343 v -6.31269 h 19.852216 v 1.66926 H 50.101765 c -0.620978,0 -1.124482,0.5035 -1.124482,1.12447 0,0.62098 0.503504,1.12448 1.124482,1.12448 h 10.447866 v 2.40348 c -0.03572,0.51117 0.284954,0.99721 0.79375,1.15385 0.01905,0.006 0.03784,0.0111 0.05689,0.0159 3.519752,0.94059 6.902977,2.34341 10.056548,4.17009 0.440791,0.25533 0.99853,0.1823 1.35863,-0.1778 l 4.52755,-4.52781 14.037469,14.038 -4.527288,4.52728 c -0.36009,0.36037 -0.433382,0.91784 -0.1778,1.35864 1.82907,3.15807 3.233478,6.54711 4.174069,10.07269 0.131501,0.49212 0.577059,0.83449 1.08638,0.83449 h 6.4008 v 19.85222 h -6.300521 c -0.535249,-0.0474 -1.04299,0.29607 -1.1856,0.83053 -0.940329,3.52636 -2.345,6.91673 -4.175128,10.07692 -0.25532,0.44106 -0.18229,0.99827 0.1778,1.35863 l 4.52755,4.52729 z"
         id="path4512-7"
         inkscape:connector-curvature="0" />
    </clipPath>
    <radialGradient
       inkscape:collect="always"
       xlink:href="#linearGradient2369"
       id="radialGradient2371"
       cx="-70.712585"
       cy="-46.963306"
       fx="-70.712585"
       fy="-46.963306"
       r="317.5"
       gradientTransform="matrix(0,-0.67142857,1.1314761,5.3842996e-6,-17.574725,-94.783481)"
       gradientUnits="userSpaceOnUse" />
    <radialGradient
       inkscape:collect="always"
       xlink:href="#linearGradient2361"
       id="radialGradient2373"
       gradientUnits="userSpaceOnUse"
       gradientTransform="matrix(-8.6243637e-6,-2.0586732,3.5739796,0,1415.8848,66.212691)"
       cx="144.3869"
       cy="-355.76492"
       fx="144.3869"
       fy="-355.76492"
       r="98.777786" />
    <radialGradient
       inkscape:collect="always"
       xlink:href="#linearGradient2361"
       id="radialGradient2389"
       gradientUnits="userSpaceOnUse"
       gradientTransform="matrix(-2.7429557e-5,-6.5475547,11.366946,0,4179.3941,-94.070247)"
       cx="144.3869"
       cy="-355.76492"
       fx="144.3869"
       fy="-355.76492"
       r="98.777786" />
    <radialGradient
       inkscape:collect="always"
       xlink:href="#linearGradient2361"
       id="radialGradient2405"
       gradientUnits="userSpaceOnUse"
       gradientTransform="matrix(-2.7429557e-5,-6.5475547,11.366946,0,4015.3714,-94.070247)"
       cx="144.3869"
       cy="-355.76492"
       fx="144.3869"
       fy="-355.76492"
       r="98.777786" />
    <radialGradient
       inkscape:collect="always"
       xlink:href="#linearGradient2361"
       id="radialGradient2409"
       gradientUnits="userSpaceOnUse"
       gradientTransform="matrix(-8.6243637e-6,-2.0586732,3.5739796,0,1415.8848,66.212691)"
       cx="144.3869"
       cy="-355.76492"
       fx="144.3869"
       fy="-355.76492"
       r="98.777786" />
    <radialGradient
       inkscape:collect="always"
       xlink:href="#linearGradient2361"
       id="radialGradient2411"
       gradientUnits="userSpaceOnUse"
       gradientTransform="matrix(-8.6243637e-6,-2.0586732,3.5739796,0,1415.8848,66.212691)"
       cx="144.3869"
       cy="-355.76492"
       fx="144.3869"
       fy="-355.76492"
       r="98.777786" />
    <radialGradient
       inkscape:collect="always"
       xlink:href="#linearGradient2361"
       id="radialGradient2413"
       gradientUnits="userSpaceOnUse"
       gradientTransform="matrix(-8.6243637e-6,-2.0586732,3.5739796,0,1415.8848,66.212691)"
       cx="144.3869"
       cy="-355.76492"
       fx="144.3869"
       fy="-355.76492"
       r="98.777786" />
    <radialGradient
       inkscape:collect="always"
       xlink:href="#linearGradient2361"
       id="radialGradient2415"
       gradientUnits="userSpaceOnUse"
       gradientTransform="matrix(-8.6243637e-6,-2.0586732,3.5739796,0,1415.8848,66.212691)"
       cx="144.3869"
       cy="-355.76492"
       fx="144.3869"
       fy="-355.76492"
       r="98.777786" />
    <radialGradient
       inkscape:collect="always"
       xlink:href="#linearGradient2361"
       id="radialGradient2417"
       gradientUnits="userSpaceOnUse"
       gradientTransform="matrix(-8.6243637e-6,-2.0586732,3.5739796,0,1415.8848,66.212691)"
       cx="144.3869"
       cy="-355.76492"
       fx="144.3869"
       fy="-355.76492"
       r="98.777786" />
    <radialGradient
       inkscape:collect="always"
       xlink:href="#linearGradient2361"
       id="radialGradient2419"
       gradientUnits="userSpaceOnUse"
       gradientTransform="matrix(-8.6243637e-6,-2.0586732,3.5739796,0,1415.8848,66.212691)"
       cx="144.3869"
       cy="-355.76492"
       fx="144.3869"
       fy="-355.76492"
       r="98.777786" />
    <radialGradient
       inkscape:collect="always"
       xlink:href="#linearGradient2361"
       id="radialGradient2421"
       gradientUnits="userSpaceOnUse"
       gradientTransform="matrix(-8.6243637e-6,-2.0586732,3.5739796,0,1415.8848,66.212691)"
       cx="144.3869"
       cy="-355.76492"
       fx="144.3869"
       fy="-355.76492"
       r="98.777786" />
  </defs>
  <sodipodi:namedview
     id="base"
     pagecolor="#ffffff"
     bordercolor="#666666"
     borderopacity="1.0"
     inkscape:pageopacity="0.0"
     inkscape:pageshadow="2"
     inkscape:zoom="0.35"
     inkscape:cx="1099.0353"
     inkscape:cy="685.19823"
     inkscape:document-units="mm"
     inkscape:current-layer="layer1"
     showgrid="false"
     fit-margin-top="0"
     fit-margin-left="0"
     fit-margin-right="0"
     fit-margin-bottom="0"
     inkscape:snap-bbox="true"
     inkscape:bbox-paths="true"
     inkscape:bbox-nodes="true"
     inkscape:snap-bbox-edge-midpoints="true"
     inkscape:snap-bbox-midpoints="true"
     inkscape:object-paths="true"
     inkscape:snap-intersection-paths="true"
     inkscape:snap-smooth-nodes="true"
     inkscape:window-width="1920"
     inkscape:window-height="1017"
     inkscape:window-x="-8"
     inkscape:window-y="-8"
     inkscape:window-maximized="1" />
  <metadata
     id="metadata1691">
    <rdf:RDF>
      <cc:Work
         rdf:about="">
        <dc:format>image/svg+xml</dc:format>
        <dc:type
           rdf:resource="http://purl.org/dc/dcmitype/StillImage" />
        <dc:title></dc:title>
      </cc:Work>
    </rdf:RDF>
  </metadata>
  <g
     inkscape:label="Camada 1"
     inkscape:groupmode="layer"
     id="layer1"
     transform="translate(386.70068,214.37076)">
    <rect
       style="opacity:1;vector-effect:none;fill:url(#radialGradient2371);fill-opacity:1;stroke:none;stroke-width:0.92484033;stroke-linecap:butt;stroke-linejoin:round;stroke-miterlimit:4;stroke-dasharray:none;stroke-dashoffset:0;stroke-opacity:0.95294118"
       id="rect2355"
       width="635"
       height="333.375"
       x="-386.70068"
       y="-214.37076" />
    <g
       aria-label="@"
       style="font-style:normal;font-variant:normal;font-weight:normal;font-stretch:normal;font-size:44.81068802px;line-height:1.25;font-family:Calibri;-inkscape-font-specification:Calibri;letter-spacing:0px;word-spacing:0px;fill:url(#radialGradient2373);fill-opacity:1;stroke:#000000;stroke-width:1.12026703"
       id="text4520"
       transform="matrix(1.8831109,0,0,1.8831109,-37.105754,-236.42023)" />
    <g
       aria-label="@"
       style="font-style:normal;font-variant:normal;font-weight:normal;font-stretch:normal;font-size:44.81068802px;line-height:1.25;font-family:Calibri;-inkscape-font-specification:Calibri;letter-spacing:0px;word-spacing:0px;fill:url(#radialGradient2421);fill-opacity:1;stroke:#000000;stroke-width:1.12026703"
       id="text4520-6"
       transform="matrix(1.8831109,0,0,1.8831109,-570.81946,-221.28973)" />
    <path
       inkscape:connector-curvature="0"
       style="fill:#f2f2f2;fill-opacity:1;stroke:#4d4d4d;stroke-width:0.80000001;stroke-linecap:butt;stroke-linejoin:miter;stroke-miterlimit:4;stroke-dasharray:none;stroke-opacity:1"
       d="m -168.22231,-153.97687 v 35.51272 l 9.6156,9.6156 v -35.51178 z"
       id="path890" />
    <path
       inkscape:connector-curvature="0"
       style="fill:#f2f2f2;fill-opacity:1;stroke:#4d4d4d;stroke-width:0.80000001;stroke-linecap:butt;stroke-linejoin:miter;stroke-miterlimit:4;stroke-dasharray:none;stroke-opacity:1"
       d="m -158.60671,13.481995 -9.6156,9.616542 v 35.511795 l 9.6156,-9.615619 z"
       id="path901" />
    <path
       style="fill:#f2f2f2;fill-opacity:1;stroke:#4d4d4d;stroke-width:0.80000001;stroke-linecap:butt;stroke-linejoin:miter;stroke-miterlimit:4;stroke-dasharray:none;stroke-opacity:1"
       d="m -158.60671,13.481995 h -33.07957 l -9.61608,9.616097 h 33.07985 z"
       id="path906"
       inkscape:connector-curvature="0" />
    <path
       style="fill:#f2f2f2;fill-opacity:1;stroke:#4d4d4d;stroke-width:0.80000001;stroke-linecap:butt;stroke-linejoin:miter;stroke-miterlimit:4;stroke-dasharray:none;stroke-opacity:1"
       d="M -191.68628,13.481995 V -108.84818 l -9.61609,-9.61609 V 23.098092 Z"
       id="path908"
       inkscape:connector-curvature="0" />
    <path
       style="fill:#f2f2f2;fill-opacity:1;stroke:#4d4d4d;stroke-width:0.80000001;stroke-linecap:butt;stroke-linejoin:miter;stroke-miterlimit:4;stroke-dasharray:none;stroke-opacity:1"
       d="m -158.60671,-108.84856 -33.07957,3.8e-4 -9.61609,-9.61609 h 33.07986 z"
       id="path910"
       inkscape:connector-curvature="0" />
    <path
       inkscape:connector-curvature="0"
       style="opacity:1;vector-effect:none;fill:#ffffff;fill-opacity:1;stroke:#4d4d4d;stroke-width:2.21147299;stroke-linecap:butt;stroke-linejoin:round;stroke-miterlimit:4;stroke-dasharray:none;stroke-dashoffset:0;stroke-opacity:1"
       d="m -236.81444,-153.97687 v 35.51272 141.562687 35.511795 h 68.59213 V 23.098537 h -33.08036 V -118.46415 h 33.08036 v -35.51272 h -33.08036 z"
       id="rect884" />
    <path
       style="fill:url(#radialGradient2389);fill-opacity:1;stroke:#4d4d4d;stroke-width:0.98276615;stroke-linecap:butt;stroke-linejoin:miter;stroke-miterlimit:4;stroke-dasharray:none;stroke-opacity:1"
       d="m -232.92256,-150.08499 h 60.80837 v 27.72905 h -33.07933 V 26.989369 h 33.07972 v 27.729432 h -60.80916 z"
       id="path932"
       inkscape:connector-curvature="0" />
    <path
       id="path934"
       d="m 29.862544,-153.9772 v 35.51283 l -9.609863,9.61563 v -35.51189 z"
       style="fill:#f2f2f2;fill-opacity:1;stroke:#4d4d4d;stroke-width:0.80000001;stroke-linecap:butt;stroke-linejoin:miter;stroke-miterlimit:4;stroke-dasharray:none;stroke-opacity:1"
       inkscape:connector-curvature="0" />
    <path
       id="path936"
       d="m 20.252681,13.482218 9.609863,9.616574 v 35.511859 l -9.609863,-9.61562 z"
       style="fill:#f2f2f2;fill-opacity:1;stroke:#4d4d4d;stroke-width:0.80000001;stroke-linecap:butt;stroke-linejoin:miter;stroke-miterlimit:4;stroke-dasharray:none;stroke-opacity:1"
       inkscape:connector-curvature="0" />
    <path
       inkscape:connector-curvature="0"
       id="path938"
       d="m 20.252681,13.482218 h 33.059714 l 9.610308,9.616129 H 29.862735 Z"
       style="fill:#f2f2f2;fill-opacity:1;stroke:#4d4d4d;stroke-width:0.80000001;stroke-linecap:butt;stroke-linejoin:miter;stroke-miterlimit:4;stroke-dasharray:none;stroke-opacity:1" />
    <path
       inkscape:connector-curvature="0"
       id="path940"
       d="M 53.312395,13.482218 V -108.84836 l 9.610308,-9.61612 V 23.098347 Z"
       style="fill:#f2f2f2;fill-opacity:1;stroke:#4d4d4d;stroke-width:0.80000001;stroke-linecap:butt;stroke-linejoin:miter;stroke-miterlimit:4;stroke-dasharray:none;stroke-opacity:1" />
    <path
       inkscape:connector-curvature="0"
       id="path942"
       d="m 20.252681,-108.84874 33.059714,3.8e-4 9.610308,-9.61612 H 29.862735 Z"
       style="fill:#f2f2f2;fill-opacity:1;stroke:#4d4d4d;stroke-width:0.80000001;stroke-linecap:butt;stroke-linejoin:miter;stroke-miterlimit:4;stroke-dasharray:none;stroke-opacity:1" />
    <path
       id="path944"
       d="m 98.413411,-153.9772 v 35.51283 141.563162 35.511859 H 29.862544 V 23.098792 H 62.922989 V -118.46437 H 29.862544 v -35.51283 h 33.060445 z"
       style="opacity:1;vector-effect:none;fill:#ffffff;fill-opacity:1;stroke:#4d4d4d;stroke-width:2.21081161;stroke-linecap:butt;stroke-linejoin:round;stroke-miterlimit:4;stroke-dasharray:none;stroke-dashoffset:0;stroke-opacity:1"
       inkscape:connector-curvature="0" />
    <path
       inkscape:connector-curvature="0"
       id="path946"
       d="M 94.523852,-150.08531 H 33.75204 v 27.72914 H 66.811467 V 26.989624 H 33.751658 v 27.729527 h 60.772607 z"
       style="fill:url(#radialGradient2405);fill-opacity:1;stroke:#4d4d4d;stroke-width:0.98276615;stroke-linecap:butt;stroke-linejoin:miter;stroke-miterlimit:4;stroke-dasharray:none;stroke-opacity:1" />
    <g
       style="fill:url(#radialGradient2419);fill-opacity:1"
       id="g1640"
       transform="matrix(1.7441407,0,0,1.7441407,-252.92424,-189.33065)">
      <path
         inkscape:connector-curvature="0"
         id="path4491"
         d="m 128.87835,115.31227 -3.98643,-4.00816 c -0.31731,-0.31903 -0.80842,-0.38392 -1.19656,-0.15765 -2.78194,1.62017 -5.7675,2.86395 -8.87374,3.69665 -0.005,0.002 -0.0114,0.003 -0.0167,0.004 -0.46735,0.13422 -0.76043,0.58488 -0.71361,1.05521 v 5.56698 l -17.48051,2.3e-4 v -2.17085 h 8.28083 c 0.54679,0 0.99014,-0.44574 0.99014,-0.99549 0,-0.54973 -0.44335,-0.99548 -0.99014,-0.99548 H 96.6108 v -1.41991 c 0.0403,-0.47361 -0.26187,-0.91982 -0.73154,-1.04584 -3.10181,-0.83175 -6.08365,-2.07342 -8.86327,-3.69055 -0.007,-0.004 -0.0142,-0.009 -0.0214,-0.0124 -0.014,-0.008 -0.0307,-0.0168 -0.045,-0.0241 -0.41889,-0.21034 -0.91723,-0.0951 -1.20494,0.25461 l -3.92096,3.94187 -12.36044,-12.42738 3.92584,-3.946793 c 0.35598,-0.300757 0.46176,-0.821926 0.22785,-1.245181 -0.003,-0.0052 -0.006,-0.0101 -0.009,-0.0155 -1.61172,-2.797187 -2.84904,-5.799322 -3.67796,-8.92326 -0.12488,-0.470353 -0.56356,-0.773208 -1.03464,-0.735973 H 63.33776 V 70.443059 h 5.63611 c 0.44848,0 0.84104,-0.303107 0.9566,-0.738768 0.82845,-3.121848 2.06508,-6.121878 3.67517,-8.9172 0.22481,-0.390217 0.16051,-0.883753 -0.15656,-1.202775 L 69.46289,55.576381 81.8231,43.14877 l 3.98664,4.008179 c 0.31732,0.318769 0.8082,0.383418 1.19656,0.1574 2.78148,-1.619954 5.76657,-2.86348 8.87258,-3.696183 0.46736,-0.125301 0.76859,-0.567544 0.73155,-1.038811 v -5.58853 h 17.4805 v 1.477771 h -9.19968 c -0.54679,0 -0.99014,0.445734 -0.99014,0.995475 0,0.54974 0.44335,0.995482 0.99014,0.995482 h 9.19968 v 2.127776 c -0.0314,0.452515 0.25092,0.882804 0.69892,1.021469 0.0167,0.0052 0.0334,0.0098 0.0501,0.0141 3.09925,0.832694 6.07829,2.074583 8.85511,3.691716 0.38813,0.226037 0.87924,0.161378 1.19632,-0.15739 l 3.98665,-4.008414 12.36044,12.427629 -3.98642,4.007917 c -0.31707,0.31903 -0.38161,0.812558 -0.15656,1.202784 1.61055,2.795792 2.84718,5.796057 3.6754,8.917199 0.11579,0.435653 0.50813,0.73876 0.9566,0.73876 h 5.63611 v 17.574838 h -5.54781 c -0.47131,-0.04196 -0.91839,0.262113 -1.04397,0.735278 -0.82798,3.121822 -2.06484,6.123261 -3.67633,8.920925 -0.22482,0.390461 -0.16051,0.883745 0.15656,1.202766 l 3.98665,4.007944 z"
         style="fill:url(#radialGradient2409);fill-opacity:1;stroke:#4d4d4d;stroke-width:0.35040283;stroke-miterlimit:4;stroke-dasharray:none" />
      <path
         inkscape:connector-curvature="0"
         id="path4708"
         d="m 105.35078,47.166854 c -17.58518,0 -31.89157,14.383588 -31.89157,32.063679 0,17.679804 14.30639,32.063687 31.89157,32.063967 17.5849,0 31.89128,-14.383894 31.89128,-32.063967 0,-17.680091 -14.30611,-32.063679 -31.89128,-32.063679 z"
         style="fill:url(#radialGradient2411);fill-opacity:1;stroke:#216778;stroke-width:1.16800952;stroke-miterlimit:4;stroke-dasharray:none" />
      <path
         inkscape:connector-curvature="0"
         id="path4485"
         d="M 105.35078,108.90145 C 89.07807,108.90116 75.83942,95.591061 75.83942,79.230533 c 0,-16.360546 13.23865,-29.670631 29.51136,-29.670631 16.27243,0 29.51109,13.310085 29.51109,29.670631 0,16.360528 -13.23838,29.670917 -29.51109,29.670917 z"
         style="fill:url(#radialGradient2413);fill-opacity:1;stroke:#ffcc00;stroke-width:0.35040283;stroke-miterlimit:4;stroke-dasharray:none;stroke-opacity:0.95294118" />
      <path
         inkscape:connector-curvature="0"
         id="path4489"
         d="m 105.35083,105.73134 c -14.53443,0 -26.35856,-11.888386 -26.35856,-26.500807 0,-14.612431 11.82455,-26.500819 26.35856,-26.500819 14.53397,0 26.35854,11.888388 26.35854,26.500819 0,14.612871 -11.82457,26.500807 -26.35854,26.500807 z"
         style="fill:url(#radialGradient2415);fill-opacity:1;stroke:#4d4d4d;stroke-width:1.47049367;stroke-miterlimit:4;stroke-dasharray:none" />
      <path
         inkscape:connector-curvature="0"
         id="path4700"
         d="m 142.7212,101.55961 -3.53608,-3.555181 c 1.39295,-2.532967 2.49887,-5.21609 3.2954,-7.995489 h 4.99941 c 1.02787,0 1.86426,-0.842297 1.86426,-1.877827 V 70.329995 c 0,-1.035311 -0.83615,-1.877843 -1.86404,-1.877843 h -4.99963 c -0.79675,-2.780087 -1.90268,-5.463201 -3.2954,-7.995481 l 3.53608,-3.555158 c 0.35273,-0.354637 0.54632,-0.826374 0.54539,-1.328094 -8.7e-4,-0.500554 -0.19547,-0.971132 -0.54773,-1.324811 L 130.19908,41.660541 c -0.35226,-0.353696 -0.82007,-0.549506 -1.31771,-0.550445 -0.002,0 -0.003,0 -0.004,0 -0.49787,0 -0.96568,0.194877 -1.31725,0.548338 l -3.53607,3.555394 c -2.51891,-1.400465 -5.1874,-2.512369 -7.95256,-3.313435 v -5.026131 c 0,-1.033431 -0.83778,-1.874326 -1.86776,-1.874326 H 96.49866 c -1.02976,0 -1.86776,0.84066 -1.86776,1.874326 v 5.0266 c -2.7654,0.801067 -5.43412,1.912972 -7.95257,3.313209 l -3.53631,-3.555637 c -0.35179,-0.353461 -0.81937,-0.548104 -1.31724,-0.548104 -0.001,0 -0.002,0 -0.003,0 -0.49786,7.05e-4 -0.96614,0.196279 -1.31816,0.550682 L 67.98424,54.248137 c -0.35249,0.35415 -0.54749,0.824728 -0.54842,1.325282 -9.7e-4,0.501955 0.19266,0.973457 0.54539,1.328094 l 3.53608,3.555385 c -1.39248,2.531817 -2.49818,5.214932 -3.29518,7.995254 h -4.99963 c -1.02788,0 -1.86426,0.842532 -1.86426,1.878087 v 17.800874 c 0,1.03553 0.83638,1.877827 1.86426,1.877827 h 4.99939 c 0.79701,2.780574 1.90294,5.463454 3.29542,7.995489 l -3.53561,3.554701 c -0.35296,0.35462 -0.54679,0.82638 -0.54563,1.32856 9.7e-4,0.50079 0.1957,0.97135 0.54795,1.32505 l 12.51957,12.58736 c 0.35225,0.35416 0.8203,0.54975 1.31794,0.55068 10e-4,0 0.002,0 0.004,0 0.49787,0 0.96568,-0.19464 1.31677,-0.5481 l 3.53631,-3.55517 c 2.51891,1.40024 5.18763,2.51191 7.95258,3.3132 v 5.02614 c 0,1.03367 0.838,1.87432 1.86774,1.87432 l 17.70556,-2.4e-4 c 1.02976,0 1.86776,-0.84064 1.86776,-1.87408 v -5.02636 c 2.76517,-0.80131 5.43412,-1.91321 7.95258,-3.31345 l 3.53584,3.5554 c 0.35296,0.35487 0.81354,0.54624 1.32143,0.54834 0.49763,-8.7e-4 0.96591,-0.19676 1.3177,-0.55092 l 12.52002,-12.58735 c 0.72781,-0.73222 0.72874,-1.92234 0.002,-2.6529 z"
         style="fill:url(#radialGradient2417);fill-opacity:1;stroke:#4d4d4d;stroke-width:1.16800952;stroke-miterlimit:4;stroke-dasharray:none" />
    </g>
  </g>
</svg>
