<?xml version="1.0" encoding="UTF-8" standalone="no"?>
<!-- Created with Inkscape (http://www.inkscape.org/) -->

<svg
   xmlns:dc="http://purl.org/dc/elements/1.1/"
   xmlns:cc="http://creativecommons.org/ns#"
   xmlns:rdf="http://www.w3.org/1999/02/22-rdf-syntax-ns#"
   xmlns:svg="http://www.w3.org/2000/svg"
   xmlns="http://www.w3.org/2000/svg"
   xmlns:sodipodi="http://sodipodi.sourceforge.net/DTD/sodipodi-0.dtd"
   xmlns:inkscape="http://www.inkscape.org/namespaces/inkscape"
   width="197.556mm"
   height="141.11099mm"
   viewBox="0 0 197.556 141.11099"
   version="1.1"
   id="svg1442"
   inkscape:version="0.92.5 (0.92.5+69)"
   sodipodi:docname="featured_icon.svg">
  <defs
     id="defs1436" />
  <sodipodi:namedview
     id="base"
     pagecolor="#ffffff"
     bordercolor="#666666"
     borderopacity="1.0"
     inkscape:pageopacity="0.0"
     inkscape:pageshadow="2"
     inkscape:zoom="0.24748737"
     inkscape:cx="-708.67008"
     inkscape:cy="330.67541"
     inkscape:document-units="mm"
     inkscape:current-layer="layer1"
     showgrid="false"
     fit-margin-top="0"
     fit-margin-left="0"
     fit-margin-right="0"
     fit-margin-bottom="0"
     inkscape:window-width="2560"
     inkscape:window-height="993"
     inkscape:window-x="0"
     inkscape:window-y="384"
     inkscape:window-maximized="1" />
  <metadata
     id="metadata1439">
    <rdf:RDF>
      <cc:Work
         rdf:about="">
        <dc:format>image/svg+xml</dc:format>
        <dc:type
           rdf:resource="http://purl.org/dc/dcmitype/StillImage" />
        <dc:title></dc:title>
      </cc:Work>
    </rdf:RDF>
  </metadata>
  <g
     inkscape:label="Layer 1"
     inkscape:groupmode="layer"
     id="layer1"
     transform="translate(85.17086,-74.876053)">
    <rect
       style="fill:none;fill-opacity:1;stroke:none;stroke-width:14.17650032;stroke-miterlimit:4;stroke-dasharray:none"
       id="rect4506"
       width="197.556"
       height="141.11099"
       x="-85.17086"
       y="74.876053"
       inkscape:export-xdpi="64.290001"
       inkscape:export-ydpi="64.290001" />
    <path
       inkscape:connector-curvature="0"
       id="path2191"
       d="m -10.679949,174.12056 v 25.38326"
       style="fill:#f2f2f2;fill-opacity:1;stroke:#f2f2f2;stroke-width:7.5387702;stroke-linecap:butt;stroke-linejoin:miter;stroke-miterlimit:4;stroke-dasharray:none;stroke-opacity:1" />
    <path
       inkscape:connector-curvature="0"
       id="path2193"
       d="m -3.141179,174.12056 v 17.20813"
       style="fill:none;stroke:#b3b3b3;stroke-width:7.5387702;stroke-linecap:butt;stroke-linejoin:miter;stroke-miterlimit:4;stroke-dasharray:none;stroke-opacity:1" />
    <path
       inkscape:connector-curvature="0"
       id="path2195"
       d="m 4.397589,174.12056 v 25.38326"
       style="fill:none;stroke:#f2f2f2;stroke-width:7.5387702;stroke-linecap:butt;stroke-linejoin:miter;stroke-miterlimit:4;stroke-dasharray:none;stroke-opacity:1" />
    <path
       inkscape:connector-curvature="0"
       id="path2197"
       d="m 11.936362,174.12056 v 17.20813"
       style="fill:none;stroke:#b3b3b3;stroke-width:7.5387702;stroke-linecap:butt;stroke-linejoin:miter;stroke-miterlimit:4;stroke-dasharray:none;stroke-opacity:1" />
    <path
       inkscape:connector-curvature="0"
       id="path2199"
       d="m 19.475133,174.12056 v 25.38326"
       style="fill:none;stroke:#f2f2f2;stroke-width:7.5387702;stroke-linecap:butt;stroke-linejoin:miter;stroke-miterlimit:4;stroke-dasharray:none;stroke-opacity:1" />
    <path
       inkscape:connector-curvature="0"
       id="path2201"
       d="m 27.013903,174.12056 v 17.20813"
       style="fill:none;stroke:#b3b3b3;stroke-width:7.5387702;stroke-linecap:butt;stroke-linejoin:miter;stroke-miterlimit:4;stroke-dasharray:none;stroke-opacity:1" />
    <path
       inkscape:connector-curvature="0"
       id="path2203"
       d="m 34.552663,174.12056 v 25.38326"
       style="fill:none;stroke:#f2f2f2;stroke-width:7.5387702;stroke-linecap:butt;stroke-linejoin:miter;stroke-miterlimit:4;stroke-dasharray:none;stroke-opacity:1" />
    <rect
       y="174.12453"
       x="-6.894032"
       height="17.204153"
       width="1.7432122"
       id="rect2373"
       style="fill:#000000;fill-opacity:0.2;stroke:none;stroke-width:0.68316215;stroke-linecap:square;stroke-linejoin:miter;stroke-miterlimit:4;stroke-dasharray:none;stroke-opacity:1" />
    <rect
       y="150.29752"
       x="-38.075523"
       height="23.827023"
       width="103.36529"
       id="rect2176"
       style="fill:#ececec;fill-opacity:1;stroke:#333333;stroke-width:1.22355437;stroke-linecap:square;stroke-linejoin:miter;stroke-miterlimit:4;stroke-dasharray:none;stroke-opacity:1" />
    <rect
       y="135.50404"
       x="-38.076309"
       height="14.754141"
       width="103.36686"
       id="rect2178"
       style="fill:#f2f2f2;fill-opacity:1;stroke:none;stroke-width:1.22355437;stroke-linecap:square;stroke-linejoin:miter;stroke-miterlimit:4;stroke-dasharray:none;stroke-opacity:1" />
    <rect
       ry="0.72741991"
       rx="0.88867265"
       y="139.1445"
       x="-24.343803"
       height="7.0825381"
       width="75.90184"
       id="rect2180"
       style="fill:#b3b3b3;fill-opacity:1;stroke:#333333;stroke-width:0.68048447;stroke-linecap:round;stroke-linejoin:round;stroke-miterlimit:4;stroke-dasharray:none;stroke-opacity:1" />
    <path
       class="cls-1"
       d="m 4.576812,164.78813 c -0.787587,0 -1.589738,-0.32592 -2.092047,-0.96473 v 3.45097 H 0.90728999 v -8.5193 H 2.333688 l 0.0544,0.93713 c 0.489278,-0.7201 1.358146,-1.10048 2.187147,-1.10048 1.589751,0 2.760773,1.33209 2.760773,3.0982 0,1.76614 -1.16949,3.09898 -2.759239,3.09821 z m -0.4885,-5.02691 c -0.924089,0 -1.671029,0.7201 -1.671029,1.92948 0,1.20936 0.74694,1.93101 1.671029,1.93101 0.924092,0 1.671032,-0.72011 1.671032,-1.92947 0,-1.20939 -0.74694,-1.93102 -1.671032,-1.93102 z"
       id="path3017"
       style="fill:#333333;stroke:none;stroke-width:0.58619082;stroke-miterlimit:4;stroke-dasharray:none"
       inkscape:connector-curvature="0" />
    <path
       class="cls-1"
       d="m 13.281691,164.62632 -0.0544,-0.93713 c -0.489281,0.72009 -1.358929,1.10048 -2.187916,1.09971 -1.589749,0 -2.760774,-1.33131 -2.760774,-3.09743 0,-1.76614 1.168726,-3.09821 2.760774,-3.09744 0.828987,0 1.698635,0.38343 2.187916,1.10046 l 0.0544,-0.93711 h 1.429465 v 5.86894 z m -1.752324,-4.86433 c -0.924089,0 -1.671032,0.7201 -1.671797,1.92948 -7.93e-4,1.20937 0.746943,1.93024 1.671032,1.93024 0.924089,0 1.671796,-0.72011 1.671796,-1.92947 0,-1.20939 -0.74694,-1.93025 -1.671031,-1.93025 z"
       id="path3019"
       style="fill:#333333;stroke:none;stroke-width:0.58619082;stroke-miterlimit:4;stroke-dasharray:none"
       inkscape:connector-curvature="0" />
    <path
       class="cls-1"
       d="m 20.222733,164.62708 v -3.24698 c 0,-1.14111 -0.39341,-1.52148 -1.11351,-1.52148 -0.74771,0 -1.5629,0.67869 -1.5629,1.49388 v 3.27458 h -1.57671 v -5.8697 h 1.44098 l 0.0682,1.08743 c 0.39417,-0.74771 1.27685,-1.25002 2.1741,-1.25002 1.56213,0 2.14727,1.08745 2.14727,2.54068 v 3.49239 z"
       id="path3021"
       style="fill:#333333;stroke:none;stroke-width:0.58619082;stroke-miterlimit:4;stroke-dasharray:none"
       inkscape:connector-curvature="0" />
    <path
       class="cls-1"
       d="m 27.577133,164.62862 -0.0544,-0.93789 c -0.48928,0.7201 -1.35892,1.10047 -2.18715,1.10047 -1.58975,0 -2.76078,-1.33208 -2.76078,-3.09821 0,-1.76612 1.16873,-3.09743 2.76078,-3.09743 0.78759,0 1.58897,0.32669 2.09205,0.96474 v -3.08364 h 1.57671 v 8.15196 z m -1.75232,-4.86433 c -0.92026,0 -1.67103,0.72011 -1.67103,1.9287 0,1.20861 0.74694,1.92872 1.67103,1.92872 0.92409,0 1.67103,-0.71934 1.67103,-1.92872 0,-1.20937 -0.74465,-1.9287 -1.67103,-1.9287 z"
       id="path3023"
       style="fill:#333333;stroke:none;stroke-width:0.58619082;stroke-miterlimit:4;stroke-dasharray:none"
       inkscape:connector-curvature="0" />
    <path
       class="cls-1"
       d="m 34.926163,164.62939 -0.0544,-0.93713 c -0.48927,0.7201 -1.35892,1.0997 -2.18791,1.0997 -1.58975,0 -2.76079,-1.33129 -2.76079,-3.09821 0,-1.76688 1.16873,-3.09742 2.76079,-3.09742 0.82899,0 1.69864,0.38344 2.18791,1.10123 l 0.0544,-0.9379 h 1.4264 v 5.86896 z m -1.75233,-4.86432 c -0.92025,0 -1.67103,0.7201 -1.67181,1.92947 -5.3e-4,1.20937 0.74773,1.92717 1.67105,1.92717 0.92332,0 1.6718,-0.72011 1.6718,-1.92947 0,-1.20939 -0.74694,-1.92717 -1.67104,-1.92717 z"
       id="path3025"
       style="fill:#333333;stroke:none;stroke-width:0.58619082;stroke-miterlimit:4;stroke-dasharray:none"
       inkscape:connector-curvature="0" />
    <path
       class="cls-1"
       d="m 39.844183,164.82033 a 4.6135607,4.6135607 0 0 1 -2.3505,-0.66641 l 0.25844,-1.08668 c 0.47545,0.2853 1.19557,0.65263 2.06521,0.65263 0.62501,0 1.05982,-0.1902 1.05982,-0.67946 0,-0.42102 -0.44862,-0.57056 -1.25,-0.76075 -1.44021,-0.31288 -1.95632,-1.07364 -1.95632,-1.90264 0,-0.92409 0.7201,-1.79297 2.30985,-1.79297 0.96474,0 1.80755,0.42103 1.99389,0.52992 l -0.25844,1.033 a 3.4195258,3.4195258 0 0 0 -1.69787,-0.48928 c -0.63805,0 -0.95094,0.21703 -0.95094,0.57057 0,0.39341 0.40799,0.57056 1.03223,0.7201 1.54909,0.32592 2.1741,1.04603 2.1741,1.83437 0.003,1.26306 -0.92102,2.0376 -2.42947,2.0376 z"
       id="path3027"
       style="fill:#333333;stroke:none;stroke-width:0.58619082;stroke-miterlimit:4;stroke-dasharray:none"
       inkscape:connector-curvature="0" />
    <rect
       class="cls-1"
       x="-11.985524"
       y="154.75807"
       width="1.8474182"
       height="3.8359427"
       id="rect3029"
       style="fill:#333333;stroke:none;stroke-width:0.58619082;stroke-miterlimit:4;stroke-dasharray:none" />
    <rect
       class="cls-1"
       x="-11.985524"
       y="162.63777"
       width="1.8474182"
       height="3.8359427"
       id="rect3031"
       style="fill:#333333;stroke:none;stroke-width:0.58619082;stroke-miterlimit:4;stroke-dasharray:none" />
    <rect
       class="cls-2"
       x="-11.985524"
       y="159.71367"
       width="1.8474182"
       height="1.809841"
       id="rect3033"
       style="fill:#ffca00;stroke:none;stroke-width:0.58619082;stroke-miterlimit:4;stroke-dasharray:none" />
    <rect
       class="cls-1"
       x="-14.952588"
       y="157.91226"
       width="1.8474182"
       height="12.750944"
       id="rect3035"
       style="fill:#333333;stroke:none;stroke-width:0.58619082;stroke-miterlimit:4;stroke-dasharray:none" />
    <rect
       class="cls-1"
       x="-9.0790529"
       y="165.8027"
       width="1.8474182"
       height="3.8359427"
       id="rect3037"
       style="fill:#333333;stroke:none;stroke-width:0.58619082;stroke-miterlimit:4;stroke-dasharray:none" />
    <rect
       class="cls-1"
       x="-9.0790529"
       y="157.91689"
       width="1.8474182"
       height="3.8359427"
       id="rect3039"
       style="fill:#333333;stroke:none;stroke-width:0.58619082;stroke-miterlimit:4;stroke-dasharray:none" />
    <rect
       class="cls-3"
       x="-9.0790529"
       y="162.87245"
       width="1.8474182"
       height="1.809841"
       id="rect3041"
       style="fill:#e70488;stroke:none;stroke-width:0.58619082;stroke-miterlimit:4;stroke-dasharray:none" />
    <rect
       class="cls-1"
       x="-6.1733365"
       y="153.75883"
       width="1.8474182"
       height="12.750944"
       id="rect3043"
       style="fill:#333333;stroke:none;stroke-width:0.58619082;stroke-miterlimit:4;stroke-dasharray:none" />
    <rect
       y="174.12453"
       x="8.1669798"
       height="17.204153"
       width="1.7432122"
       id="rect2375"
       style="fill:#000000;fill-opacity:0.2;stroke:none;stroke-width:0.68316215;stroke-linecap:square;stroke-linejoin:miter;stroke-miterlimit:4;stroke-dasharray:none;stroke-opacity:1" />
    <rect
       y="174.12453"
       x="23.244511"
       height="17.204153"
       width="1.7432122"
       id="rect2377"
       style="fill:#000000;fill-opacity:0.2;stroke:none;stroke-width:0.68316215;stroke-linecap:square;stroke-linejoin:miter;stroke-miterlimit:4;stroke-dasharray:none;stroke-opacity:1" />
    <path
       inkscape:connector-curvature="0"
       id="path1997"
       d="m -38.075526,150.29751 -7.94e-4,-14.79345 H 65.289743 l 1e-5,14.79345"
       style="fill:none;stroke:#2e2e2e;stroke-width:1.22355437;stroke-linecap:butt;stroke-linejoin:miter;stroke-miterlimit:4;stroke-dasharray:none;stroke-opacity:1" />
    <circle
       r="0.88628793"
       cy="156.55119"
       cx="-31.602848"
       id="path2404"
       style="fill:#008080;fill-opacity:0.15;stroke:#20d060;stroke-width:1.75532997;stroke-linecap:round;stroke-linejoin:round;stroke-miterlimit:4;stroke-dasharray:none;stroke-opacity:1" />
    <rect
       y="92.639954"
       x="-11.739751"
       height="53.295307"
       width="50.693752"
       id="rect2182"
       style="fill:#ffffff;fill-opacity:1;stroke:none;stroke-width:0;stroke-linecap:round;stroke-linejoin:round;stroke-miterlimit:4;stroke-dasharray:none;stroke-opacity:1" />
    <path
       inkscape:connector-curvature="0"
       id="path2256"
       d="M -11.739761,145.93526 V 92.639952 h 50.693754 v 53.295308"
       style="fill:none;stroke:#333333;stroke-width:1.25645876;stroke-linecap:butt;stroke-linejoin:miter;stroke-miterlimit:4;stroke-dasharray:none;stroke-opacity:1" />
    <rect
       y="112.08875"
       x="-4.7683759"
       height="23.416094"
       width="37.31139"
       id="rect2347"
       style="fill:#000000;fill-opacity:0.08604102;stroke:#4d4d4d;stroke-width:0.93554854;stroke-linecap:square;stroke-linejoin:miter;stroke-miterlimit:4;stroke-dasharray:none;stroke-opacity:1" />
    <path
       inkscape:connector-curvature="0"
       id="path2351"
       d="m 6.203034,112.08875 v 23.4161"
       style="fill:none;stroke:#4d4d4d;stroke-width:0.72001469;stroke-linecap:butt;stroke-linejoin:miter;stroke-miterlimit:4;stroke-dasharray:none;stroke-opacity:1" />
    <path
       inkscape:connector-curvature="0"
       id="path2353"
       d="m 14.978103,112.08875 v 23.4161"
       style="fill:none;stroke:#4d4d4d;stroke-width:0.72001469;stroke-linecap:butt;stroke-linejoin:miter;stroke-miterlimit:4;stroke-dasharray:none;stroke-opacity:1" />
    <path
       inkscape:connector-curvature="0"
       id="path2355"
       d="m 23.753193,112.08875 v 23.4161"
       style="fill:none;stroke:#4d4d4d;stroke-width:0.72001469;stroke-linecap:butt;stroke-linejoin:miter;stroke-miterlimit:4;stroke-dasharray:none;stroke-opacity:1" />
    <path
       inkscape:connector-curvature="0"
       id="path2357"
       d="m -4.768377,119.7484 h 37.31139"
       style="fill:none;stroke:#4d4d4d;stroke-width:0.72001469;stroke-linecap:butt;stroke-linejoin:miter;stroke-miterlimit:4;stroke-dasharray:none;stroke-opacity:1" />
    <path
       inkscape:connector-curvature="0"
       id="path2361"
       d="m -4.768377,125.08371 h 37.31139"
       style="fill:none;stroke:#4d4d4d;stroke-width:0.72001469;stroke-linecap:butt;stroke-linejoin:miter;stroke-miterlimit:4;stroke-dasharray:none;stroke-opacity:1" />
    <path
       inkscape:connector-curvature="0"
       id="path2365"
       d="m -4.768377,130.41902 h 37.31139"
       style="fill:none;stroke:#4d4d4d;stroke-width:0.72001469;stroke-linecap:butt;stroke-linejoin:miter;stroke-miterlimit:4;stroke-dasharray:none;stroke-opacity:1" />
    <rect
       y="112.08875"
       x="-4.7683759"
       height="7.6596432"
       width="37.31139"
       id="rect2369"
       style="fill:#000000;fill-opacity:0.296046;stroke:none;stroke-width:0.72001469;stroke-linecap:square;stroke-linejoin:miter;stroke-miterlimit:4;stroke-dasharray:none;stroke-opacity:1" />
    <path
       style="fill:#448e47;stroke:#333333;stroke-width:1.25084913;stroke-miterlimit:4;stroke-dasharray:none"
       d="m 27.567793,97.615173 v 9.962927 h 22.77241 v -9.962927 z"
       id="path3131"
       inkscape:connector-curvature="0" />
    <path
       inkscape:connector-curvature="0"
       id="path3133"
       d="m 34.111303,100.6496 c -0.10532,-0.20353 -0.29747,-0.30459 -0.57643,-0.30459 -0.15371,0 -0.28038,0.0413 -0.38001,0.12525 -0.0996,0.0825 -0.17791,0.21492 -0.23484,0.39994 -0.0569,0.18503 -0.0968,0.42699 -0.11956,0.7273 -0.0242,0.29888 -0.0342,0.66466 -0.0342,1.09734 0,0.46114 0.0157,0.83404 0.047,1.1187 0.0299,0.28465 0.0797,0.50384 0.14517,0.66182 0.0655,0.15798 0.14803,0.2633 0.24765,0.31596 0.0996,0.0541 0.21492,0.0825 0.34586,0.0825 0.10817,0 0.20922,-0.0185 0.30316,-0.0555 0.0939,-0.037 0.17506,-0.11101 0.24338,-0.22203 0.0697,-0.11101 0.12382,-0.26757 0.16225,-0.46968 0.0399,-0.2021 0.0598,-0.46826 0.0598,-0.79846 h 1.22829 c 0,0.32878 -0.0256,0.64333 -0.0769,0.93937 -0.0512,0.29604 -0.14802,0.55507 -0.28608,0.77711 -0.1409,0.2206 -0.33589,0.39424 -0.58924,0.51949 -0.25334,0.12525 -0.58212,0.1893 -0.98633,0.1893 -0.45971,0 -0.82834,-0.0754 -1.10019,-0.22203 -0.27327,-0.14802 -0.48249,-0.36152 -0.62766,-0.64048 -0.14518,-0.27896 -0.23911,-0.61201 -0.28181,-0.99914 -0.0413,-0.38571 -0.0641,-0.81411 -0.0641,-1.27952 0,-0.46114 0.0228,-0.8867 0.0641,-1.27668 0.0427,-0.38856 0.13806,-0.72445 0.28181,-1.00341 0.1466,-0.27754 0.35439,-0.496723 0.62766,-0.653283 0.27185,-0.155137 0.64048,-0.234841 1.10019,-0.234841 0.4398,0 0.78423,0.07116 1.03757,0.213491 0.25335,0.142327 0.44264,0.323084 0.56647,0.542273 0.12382,0.21918 0.20495,0.45544 0.23484,0.70879 0.0313,0.25334 0.047,0.49103 0.047,0.71306 h -1.22828 c 0,-0.44833 -0.0527,-0.77142 -0.15656,-0.9721 z"
       style="fill:#ffffff;stroke:none;stroke-width:0.59220892;stroke-miterlimit:4;stroke-dasharray:none" />
    <path
       inkscape:connector-curvature="0"
       id="path3135"
       d="m 38.092203,103.93167 c 0,0.14232 0.0128,0.27184 0.0342,0.38713 0.0242,0.11671 0.0655,0.21491 0.12809,0.29462 0.0626,0.0811 0.14802,0.14375 0.25335,0.18929 0.10389,0.0441 0.23768,0.0683 0.39567,0.0683 0.18929,0 0.35724,-0.0612 0.50811,-0.1836 0.14944,-0.1224 0.2263,-0.31312 0.2263,-0.56789 0,-0.13663 -0.0199,-0.25477 -0.0555,-0.35439 -0.037,-0.0996 -0.0982,-0.1893 -0.1836,-0.26758 -0.0868,-0.0811 -0.19926,-0.15229 -0.33732,-0.21776 -0.13806,-0.0655 -0.3117,-0.13237 -0.51665,-0.20068 -0.27184,-0.0911 -0.50811,-0.19214 -0.70879,-0.30031 -0.19926,-0.10675 -0.36578,-0.23342 -0.49957,-0.38002 -0.13379,-0.14517 -0.23199,-0.31312 -0.29462,-0.50384 -0.0626,-0.19214 -0.0939,-0.41132 -0.0939,-0.66324 0,-0.60347 0.16794,-1.05181 0.50384,-1.347847 0.33446,-0.296042 0.79703,-0.444062 1.38342,-0.444062 0.27327,0 0.52519,0.02989 0.75576,0.08967 0.23057,0.05978 0.42983,0.155138 0.59777,0.290349 0.16795,0.133788 0.29889,0.30458 0.39283,0.51096 0.0925,0.20779 0.1409,0.45687 0.1409,0.74722 v 0.17079 h -1.17705 c 0,-0.29035 -0.0512,-0.5138 -0.15229,-0.67179 -0.10247,-0.15513 -0.27327,-0.23484 -0.51238,-0.23484 -0.13663,0 -0.25049,0.0213 -0.34158,0.0598 -0.0897,0.0399 -0.16368,0.0925 -0.21776,0.15799 -0.0541,0.0655 -0.0925,0.14375 -0.11244,0.22914 -0.0213,0.0854 -0.0299,0.17364 -0.0299,0.26473 0,0.1893 0.0399,0.34586 0.11955,0.47395 0.0797,0.12952 0.2505,0.24765 0.51238,0.3544 l 0.9479,0.4099 c 0.23342,0.10248 0.42414,0.20922 0.57074,0.32166 0.14802,0.11102 0.26757,0.23057 0.35439,0.35867 0.0883,0.12809 0.14945,0.26757 0.18361,0.42271 0.0342,0.15229 0.0512,0.32451 0.0512,0.51096 0,0.64332 -0.18644,1.11157 -0.55934,1.40477 -0.3729,0.29319 -0.8924,0.44122 -1.55849,0.44122 -0.69456,0 -1.19128,-0.15087 -1.49159,-0.45261 -0.29889,-0.30173 -0.44691,-0.73441 -0.44691,-1.29803 v -0.24765 h 1.22971 z"
       style="fill:#ffffff;stroke:none;stroke-width:0.59220892;stroke-miterlimit:4;stroke-dasharray:none" />
    <path
       inkscape:connector-curvature="0"
       id="path3137"
       d="m 44.165323,104.0683 h 0.027 l 0.9052,-4.508935 h 1.27383 l -1.4005,6.097315 h -1.57984 l -1.39908,-6.097315 h 1.31511 z"
       style="fill:#ffffff;stroke:none;stroke-width:0.59220892;stroke-miterlimit:4;stroke-dasharray:none" />
    <rect
       y="141.85596"
       x="-11.739751"
       height="4.079298"
       width="50.693756"
       id="rect2345"
       style="fill:#000000;fill-opacity:0.12000002;stroke:none;stroke-width:1.49414814;stroke-linecap:square;stroke-linejoin:miter;stroke-miterlimit:4;stroke-dasharray:none;stroke-opacity:1" />
    <path
       inkscape:connector-curvature="0"
       style="fill:none;stroke:#333333;stroke-width:0.465;stroke-linecap:butt;stroke-linejoin:miter;stroke-miterlimit:4;stroke-dasharray:none;stroke-opacity:1"
       d="m 23.261043,174.12454 v 17.20415 h 7.24894 v -17.20415"
       id="path2067"
       inkscape:export-xdpi="64.290001"
       inkscape:export-ydpi="64.290001" />
    <path
       inkscape:connector-curvature="0"
       style="fill:none;stroke:#333333;stroke-width:0.465;stroke-linecap:butt;stroke-linejoin:miter;stroke-miterlimit:4;stroke-dasharray:none;stroke-opacity:1"
       d="m 7.718721,174.12454 v 17.20415 h 7.248942 v -17.20415"
       id="path2065"
       inkscape:export-xdpi="64.290001"
       inkscape:export-ydpi="64.290001" />
    <path
       inkscape:connector-curvature="0"
       style="fill:none;stroke:#333333;stroke-width:0.465;stroke-linecap:butt;stroke-linejoin:miter;stroke-miterlimit:4;stroke-dasharray:none;stroke-opacity:1"
       d="m -6.894031,174.12454 v 17.20415 h 7.24893699 v -17.20415"
       id="path2063"
       inkscape:export-xdpi="64.290001"
       inkscape:export-ydpi="64.290001" />
    <path
       inkscape:connector-curvature="0"
       style="fill:none;stroke:#333333;stroke-width:0.86500001;stroke-linecap:butt;stroke-linejoin:miter;stroke-miterlimit:4;stroke-dasharray:none;stroke-opacity:1"
       d="m -14.46539,174.12454 v 25.39179 h 7.579569 v -25.39179"
       id="path2055"
       inkscape:export-xdpi="64.290001"
       inkscape:export-ydpi="64.290001" />
    <path
       inkscape:connector-curvature="0"
       style="fill:none;stroke:#333333;stroke-width:0.86500001;stroke-linecap:butt;stroke-linejoin:miter;stroke-miterlimit:4;stroke-dasharray:none;stroke-opacity:1"
       d="m 0.35490599,174.12454 v 25.39179 H 7.934475 v -25.39179"
       id="path2057"
       inkscape:export-xdpi="64.290001"
       inkscape:export-ydpi="64.290001" />
    <path
       inkscape:connector-curvature="0"
       style="fill:none;stroke:#333333;stroke-width:0.86500001;stroke-linecap:butt;stroke-linejoin:miter;stroke-miterlimit:4;stroke-dasharray:none;stroke-opacity:1"
       d="m 15.432453,174.12454 v 25.39179 h 7.57957 v -25.39179"
       id="path2059"
       inkscape:export-xdpi="64.290001"
       inkscape:export-ydpi="64.290001" />
    <path
       inkscape:connector-curvature="0"
       style="fill:none;stroke:#333333;stroke-width:0.86500001;stroke-linecap:butt;stroke-linejoin:miter;stroke-miterlimit:4;stroke-dasharray:none;stroke-opacity:1"
       d="m 30.509983,174.12454 v 25.39179 h 7.57957 v -25.39179"
       id="path2061"
       inkscape:export-xdpi="64.290001"
       inkscape:export-ydpi="64.290001" />
  </g>
</svg>
