<?xml version="1.0" encoding="UTF-8" standalone="no"?>
<svg
   xmlns:dc="http://purl.org/dc/elements/1.1/"
   xmlns:cc="http://creativecommons.org/ns#"
   xmlns:rdf="http://www.w3.org/1999/02/22-rdf-syntax-ns#"
   xmlns:svg="http://www.w3.org/2000/svg"
   xmlns="http://www.w3.org/2000/svg"
   xmlns:xlink="http://www.w3.org/1999/xlink"
   xmlns:sodipodi="http://sodipodi.sourceforge.net/DTD/sodipodi-0.dtd"
   xmlns:inkscape="http://www.inkscape.org/namespaces/inkscape"
   width="635mm"
   height="317.5mm"
   viewBox="0 0 635 317.5"
   version="1.1"
   id="svg3978"
   inkscape:version="1.0.1 (0767f8302a, 2020-10-17)"
   sodipodi:docname="social_media.svg">
  <defs
     id="defs3972">
    <radialGradient
       inkscape:collect="always"
       xlink:href="#linearGradient1477"
       id="radialGradient1479"
       cx="92.98214"
       cy="125.09283"
       fx="92.98214"
       fy="125.09283"
       r="317.5"
       gradientTransform="matrix(0,-0.79818597,1.3297619,-9.218592e-5,-627.08808,-47.362831)"
       gradientUnits="userSpaceOnUse" />
    <linearGradient
       inkscape:collect="always"
       id="linearGradient1477">
      <stop
         style="stop-color:#ffffff;stop-opacity:1"
         offset="0"
         id="stop1473" />
      <stop
         style="stop-color:#f5f5f5;stop-opacity:1"
         offset="1"
         id="stop1475" />
    </linearGradient>
  </defs>
  <sodipodi:namedview
     id="base"
     pagecolor="#ffffff"
     bordercolor="#666666"
     borderopacity="1.0"
     inkscape:pageopacity="0.0"
     inkscape:pageshadow="2"
     inkscape:zoom="0.24748737"
     inkscape:cx="946.58017"
     inkscape:cy="986.1058"
     inkscape:document-units="mm"
     inkscape:current-layer="layer1"
     inkscape:document-rotation="0"
     showgrid="false"
     inkscape:window-width="1457"
     inkscape:window-height="993"
     inkscape:window-x="551"
     inkscape:window-y="0"
     inkscape:window-maximized="0"
     fit-margin-top="0"
     fit-margin-left="0"
     fit-margin-right="0"
     fit-margin-bottom="0" />
  <metadata
     id="metadata3975">
    <rdf:RDF>
      <cc:Work
         rdf:about="">
        <dc:format>image/svg+xml</dc:format>
        <dc:type
           rdf:resource="http://purl.org/dc/dcmitype/StillImage" />
        <dc:title></dc:title>
      </cc:Work>
    </rdf:RDF>
  </metadata>
  <g
     inkscape:label="Layer 1"
     inkscape:groupmode="layer"
     id="layer1"
     transform="translate(781.26825,272.06192)">
    <rect
       style="opacity:1;fill:url(#radialGradient1479);fill-opacity:1;stroke:none;stroke-width:0.952188;stroke-linecap:round;stroke-linejoin:bevel;stroke-miterlimit:4;stroke-dasharray:none;stroke-opacity:1"
       id="rect1463"
       width="635"
       height="317.5"
       x="-781.26825"
       y="-272.06192"
       inkscape:export-xdpi="25.4"
       inkscape:export-ydpi="25.4" />
    <g
       id="g4818"
       transform="matrix(1.9348664,0,0,1.9348664,-627.58694,-319.54795)">
      <rect
         style="fill:none;fill-opacity:1;stroke:none;stroke-width:14.1765;stroke-miterlimit:4;stroke-dasharray:none"
         id="rect4506"
         width="197.556"
         height="141.11099"
         x="-14.111333"
         y="36.033791" />
      <g
         id="g2053"
         transform="matrix(0.9411957,0,0,0.9411957,3.3486768,-6.7378795)">
        <path
           style="fill:#f2f2f2;fill-opacity:1;stroke:#f2f2f2;stroke-width:8.00978;stroke-linecap:butt;stroke-linejoin:miter;stroke-miterlimit:4;stroke-dasharray:none;stroke-opacity:1"
           d="m 60.59409,150.8891 v 26.96917"
           id="path2191" />
        <path
           style="fill:none;stroke:#b3b3b3;stroke-width:8.00978;stroke-linecap:butt;stroke-linejoin:miter;stroke-miterlimit:4;stroke-dasharray:none;stroke-opacity:1"
           d="m 68.603869,150.8891 v 18.28327"
           id="path2193" />
        <path
           style="fill:none;stroke:#f2f2f2;stroke-width:8.00978;stroke-linecap:butt;stroke-linejoin:miter;stroke-miterlimit:4;stroke-dasharray:none;stroke-opacity:1"
           d="m 76.613648,150.8891 v 26.96917"
           id="path2195" />
        <path
           style="fill:none;stroke:#b3b3b3;stroke-width:8.00978;stroke-linecap:butt;stroke-linejoin:miter;stroke-miterlimit:4;stroke-dasharray:none;stroke-opacity:1"
           d="m 84.623428,150.8891 v 18.28327"
           id="path2197" />
        <path
           style="fill:none;stroke:#f2f2f2;stroke-width:8.00978;stroke-linecap:butt;stroke-linejoin:miter;stroke-miterlimit:4;stroke-dasharray:none;stroke-opacity:1"
           d="m 92.633207,150.8891 v 26.96917"
           id="path2199" />
        <path
           style="fill:none;stroke:#b3b3b3;stroke-width:8.00978;stroke-linecap:butt;stroke-linejoin:miter;stroke-miterlimit:4;stroke-dasharray:none;stroke-opacity:1"
           d="m 100.64299,150.8891 v 18.28327"
           id="path2201" />
        <path
           style="fill:none;stroke:#f2f2f2;stroke-width:8.00978;stroke-linecap:butt;stroke-linejoin:miter;stroke-miterlimit:4;stroke-dasharray:none;stroke-opacity:1"
           d="m 108.65276,150.8891 v 26.96917"
           id="path2203" />
        <rect
           style="fill:#000000;fill-opacity:0.2;stroke:none;stroke-width:0.725845;stroke-linecap:square;stroke-linejoin:miter;stroke-miterlimit:4;stroke-dasharray:none;stroke-opacity:1"
           id="rect2373"
           width="1.8521252"
           height="18.279037"
           x="64.616547"
           y="150.89333" />
        <rect
           style="fill:#ececec;fill-opacity:1;stroke:#333333;stroke-width:1.3;stroke-linecap:square;stroke-linejoin:miter;stroke-miterlimit:4;stroke-dasharray:none;stroke-opacity:1"
           id="rect2176"
           width="109.82337"
           height="25.315695"
           x="31.486885"
           y="125.57764" />
        <rect
           style="fill:#f2f2f2;fill-opacity:1;stroke:none;stroke-width:1.3;stroke-linecap:square;stroke-linejoin:miter;stroke-miterlimit:4;stroke-dasharray:none;stroke-opacity:1"
           id="rect2178"
           width="109.82504"
           height="15.675955"
           x="31.48605"
           y="109.8599" />
        <rect
           style="fill:#b3b3b3;fill-opacity:1;stroke:#333333;stroke-width:0.723;stroke-linecap:round;stroke-linejoin:round;stroke-miterlimit:4;stroke-dasharray:none;stroke-opacity:1"
           id="rect2180"
           width="80.644058"
           height="7.525043"
           x="46.076538"
           y="113.7278"
           rx="0.94419539"
           ry="0.77286786" />
        <g
           id="g2393"
           transform="translate(0,0.15409708)">
          <path
             class="cls-1"
             d="m 76.804068,140.8195 c -0.836795,0 -1.689063,-0.34629 -2.222754,-1.02501 v 3.66658 h -1.676033 v -9.05157 h 1.515517 l 0.0578,0.99568 c 0.519848,-0.76509 1.443001,-1.16923 2.323797,-1.16923 1.689075,0 2.933261,1.41531 2.933261,3.29177 0,1.87648 -1.242557,3.29259 -2.931633,3.29178 z m -0.519021,-5.34099 c -0.981825,0 -1.775434,0.76509 -1.775434,2.05004 0,1.28491 0.793609,2.05165 1.775434,2.05165 0.981826,0 1.775434,-0.7651 1.775434,-2.05002 0,-1.28495 -0.793608,-2.05167 -1.775434,-2.05167 z"
             id="path3017"
             style="fill:#333333;stroke:none;stroke-width:0.622815;stroke-miterlimit:4;stroke-dasharray:none" />
          <path
             class="cls-1"
             d="m 86.052813,140.64758 -0.0578,-0.99568 c -0.519848,0.76508 -1.44383,1.16923 -2.324612,1.16841 -1.689075,0 -2.933261,-1.41448 -2.933261,-3.29095 0,-1.87648 1.241743,-3.29178 2.933261,-3.29096 0.880782,0 1.804764,0.40739 2.324612,1.16922 l 0.0578,-0.99566 h 1.518774 v 6.23562 z m -1.861807,-5.16825 c -0.981825,0 -1.775434,0.76509 -1.776248,2.05003 -8.28e-4,1.28493 0.793609,2.05084 1.775434,2.05084 0.981825,0 1.776249,-0.7651 1.776249,-2.05002 0,-1.28495 -0.793609,-2.05085 -1.775435,-2.05085 z"
             id="path3019"
             style="fill:#333333;stroke:none;stroke-width:0.622815;stroke-miterlimit:4;stroke-dasharray:none" />
          <path
             class="cls-1"
             d="m 93.427523,140.64838 v -3.44984 c 0,-1.21241 -0.41799,-1.61654 -1.183084,-1.61654 -0.794423,0 -1.660548,0.72109 -1.660548,1.58721 v 3.47917 h -1.675218 v -6.23642 h 1.531002 l 0.07249,1.15537 c 0.418804,-0.79443 1.356629,-1.32812 2.30994,-1.32812 1.659733,0 2.281425,1.15539 2.281425,2.69942 v 3.71058 z"
             id="path3021"
             style="fill:#333333;stroke:none;stroke-width:0.622815;stroke-miterlimit:4;stroke-dasharray:none" />
          <path
             class="cls-1"
             d="m 101.24141,140.65002 -0.0578,-0.99649 c -0.51985,0.76509 -1.44382,1.16923 -2.323801,1.16923 -1.689076,0 -2.933261,-1.41531 -2.933261,-3.29178 0,-1.87647 1.241742,-3.29095 2.933261,-3.29095 0.836795,0 1.688251,0.3471 2.222751,1.02501 v -3.2763 h 1.67522 v 8.66128 z m -1.861807,-5.16824 c -0.977753,0 -1.775434,0.7651 -1.775434,2.0492 0,1.28412 0.793609,2.04922 1.775434,2.04922 0.981827,0 1.775437,-0.76428 1.775437,-2.04922 0,-1.28493 -0.79117,-2.0492 -1.775437,-2.0492 z"
             id="path3023"
             style="fill:#333333;stroke:none;stroke-width:0.622815;stroke-miterlimit:4;stroke-dasharray:none" />
          <path
             class="cls-1"
             d="m 109.04959,140.65084 -0.0578,-0.99568 c -0.51984,0.76509 -1.44382,1.16841 -2.3246,1.16841 -1.68908,0 -2.93328,-1.41447 -2.93328,-3.29178 0,-1.87728 1.24175,-3.29095 2.93328,-3.29095 0.88078,0 1.80476,0.4074 2.3246,1.17004 l 0.0578,-0.9965 h 1.51552 v 6.23564 z m -1.86181,-5.16824 c -0.97775,0 -1.77544,0.76509 -1.77626,2.05002 -6.2e-4,1.28493 0.79444,2.04758 1.77545,2.04758 0.98101,0 1.77625,-0.7651 1.77625,-2.05002 0,-1.28495 -0.79361,-2.04758 -1.77544,-2.04758 z"
             id="path3025"
             style="fill:#333333;stroke:none;stroke-width:0.622815;stroke-miterlimit:4;stroke-dasharray:none" />
          <path
             class="cls-1"
             d="m 114.27488,140.85371 a 4.9018081,4.9018081 0 0 1 -2.49736,-0.70805 l 0.27459,-1.15457 c 0.50516,0.30312 1.27027,0.6934 2.19424,0.6934 0.66406,0 1.12604,-0.20208 1.12604,-0.72191 0,-0.44732 -0.47665,-0.60621 -1.3281,-0.80828 -1.53019,-0.33243 -2.07855,-1.14072 -2.07855,-2.02151 0,-0.98183 0.76509,-1.90499 2.45417,-1.90499 1.02501,0 1.92048,0.44733 2.11846,0.56303 l -0.27458,1.09753 a 3.6331719,3.6331719 0 0 0 -1.80395,-0.51984 c -0.67792,0 -1.01036,0.23059 -1.01036,0.60621 0,0.41799 0.43348,0.60621 1.09672,0.76509 1.64588,0.34629 2.30994,1.11139 2.30994,1.94898 0.003,1.34198 -0.97856,2.16491 -2.58126,2.16491 z"
             id="path3027"
             style="fill:#333333;stroke:none;stroke-width:0.622815;stroke-miterlimit:4;stroke-dasharray:none" />
          <rect
             class="cls-1"
             x="59.206947"
             y="130.1628"
             width="1.9628417"
             height="4.0756059"
             id="rect3029"
             style="fill:#333333;stroke:none;stroke-width:0.622815;stroke-miterlimit:4;stroke-dasharray:none" />
          <rect
             class="cls-1"
             x="59.206947"
             y="138.53481"
             width="1.9628417"
             height="4.0756059"
             id="rect3031"
             style="fill:#333333;stroke:none;stroke-width:0.622815;stroke-miterlimit:4;stroke-dasharray:none" />
          <rect
             class="cls-2"
             x="59.206947"
             y="135.42801"
             width="1.9628417"
             height="1.9229168"
             id="rect3033"
             style="stroke:none;stroke-width:0.622815;stroke-miterlimit:4;stroke-dasharray:none" />
          <rect
             class="cls-1"
             x="56.054497"
             y="133.51405"
             width="1.9628417"
             height="13.547601"
             id="rect3035"
             style="fill:#333333;stroke:none;stroke-width:0.622815;stroke-miterlimit:4;stroke-dasharray:none" />
          <rect
             class="cls-1"
             x="62.295006"
             y="141.89748"
             width="1.9628417"
             height="4.0756059"
             id="rect3037"
             style="fill:#333333;stroke:none;stroke-width:0.622815;stroke-miterlimit:4;stroke-dasharray:none" />
          <rect
             class="cls-1"
             x="62.295006"
             y="133.51894"
             width="1.9628417"
             height="4.0756059"
             id="rect3039"
             style="fill:#333333;stroke:none;stroke-width:0.622815;stroke-miterlimit:4;stroke-dasharray:none" />
          <rect
             class="cls-3"
             x="62.295006"
             y="138.78413"
             width="1.9628417"
             height="1.9229168"
             id="rect3041"
             style="stroke:none;stroke-width:0.622815;stroke-miterlimit:4;stroke-dasharray:none" />
          <rect
             class="cls-1"
             x="65.382271"
             y="129.10112"
             width="1.9628417"
             height="13.547601"
             id="rect3043"
             style="fill:#333333;stroke:none;stroke-width:0.622815;stroke-miterlimit:4;stroke-dasharray:none" />
        </g>
        <rect
           style="fill:#000000;fill-opacity:0.2;stroke:none;stroke-width:0.725845;stroke-linecap:square;stroke-linejoin:miter;stroke-miterlimit:4;stroke-dasharray:none;stroke-opacity:1"
           id="rect2375"
           width="1.8521252"
           height="18.279037"
           x="80.618538"
           y="150.89333" />
        <rect
           style="fill:#000000;fill-opacity:0.2;stroke:none;stroke-width:0.725845;stroke-linecap:square;stroke-linejoin:miter;stroke-miterlimit:4;stroke-dasharray:none;stroke-opacity:1"
           id="rect2377"
           width="1.8521252"
           height="18.279037"
           x="96.6381"
           y="150.89333" />
        <path
           style="fill:none;stroke:#2e2e2e;stroke-width:1.3;stroke-linecap:butt;stroke-linejoin:miter;stroke-miterlimit:4;stroke-dasharray:none;stroke-opacity:1"
           d="M 31.486884,125.57763 31.48609,109.8599 h 109.8242 l 1e-5,15.71773"
           id="path1997" />
        <circle
           style="fill:#008080;fill-opacity:0.15;stroke:#20d060;stroke-width:1.865;stroke-linecap:round;stroke-linejoin:round;stroke-miterlimit:4;stroke-dasharray:none;stroke-opacity:1"
           id="path2404"
           cx="38.36396"
           cy="132.22205"
           r="0.94166166" />
        <rect
           style="fill:#ffffff;fill-opacity:1;stroke:none;stroke-width:0;stroke-linecap:round;stroke-linejoin:round;stroke-miterlimit:4;stroke-dasharray:none;stroke-opacity:1"
           id="rect2182"
           width="53.861012"
           height="56.625103"
           x="59.468071"
           y="64.317726" />
        <path
           style="fill:none;stroke:#333333;stroke-width:1.33496;stroke-linecap:butt;stroke-linejoin:miter;stroke-miterlimit:4;stroke-dasharray:none;stroke-opacity:1"
           d="M 59.468062,120.94283 V 64.317726 h 53.861008 v 56.625104"
           id="path2256" />
        <rect
           style="fill:#000000;fill-opacity:0.086041;stroke:#4d4d4d;stroke-width:0.994;stroke-linecap:square;stroke-linejoin:miter;stroke-miterlimit:4;stroke-dasharray:none;stroke-opacity:1"
           id="rect2347"
           width="39.64254"
           height="24.879091"
           x="66.875008"
           y="84.981651" />
        <path
           style="fill:none;stroke:#4d4d4d;stroke-width:0.765;stroke-linecap:butt;stroke-linejoin:miter;stroke-miterlimit:4;stroke-dasharray:none;stroke-opacity:1"
           d="M 78.531893,84.981651 V 109.86074"
           id="path2351" />
        <path
           style="fill:none;stroke:#4d4d4d;stroke-width:0.765;stroke-linecap:butt;stroke-linejoin:miter;stroke-miterlimit:4;stroke-dasharray:none;stroke-opacity:1"
           d="M 87.855218,84.981651 V 109.86074"
           id="path2353" />
        <path
           style="fill:none;stroke:#4d4d4d;stroke-width:0.765;stroke-linecap:butt;stroke-linejoin:miter;stroke-miterlimit:4;stroke-dasharray:none;stroke-opacity:1"
           d="M 97.178551,84.981651 V 109.86074"
           id="path2355" />
        <path
           style="fill:none;stroke:#4d4d4d;stroke-width:0.765;stroke-linecap:butt;stroke-linejoin:miter;stroke-miterlimit:4;stroke-dasharray:none;stroke-opacity:1"
           d="M 66.875008,93.119856 H 106.51755"
           id="path2357" />
        <path
           style="fill:none;stroke:#4d4d4d;stroke-width:0.765;stroke-linecap:butt;stroke-linejoin:miter;stroke-miterlimit:4;stroke-dasharray:none;stroke-opacity:1"
           d="M 66.875008,98.78851 H 106.51755"
           id="path2361" />
        <path
           style="fill:none;stroke:#4d4d4d;stroke-width:0.765;stroke-linecap:butt;stroke-linejoin:miter;stroke-miterlimit:4;stroke-dasharray:none;stroke-opacity:1"
           d="M 66.875008,104.45716 H 106.51755"
           id="path2365" />
        <rect
           style="fill:#000000;fill-opacity:0.296046;stroke:none;stroke-width:0.765;stroke-linecap:square;stroke-linejoin:miter;stroke-miterlimit:4;stroke-dasharray:none;stroke-opacity:1"
           id="rect2369"
           width="39.64254"
           height="8.1382046"
           x="66.875008"
           y="84.981651" />
        <g
           id="g2004">
          <path
             style="fill:#448e47;stroke:#333333;stroke-width:1.329;stroke-miterlimit:4;stroke-dasharray:none"
             d="m 101.23148,69.603789 v 10.585392 h 24.19519 V 69.603789 Z"
             id="path3131" />
          <g
             id="g3139"
             transform="matrix(0.09451246,0,0,0.09451246,102.10478,60.530591)"
             style="stroke:none;stroke-width:6.65742;stroke-miterlimit:4;stroke-dasharray:none">
            <path
               style="fill:#ffffff;stroke:none;stroke-width:6.65742;stroke-miterlimit:4;stroke-dasharray:none"
               d="m 64.32,130.112 c -1.184,-2.288 -3.344,-3.424 -6.48,-3.424 -1.728,0 -3.152,0.464 -4.272,1.408 -1.12,0.928 -2,2.416 -2.64,4.496 -0.64,2.08 -1.088,4.8 -1.344,8.176 -0.272,3.36 -0.384,7.472 -0.384,12.336 0,5.184 0.176,9.376 0.528,12.576 0.336,3.2 0.896,5.664 1.632,7.44 0.736,1.776 1.664,2.96 2.784,3.552 1.12,0.608 2.416,0.928 3.888,0.928 1.216,0 2.352,-0.208 3.408,-0.624 1.056,-0.416 1.968,-1.248 2.736,-2.496 0.784,-1.248 1.392,-3.008 1.824,-5.28 0.448,-2.272 0.672,-5.264 0.672,-8.976 H 80.48 c 0,3.696 -0.288,7.232 -0.864,10.56 -0.576,3.328 -1.664,6.24 -3.216,8.736 -1.584,2.48 -3.776,4.432 -6.624,5.84 -2.848,1.408 -6.544,2.128 -11.088,2.128 -5.168,0 -9.312,-0.848 -12.368,-2.496 -3.072,-1.664 -5.424,-4.064 -7.056,-7.2 -1.632,-3.136 -2.688,-6.88 -3.168,-11.232 -0.464,-4.336 -0.72,-9.152 -0.72,-14.384 0,-5.184 0.256,-9.968 0.72,-14.352 0.48,-4.368 1.552,-8.144 3.168,-11.28 1.648,-3.12 3.984,-5.584 7.056,-7.344 3.056,-1.744 7.2,-2.64 12.368,-2.64 4.944,0 8.816,0.8 11.664,2.4 2.848,1.6 4.976,3.632 6.368,6.096 1.392,2.464 2.304,5.12 2.64,7.968 0.352,2.848 0.528,5.52 0.528,8.016 H 66.08 c 0,-5.04 -0.592,-8.672 -1.76,-10.928 z"
               id="path3133" />
            <path
               style="fill:#ffffff;stroke:none;stroke-width:6.65742;stroke-miterlimit:4;stroke-dasharray:none"
               d="m 109.072,167.008 c 0,1.6 0.144,3.056 0.384,4.352 0.272,1.312 0.736,2.416 1.44,3.312 0.704,0.912 1.664,1.616 2.848,2.128 1.168,0.496 2.672,0.768 4.448,0.768 2.128,0 4.016,-0.688 5.712,-2.064 1.68,-1.376 2.544,-3.52 2.544,-6.384 0,-1.536 -0.224,-2.864 -0.624,-3.984 -0.416,-1.12 -1.104,-2.128 -2.064,-3.008 -0.976,-0.912 -2.24,-1.712 -3.792,-2.448 -1.552,-0.736 -3.504,-1.488 -5.808,-2.256 -3.056,-1.024 -5.712,-2.16 -7.968,-3.376 -2.24,-1.2 -4.112,-2.624 -5.616,-4.272 -1.504,-1.632 -2.608,-3.52 -3.312,-5.664 -0.704,-2.16 -1.056,-4.624 -1.056,-7.456 0,-6.784 1.888,-11.824 5.664,-15.152 3.76,-3.328 8.96,-4.992 15.552,-4.992 3.072,0 5.904,0.336 8.496,1.008 2.592,0.672 4.832,1.744 6.72,3.264 1.888,1.504 3.36,3.424 4.416,5.744 1.04,2.336 1.584,5.136 1.584,8.4 v 1.92 h -13.232 c 0,-3.264 -0.576,-5.776 -1.712,-7.552 -1.152,-1.744 -3.072,-2.64 -5.76,-2.64 -1.536,0 -2.816,0.24 -3.84,0.672 -1.008,0.448 -1.84,1.04 -2.448,1.776 -0.608,0.736 -1.04,1.616 -1.264,2.576 -0.24,0.96 -0.336,1.952 -0.336,2.976 0,2.128 0.448,3.888 1.344,5.328 0.896,1.456 2.816,2.784 5.76,3.984 l 10.656,4.608 c 2.624,1.152 4.768,2.352 6.416,3.616 1.664,1.248 3.008,2.592 3.984,4.032 0.992,1.44 1.68,3.008 2.064,4.752 0.384,1.712 0.576,3.648 0.576,5.744 0,7.232 -2.096,12.496 -6.288,15.792 -4.192,3.296 -10.032,4.96 -17.52,4.96 -7.808,0 -13.392,-1.696 -16.768,-5.088 -3.36,-3.392 -5.024,-8.256 -5.024,-14.592 v -2.784 h 13.824 z"
               id="path3135" />
            <path
               style="fill:#ffffff;stroke:none;stroke-width:6.65742;stroke-miterlimit:4;stroke-dasharray:none"
               d="m 177.344,168.544 h 0.304 l 10.176,-50.688 h 14.32 L 186.4,186.4 h -17.76 l -15.728,-68.544 h 14.784 z"
               id="path3137" />
          </g>
        </g>
        <rect
           style="fill:#000000;fill-opacity:0.12;stroke:none;stroke-width:1.5875;stroke-linecap:square;stroke-linejoin:miter;stroke-miterlimit:4;stroke-dasharray:none;stroke-opacity:1"
           id="rect2345"
           width="53.861015"
           height="4.3341656"
           x="59.468067"
           y="116.60866" />
      </g>
      <path
         style="fill:none;stroke:#333333;stroke-width:0.465;stroke-linecap:butt;stroke-linejoin:miter;stroke-miterlimit:4;stroke-dasharray:none;stroke-opacity:1"
         d="m 94.320567,135.28228 v 17.20415 h 7.248943 v -17.20415"
         id="path2067" />
      <path
         style="fill:none;stroke:#333333;stroke-width:0.465;stroke-linecap:butt;stroke-linejoin:miter;stroke-miterlimit:4;stroke-dasharray:none;stroke-opacity:1"
         d="m 78.778245,135.28228 v 17.20415 h 7.248942 v -17.20415"
         id="path2065" />
      <path
         style="fill:none;stroke:#333333;stroke-width:0.465;stroke-linecap:butt;stroke-linejoin:miter;stroke-miterlimit:4;stroke-dasharray:none;stroke-opacity:1"
         d="m 64.165493,135.28228 v 17.20415 h 7.248937 v -17.20415"
         id="path2063" />
      <path
         style="fill:none;stroke:#333333;stroke-width:0.865;stroke-linecap:butt;stroke-linejoin:miter;stroke-miterlimit:4;stroke-dasharray:none;stroke-opacity:1"
         d="m 56.594134,135.28228 v 25.39179 h 7.579569 v -25.39179"
         id="path2055" />
      <path
         style="fill:none;stroke:#333333;stroke-width:0.865;stroke-linecap:butt;stroke-linejoin:miter;stroke-miterlimit:4;stroke-dasharray:none;stroke-opacity:1"
         d="m 71.41443,135.28228 v 25.39179 h 7.579569 v -25.39179"
         id="path2057" />
      <path
         style="fill:none;stroke:#333333;stroke-width:0.865;stroke-linecap:butt;stroke-linejoin:miter;stroke-miterlimit:4;stroke-dasharray:none;stroke-opacity:1"
         d="m 86.491977,135.28228 v 25.39179 h 7.57957 v -25.39179"
         id="path2059" />
      <path
         style="fill:none;stroke:#333333;stroke-width:0.865;stroke-linecap:butt;stroke-linejoin:miter;stroke-miterlimit:4;stroke-dasharray:none;stroke-opacity:1"
         d="m 101.56951,135.28228 v 25.39179 h 7.57957 v -25.39179"
         id="path2061" />
    </g>
  </g>
</svg>
