<?xml version="1.0" encoding="UTF-8" standalone="no"?>
<!-- Created with Inkscape (http://www.inkscape.org/) -->

<svg
   xmlns:dc="http://purl.org/dc/elements/1.1/"
   xmlns:cc="http://creativecommons.org/ns#"
   xmlns:rdf="http://www.w3.org/1999/02/22-rdf-syntax-ns#"
   xmlns:svg="http://www.w3.org/2000/svg"
   xmlns="http://www.w3.org/2000/svg"
   xmlns:xlink="http://www.w3.org/1999/xlink"
   xmlns:sodipodi="http://sodipodi.sourceforge.net/DTD/sodipodi-0.dtd"
   xmlns:inkscape="http://www.inkscape.org/namespaces/inkscape"
   width="94.695099mm"
   height="36.609787mm"
   viewBox="0 0 94.695099 36.609787"
   version="1.1"
   id="svg5006"
   inkscape:version="0.92.1 r15371"
   sodipodi:docname="about-picture.svg">
  <defs
     id="defs5000">
    <linearGradient
       inkscape:collect="always"
       id="linearGradient5577">
      <stop
         style="stop-color:#306998;stop-opacity:1"
         offset="0"
         id="stop5579" />
      <stop
         style="stop-color:#255175;stop-opacity:1"
         offset="1"
         id="stop5581" />
    </linearGradient>
    <linearGradient
       id="linearGradient5567"
       inkscape:collect="always">
      <stop
         id="stop5569"
         offset="0"
         style="stop-color:#ffd43b;stop-opacity:1" />
      <stop
         id="stop5571"
         offset="1"
         style="stop-color:#ffdd62;stop-opacity:1" />
    </linearGradient>
    <linearGradient
       id="linearGradient4955"
       inkscape:collect="always">
      <stop
         id="stop4957"
         offset="0"
         style="stop-color:#6a6a6a;stop-opacity:1" />
      <stop
         id="stop4959"
         offset="1"
         style="stop-color:#1a1a1a;stop-opacity:1" />
    </linearGradient>
    <linearGradient
       id="linearGradient4859"
       inkscape:collect="always">
      <stop
         id="stop4861"
         offset="0"
         style="stop-color:#626262;stop-opacity:1" />
      <stop
         id="stop4863"
         offset="1"
         style="stop-color:#202020;stop-opacity:1" />
    </linearGradient>
    <linearGradient
       id="linearGradient4793"
       inkscape:collect="always">
      <stop
         id="stop4795"
         offset="0"
         style="stop-color:#333333;stop-opacity:1" />
      <stop
         id="stop4797"
         offset="1"
         style="stop-color:#707070;stop-opacity:1" />
    </linearGradient>
    <clipPath
       id="clipPath4406"
       clipPathUnits="userSpaceOnUse">
      <path
         inkscape:connector-curvature="0"
         id="path4408"
         style="font-style:normal;font-weight:normal;font-size:medium;line-height:125%;font-family:sans-serif;text-align:center;letter-spacing:0px;word-spacing:0px;text-anchor:middle;fill:#000000;fill-opacity:1;stroke:none;stroke-width:1px;stroke-linecap:butt;stroke-linejoin:miter;stroke-opacity:1"
         d="m 223.8771,816.74384 q -2.01052,-1.16078 -4.06387,-0.34793 -2.04421,0.81811 -3.53739,3.40438 -1.48791,2.57713 -1.17431,4.75652 0.32273,2.18468 2.33325,3.34545 2.01053,1.16078 4.0456,0.33738 2.04421,-0.81811 3.53211,-3.39524 1.49319,-2.58627 1.17959,-4.76566 -0.30445,-2.17412 -2.31498,-3.3349 z m 0.86531,-1.49875 q 2.86957,1.65675 3.47437,4.57696 0.61006,2.91107 -1.25774,6.14619 -1.86252,3.22598 -4.69389,4.16232 -2.8261,0.92721 -5.69567,-0.72954 -2.8787,-1.66202 -3.49792,-4.57838 -0.61007,-2.91107 1.25772,-6.14619 1.8678,-3.23512 4.69391,-4.16232 2.84052,-0.93106 5.71922,0.73096 z" />
    </clipPath>
    <clipPath
       id="clipPath4410"
       clipPathUnits="userSpaceOnUse">
      <path
         inkscape:connector-curvature="0"
         id="path4412"
         style="font-style:normal;font-weight:normal;font-size:medium;line-height:125%;font-family:sans-serif;text-align:center;letter-spacing:0px;word-spacing:0px;text-anchor:middle;fill:#000000;fill-opacity:1;stroke:none;stroke-width:1px;stroke-linecap:butt;stroke-linejoin:miter;stroke-opacity:1"
         d="m 223.8771,816.74384 q -2.01052,-1.16078 -4.06387,-0.34793 -2.04421,0.81811 -3.53739,3.40438 -1.48791,2.57713 -1.17431,4.75652 0.32273,2.18468 2.33325,3.34545 2.01053,1.16078 4.0456,0.33738 2.04421,-0.81811 3.53211,-3.39524 1.49319,-2.58627 1.17959,-4.76566 -0.30445,-2.17412 -2.31498,-3.3349 z m 0.86531,-1.49875 q 2.86957,1.65675 3.47437,4.57696 0.61006,2.91107 -1.25774,6.14619 -1.86252,3.22598 -4.69389,4.16232 -2.8261,0.92721 -5.69567,-0.72954 -2.8787,-1.66202 -3.49792,-4.57838 -0.61007,-2.91107 1.25772,-6.14619 1.8678,-3.23512 4.69391,-4.16232 2.84052,-0.93106 5.71922,0.73096 z" />
    </clipPath>
    <clipPath
       id="clipPath4871"
       clipPathUnits="userSpaceOnUse">
      <path
         inkscape:connector-curvature="0"
         id="path4873"
         style="font-style:normal;font-variant:normal;font-weight:bold;font-stretch:normal;font-size:medium;line-height:125%;font-family:Aharoni;-inkscape-font-specification:'Aharoni Bold';text-align:center;letter-spacing:4.20894575px;word-spacing:0px;text-anchor:middle;fill:url(#linearGradient4875);fill-opacity:1;stroke:none;stroke-width:1px;stroke-linecap:butt;stroke-linejoin:miter;stroke-opacity:1"
         d="m 95.118707,-391.85817 q 0,4.256 -2.00147,7.03966 -2.59961,3.61184 -8.627024,3.61184 h -5.107198 v 10.39844 h -8.166916 v -31.40237 h 12.998049 q 5.544301,0 8.419976,3.24377 2.484583,2.78365 2.484583,7.10866 z m -8.488992,0.092 q 0,-1.74841 -1.035243,-2.78365 -1.012237,-1.05825 -3.473815,-1.05825 h -2.737642 v 7.79883 h 2.714637 q 2.645621,0 3.634853,-1.15027 0.89721,-1.03524 0.89721,-2.80666 z" />
    </clipPath>
    <linearGradient
       y2="-399.85815"
       x2="91.721855"
       y1="-370.80823"
       x1="71.216103"
       gradientUnits="userSpaceOnUse"
       id="linearGradient4875"
       xlink:href="#linearGradient4859"
       inkscape:collect="always" />
    <clipPath
       id="clipPath4979"
       clipPathUnits="userSpaceOnUse">
      <path
         inkscape:connector-curvature="0"
         id="path4981"
         style="font-style:normal;font-variant:normal;font-weight:bold;font-stretch:normal;font-size:medium;line-height:125%;font-family:Aharoni;-inkscape-font-specification:'Aharoni Bold';text-align:center;letter-spacing:4.20894575px;word-spacing:0px;text-anchor:middle;fill:url(#radialGradient4983);fill-opacity:1;stroke:none;stroke-width:1px;stroke-linecap:butt;stroke-linejoin:miter;stroke-opacity:1"
         d="m 236.71277,-386.40589 q 0,6.3955 -4.256,11.22664 -4.85414,5.49829 -13.13609,5.49829 -8.25893,0 -13.11307,-5.49829 -4.256,-4.83114 -4.256,-11.22664 0,-2.92168 1.15027,-5.9814 1.15027,-3.08272 3.08272,-5.26824 4.85414,-5.49829 13.13608,-5.49829 8.28195,0 13.13609,5.49829 4.256,4.83114 4.256,11.24964 z m -8.489,0 q 0,-3.31277 -2.11649,-5.72834 -2.71464,-3.08272 -6.7866,-3.08272 -2.80665,0 -5.08419,1.58737 -2.27753,1.56436 -3.24376,4.18698 -0.55213,1.49535 -0.55213,3.03671 0,3.17475 2.1165,5.68234 2.62261,3.10572 6.76358,3.10572 4.14098,0 6.7866,-3.08272 2.11649,-2.46158 2.11649,-5.70534 z" />
    </clipPath>
    <radialGradient
       r="17.380581"
       fy="-388.2663"
       fx="217.20299"
       cy="-388.2663"
       cx="217.20299"
       gradientTransform="matrix(0,-1.7428594,1.6452282,0,858.11884,-7.8631083)"
       gradientUnits="userSpaceOnUse"
       id="radialGradient4983"
       xlink:href="#linearGradient4955"
       inkscape:collect="always" />
    <clipPath
       id="clipPath4987"
       clipPathUnits="userSpaceOnUse">
      <path
         inkscape:connector-curvature="0"
         id="path4989"
         style="font-style:normal;font-variant:normal;font-weight:bold;font-stretch:normal;font-size:medium;line-height:125%;font-family:Aharoni;-inkscape-font-specification:'Aharoni Bold';text-align:center;letter-spacing:4.20894575px;word-spacing:0px;text-anchor:middle;fill:url(#radialGradient4991);fill-opacity:1;stroke:none;stroke-width:1px;stroke-linecap:butt;stroke-linejoin:miter;stroke-opacity:1"
         d="m 239.39317,-386.40412 q 0,7.38181 -4.91235,12.958 -5.60274,6.34622 -15.16191,6.34622 -9.53261,0 -15.13535,-6.34622 -4.91235,-5.57619 -4.91235,-12.958 0,-3.37225 1.32766,-6.90384 1.32766,-3.55813 3.55813,-6.0807 5.60274,-6.34622 15.16191,-6.34622 9.55917,0 15.16191,6.34622 4.91235,5.57619 4.91235,12.98454 z m -9.79816,0 q 0,-3.82366 -2.44289,-6.61175 -3.13328,-3.55813 -7.83321,-3.55813 -3.23949,0 -5.86827,1.83217 -2.62877,1.80561 -3.74401,4.83269 -0.63727,1.72596 -0.63727,3.50502 0,3.66436 2.4429,6.55866 3.02706,3.58468 7.80665,3.58468 4.77959,0 7.83321,-3.55813 2.44289,-2.8412 2.44289,-6.58521 z" />
    </clipPath>
    <radialGradient
       r="17.380581"
       fy="-388.2663"
       fx="217.20299"
       cy="-388.2663"
       cx="217.20299"
       gradientTransform="matrix(0,-2.01164,1.8989523,0,956.63135,50.516841)"
       gradientUnits="userSpaceOnUse"
       id="radialGradient4991"
       xlink:href="#linearGradient4955"
       inkscape:collect="always" />
    <clipPath
       id="clipPath5271"
       clipPathUnits="userSpaceOnUse">
      <g
         id="g5273"
         transform="matrix(1.8566015,0,0,1.8566015,-427.41476,-1310.5791)">
        <text
           id="text5275"
           y="630.55304"
           x="593.086"
           style="font-style:normal;font-weight:normal;line-height:0%;font-family:sans-serif;text-align:center;letter-spacing:5.92633581px;word-spacing:0px;text-anchor:middle;fill:#666666;fill-opacity:1;stroke:none;stroke-width:1px;stroke-linecap:butt;stroke-linejoin:miter;stroke-opacity:1"
           xml:space="preserve"><tspan
             style="font-style:normal;font-variant:normal;font-weight:normal;font-stretch:normal;font-size:15.24786377px;line-height:1.25;font-family:Quick;-inkscape-font-specification:Quick;letter-spacing:3.46463752px;fill:#666666"
             y="630.55304"
             x="594.8183"
             id="tspan5277"
             sodipodi:role="line">ACADEMY</tspan></text>
        <text
           id="text5279"
           y="614.97467"
           x="593.09253"
           style="font-style:normal;font-weight:normal;line-height:0%;font-family:sans-serif;text-align:center;letter-spacing:16.53832054px;word-spacing:0px;text-anchor:middle;fill:url(#linearGradient5283);fill-opacity:1;stroke:none;stroke-width:1px;stroke-linecap:butt;stroke-linejoin:miter;stroke-opacity:1"
           xml:space="preserve"><tspan
             style="font-style:normal;font-variant:normal;font-weight:normal;font-stretch:condensed;font-size:42.55142593px;line-height:1.25;font-family:'Agency FB';-inkscape-font-specification:'Agency FB Condensed';letter-spacing:0px;fill:url(#linearGradient5283);fill-opacity:1"
             y="614.97467"
             x="593.09253"
             id="tspan5281"
             sodipodi:role="line">PYTHON</tspan></text>
      </g>
    </clipPath>
    <linearGradient
       y2="582.45856"
       x2="604.25"
       y1="614.11218"
       x1="604.25"
       gradientTransform="translate(2.2259071e-5)"
       gradientUnits="userSpaceOnUse"
       id="linearGradient5283"
       xlink:href="#linearGradient4793"
       inkscape:collect="always" />
    <clipPath
       id="clipPath5318"
       clipPathUnits="userSpaceOnUse">
      <g
         id="g5320"
         transform="matrix(1.8566015,0,0,1.8566015,-427.41476,-1310.5791)">
        <text
           id="text5322"
           y="630.55304"
           x="593.086"
           style="font-style:normal;font-weight:normal;line-height:0%;font-family:sans-serif;text-align:center;letter-spacing:5.92633581px;word-spacing:0px;text-anchor:middle;fill:#666666;fill-opacity:1;stroke:none;stroke-width:1px;stroke-linecap:butt;stroke-linejoin:miter;stroke-opacity:1"
           xml:space="preserve"><tspan
             style="font-style:normal;font-variant:normal;font-weight:normal;font-stretch:normal;font-size:15.24786377px;line-height:1.25;font-family:Quick;-inkscape-font-specification:Quick;letter-spacing:3.46463752px;fill:#666666"
             y="630.55304"
             x="594.8183"
             id="tspan5324"
             sodipodi:role="line">ACADEMY</tspan></text>
        <text
           id="text5326"
           y="614.97467"
           x="593.09253"
           style="font-style:normal;font-weight:normal;line-height:0%;font-family:sans-serif;text-align:center;letter-spacing:16.53832054px;word-spacing:0px;text-anchor:middle;fill:url(#linearGradient5283);fill-opacity:1;stroke:none;stroke-width:1px;stroke-linecap:butt;stroke-linejoin:miter;stroke-opacity:1"
           xml:space="preserve"><tspan
             style="font-style:normal;font-variant:normal;font-weight:normal;font-stretch:condensed;font-size:42.55142593px;line-height:1.25;font-family:'Agency FB';-inkscape-font-specification:'Agency FB Condensed';letter-spacing:0px;fill:url(#linearGradient5283);fill-opacity:1"
             y="614.97467"
             x="593.09253"
             id="tspan5328"
             sodipodi:role="line">PYTHON</tspan></text>
      </g>
    </clipPath>
    <linearGradient
       inkscape:collect="always"
       xlink:href="#linearGradient5577"
       id="linearGradient6260"
       gradientUnits="userSpaceOnUse"
       x1="351.44116"
       y1="225.40973"
       x2="251.37758"
       y2="283.18146"
       gradientTransform="matrix(0.23204343,0,0,0.23204343,-10.40087,-2.7013477)" />
    <linearGradient
       inkscape:collect="always"
       xlink:href="#linearGradient5567"
       id="linearGradient6262"
       gradientUnits="userSpaceOnUse"
       x1="246.39902"
       y1="246.88998"
       x2="368.66995"
       y2="199.44798"
       gradientTransform="matrix(0.23204343,0,0,0.23204343,-10.40087,-2.7013477)" />
    <linearGradient
       inkscape:collect="always"
       xlink:href="#linearGradient4793"
       id="linearGradient6264"
       gradientUnits="userSpaceOnUse"
       gradientTransform="matrix(0.55773463,0,0,0.55773463,-223.11987,-286.76787)"
       x1="604.25"
       y1="614.11218"
       x2="604.25"
       y2="582.45856" />
  </defs>
  <sodipodi:namedview
     id="base"
     pagecolor="#ffffff"
     bordercolor="#666666"
     borderopacity="1.0"
     inkscape:pageopacity="0.0"
     inkscape:pageshadow="2"
     inkscape:zoom="7.9195959"
     inkscape:cx="19.932499"
     inkscape:cy="53.040482"
     inkscape:document-units="mm"
     inkscape:current-layer="layer1"
     showgrid="false"
     fit-margin-top="0"
     fit-margin-left="0"
     fit-margin-right="0"
     fit-margin-bottom="0"
     inkscape:window-width="2560"
     inkscape:window-height="1017"
     inkscape:window-x="-8"
     inkscape:window-y="-8"
     inkscape:window-maximized="1"
     inkscape:snap-global="false" />
  <metadata
     id="metadata5003">
    <rdf:RDF>
      <cc:Work
         rdf:about="">
        <dc:format>image/svg+xml</dc:format>
        <dc:type
           rdf:resource="http://purl.org/dc/dcmitype/StillImage" />
        <dc:title></dc:title>
      </cc:Work>
    </rdf:RDF>
  </metadata>
  <g
     inkscape:label="Camada 1"
     inkscape:groupmode="layer"
     id="layer1"
     transform="translate(-40.854203,-33.438739)">
    <path
       style="fill:url(#linearGradient6260);fill-opacity:1;fill-rule:evenodd;stroke:#1a1a1a;stroke-width:0.55699998;stroke-linecap:butt;stroke-linejoin:miter;stroke-miterlimit:4;stroke-dasharray:none;stroke-opacity:1"
       d="m 41.132655,51.330585 17.136412,9.42224 8.10298,-4.35628 V 45.746406 l 7.341617,4.099811 V 60.735316 L 58.139608,69.726999 41.132655,59.90803 Z"
       id="path4743"
       inkscape:connector-curvature="0"
       sodipodi:nodetypes="ccccccccc" />
    <path
       style="fill:#000000;fill-opacity:0.19607843;fill-rule:evenodd;stroke:none;stroke-width:0.55690426;stroke-linecap:butt;stroke-linejoin:miter;stroke-miterlimit:4;stroke-dasharray:none;stroke-opacity:1"
       d="m 73.713664,50.834643 -7.341617,-4.099804 v 1.819592 l 7.341617,4.110949 z"
       id="path4745"
       inkscape:connector-curvature="0"
       sodipodi:nodetypes="ccccc" />
    <path
       style="fill:url(#linearGradient6262);fill-opacity:1;fill-rule:evenodd;stroke:#1a1a1a;stroke-width:0.55699998;stroke-linecap:butt;stroke-linejoin:miter;stroke-miterlimit:4;stroke-dasharray:none;stroke-opacity:1"
       d="m 75.14657,51.897854 -17.006962,-9.760303 -8.232439,4.753001 0.192596,9.362457 -7.534204,-4.132724 v -9.368334 l 15.574047,-8.991683 17.006962,9.818978 z"
       id="path4747"
       inkscape:connector-curvature="0"
       sodipodi:nodetypes="ccccccccc" />
    <path
       sodipodi:nodetypes="ccccc"
       inkscape:connector-curvature="0"
       id="path4749"
       d="m 50.080466,54.677013 -7.514905,-4.338741 v 1.819598 l 7.534204,4.34988 z"
       style="fill:#000000;fill-opacity:0.09803922;fill-rule:evenodd;stroke:none;stroke-width:0.55690426;stroke-linecap:butt;stroke-linejoin:miter;stroke-miterlimit:4;stroke-dasharray:none;stroke-opacity:1" />
    <g
       aria-label="ACADEMY"
       style="font-style:normal;font-weight:normal;font-size:6.99231195px;line-height:0%;font-family:sans-serif;text-align:center;letter-spacing:3.45323253px;word-spacing:0px;text-anchor:middle;fill:#666666;fill-opacity:1;stroke:none;stroke-width:0.58269268px;stroke-linecap:butt;stroke-linejoin:miter;stroke-opacity:1"
       id="text4755">
      <path
         d="m 85.623852,65.280678 h -0.915379 l -0.63339,-1.800391 h -2.793859 l -0.633391,1.800391 h -0.871996 l 2.351353,-6.459714 h 1.145309 z m -1.813405,-2.5379 -1.132294,-3.17129 -1.136632,3.17129 z"
         style="font-style:normal;font-variant:normal;font-weight:normal;font-stretch:normal;font-size:8.88481808px;line-height:1.25;font-family:Quick;-inkscape-font-specification:Quick;letter-spacing:2.01881886px;fill:#666666;stroke-width:0.58269268px"
         id="path6541"
         inkscape:connector-curvature="0" />
      <path
         d="m 93.612158,64.812142 q -0.238606,0.104119 -0.433829,0.195224 -0.190885,0.0911 -0.503242,0.190884 -0.264636,0.08243 -0.576993,0.138826 -0.308018,0.06074 -0.681111,0.06074 -0.702803,0 -1.279796,-0.195223 -0.572654,-0.199562 -0.997807,-0.620376 -0.416475,-0.412137 -0.650743,-1.045528 -0.234268,-0.637728 -0.234268,-1.479357 0,-0.798245 0.225591,-1.427297 0.225591,-0.629052 0.650744,-1.062881 0.412137,-0.420814 0.993468,-0.642067 0.585669,-0.221253 1.297149,-0.221253 0.520595,0 1.036851,0.12581 0.520595,0.125811 1.153986,0.442506 v 1.019498 h -0.06507 q -0.53361,-0.446844 -1.058543,-0.650743 -0.524933,-0.2039 -1.123617,-0.2039 -0.490227,0 -0.885011,0.160517 -0.390446,0.156178 -0.698465,0.490227 -0.299342,0.325371 -0.468535,0.824275 -0.164855,0.494565 -0.164855,1.145308 0,0.681112 0.182208,1.171339 0.186547,0.490226 0.477212,0.798245 0.30368,0.321033 0.707141,0.477212 0.4078,0.15184 0.858982,0.15184 0.620375,0 1.162662,-0.212576 0.542286,-0.212576 1.015159,-0.637729 h 0.06074 z"
         style="font-style:normal;font-variant:normal;font-weight:normal;font-stretch:normal;font-size:8.88481808px;line-height:1.25;font-family:Quick;-inkscape-font-specification:Quick;letter-spacing:2.01881886px;fill:#666666;stroke-width:0.58269268px"
         id="path6543"
         inkscape:connector-curvature="0" />
      <path
         d="m 101.94753,65.280678 h -0.91538 l -0.63339,-1.800391 h -2.793861 l -0.63339,1.800391 h -0.871997 l 2.351353,-6.459714 h 1.145309 z m -1.81341,-2.5379 -1.132292,-3.17129 -1.136632,3.17129 z"
         style="font-style:normal;font-variant:normal;font-weight:normal;font-stretch:normal;font-size:8.88481808px;line-height:1.25;font-family:Quick;-inkscape-font-specification:Quick;letter-spacing:2.01881886px;fill:#666666;stroke-width:0.58269268px"
         id="path6545"
         inkscape:connector-curvature="0" />
      <path
         d="m 110.40437,62.057328 q 0,0.880673 -0.38611,1.596491 -0.38177,0.715818 -1.0195,1.110602 -0.4425,0.273313 -0.98913,0.394785 -0.54228,0.121472 -1.43163,0.121472 h -1.6312 v -6.459714 h 1.61384 q 0.94575,0 1.50105,0.138825 0.55964,0.134487 0.94575,0.373093 0.65942,0.412138 1.02817,1.097587 0.36876,0.68545 0.36876,1.626859 z m -0.89803,-0.01301 q 0,-0.7592 -0.26463,-1.279795 -0.26464,-0.520595 -0.78957,-0.819937 -0.38177,-0.216915 -0.81126,-0.299342 -0.42949,-0.08677 -1.02818,-0.08677 h -0.80692 v 4.984695 h 0.80692 q 0.62038,0 1.08024,-0.0911 0.46419,-0.0911 0.8503,-0.338386 0.48155,-0.308019 0.72016,-0.81126 0.24294,-0.503242 0.24294,-1.258105 z"
         style="font-style:normal;font-variant:normal;font-weight:normal;font-stretch:normal;font-size:8.88481808px;line-height:1.25;font-family:Quick;-inkscape-font-specification:Quick;letter-spacing:2.01881886px;fill:#666666;stroke-width:0.58269268px"
         id="path6547"
         inkscape:connector-curvature="0" />
      <path
         d="m 118.07598,65.280678 h -4.25586 v -6.459714 h 4.25586 v 0.763539 h -3.39688 v 1.770022 h 3.39688 v 0.763539 h -3.39688 v 2.399075 h 3.39688 z"
         style="font-style:normal;font-variant:normal;font-weight:normal;font-stretch:normal;font-size:8.88481808px;line-height:1.25;font-family:Quick;-inkscape-font-specification:Quick;letter-spacing:2.01881886px;fill:#666666;stroke-width:0.58269268px"
         id="path6549"
         inkscape:connector-curvature="0" />
      <path
         d="m 127.21393,65.280678 h -0.85898 v -5.566026 l -1.79605,3.787327 h -0.51192 l -1.78304,-3.787327 v 5.566026 h -0.80258 v -6.459714 h 1.17134 l 1.7223,3.596442 1.6659,-3.596442 h 1.19303 z"
         style="font-style:normal;font-variant:normal;font-weight:normal;font-stretch:normal;font-size:8.88481808px;line-height:1.25;font-family:Quick;-inkscape-font-specification:Quick;letter-spacing:2.01881886px;fill:#666666;stroke-width:0.58269268px"
         id="path6551"
         inkscape:connector-curvature="0" />
      <path
         d="m 135.5493,58.820964 -2.27326,3.62681 v 2.832904 h -0.85898 v -2.7418 l -2.28194,-3.717914 h 0.95008 l 1.76569,2.889301 1.78303,-2.889301 z"
         style="font-style:normal;font-variant:normal;font-weight:normal;font-stretch:normal;font-size:8.88481808px;line-height:1.25;font-family:Quick;-inkscape-font-specification:Quick;letter-spacing:2.01881886px;fill:#666666;stroke-width:0.58269268px"
         id="path6553"
         inkscape:connector-curvature="0" />
    </g>
    <text
       id="text4759"
       y="56.224804"
       x="107.66836"
       style="font-style:normal;font-weight:normal;font-size:6.69281626px;line-height:0%;font-family:sans-serif;text-align:center;letter-spacing:9.22399426px;word-spacing:0px;text-anchor:middle;fill:url(#linearGradient6264);fill-opacity:1;stroke:none;stroke-width:0.55773461px;stroke-linecap:butt;stroke-linejoin:miter;stroke-opacity:1"
       xml:space="preserve"><tspan
         style="font-style:normal;font-variant:normal;font-weight:normal;font-stretch:condensed;font-size:23.7324028px;line-height:1.25;font-family:'Agency FB';-inkscape-font-specification:'Agency FB Condensed';letter-spacing:0px;fill:url(#linearGradient6264);fill-opacity:1;stroke-width:0.55773461px"
         y="56.224804"
         x="107.66836"
         id="tspan4757"
         sodipodi:role="line">PYTHON</tspan></text>
  </g>
</svg>
