<svg xmlns="http://www.w3.org/2000/svg" width="27" height="15" viewBox="0 0 27 15"><path fill="#FFF" d="M13.5 5.026c-3.512 0-5.293-1.057-7.004-2.084C4.814 1.945 3.233.997 0 .997V0c3.512 0 5.283 1.057 7.003 2.084 1.672.998 3.253 1.945 6.497 1.945 3.233 0 4.815-.947 6.496-1.945C21.706 1.057 23.487 0 26.999 0v.997c-3.243 0-4.825.948-6.496 1.945-1.721 1.027-3.491 2.084-7.003 2.084zM6.496 7.94c-.686-.41-1.363-.818-2.149-1.138C3.233 6.323 1.9 5.994 0 5.994v-.998c3.094 0 4.834.819 6.376 1.715.208.12.417.25.626.37 1.672.997 3.253 1.944 6.497 1.944 3.233 0 4.815-.947 6.496-1.944.696-.42 1.413-.848 2.248-1.197 1.204-.518 2.677-.888 4.756-.888v.999c-3.243 0-4.825.947-6.496 1.944-1.721 1.027-3.492 2.085-7.003 2.085-3.512 0-5.293-1.058-7.004-2.085zM12.981 15c-3.16-.102-4.864-1.091-6.485-2.064C4.814 11.938 3.233 10.99 0 10.99v-.997c3.512 0 5.283 1.067 7.004 2.084 1.672 1.007 3.253 1.945 6.496 1.945 3.234 0 4.816-.938 6.497-1.945 1.71-1.017 3.491-2.084 7.003-2.084v.997c-3.243 0-4.825.947-6.496 1.945-1.631.973-3.325 1.962-6.485 2.064h-1.038z" opacity=".1"/></svg>