<?xml version="1.0" encoding="UTF-8" standalone="no"?>
<svg
   xmlns:dc="http://purl.org/dc/elements/1.1/"
   xmlns:cc="http://creativecommons.org/ns#"
   xmlns:rdf="http://www.w3.org/1999/02/22-rdf-syntax-ns#"
   xmlns:svg="http://www.w3.org/2000/svg"
   xmlns="http://www.w3.org/2000/svg"
   xmlns:sodipodi="http://sodipodi.sourceforge.net/DTD/sodipodi-0.dtd"
   xmlns:inkscape="http://www.inkscape.org/namespaces/inkscape"
   width="27"
   height="15"
   viewBox="0 0 27 15"
   version="1.1"
   id="svg5693"
   sodipodi:docname="dark-bground-pattern.svg"
   inkscape:version="0.92.1 r15371">
  <metadata
     id="metadata5699">
    <rdf:RDF>
      <cc:Work
         rdf:about="">
        <dc:format>image/svg+xml</dc:format>
        <dc:type
           rdf:resource="http://purl.org/dc/dcmitype/StillImage" />
        <dc:title></dc:title>
      </cc:Work>
    </rdf:RDF>
  </metadata>
  <defs
     id="defs5697" />
  <sodipodi:namedview
     pagecolor="#ffffff"
     bordercolor="#666666"
     borderopacity="1"
     objecttolerance="10"
     gridtolerance="10"
     guidetolerance="10"
     inkscape:pageopacity="0"
     inkscape:pageshadow="2"
     inkscape:window-width="2560"
     inkscape:window-height="1017"
     id="namedview5695"
     showgrid="false"
     inkscape:zoom="9.2866691"
     inkscape:cx="26.378053"
     inkscape:cy="5.5256555"
     inkscape:window-x="-8"
     inkscape:window-y="-8"
     inkscape:window-maximized="1"
     inkscape:current-layer="svg5693" />
  <path
     fill="#FFF"
     d="M13.5 5.026c-3.512 0-5.293-1.057-7.004-2.084C4.814 1.945 3.233.997 0 .997V0c3.512 0 5.283 1.057 7.003 2.084 1.672.998 3.253 1.945 6.497 1.945 3.233 0 4.815-.947 6.496-1.945C21.706 1.057 23.487 0 26.999 0v.997c-3.243 0-4.825.948-6.496 1.945-1.721 1.027-3.491 2.084-7.003 2.084zM6.496 7.94c-.686-.41-1.363-.818-2.149-1.138C3.233 6.323 1.9 5.994 0 5.994v-.998c3.094 0 4.834.819 6.376 1.715.208.12.417.25.626.37 1.672.997 3.253 1.944 6.497 1.944 3.233 0 4.815-.947 6.496-1.944.696-.42 1.413-.848 2.248-1.197 1.204-.518 2.677-.888 4.756-.888v.999c-3.243 0-4.825.947-6.496 1.944-1.721 1.027-3.492 2.085-7.003 2.085-3.512 0-5.293-1.058-7.004-2.085zM12.981 15c-3.16-.102-4.864-1.091-6.485-2.064C4.814 11.938 3.233 10.99 0 10.99v-.997c3.512 0 5.283 1.067 7.004 2.084 1.672 1.007 3.253 1.945 6.496 1.945 3.234 0 4.816-.938 6.497-1.945 1.71-1.017 3.491-2.084 7.003-2.084v.997c-3.243 0-4.825.947-6.496 1.945-1.631.973-3.325 1.962-6.485 2.064h-1.038z"
     opacity=".1"
     id="path5691"
     style="fill:#666666" />
</svg>
