<?xml version="1.0" encoding="UTF-8" standalone="no"?>
<!-- Created with Inkscape (http://www.inkscape.org/) -->

<svg
   xmlns:dc="http://purl.org/dc/elements/1.1/"
   xmlns:cc="http://creativecommons.org/ns#"
   xmlns:rdf="http://www.w3.org/1999/02/22-rdf-syntax-ns#"
   xmlns:svg="http://www.w3.org/2000/svg"
   xmlns="http://www.w3.org/2000/svg"
   xmlns:sodipodi="http://sodipodi.sourceforge.net/DTD/sodipodi-0.dtd"
   xmlns:inkscape="http://www.inkscape.org/namespaces/inkscape"
   width="781.84033"
   height="294.60193"
   viewBox="0 0 206.86192 77.946762"
   version="1.1"
   id="svg8"
   inkscape:version="0.92.1 r15371"
   sodipodi:docname="learning.svg">
  <defs
     id="defs2" />
  <sodipodi:namedview
     id="base"
     pagecolor="#ffffff"
     bordercolor="#666666"
     borderopacity="1.0"
     inkscape:pageopacity="0.0"
     inkscape:pageshadow="2"
     inkscape:zoom="1.4142136"
     inkscape:cx="205.49623"
     inkscape:cy="153.4256"
     inkscape:document-units="mm"
     inkscape:current-layer="layer1"
     showgrid="false"
     inkscape:snap-bbox="true"
     inkscape:bbox-paths="true"
     inkscape:bbox-nodes="true"
     inkscape:snap-bbox-edge-midpoints="true"
     inkscape:snap-bbox-midpoints="true"
     inkscape:object-paths="true"
     inkscape:snap-intersection-paths="true"
     inkscape:snap-smooth-nodes="true"
     inkscape:window-width="2560"
     inkscape:window-height="1017"
     inkscape:window-x="-8"
     inkscape:window-y="-8"
     inkscape:window-maximized="1"
     units="px"
     fit-margin-top="0"
     fit-margin-left="0"
     fit-margin-right="0"
     fit-margin-bottom="0"
     inkscape:snap-global="false" />
  <metadata
     id="metadata5">
    <rdf:RDF>
      <cc:Work
         rdf:about="">
        <dc:format>image/svg+xml</dc:format>
        <dc:type
           rdf:resource="http://purl.org/dc/dcmitype/StillImage" />
        <dc:title></dc:title>
      </cc:Work>
    </rdf:RDF>
  </metadata>
  <g
     inkscape:label="Camada 1"
     inkscape:groupmode="layer"
     id="layer1"
     transform="translate(0.27872011,-218.70613)">
    <rect
       style="opacity:1;fill:none;fill-opacity:1;fill-rule:nonzero;stroke:#333333;stroke-width:1.32291663;stroke-linecap:square;stroke-linejoin:miter;stroke-miterlimit:4;stroke-dasharray:none;stroke-opacity:1"
       id="rect5233"
       width="68.669746"
       height="26.089565"
       x="0.3827382"
       y="269.90186" />
    <rect
       y="255.71762"
       x="69.302849"
       height="40.273811"
       width="68.169022"
       id="rect5235"
       style="opacity:1;fill:none;fill-opacity:1;fill-rule:nonzero;stroke:#333333;stroke-width:1.32291663;stroke-linecap:square;stroke-linejoin:miter;stroke-miterlimit:4;stroke-dasharray:none;stroke-opacity:1" />
    <rect
       style="opacity:1;fill:none;fill-opacity:1;fill-rule:nonzero;stroke:#333333;stroke-width:1.32291663;stroke-linecap:square;stroke-linejoin:miter;stroke-miterlimit:4;stroke-dasharray:none;stroke-opacity:1"
       id="rect5237"
       width="68.449867"
       height="31.613628"
       x="137.47188"
       y="264.37781"
       rx="0"
       ry="0" />
    <path
       style="fill:none;fill-opacity:1;stroke:#2c89a0;stroke-width:0.39687499;stroke-linecap:square;stroke-linejoin:miter;stroke-miterlimit:4;stroke-dasharray:none;stroke-opacity:1"
       d="m 108.018,249.41339 h -9.231831 c -0.191367,0 -0.34653,0.15698 -0.34653,0.35058 v 3.54474 c 0,0.1936 0.155163,0.35058 0.34653,0.35058 H 108.018 c 0.19138,0 0.34653,-0.15698 0.34653,-0.35058 v -3.54474 c 0,-0.1936 -0.15515,-0.35058 -0.34653,-0.35058 z"
       id="path5141"
       inkscape:connector-curvature="0" />
    <path
       style="fill:#000000;fill-opacity:0;stroke:#ffcc00;stroke-width:0.89948171;stroke-miterlimit:4;stroke-dasharray:none;stroke-opacity:1"
       d="m 110.23053,227.48888 c -0.0437,-0.15555 -0.1707,-0.27239 -0.32774,-0.30183 l -4.23098,-0.62065 -1.8907,-3.87684 c -0.10113,-0.21129 -0.35241,-0.29958 -0.56134,-0.19727 -0.0851,0.0416 -0.15374,0.11113 -0.19496,0.19727 l -1.8907,3.87684 -4.230986,0.62065 c -0.159658,0.0234 -0.292005,0.13746 -0.340326,0.29332 -0.04436,0.15118 -0.0012,0.31489 0.10922,0.42509 l 3.058756,3.01818 -0.722678,4.25092 c -0.05519,0.2281 0.08307,0.45816 0.308296,0.51397 0.103224,0.0256 0.212263,0.0119 0.305126,-0.0421 l 3.781442,-2.01494 3.7814,2.01494 c 0.0597,0.031 0.12598,0.0471 0.1933,0.0468 0.089,3.3e-4 0.17581,-0.0281 0.24788,-0.0809 0.13301,-0.0967 0.19873,-0.26238 0.16806,-0.42509 l -0.72268,-4.25096 3.05457,-3.02242 c 0.10994,-0.11113 0.15037,-0.27459 0.10501,-0.42509 z"
       id="path5137"
       inkscape:connector-curvature="0" />
    <path
       style="fill:none;fill-opacity:1;stroke:#ffcc00;stroke-width:0.42095208;stroke-miterlimit:4;stroke-dasharray:none;stroke-opacity:1"
       d="m 105.90317,230.2713 c -0.0826,0.0833 -0.1199,0.20189 -0.10004,0.31813 l 0.52165,3.09078 -2.74049,-1.446 c -0.10496,-0.0565 -0.23089,-0.0565 -0.33585,0 l -2.74047,1.446 0.50737,-3.09078 c 0.019,-0.11678 -0.0196,-0.2356 -0.10363,-0.31813 l -2.218809,-2.19066 3.069199,-0.44825 c 0.11622,-0.0176 0.21643,-0.0921 0.26797,-0.19883 l 1.37202,-2.81244 1.37202,2.81244 c 0.0515,0.10679 0.15176,0.18119 0.26797,0.19883 l 3.06918,0.44825 z"
       id="path5269"
       inkscape:connector-curvature="0" />
    <path
       style="fill:none;fill-opacity:1;stroke:#000000;stroke-width:0.76099998;stroke-miterlimit:4;stroke-dasharray:none;stroke-opacity:1"
       d="m 121.23126,221.79422 h -6.71363 v -2.35697 c -9.7e-4,-0.0918 -0.0372,-0.17965 -0.10004,-0.24581 -0.0666,-0.0669 -0.15641,-0.10447 -0.25009,-0.10481 H 92.243628 c -0.197319,0 -0.357307,0.16186 -0.357307,0.36151 v 2.35695 h -6.313454 c -0.635988,0 -1.136208,0.65071 -1.136208,1.48214 v 1.44597 c 0,7.55169 3.662296,12.26197 9.57202,12.33426 1.273143,2.2168 2.98603,4.14294 5.030758,5.65742 1.312093,0.97742 2.087693,2.5269 2.090193,4.17531 v 0.29642 h -4.962878 c -0.197308,0 -0.357297,0.16186 -0.357297,0.36149 v 7.72156 h 15.185185 v -7.72156 c 0,-0.19963 -0.16,-0.36149 -0.3573,-0.36149 h -5.35948 v -0.18075 c 0.0122,-1.66967 0.80847,-3.23396 2.14379,-4.21505 1.98836,-1.54811 3.6289,-3.50614 4.8128,-5.74418 6.34919,-0.0578 10.13297,-4.65969 10.13297,-12.33426 v -1.44599 c 0,-0.83144 -0.50022,-1.48213 -1.13621,-1.48213 z"
       id="path5133"
       inkscape:connector-curvature="0" />
    <path
       style="fill:none;fill-opacity:1;stroke:#000000;stroke-width:0.76099998;stroke-miterlimit:4;stroke-dasharray:none;stroke-opacity:1"
       d="m 114.49619,228.57949 0.0108,-3.81377 h 4.87355 c 0,5.02481 -2.53681,8.99765 -5.82396,9.28684 0.61142,-1.75887 0.92908,-3.60855 0.93969,-5.47307 z"
       id="path5131"
       inkscape:connector-curvature="0" />
    <path
       style="fill:none;fill-opacity:1;stroke:#000000;stroke-width:0.76099998;stroke-miterlimit:4;stroke-dasharray:none;stroke-opacity:1"
       d="m 91.893512,224.76572 v 3.81016 c -0.01225,1.85077 0.26127,3.69206 0.810713,5.45744 -2.940569,-0.40705 -5.259081,-4.40601 -5.273366,-9.2676 z"
       id="path5129"
       inkscape:connector-curvature="0" />
    <path
       style="fill:#ffcc00;stroke:#ffcc00;stroke-width:2.88738275;stroke-linecap:butt;stroke-linejoin:miter;stroke-miterlimit:4;stroke-dasharray:none;stroke-opacity:1"
       d="m 103.07534,266.3346 v 17.41934"
       id="path5443"
       inkscape:connector-curvature="0" />
    <rect
       style="opacity:1;fill:#e6e6e6;fill-opacity:1;fill-rule:nonzero;stroke:#333333;stroke-width:0.39687499;stroke-linecap:square;stroke-linejoin:miter;stroke-miterlimit:4;stroke-dasharray:none;stroke-opacity:1"
       id="rect6062"
       width="5.6510777"
       height="25.492874"
       x="63.101627"
       y="270.21021" />
    <rect
       y="264.66855"
       x="137.98622"
       height="31.024666"
       width="5.6313443"
       id="rect6064"
       style="opacity:1;fill:#e6e6e6;fill-opacity:1;fill-rule:nonzero;stroke:#333333;stroke-width:0.39687499;stroke-linecap:square;stroke-linejoin:miter;stroke-miterlimit:4;stroke-dasharray:none;stroke-opacity:1" />
  </g>
</svg>
