<svg xmlns="http://www.w3.org/2000/svg" xmlns:xlink="http://www.w3.org/1999/xlink" width="125.998" height="41.987" viewBox="0 0 33.337 11.109" xmlns:v="https://vecta.io/nano"><defs><linearGradient id="A" x1="163.887" y1="164.785" x2="154.694" y2="170.093" gradientUnits="userSpaceOnUse"><stop offset="0" stop-color="#2f6694"/><stop offset="1" stop-color="#224b6d"/></linearGradient><linearGradient id="B" x1="156.264" y1="166.167" x2="165.184" y2="161.017" gradientUnits="userSpaceOnUse"><stop offset="0" stop-color="#ffd027"/><stop offset="1" stop-color="#ffda55"/></linearGradient><path id="C" d="M169.699 167.857l-.779 2.112-.035.099h.105.076.053l.018-.047.204-.557h.922l.207.557.018.047h.05.079.105l-.038-.099-.776-2.112-.018-.047h-.053-.067-.053zm.102.353l.382 1.033h-.761z"/></defs><g transform="translate(-154.694 -159.88)"><g fill="#fff"><use xlink:href="#C"/><path d="M172.699 167.811q-.298 0-.551.152-.254.152-.403.411-.146.26-.146.566 0 .306.146.566.149.26.403.411.254.152.551.152.23 0 .438-.09.207-.093.359-.26l.05-.05-.05-.053-.053-.05-.053-.053-.053.055q-.123.131-.289.207-.163.073-.35.073-.365 0-.624-.265-.257-.265-.257-.642 0-.379.257-.645.26-.268.624-.268.187 0 .353.076.166.076.289.21l.053.055.053-.053.053-.053.05-.05-.047-.05q-.155-.166-.362-.26-.207-.096-.44-.096z"/><use xlink:href="#C" x="5.702"/><path d="M177.548 167.881v.038 2.077.073h.073.586q.26 0 .47-.093.21-.096.353-.263.274-.318.274-.773 0-.458-.274-.776-.143-.166-.353-.26-.21-.096-.47-.096h-.586-.073zm.219.146h.44q.414 0 .656.28.222.257.222.633 0 .373-.222.63-.242.28-.656.28h-.44zm2.667-.146v2.115.073h.073 1.205.07v-.073-.073-.073h-.07-1.059v-.627h1.059.07v-.073-.073-.073h-.07-1.059v-.977h1.059.07v-.073-.073-.073h-.07-1.205-.073zm4.49-.059h-.123l-.846 1.905-.849-1.905h-.195v2.246h.219v-1.657l.738 1.657h.172l.738-1.657v1.657h.219v-2.246zm1.267.111l.779 1.333v.729.073h.073.073.073v-.073-.729l.779-1.333.064-.111h-.128-.085-.041l-.02.035-.68 1.164-.677-1.164-.02-.035h-.044-.082-.128zm-14.812-3.824q0 .195-.127.322-.123.123-.318.123h-1.467v2.468h-.553v-6.221h2.019q.195 0 .318.123.127.123.127.318zm-.553-.048v-2.771h-1.359v2.771zm3.928-3.224l-.755 2.516q-.143.378-.378 1.26v2.409h-.553v-2.409q-.056-.302-.171-.636-.191-.572-.207-.624l-.755-2.516q0-.004 0-.036h.56l.855 3.112.847-3.112h.556q0 .028 0 .036zm2.818.453h-.962v5.732h-.553v-5.732h-.97v-.489h2.484zm3.251 5.732h-.553v-2.989h-1.499v2.989h-.553v-6.221h.553v2.735h1.499v-2.735h.553zm3.621-.441q0 .195-.127.318-.123.123-.318.123h-1.741q-.195 0-.318-.123-.123-.123-.123-.318v-5.338q0-.195.123-.318.123-.123.318-.123h1.741q.195 0 .318.123.127.123.127.318zm-.553-.048v-5.243h-1.522v5.243zm4.111.489h-.382l-1.662-4.575v4.575h-.521v-6.221h.413l1.63 4.496v-4.496h.521z"/></g><g fill-rule="evenodd"><path d="M154.778 165.31l5.161 2.98 2.498-1.442v-3.232l2.228 1.244v3.304l-4.726 2.729-5.161-2.98z" fill="url(#A)" stroke="#000" stroke-width=".169"/><path d="M164.665 165.159l-2.228-1.244v.552l2.228 1.247z" fill-opacity=".196"/><path d="M165.1 165.482l-5.161-2.962-2.498 1.442v2.885l-2.228-1.286v-2.854l4.726-2.729 5.161 2.98z" fill="url(#B)" stroke="#000" stroke-width=".169"/><path d="M157.494 166.325l-2.28-1.317v.552l2.286 1.32z" fill-opacity=".098"/></g></g></svg>