<?xml version="1.0" encoding="UTF-8" standalone="no"?>
<!-- Generator: Adobe Illustrator 19.0.0, SVG Export Plug-In . SVG Version: 6.00 Build 0)  -->

<svg
   xmlns:dc="http://purl.org/dc/elements/1.1/"
   xmlns:cc="http://creativecommons.org/ns#"
   xmlns:rdf="http://www.w3.org/1999/02/22-rdf-syntax-ns#"
   xmlns:svg="http://www.w3.org/2000/svg"
   xmlns="http://www.w3.org/2000/svg"
   xmlns:sodipodi="http://sodipodi.sourceforge.net/DTD/sodipodi-0.dtd"
   xmlns:inkscape="http://www.inkscape.org/namespaces/inkscape"
   version="1.1"
   id="Capa_1"
   x="0px"
   y="0px"
   viewBox="0 0 372.7771 800.78046"
   xml:space="preserve"
   inkscape:version="0.91 r13725"
   sodipodi:docname="mailchimp-mailbox.svg"
   inkscape:export-filename="C:\Users\f9539184\Desktop\mailbox.png"
   inkscape:export-xdpi="53"
   inkscape:export-ydpi="53"
   width="372.7771"
   height="800.78046"><metadata
     id="metadata87"><rdf:RDF><cc:Work
         rdf:about=""><dc:format>image/svg+xml</dc:format><dc:type
           rdf:resource="http://purl.org/dc/dcmitype/StillImage" /><dc:title></dc:title></cc:Work></rdf:RDF></metadata><defs
     id="defs85"><clipPath
       clipPathUnits="userSpaceOnUse"
       id="clipPath4607"><rect
         style="opacity:1;fill:#34303d;fill-opacity:1;stroke:none;stroke-width:7;stroke-linecap:butt;stroke-linejoin:miter;stroke-miterlimit:4;stroke-dasharray:none;stroke-dashoffset:10.79999924;stroke-opacity:1"
         id="rect4609"
         width="290.07104"
         height="421.4556"
         x="110.96449"
         y="45.272198" /></clipPath><clipPath
       clipPathUnits="userSpaceOnUse"
       id="clipPath5421"><rect
         style="opacity:1;fill:#51b2c8;fill-opacity:0.37681197;stroke:none;stroke-width:7;stroke-linecap:butt;stroke-linejoin:miter;stroke-miterlimit:4;stroke-dasharray:none;stroke-dashoffset:10.79999924;stroke-opacity:1"
         id="rect5423"
         width="208.13899"
         height="447.1134"
         x="167.85252"
         y="34.080307" /></clipPath><clipPath
       clipPathUnits="userSpaceOnUse"
       id="clipPath5425"><rect
         style="opacity:1;fill:#51b2c8;fill-opacity:0.37681197;stroke:none;stroke-width:7;stroke-linecap:butt;stroke-linejoin:miter;stroke-miterlimit:4;stroke-dasharray:none;stroke-dashoffset:10.79999924;stroke-opacity:1"
         id="rect5427"
         width="208.13899"
         height="447.1134"
         x="167.85252"
         y="34.080307" /></clipPath><clipPath
       clipPathUnits="userSpaceOnUse"
       id="clipPath5429"><rect
         style="opacity:1;fill:#51b2c8;fill-opacity:0.37681197;stroke:none;stroke-width:7;stroke-linecap:butt;stroke-linejoin:miter;stroke-miterlimit:4;stroke-dasharray:none;stroke-dashoffset:10.79999924;stroke-opacity:1"
         id="rect5431"
         width="208.13899"
         height="447.1134"
         x="167.85252"
         y="34.080307" /></clipPath><clipPath
       clipPathUnits="userSpaceOnUse"
       id="clipPath5433"><rect
         style="opacity:1;fill:#51b2c8;fill-opacity:0.37681197;stroke:none;stroke-width:7;stroke-linecap:butt;stroke-linejoin:miter;stroke-miterlimit:4;stroke-dasharray:none;stroke-dashoffset:10.79999924;stroke-opacity:1"
         id="rect5435"
         width="208.13899"
         height="447.1134"
         x="167.85252"
         y="34.080307" /></clipPath><clipPath
       clipPathUnits="userSpaceOnUse"
       id="clipPath5437"><rect
         style="opacity:1;fill:#51b2c8;fill-opacity:0.37681197;stroke:none;stroke-width:7;stroke-linecap:butt;stroke-linejoin:miter;stroke-miterlimit:4;stroke-dasharray:none;stroke-dashoffset:10.79999924;stroke-opacity:1"
         id="rect5439"
         width="208.13899"
         height="447.1134"
         x="167.85252"
         y="34.080307" /></clipPath><clipPath
       clipPathUnits="userSpaceOnUse"
       id="clipPath5441"><rect
         style="opacity:1;fill:#51b2c8;fill-opacity:0.37681197;stroke:none;stroke-width:7;stroke-linecap:butt;stroke-linejoin:miter;stroke-miterlimit:4;stroke-dasharray:none;stroke-dashoffset:10.79999924;stroke-opacity:1"
         id="rect5443"
         width="208.13899"
         height="447.1134"
         x="167.85252"
         y="34.080307" /></clipPath><clipPath
       clipPathUnits="userSpaceOnUse"
       id="clipPath5445"><rect
         style="opacity:1;fill:#51b2c8;fill-opacity:0.37681197;stroke:none;stroke-width:7;stroke-linecap:butt;stroke-linejoin:miter;stroke-miterlimit:4;stroke-dasharray:none;stroke-dashoffset:10.79999924;stroke-opacity:1"
         id="rect5447"
         width="208.13899"
         height="447.1134"
         x="167.85252"
         y="34.080307" /></clipPath><clipPath
       clipPathUnits="userSpaceOnUse"
       id="clipPath5449"><rect
         style="opacity:1;fill:#51b2c8;fill-opacity:0.37681197;stroke:none;stroke-width:7;stroke-linecap:butt;stroke-linejoin:miter;stroke-miterlimit:4;stroke-dasharray:none;stroke-dashoffset:10.79999924;stroke-opacity:1"
         id="rect5451"
         width="208.13899"
         height="447.1134"
         x="167.85252"
         y="34.080307" /></clipPath><clipPath
       clipPathUnits="userSpaceOnUse"
       id="clipPath5453"><rect
         style="opacity:1;fill:#51b2c8;fill-opacity:0.37681197;stroke:none;stroke-width:7;stroke-linecap:butt;stroke-linejoin:miter;stroke-miterlimit:4;stroke-dasharray:none;stroke-dashoffset:10.79999924;stroke-opacity:1"
         id="rect5455"
         width="208.13899"
         height="447.1134"
         x="167.85252"
         y="34.080307" /></clipPath><clipPath
       clipPathUnits="userSpaceOnUse"
       id="clipPath5457"><rect
         style="opacity:1;fill:#51b2c8;fill-opacity:0.37681197;stroke:none;stroke-width:7;stroke-linecap:butt;stroke-linejoin:miter;stroke-miterlimit:4;stroke-dasharray:none;stroke-dashoffset:10.79999924;stroke-opacity:1"
         id="rect5459"
         width="208.13899"
         height="447.1134"
         x="167.85252"
         y="34.080307" /></clipPath><clipPath
       clipPathUnits="userSpaceOnUse"
       id="clipPath5461"><rect
         style="opacity:1;fill:#51b2c8;fill-opacity:0.37681197;stroke:none;stroke-width:7;stroke-linecap:butt;stroke-linejoin:miter;stroke-miterlimit:4;stroke-dasharray:none;stroke-dashoffset:10.79999924;stroke-opacity:1"
         id="rect5463"
         width="208.13899"
         height="447.1134"
         x="167.85252"
         y="34.080307" /></clipPath><clipPath
       clipPathUnits="userSpaceOnUse"
       id="clipPath5465"><rect
         style="opacity:1;fill:#51b2c8;fill-opacity:0.37681197;stroke:none;stroke-width:7;stroke-linecap:butt;stroke-linejoin:miter;stroke-miterlimit:4;stroke-dasharray:none;stroke-dashoffset:10.79999924;stroke-opacity:1"
         id="rect5467"
         width="208.13899"
         height="447.1134"
         x="167.85252"
         y="34.080307" /></clipPath><clipPath
       clipPathUnits="userSpaceOnUse"
       id="clipPath5469"><rect
         style="opacity:1;fill:#51b2c8;fill-opacity:0.37681197;stroke:none;stroke-width:7;stroke-linecap:butt;stroke-linejoin:miter;stroke-miterlimit:4;stroke-dasharray:none;stroke-dashoffset:10.79999924;stroke-opacity:1"
         id="rect5471"
         width="208.13899"
         height="447.1134"
         x="167.85252"
         y="34.080307" /></clipPath><clipPath
       clipPathUnits="userSpaceOnUse"
       id="clipPath5473"><rect
         style="opacity:1;fill:#51b2c8;fill-opacity:0.37681197;stroke:none;stroke-width:7;stroke-linecap:butt;stroke-linejoin:miter;stroke-miterlimit:4;stroke-dasharray:none;stroke-dashoffset:10.79999924;stroke-opacity:1"
         id="rect5475"
         width="208.13899"
         height="447.1134"
         x="167.85252"
         y="34.080307" /></clipPath><clipPath
       clipPathUnits="userSpaceOnUse"
       id="clipPath5477"><rect
         style="opacity:1;fill:#51b2c8;fill-opacity:0.37681197;stroke:none;stroke-width:7;stroke-linecap:butt;stroke-linejoin:miter;stroke-miterlimit:4;stroke-dasharray:none;stroke-dashoffset:10.79999924;stroke-opacity:1"
         id="rect5479"
         width="208.13899"
         height="447.1134"
         x="167.85252"
         y="34.080307" /></clipPath><clipPath
       clipPathUnits="userSpaceOnUse"
       id="clipPath5481"><rect
         style="opacity:1;fill:#51b2c8;fill-opacity:0.37681197;stroke:none;stroke-width:7;stroke-linecap:butt;stroke-linejoin:miter;stroke-miterlimit:4;stroke-dasharray:none;stroke-dashoffset:10.79999924;stroke-opacity:1"
         id="rect5483"
         width="208.13899"
         height="447.1134"
         x="167.85252"
         y="34.080307" /></clipPath><clipPath
       clipPathUnits="userSpaceOnUse"
       id="clipPath5485"><rect
         style="opacity:1;fill:#51b2c8;fill-opacity:0.37681197;stroke:none;stroke-width:7;stroke-linecap:butt;stroke-linejoin:miter;stroke-miterlimit:4;stroke-dasharray:none;stroke-dashoffset:10.79999924;stroke-opacity:1"
         id="rect5487"
         width="208.13899"
         height="447.1134"
         x="167.85252"
         y="34.080307" /></clipPath><clipPath
       clipPathUnits="userSpaceOnUse"
       id="clipPath5489"><rect
         style="opacity:1;fill:#51b2c8;fill-opacity:0.37681197;stroke:none;stroke-width:7;stroke-linecap:butt;stroke-linejoin:miter;stroke-miterlimit:4;stroke-dasharray:none;stroke-dashoffset:10.79999924;stroke-opacity:1"
         id="rect5491"
         width="208.13899"
         height="447.1134"
         x="167.85252"
         y="34.080307" /></clipPath><clipPath
       clipPathUnits="userSpaceOnUse"
       id="clipPath5493"><rect
         style="opacity:1;fill:#51b2c8;fill-opacity:0.37681197;stroke:none;stroke-width:7;stroke-linecap:butt;stroke-linejoin:miter;stroke-miterlimit:4;stroke-dasharray:none;stroke-dashoffset:10.79999924;stroke-opacity:1"
         id="rect5495"
         width="208.13899"
         height="447.1134"
         x="167.85252"
         y="34.080307" /></clipPath><clipPath
       clipPathUnits="userSpaceOnUse"
       id="clipPath5497"><rect
         style="opacity:1;fill:#51b2c8;fill-opacity:0.37681197;stroke:none;stroke-width:7;stroke-linecap:butt;stroke-linejoin:miter;stroke-miterlimit:4;stroke-dasharray:none;stroke-dashoffset:10.79999924;stroke-opacity:1"
         id="rect5499"
         width="208.13899"
         height="447.1134"
         x="167.85252"
         y="34.080307" /></clipPath><clipPath
       clipPathUnits="userSpaceOnUse"
       id="clipPath5501"><rect
         style="opacity:1;fill:#51b2c8;fill-opacity:0.37681197;stroke:none;stroke-width:7;stroke-linecap:butt;stroke-linejoin:miter;stroke-miterlimit:4;stroke-dasharray:none;stroke-dashoffset:10.79999924;stroke-opacity:1"
         id="rect5503"
         width="208.13899"
         height="447.1134"
         x="52.901115"
         y="-9.5230389" /></clipPath><clipPath
       clipPathUnits="userSpaceOnUse"
       id="clipPath5505"><rect
         style="opacity:1;fill:#51b2c8;fill-opacity:0.37681197;stroke:none;stroke-width:7;stroke-linecap:butt;stroke-linejoin:miter;stroke-miterlimit:4;stroke-dasharray:none;stroke-dashoffset:10.79999924;stroke-opacity:1"
         id="rect5507"
         width="208.13899"
         height="447.1134"
         x="167.85252"
         y="34.080307" /></clipPath><clipPath
       clipPathUnits="userSpaceOnUse"
       id="clipPath5509"><rect
         style="opacity:1;fill:#51b2c8;fill-opacity:0.37681197;stroke:none;stroke-width:7;stroke-linecap:butt;stroke-linejoin:miter;stroke-miterlimit:4;stroke-dasharray:none;stroke-dashoffset:10.79999924;stroke-opacity:1"
         id="rect5511"
         width="208.13899"
         height="447.1134"
         x="167.85252"
         y="34.080307" /></clipPath><clipPath
       clipPathUnits="userSpaceOnUse"
       id="clipPath5513"><rect
         style="opacity:1;fill:#51b2c8;fill-opacity:0.37681197;stroke:none;stroke-width:7;stroke-linecap:butt;stroke-linejoin:miter;stroke-miterlimit:4;stroke-dasharray:none;stroke-dashoffset:10.79999924;stroke-opacity:1"
         id="rect5515"
         width="208.13899"
         height="447.1134"
         x="167.85252"
         y="34.080307" /></clipPath><clipPath
       clipPathUnits="userSpaceOnUse"
       id="clipPath5517"><rect
         style="opacity:1;fill:#51b2c8;fill-opacity:0.37681197;stroke:none;stroke-width:7;stroke-linecap:butt;stroke-linejoin:miter;stroke-miterlimit:4;stroke-dasharray:none;stroke-dashoffset:10.79999924;stroke-opacity:1"
         id="rect5519"
         width="208.13899"
         height="447.1134"
         x="293.83075"
         y="59.304306" /></clipPath><clipPath
       clipPathUnits="userSpaceOnUse"
       id="clipPath5521"><rect
         style="opacity:1;fill:#51b2c8;fill-opacity:0.37681197;stroke:none;stroke-width:7;stroke-linecap:butt;stroke-linejoin:miter;stroke-miterlimit:4;stroke-dasharray:none;stroke-dashoffset:10.79999924;stroke-opacity:1"
         id="rect5523"
         width="208.13899"
         height="447.1134"
         x="146.9881"
         y="8.7669611" /></clipPath><clipPath
       clipPathUnits="userSpaceOnUse"
       id="clipPath5525"><rect
         style="opacity:1;fill:#51b2c8;fill-opacity:0.37681197;stroke:none;stroke-width:7;stroke-linecap:butt;stroke-linejoin:miter;stroke-miterlimit:4;stroke-dasharray:none;stroke-dashoffset:10.79999924;stroke-opacity:1"
         id="rect5527"
         width="208.13899"
         height="447.1134"
         x="167.85252"
         y="34.080307" /></clipPath><clipPath
       clipPathUnits="userSpaceOnUse"
       id="clipPath5529"><rect
         style="opacity:1;fill:#51b2c8;fill-opacity:0.37681197;stroke:none;stroke-width:7;stroke-linecap:butt;stroke-linejoin:miter;stroke-miterlimit:4;stroke-dasharray:none;stroke-dashoffset:10.79999924;stroke-opacity:1"
         id="rect5531"
         width="208.13899"
         height="447.1134"
         x="167.85252"
         y="34.080307" /></clipPath><clipPath
       clipPathUnits="userSpaceOnUse"
       id="clipPath5533"><rect
         style="opacity:1;fill:#51b2c8;fill-opacity:0.37681197;stroke:none;stroke-width:7;stroke-linecap:butt;stroke-linejoin:miter;stroke-miterlimit:4;stroke-dasharray:none;stroke-dashoffset:10.79999924;stroke-opacity:1"
         id="rect5535"
         width="208.13899"
         height="447.1134"
         x="167.85252"
         y="34.080307" /></clipPath><clipPath
       clipPathUnits="userSpaceOnUse"
       id="clipPath5537"><rect
         style="opacity:1;fill:#51b2c8;fill-opacity:0.37681197;stroke:none;stroke-width:7;stroke-linecap:butt;stroke-linejoin:miter;stroke-miterlimit:4;stroke-dasharray:none;stroke-dashoffset:10.79999924;stroke-opacity:1"
         id="rect5539"
         width="208.13899"
         height="447.1134"
         x="167.85252"
         y="34.080307" /></clipPath><clipPath
       clipPathUnits="userSpaceOnUse"
       id="clipPath5541"><rect
         style="opacity:1;fill:#51b2c8;fill-opacity:0.37681197;stroke:none;stroke-width:7;stroke-linecap:butt;stroke-linejoin:miter;stroke-miterlimit:4;stroke-dasharray:none;stroke-dashoffset:10.79999924;stroke-opacity:1"
         id="rect5543"
         width="208.13899"
         height="447.1134"
         x="167.85252"
         y="34.080307" /></clipPath></defs><sodipodi:namedview
     pagecolor="#ffffff"
     bordercolor="#666666"
     borderopacity="1"
     objecttolerance="10"
     gridtolerance="10"
     guidetolerance="10"
     inkscape:pageopacity="0"
     inkscape:pageshadow="2"
     inkscape:window-width="1920"
     inkscape:window-height="1017"
     id="namedview83"
     showgrid="false"
     inkscape:snap-bbox="true"
     inkscape:bbox-paths="true"
     inkscape:bbox-nodes="true"
     inkscape:snap-bbox-edge-midpoints="true"
     inkscape:snap-bbox-midpoints="true"
     inkscape:object-paths="true"
     inkscape:snap-intersection-paths="true"
     inkscape:object-nodes="true"
     inkscape:snap-smooth-nodes="true"
     inkscape:zoom="0.32593203"
     inkscape:cx="-806.51084"
     inkscape:cy="29.776196"
     inkscape:window-x="-8"
     inkscape:window-y="-8"
     inkscape:window-maximized="1"
     inkscape:current-layer="Capa_1"
     inkscape:snap-nodes="false"
     fit-margin-top="0"
     fit-margin-left="0"
     fit-margin-right="0"
     fit-margin-bottom="0" /><g
     id="g53"
     transform="translate(866.6089,20.455819)" /><g
     id="g55"
     transform="translate(866.6089,20.455819)" /><g
     id="g57"
     transform="translate(866.6089,20.455819)" /><g
     id="g59"
     transform="translate(866.6089,20.455819)" /><g
     id="g61"
     transform="translate(866.6089,20.455819)" /><g
     id="g63"
     transform="translate(866.6089,20.455819)" /><g
     id="g65"
     transform="translate(866.6089,20.455819)" /><g
     id="g67"
     transform="translate(866.6089,20.455819)" /><g
     id="g69"
     transform="translate(866.6089,20.455819)" /><g
     id="g71"
     transform="translate(866.6089,20.455819)" /><g
     id="g73"
     transform="translate(866.6089,20.455819)" /><g
     id="g75"
     transform="translate(866.6089,20.455819)" /><g
     id="g77"
     transform="translate(866.6089,20.455819)" /><g
     id="g79"
     transform="translate(866.6089,20.455819)" /><g
     id="g81"
     transform="translate(866.6089,20.455819)" /><g
     id="g4288"
     transform="matrix(1.7910008,0,0,1.7910008,-300.624,-61.037857)"
     clip-path="url(#clipPath5525)"><g
       id="g4290"><g
         id="g4292"><path
           id="path4294"
           d="m 422.504,277.018 c -2.793,0 -5.054,-2.262 -5.054,-5.051 l 0,-54.398 c 0,-2.789 2.262,-5.051 5.054,-5.051 2.793,0 5.054,2.262 5.054,5.051 l 0,54.398 c 0,2.79 -2.261,5.051 -5.054,5.051 z"
           style="fill:#674447"
           inkscape:connector-curvature="0" /></g></g><g
       id="g4296"><g
         id="g4298"><path
           id="path4300"
           d="m 454.336,212.935 c 0,17.581 -14.252,31.833 -31.833,31.833 -17.581,0 -31.833,-14.252 -31.833,-31.833 0,-17.581 14.252,-71.625 31.833,-71.625 17.581,0.001 31.833,54.044 31.833,71.625 z"
           style="fill:#43ab5f"
           inkscape:connector-curvature="0" /></g></g><g
       id="g4302"><g
         id="g4304"><path
           id="path4306"
           d="m 422.503,141.31 c -4.413,0 -8.616,3.411 -12.437,8.791 l 0.001,0 c 16.091,0 29.135,49.464 29.135,65.555 0,13.997 -9.878,25.667 -23.038,28.473 2.049,0.414 4.167,0.639 6.338,0.639 17.581,0 31.833,-14.252 31.833,-31.833 0.001,-17.581 -14.252,-71.625 -31.832,-71.625 z"
           style="fill:#71be63"
           inkscape:connector-curvature="0" /></g></g></g><g
     id="g4380"
     transform="matrix(1.7910008,0,0,1.7910008,-300.624,-61.037857)"
     clip-path="url(#clipPath5473)"><circle
       id="circle4382"
       r="6.6669998"
       cy="282.70999"
       cx="407.06601"
       style="fill:#94d75b" /></g><g
     id="g4396"
     transform="matrix(1.7910008,0,0,1.7910008,-300.624,-61.037857)"
     clip-path="url(#clipPath5457)"><circle
       id="circle4398"
       r="6.6669998"
       cy="455.33301"
       cx="144"
       style="fill:#71be63" /></g><g
     id="g4400"
     transform="matrix(1.7910008,0,0,1.7910008,-300.624,-61.037857)"
     clip-path="url(#clipPath5453)"><circle
       id="circle4402"
       r="6.6669998"
       cy="399.047"
       cx="150.66701"
       style="fill:#b0eb81" /></g><g
     id="g4408"
     transform="matrix(1.7910008,0,0,1.7910008,-300.624,-61.037857)"
     clip-path="url(#clipPath5445)"><circle
       id="circle4410"
       r="6.6669998"
       cy="395.71301"
       cx="95.980003"
       style="fill:#94d75b" /></g><g
     id="g4416"
     transform="matrix(1.7910008,0,0,1.7910008,-300.624,-61.037857)"
     clip-path="url(#clipPath5437)"><circle
       id="circle4418"
       r="6.6669998"
       cy="370.26599"
       cx="443.00201"
       style="fill:#b0eb81" /></g><g
     id="g5545"
     transform="translate(866.6089,20.455819)"
     inkscape:export-filename="C:\Users\f9539184\Desktop\mailbox.png"
     inkscape:export-xdpi="67.434212"
     inkscape:export-ydpi="67.434212"><g
       clip-path="url(#clipPath5541)"
       transform="matrix(1.7910008,0,0,1.7910008,-1167.2329,-81.493676)"
       id="g4272"><circle
         style="fill:#9af4ef"
         cx="256"
         cy="256"
         r="256"
         id="circle4274" /></g><g
       clip-path="url(#clipPath5537)"
       transform="matrix(1.7910008,0,0,1.7910008,-1167.2329,-81.493676)"
       style="opacity:0.3"
       id="g4276"><path
         inkscape:connector-curvature="0"
         style="fill:#fffff4"
         d="M 407.376,49.583 C 294.06,79.836 210.577,183.148 210.577,306 c 0,80.664 36.031,152.869 92.82,201.548 C 422.126,485.311 512,381.182 512,256 512,171.264 470.804,96.177 407.376,49.583 Z"
         id="path4278" /></g><g
       clip-path="url(#clipPath5533)"
       transform="matrix(1.7910008,0,0,1.7910008,-1167.2329,-81.493676)"
       id="g4280"><path
         inkscape:connector-curvature="0"
         style="fill:#36b294"
         d="M 215,214.034 C 203.752,204.729 187.5,213 178.75,205.5 c -11.695,-10.024 -14.351,-12.646 -25.031,-15.384 -9.75,-2.5 -18.578,3.156 -27.969,-9.366 -6.75,-9 -13.117,-8.089 -21.263,-6.089 -8.146,2 -10.649,-0.214 -21.612,-9.286 -7.25,-6 -13.875,-8.125 -28.875,-7.625 -12.651,0.422 -22.601,-2.382 -31.849,-5.894 -8.893,19.938 -15.34,41.198 -18.894,63.438 36.23,3.803 47.12,2.15 61.243,6.706 15.5,5 166.167,35.5 168.834,34 2.667,-1.5 4.436,-25.304 4.436,-25.304 -15.131,-2.734 -15.337,-10.513 -22.77,-16.662 z"
         id="path4282" /></g><g
       clip-path="url(#clipPath5529)"
       transform="matrix(1.7910008,0,0,1.7910008,-1167.2329,-81.493676)"
       style="opacity:0.4"
       id="g4284"><path
         inkscape:connector-curvature="0"
         style="fill:#fffff4"
         d="m 358.667,306 c 0,56.513 39.963,103.67 93.165,114.815 C 489.354,376.277 512,318.795 512,256 c 0,-22.041 -2.789,-43.43 -8.027,-63.837 -8.98,-2.201 -18.314,-3.496 -27.973,-3.496 -64.801,0 -117.333,52.531 -117.333,117.333 z"
         id="path4286" /></g><g
       clip-path="url(#clipPath5521)"
       transform="matrix(1.7910008,0,0,1.7910008,-1129.8647,-36.157456)"
       style="opacity:0.6"
       id="g4308"><path
         inkscape:connector-curvature="0"
         style="fill:#ffffff"
         d="m 166.646,141.623 c 0,-10.575 8.573,-19.149 19.149,-19.149 1.596,0 3.122,0.252 4.604,0.62 4.997,-5.396 12.081,-8.827 20.015,-8.827 15.108,0 27.355,12.247 27.355,27.355 l -71.123,0 z"
         id="path4310" /></g><g
       clip-path="url(#clipPath5517)"
       transform="matrix(1.7910008,0,0,1.7910008,-1392.86,-126.66988)"
       style="opacity:0.6"
       id="g4316"><path
         inkscape:connector-curvature="0"
         style="fill:#ffffff"
         d="m 400,84.615 c 0,-7.583 -6.148,-13.731 -13.731,-13.731 -1.145,0 -2.239,0.181 -3.302,0.445 -3.583,-3.869 -8.663,-6.33 -14.352,-6.33 C 357.782,65 349,73.782 349,84.615 l 51,0 z"
         id="path4318" /></g><g
       clip-path="url(#clipPath5513)"
       transform="matrix(1.7910008,0,0,1.7910008,-1167.2329,-81.493676)"
       id="g4320"><path
         inkscape:connector-curvature="0"
         style="fill:#00a07d"
         d="m 263.878,248 c -6.73,0 -7.852,-6.655 -8.512,-8 -7.366,-15 -16.283,-8 -30.913,-8 -11.438,0 -13.776,-16.667 -20.16,-16 -6.384,0.667 -16.669,11.333 -25.536,8 -12.724,-4.784 -13.123,-12 -25.537,-16 -10.954,-3.53 -20.216,-1 -25.537,-8 -10.359,-13.63 -17.822,1.25 -34.049,-8 -16.503,-9.408 -21.635,8 -34.048,8 -13.041,0 -8.513,-16 -25.537,-16 -9.644,0 -15.328,11.76 -27.526,15.085 C 2.303,217.397 0,236.428 0,256 c 0,10.092 0.658,20.027 1.81,29.813 3.915,3.633 8.148,6.828 12.393,8.651 C 29.422,301 349,306.615 349,306.615 L 349,280 c -23.409,0 -23.409,-16 -42.561,-16 -25.803,0 -23.409,-16 -42.561,-16 z"
         id="path4322" /></g><g
       clip-path="url(#clipPath5509)"
       transform="matrix(1.7910008,0,0,1.7910008,-1167.2329,-81.493676)"
       id="g4324"><path
         inkscape:connector-curvature="0"
         style="fill:#94d75b"
         d="m 107,433.548 237,-126.934 -6,-12.948 c -57.385,0 -156.966,-58.334 -338,-37.667 0,63.767 23.368,122.04 61.938,166.856 24.226,5.787 45.062,10.693 45.062,10.693 z"
         id="path4326" /></g><g
       clip-path="url(#clipPath5505)"
       transform="matrix(1.7910008,0,0,1.7910008,-1167.2329,-81.493676)"
       id="g4328"><path
         inkscape:connector-curvature="0"
         style="fill:#b0eb81"
         d="m 338,293.667 c -52.623,0 -140.781,-49.009 -294.643,-41.213 136.795,0.118 220.685,61.353 263.643,61.353 l 12,-4.476 19.357,-14.892 -0.357,-0.772 z"
         id="path4330" /></g><g
       clip-path="url(#clipPath5501)"
       transform="matrix(1.7910008,0,0,1.7910008,-961.35483,-3.4000513)"
       id="g4332"><path
         inkscape:connector-curvature="0"
         style="fill:#ffffff"
         d="m 180.261,119.675 c -2.303,0 -4.479,0.453 -6.565,1.111 -6.607,-9.498 -17.568,-15.743 -30.014,-15.743 -12.446,0 -23.407,6.245 -30.014,15.743 -2.086,-0.658 -4.262,-1.111 -6.565,-1.111 -12.121,0 -21.948,9.826 -21.948,21.948 l 117.054,0 c -0.001,-12.121 -9.827,-21.948 -21.948,-21.948 z"
         id="path4334" /></g><g
       clip-path="url(#clipPath5497)"
       transform="matrix(1.7910008,0,0,1.7910008,-1167.2329,-81.493676)"
       id="g4336"><path
         inkscape:connector-curvature="0"
         style="fill:#ffffff"
         d="m 352,99.333 c -2.518,0 -4.898,0.496 -7.179,1.215 C 337.596,90.162 325.611,83.333 312,83.333 c -13.611,0 -25.596,6.829 -32.821,17.215 -2.281,-0.719 -4.661,-1.215 -7.179,-1.215 -13.255,0 -24,10.745 -24,24 l 128,0 c 0,-13.255 -10.745,-24 -24,-24 z"
         id="path4338" /></g><g
       clip-path="url(#clipPath5493)"
       transform="matrix(1.7910008,0,0,1.7910008,-1167.2329,-81.493676)"
       id="g4344"><path
         inkscape:connector-curvature="0"
         style="fill:#71be63"
         d="M 22.667,361.284 C 62.823,450.136 152.158,512 256,512 c 141.385,0 256,-114.615 256,-256 0,-2.672 -0.12,-5.314 -0.201,-7.966 C 353.492,248.76 281.706,360 22.667,360 l 0,1.284 z"
         id="path4346" /></g><g
       clip-path="url(#clipPath5489)"
       transform="matrix(1.7910008,0,0,1.7910008,-1167.2329,-81.493676)"
       id="g4348"><g
         id="g4350"><g
           id="g4352"><path
             inkscape:connector-curvature="0"
             style="fill:#674447"
             d="m 349.002,309.33 c -3.169,0 -5.736,-2.566 -5.736,-5.731 l 0,-61.73 c 0,-3.165 2.566,-5.731 5.736,-5.731 3.17,0 5.735,2.566 5.735,5.731 l 0,61.73 c 0,3.165 -2.566,5.731 -5.735,5.731 z"
             id="path4354" /></g></g><g
         id="g4356"><g
           id="g4358"><path
             inkscape:connector-curvature="0"
             style="fill:#43ab5f"
             d="m 385.123,236.611 c 0,19.95 -16.173,36.123 -36.123,36.123 -19.95,0 -36.123,-16.173 -36.123,-36.123 0,-19.95 16.173,-81.278 36.123,-81.278 19.95,0 36.123,61.327 36.123,81.278 z"
             id="path4360" /></g></g><g
         id="g4362"><g
           id="g4364"><path
             inkscape:connector-curvature="0"
             style="fill:#71be63"
             d="m 349,155.333 c -5.008,0 -9.777,3.871 -14.113,9.976 l 10e-4,0 c 18.26,0 33.062,56.13 33.062,74.39 0,15.883 -11.209,29.126 -26.143,32.311 2.325,0.47 4.729,0.725 7.192,0.725 19.95,0 36.124,-16.173 36.124,-36.123 C 385.124,216.66 368.95,155.333 349,155.333 Z"
             id="path4366" /></g></g></g><g
       clip-path="url(#clipPath5485)"
       transform="matrix(1.7910008,0,0,1.7910008,-1167.2329,-81.493676)"
       id="g4368"><path
         inkscape:connector-curvature="0"
         style="fill:#43ab5f"
         d="M 511.394,272.76 C 398.881,273.312 237.582,428.989 80.136,441.742 125.996,485.213 187.815,512 256,512 391.748,512 502.753,406.324 511.394,272.76 Z"
         id="path4370" /></g><g
       clip-path="url(#clipPath5481)"
       transform="matrix(1.7910008,0,0,1.7910008,-1167.2329,-81.493676)"
       id="g4372"><circle
         style="fill:#b0eb81"
         cx="195.541"
         cy="448.66699"
         r="6.6669998"
         id="circle4374" /></g><g
       clip-path="url(#clipPath5477)"
       transform="matrix(1.7910008,0,0,1.7910008,-1167.2329,-81.493676)"
       id="g4376"><circle
         style="fill:#94d75b"
         cx="226.66701"
         cy="370.26599"
         r="6.6669998"
         id="circle4378" /></g><g
       clip-path="url(#clipPath5469)"
       transform="matrix(1.7910008,0,0,1.7910008,-1167.2329,-81.493676)"
       id="g4384"><circle
         style="fill:#71be63"
         cx="295.76501"
         cy="459.33301"
         r="6.6669998"
         id="circle4386" /></g><g
       clip-path="url(#clipPath5465)"
       transform="matrix(1.7910008,0,0,1.7910008,-1167.2329,-81.493676)"
       id="g4388"><circle
         style="fill:#b0eb81"
         cx="331.69101"
         cy="418"
         r="6.6669998"
         id="circle4390" /></g><g
       clip-path="url(#clipPath5461)"
       transform="matrix(1.7910008,0,0,1.7910008,-1167.2329,-81.493676)"
       id="g4392"><circle
         style="fill:#71be63"
         cx="256"
         cy="427.48199"
         r="6.6669998"
         id="circle4394" /></g><g
       clip-path="url(#clipPath5449)"
       transform="matrix(1.7910008,0,0,1.7910008,-1167.2329,-81.493676)"
       id="g4404"><circle
         style="fill:#b0eb81"
         cx="262.66699"
         cy="345.33301"
         r="6.6669998"
         id="circle4406" /></g><g
       clip-path="url(#clipPath5441)"
       transform="matrix(1.7910008,0,0,1.7910008,-1167.2329,-81.493676)"
       id="g4412"><circle
         style="fill:#b0eb81"
         cx="378.457"
         cy="389.047"
         r="6.6669998"
         id="circle4414" /></g><g
       clip-path="url(#clipPath5433)"
       transform="matrix(1.7910008,0,0,1.7910008,-1167.2329,-81.493676)"
       id="g4420"><circle
         style="fill:#71be63"
         cx="319.543"
         cy="382.38"
         r="6.6669998"
         id="circle4422" /></g><g
       clip-path="url(#clipPath5429)"
       transform="matrix(1.7910008,0,0,1.7910008,-1167.2329,-81.493676)"
       id="g4424"><circle
         style="fill:#71be63"
         cx="378.457"
         cy="433.548"
         r="6.6669998"
         id="circle4426" /></g></g><g
     id="g4428"
     transform="matrix(1.7910008,0,0,1.7910008,-300.624,-61.037857)"
     clip-path="url(#clipPath5425)"><circle
       id="circle4430"
       r="6.6669998"
       cy="352"
       cx="398.66699"
       style="fill:#71be63" /></g><g
     id="g4432"
     transform="matrix(1.7910008,0,0,1.7910008,-300.624,-61.037857)"
     clip-path="url(#clipPath5421)"><circle
       id="circle4434"
       r="6.6669998"
       cy="313.28101"
       cx="443.00201"
       style="fill:#71be63" /></g><g
     id="g4436"
     transform="matrix(1.7910008,0,0,1.7910008,-300.624,-61.037857)" /><g
     id="g4438"
     transform="matrix(1.7910008,0,0,1.7910008,-300.624,-61.037857)" /><g
     id="g4440"
     transform="matrix(1.7910008,0,0,1.7910008,-300.624,-61.037857)" /><g
     id="g4442"
     transform="matrix(1.7910008,0,0,1.7910008,-300.624,-61.037857)" /><g
     id="g4444"
     transform="matrix(1.7910008,0,0,1.7910008,-300.624,-61.037857)" /><g
     id="g4446"
     transform="matrix(1.7910008,0,0,1.7910008,-300.624,-61.037857)" /><g
     id="g4448"
     transform="matrix(1.7910008,0,0,1.7910008,-300.624,-61.037857)" /><g
     id="g4450"
     transform="matrix(1.7910008,0,0,1.7910008,-300.624,-61.037857)" /><g
     id="g4452"
     transform="matrix(1.7910008,0,0,1.7910008,-300.624,-61.037857)" /><g
     id="g4454"
     transform="matrix(1.7910008,0,0,1.7910008,-300.624,-61.037857)" /><g
     id="g4456"
     transform="matrix(1.7910008,0,0,1.7910008,-300.624,-61.037857)" /><g
     id="g4458"
     transform="matrix(1.7910008,0,0,1.7910008,-300.624,-61.037857)" /><g
     id="g4460"
     transform="matrix(1.7910008,0,0,1.7910008,-300.624,-61.037857)" /><g
     id="g4462"
     transform="matrix(1.7910008,0,0,1.7910008,-300.624,-61.037857)" /><g
     id="g4464"
     transform="matrix(1.7910008,0,0,1.7910008,-300.624,-61.037857)" /><g
     id="g5394"
     transform="translate(831.49713,47.667762)"
     inkscape:export-filename="C:\Users\f9539184\Desktop\mailbox.png"
     inkscape:export-xdpi="67.434212"
     inkscape:export-ydpi="67.434212"><path
       style="fill:#adadad;fill-opacity:1"
       d="m -680.7094,257.75834 c -7.67704,-7.68686 -17.74915,-11.52784 -27.81634,-11.52784 -10.0672,0 -20.13931,3.84098 -27.81634,11.52784 -7.68687,7.67704 -11.52785,17.74915 -11.52785,27.81634 l 0,132.78662 78.68837,0 0,-132.78662 c 0,-10.06719 -3.84097,-20.1393 -11.52784,-27.81634 z"
       id="path25"
       inkscape:connector-curvature="0" /><path
       inkscape:connector-curvature="0"
       id="path4576"
       d="m -742.9519,423.27932 -9.83605,0 0,-137.87371 9.83605,0 z"
       style="fill:#34303d;fill-opacity:1;fill-rule:evenodd;stroke:none;stroke-width:1px;stroke-linecap:butt;stroke-linejoin:miter;stroke-opacity:1" /><path
       inkscape:connector-curvature="0"
       id="path4572"
       d="m -690.18706,245.26416 186.26863,2.24599 9.37174,3.89017 16.26794,12.14201 3.89017,15.97323 2.47555,5.65842 0,133.63048 -196.94614,0 0,-141.0389 z"
       style="fill:#ffffff;fill-rule:evenodd;stroke:none;stroke-width:1px;stroke-linecap:butt;stroke-linejoin:miter;stroke-opacity:1" /><rect
       id="rect3"
       height="334.75143"
       width="19.672092"
       style="fill:#b3962d;fill-opacity:1"
       y="418.36127"
       x="-634.75537" /><rect
       id="rect5"
       height="334.75143"
       width="29.508139"
       style="fill:#ffd43b;fill-opacity:1"
       y="418.36127"
       x="-615.08331" /><rect
       x="-619.17615"
       y="418.36127"
       style="fill:#34303d"
       width="4.3032699"
       height="334.75143"
       id="rect9" /><rect
       x="-639.6734"
       y="418.36127"
       style="fill:#34303d"
       width="9.8360462"
       height="334.75143"
       id="rect11" /><rect
       x="-590.49316"
       y="418.36127"
       style="fill:#34303d"
       width="9.8360462"
       height="334.75143"
       id="rect13" /><path
       style="fill:#34303d"
       d="m -619.12547,374.09909 c -13.55899,0 -24.59012,-11.03112 -24.59012,-24.59011 0,-13.55899 11.03113,-24.59012 24.59012,-24.59012 13.55899,0 24.59011,11.03113 24.59011,24.59012 0,13.55899 -11.03112,24.59011 -24.59011,24.59011 z m 0,-39.34418 c -8.13441,0 -14.75407,6.61966 -14.75407,14.75407 0,8.13441 6.61966,14.75407 14.75407,14.75407 8.13441,0 14.75407,-6.61966 14.75407,-14.75407 0,-8.13441 -6.61966,-14.75407 -14.75407,-14.75407 z"
       id="path15"
       inkscape:connector-curvature="0" /><rect
       x="-621.23083"
       style="fill:#34303d"
       width="4.3032699"
       height="157.37674"
       id="rect17"
       y="172.46016" /><rect
       x="-611.39478"
       style="fill:#51b2c8;fill-opacity:1"
       width="44.262207"
       height="41.563198"
       id="rect23"
       y="172.46016" /><rect
       id="rect27"
       height="98.360458"
       width="108.1965"
       style="fill:#ffffff"
       y="300.32877"
       x="-777.37805" /><polygon
       transform="matrix(0.61475287,0,0,0.61475287,-782.29609,226.55841)"
       id="polygon29"
       points="8,120 88,200 184,200 184,120 "
       style="fill:#51b2c8;fill-opacity:1" /><path
       style="fill:#34303d"
       d="m -467.54262,423.27932 -285.24533,0 0,-9.83604 275.40929,0 0,-127.8686 c 0,-9.1967 -3.58032,-17.83767 -10.08195,-24.33438 -6.50162,-6.50654 -15.14751,-10.09178 -24.34421,-10.09178 l -44.26221,0 0,-9.83604 44.26221,0 c 11.82293,0 22.94258,4.60818 31.2983,12.96882 8.35572,8.3508 12.9639,19.46554 12.9639,31.29338 l 0,137.70464 z"
       id="path33"
       inkscape:connector-curvature="0" /><path
       inkscape:connector-curvature="0"
       id="rect35"
       d="m -654.42749,395.96971 167.21278,0 0,4.30327 -167.21278,0 z"
       style="fill:#34303d" /><path
       style="fill:#34303d"
       d="m -664.26353,418.3613 -9.83605,0 0,-132.78662 c 0,-9.20162 -3.58524,-17.84259 -10.08686,-24.33438 -6.49671,-6.50654 -15.13768,-10.09178 -24.3393,-10.09178 -9.20162,0 -17.84259,3.58524 -24.33438,10.08687 -6.50654,6.4967 -10.09178,15.13767 -10.09178,24.33929 l -9.83605,0 c 0,-11.83276 4.60819,-22.94749 12.97375,-31.2983 8.34096,-8.35572 19.45569,-12.9639 31.28846,-12.9639 11.83276,0 22.94749,4.60818 31.2983,12.97374 8.35572,8.34097 12.96391,19.4557 12.96391,31.28846 l 0,132.78662 z"
       id="path37"
       inkscape:connector-curvature="0" /><rect
       x="-708.52576"
       y="241.31248"
       style="fill:#34303d"
       width="177.04883"
       height="9.8360462"
       id="rect39" /><polygon
       transform="matrix(0.61475287,0,0,0.61475287,-782.29609,226.55841)"
       style="fill:#34303d"
       points="16,272 184,272 184,288 0,288 0,112 184,112 184,128 16,128 "
       id="polygon45" /><rect
       x="-505.53839"
       y="367.09225"
       style="fill:#34303d"
       width="4.1776314"
       height="4.1776314"
       id="rect47" /><rect
       x="-513.89368"
       y="367.09225"
       style="fill:#34303d"
       width="4.1776314"
       height="4.1776314"
       id="rect49" /><rect
       x="-522.2489"
       y="367.09225"
       style="fill:#34303d"
       width="4.1776314"
       height="4.1776314"
       id="rect51" /><path
       inkscape:connector-curvature="0"
       id="path4265"
       d="m -772.46004,305.24677 44.26221,44.26221 54.09825,0"
       style="fill:none;fill-rule:evenodd;stroke:#34303d;stroke-width:4.30326986;stroke-linecap:butt;stroke-linejoin:miter;stroke-miterlimit:4;stroke-dasharray:none;stroke-opacity:1" /><path
       inkscape:connector-curvature="0"
       id="path4267"
       d="m -772.46004,393.77119 18.83853,-18.83853"
       style="fill:none;fill-rule:evenodd;stroke:#34303d;stroke-width:4.30326986;stroke-linecap:butt;stroke-linejoin:miter;stroke-miterlimit:4;stroke-dasharray:none;stroke-opacity:1" /></g></svg>