<?xml version="1.0" encoding="UTF-8" standalone="no"?>
<!-- Created with Inkscape (http://www.inkscape.org/) -->

<svg
   xmlns:dc="http://purl.org/dc/elements/1.1/"
   xmlns:cc="http://creativecommons.org/ns#"
   xmlns:rdf="http://www.w3.org/1999/02/22-rdf-syntax-ns#"
   xmlns:svg="http://www.w3.org/2000/svg"
   xmlns="http://www.w3.org/2000/svg"
   xmlns:sodipodi="http://sodipodi.sourceforge.net/DTD/sodipodi-0.dtd"
   xmlns:inkscape="http://www.inkscape.org/namespaces/inkscape"
   width="780"
   height="280.69901"
   viewBox="0 0 780.00001 280.69901"
   id="svg8444"
   version="1.1"
   inkscape:version="0.91 r13725"
   sodipodi:docname="market.svg">
  <defs
     id="defs8446" />
  <sodipodi:namedview
     id="base"
     pagecolor="#ffffff"
     bordercolor="#666666"
     borderopacity="1.0"
     inkscape:pageopacity="0.0"
     inkscape:pageshadow="2"
     inkscape:zoom="0.98994949"
     inkscape:cx="507.94714"
     inkscape:cy="229.89305"
     inkscape:document-units="px"
     inkscape:current-layer="layer1"
     showgrid="false"
     units="px"
     inkscape:window-width="1920"
     inkscape:window-height="1017"
     inkscape:window-x="-8"
     inkscape:window-y="-8"
     inkscape:window-maximized="1"
     inkscape:snap-bbox="true"
     inkscape:bbox-paths="true"
     inkscape:bbox-nodes="true"
     inkscape:snap-bbox-edge-midpoints="true"
     inkscape:snap-bbox-midpoints="true"
     inkscape:object-paths="true"
     inkscape:snap-intersection-paths="true"
     inkscape:object-nodes="true"
     inkscape:snap-smooth-nodes="true" />
  <metadata
     id="metadata8449">
    <rdf:RDF>
      <cc:Work
         rdf:about="">
        <dc:format>image/svg+xml</dc:format>
        <dc:type
           rdf:resource="http://purl.org/dc/dcmitype/StillImage" />
        <dc:title></dc:title>
      </cc:Work>
    </rdf:RDF>
  </metadata>
  <g
     inkscape:label="Camada 1"
     inkscape:groupmode="layer"
     id="layer1"
     transform="translate(0,-771.66318)">
    <g
       id="g9168"
       transform="matrix(0.95257577,0,0,0.94994356,45.668946,142.22545)"
       style="stroke-width:5.25566912;stroke-miterlimit:4;stroke-dasharray:none">
      <path
         id="path9023"
         d="m 264.3192,851.98331 c -6.09488,5.0042 -9.62348,12.51059 -9.62348,20.466 l 0,28.42139 c 0,3.52849 2.82288,6.35144 6.35149,6.35144 3.52861,0 6.3515,-2.82295 6.3515,-6.35144 l 0,-28.42139 c 0,-4.17019 1.79637,-8.01963 5.0042,-10.65009 25.21352,-20.72252 52.60836,-34.51618 57.80505,-37.08245 2.82287,-1.34728 4.61925,-4.23432 4.61925,-7.378 l 0,-40.03364 c 0,-2.11718 -1.09066,-4.10603 -2.82289,-5.26084 -3.46445,-2.30965 -5.51746,-6.15904 -5.51746,-10.26506 l 0,-41.50928 c 0,-17.12979 13.92197,-31.05174 31.05176,-31.05174 l 8.91777,0 c 17.12979,0 31.05174,13.92195 31.05174,31.05174 l 0,41.50928 c 0,4.10602 -2.053,7.95541 -5.51744,10.26506 -1.79639,1.15481 -2.8229,3.14366 -2.8229,5.26084 l 0,39.96949 c 0,3.14368 1.79639,6.03072 4.61929,7.378 5.26083,2.56627 32.59149,16.35991 57.80501,37.08238 3.14366,2.63046 5.00421,6.47989 5.00421,10.65008 l 0,28.42139 c 0,3.52849 2.82288,6.35144 6.35148,6.35144 3.52863,0 6.3515,-2.82295 6.3515,-6.35144 l 0,-28.42139 c 0,-7.9554 -3.52861,-15.39757 -9.62349,-20.46594 -23.48128,-19.31111 -48.75897,-32.84813 -57.80503,-37.46739 l 0,-34.13128 c 5.26083,-4.74759 8.34037,-11.48403 8.34037,-18.66955 l 0,-41.50928 c 0,-24.12284 -19.63191,-43.75474 -43.75476,-43.75474 l -8.91776,0 c -24.12285,0 -43.75475,19.6319 -43.75475,43.75474 l 0,41.50928 c 0,7.18552 3.07952,13.92196 8.34035,18.66955 l 0,34.13128 c -9.04606,4.61926 -34.25958,18.22043 -57.80501,37.53156 z"
         style="fill:none;stroke:#00aad4;stroke-width:5.25566912;stroke-miterlimit:4;stroke-dasharray:none"
         inkscape:connector-curvature="0" />
      <path
         id="path9027"
         d="m 375.66285,822.40715 c -3.52861,0 -6.3515,2.82287 -6.3515,6.3515 0,4.10602 -3.33613,7.37799 -7.378,7.37799 -1.53975,0 -2.95121,-0.4491 -4.10602,-1.28312 -0.25662,-0.25664 -0.57741,-0.51326 -0.8982,-0.70574 -1.47558,-1.34728 -2.37378,-3.27198 -2.37378,-5.4533 0,-3.52861 -2.82289,-6.35148 -6.35149,-6.35148 -3.52861,0 -6.3515,2.82287 -6.3515,6.35148 0,5.13253 1.92468,9.7518 5.06836,13.34456 l -4.29849,94.69499 c -0.0641,1.92475 0.70574,3.72123 2.11717,5.00423 l 13.40871,12.0615 c 1.21897,1.0905 2.75872,1.668 4.23433,1.668 1.53978,0 3.01536,-0.5132 4.23435,-1.6039 l 13.21621,-11.8689 c 1.41144,-1.2832 2.18134,-3.07969 2.11718,-5.0042 l -4.10601,-95.84991 c 2.69457,-3.40029 4.29848,-7.69878 4.29848,-12.31805 -0.12826,-3.52861 -3.01535,-6.41565 -6.4798,-6.41565 z m -13.34455,118.24041 -6.92893,-6.22322 3.84941,-85.64886 c 0.83403,0.12826 1.73222,0.19247 2.56626,0.19247 1.15482,0 2.30963,-0.12826 3.46446,-0.32077 l 3.72106,85.96963 -6.67226,6.03075 z"
         style="fill:none;stroke:#ffcc00;stroke-width:5.25566912;stroke-miterlimit:4;stroke-dasharray:none"
         inkscape:connector-curvature="0" />
    </g>
    <path
       inkscape:connector-curvature="0"
       style="fill:none;stroke:#4d4d4d;stroke-width:2.99732447;stroke-miterlimit:4;stroke-dasharray:none"
       d="m 219.23883,823.55852 -7.01535,0 c -19.61813,0 -35.63546,15.91116 -35.63546,35.53701 l 0,32.62721 c 0,5.81964 2.42122,11.26782 6.58076,15.16822 l 0,25.63122 c -7.63616,3.90042 -27.06807,14.42531 -45.13414,29.22206 -5.09078,4.14806 -8.00868,10.33918 -8.00868,16.96367 l 0,22.34999 c 0,3.4051 2.73166,6.1291 6.1462,6.1291 3.41456,0 6.14619,-2.724 6.14619,-6.1291 l 0,-22.34999 c 0,-2.90983 1.30373,-5.63391 3.53871,-7.49124 19.80439,-16.22074 41.22294,-26.99329 45.38246,-29.03634 2.6075,-1.23823 4.28371,-3.96232 4.28371,-6.81023 l 0,-31.45089 c 0,-2.04305 -1.0554,-3.9623 -2.73163,-5.0767 -2.42122,-1.60969 -3.84912,-4.27188 -3.84912,-7.11977 l 0,-32.62721 c 0,-12.8156 10.49198,-23.2786 23.3431,-23.2786 l 7.01534,0 c 12.85111,0 23.34311,10.463 23.34311,23.2786 l 0,32.62721 c 0,2.84789 -1.42791,5.51008 -3.84914,7.11977 -1.7383,1.1144 -2.73164,3.03365 -2.73164,5.0767 l 0,25.81696 c 0,3.40513 2.73164,6.12921 6.1462,6.12921 3.41455,0 6.14619,-2.72408 6.14619,-6.12921 l 0,-22.84521 c 4.15953,-3.9004 6.58076,-9.34858 6.58076,-15.16822 l 0,-32.62721 c -0.062,-19.62585 -16.01733,-35.53701 -35.69757,-35.53701 z"
       id="path9025" />
    <path
       id="path9114"
       d="m 561.75919,823.55852 7.01534,0 c 19.61813,0 35.63547,15.91116 35.63547,35.53701 l 0,32.62721 c 0,5.81964 -2.42121,11.26782 -6.58076,15.16822 l 0,25.63122 c 7.63618,3.90042 27.06806,14.42531 45.13413,29.22206 5.09078,4.14806 8.00868,10.33918 8.00868,16.96367 l 0,22.34999 c 0,3.4051 -2.73164,6.1291 -6.1462,6.1291 -3.41455,0 -6.14619,-2.724 -6.14619,-6.1291 l 0,-22.34999 c 0,-2.90983 -1.30373,-5.63391 -3.5387,-7.49124 -19.8044,-16.22074 -41.22292,-26.99329 -45.38247,-29.03634 -2.60749,-1.23823 -4.28369,-3.96232 -4.28369,-6.81023 l 0,-31.45089 c 0,-2.04305 1.05538,-3.9623 2.73163,-5.0767 2.4212,-1.60969 3.84913,-4.27188 3.84913,-7.11977 l 0,-32.62721 c 0,-12.8156 -10.49198,-23.2786 -23.34312,-23.2786 l -7.01533,0 c -12.85114,0 -23.3431,10.463 -23.3431,23.2786 l 0,32.62721 c 0,2.84789 1.42788,5.51008 3.84912,7.11977 1.73831,1.1144 2.73165,3.03365 2.73165,5.0767 l 0,25.81696 c 0,3.40513 -2.73165,6.12921 -6.14619,6.12921 -3.41456,0 -6.14619,-2.72408 -6.14619,-6.12921 l 0,-22.84521 c -4.15954,-3.9004 -6.58078,-9.34858 -6.58078,-15.16822 l 0,-32.62721 c 0.062,-19.62585 16.01735,-35.53701 35.69757,-35.53701 z"
       style="fill:none;stroke:#4d4d4d;stroke-width:2.99732447;stroke-miterlimit:4;stroke-dasharray:none"
       inkscape:connector-curvature="0" />
    <path
       id="path9146"
       d="m 90.711532,773.16409 -7.015352,0 c -19.618136,0 -35.635482,15.91115 -35.635482,35.53702 l 0,32.6272 c 0,5.81964 2.421217,11.26781 6.580775,15.16821 l 0,25.63123 c -7.636175,3.90041 -27.068071,14.42531 -45.1341393,29.22207 -5.0907842,4.14803 -8.0086715,10.33916 -8.0086715,16.96365 l 0,22.34994 c 0,3.40512 2.7316392,6.12921 6.1461902,6.12921 3.4145476,0 6.1461866,-2.72409 6.1461866,-6.12921 l 0,-22.34994 c 0,-2.90982 1.303737,-5.6339 3.538716,-7.49123 19.804384,-16.22076 41.222925,-26.99328 45.382464,-29.03634 2.607484,-1.23823 4.283711,-3.96233 4.283711,-6.81024 l 0,-31.45088 c 0,-2.04304 -1.055402,-3.96231 -2.731651,-5.07671 -2.421217,-1.60968 -3.849114,-4.27188 -3.849114,-7.11976 l 0,-32.6272 c 0,-12.81562 10.491971,-23.27861 23.343109,-23.27861 l 7.015329,0 c 12.851137,0 23.343107,10.46299 23.343107,23.27861 l 0,32.6272 c 0,2.84788 -1.42791,5.51008 -3.84913,7.11976 -1.73832,1.1144 -2.73164,3.03367 -2.73164,5.07671 l 0,25.81697 c 0,3.40511 2.73164,6.12919 6.14619,6.12919 3.41457,0 6.1462,-2.72408 6.1462,-6.12919 l 0,-22.84523 c 4.15953,-3.9004 6.58075,-9.34857 6.58075,-15.16821 l 0,-32.6272 c -0.062,-19.62587 -16.01732,-35.53702 -35.697548,-35.53702 z"
       style="fill:none;stroke:#4d4d4d;stroke-width:2.99732447;stroke-miterlimit:4;stroke-dasharray:none"
       inkscape:connector-curvature="0" />
    <path
       inkscape:connector-curvature="0"
       style="fill:none;stroke:#4d4d4d;stroke-width:2.99732447;stroke-miterlimit:4;stroke-dasharray:none"
       d="m 690.28647,773.16409 7.01535,0 c 19.61813,0 35.63546,15.91115 35.63546,35.53702 l 0,32.6272 c 0,5.81964 -2.4212,11.26781 -6.58076,15.16821 l 0,25.63123 c 7.63619,3.90041 27.06806,14.42531 45.13412,29.22207 5.09079,4.14803 8.0087,10.33916 8.0087,16.96365 l 0,22.34994 c 0,3.40512 -2.73165,6.12921 -6.14621,6.12921 -3.41454,0 -6.14618,-2.72409 -6.14618,-6.12921 l 0,-22.34994 c 0,-2.90982 -1.30374,-5.6339 -3.53871,-7.49123 -19.80438,-16.22076 -41.22292,-26.99328 -45.38246,-29.03634 -2.60749,-1.23823 -4.2837,-3.96233 -4.2837,-6.81024 l 0,-31.45088 c 0,-2.04304 1.05539,-3.96231 2.73164,-5.07671 2.42119,-1.60968 3.84913,-4.27188 3.84913,-7.11976 l 0,-32.6272 c 0,-12.81562 -10.49198,-23.27861 -23.34311,-23.27861 l -7.01535,0 c -12.85115,0 -23.34308,10.46299 -23.34308,23.27861 l 0,32.6272 c 0,2.84788 1.42788,5.51008 3.84911,7.11976 1.73831,1.1144 2.73164,3.03367 2.73164,5.07671 l 0,25.81697 c 0,3.40511 -2.73164,6.12919 -6.14618,6.12919 -3.41455,0 -6.1462,-2.72408 -6.1462,-6.12919 l 0,-22.84523 c -4.15953,-3.9004 -6.58077,-9.34857 -6.58077,-15.16821 l 0,-32.6272 c 0.062,-19.62587 16.01734,-35.53702 35.69756,-35.53702 z"
       id="path9148" />
  </g>
</svg>
