<?xml version="1.0" encoding="UTF-8" standalone="no"?>
<!-- Created with Inkscape (http://www.inkscape.org/) -->

<svg
   xmlns:dc="http://purl.org/dc/elements/1.1/"
   xmlns:cc="http://creativecommons.org/ns#"
   xmlns:rdf="http://www.w3.org/1999/02/22-rdf-syntax-ns#"
   xmlns:svg="http://www.w3.org/2000/svg"
   xmlns="http://www.w3.org/2000/svg"
   xmlns:sodipodi="http://sodipodi.sourceforge.net/DTD/sodipodi-0.dtd"
   xmlns:inkscape="http://www.inkscape.org/namespaces/inkscape"
   width="780"
   height="280.69901"
   viewBox="0 0 780.00001 280.69901"
   id="svg8444"
   version="1.1"
   inkscape:version="0.92.1 r15371"
   sodipodi:docname="market.svg">
  <defs
     id="defs8446" />
  <sodipodi:namedview
     id="base"
     pagecolor="#ffffff"
     bordercolor="#666666"
     borderopacity="1.0"
     inkscape:pageopacity="0.0"
     inkscape:pageshadow="2"
     inkscape:zoom="0.35"
     inkscape:cx="-1248.4136"
     inkscape:cy="63.818651"
     inkscape:document-units="px"
     inkscape:current-layer="layer1"
     showgrid="false"
     units="px"
     inkscape:window-width="2560"
     inkscape:window-height="1017"
     inkscape:window-x="-8"
     inkscape:window-y="-8"
     inkscape:window-maximized="1"
     inkscape:snap-bbox="true"
     inkscape:bbox-paths="true"
     inkscape:bbox-nodes="true"
     inkscape:snap-bbox-edge-midpoints="true"
     inkscape:snap-bbox-midpoints="true"
     inkscape:object-paths="true"
     inkscape:snap-intersection-paths="true"
     inkscape:object-nodes="true"
     inkscape:snap-smooth-nodes="true" />
  <metadata
     id="metadata8449">
    <rdf:RDF>
      <cc:Work
         rdf:about="">
        <dc:format>image/svg+xml</dc:format>
        <dc:type
           rdf:resource="http://purl.org/dc/dcmitype/StillImage" />
        <dc:title />
      </cc:Work>
    </rdf:RDF>
  </metadata>
  <g
     inkscape:label="Camada 1"
     inkscape:groupmode="layer"
     id="layer1"
     transform="translate(0,-771.66318)">
    <path
       inkscape:connector-curvature="0"
       id="path6138"
       d="m 238.14489,1009.0046 -0.93606,7.8769 c -1.90956,16.0689 14.92702,33.2892 31.62006,33.2921 l 244.58841,0.043 v -8.4655 H 270.54433 c -18.41072,0 -32.39944,-14.3362 -32.39944,-32.7469 z"
       style="fill:#e6e6e6;stroke:#666666;stroke-width:1;stroke-miterlimit:4;stroke-dasharray:none"
       sodipodi:nodetypes="cssccscc" />
    <path
       style="fill:none;stroke:#333333;stroke-width:4.87682867;stroke-miterlimit:4;stroke-dasharray:none"
       d="m 434.9741,802.58146 64.15655,64.15656 -2.51444,2.51445 h 16.80109 v -66.67101 z"
       id="polygon5892"
       inkscape:connector-curvature="0" />
    <path
       inkscape:connector-curvature="0"
       style="fill:none;stroke:#333333;stroke-width:4.87682867;stroke-miterlimit:4;stroke-dasharray:none"
       d="m 352.33062,802.58146 h -81.78629 c -18.41072,0 -33.3355,14.92479 -33.3355,33.33551 0,18.41071 14.92478,33.3355 33.3355,33.3355 h 20.14417 l -2.51444,-2.51445 z"
       id="path5894" />
    <path
       inkscape:connector-curvature="0"
       style="fill:none;stroke:#ffcc00;stroke-width:2;stroke-miterlimit:4;stroke-dasharray:none;stroke-opacity:1"
       d="m 315.99015,814.40605 c -3.05258,0.22858 -6.18136,0.38098 -9.33871,0.49526 -2.62873,0.0952 -4.68125,2.30015 -4.58601,4.9289 0.0952,2.57159 2.20492,4.59078 4.7527,4.59078 0.062,0 0.11429,0 0.1762,-0.005 3.27641,-0.11429 6.529,-0.28096 9.70064,-0.5143 2.62397,-0.19526 4.59077,-2.48113 4.39552,-5.10034 -0.19526,-2.61922 -2.4716,-4.60031 -5.10034,-4.39552 z"
       id="path5898" />
    <path
       inkscape:connector-curvature="0"
       style="fill:none;stroke:#ffcc00;stroke-width:2;stroke-miterlimit:4;stroke-dasharray:none;stroke-opacity:1"
       d="m 287.63116,815.368 c -3.3145,0.0953 -6.56709,0.21431 -9.68635,0.40956 -2.62874,0.16192 -4.62411,2.42396 -4.46218,5.04796 0.15714,2.52397 2.25253,4.46694 4.74791,4.46694 0.1,0 0.20002,-0.005 0.30003,-0.009 3.01924,-0.18573 6.15755,-0.30478 9.36252,-0.39051 2.62873,-0.0761 4.70031,-2.26205 4.63363,-4.89079 -0.0668,-2.62874 -2.34301,-4.5098 -4.89556,-4.63363 z"
       id="path5900" />
    <path
       inkscape:connector-curvature="0"
       style="fill:none;stroke:#ffcc00;stroke-width:2;stroke-miterlimit:4;stroke-dasharray:none;stroke-opacity:1"
       d="m 257.96732,818.93967 c -4.31932,1.41437 -7.62906,3.30498 -10.09589,5.77656 -1.86203,1.86203 -1.86203,4.87176 0,6.73378 0.92863,0.92863 2.14775,1.39533 3.36689,1.39533 1.21912,0 2.43825,-0.4667 3.36688,-1.39533 1.37152,-1.36676 3.49547,-2.5335 6.32899,-3.46214 2.49539,-0.8191 3.86215,-3.50498 3.04305,-6.0099 -0.81434,-2.49065 -3.48594,-3.86216 -6.00992,-3.0383 z"
       id="path5902" />
    <path
       inkscape:connector-curvature="0"
       style="fill:none;stroke:#ffcc00;stroke-width:2;stroke-miterlimit:4;stroke-dasharray:none;stroke-opacity:1"
       d="m 475.31959,816.86811 h -9.52444 c -2.6335,0 -4.7622,2.12871 -4.7622,4.76222 0,2.63349 2.1287,4.7622 4.7622,4.7622 h 9.52444 c 2.6335,0 4.76221,-2.12871 4.76221,-4.7622 0,-2.63351 -2.12871,-4.76222 -4.76221,-4.76222 z"
       id="path5904" />
    <path
       inkscape:connector-curvature="0"
       style="fill:none;stroke:#ffcc00;stroke-width:2;stroke-miterlimit:4;stroke-dasharray:none;stroke-opacity:1"
       d="m 503.89287,816.86811 h -9.52442 c -2.63351,0 -4.76223,2.12871 -4.76223,4.76222 0,2.63349 2.12872,4.7622 4.76223,4.7622 h 9.52442 c 2.63351,0 4.76222,-2.12871 4.76222,-4.7622 0,-2.63351 -2.12871,-4.76222 -4.76222,-4.76222 z"
       id="path5906" />
    <path
       id="path5910"
       d="M 501.77844,869.25247 407.69613,775.3035 c -0.25717,-0.25717 -0.67623,-0.25717 -0.93339,0 l -94.07757,93.94897 z"
       style="fill:none;stroke:#333333;stroke-width:4.87682867;stroke-miterlimit:4;stroke-dasharray:none"
       inkscape:connector-curvature="0" />
    <path
       id="path5912"
       d="m 312.81376,869.25247 80.83859,-80.8386 -13.11037,-13.11037 c -0.25716,-0.25717 -0.67623,-0.25717 -0.9334,0 l -94.07756,93.94897 z"
       style="fill:none;stroke:#333333;stroke-width:4.87682867;stroke-miterlimit:4;stroke-dasharray:none"
       inkscape:connector-curvature="0" />
    <path
       id="path5914"
       d="m 462.60923,869.25247 1.47152,-1.47153 -56.57987,-56.50367 c -0.15239,-0.1524 -0.39527,-0.1524 -0.54765,0 l -56.55131,56.50367 1.47152,1.47153 z"
       style="fill:none;stroke:#ffcc00;stroke-width:4.87682867;stroke-miterlimit:4;stroke-dasharray:none;stroke-opacity:1"
       inkscape:connector-curvature="0" />
    <path
       style="fill:none;stroke:#333333;stroke-width:4.87682867;stroke-miterlimit:4;stroke-dasharray:none"
       d="m 237.20883,835.91697 v 185.00253 c 0,16.182 13.11514,29.2971 29.29715,29.2971 H 513.4173 V 869.25247 H 270.54433 c -18.41072,0 -33.3355,-14.92479 -33.3355,-33.3355 z"
       id="path5916"
       inkscape:connector-curvature="0" />
    <path
       id="path5920"
       d="m 484.84401,893.06355 h -9.52442 c -2.63352,0 -4.76222,-2.12871 -4.76222,-4.76222 0,-2.6335 2.1287,-4.76222 4.76222,-4.76222 h 9.52442 c 2.63351,0 4.76221,2.12872 4.76221,4.76222 0,2.63351 -2.1287,4.76222 -4.76221,4.76222 z m -28.57329,0 h -9.52443 c -2.6335,0 -4.76221,-2.12871 -4.76221,-4.76222 0,-2.6335 2.12871,-4.76222 4.76221,-4.76222 h 9.52443 c 2.6335,0 4.76223,2.12872 4.76223,4.76222 0,2.63351 -2.12873,4.76222 -4.76223,4.76222 z m -28.57329,0 H 418.173 c -2.63351,0 -4.76221,-2.12871 -4.76221,-4.76222 0,-2.6335 2.1287,-4.76222 4.76221,-4.76222 h 9.52443 c 2.63351,0 4.76222,2.12872 4.76222,4.76222 0,2.63351 -2.12871,4.76222 -4.76222,4.76222 z m -28.57329,0 h -9.52443 c -2.6335,0 -4.76221,-2.12871 -4.76221,-4.76222 0,-2.6335 2.12871,-4.76222 4.76221,-4.76222 h 9.52443 c 2.6335,0 4.76222,2.12872 4.76222,4.76222 0,2.63351 -2.12872,4.76222 -4.76222,4.76222 z m -28.5733,0 h -9.52442 c -2.63351,0 -4.76221,-2.12871 -4.76221,-4.76222 0,-2.6335 2.1287,-4.76222 4.76221,-4.76222 h 9.52442 c 2.63351,0 4.76223,2.12872 4.76223,4.76222 0,2.63351 -2.12872,4.76222 -4.76223,4.76222 z m -28.57327,0 h -9.52444 c -2.6335,0 -4.76222,-2.12871 -4.76222,-4.76222 0,-2.6335 2.12872,-4.76222 4.76222,-4.76222 h 9.52444 c 2.63349,0 4.7622,2.12872 4.7622,4.76222 0,2.63351 -2.12871,4.76222 -4.7622,4.76222 z m -28.5733,0 h -9.52443 c -2.63351,0 -4.76222,-2.12871 -4.76222,-4.76222 0,-2.6335 2.12871,-4.76222 4.76222,-4.76222 h 9.52443 c 2.6335,0 4.76222,2.12872 4.76222,4.76222 0,2.63351 -2.12872,4.76222 -4.76222,4.76222 z m -28.57328,0 h -9.52445 c -2.6335,0 -4.76221,-2.12871 -4.76221,-4.76222 0,-2.6335 2.12871,-4.76222 4.76221,-4.76222 h 9.52445 c 2.63349,0 4.7622,2.12872 4.7622,4.76222 0,2.63351 -2.12871,4.76222 -4.7622,4.76222 z m -28.13994,-3.0002 c -0.66194,0 -1.33341,-0.1381 -1.97632,-0.43337 -3.30022,-1.50961 -6.36708,-3.48117 -9.11487,-5.86227 -1.98585,-1.72869 -2.20015,-4.73841 -0.48099,-6.72425 1.72868,-1.98584 4.73365,-2.20015 6.71948,-0.48099 2.06204,1.79059 4.36219,3.27165 6.83855,4.40505 2.39063,1.09054 3.44308,3.9193 2.34777,6.30993 -0.80006,1.7525 -2.52398,2.7859 -4.33362,2.7859 z"
       style="fill:none;stroke:#ffcc00;stroke-width:2;stroke-miterlimit:4;stroke-dasharray:none;stroke-opacity:1"
       inkscape:connector-curvature="0" />
    <path
       id="path5922"
       d="m 484.84401,1035.93 h -9.52442 c -2.63352,0 -4.76222,-2.1287 -4.76222,-4.7622 0,-2.6335 2.1287,-4.7622 4.76222,-4.7622 h 9.52442 c 2.63351,0 4.76221,2.1287 4.76221,4.7622 0,2.6335 -2.1287,4.7622 -4.76221,4.7622 z m -28.57329,0 h -9.52443 c -2.6335,0 -4.76221,-2.1287 -4.76221,-4.7622 0,-2.6335 2.12871,-4.7622 4.76221,-4.7622 h 9.52443 c 2.6335,0 4.76223,2.1287 4.76223,4.7622 0,2.6335 -2.12873,4.7622 -4.76223,4.7622 z m -28.57329,0 H 418.173 c -2.63351,0 -4.76221,-2.1287 -4.76221,-4.7622 0,-2.6335 2.1287,-4.7622 4.76221,-4.7622 h 9.52443 c 2.63351,0 4.76222,2.1287 4.76222,4.7622 0,2.6335 -2.12871,4.7622 -4.76222,4.7622 z m -28.57329,0 h -9.52443 c -2.6335,0 -4.76221,-2.1287 -4.76221,-4.7622 0,-2.6335 2.12871,-4.7622 4.76221,-4.7622 h 9.52443 c 2.6335,0 4.76222,2.1287 4.76222,4.7622 0,2.6335 -2.12872,4.7622 -4.76222,4.7622 z m -28.5733,0 h -9.52442 c -2.63351,0 -4.76221,-2.1287 -4.76221,-4.7622 0,-2.6335 2.1287,-4.7622 4.76221,-4.7622 h 9.52442 c 2.63351,0 4.76223,2.1287 4.76223,4.7622 0,2.6335 -2.12872,4.7622 -4.76223,4.7622 z m -28.57327,0 h -9.52444 c -2.6335,0 -4.76222,-2.1287 -4.76222,-4.7622 0,-2.6335 2.12872,-4.7622 4.76222,-4.7622 h 9.52444 c 2.63349,0 4.7622,2.1287 4.7622,4.7622 0,2.6335 -2.12871,4.7622 -4.7622,4.7622 z m -28.5733,0 h -9.52443 c -2.63351,0 -4.76222,-2.1287 -4.76222,-4.7622 0,-2.6335 2.12871,-4.7622 4.76222,-4.7622 h 9.52443 c 2.6335,0 4.76222,2.1287 4.76222,4.7622 0,2.6335 -2.12872,4.7622 -4.76222,4.7622 z m -28.57328,0 h -9.52445 c -2.6335,0 -4.76221,-2.1287 -4.76221,-4.7622 0,-2.6335 2.12871,-4.7622 4.76221,-4.7622 h 9.52445 c 2.63349,0 4.7622,2.1287 4.7622,4.7622 0,2.6335 -2.12871,4.7622 -4.7622,4.7622 z m -28.13994,-3.0002 c -0.66194,0 -1.33341,-0.138 -1.97632,-0.4334 -3.30022,-1.5096 -6.36708,-3.4811 -9.11487,-5.8622 -1.98585,-1.7287 -2.20015,-4.7384 -0.48099,-6.7242 1.72868,-1.9859 4.73365,-2.2002 6.71948,-0.4811 2.06204,1.7906 4.36219,3.2716 6.83855,4.405 2.39063,1.0906 3.44308,3.9194 2.34777,6.31 -0.80006,1.7525 -2.52398,2.7859 -4.33362,2.7859 z"
       style="fill:none;stroke:#ffcc00;stroke-width:2;stroke-miterlimit:4;stroke-dasharray:none;stroke-opacity:1"
       inkscape:connector-curvature="0" />
    <path
       style="fill:none;stroke:#00aad4;stroke-width:5;stroke-miterlimit:4;stroke-dasharray:none;stroke-opacity:1"
       d="m 475.31959,954.97237 a 14.286646,14.286646 0 0 1 -14.28665,14.28663 14.286646,14.286646 0 0 1 -14.28665,-14.28663 14.286646,14.286646 0 0 1 14.28665,-14.28666 14.286646,14.286646 0 0 1 14.28665,14.28666 z"
       id="circle5928"
       inkscape:connector-curvature="0" />
    <g
       id="g5932"
       transform="matrix(4.8824916,0,0,4.8824916,228.14286,768.62829)" />
    <g
       id="g5934"
       transform="matrix(4.8824916,0,0,4.8824916,228.14286,768.62829)" />
    <g
       id="g5936"
       transform="matrix(4.8824916,0,0,4.8824916,228.14286,768.62829)" />
    <g
       id="g5938"
       transform="matrix(4.8824916,0,0,4.8824916,228.14286,768.62829)" />
    <g
       id="g5940"
       transform="matrix(4.8824916,0,0,4.8824916,228.14286,768.62829)" />
    <g
       id="g5942"
       transform="matrix(4.8824916,0,0,4.8824916,228.14286,768.62829)" />
    <g
       id="g5944"
       transform="matrix(4.8824916,0,0,4.8824916,228.14286,768.62829)" />
    <g
       id="g5946"
       transform="matrix(4.8824916,0,0,4.8824916,228.14286,768.62829)" />
    <g
       id="g5948"
       transform="matrix(4.8824916,0,0,4.8824916,228.14286,768.62829)" />
    <g
       id="g5950"
       transform="matrix(4.8824916,0,0,4.8824916,228.14286,768.62829)" />
    <g
       id="g5952"
       transform="matrix(4.8824916,0,0,4.8824916,228.14286,768.62829)" />
    <g
       id="g5954"
       transform="matrix(4.8824916,0,0,4.8824916,228.14286,768.62829)" />
    <g
       id="g5956"
       transform="matrix(4.8824916,0,0,4.8824916,228.14286,768.62829)" />
    <g
       id="g5958"
       transform="matrix(4.8824916,0,0,4.8824916,228.14286,768.62829)" />
    <g
       id="g5960"
       transform="matrix(4.8824916,0,0,4.8824916,228.14286,768.62829)" />
    <path
       inkscape:connector-curvature="0"
       style="fill:#cccccc;stroke:#4d4d4d;stroke-width:1;stroke-miterlimit:4;stroke-dasharray:none"
       d="m 513.4173,983.54563 h -57.14658 c -15.78197,0 -28.57329,-12.7913 -28.57329,-28.57329 v 0 c 0,9.32607 12.79132,20.24053 28.57329,20.24053 h 57.14658 z"
       id="path6140"
       sodipodi:nodetypes="csccscc" />
    <path
       id="path5926"
       d="m 513.4173,983.54563 h -57.14658 c -15.78197,0 -28.57329,-12.7913 -28.57329,-28.57329 v 0 c 0,-15.78198 12.79132,-28.57329 28.57329,-28.57329 h 57.14658 z"
       style="fill:none;stroke:#333333;stroke-width:4.87682867;stroke-miterlimit:4;stroke-dasharray:none"
       inkscape:connector-curvature="0" />
  </g>
</svg>
