<?xml version="1.0" encoding="UTF-8" standalone="no"?>
<!-- Created with Inkscape (http://www.inkscape.org/) -->

<svg
   xmlns:dc="http://purl.org/dc/elements/1.1/"
   xmlns:cc="http://creativecommons.org/ns#"
   xmlns:rdf="http://www.w3.org/1999/02/22-rdf-syntax-ns#"
   xmlns:svg="http://www.w3.org/2000/svg"
   xmlns="http://www.w3.org/2000/svg"
   xmlns:sodipodi="http://sodipodi.sourceforge.net/DTD/sodipodi-0.dtd"
   xmlns:inkscape="http://www.inkscape.org/namespaces/inkscape"
   width="491.68793"
   height="495.91479"
   viewBox="0 0 491.68794 495.9148"
   id="svg6083"
   version="1.1"
   inkscape:version="0.92.1 r15371"
   sodipodi:docname="python-logo.svg">
  <defs
     id="defs6085">
    <linearGradient
       id="linearGradient4671">
      <stop
         id="stop4673"
         offset="0"
         style="stop-color:#ffd43b;stop-opacity:1;" />
      <stop
         id="stop4675"
         offset="1"
         style="stop-color:#ffe873;stop-opacity:1" />
    </linearGradient>
    <linearGradient
       id="linearGradient4689">
      <stop
         id="stop4691"
         offset="0"
         style="stop-color:#5a9fd4;stop-opacity:1;" />
      <stop
         id="stop4693"
         offset="1"
         style="stop-color:#306998;stop-opacity:1;" />
    </linearGradient>
  </defs>
  <sodipodi:namedview
     id="base"
     pagecolor="#ffffff"
     bordercolor="#666666"
     borderopacity="1.0"
     inkscape:pageopacity="0.0"
     inkscape:pageshadow="2"
     inkscape:zoom="0.7"
     inkscape:cx="-126.6403"
     inkscape:cy="378.22936"
     inkscape:document-units="px"
     inkscape:current-layer="layer1"
     showgrid="false"
     units="px"
     inkscape:window-width="2560"
     inkscape:window-height="1017"
     inkscape:window-x="-8"
     inkscape:window-y="-8"
     inkscape:window-maximized="1"
     fit-margin-top="0"
     fit-margin-left="0"
     fit-margin-right="0"
     fit-margin-bottom="0" />
  <metadata
     id="metadata6088">
    <rdf:RDF>
      <cc:Work
         rdf:about="">
        <dc:format>image/svg+xml</dc:format>
        <dc:type
           rdf:resource="http://purl.org/dc/dcmitype/StillImage" />
        <dc:title></dc:title>
      </cc:Work>
    </rdf:RDF>
  </metadata>
  <g
     inkscape:label="Camada 1"
     inkscape:groupmode="layer"
     id="layer1"
     transform="translate(-3.6891815,-548.33457)">
    <path
       inkscape:connector-curvature="0"
       style="fill:none;fill-opacity:1;stroke:#306998;stroke-width:10;stroke-miterlimit:7.69809532;stroke-dasharray:none;stroke-opacity:1"
       d="m 242.69993,553.33849 c -19.53578,0.0924 -38.1923,1.76095 -54.608,4.67086 -48.35831,8.56015 -57.13853,26.47726 -57.13853,59.51953 v 43.63855 h 114.27708 v 14.54619 H 130.9534 88.066174 c -33.211991,0 -62.293425,20.00166 -71.38978,58.05149 -10.492448,43.61397 -10.957812,70.82965 0,116.36978 8.123213,33.89833 27.522589,58.05153 60.734721,58.05153 H 116.70196 V 855.8734 c 0,-37.79315 32.63573,-71.12977 71.38997,-71.12977 h 114.14413 c 31.77344,0 57.13833,-26.21283 57.13833,-58.18499 V 617.52888 c 0,-31.03056 -26.12643,-54.3407 -57.13833,-59.51953 -19.63122,-3.27412 -40.00009,-4.76167 -59.53613,-4.67086 z m -61.80017,35.09777 c 11.80405,0 21.44355,9.81632 21.44355,21.88615 0,12.02688 -9.6395,21.75266 -21.44355,21.75266 -11.84624,0 -21.4436,-9.72578 -21.4436,-21.75266 0,-12.06983 9.59736,-21.88615 21.4436,-21.88615 z"
       id="path6068" />
    <path
       inkscape:connector-curvature="0"
       style="fill:none;fill-opacity:1;stroke:#ffd53d;stroke-width:10;stroke-miterlimit:7.69809532;stroke-dasharray:none;stroke-opacity:1"
       d="m 381.62577,681.71362 v 50.84502 c 0,39.41971 -33.35458,72.59775 -71.38971,72.59775 H 196.09193 c -31.26565,0 -57.13853,26.81192 -57.13853,58.18498 v 109.02984 c 0,31.03049 26.93039,49.28239 57.13853,58.18489 36.17371,10.6574 70.86238,12.5836 114.14413,0 28.76971,-8.3459 57.13833,-25.1426 57.13833,-58.18489 v -43.6386 H 253.23048 v -14.54619 h 114.14391 57.13855 c 33.21219,0 45.58833,-23.21168 57.13861,-58.05153 11.93081,-35.86691 11.4233,-70.35895 0,-116.36978 -8.20772,-33.12775 -23.88401,-58.05149 -57.13861,-58.05149 z m -64.19754,276.11141 c 11.84624,0 21.44361,9.72572 21.44361,21.75266 0,12.06978 -9.59737,21.88591 -21.44361,21.88591 -11.80423,0 -21.44355,-9.81613 -21.44355,-21.88591 0,-12.02694 9.63932,-21.75266 21.44355,-21.75266 z"
       id="path6070" />
  </g>
</svg>
