<?xml version="1.0" encoding="UTF-8" standalone="no"?>
<!-- Created with Inkscape (http://www.inkscape.org/) -->

<svg
   xmlns:dc="http://purl.org/dc/elements/1.1/"
   xmlns:cc="http://creativecommons.org/ns#"
   xmlns:rdf="http://www.w3.org/1999/02/22-rdf-syntax-ns#"
   xmlns:svg="http://www.w3.org/2000/svg"
   xmlns="http://www.w3.org/2000/svg"
   xmlns:sodipodi="http://sodipodi.sourceforge.net/DTD/sodipodi-0.dtd"
   xmlns:inkscape="http://www.inkscape.org/namespaces/inkscape"
   width="210mm"
   height="297mm"
   viewBox="0 0 744.09448819 1052.3622047"
   id="svg7271"
   version="1.1"
   inkscape:version="0.91 r13725"
   sodipodi:docname="sliders.svg">
  <defs
     id="defs7273" />
  <sodipodi:namedview
     id="base"
     pagecolor="#ffffff"
     bordercolor="#666666"
     borderopacity="1.0"
     inkscape:pageopacity="0.0"
     inkscape:pageshadow="2"
     inkscape:zoom="0.98994949"
     inkscape:cx="245.60053"
     inkscape:cy="874.53137"
     inkscape:document-units="px"
     inkscape:current-layer="layer1"
     showgrid="false"
     inkscape:window-width="1920"
     inkscape:window-height="1017"
     inkscape:window-x="-8"
     inkscape:window-y="-8"
     inkscape:window-maximized="1" />
  <metadata
     id="metadata7276">
    <rdf:RDF>
      <cc:Work
         rdf:about="">
        <dc:format>image/svg+xml</dc:format>
        <dc:type
           rdf:resource="http://purl.org/dc/dcmitype/StillImage" />
        <dc:title></dc:title>
      </cc:Work>
    </rdf:RDF>
  </metadata>
  <g
     inkscape:label="Camada 1"
     inkscape:groupmode="layer"
     id="layer1">
    <rect
       style="opacity:1;fill:#ffffff;fill-opacity:1;stroke:#2a4a64;stroke-width:9.25518703;stroke-linecap:butt;stroke-linejoin:miter;stroke-miterlimit:7.69809532;stroke-dasharray:none;stroke-dashoffset:10.79999924;stroke-opacity:1"
       id="rect7823"
       width="575.81812"
       height="209.13783"
       x="86.376656"
       y="209.22185"
       rx="55.405346"
       ry="29.169535" />
    <rect
       ry="36.971367"
       rx="49.882015"
       y="181.25333"
       x="115.07818"
       height="265.07489"
       width="518.4151"
       id="rect7821"
       style="opacity:1;fill:#ffffff;fill-opacity:1;stroke:#2f597c;stroke-width:9.8866539;stroke-linecap:butt;stroke-linejoin:miter;stroke-miterlimit:7.69809532;stroke-dasharray:none;stroke-dashoffset:10.79999924;stroke-opacity:1" />
    <rect
       style="opacity:1;fill:#ffffff;fill-opacity:1;stroke:#306998;stroke-width:10;stroke-linecap:butt;stroke-linejoin:miter;stroke-miterlimit:7.69809532;stroke-dasharray:none;stroke-dashoffset:10.79999924;stroke-opacity:1"
       id="rect7819"
       width="451.42856"
       height="311.42856"
       x="148.57143"
       y="158.07649"
       rx="43.436558"
       ry="43.436558" />
    <path
       inkscape:connector-curvature="0"
       style="fill:none;fill-opacity:1;stroke:#306998;stroke-width:2.74068856;stroke-miterlimit:7.69809532;stroke-dasharray:none;stroke-opacity:1"
       d="m 373.84152,238.63336 c -5.35415,0.0253 -10.46732,0.48262 -14.96635,1.28014 -13.25351,2.34607 -15.6599,7.25659 -15.6599,16.31245 l 0,11.95997 31.31979,0 0,3.98665 -31.31979,0 -11.75405,0 c -9.10237,0 -17.07269,5.48184 -19.56572,15.91011 -2.87565,11.95323 -3.00319,19.4122 0,31.89333 2.22632,9.29048 7.54309,15.91012 16.6455,15.91012 l 10.7684,0 0,-14.33737 c 0,-10.35793 8.94444,-19.49446 19.56577,-19.49446 l 31.28335,0 c 8.70811,0 15.65983,-7.18412 15.65983,-15.94669 l 0,-29.88166 c 0,-8.50451 -7.16044,-14.89309 -15.65983,-16.31245 -5.38031,-0.89733 -10.96278,-1.30503 -16.317,-1.28014 z m -16.9375,9.61921 c 3.23512,0 5.87701,2.69034 5.87701,5.99831 0,3.29619 -2.64189,5.96173 -5.87701,5.96173 -3.24669,0 -5.87703,-2.66554 -5.87703,-5.96173 0,-3.30797 2.63034,-5.99831 5.87703,-5.99831 z"
       id="path6068" />
    <path
       inkscape:connector-curvature="0"
       style="fill:none;fill-opacity:1;stroke:#ffd53d;stroke-width:2.74068856;stroke-miterlimit:7.69809532;stroke-dasharray:none;stroke-opacity:1"
       d="m 411.91676,273.81699 0,13.93503 c 0,10.80372 -9.14145,19.89679 -19.56569,19.89679 l -31.28335,0 c -8.56894,0 -15.65989,7.34831 -15.65989,15.94669 l 0,29.88168 c 0,8.50449 7.38078,13.50677 15.65989,15.94667 9.91408,2.92086 19.42117,3.44877 31.28335,0 7.88488,-2.28735 15.65983,-6.89081 15.65983,-15.94667 l 0,-11.95998 -31.28329,0 0,-3.98666 31.28329,0 15.6599,0 c 9.10243,0 12.49434,-6.3616 15.65992,-15.91012 3.26986,-9.83 3.13077,-19.28319 0,-31.89333 -2.24948,-9.07928 -6.54587,-15.9101 -15.65992,-15.9101 z m -17.59454,75.67354 c 3.24668,0 5.87702,2.66551 5.87702,5.96172 0,3.30795 -2.63034,5.99825 -5.87702,5.99825 -3.23517,0 -5.87701,-2.6903 -5.87701,-5.99825 0,-3.29621 2.64184,-5.96172 5.87701,-5.96172 z"
       id="path6070" />
  </g>
</svg>
