<?xml version="1.0" encoding="UTF-8" standalone="no"?>
<svg
   xmlns:dc="http://purl.org/dc/elements/1.1/"
   xmlns:cc="http://creativecommons.org/ns#"
   xmlns:rdf="http://www.w3.org/1999/02/22-rdf-syntax-ns#"
   xmlns:svg="http://www.w3.org/2000/svg"
   xmlns="http://www.w3.org/2000/svg"
   xmlns:xlink="http://www.w3.org/1999/xlink"
   xmlns:sodipodi="http://sodipodi.sourceforge.net/DTD/sodipodi-0.dtd"
   xmlns:inkscape="http://www.inkscape.org/namespaces/inkscape"
   width="781.84302"
   height="294.603"
   viewBox="0 0 206.86263 77.947048"
   version="1.1"
   id="svg4529"
   inkscape:version="1.0.1 (0767f8302a, 2020-10-17)"
   sodipodi:docname="worker.svg">
  <defs
     id="defs4523">
    <filter
       id="filter7670"
       inkscape:label="Blur"
       style="color-interpolation-filters:sRGB">
      <feGaussianBlur
         id="feGaussianBlur7672"
         result="blur"
         stdDeviation="2 2" />
    </filter>
    <linearGradient
       id="linearGradient7886"
       gradientUnits="userSpaceOnUse"
       x1="130.7226"
       y1="120.2719"
       x2="132.9639"
       y2="121.4787">
      <stop
         offset="0"
         style="stop-color:#000000;stop-opacity:3.000000e-002"
         id="stop7888" />
      <stop
         offset="8.489490e-002"
         style="stop-color:#090909;stop-opacity:2.745315e-002"
         id="stop7890" />
      <stop
         offset="0.2235"
         style="stop-color:#212121;stop-opacity:2.329644e-002"
         id="stop7892" />
      <stop
         offset="0.3985"
         style="stop-color:#494949;stop-opacity:1.804541e-002"
         id="stop7894" />
      <stop
         offset="0.6031"
         style="stop-color:#808080;stop-opacity:1.190651e-002"
         id="stop7896" />
      <stop
         offset="0.8298"
         style="stop-color:#C6C6C6;stop-opacity:5.105171e-003"
         id="stop7898" />
      <stop
         offset="1"
         style="stop-color:#FFFFFF;stop-opacity:0"
         id="stop7900" />
    </linearGradient>
    <filter
       id="filter8389"
       inkscape:label="Blur"
       style="color-interpolation-filters:sRGB">
      <feGaussianBlur
         id="feGaussianBlur8391"
         result="blur"
         stdDeviation="7 7" />
    </filter>
    <filter
       id="filter16455"
       inkscape:label="Blur"
       style="color-interpolation-filters:sRGB">
      <feGaussianBlur
         id="feGaussianBlur16457"
         result="blur"
         stdDeviation="7 7" />
    </filter>
    <filter
       style="color-interpolation-filters:sRGB"
       inkscape:label="Blur"
       id="filter9420">
      <feGaussianBlur
         stdDeviation="7 7"
         result="blur"
         id="feGaussianBlur9422" />
    </filter>
    <filter
       style="color-interpolation-filters:sRGB"
       inkscape:label="Blur"
       id="filter10263">
      <feGaussianBlur
         stdDeviation="7 7"
         result="blur"
         id="feGaussianBlur10265" />
    </filter>
    <linearGradient
       id="linearGradient4671">
      <stop
         style="stop-color:#ffd43b;stop-opacity:1;"
         offset="0"
         id="stop4673" />
      <stop
         style="stop-color:#ffe873;stop-opacity:1"
         offset="1"
         id="stop4675" />
    </linearGradient>
    <linearGradient
       id="linearGradient4689">
      <stop
         style="stop-color:#5a9fd4;stop-opacity:1;"
         offset="0"
         id="stop4691" />
      <stop
         style="stop-color:#306998;stop-opacity:1;"
         offset="1"
         id="stop4693" />
    </linearGradient>
    <linearGradient
       id="linearGradient2795">
      <stop
         id="stop2797"
         offset="0"
         style="stop-color:#b8b8b8;stop-opacity:0.49803922;" />
      <stop
         id="stop2799"
         offset="1"
         style="stop-color:#7f7f7f;stop-opacity:0;" />
    </linearGradient>
    <linearGradient
       id="linearGradient2787">
      <stop
         id="stop2789"
         offset="0"
         style="stop-color:#7f7f7f;stop-opacity:0.5;" />
      <stop
         id="stop2791"
         offset="1"
         style="stop-color:#7f7f7f;stop-opacity:0;" />
    </linearGradient>
    <linearGradient
       id="linearGradient3676">
      <stop
         id="stop3678"
         offset="0"
         style="stop-color:#b2b2b2;stop-opacity:0.5;" />
      <stop
         id="stop3680"
         offset="1"
         style="stop-color:#b3b3b3;stop-opacity:0;" />
    </linearGradient>
    <linearGradient
       id="linearGradient3236">
      <stop
         id="stop3244"
         offset="0"
         style="stop-color:#f4f4f4;stop-opacity:1" />
      <stop
         id="stop3240"
         offset="1"
         style="stop-color:white;stop-opacity:1" />
    </linearGradient>
    <linearGradient
       gradientTransform="translate(100.2702,99.61116)"
       gradientUnits="userSpaceOnUse"
       xlink:href="#linearGradient4671"
       id="linearGradient2987"
       y2="144.75717"
       x2="-65.308502"
       y1="144.75717"
       x1="224.23996" />
    <linearGradient
       gradientTransform="translate(100.2702,99.61116)"
       gradientUnits="userSpaceOnUse"
       xlink:href="#linearGradient4689"
       id="linearGradient2990"
       y2="76.313133"
       x2="26.670298"
       y1="77.475983"
       x1="172.94208" />
    <linearGradient
       y2="144.75717"
       x2="-65.308502"
       y1="144.75717"
       x1="224.23996"
       gradientTransform="matrix(0.562541,0,0,0.567972,-11.5974,-7.60954)"
       gradientUnits="userSpaceOnUse"
       id="linearGradient2255"
       xlink:href="#linearGradient4671"
       inkscape:collect="always" />
    <linearGradient
       y2="76.313133"
       x2="26.670298"
       y1="76.176224"
       x1="172.94208"
       gradientTransform="matrix(0.562541,0,0,0.567972,-11.5974,-7.60954)"
       gradientUnits="userSpaceOnUse"
       id="linearGradient2258"
       xlink:href="#linearGradient4689"
       inkscape:collect="always" />
    <radialGradient
       gradientUnits="userSpaceOnUse"
       gradientTransform="matrix(1,0,0,0.177966,0,108.7434)"
       r="29.036913"
       fy="132.28575"
       fx="61.518883"
       cy="132.28575"
       cx="61.518883"
       id="radialGradient2801"
       xlink:href="#linearGradient2795"
       inkscape:collect="always" />
  </defs>
  <sodipodi:namedview
     id="base"
     pagecolor="#ffffff"
     bordercolor="#666666"
     borderopacity="1.0"
     inkscape:pageopacity="0.0"
     inkscape:pageshadow="2"
     inkscape:zoom="1.4"
     inkscape:cx="201.85783"
     inkscape:cy="60.337784"
     inkscape:document-units="mm"
     inkscape:current-layer="layer1"
     showgrid="false"
     inkscape:snap-bbox="true"
     inkscape:bbox-paths="true"
     inkscape:bbox-nodes="true"
     inkscape:snap-bbox-edge-midpoints="true"
     inkscape:snap-bbox-midpoints="true"
     inkscape:object-paths="true"
     inkscape:snap-intersection-paths="true"
     inkscape:snap-smooth-nodes="true"
     fit-margin-top="0"
     fit-margin-left="0"
     fit-margin-right="0"
     fit-margin-bottom="0"
     inkscape:window-width="2560"
     inkscape:window-height="993"
     inkscape:window-x="0"
     inkscape:window-y="0"
     inkscape:window-maximized="1"
     units="px"
     inkscape:snap-global="false"
     inkscape:document-rotation="0" />
  <metadata
     id="metadata4526">
    <rdf:RDF>
      <cc:Work
         rdf:about="">
        <dc:format>image/svg+xml</dc:format>
        <dc:type
           rdf:resource="http://purl.org/dc/dcmitype/StillImage" />
        <dc:title></dc:title>
      </cc:Work>
    </rdf:RDF>
  </metadata>
  <g
     inkscape:label="Camada 1"
     inkscape:groupmode="layer"
     id="layer1"
     transform="translate(-10.904864,139.52725)">
    <g
       id="g8158"
       transform="matrix(0.26458333,0,0,0.26458529,466.34389,-339.28042)" />
    <g
       id="g8160"
       transform="matrix(0.26458333,0,0,0.26458529,466.34389,-339.28042)" />
    <g
       id="g8162"
       transform="matrix(0.26458333,0,0,0.26458529,466.34389,-339.28042)" />
    <g
       id="g8164"
       transform="matrix(0.26458333,0,0,0.26458529,466.34389,-339.28042)" />
    <g
       id="g8166"
       transform="matrix(0.26458333,0,0,0.26458529,466.34389,-339.28042)" />
    <g
       id="g8168"
       transform="matrix(0.26458333,0,0,0.26458529,466.34389,-339.28042)" />
    <g
       id="g8170"
       transform="matrix(0.26458333,0,0,0.26458529,466.34389,-339.28042)" />
    <g
       id="g8172"
       transform="matrix(0.26458333,0,0,0.26458529,466.34389,-339.28042)" />
    <g
       id="g8174"
       transform="matrix(0.26458333,0,0,0.26458529,466.34389,-339.28042)" />
    <g
       id="g8176"
       transform="matrix(0.26458333,0,0,0.26458529,466.34389,-339.28042)" />
    <g
       id="g8178"
       transform="matrix(0.26458333,0,0,0.26458529,466.34389,-339.28042)" />
    <g
       id="g8180"
       transform="matrix(0.26458333,0,0,0.26458529,466.34389,-339.28042)" />
    <g
       id="g8182"
       transform="matrix(0.26458333,0,0,0.26458529,466.34389,-339.28042)" />
    <g
       id="g8184"
       transform="matrix(0.26458333,0,0,0.26458529,466.34389,-339.28042)" />
    <g
       id="g8186"
       transform="matrix(0.26458333,0,0,0.26458529,466.34389,-339.28042)" />
    <g
       id="g8865"
       transform="matrix(0.26458333,0,0,0.26458333,323.46822,-339.28022)" />
    <g
       id="g8867"
       transform="matrix(0.26458333,0,0,0.26458333,323.46822,-339.28022)" />
    <g
       id="g8869"
       transform="matrix(0.26458333,0,0,0.26458333,323.46822,-339.28022)" />
    <g
       id="g8871"
       transform="matrix(0.26458333,0,0,0.26458333,323.46822,-339.28022)" />
    <g
       id="g8873"
       transform="matrix(0.26458333,0,0,0.26458333,323.46822,-339.28022)" />
    <g
       id="g8875"
       transform="matrix(0.26458333,0,0,0.26458333,323.46822,-339.28022)" />
    <g
       id="g8877"
       transform="matrix(0.26458333,0,0,0.26458333,323.46822,-339.28022)" />
    <g
       id="g8879"
       transform="matrix(0.26458333,0,0,0.26458333,323.46822,-339.28022)" />
    <g
       id="g8881"
       transform="matrix(0.26458333,0,0,0.26458333,323.46822,-339.28022)" />
    <g
       id="g8883"
       transform="matrix(0.26458333,0,0,0.26458333,323.46822,-339.28022)" />
    <g
       id="g8885"
       transform="matrix(0.26458333,0,0,0.26458333,323.46822,-339.28022)" />
    <g
       id="g8887"
       transform="matrix(0.26458333,0,0,0.26458333,323.46822,-339.28022)" />
    <g
       id="g8889"
       transform="matrix(0.26458333,0,0,0.26458333,323.46822,-339.28022)" />
    <g
       id="g8891"
       transform="matrix(0.26458333,0,0,0.26458333,323.46822,-339.28022)" />
    <g
       id="g8893"
       transform="matrix(0.26458333,0,0,0.26458333,323.46822,-339.28022)" />
    <g
       id="g8398"
       transform="matrix(0.26458333,0,0,0.26458333,394.52836,-295.43413)" />
    <g
       id="g8400"
       transform="matrix(0.26458333,0,0,0.26458333,394.52836,-295.43413)" />
    <g
       id="g8402"
       transform="matrix(0.26458333,0,0,0.26458333,394.52836,-295.43413)" />
    <g
       id="g8404"
       transform="matrix(0.26458333,0,0,0.26458333,394.52836,-295.43413)" />
    <g
       id="g8406"
       transform="matrix(0.26458333,0,0,0.26458333,394.52836,-295.43413)" />
    <g
       id="g8408"
       transform="matrix(0.26458333,0,0,0.26458333,394.52836,-295.43413)" />
    <g
       id="g8410"
       transform="matrix(0.26458333,0,0,0.26458333,394.52836,-295.43413)" />
    <g
       id="g8412"
       transform="matrix(0.26458333,0,0,0.26458333,394.52836,-295.43413)" />
    <g
       id="g8414"
       transform="matrix(0.26458333,0,0,0.26458333,394.52836,-295.43413)" />
    <g
       id="g8416"
       transform="matrix(0.26458333,0,0,0.26458333,394.52836,-295.43413)" />
    <g
       id="g8418"
       transform="matrix(0.26458333,0,0,0.26458333,394.52836,-295.43413)" />
    <g
       id="g8420"
       transform="matrix(0.26458333,0,0,0.26458333,394.52836,-295.43413)" />
    <g
       id="g8422"
       transform="matrix(0.26458333,0,0,0.26458333,394.52836,-295.43413)" />
    <g
       id="g8424"
       transform="matrix(0.26458333,0,0,0.26458333,394.52836,-295.43413)" />
    <g
       id="g8426"
       transform="matrix(0.26458333,0,0,0.26458333,394.52836,-295.43413)" />
    <path
       style="fill:#f0f0f0;fill-opacity:1;stroke:#333333;stroke-width:1.17088;stroke-miterlimit:4;stroke-dasharray:none"
       d="m 143.15468,-101.71661 -2.31001,-18.76506 -4.32871,0.53283 0.001,-0.002 -8.39209,-4.72284 c -0.89515,-0.5037 -1.92244,-0.72287 -2.9453,-0.62838 l -13.25079,1.22551 c -1.62885,0.15061 -3.08438,1.08004 -3.90618,2.49453 l -9.339461,16.07514 c -0.689657,1.18698 -0.148307,2.70928 1.135993,3.19434 l 0.382048,0.14422 c 0.73495,0.27761 1.49033,0.43834 2.24535,0.50121 l -1.18342,1.03067 -2.367551,2.062765 -6.733731,5.743915 c -1.198692,1.04417 -1.323197,2.861122 -0.279026,4.059814 l 0.683088,0.782374 c 1.340958,1.537749 3.674933,1.69742 5.215525,0.356108 l 2.573565,2.951882 c 0.83672,0.960871 2.0626,1.385893 3.24033,1.240963 0.70777,-0.08703 1.39833,-0.380442 1.97502,-0.884855 l 2.57073,2.952061 c 0.83975,0.963356 2.06544,1.385536 3.24317,1.240607 0.70777,-0.0872 1.3985,-0.377779 1.97537,-0.882014 l 1.39709,1.207395 c 1.34132,1.540414 3.67796,1.699731 5.21854,0.358418 l 1.89918,-1.656927 15.96646,-12.434847 0.0172,-0.0158 6.29947,-0.0062 z"
       id="path17741" />
    <path
       style="fill:#cccccc;stroke:none;stroke-width:0.983429;stroke-miterlimit:4;stroke-dasharray:none"
       d="m 136.31189,-98.389975 -0.0172,0.0158 -15.96645,12.434849 -1.89919,1.656925 c -1.54042,1.341312 -3.87723,1.181995 -5.21855,-0.358417 l -1.39708,-1.207395 c -0.57687,0.504236 -1.26778,0.794983 -1.97538,0.882013 -1.17773,0.14493 -2.40324,-0.277251 -3.24317,-1.240607 l -2.57073,-2.952061 c -0.57687,0.504236 -1.26743,0.797648 -1.97503,0.884854 -1.17772,0.144931 -2.40359,-0.279914 -3.240304,-1.240963 l -2.57358,-2.951882 c -1.318931,1.148428 -3.21794,1.193186 -4.578967,0.217929 -0.698008,1.052518 -0.642238,2.479083 0.227874,3.477962 l 0.683089,0.782376 c 1.340957,1.537747 3.674938,1.697419 5.21553,0.356107 l 2.573568,2.951881 c 0.83672,0.960872 2.06259,1.385894 3.24033,1.240963 0.70776,-0.08703 1.39813,-0.38044 1.97502,-0.884854 l 2.57073,2.952237 c 0.83973,0.963359 2.06542,1.385538 3.24315,1.240607 0.70778,-0.0872 1.39852,-0.377776 1.97539,-0.882011 l 1.39708,1.207394 c 1.34131,1.540414 3.67794,1.69973 5.21854,0.358417 l 1.89919,-1.656926 15.96645,-12.434847 0.0172,-0.0158 6.29948,-0.0062 -0.69694,-5.661504 z"
       id="path17743" />
    <path
       style="fill:#cccccc;stroke:#333333;stroke-width:1.17088;stroke-miterlimit:4;stroke-dasharray:none"
       d="m 139.21937,-90.273189 -8.5546,-7.376151 -2.37892,-2.049624 -1.7022,-1.465986 -7.31879,-6.30872 0.84524,-7.19499 c 0.28596,-2.43344 -1.24593,-4.71165 -3.60742,-5.36508 l -15.95386,-4.41449 c -1.688,-0.46712 -3.4721,0.31613 -4.270638,1.87502 l -2.00628,3.91631 -8.611964,-0.58451 -2.205919,18.77766 -0.958741,8.160299 8.382849,0.557518 0.0174,0.0158 17.512723,15.095626 1.90842,1.646447 c 1.54787,1.332787 3.88363,1.160505 5.21642,-0.387369 l 2.55403,-2.963603 c 0.57955,0.501037 1.27205,0.78788 1.98037,0.871177 1.17843,0.138537 2.40181,-0.290569 3.23622,-1.258545 l 2.55439,-2.966269 c 0.57954,0.501038 1.27169,0.790721 1.98,0.873843 1.17845,0.138535 2.40201,-0.293235 3.2334,-1.258902 l 2.55705,-2.96609 c 1.54787,1.332786 3.88097,1.160151 5.21339,-0.38506 l 0.67883,-0.78628 c 1.03759,-1.204198 0.90296,-3.020439 -0.3014,-4.058039 z"
       id="path17745" />
    <g
       id="g17753"
       transform="matrix(0.17761022,0,0,0.17761022,68.512557,-146.31508)"
       style="fill:#b3b3b3;stroke:none;stroke-width:4.40315;stroke-miterlimit:4;stroke-dasharray:none">
	<path
   style="fill:#b3b3b3;stroke:none;stroke-width:4.40315;stroke-miterlimit:4;stroke-dasharray:none"
   d="m 392.89844,317.06615 -14.671,-12.65 c 4.768,6.323 4.67,15.318 -0.711,21.564 L 376.662,327.146 c -7.964,9.235 -21.908,10.267 -31.16,2.301 l -15.284,17.728 c -4.969,5.771 -12.282,8.351 -19.326,7.524 -4.233,-0.497 -8.37,-2.228 -11.834,-5.223 l -15.268,17.73 c -4.987,5.785 -12.298,8.349 -19.342,7.522 -4.233,-0.497 -8.372,-2.212 -11.836,-5.207 l -15.266,17.714 c -2.876,3.341 -6.539,5.592 -10.474,6.752 l 6.499,5.607 c 8.715,7.504 21.866,6.534 29.37,-2.181 l 14.38,-16.686 c 3.263,2.821 7.162,4.436 11.15,4.905 6.635,0.779 13.523,-1.636 18.221,-7.086 l 14.382,-16.701 c 3.263,2.821 7.16,4.452 11.148,4.92 6.635,0.78 13.524,-1.651 18.205,-7.088 l 14.397,-16.7 c 8.715,7.504 21.851,6.532 29.353,-2.168 l 3.822,-4.427 c 5.841,-6.781 1.88044,-13.47385 -4.90056,-19.31585 z"
   id="path17747"
   sodipodi:nodetypes="ccccccsccsccccccccccccccc" />

	<path
   style="fill:#b3b3b3;stroke:none;stroke-width:4.40315;stroke-miterlimit:4;stroke-dasharray:none"
   d="M 369.5,337.416 343.108,314.66 c -3.135,-2.704 -7.872,-2.354 -10.578,0.783 -2.705,3.137 -2.354,7.873 0.783,10.578 l 26.345,22.716 4.966,-5.76 c 1.982,1.707 4.199,2.952 6.52,3.791 1.713,-3.049 1.106,-6.981 -1.644,-9.352 z"
   id="path17749" />

	<path
   style="fill:#b3b3b3;stroke:none;stroke-width:4.40315;stroke-miterlimit:4;stroke-dasharray:none"
   d="m 327.303,365.627 c 1.807,-3.065 1.228,-7.074 -1.562,-9.48 l -23.708,-20.441 c -3.137,-2.704 -7.872,-2.354 -10.578,0.783 -2.705,3.137 -2.354,7.873 0.783,10.578 l 23.708,20.441 c 0.01,0.008 0.02,0.015 0.03,0.023 l 4.898,-5.688 c 1.953,1.689 4.137,2.942 6.429,3.784 z"
   id="path17751" />

</g>
    <g
       id="g17765"
       transform="matrix(0.17761022,0,0,0.17761022,68.867781,-145.95985)"
       style="fill:#ececec;stroke:#333333;stroke-width:6.59239;stroke-miterlimit:4;stroke-dasharray:none">
	<path
   style="fill:#ececec;stroke:#333333;stroke-width:6.59239;stroke-miterlimit:4;stroke-dasharray:none"
   d="m 126.385,305.135 -5.713,7.544 c -6.221,8.215 -4.605,19.918 3.61,26.14 v 0 c 8.215,6.221 19.918,4.605 26.14,-3.61 l 5.713,-7.544 c 6.221,-8.215 4.605,-19.918 -3.61,-26.14 v 0 c -8.215,-6.221 -19.919,-4.605 -26.14,3.61 z"
   id="path17755" />

	<path
   style="fill:#ececec;stroke:#333333;stroke-width:6.59239;stroke-miterlimit:4;stroke-dasharray:none"
   d="m 161.181,321.002 -10.759,14.207 c -6.221,8.215 -4.605,19.918 3.61,26.14 v 0 c 8.215,6.221 19.918,4.605 26.14,-3.61 l 10.759,-14.207 c 6.221,-8.215 4.605,-19.918 -3.61,-26.14 v 0 c -8.216,-6.221 -19.919,-4.605 -26.14,3.61 z"
   id="path17757" />

	<path
   style="fill:#ececec;stroke:#333333;stroke-width:6.59239;stroke-miterlimit:4;stroke-dasharray:none"
   d="m 194.834,338.377 -14.663,19.362 c -6.221,8.215 -4.605,19.918 3.61,26.14 v 0 c 8.215,6.221 19.918,4.605 26.14,-3.61 l 14.663,-19.362 c 6.221,-8.215 4.605,-19.918 -3.61,-26.14 v 0 c -8.215,-6.222 -19.918,-4.605 -26.14,3.61 z"
   id="path17759" />

	<path
   style="fill:#ececec;stroke:#333333;stroke-width:6.59239;stroke-miterlimit:4;stroke-dasharray:none"
   d="m 225.435,359.783 -15.514,20.485 c -6.221,8.215 -4.605,19.918 3.61,26.14 v 0 c 8.215,6.221 19.918,4.605 26.14,-3.61 l 15.514,-20.485 c 6.221,-8.215 4.605,-19.918 -3.61,-26.14 v 0 c -8.216,-6.221 -19.919,-4.605 -26.14,3.61 z"
   id="path17761" />

	<path
   style="fill:#ececec;stroke:#333333;stroke-width:6.59239;stroke-miterlimit:4;stroke-dasharray:none"
   d="m 380.89,146.433 -47.25,-26.591 c -5.04,-2.836 -10.824,-4.07 -16.583,-3.538 l -74.606,6.9 c -9.171,0.848 -17.366,6.081 -21.993,14.045 l -52.584,90.508 c -3.883,6.684 -0.835,15.254 6.396,17.985 l 2.151,0.812 c 19.275,7.28 41.043,1.085 53.596,-15.252 l 20.147,-26.22 c 0,0 48.429,56.073 101.749,-9.41"
   id="path17763" />

</g>
    <path
       style="fill:#ffd43c;fill-opacity:1;stroke:#333333;stroke-width:1.50885;stroke-miterlimit:4;stroke-dasharray:none"
       d="m 159.79444,-91.052542 -4.38927,-35.655438 c -0.0431,-0.3506 -0.22379,-0.66977 -0.5023,-0.88716 -0.27848,-0.21739 -0.63175,-0.31508 -0.98252,-0.27209 l -10.26374,1.26351 c -2.66575,0.32822 -4.56742,2.76398 -4.2392,5.42955 l 3.52449,28.630767 c 0.30336,2.464698 2.40822,4.276143 4.831,4.276143 0.1975,0 0.39766,-0.01202 0.59854,-0.03677 l 10.26374,-1.263519 c 0.72997,-0.09005 1.24914,-0.754844 1.15926,-1.484998 z"
       id="path17767" />
    <path
       style="fill:#ddac00;fill-opacity:1;stroke:#333333;stroke-width:0.840226;stroke-miterlimit:4;stroke-dasharray:none"
       d="m 159.79444,-91.052542 -0.48185,-3.913819 c -0.21846,0.320585 -0.56728,0.549703 -0.98255,0.600856 l -10.75909,1.324438 c -0.21064,0.02593 -0.42039,0.03854 -0.62749,0.03854 -1.81162,0 -3.45292,-0.966554 -4.36087,-2.458125 l 0.35913,2.91707 c 0.30335,2.464697 2.40822,4.276144 4.831,4.276144 0.1975,0 0.39768,-0.01202 0.59856,-0.03677 l 10.26374,-1.263515 c 0.73013,-0.08987 1.2493,-0.754665 1.15942,-1.484821 z"
       id="path17769" />
    <path
       style="fill:#306998;fill-opacity:1;stroke:#333333;stroke-width:1.50885;stroke-miterlimit:4;stroke-dasharray:none"
       d="m 85.015744,-126.60389 -10.263737,-1.26352 c -0.351141,-0.0431 -0.704047,0.0546 -0.982545,0.27209 -0.278489,0.2174 -0.459121,0.53657 -0.502274,0.88718 l -4.389284,35.655598 c -0.08987,0.730156 0.429284,1.39495 1.15926,1.484821 l 10.26374,1.263519 c 0.201055,0.02468 0.400866,0.03677 0.598548,0.03677 2.422601,0 4.527639,-1.811626 4.830998,-4.276146 l 3.524497,-28.630762 c 0.328223,-2.66558 -1.57345,-5.10133 -4.239203,-5.42955 z"
       id="path17771" />
    <path
       style="fill:#244f72;fill-opacity:1;stroke:#333333;stroke-width:0.840226;stroke-miterlimit:4;stroke-dasharray:none"
       d="m 68.877904,-91.052542 0.481856,-3.913819 c 0.218457,0.320585 0.567285,0.549703 0.982537,0.600856 l 10.759096,1.324438 c 0.210646,0.02593 0.420404,0.03854 0.627498,0.03854 1.811624,0 3.452921,-0.966554 4.360864,-2.458125 l -0.359129,2.91707 c -0.303357,2.464697 -2.408217,4.276144 -4.830998,4.276144 -0.197502,0 -0.397669,-0.01202 -0.598546,-0.03677 l -10.263744,-1.263517 c -0.730332,-0.08987 -1.249308,-0.754667 -1.159434,-1.484822 z"
       id="path17773" />
    <g
       id="g17779"
       transform="matrix(0.17761022,0,0,0.17761022,68.867781,-147.49475)">
	<circle
   style="fill:#ebeef2"
   cx="464"
   cy="277.00101"
   r="14.498"
   id="circle17775" />

	<circle
   style="fill:#ebeef2"
   cx="47.189999"
   cy="277.00101"
   r="14.498"
   id="circle17777" />

</g>
    <g
       id="g17781"
       transform="matrix(0.26458333,0,0,0.26458333,-112.96034,-46.722541)">
</g>
    <g
       id="g17783"
       transform="matrix(0.26458333,0,0,0.26458333,-112.96034,-46.722541)">
</g>
    <g
       id="g17785"
       transform="matrix(0.26458333,0,0,0.26458333,-112.96034,-46.722541)">
</g>
    <g
       id="g17787"
       transform="matrix(0.26458333,0,0,0.26458333,-112.96034,-46.722541)">
</g>
    <g
       id="g17789"
       transform="matrix(0.26458333,0,0,0.26458333,-112.96034,-46.722541)">
</g>
    <g
       id="g17791"
       transform="matrix(0.26458333,0,0,0.26458333,-112.96034,-46.722541)">
</g>
    <g
       id="g17793"
       transform="matrix(0.26458333,0,0,0.26458333,-112.96034,-46.722541)">
</g>
    <g
       id="g17795"
       transform="matrix(0.26458333,0,0,0.26458333,-112.96034,-46.722541)">
</g>
    <g
       id="g17797"
       transform="matrix(0.26458333,0,0,0.26458333,-112.96034,-46.722541)">
</g>
    <g
       id="g17799"
       transform="matrix(0.26458333,0,0,0.26458333,-112.96034,-46.722541)">
</g>
    <g
       id="g17801"
       transform="matrix(0.26458333,0,0,0.26458333,-112.96034,-46.722541)">
</g>
    <g
       id="g17803"
       transform="matrix(0.26458333,0,0,0.26458333,-112.96034,-46.722541)">
</g>
    <g
       id="g17805"
       transform="matrix(0.26458333,0,0,0.26458333,-112.96034,-46.722541)">
</g>
    <g
       id="g17807"
       transform="matrix(0.26458333,0,0,0.26458333,-112.96034,-46.722541)">
</g>
    <g
       id="g17809"
       transform="matrix(0.26458333,0,0,0.26458333,-112.96034,-46.722541)">
</g>
    <rect
       style="fill:#808080;fill-opacity:0;stroke:#333333;stroke-width:1.84011;stroke-miterlimit:4;stroke-dasharray:none;stroke-opacity:0"
       id="rect17957"
       width="205.02252"
       height="76.106934"
       x="11.824919"
       y="-138.60719" />
  </g>
</svg>
