<?xml version="1.0" encoding="UTF-8" standalone="no"?>
<!-- Created with Inkscape (http://www.inkscape.org/) -->

<svg
   xmlns:dc="http://purl.org/dc/elements/1.1/"
   xmlns:cc="http://creativecommons.org/ns#"
   xmlns:rdf="http://www.w3.org/1999/02/22-rdf-syntax-ns#"
   xmlns:svg="http://www.w3.org/2000/svg"
   xmlns="http://www.w3.org/2000/svg"
   xmlns:xlink="http://www.w3.org/1999/xlink"
   xmlns:sodipodi="http://sodipodi.sourceforge.net/DTD/sodipodi-0.dtd"
   xmlns:inkscape="http://www.inkscape.org/namespaces/inkscape"
   width="781.84302"
   height="294.603"
   viewBox="0 0 206.86263 77.947048"
   version="1.1"
   id="svg4529"
   inkscape:version="0.92.1 r15371"
   sodipodi:docname="worker.svg">
  <defs
     id="defs4523">
    <filter
       id="filter7670"
       inkscape:label="Blur"
       style="color-interpolation-filters:sRGB">
      <feGaussianBlur
         id="feGaussianBlur7672"
         result="blur"
         stdDeviation="2 2" />
    </filter>
    <linearGradient
       id="linearGradient7886"
       gradientUnits="userSpaceOnUse"
       x1="130.7226"
       y1="120.2719"
       x2="132.9639"
       y2="121.4787">
      <stop
         offset="0"
         style="stop-color:#000000;stop-opacity:3.000000e-002"
         id="stop7888" />
      <stop
         offset="8.489490e-002"
         style="stop-color:#090909;stop-opacity:2.745315e-002"
         id="stop7890" />
      <stop
         offset="0.2235"
         style="stop-color:#212121;stop-opacity:2.329644e-002"
         id="stop7892" />
      <stop
         offset="0.3985"
         style="stop-color:#494949;stop-opacity:1.804541e-002"
         id="stop7894" />
      <stop
         offset="0.6031"
         style="stop-color:#808080;stop-opacity:1.190651e-002"
         id="stop7896" />
      <stop
         offset="0.8298"
         style="stop-color:#C6C6C6;stop-opacity:5.105171e-003"
         id="stop7898" />
      <stop
         offset="1"
         style="stop-color:#FFFFFF;stop-opacity:0"
         id="stop7900" />
    </linearGradient>
    <filter
       id="filter8389"
       inkscape:label="Blur"
       style="color-interpolation-filters:sRGB">
      <feGaussianBlur
         id="feGaussianBlur8391"
         result="blur"
         stdDeviation="7 7" />
    </filter>
    <filter
       id="filter16455"
       inkscape:label="Blur"
       style="color-interpolation-filters:sRGB">
      <feGaussianBlur
         id="feGaussianBlur16457"
         result="blur"
         stdDeviation="7 7" />
    </filter>
    <filter
       style="color-interpolation-filters:sRGB"
       inkscape:label="Blur"
       id="filter9420">
      <feGaussianBlur
         stdDeviation="7 7"
         result="blur"
         id="feGaussianBlur9422" />
    </filter>
    <filter
       style="color-interpolation-filters:sRGB"
       inkscape:label="Blur"
       id="filter10263">
      <feGaussianBlur
         stdDeviation="7 7"
         result="blur"
         id="feGaussianBlur10265" />
    </filter>
    <linearGradient
       id="linearGradient4671">
      <stop
         style="stop-color:#ffd43b;stop-opacity:1;"
         offset="0"
         id="stop4673" />
      <stop
         style="stop-color:#ffe873;stop-opacity:1"
         offset="1"
         id="stop4675" />
    </linearGradient>
    <linearGradient
       id="linearGradient4689">
      <stop
         style="stop-color:#5a9fd4;stop-opacity:1;"
         offset="0"
         id="stop4691" />
      <stop
         style="stop-color:#306998;stop-opacity:1;"
         offset="1"
         id="stop4693" />
    </linearGradient>
    <linearGradient
       id="linearGradient2795">
      <stop
         id="stop2797"
         offset="0"
         style="stop-color:#b8b8b8;stop-opacity:0.49803922;" />
      <stop
         id="stop2799"
         offset="1"
         style="stop-color:#7f7f7f;stop-opacity:0;" />
    </linearGradient>
    <linearGradient
       id="linearGradient2787">
      <stop
         id="stop2789"
         offset="0"
         style="stop-color:#7f7f7f;stop-opacity:0.5;" />
      <stop
         id="stop2791"
         offset="1"
         style="stop-color:#7f7f7f;stop-opacity:0;" />
    </linearGradient>
    <linearGradient
       id="linearGradient3676">
      <stop
         id="stop3678"
         offset="0"
         style="stop-color:#b2b2b2;stop-opacity:0.5;" />
      <stop
         id="stop3680"
         offset="1"
         style="stop-color:#b3b3b3;stop-opacity:0;" />
    </linearGradient>
    <linearGradient
       id="linearGradient3236">
      <stop
         id="stop3244"
         offset="0"
         style="stop-color:#f4f4f4;stop-opacity:1" />
      <stop
         id="stop3240"
         offset="1"
         style="stop-color:white;stop-opacity:1" />
    </linearGradient>
    <linearGradient
       gradientTransform="translate(100.2702,99.61116)"
       gradientUnits="userSpaceOnUse"
       xlink:href="#linearGradient4671"
       id="linearGradient2987"
       y2="144.75717"
       x2="-65.308502"
       y1="144.75717"
       x1="224.23996" />
    <linearGradient
       gradientTransform="translate(100.2702,99.61116)"
       gradientUnits="userSpaceOnUse"
       xlink:href="#linearGradient4689"
       id="linearGradient2990"
       y2="76.313133"
       x2="26.670298"
       y1="77.475983"
       x1="172.94208" />
    <linearGradient
       y2="144.75717"
       x2="-65.308502"
       y1="144.75717"
       x1="224.23996"
       gradientTransform="matrix(0.562541,0,0,0.567972,-11.5974,-7.60954)"
       gradientUnits="userSpaceOnUse"
       id="linearGradient2255"
       xlink:href="#linearGradient4671"
       inkscape:collect="always" />
    <linearGradient
       y2="76.313133"
       x2="26.670298"
       y1="76.176224"
       x1="172.94208"
       gradientTransform="matrix(0.562541,0,0,0.567972,-11.5974,-7.60954)"
       gradientUnits="userSpaceOnUse"
       id="linearGradient2258"
       xlink:href="#linearGradient4689"
       inkscape:collect="always" />
    <radialGradient
       gradientUnits="userSpaceOnUse"
       gradientTransform="matrix(1,0,0,0.177966,0,108.7434)"
       r="29.036913"
       fy="132.28575"
       fx="61.518883"
       cy="132.28575"
       cx="61.518883"
       id="radialGradient2801"
       xlink:href="#linearGradient2795"
       inkscape:collect="always" />
    <linearGradient
       y2="137.27299"
       x2="112.03144"
       y1="192.35176"
       x1="150.96111"
       gradientTransform="matrix(0.06358935,0,0,0.06420327,103.89987,60.208408)"
       gradientUnits="userSpaceOnUse"
       id="linearGradient1475"
       xlink:href="#linearGradient4671"
       inkscape:collect="always" />
    <linearGradient
       y2="114.39767"
       x2="135.66525"
       y1="20.603781"
       x1="26.648937"
       gradientTransform="matrix(0.06358935,0,0,0.06420327,103.89987,60.208408)"
       gradientUnits="userSpaceOnUse"
       id="linearGradient1478"
       xlink:href="#linearGradient4689"
       inkscape:collect="always" />
  </defs>
  <sodipodi:namedview
     id="base"
     pagecolor="#ffffff"
     bordercolor="#666666"
     borderopacity="1.0"
     inkscape:pageopacity="0.0"
     inkscape:pageshadow="2"
     inkscape:zoom="0.175"
     inkscape:cx="-2905.015"
     inkscape:cy="557.16597"
     inkscape:document-units="mm"
     inkscape:current-layer="layer1"
     showgrid="false"
     inkscape:snap-bbox="true"
     inkscape:bbox-paths="true"
     inkscape:bbox-nodes="true"
     inkscape:snap-bbox-edge-midpoints="true"
     inkscape:snap-bbox-midpoints="true"
     inkscape:object-paths="true"
     inkscape:snap-intersection-paths="true"
     inkscape:snap-smooth-nodes="true"
     fit-margin-top="0"
     fit-margin-left="0"
     fit-margin-right="0"
     fit-margin-bottom="0"
     inkscape:window-width="2560"
     inkscape:window-height="1017"
     inkscape:window-x="-8"
     inkscape:window-y="-8"
     inkscape:window-maximized="1"
     units="px"
     inkscape:snap-global="false" />
  <metadata
     id="metadata4526">
    <rdf:RDF>
      <cc:Work
         rdf:about="">
        <dc:format>image/svg+xml</dc:format>
        <dc:type
           rdf:resource="http://purl.org/dc/dcmitype/StillImage" />
        <dc:title></dc:title>
      </cc:Work>
    </rdf:RDF>
  </metadata>
  <g
     inkscape:label="Camada 1"
     inkscape:groupmode="layer"
     id="layer1"
     transform="translate(-8.4458704,-2.8682961)">
    <rect
       style="opacity:1;fill:#ffffff;fill-opacity:0;fill-rule:nonzero;stroke:none;stroke-width:1.29369259;stroke-linecap:round;stroke-linejoin:round;stroke-miterlimit:4;stroke-dasharray:none;stroke-dashoffset:0;stroke-opacity:1"
       id="rect5276"
       width="206.86263"
       height="77.947044"
       x="8.4458704"
       y="2.8682961" />
    <path
       inkscape:connector-curvature="0"
       style="fill:#ffffff;stroke:#333333;stroke-width:1.32291667;stroke-miterlimit:4;stroke-dasharray:none"
       d="m 133.09815,47.356911 -7.6478,-3.008683 H 98.303902 l -7.647814,3.008683 c -2.932516,1.153628 -4.813297,4.037097 -4.687175,7.185766 l 0.928525,23.18172 c 0.05297,1.323455 1.141283,2.369151 2.465896,2.369151 h 45.027746 c 1.32461,0 2.41291,-1.045508 2.46588,-2.369151 l 0.92854,-23.18172 c 0.12592,-3.148669 -1.75484,-6.032138 -4.68735,-7.185766 z"
       id="path5074" />
    <polygon
       style="fill:#ffffff;stroke:#333333;stroke-width:3.25582481;stroke-miterlimit:4;stroke-dasharray:none;stroke-opacity:1"
       points="195.237,303.684 173.064,303.684 163.351,470.71 204.95,470.71 "
       id="polygon5076"
       transform="matrix(0.16252922,0,0,0.16252922,81.947288,3.5894715)" />
    <path
       inkscape:connector-curvature="0"
       style="fill:#ffffff;stroke:#333333;stroke-width:0.52916667;stroke-miterlimit:4;stroke-dasharray:none;stroke-opacity:1"
       d="m 113.00288,54.180904 h -2.25135 c -0.7413,0 -1.34216,-0.60092 -1.34216,-1.3422 v -3.593483 h 4.93568 v 3.593483 c 0,0.74128 -0.60104,1.3422 -1.34217,1.3422 z"
       id="path5078" />
    <rect
       x="103.24025"
       y="34.437542"
       style="fill:#ffffff;stroke:#333333;stroke-width:0.92604167;stroke-miterlimit:4;stroke-dasharray:none"
       width="17.275229"
       height="14.808038"
       id="rect5080" />
    <path
       inkscape:connector-curvature="0"
       style="fill:#ffffff;stroke:#333333;stroke-width:1.44343567;stroke-miterlimit:4;stroke-dasharray:none"
       d="m 111.87721,3.6282731 c -6.16068,0.332907 -9.66578,3.7017528 -9.66578,3.7017528 0,0 -5.14145,0 -5.14145,6.1696501 0,4.935683 1.233922,9.832676 1.233922,9.832676 H 126.68443 C 129.15227,9.7591972 123.29098,3.0113456 111.87721,3.6282731 Z"
       id="path5084" />
    <path
       inkscape:connector-curvature="0"
       style="fill:#ffffff;stroke:#333333;stroke-width:1.44343567;stroke-miterlimit:4;stroke-dasharray:none"
       d="m 104.47351,18.240488 c -4.532939,-5.667403 -2.26225,-10.9104621 -2.26225,-10.9104621 0,0 -5.141442,0 -5.141442,6.1696501 0,4.935683 1.23392,9.832676 1.23392,9.832676 h 6.169602 z"
       id="path5086" />
    <path
       inkscape:connector-curvature="0"
       style="fill:#ffffff;stroke:#333333;stroke-width:1.44343567;stroke-miterlimit:4;stroke-dasharray:none"
       d="m 125.45035,22.09861 h -1.23393 l -1.62594,-2.967484 c -0.25676,-0.468543 -0.79135,-0.708626 -1.31697,-0.612391 -8.12663,1.486459 -13.46733,-0.402337 -15.49098,-1.34801 -0.53018,-0.247431 -1.16128,-0.08473 -1.50194,0.390828 -1.24871,1.744087 -2.62663,3.118791 -3.45293,3.879415 -0.45866,0.422358 -1.054169,0.657267 -1.677795,0.657267 h -0.887891 c -6.78e-4,0 -0.0012,2.99e-4 -0.002,2.99e-4 -0.135225,0.0025 -0.273374,0.01875 -0.413959,0.04386 -1.200929,0.232435 -2.010162,1.380214 -2.010162,2.603235 v 0.894236 c 0,1.180283 0.755762,2.29361 1.905003,2.56196 0.258904,0.06036 0.510829,0.07761 0.752026,0.05848 0.613549,-0.04911 1.149083,0.397652 1.259599,1.002957 1.048959,5.749318 6.072089,10.109987 12.124519,10.109987 6.05243,0 11.07538,-4.360669 12.1245,-10.109987 0.10647,-0.583149 0.60982,-1.007792 1.1946,-0.995497 h 0.25418 c 1.36296,0 2.46784,-1.104853 2.46784,-2.467822 v -1.233929 c 1.6e-4,-1.362482 -1.10488,-2.467335 -2.46784,-2.467335 z"
       id="path5088" />
    <path
       id="path5092"
       d="m 111.87721,49.283873 -9.00266,-7.877298 c -0.48889,-0.427755 -1.2258,-0.403162 -1.6851,0.05623 l -2.885548,2.885531 5.733868,8.600734 c 0.86384,1.295825 2.69717,1.477386 3.79847,0.375907 z"
       style="fill:#ffffff;stroke:#333333;stroke-width:0.79375;stroke-miterlimit:4;stroke-dasharray:none"
       inkscape:connector-curvature="0" />
    <path
       id="path5094"
       d="m 111.87721,49.283873 9.00265,-7.877298 c 0.48889,-0.427755 1.2258,-0.403162 1.6851,0.05623 l 2.88554,2.885531 -5.73386,8.600734 c -0.86384,1.295825 -2.69718,1.477386 -3.79847,0.375907 z"
       style="fill:#ffffff;stroke:#333333;stroke-width:0.79375;stroke-miterlimit:4;stroke-dasharray:none"
       inkscape:connector-curvature="0" />
    <path
       id="path5096"
       d="m 92.433351,55.752877 -5.368346,-5.368349 c -0.748932,1.222083 -1.15639,2.656732 -1.096257,4.158149 l 0.928529,23.18172 c 0.05297,1.323455 1.141444,2.369151 2.465895,2.369151 h 5.238805 V 60.987913 c 0,-1.963326 -0.780145,-3.846536 -2.168626,-5.235036 z"
       style="fill:#ffffff;stroke:#333333;stroke-width:0.52916667;stroke-miterlimit:4;stroke-dasharray:none"
       inkscape:connector-curvature="0" />
    <path
       inkscape:connector-curvature="0"
       style="fill:#ffffff;stroke:#333333;stroke-width:0.52916667;stroke-miterlimit:4;stroke-dasharray:none"
       d="m 131.32082,55.752727 5.36847,-5.368386 c 0.74895,1.222082 1.15643,2.656731 1.09629,4.158187 l -0.92855,23.181833 c -0.053,1.323491 -1.14148,2.369187 -2.46595,2.369187 h -5.23896 V 60.987801 c 0,-1.963364 0.78017,-3.846574 2.1687,-5.235074 z"
       id="path5244" />
    <g
       id="g8158"
       transform="matrix(0.26458333,0,0,0.26458529,466.34389,-339.28042)" />
    <g
       id="g8160"
       transform="matrix(0.26458333,0,0,0.26458529,466.34389,-339.28042)" />
    <g
       id="g8162"
       transform="matrix(0.26458333,0,0,0.26458529,466.34389,-339.28042)" />
    <g
       id="g8164"
       transform="matrix(0.26458333,0,0,0.26458529,466.34389,-339.28042)" />
    <g
       id="g8166"
       transform="matrix(0.26458333,0,0,0.26458529,466.34389,-339.28042)" />
    <g
       id="g8168"
       transform="matrix(0.26458333,0,0,0.26458529,466.34389,-339.28042)" />
    <g
       id="g8170"
       transform="matrix(0.26458333,0,0,0.26458529,466.34389,-339.28042)" />
    <g
       id="g8172"
       transform="matrix(0.26458333,0,0,0.26458529,466.34389,-339.28042)" />
    <g
       id="g8174"
       transform="matrix(0.26458333,0,0,0.26458529,466.34389,-339.28042)" />
    <g
       id="g8176"
       transform="matrix(0.26458333,0,0,0.26458529,466.34389,-339.28042)" />
    <g
       id="g8178"
       transform="matrix(0.26458333,0,0,0.26458529,466.34389,-339.28042)" />
    <g
       id="g8180"
       transform="matrix(0.26458333,0,0,0.26458529,466.34389,-339.28042)" />
    <g
       id="g8182"
       transform="matrix(0.26458333,0,0,0.26458529,466.34389,-339.28042)" />
    <g
       id="g8184"
       transform="matrix(0.26458333,0,0,0.26458529,466.34389,-339.28042)" />
    <g
       id="g8186"
       transform="matrix(0.26458333,0,0,0.26458529,466.34389,-339.28042)" />
    <g
       id="g8865"
       transform="matrix(0.26458333,0,0,0.26458333,323.46822,-339.28022)" />
    <g
       id="g8867"
       transform="matrix(0.26458333,0,0,0.26458333,323.46822,-339.28022)" />
    <g
       id="g8869"
       transform="matrix(0.26458333,0,0,0.26458333,323.46822,-339.28022)" />
    <g
       id="g8871"
       transform="matrix(0.26458333,0,0,0.26458333,323.46822,-339.28022)" />
    <g
       id="g8873"
       transform="matrix(0.26458333,0,0,0.26458333,323.46822,-339.28022)" />
    <g
       id="g8875"
       transform="matrix(0.26458333,0,0,0.26458333,323.46822,-339.28022)" />
    <g
       id="g8877"
       transform="matrix(0.26458333,0,0,0.26458333,323.46822,-339.28022)" />
    <g
       id="g8879"
       transform="matrix(0.26458333,0,0,0.26458333,323.46822,-339.28022)" />
    <g
       id="g8881"
       transform="matrix(0.26458333,0,0,0.26458333,323.46822,-339.28022)" />
    <g
       id="g8883"
       transform="matrix(0.26458333,0,0,0.26458333,323.46822,-339.28022)" />
    <g
       id="g8885"
       transform="matrix(0.26458333,0,0,0.26458333,323.46822,-339.28022)" />
    <g
       id="g8887"
       transform="matrix(0.26458333,0,0,0.26458333,323.46822,-339.28022)" />
    <g
       id="g8889"
       transform="matrix(0.26458333,0,0,0.26458333,323.46822,-339.28022)" />
    <g
       id="g8891"
       transform="matrix(0.26458333,0,0,0.26458333,323.46822,-339.28022)" />
    <g
       id="g8893"
       transform="matrix(0.26458333,0,0,0.26458333,323.46822,-339.28022)" />
    <g
       id="g8398"
       transform="matrix(0.26458333,0,0,0.26458333,394.52836,-295.43413)" />
    <g
       id="g8400"
       transform="matrix(0.26458333,0,0,0.26458333,394.52836,-295.43413)" />
    <g
       id="g8402"
       transform="matrix(0.26458333,0,0,0.26458333,394.52836,-295.43413)" />
    <g
       id="g8404"
       transform="matrix(0.26458333,0,0,0.26458333,394.52836,-295.43413)" />
    <g
       id="g8406"
       transform="matrix(0.26458333,0,0,0.26458333,394.52836,-295.43413)" />
    <g
       id="g8408"
       transform="matrix(0.26458333,0,0,0.26458333,394.52836,-295.43413)" />
    <g
       id="g8410"
       transform="matrix(0.26458333,0,0,0.26458333,394.52836,-295.43413)" />
    <g
       id="g8412"
       transform="matrix(0.26458333,0,0,0.26458333,394.52836,-295.43413)" />
    <g
       id="g8414"
       transform="matrix(0.26458333,0,0,0.26458333,394.52836,-295.43413)" />
    <g
       id="g8416"
       transform="matrix(0.26458333,0,0,0.26458333,394.52836,-295.43413)" />
    <g
       id="g8418"
       transform="matrix(0.26458333,0,0,0.26458333,394.52836,-295.43413)" />
    <g
       id="g8420"
       transform="matrix(0.26458333,0,0,0.26458333,394.52836,-295.43413)" />
    <g
       id="g8422"
       transform="matrix(0.26458333,0,0,0.26458333,394.52836,-295.43413)" />
    <g
       id="g8424"
       transform="matrix(0.26458333,0,0,0.26458333,394.52836,-295.43413)" />
    <g
       id="g8426"
       transform="matrix(0.26458333,0,0,0.26458333,394.52836,-295.43413)" />
    <path
       style="opacity:1;fill:#ffffff;fill-opacity:1;fill-rule:nonzero;stroke:#333333;stroke-width:0.92604166;stroke-linecap:square;stroke-linejoin:miter;stroke-miterlimit:4;stroke-dasharray:none;stroke-dashoffset:0;stroke-opacity:1"
       d="m 82.615443,58.589554 c -1.392935,0 -2.514392,1.121456 -2.514392,2.514389 v 4.509116 c 0,0.409423 0,-1.409125 0,0.736608 V 64.203934 80.35232 h 63.552459 v -13.604159 0 c 0,-1.135102 0,-0.725701 0,-1.135102 v -4.509116 c 0,-1.392933 -1.12145,-2.514389 -2.51439,-2.514389 z"
       id="rect5604"
       inkscape:connector-curvature="0"
       sodipodi:nodetypes="sssccccccssss" />
    <path
       inkscape:connector-curvature="0"
       style="fill:url(#linearGradient1478);fill-opacity:1;stroke:none;stroke-width:0.29568586;stroke-miterlimit:4;stroke-dasharray:none;stroke-opacity:1"
       d="m 111.80246,61.531346 c -0.51814,0.0025 -1.01295,0.0466 -1.44832,0.123634 -1.28257,0.226588 -1.51544,0.700858 -1.51544,1.575492 v 1.155121 h 3.03087 v 0.385038 h -3.03087 -1.13746 c -0.88086,0 -1.65216,0.529448 -1.89341,1.536632 -0.27829,1.154468 -0.29062,1.874876 0,3.080328 0.21544,0.89729 0.72995,1.536631 1.61081,1.536631 h 1.04208 v -1.384736 c 0,-1.000387 0.86556,-1.882812 1.89342,-1.882812 h 3.02734 c 0.84269,0 1.51543,-0.693856 1.51543,-1.540165 v -2.886037 c 0,-0.821388 -0.69293,-1.438405 -1.51543,-1.575492 -0.52067,-0.08666 -1.06089,-0.126045 -1.57902,-0.123634 z m -1.63908,0.929042 c 0.31307,0 0.56874,0.259836 0.56874,0.579327 0,0.318358 -0.25567,0.575795 -0.56874,0.575795 -0.31419,0 -0.56873,-0.257437 -0.56873,-0.575795 0,-0.319491 0.25454,-0.579327 0.56873,-0.579327 z"
       id="path1948" />
    <path
       inkscape:connector-curvature="0"
       style="fill:url(#linearGradient1475);fill-opacity:1;stroke:none;stroke-width:0.29568586;stroke-miterlimit:4;stroke-dasharray:none;stroke-opacity:1"
       d="m 115.27488,64.770631 v 1.345878 c 0,1.043439 -0.88462,1.921669 -1.8934,1.921669 h -3.02734 c -0.82924,0 -1.51544,0.70972 -1.51544,1.540166 v 2.886042 c 0,0.821383 0.71425,1.304509 1.51544,1.540159 0.9594,0.282103 1.87941,0.333086 3.02734,0 0.76303,-0.220923 1.51543,-0.665531 1.51543,-1.540159 v -1.155122 h -3.02734 v -0.385042 h 3.02734 1.51544 c 0.88085,0 1.20909,-0.614417 1.51543,-1.536631 0.31644,-0.949409 0.30298,-1.862415 0,-3.080328 -0.21769,-0.876898 -0.63345,-1.536632 -1.51543,-1.536632 z m -1.70265,7.308713 c 0.31418,0 0.56873,0.257438 0.56873,0.575793 0,0.319488 -0.25455,0.579328 -0.56873,0.579328 -0.31308,0 -0.56873,-0.25984 -0.56873,-0.579328 0,-0.318355 0.25565,-0.575793 0.56873,-0.575793 z"
       id="path1950" />
    <rect
       style="opacity:1;fill:#ececec;fill-opacity:1;fill-rule:nonzero;stroke:#333333;stroke-width:0.26335409;stroke-linecap:square;stroke-linejoin:miter;stroke-miterlimit:4;stroke-dasharray:none;stroke-dashoffset:0;stroke-opacity:1"
       id="rect5741"
       width="62.91893"
       height="1.7431839"
       x="80.401115"
       y="78.609749" />
  </g>
</svg>
