<?xml version="1.0" encoding="UTF-8" standalone="no"?>
<!-- Created with Inkscape (http://www.inkscape.org/) -->

<svg
   xmlns:dc="http://purl.org/dc/elements/1.1/"
   xmlns:cc="http://creativecommons.org/ns#"
   xmlns:rdf="http://www.w3.org/1999/02/22-rdf-syntax-ns#"
   xmlns:svg="http://www.w3.org/2000/svg"
   xmlns="http://www.w3.org/2000/svg"
   xmlns:sodipodi="http://sodipodi.sourceforge.net/DTD/sodipodi-0.dtd"
   xmlns:inkscape="http://www.inkscape.org/namespaces/inkscape"
   width="132.29167mm"
   height="132.29167mm"
   viewBox="0 0 132.29167 132.29167"
   version="1.1"
   id="svg6682"
   inkscape:version="0.92.1 r15371"
   sodipodi:docname="domine-decorators-em-python.svg">
  <defs
     id="defs6676">
    <clipPath
       id="clipPath4510"
       clipPathUnits="userSpaceOnUse">
      <path
         style="fill:#ececec;stroke:#000000;stroke-width:0.52916676;stroke-miterlimit:4;stroke-dasharray:none"
         d="m 77.343267,258.28386 -4.52729,-4.52755 c -0.36036,-0.36037 -0.918099,-0.43366 -1.3589,-0.17807 -3.15939,1.83012 -6.550023,3.23506 -10.077715,4.17566 -0.0063,0.002 -0.01297,0.003 -0.01905,0.005 -0.530754,0.1516 -0.8636,0.66066 -0.810416,1.19194 v 6.28836 l -19.852217,2.6e-4 v -2.45216 h 9.40435 c 0.620977,0 1.124477,-0.5035 1.124477,-1.12448 0,-0.62097 -0.5035,-1.12448 -1.124477,-1.12448 h -9.40435 v -1.6039 c 0.04577,-0.53499 -0.297392,-1.03902 -0.830792,-1.18136 -3.522662,-0.93954 -6.909064,-2.3421 -10.065808,-4.16878 -0.0079,-0.005 -0.01614,-0.01 -0.02434,-0.014 -0.01588,-0.009 -0.03493,-0.019 -0.05107,-0.0272 -0.475721,-0.23759 -1.041665,-0.10741 -1.368425,0.2876 l -4.452937,4.45267 -14.0374688,-14.03772 4.4584938,-4.45824 c 0.404283,-0.33973 0.524404,-0.92842 0.258762,-1.40653 -0.0032,-0.006 -0.0064,-0.0114 -0.01005,-0.0175 -1.830387,-3.15965 -3.235589,-6.55081 -4.176977,-10.07956 -0.141816,-0.53129 -0.6400266,-0.87339 -1.1750136,-0.83132 h -6.311637 v -19.852 h 6.4008 c 0.5093229,0 0.9551456,-0.34237 1.0863786,-0.83451 0.940859,-3.52636 2.345267,-6.91515 4.173802,-10.07269 0.255323,-0.44078 0.182298,-0.99826 -0.1778,-1.35863 l -4.5270197,-4.5273 14.0372037,-14.03799 4.52755,4.52755 c 0.360363,0.36009 0.91784,0.43312 1.3589,0.1778 3.158861,-1.82986 6.548967,-3.23454 10.076392,-4.17513 0.530754,-0.14155 0.872858,-0.64109 0.830792,-1.17343 v -6.31269 h 19.852216 v 1.66926 H 50.101765 c -0.620978,0 -1.124482,0.5035 -1.124482,1.12447 0,0.62098 0.503504,1.12448 1.124482,1.12448 h 10.447866 v 2.40348 c -0.03572,0.51117 0.284954,0.99721 0.79375,1.15385 0.01905,0.006 0.03784,0.0111 0.05689,0.0159 3.519752,0.94059 6.902977,2.34341 10.056548,4.17009 0.440791,0.25533 0.99853,0.1823 1.35863,-0.1778 l 4.52755,-4.52781 14.037469,14.038 -4.527288,4.52728 c -0.36009,0.36037 -0.433382,0.91784 -0.1778,1.35864 1.82907,3.15807 3.233478,6.54711 4.174069,10.07269 0.131501,0.49212 0.577059,0.83449 1.08638,0.83449 h 6.4008 v 19.85222 h -6.300521 c -0.535249,-0.0474 -1.04299,0.29607 -1.1856,0.83053 -0.940329,3.52636 -2.345,6.91673 -4.175128,10.07692 -0.25532,0.44106 -0.18229,0.99827 0.1778,1.35863 l 4.52755,4.52729 z"
         id="path4512"
         inkscape:connector-curvature="0" />
    </clipPath>
  </defs>
  <sodipodi:namedview
     id="base"
     pagecolor="#ffffff"
     bordercolor="#666666"
     borderopacity="1.0"
     inkscape:pageopacity="0.0"
     inkscape:pageshadow="2"
     inkscape:zoom="0.98994949"
     inkscape:cx="-399.47859"
     inkscape:cy="299.59194"
     inkscape:document-units="mm"
     inkscape:current-layer="layer1"
     showgrid="false"
     inkscape:snap-bbox="true"
     inkscape:bbox-paths="true"
     inkscape:bbox-nodes="true"
     inkscape:snap-bbox-edge-midpoints="true"
     inkscape:snap-bbox-midpoints="true"
     inkscape:object-paths="true"
     inkscape:snap-intersection-paths="true"
     inkscape:snap-smooth-nodes="true"
     fit-margin-top="0"
     fit-margin-left="0"
     fit-margin-right="0"
     fit-margin-bottom="0"
     inkscape:window-width="2560"
     inkscape:window-height="1017"
     inkscape:window-x="-8"
     inkscape:window-y="-8"
     inkscape:window-maximized="1" />
  <metadata
     id="metadata6679">
    <rdf:RDF>
      <cc:Work
         rdf:about="">
        <dc:format>image/svg+xml</dc:format>
        <dc:type
           rdf:resource="http://purl.org/dc/dcmitype/StillImage" />
        <dc:title></dc:title>
      </cc:Work>
    </rdf:RDF>
  </metadata>
  <g
     inkscape:label="Camada 1"
     inkscape:groupmode="layer"
     id="layer1"
     transform="translate(204.90536,-12.051153)">
    <rect
       style="opacity:1;fill:#000000;fill-opacity:0;fill-rule:nonzero;stroke:none;stroke-width:6.14815998;stroke-linecap:square;stroke-linejoin:miter;stroke-miterlimit:4;stroke-dasharray:none;stroke-dashoffset:0;stroke-opacity:1"
       id="rect7259"
       width="132.29167"
       height="132.29167"
       x="-204.90536"
       y="12.051153" />
    <g
       transform="matrix(0.7000003,0,0,0.7000003,-185.06161,-98.215267)"
       id="layer1-3"
       inkscape:label="Camada 1">
      <path
         inkscape:connector-curvature="0"
         id="path4491"
         d="m 78.229851,257.63143 -4.579082,-4.60405 c -0.364483,-0.36646 -0.928604,-0.44099 -1.374446,-0.18108 -3.195531,1.86104 -6.624953,3.28973 -10.192999,4.24622 -0.0064,0.002 -0.01311,0.003 -0.01927,0.005 -0.536825,0.15417 -0.873479,0.67183 -0.819688,1.21208 v 6.39462 l -20.07932,2.6e-4 v -2.49359 h 9.511933 c 0.628081,0 1.137343,-0.512 1.137343,-1.14348 0,-0.63146 -0.509262,-1.14348 -1.137343,-1.14348 h -9.511937 v -1.63101 c 0.0463,-0.54402 -0.300793,-1.05656 -0.840295,-1.20132 -3.562962,-0.95541 -6.988103,-2.38167 -10.180958,-4.23922 -0.008,-0.005 -0.01633,-0.0102 -0.02462,-0.0142 -0.01606,-0.009 -0.03533,-0.0193 -0.05166,-0.0277 -0.481164,-0.24161 -1.05358,-0.10923 -1.38408,0.29246 l -4.503883,4.52791 -14.1980527,-14.27494 4.5094977,-4.53356 c 0.408907,-0.34547 0.530402,-0.94412 0.261722,-1.4303 -0.0032,-0.006 -0.0065,-0.0116 -0.01017,-0.0178 -1.851326,-3.21304 -3.272603,-6.6615 -4.224761,-10.24987 -0.143437,-0.54028 -0.6473478,-0.88816 -1.1884548,-0.84539 H 2.9455133 v -20.18745 h 6.474023 c 0.5151493,0 0.9660727,-0.34817 1.0988057,-0.8486 0.951623,-3.58597 2.372096,-7.03201 4.221549,-10.24291 0.258244,-0.44823 0.184384,-1.01514 -0.179834,-1.38159 l -4.5788066,-4.60379 14.1977846,-14.27521 4.579343,4.60407 c 0.364485,0.36616 0.928338,0.44042 1.374446,0.1808 3.194996,-1.86079 6.623883,-3.28919 10.191661,-4.24569 0.536826,-0.14393 0.882846,-0.65192 0.840296,-1.19325 V 167.666 H 61.2441 v 1.69747 H 50.676713 c -0.628081,0 -1.137343,0.512 -1.137343,1.14347 0,0.63147 0.509262,1.14348 1.137343,1.14348 H 61.2441 v 2.44411 c -0.03613,0.51979 0.288215,1.01405 0.80283,1.17333 0.01927,0.006 0.03828,0.0113 0.05754,0.0162 3.560016,0.95649 6.981945,2.38301 10.171591,4.24056 0.445832,0.25964 1.009953,0.18537 1.374172,-0.18079 l 4.579344,-4.60434 14.198053,14.27523 -4.57908,4.60377 c -0.36421,0.36646 -0.438339,0.93336 -0.179834,1.3816 1.849993,3.21144 3.270469,6.65775 4.221818,10.24291 0.133005,0.50042 0.583663,0.84859 1.098809,0.84859 h 6.474024 v 20.18767 H 93.09077 c -0.541373,-0.0482 -1.054922,0.30108 -1.199164,0.84459 -0.951085,3.58594 -2.371825,7.0336 -4.22289,10.24719 -0.258241,0.44851 -0.184376,1.01513 0.179834,1.38158 l 4.579344,4.6038 z"
         style="fill:none;stroke:#4d4d4d;stroke-width:0.40249684;stroke-miterlimit:4;stroke-dasharray:none" />
      <path
         inkscape:connector-curvature="0"
         id="path4708"
         d="m 51.204467,179.35492 c -20.199547,0 -36.632847,16.52198 -36.632847,36.83055 0,20.30824 16.4333,36.83055 36.632847,36.83088 20.199228,0 36.632522,-16.52233 36.632522,-36.83088 0,-20.30857 -16.432981,-36.83055 -36.632522,-36.83055 z"
         style="fill:none;stroke:#216778;stroke-width:1.34165609;stroke-miterlimit:4;stroke-dasharray:none" />
      <path
         inkscape:connector-curvature="0"
         id="path4485"
         d="m 51.204467,250.26752 c -18.691955,-3.3e-4 -33.898789,-15.28922 -33.898789,-34.08205 0,-18.79285 15.206834,-34.08173 33.898789,-34.08173 18.691635,0 33.898469,15.28888 33.898469,34.08173 0,18.79283 -15.20651,34.08205 -33.898469,34.08205 z"
         style="fill:none;stroke:#216778;stroke-width:0.40249684;stroke-miterlimit:4;stroke-dasharray:none" />
      <path
         inkscape:connector-curvature="0"
         id="path4712"
         d="m 51.204518,187.21894 c -15.886334,4.3e-4 -28.811038,12.99445 -28.811038,28.96653 0,15.97206 12.924704,28.96651 28.811038,28.96651 15.886332,0 28.810625,-12.99445 28.810625,-28.96651 0,-15.97208 -12.924293,-28.96653 -28.810625,-28.96653 z"
         style="fill:none;stroke:#ffcc00;stroke-width:0.40249684;stroke-miterlimit:4;stroke-dasharray:none" />
      <path
         inkscape:connector-curvature="0"
         id="path4489"
         d="m 51.204518,241.53011 c -13.90033,0 -25.2086,-11.36972 -25.2086,-25.34464 0,-13.97493 11.308691,-25.34466 25.2086,-25.34466 13.899903,0 25.208596,11.36973 25.208596,25.34466 0,13.97535 -11.308693,25.34464 -25.208596,25.34464 z"
         style="fill:none;stroke:#4d4d4d;stroke-width:1.40634;stroke-miterlimit:4;stroke-dasharray:none" />
      <path
         inkscape:connector-curvature="0"
         id="path4700"
         d="m 94.130702,241.83418 -4.061789,-4.08372 c 1.600046,-2.90954 2.870384,-5.99156 3.785342,-9.18417 h 5.742652 c 1.180693,0 2.141423,-0.96752 2.141423,-2.157 V 205.9617 c 0,-1.18923 -0.96047,-2.15702 -2.141161,-2.15702 h -5.742914 c -0.915221,-3.1934 -2.185569,-6.27541 -3.785342,-9.18416 l 4.061789,-4.0837 c 0.405163,-0.40736 0.627548,-0.94923 0.626476,-1.52554 -9.99e-4,-0.57497 -0.22453,-1.11551 -0.629156,-1.52177 L 79.746928,173.02999 c -0.404626,-0.40628 -0.941983,-0.6312 -1.513599,-0.63228 -0.002,0 -0.003,0 -0.0051,0 -0.57189,0 -1.109247,0.22385 -1.513075,0.62986 l -4.061779,4.08397 c -2.893405,-1.60867 -5.958607,-2.88588 -9.134872,-3.80604 v -5.77336 c 0,-1.18707 -0.962326,-2.15298 -2.14543,-2.15298 h -20.33727 c -1.182837,0 -2.14543,0.96564 -2.14543,2.15298 v 5.7739 c -3.176532,0.92016 -6.242006,2.19737 -9.13487,3.80578 l -4.062053,-4.08425 c -0.404091,-0.40601 -0.941185,-0.62959 -1.513068,-0.62959 -0.0013,0 -0.0026,0 -0.0037,0 -0.571882,8.1e-4 -1.109779,0.22546 -1.514136,0.63255 L 8.2819255,187.48897 c -0.4048934,0.4068 -0.6288829,0.94734 -0.629954,1.52231 -0.00111,0.57658 0.2213142,1.11818 0.6264757,1.52554 l 4.0617848,4.08396 c -1.599505,2.90822 -2.8695816,5.99023 -3.7850762,9.1839 H 2.812244 c -1.180696,0 -2.14141595,0.96779 -2.14141595,2.1573 v 20.44731 c 0,1.18948 0.96071995,2.157 2.14141595,2.157 h 5.7426439 c 0.9154944,3.19396 2.1858391,6.2757 3.7853441,9.18417 l -4.0612498,4.08318 c -0.4054294,0.40734 -0.6280807,0.94923 -0.6267426,1.52607 0.00111,0.57524 0.2247925,1.11576 0.6294189,1.52204 l 14.3808305,14.45871 c 0.404626,0.40681 0.942254,0.63148 1.51387,0.63255 0.0016,0 0.0029,0 0.0046,0 0.571882,0 1.109244,-0.22358 1.512533,-0.62959 l 4.062053,-4.08371 c 2.8934,1.60841 5.958873,2.88535 9.13487,3.80577 v 5.77337 c 0,1.18734 0.962593,2.15297 2.14543,2.15297 l 20.33783,-2.7e-4 c 1.182837,0 2.145429,-0.96562 2.145429,-2.1527 v -5.77363 c 3.176265,-0.92044 6.242002,-2.19764 9.13487,-3.80605 l 4.061517,4.08397 c 0.405427,0.40763 0.93449,0.62745 1.517888,0.62987 0.571615,-10e-4 1.109509,-0.22601 1.513599,-0.63283 l 14.381367,-14.45869 c 0.836015,-0.84108 0.837078,-2.20813 0.002,-3.04731 z"
         style="fill:none;stroke:#4d4d4d;stroke-width:1.34165609;stroke-miterlimit:4;stroke-dasharray:none" />
      <path
         inkscape:connector-curvature="0"
         id="path4716"
         d="m 130.60167,273.90706 -2.12214,-0.84241 c 0.0985,-1.31594 0.077,-2.63835 -0.0639,-3.95025 l 2.09218,-0.9121 c 0.81648,-0.35596 1.19247,-1.31406 0.83816,-2.13602 l -3.84022,-8.90408 c -0.35458,-0.82089 -1.30672,-1.20052 -2.12347,-0.84429 l -2.09246,0.91236 c -0.85553,-0.99927 -1.801,-1.9189 -2.82409,-2.74625 l 0.83843,-2.1336 c 0.32674,-0.8311 -0.0808,-1.77576 -0.9096,-2.10615 l -8.97806,-3.56577 c -0.82905,-0.32852 -1.76838,0.081 -2.09511,0.91262 l -0.83843,2.13334 c -1.30861,-0.0987 -2.6239,-0.0775 -3.92878,0.0643 l -0.90774,-2.10455 c -0.35458,-0.82088 -1.30834,-1.19864 -2.12428,-0.84134 l -8.855224,3.86092 c -0.39526,0.17221 -0.700604,0.48861 -0.85956,0.89057 -0.159769,0.40413 -0.153082,0.8459 0.0187,1.24412 l 0.907465,2.10374 c -0.994439,0.8607 -1.909133,1.81126 -2.731769,2.83959 l -2.121604,-0.84295 c -0.402221,-0.15955 -0.841366,-0.15175 -1.237437,0.0218 -0.394987,0.173 -0.699531,0.49046 -0.857417,0.89299 l -3.546907,9.02623 c -0.326483,0.83327 0.08081,1.77792 0.907736,2.10643 l 2.122143,0.84268 c -0.09851,1.31486 -0.07707,2.63754 0.06393,3.94971 l -2.092446,0.91238 c -0.816474,0.35568 -1.192466,1.31378 -0.838151,2.136 l 3.840467,8.90355 c 0.354318,0.82169 1.307013,1.20053 2.123226,0.84484 l 2.092709,-0.91238 c 0.856082,0.99982 1.801545,1.91944 2.824081,2.74653 l -0.837351,2.13171 c -0.159494,0.40411 -0.152264,0.84671 0.02084,1.24572 0.172076,0.39632 0.486785,0.70224 0.887933,0.86205 l 8.976186,3.56496 c 0.19295,0.077 0.39473,0.11516 0.59624,0.11516 0.21784,0 0.43567,-0.0449 0.64146,-0.13479 0.3958,-0.17247 0.70086,-0.48915 0.85903,-0.89219 l 0.83816,-2.13333 c 1.30915,0.099 2.62444,0.0775 3.92878,-0.0646 l 0.90774,2.10401 c 0.35405,0.82035 1.30618,1.19837 2.12428,0.84213 l 8.85548,-3.86092 c 0.81729,-0.35623 1.19462,-1.3138 0.84082,-2.13495 0,0 0,-2.6e-4 0,-2.6e-4 l -0.90745,-2.10374 c 0.99444,-0.86044 1.90912,-1.811 2.73148,-2.83933 l 2.12162,0.84268 c 0.40168,0.15955 0.84137,0.15202 1.23797,-0.0218 0.39445,-0.17301 0.69873,-0.48994 0.85716,-0.89273 l 3.54663,-9.02569 c 0.32703,-0.83246 -0.0795,-1.77765 -0.90747,-2.1067 z"
         style="fill:none;stroke:#4d4d4d;stroke-width:1.34165609;stroke-miterlimit:4;stroke-dasharray:none" />
      <path
         inkscape:connector-curvature="0"
         id="path4495"
         d="m 126.08911,283.5847 -2.30277,-0.91451 c -0.47901,-0.19049 -1.02602,-0.0328 -1.33243,0.38366 -1.01022,1.3738 -2.19761,2.60794 -3.52925,3.66829 -0.40381,0.32151 -0.54217,0.87604 -0.33745,1.35118 l 0.98481,2.2832 -7.64669,3.33387 -0.95671,-2.21782 c -0.18223,-0.50771 -0.69686,-0.82277 -1.23769,-0.74152 -1.6814,0.25264 -3.38981,0.28088 -5.07817,0.0837 -0.51221,-0.0589 -0.99979,0.2338 -1.189,0.71568 l -0.9096,2.31494 -7.751596,-3.07851 0.909607,-2.31521 c 0.189473,-0.48188 0.03288,-1.03155 -0.381606,-1.33963 -1.36696,-1.01595 -2.59502,-2.21055 -3.650205,-3.55043 -0.0061,-0.007 -0.01204,-0.015 -0.0179,-0.0221 -0.348157,-0.41999 -0.933155,-0.526 -1.397728,-0.28305 l -2.197616,0.95811 -3.315955,-7.68796 2.206982,-0.9624 c 0.476347,-0.17356 0.786242,-0.64896 0.745563,-1.16422 -0.003,-0.0345 -0.0071,-0.0686 -0.01234,-0.10251 -0.248612,-1.6848 -0.275376,-3.39545 -0.0795,-5.08458 0.06372,-0.54885 -0.271087,-1.05415 -0.777414,-1.21936 l -2.237749,-0.88895 3.062266,-7.79342 2.241502,0.89056 c 0.45092,0.21067 0.99738,0.10149 1.332429,-0.2833 0.026,-0.0296 0.05026,-0.0603 0.07282,-0.0923 1.007556,-1.3668 2.190394,-2.59502 3.515865,-3.65106 0.03561,-0.0283 0.06928,-0.0584 0.101154,-0.0901 0.354317,-0.35623 0.427638,-0.89191 0.211947,-1.32266 l -0.958581,-2.22266 7.646695,-3.33385 0.98454,2.28292 c 0.20499,0.47516 0.70248,0.75307 1.21147,0.67587 1.68087,-0.25238 3.38848,-0.28035 5.07576,-0.0829 0.51275,0.0589 0.9998,-0.23381 1.18926,-0.71568 l 0.90987,-2.31548 7.75159,3.07878 -0.90987,2.31547 c -0.18919,0.48189 -0.0327,1.03156 0.38161,1.33963 1.36776,1.01676 2.59583,2.21109 3.64995,3.54991 0.33664,0.42753 0.91816,0.5494 1.38969,0.31748 l 2.22436,-0.96994 3.3157,7.68795 -2.2027,0.96025 c -0.50873,0.18351 -0.8213,0.70412 -0.74074,1.24547 0.25156,1.69019 0.27938,3.4081 0.0829,5.10558 -0.0597,0.51469 0.23256,1.00545 0.71212,1.19594 l 2.30278,0.91424 z"
         style="fill:none;stroke:#ffcc00;stroke-width:0.40249684;stroke-miterlimit:4;stroke-dasharray:none" />
      <path
         inkscape:connector-curvature="0"
         id="path4720"
         d="m 112.81062,256.3563 c -4.01041,-1.59305 -8.39788,-1.52015 -12.35422,0.2045 -3.956355,1.7249 -7.007646,4.89516 -8.592156,8.92748 -1.584258,4.03206 -1.512003,8.44347 0.203379,12.42116 2.637299,6.11453 8.591627,9.77367 14.833617,9.77314 2.1401,0 4.31522,-0.4305 6.40016,-1.33937 8.16667,-3.56038 11.9298,-13.13739 8.38851,-21.34838 -1.71537,-3.97769 -4.86889,-7.04572 -8.87929,-8.63853 z"
         style="fill:none;stroke:#2c89a0;stroke-width:1.34165609;stroke-miterlimit:4;stroke-dasharray:none" />
      <path
         style="fill:none;stroke:#4d4d4d;stroke-width:0.40249684;stroke-miterlimit:4;stroke-dasharray:none;stroke-opacity:1"
         d="m 106.87391,284.2274 c -7.008921,0 -12.710848,-5.73292 -12.710848,-12.77946 0,-7.04654 5.702139,-12.77947 12.710848,-12.77947 7.00871,0 12.71087,5.73293 12.71087,12.77947 0,7.04675 -5.70216,12.77946 -12.71087,12.77946 z"
         id="path4502"
         inkscape:connector-curvature="0" />
      <g
         id="text4520"
         style="font-style:normal;font-variant:normal;font-weight:normal;font-stretch:normal;font-size:44.81068802px;line-height:1.25;font-family:Calibri;-inkscape-font-specification:Calibri;letter-spacing:0px;word-spacing:0px;fill:none;fill-opacity:1;stroke:#000000;stroke-width:1.12026703"
         aria-label="@" />
    </g>
    <text
       xml:space="preserve"
       style="font-style:normal;font-variant:normal;font-weight:normal;font-stretch:normal;font-size:21.16007042px;line-height:1.25;font-family:Impact;-inkscape-font-specification:Impact;letter-spacing:-0.52900177px;word-spacing:0px;fill:#808080;fill-opacity:1;stroke:none;stroke-width:0.28859335;stroke-miterlimit:4;stroke-dasharray:none;stroke-opacity:1;"
       x="-180.063"
       y="139.17834"
       id="text7274"><tspan
         sodipodi:role="line"
         id="tspan7272"
         x="-180.063"
         y="139.17834"
         style="font-style:normal;font-variant:normal;font-weight:normal;font-stretch:normal;font-family:'Agency FB';-inkscape-font-specification:'Agency FB';fill:#808080;fill-opacity:1;stroke:none;stroke-width:0.28859335;stroke-miterlimit:4;stroke-dasharray:none;stroke-opacity:1;">DECORATORS</tspan></text>
  </g>
</svg>
