<?xml version="1.0" encoding="UTF-8" standalone="no"?>
<!-- Created with Inkscape (http://www.inkscape.org/) -->

<svg
   xmlns:dc="http://purl.org/dc/elements/1.1/"
   xmlns:cc="http://creativecommons.org/ns#"
   xmlns:rdf="http://www.w3.org/1999/02/22-rdf-syntax-ns#"
   xmlns:svg="http://www.w3.org/2000/svg"
   xmlns="http://www.w3.org/2000/svg"
   xmlns:xlink="http://www.w3.org/1999/xlink"
   xmlns:sodipodi="http://sodipodi.sourceforge.net/DTD/sodipodi-0.dtd"
   xmlns:inkscape="http://www.inkscape.org/namespaces/inkscape"
   width="197.556mm"
   height="141.11111mm"
   viewBox="0 0 197.556 141.11111"
   version="1.1"
   id="svg1022"
   inkscape:version="0.92.5 (0.92.5+69)"
   sodipodi:docname="featured_icon.svg">
  <defs
     id="defs1016">
    <linearGradient
       inkscape:collect="always"
       xlink:href="#linearGradient4689"
       id="linearGradient13202"
       gradientUnits="userSpaceOnUse"
       gradientTransform="matrix(0.13015068,0,0,0.13166525,54.731393,38.599773)"
       x1="26.648937"
       y1="20.603781"
       x2="135.66525"
       y2="114.39767" />
    <linearGradient
       id="linearGradient4689">
      <stop
         id="stop4691"
         offset="0"
         style="stop-color:#5a9fd4;stop-opacity:1;" />
      <stop
         id="stop4693"
         offset="1"
         style="stop-color:#306998;stop-opacity:1;" />
    </linearGradient>
    <linearGradient
       inkscape:collect="always"
       xlink:href="#linearGradient4671"
       id="linearGradient13204"
       gradientUnits="userSpaceOnUse"
       gradientTransform="matrix(0.13015068,0,0,0.13166525,54.731393,38.599773)"
       x1="150.96111"
       y1="192.35176"
       x2="112.03144"
       y2="137.27299" />
    <linearGradient
       id="linearGradient4671">
      <stop
         id="stop4673"
         offset="0"
         style="stop-color:#ffd43b;stop-opacity:1;" />
      <stop
         id="stop4675"
         offset="1"
         style="stop-color:#ffe873;stop-opacity:1" />
    </linearGradient>
  </defs>
  <sodipodi:namedview
     id="base"
     pagecolor="#ffffff"
     bordercolor="#666666"
     borderopacity="1.0"
     inkscape:pageopacity="0.0"
     inkscape:pageshadow="2"
     inkscape:zoom="0.35"
     inkscape:cx="-23.808687"
     inkscape:cy="-90.476187"
     inkscape:document-units="mm"
     inkscape:current-layer="layer1"
     showgrid="false"
     fit-margin-top="0"
     fit-margin-left="0"
     fit-margin-right="0"
     fit-margin-bottom="0"
     inkscape:window-width="2560"
     inkscape:window-height="993"
     inkscape:window-x="0"
     inkscape:window-y="384"
     inkscape:window-maximized="1" />
  <metadata
     id="metadata1019">
    <rdf:RDF>
      <cc:Work
         rdf:about="">
        <dc:format>image/svg+xml</dc:format>
        <dc:type
           rdf:resource="http://purl.org/dc/dcmitype/StillImage" />
        <dc:title></dc:title>
      </cc:Work>
    </rdf:RDF>
  </metadata>
  <g
     inkscape:label="Layer 1"
     inkscape:groupmode="layer"
     id="layer1"
     transform="translate(27.718475,16.216272)">
    <rect
       style="fill:none;stroke:none;stroke-width:2.56402016"
       id="rect13299"
       width="197.556"
       height="141.11111"
       x="-27.718475"
       y="-16.216272"
       inkscape:export-xdpi="64.290001"
       inkscape:export-ydpi="64.290001" />
    <path
       style="fill:#ececec;stroke:#4d4d4d;stroke-width:0.29938662;stroke-miterlimit:4;stroke-dasharray:none"
       d="m 91.161268,85.167738 -3.406032,-3.424599 c -0.271112,-0.272581 -0.69072,-0.328018 -1.022349,-0.134691 -2.376908,1.384285 -4.92779,2.446978 -7.581782,3.158438 -0.0043,0.0015 -0.0097,0.0023 -0.01427,0.0038 -0.399298,0.114675 -0.649708,0.499723 -0.609705,0.901573 v 4.756466 l -14.935462,1.94e-4 V 88.57413 h 7.075196 c 0.46718,0 0.845982,-0.380838 0.845982,-0.850548 0,-0.469694 -0.378802,-0.850547 -0.845982,-0.850547 H 63.59167 v -1.213183 c 0.03443,-0.404655 -0.223743,-0.785894 -0.625032,-0.89357 -2.650207,-0.710656 -5.197911,-1.771541 -7.572836,-3.15323 -0.006,-0.0038 -0.01213,-0.0076 -0.01828,-0.01056 -0.01196,-0.0067 -0.02623,-0.01435 -0.03845,-0.02061 -0.357902,-0.179715 -0.783687,-0.08125 -1.029509,0.217538 L 50.95747,85.167385 40.396629,74.549354 43.750892,71.177187 c 0.304152,-0.256969 0.394522,-0.702259 0.194677,-1.063891 -0.0026,-0.0044 -0.0051,-0.0086 -0.0077,-0.01324 -1.377064,-2.389935 -2.434239,-4.954979 -3.142473,-7.624092 -0.106699,-0.401873 -0.48151,-0.660634 -0.884003,-0.62882 H 35.162967 V 46.831208 h 4.815529 c 0.383184,0 0.71859,-0.258977 0.817325,-0.631209 0.707834,-2.667327 1.764418,-5.230572 3.140081,-7.618914 0.192088,-0.333404 0.13715,-0.755084 -0.133766,-1.027659 l -3.405818,-3.424406 10.560636,-10.618232 3.40622,3.424615 c 0.27112,0.272358 0.690531,0.327594 1.022348,0.134483 2.376515,-1.384099 4.926996,-2.446576 7.580791,-3.158043 0.399307,-0.107058 0.656688,-0.484913 0.625041,-0.887567 v -4.774877 h 14.935454 v 1.262618 h -7.860267 c -0.467181,0 -0.845982,0.380838 -0.845982,0.85054 0,0.469702 0.378801,0.850547 0.845982,0.850547 h 7.860267 v 1.817985 c -0.02683,0.386632 0.214387,0.754274 0.597162,0.87275 0.01427,0.0044 0.02854,0.0084 0.04281,0.01205 2.648028,0.711459 5.19334,1.772538 7.565873,3.154227 0.331621,0.193127 0.751228,0.137882 1.022143,-0.134475 l 3.40622,-3.424816 10.560834,10.618248 -3.406016,3.424391 c -0.270907,0.272581 -0.32605,0.694254 -0.133766,1.027666 1.376064,2.388743 2.432652,4.952189 3.140292,7.618913 0.0989,0.372225 0.43415,0.631202 0.81731,0.631202 h 4.81553 v 15.016056 h -4.74009 c -0.40268,-0.03585 -0.78467,0.223951 -0.89197,0.628227 -0.70744,2.667305 -1.764204,5.231754 -3.141072,7.622096 -0.192088,0.333613 -0.137141,0.755078 0.133766,1.027652 l 3.406216,3.424413 z"
       id="path4491-4"
       inkscape:connector-curvature="0" />
    <path
       style="fill:#ffffff;stroke:#808080;stroke-width:0.99795538;stroke-miterlimit:4;stroke-dasharray:none;stroke-opacity:1"
       d="m 71.059158,26.943855 c -15.024893,0 -27.248367,12.289432 -27.248367,27.395418 0,15.10574 12.223474,27.395416 27.248367,27.395662 15.024654,0 27.248118,-12.289692 27.248118,-27.395662 0,-15.105986 -12.223234,-27.395418 -27.248118,-27.395418 z"
       id="path4708-6"
       inkscape:connector-curvature="0" />
    <path
       style="fill:#ffffff;stroke:#808080;stroke-width:0.29938662;stroke-miterlimit:4;stroke-dasharray:none;stroke-opacity:1"
       d="M 71.059158,79.690292 C 57.155648,79.690046 45.84445,68.317815 45.84445,54.339273 c 0,-13.978558 11.311198,-25.350782 25.214708,-25.350782 13.903271,0 25.214468,11.372224 25.214468,25.350782 0,13.978542 -11.310958,25.351019 -25.214468,25.351019 z"
       id="path4485-2"
       inkscape:connector-curvature="0" />
    <path
       style="fill:#ffffff;stroke:#4d4d4d;stroke-width:1.17122912;stroke-miterlimit:4;stroke-dasharray:none"
       d="m 71.0592,75.446664 c -11.576397,0 -20.994101,-9.46887 -20.994101,-21.107391 0,-11.638527 9.418038,-21.107407 20.994101,-21.107407 11.576039,0 20.994085,9.46888 20.994085,21.107407 0,11.638879 -9.418046,21.107391 -20.994085,21.107391 z"
       id="path4489-6"
       inkscape:connector-curvature="0" />
    <path
       style="fill:none;stroke:#4d4d4d;stroke-width:0.99795538;stroke-miterlimit:4;stroke-dasharray:none"
       d="m 102.98869,73.417378 -3.021259,-3.037566 c 1.190159,-2.164183 2.135059,-4.456661 2.815619,-6.831398 h 4.27153 c 0.87822,0 1.59284,-0.719664 1.59284,-1.604428 V 46.734595 c 0,-0.884577 -0.71442,-1.604442 -1.59265,-1.604442 h -4.27172 c -0.68076,-2.375324 -1.62567,-4.667794 -2.815619,-6.831391 l 3.021259,-3.03755 c 0.30137,-0.303005 0.46678,-0.70606 0.46598,-1.134733 -7.4e-4,-0.427676 -0.16701,-0.829741 -0.46798,-1.131927 L 92.289699,22.239225 c -0.300964,-0.3022 -0.700673,-0.469501 -1.125851,-0.470303 -0.0017,0 -0.0026,0 -0.0034,0 -0.425383,0 -0.825083,0.166504 -1.125467,0.468503 l -3.021241,3.037752 c -2.152173,-1.196566 -4.432149,-2.146584 -6.794719,-2.831021 v -4.294355 c 0,-0.882978 -0.715814,-1.60144 -1.595827,-1.60144 H 63.495848 c -0.879833,0 -1.595826,0.718265 -1.595826,1.60144 v 4.294756 c -2.362776,0.684437 -4.642948,1.634456 -6.794736,2.830828 l -3.021438,-3.03796 c -0.300572,-0.301999 -0.700075,-0.468304 -1.125459,-0.468304 -8.54e-4,0 -0.0017,0 -0.0026,0 -0.425375,6.03e-4 -0.825476,0.167703 -1.126244,0.470507 L 39.132941,32.99415 c -0.30117,0.302588 -0.467787,0.704653 -0.468573,1.132329 -8.29e-4,0.428874 0.16461,0.831728 0.465984,1.134733 l 3.02125,3.037744 c -1.189744,2.163201 -2.134461,4.455672 -2.815423,6.831197 h -4.271717 c -0.878236,0 -1.592836,0.719865 -1.592836,1.60465 v 15.209183 c 0,0.884764 0.7146,1.604428 1.592836,1.604428 h 4.271512 c 0.680962,2.375741 1.625884,4.668011 2.815628,6.831398 l -3.020848,3.037164 c -0.301571,0.302989 -0.467181,0.70606 -0.46619,1.135126 8.29e-4,0.427878 0.167207,0.829928 0.468172,1.132128 l 10.696803,10.754725 c 0.300964,0.302594 0.700869,0.46971 1.126048,0.470505 8.54e-4,0 0.0017,0 0.0034,0 0.425375,0 0.825084,-0.166303 1.125057,-0.468303 l 3.021447,-3.037559 c 2.152173,1.196373 4.432345,2.146191 6.794728,2.83082 v 4.294368 c 0,0.88317 0.716001,1.601428 1.595818,1.601428 l 15.127746,-2e-4 c 0.879834,0 1.595826,-0.718251 1.595826,-1.601228 v -4.29456 c 2.36258,-0.684645 4.642948,-1.634656 6.794728,-2.83103 l 3.021045,3.037752 c 0.301571,0.303205 0.695103,0.466712 1.129047,0.468512 0.425178,-7.44e-4 0.82528,-0.168111 1.125852,-0.470713 l 10.697179,-10.75471 c 0.62185,-0.625614 0.62264,-1.642458 0.002,-2.266659 z"
       id="path4700-7"
       inkscape:connector-curvature="0" />
    <path
       inkscape:connector-curvature="0"
       style="fill:url(#linearGradient13202);fill-opacity:1;stroke:#000000;stroke-width:0;stroke-miterlimit:7.69810009;stroke-dasharray:none"
       d="m 70.905898,41.312805 c -1.060477,0.0049 -2.073224,0.09559 -2.964331,0.253534 -2.625075,0.464696 -3.101698,1.437273 -3.101698,3.230942 v 2.368888 h 6.203397 v 0.789594 h -6.203397 -2.32808 c -1.802878,0 -3.381529,1.085785 -3.875314,3.151279 -0.569567,2.367512 -0.594832,3.844898 0,6.317001 0.440959,1.840138 1.494032,3.151244 3.296917,3.151244 h 2.132854 v -2.839728 c 0,-2.051582 1.771592,-3.861212 3.875321,-3.861212 h 6.19618 c 1.724784,0 3.101688,-1.422936 3.101688,-3.158518 v -5.918548 c 0,-1.684452 -1.418243,-2.949794 -3.101688,-3.230942 -1.065657,-0.177721 -2.171354,-0.258478 -3.231849,-0.253534 z m -3.354749,1.905217 c 0.640768,0 1.164038,0.532881 1.164038,1.188081 0,0.652869 -0.52327,1.180807 -1.164038,1.180807 -0.64306,0 -1.164042,-0.527938 -1.164042,-1.180807 0,-0.6552 0.520982,-1.188081 1.164042,-1.188081 z"
       id="path4207" />
    <path
       inkscape:connector-curvature="0"
       style="fill:url(#linearGradient13204);fill-opacity:1;stroke:#000000;stroke-width:0;stroke-miterlimit:7.69810009;stroke-dasharray:none"
       d="m 78.013055,47.955763 v 2.760066 c 0,2.13986 -1.810615,3.940909 -3.875308,3.940909 h -6.19618 c -1.697219,0 -3.101698,1.455458 -3.101698,3.158483 v 5.918549 c 0,1.684486 1.461884,2.675248 3.101698,3.158518 1.963647,0.578539 3.846681,0.683095 6.19618,0 1.561731,-0.453043 3.101688,-1.36485 3.101688,-3.158518 v -2.368853 h -6.196169 v -0.78963 h 6.196169 3.101699 c 1.802885,0 2.474706,-1.26001 3.101702,-3.151244 0.647651,-1.94699 0.620097,-3.819367 0,-6.317001 -0.44555,-1.798294 -1.296515,-3.151279 -3.101702,-3.151279 z m -3.484886,14.988413 c 0.643056,0 1.164038,0.527938 1.164038,1.180807 0,0.655199 -0.520982,1.188046 -1.164038,1.188046 -0.640782,0 -1.164041,-0.532847 -1.164041,-1.188046 0,-0.652869 0.523259,-1.180807 1.164041,-1.180807 z"
       id="path4209" />
    <path
       sodipodi:nodetypes="sssccsssccsssccsssccs"
       id="path2186"
       style="font-style:normal;font-variant:normal;font-weight:bold;font-stretch:normal;font-size:112.41600037px;line-height:1.25;font-family:'MADE TOMMY';-inkscape-font-specification:'MADE TOMMY Bold';fill:#f9f9f9;fill-opacity:1;stroke:#4d4d4d;stroke-width:1.35997999;stroke-miterlimit:4;stroke-dasharray:none;stroke-opacity:0.94902003"
       d="M 13.685399,42.14216 V 28.53982 c 0,-5.05872 1.12416,-8.76845 8.318784,-8.76845 h 2.585568 V 4.14555 h -6.74496 c -13.827169,0 -21.246625,5.28355 -21.246625,19.33555 v 16.63757 c 0,6.29529 -2.697984,7.64429 -7.644288,7.64429 v 13.04025 c 4.946304,0 7.644288,1.34899 7.644288,7.756706 v 16.637568 c 0,13.939584 7.419456,19.335556 21.246625,19.335556 h 6.74496 V 88.794796 h -2.585568 c -7.194624,0 -8.318784,-3.597312 -8.318784,-8.768448 v -13.48992 c 0,-5.620798 -1.798657,-10.647388 -8.318785,-12.221208 v -0.0439 c 6.520128,-1.46141 8.318785,-6.5084 8.318785,-12.1292 z"
       inkscape:connector-curvature="0" />
    <path
       sodipodi:nodetypes="sssccsssccsssccsssccss"
       id="path2192"
       style="font-style:normal;font-variant:normal;font-weight:bold;font-stretch:normal;font-size:112.41600037px;line-height:1.25;font-family:'MADE TOMMY';-inkscape-font-specification:'MADE TOMMY Bold';fill:none;fill-opacity:1;stroke:#4d4d4d;stroke-width:0.56;stroke-miterlimit:4;stroke-dasharray:none;stroke-opacity:0.94902003"
       d="M 10.967276,42.14216 V 29.73641 c 0,-8.11856 2.302019,-12.35432 8.881596,-12.35432 h 2.597725 L 22.394327,6.24758 h -7.038436 c -9.744687,0 -16.506293,5.57829 -16.506293,16.22131 v 17.64978 c 0,6.29529 -2.955694,9.81097 -7.901998,9.81097 v 8.45608 c 4.946304,0 7.901998,3.76648 7.901998,10.174196 v 16.637568 c 0,9.004355 5.125547,17.070336 17.235846,17.070336 h 6.236855 l 0.09021,-11.187359 h -3.126452 c -7.194624,0 -8.318784,-5.882977 -8.318784,-11.054113 v -13.48992 c 0,-5.620798 -3.022013,-9.884218 -9.542141,-11.458038 V 53.4386 c 6.520128,-1.46141 9.542141,-5.67564 9.54214,-11.29644 z"
       inkscape:connector-curvature="0" />
    <path
       sodipodi:nodetypes="sssccsssccsssccsssccs"
       id="path2199"
       style="font-style:normal;font-variant:normal;font-weight:bold;font-stretch:normal;font-size:112.41600037px;line-height:1.25;font-family:'MADE TOMMY';-inkscape-font-specification:'MADE TOMMY Bold';fill:#f9f9f9;fill-opacity:1;stroke:#4d4d4d;stroke-width:1.35997999;stroke-miterlimit:4;stroke-dasharray:none;stroke-opacity:0.94902003"
       d="m 128.66561,66.53642 v 13.60234 c 0,5.05872 -1.12416,8.76845 -8.31878,8.76845 h -2.58557 v 15.62582 h 6.74496 c 13.82717,0 21.24662,-5.28355 21.24662,-19.33555 V 68.55991 c 0,-6.29529 2.69799,-7.64429 7.64429,-7.64429 V 47.87537 c -4.9463,0 -7.64429,-1.34899 -7.64429,-7.756706 V 23.481096 c 0,-13.939584 -7.41945,-19.335552 -21.24662,-19.335552 h -6.74496 v 15.73824 h 2.58557 c 7.19462,0 8.31878,3.597312 8.31878,8.768448 v 13.48992 c 0,5.620798 1.79866,10.647388 8.31878,12.221208 v 0.0439 c -6.52012,1.46141 -8.31878,6.5084 -8.31878,12.1292 z"
       inkscape:connector-curvature="0" />
    <path
       sodipodi:nodetypes="sssccsssccsssccsssccss"
       id="path2201"
       style="font-style:normal;font-variant:normal;font-weight:bold;font-stretch:normal;font-size:112.41600037px;line-height:1.25;font-family:'MADE TOMMY';-inkscape-font-specification:'MADE TOMMY Bold';fill:none;fill-opacity:1;stroke:#4d4d4d;stroke-width:0.56;stroke-miterlimit:4;stroke-dasharray:none;stroke-opacity:0.94902003"
       d="m 131.38373,66.53642 0,12.40575 c 0,8.11856 -2.30202,12.35432 -8.88159,12.35432 h -2.59773 l 0.0523,11.13451 h 7.03844 c 9.74469,0 16.50629,-5.57829 16.50629,-16.22131 V 68.55991 c 0,-6.29529 2.9557,-9.81097 7.902,-9.81097 v -8.45608 c -4.9463,0 -7.902,-3.76648 -7.902,-10.174196 V 23.481096 c 0,-9.004355 -5.12555,-17.070335 -17.23584,-17.070335 h -6.23686 l -0.0902,11.187358 h 3.12645 c 7.19463,0 8.31879,5.882977 8.31879,11.054113 v 13.48992 c 0,5.620798 3.02201,9.884218 9.54214,11.458038 v 1.63979 c -6.52013,1.46141 -9.54214,5.67564 -9.54214,11.29644 z"
       inkscape:connector-curvature="0" />
  </g>
</svg>
