<?xml version="1.0" encoding="UTF-8" standalone="no"?>
<!-- Created with Inkscape (http://www.inkscape.org/) -->

<svg
   xmlns:dc="http://purl.org/dc/elements/1.1/"
   xmlns:cc="http://creativecommons.org/ns#"
   xmlns:rdf="http://www.w3.org/1999/02/22-rdf-syntax-ns#"
   xmlns:svg="http://www.w3.org/2000/svg"
   xmlns="http://www.w3.org/2000/svg"
   xmlns:sodipodi="http://sodipodi.sourceforge.net/DTD/sodipodi-0.dtd"
   xmlns:inkscape="http://www.inkscape.org/namespaces/inkscape"
   width="197.55556mm"
   height="141.1111mm"
   viewBox="0 0 197.55555 141.11109"
   version="1.1"
   id="svg6682"
   inkscape:version="0.91 r13725"
   sodipodi:docname="domine-decorators-em-python.svg">
  <defs
     id="defs6676">
    <clipPath
       id="clipPath4510"
       clipPathUnits="userSpaceOnUse">
      <path
         style="fill:#ececec;stroke:#000000;stroke-width:0.52916676;stroke-miterlimit:4;stroke-dasharray:none"
         d="m 77.343267,258.28386 -4.52729,-4.52755 c -0.36036,-0.36037 -0.918099,-0.43366 -1.3589,-0.17807 -3.15939,1.83012 -6.550023,3.23506 -10.077715,4.17566 -0.0063,0.002 -0.01297,0.003 -0.01905,0.005 -0.530754,0.1516 -0.8636,0.66066 -0.810416,1.19194 l 0,6.28836 -19.852217,2.6e-4 0,-2.45216 9.40435,0 c 0.620977,0 1.124477,-0.5035 1.124477,-1.12448 0,-0.62097 -0.5035,-1.12448 -1.124477,-1.12448 l -9.40435,0 0,-1.6039 c 0.04577,-0.53499 -0.297392,-1.03902 -0.830792,-1.18136 -3.522662,-0.93954 -6.909064,-2.3421 -10.065808,-4.16878 -0.0079,-0.005 -0.01614,-0.01 -0.02434,-0.014 -0.01588,-0.009 -0.03493,-0.019 -0.05107,-0.0272 -0.475721,-0.23759 -1.041665,-0.10741 -1.368425,0.2876 l -4.452937,4.45267 -14.0374688,-14.03772 4.4584938,-4.45824 c 0.404283,-0.33973 0.524404,-0.92842 0.258762,-1.40653 -0.0032,-0.006 -0.0064,-0.0114 -0.01005,-0.0175 -1.830387,-3.15965 -3.235589,-6.55081 -4.176977,-10.07956 -0.141816,-0.53129 -0.6400266,-0.87339 -1.1750136,-0.83132 l -6.311637,0 0,-19.852 6.4008,0 c 0.5093229,0 0.9551456,-0.34237 1.0863786,-0.83451 0.940859,-3.52636 2.345267,-6.91515 4.173802,-10.07269 0.255323,-0.44078 0.182298,-0.99826 -0.1778,-1.35863 l -4.5270197,-4.5273 14.0372037,-14.03799 4.52755,4.52755 c 0.360363,0.36009 0.91784,0.43312 1.3589,0.1778 3.158861,-1.82986 6.548967,-3.23454 10.076392,-4.17513 0.530754,-0.14155 0.872858,-0.64109 0.830792,-1.17343 l 0,-6.31269 19.852216,0 0,1.66926 -10.447866,0 c -0.620978,0 -1.124482,0.5035 -1.124482,1.12447 0,0.62098 0.503504,1.12448 1.124482,1.12448 l 10.447866,0 0,2.40348 c -0.03572,0.51117 0.284954,0.99721 0.79375,1.15385 0.01905,0.006 0.03784,0.0111 0.05689,0.0159 3.519752,0.94059 6.902977,2.34341 10.056548,4.17009 0.440791,0.25533 0.99853,0.1823 1.35863,-0.1778 l 4.52755,-4.52781 14.037469,14.038 -4.527288,4.52728 c -0.36009,0.36037 -0.433382,0.91784 -0.1778,1.35864 1.82907,3.15807 3.233478,6.54711 4.174069,10.07269 0.131501,0.49212 0.577059,0.83449 1.08638,0.83449 l 6.4008,0 0,19.85222 -6.300521,0 c -0.535249,-0.0474 -1.04299,0.29607 -1.1856,0.83053 -0.940329,3.52636 -2.345,6.91673 -4.175128,10.07692 -0.25532,0.44106 -0.18229,0.99827 0.1778,1.35863 l 4.52755,4.52729 z"
         id="path4512"
         inkscape:connector-curvature="0" />
    </clipPath>
  </defs>
  <sodipodi:namedview
     id="base"
     pagecolor="#ffffff"
     bordercolor="#666666"
     borderopacity="1.0"
     inkscape:pageopacity="0.0"
     inkscape:pageshadow="2"
     inkscape:zoom="0.49497475"
     inkscape:cx="207.21855"
     inkscape:cy="-75.37637"
     inkscape:document-units="mm"
     inkscape:current-layer="layer1"
     showgrid="false"
     inkscape:snap-bbox="true"
     inkscape:bbox-paths="true"
     inkscape:bbox-nodes="true"
     inkscape:snap-bbox-edge-midpoints="true"
     inkscape:snap-bbox-midpoints="true"
     inkscape:object-paths="true"
     inkscape:snap-intersection-paths="true"
     inkscape:snap-smooth-nodes="true"
     fit-margin-top="0"
     fit-margin-left="0"
     fit-margin-right="0"
     fit-margin-bottom="0"
     inkscape:window-width="1680"
     inkscape:window-height="1005"
     inkscape:window-x="0"
     inkscape:window-y="1"
     inkscape:window-maximized="1" />
  <metadata
     id="metadata6679">
    <rdf:RDF>
      <cc:Work
         rdf:about="">
        <dc:format>image/svg+xml</dc:format>
        <dc:type
           rdf:resource="http://purl.org/dc/dcmitype/StillImage" />
        <dc:title></dc:title>
      </cc:Work>
    </rdf:RDF>
  </metadata>
  <g
     inkscape:label="Camada 1"
     inkscape:groupmode="layer"
     id="layer1"
     transform="translate(303.89538,115.86509)">
    <g
       id="g5142"
       transform="matrix(1.020203,0,0,1.020203,-68.278682,-112.80586)">
      <path
         inkscape:connector-curvature="0"
         id="path4491"
         d="m -123.81764,89.009576 -3.90749,-3.928788 c -0.31102,-0.312712 -0.79241,-0.376311 -1.17286,-0.154521 -2.72685,1.588087 -5.65329,2.807235 -8.69802,3.62344 -0.005,0.0017 -0.0112,0.0026 -0.0164,0.0043 -0.45809,0.131559 -0.74537,0.573295 -0.69947,1.034308 l 0,5.45674 -17.13435,2.22e-4 0,-2.127862 8.11685,0 c 0.53596,0 0.97053,-0.436907 0.97053,-0.97577 0,-0.538845 -0.43457,-0.975769 -0.97053,-0.975769 l -8.11685,0 0,-1.391795 c 0.0395,-0.46423 -0.25668,-0.901597 -0.71705,-1.025126 -3.04039,-0.815282 -5.96318,-2.032357 -8.68775,-3.617466 -0.007,-0.0043 -0.0139,-0.0087 -0.021,-0.01212 -0.0137,-0.0077 -0.0301,-0.01647 -0.0441,-0.02364 -0.41059,-0.206173 -0.89906,-0.09321 -1.18108,0.249566 l -3.84331,3.863815 -12.11567,-12.181277 3.8481,-3.868637 c 0.34893,-0.294801 0.45261,-0.805649 0.22334,-1.220522 -0.003,-0.0051 -0.006,-0.0099 -0.009,-0.01519 -1.5798,-2.741794 -2.79262,-5.684478 -3.60513,-8.746553 -0.1224,-0.461039 -0.5524,-0.757896 -1.01415,-0.721399 l -5.44752,0 0,-17.226618 5.5245,0 c 0.4396,0 0.82438,-0.297105 0.93765,-0.724138 0.81205,-3.060027 2.02419,-6.000647 3.60239,-8.740614 0.22036,-0.382489 0.15734,-0.866252 -0.15346,-1.178956 l -3.90725,-3.928566 12.11544,-12.181508 3.9077,3.928805 c 0.31103,0.312456 0.79219,0.375825 1.17286,0.154283 2.7264,-1.587874 5.65238,-2.806775 8.69688,-3.622988 0.4581,-0.12282 0.75337,-0.556305 0.71706,-1.018239 l 0,-5.477861 17.13434,0 0,1.448507 -9.0175,0 c -0.53596,0 -0.97053,0.436907 -0.97053,0.975761 0,0.538854 0.43457,0.975769 0.97053,0.975769 l 9.0175,0 0,2.08564 c -0.0308,0.443554 0.24595,0.865322 0.68508,1.001241 0.0164,0.0051 0.0327,0.0096 0.0491,0.01382 3.03788,0.816205 5.95793,2.033501 8.67976,3.61861 0.38044,0.22156 0.86183,0.158182 1.17263,-0.154274 l 3.9077,-3.929035 12.11567,12.181525 -3.90748,3.928549 c -0.31079,0.312712 -0.37405,0.796467 -0.15346,1.178965 1.57866,2.740427 2.7908,5.681278 3.60262,8.740613 0.11349,0.427025 0.49806,0.72413 0.93765,0.72413 l 5.5245,0 0,17.226805 -5.43795,0 c -0.46197,-0.04113 -0.9002,0.256922 -1.02329,0.720717 -0.81159,3.060001 -2.02395,6.002003 -3.60353,8.744265 -0.22037,0.382729 -0.15733,0.866244 0.15346,1.178948 l 3.9077,3.928575 z"
         style="fill:none;stroke:#4d4d4d;stroke-width:0.34346384;stroke-miterlimit:4;stroke-dasharray:none" />
      <path
         inkscape:connector-curvature="0"
         id="path4708"
         d="m -146.8793,22.213646 c -17.23694,0 -31.26002,14.098751 -31.26002,31.428724 0,17.329692 14.02308,31.428724 31.26002,31.429006 17.23667,0 31.25974,-14.09905 31.25974,-31.429006 0,-17.329973 -14.0228,-31.428724 -31.25974,-31.428724 z"
         style="fill:none;stroke:#216778;stroke-width:1.14487946;stroke-miterlimit:4;stroke-dasharray:none" />
      <path
         inkscape:connector-curvature="0"
         id="path4485"
         d="m -146.8793,82.725709 c -15.95046,-2.82e-4 -28.92695,-13.046797 -28.92695,-29.083339 0,-16.036559 12.97649,-29.083066 28.92695,-29.083066 15.95019,0 28.92669,13.046507 28.92669,29.083066 0,16.036542 -12.97622,29.083339 -28.92669,29.083339 z"
         style="fill:none;stroke:#216778;stroke-width:0.34346384;stroke-miterlimit:4;stroke-dasharray:none" />
      <path
         inkscape:connector-curvature="0"
         id="path4712"
         d="m -146.87925,28.924273 c -13.55634,3.67e-4 -24.58541,11.088594 -24.58541,24.718097 0,13.629486 11.02907,24.718079 24.58541,24.718079 13.55633,0 24.58505,-11.088593 24.58505,-24.718079 0,-13.629503 -11.02872,-24.718097 -24.58505,-24.718097 z"
         style="fill:none;stroke:#ffcc00;stroke-width:0.34346384;stroke-miterlimit:4;stroke-dasharray:none" />
      <path
         inkscape:connector-curvature="0"
         id="path4489"
         d="m -146.87925,75.269788 c -11.86161,0 -21.51133,-9.702157 -21.51133,-21.627418 0,-11.925269 9.65007,-21.627435 21.51133,-21.627435 11.86124,0 21.51132,9.702166 21.51132,21.627435 0,11.925628 -9.65008,21.627418 -21.51132,21.627418 z"
         style="fill:none;stroke:#4d4d4d;stroke-width:1.20007634;stroke-miterlimit:4;stroke-dasharray:none" />
      <path
         inkscape:connector-curvature="0"
         id="path4700"
         d="m -110.24892,75.529261 -3.46606,-3.484773 c 1.36537,-2.482807 2.44939,-5.112796 3.23015,-7.837155 l 4.9004,0 c 1.00752,0 1.82735,-0.825617 1.82735,-1.84064 l 0,-17.448604 c 0,-1.014809 -0.8196,-1.840656 -1.82713,-1.840656 l -4.90062,0 c -0.78098,-2.725034 -1.86501,-5.355014 -3.23015,-7.837147 l 3.46606,-3.484756 c 0.34574,-0.347614 0.5355,-0.810009 0.53459,-1.301794 -8.5e-4,-0.490641 -0.1916,-0.951901 -0.53688,-1.298576 l -12.27186,-12.338786 c -0.34528,-0.346692 -0.80383,-0.538624 -1.29161,-0.539545 -0.002,0 -0.003,0 -0.004,0 -0.48801,0 -0.94656,0.191018 -1.29116,0.53748 l -3.46605,3.484986 c -2.46903,-1.372731 -5.08467,-2.462616 -7.79508,-3.247819 l 0,-4.926599 c 0,-1.012966 -0.82119,-1.837209 -1.83077,-1.837209 l -17.35446,0 c -1.00936,0 -1.83077,0.824013 -1.83077,1.837209 l 0,4.927059 c -2.71064,0.785203 -5.32651,1.875089 -7.79509,3.247598 l -3.46628,-3.485225 c -0.34482,-0.346462 -0.80314,-0.53725 -1.29115,-0.53725 -0.001,0 -0.002,0 -0.003,0 -0.488,6.91e-4 -0.94701,0.192392 -1.29206,0.539776 l -12.27146,12.337864 c -0.34551,0.347136 -0.53665,0.808396 -0.53756,1.299037 -9.5e-4,0.492015 0.18885,0.95418 0.53459,1.301794 l 3.46606,3.484978 c -1.36491,2.48168 -2.44871,5.111661 -3.22993,7.836925 l -4.90062,0 c -1.00753,0 -1.82734,0.825847 -1.82734,1.840895 l 0,17.448365 c 0,1.015023 0.81981,1.84064 1.82734,1.84064 l 4.90039,0 c 0.78122,2.725511 1.86525,5.355262 3.23016,7.837155 l -3.4656,3.484312 c -0.34597,0.347597 -0.53596,0.81001 -0.53482,1.302246 9.5e-4,0.490872 0.19182,0.952115 0.5371,1.298807 l 12.27164,12.338095 c 0.34528,0.347144 0.80406,0.538863 1.29184,0.539776 0.001,0 0.002,0 0.004,0 0.48801,0 0.94656,-0.190788 1.2907,-0.53725 l 3.46628,-3.484765 c 2.46903,1.37251 5.0849,2.462165 7.79509,3.247589 l 0,4.926608 c 0,1.013196 0.82141,1.8372 1.83076,1.8372 l 17.35494,-2.3e-4 c 1.00936,0 1.83077,-0.823996 1.83077,-1.83697 l 0,-4.926829 c 2.71041,-0.785442 5.32651,-1.875319 7.79509,-3.247829 l 3.46582,3.484987 c 0.34597,0.347844 0.79743,0.535424 1.29527,0.537489 0.48777,-8.54e-4 0.94678,-0.192862 1.2916,-0.540015 l 12.27209,-12.338078 c 0.7134,-0.717721 0.71431,-1.88427 0.002,-2.60037 z"
         style="fill:none;stroke:#4d4d4d;stroke-width:1.14487946;stroke-miterlimit:4;stroke-dasharray:none" />
      <path
         inkscape:connector-curvature="0"
         id="path4716"
         d="m -79.127043,102.89811 -1.810892,-0.71886 c 0.08405,-1.12293 0.06571,-2.251389 -0.05453,-3.370876 l 1.785327,-0.778325 c 0.696729,-0.303753 1.017574,-1.121331 0.715229,-1.822737 l -3.276986,-7.598145 c -0.302575,-0.700493 -1.115068,-1.024444 -1.812027,-0.720461 l -1.785566,0.778547 c -0.730052,-0.85271 -1.536852,-1.637461 -2.409889,-2.343466 l 0.71546,-1.820671 c 0.278818,-0.709205 -0.06895,-1.515315 -0.776192,-1.797247 l -7.661275,-3.04279 c -0.707455,-0.280337 -1.509017,0.06912 -1.787826,0.778769 l -0.71546,1.82045 c -1.11668,-0.08422 -2.23906,-0.06613 -3.35256,0.05487 l -0.7746,-1.795882 c -0.30258,-0.700484 -1.11645,-1.022839 -1.81272,-0.717943 l -7.55645,3.29465 c -0.33729,0.146953 -0.59785,0.416947 -0.73349,0.759953 -0.13634,0.344858 -0.13063,0.721834 0.0159,1.061649 l 0.77437,1.795191 c -0.84859,0.734463 -1.62912,1.545607 -2.33111,2.423115 l -1.81043,-0.719317 c -0.34323,-0.136149 -0.71797,-0.129493 -1.05595,0.0186 -0.33705,0.147627 -0.59693,0.418526 -0.73166,0.762018 l -3.02669,7.70238 c -0.2786,0.711057 0.069,1.517158 0.7746,1.797486 l 1.81089,0.719087 c -0.0841,1.122015 -0.0658,2.250705 0.0546,3.370415 l -1.78556,0.77857 c -0.69672,0.30351 -1.01757,1.12109 -0.71522,1.82272 l 3.2772,7.59769 c 0.30235,0.70118 1.11532,1.02445 1.81182,0.72093 l 1.78578,-0.77856 c 0.73052,0.85318 1.53731,1.63792 2.40988,2.3437 l -0.71454,1.81906 c -0.1361,0.34484 -0.12993,0.72253 0.0178,1.06301 0.14684,0.3382 0.41539,0.59925 0.7577,0.73562 l 7.65968,3.0421 c 0.16465,0.0657 0.33684,0.0983 0.50879,0.0983 0.18589,0 0.37177,-0.0383 0.54738,-0.11502 0.33775,-0.14718 0.59807,-0.41741 0.73304,-0.76134 l 0.71523,-1.82044 c 1.117138,0.0845 2.239518,0.0661 3.352555,-0.0551 l 0.774604,1.79542 c 0.302123,0.70003 1.114607,1.02261 1.812719,0.71861 l 7.556673,-3.29465 c 0.697421,-0.30398 1.019409,-1.1211 0.717499,-1.82182 0,0 0,-2.2e-4 0,-2.2e-4 l -0.774357,-1.79519 c 0.848589,-0.73424 1.629116,-1.54539 2.330862,-2.4229 l 1.810449,0.71909 c 0.342767,0.13615 0.717969,0.12972 1.056401,-0.0186 0.336597,-0.14764 0.596249,-0.41808 0.731443,-0.7618 l 3.026456,-7.70192 c 0.279065,-0.71036 -0.06784,-1.51692 -0.774374,-1.79771 z"
         style="fill:none;stroke:#4d4d4d;stroke-width:1.14487946;stroke-miterlimit:4;stroke-dasharray:none" />
      <path
         inkscape:connector-curvature="0"
         id="path4495"
         d="m -82.977759,111.15636 -1.96503,-0.78038 c -0.408755,-0.16255 -0.875536,-0.028 -1.137006,0.32739 -0.862054,1.17231 -1.875293,2.22544 -3.011626,3.13027 -0.344584,0.27435 -0.462651,0.74755 -0.287957,1.15301 l 0.840371,1.94833 -6.525173,2.8449 -0.816392,-1.89254 c -0.155503,-0.43325 -0.594654,-0.7021 -1.056162,-0.63277 -1.434794,0.21559 -2.892637,0.23969 -4.333366,0.0714 -0.43709,-0.0503 -0.85316,0.19951 -1.01462,0.61071 l -0.77619,1.97542 -6.61469,-2.627 0.7762,-1.97564 c 0.16168,-0.41121 0.028,-0.88026 -0.32564,-1.14315 -1.16647,-0.86695 -2.21442,-1.88634 -3.11484,-3.0297 -0.005,-0.006 -0.0103,-0.0128 -0.0153,-0.0189 -0.29709,-0.35839 -0.79629,-0.44885 -1.19272,-0.24154 l -1.8753,0.81759 -2.82962,-6.56039 1.88329,-0.82125 c 0.40649,-0.1481 0.67093,-0.55378 0.63622,-0.99346 -0.003,-0.0294 -0.006,-0.0585 -0.0105,-0.0875 -0.21215,-1.4377 -0.23499,-2.89745 -0.0678,-4.33884 0.0544,-0.468352 -0.23133,-0.899541 -0.66339,-1.04052 l -1.90955,-0.758571 2.61313,-6.650382 1.91275,0.759944 c 0.38479,0.179772 0.8511,0.0866 1.13701,-0.241749 0.0222,-0.02526 0.0429,-0.05146 0.0621,-0.07876 0.85978,-1.166335 1.86913,-2.214416 3.0002,-3.11557 0.0304,-0.02415 0.0591,-0.04984 0.0863,-0.07689 0.30235,-0.303983 0.36492,-0.761096 0.18086,-1.12867 l -0.81799,-1.896669 6.52518,-2.844884 0.84014,1.948091 c 0.17492,0.40547 0.59945,0.642619 1.03379,0.576742 1.43434,-0.215364 2.891497,-0.239232 4.331309,-0.07074 0.437546,0.05026 0.853162,-0.199518 1.014835,-0.610714 l 0.776422,-1.975875 6.614688,2.627224 -0.776423,1.975867 c -0.161442,0.411213 -0.0279,0.880265 0.325641,1.143151 1.167155,0.867635 2.215107,1.886796 3.114623,3.029255 0.287266,0.364826 0.783496,0.468822 1.185868,0.270917 l 1.89812,-0.827682 2.829396,6.560381 -1.879636,0.819413 c -0.434117,0.156596 -0.700843,0.600849 -0.632098,1.062801 0.214664,1.442295 0.238404,2.90825 0.07074,4.35676 -0.05094,0.4392 0.198451,0.85798 0.607675,1.02054 l 1.965039,0.78015 z"
         style="fill:none;stroke:#ffcc00;stroke-width:0.34346384;stroke-miterlimit:4;stroke-dasharray:none" />
      <path
         inkscape:connector-curvature="0"
         id="path4720"
         d="m -94.308733,87.921466 c -3.422215,-1.359402 -7.166187,-1.297195 -10.542267,0.174506 -3.37609,1.471914 -5.97985,4.177202 -7.33197,7.618114 -1.3519,3.44069 -1.29024,7.205094 0.17355,10.599384 2.2505,5.21773 7.33152,8.3402 12.658018,8.33974 1.826218,0 3.68232,-0.36736 5.461468,-1.14292 6.968889,-3.03819 10.180092,-11.21057 7.158192,-18.217281 -1.463781,-3.394295 -4.154784,-6.012346 -7.576991,-7.371543 z"
         style="fill:none;stroke:#2c89a0;stroke-width:1.14487946;stroke-miterlimit:4;stroke-dasharray:none" />
      <path
         style="fill:none;stroke:#4d4d4d;stroke-width:0.34346384;stroke-miterlimit:4;stroke-dasharray:none;stroke-opacity:1"
         d="m -99.374724,111.7048 c -5.980946,0 -10.846586,-4.89209 -10.846586,-10.90514 0,-6.013045 4.86582,-10.905143 10.846586,-10.905143 5.980764,0 10.846605,4.892098 10.846605,10.905143 0,6.01322 -4.865841,10.90514 -10.846605,10.90514 z"
         id="path4502"
         inkscape:connector-curvature="0" />
    </g>
    <g
       aria-label="@"
       style="font-style:normal;font-variant:normal;font-weight:normal;font-stretch:normal;font-size:44.81068802px;line-height:1.25;font-family:Calibri;-inkscape-font-specification:Calibri;letter-spacing:0px;word-spacing:0px;fill:none;fill-opacity:1;stroke:#000000;stroke-width:1.12026703"
       id="text4520"
       transform="matrix(0.85333302,0,0,0.85333302,-190.57376,-130.83583)" />
    <rect
       style="opacity:1;fill:#efefef;fill-opacity:0;stroke:none;stroke-width:12;stroke-miterlimit:4;stroke-dasharray:none;stroke-opacity:0"
       id="rect5140"
       width="197.55557"
       height="141.11111"
       x="-303.89539"
       y="-115.8651" />
  </g>
</svg>
