<?xml version="1.0" encoding="UTF-8" standalone="no"?>
<!-- Created with Inkscape (http://www.inkscape.org/) -->

<svg
   xmlns:dc="http://purl.org/dc/elements/1.1/"
   xmlns:cc="http://creativecommons.org/ns#"
   xmlns:rdf="http://www.w3.org/1999/02/22-rdf-syntax-ns#"
   xmlns:svg="http://www.w3.org/2000/svg"
   xmlns="http://www.w3.org/2000/svg"
   xmlns:xlink="http://www.w3.org/1999/xlink"
   xmlns:sodipodi="http://sodipodi.sourceforge.net/DTD/sodipodi-0.dtd"
   xmlns:inkscape="http://www.inkscape.org/namespaces/inkscape"
   width="197.55849mm"
   height="141.10892mm"
   viewBox="0 0 197.55849 141.10892"
   version="1.1"
   id="svg923"
   inkscape:version="0.92.5 (0.92.5+69)"
   sodipodi:docname="featured_img.svg">
  <defs
     id="defs917">
    <linearGradient
       id="c"
       x1="130.72"
       x2="132.96001"
       y1="120.27"
       y2="121.48"
       gradientUnits="userSpaceOnUse"
       xlink:href="#shadow_1_" />
    <linearGradient
       id="b"
       x1="26.649"
       x2="135.67"
       y1="20.604"
       y2="114.4"
       gradientTransform="matrix(0.06352428,0,0,0.06426365,122.73903,97.118253)"
       gradientUnits="userSpaceOnUse"
       xlink:href="#d" />
    <linearGradient
       id="d">
      <stop
         stop-color="#5a9fd4"
         offset="0"
         id="stop8" />
      <stop
         stop-color="#306998"
         offset="1"
         id="stop10" />
    </linearGradient>
    <linearGradient
       id="a"
       x1="150.96001"
       x2="112.03"
       y1="192.35001"
       y2="137.27"
       gradientTransform="matrix(0.06352428,0,0,0.06426365,122.73903,97.118253)"
       gradientUnits="userSpaceOnUse"
       xlink:href="#e" />
    <linearGradient
       id="e">
      <stop
         stop-color="#ffd43b"
         offset="0"
         id="stop3" />
      <stop
         stop-color="#ffe873"
         offset="1"
         id="stop5" />
    </linearGradient>
    <linearGradient
       inkscape:collect="always"
       xlink:href="#d"
       id="linearGradient1558"
       gradientUnits="userSpaceOnUse"
       gradientTransform="matrix(0.15232557,0,0,0.15409853,63.134419,38.251167)"
       x1="26.649"
       y1="20.604"
       x2="135.67"
       y2="114.4" />
    <linearGradient
       inkscape:collect="always"
       xlink:href="#e"
       id="linearGradient1560"
       gradientUnits="userSpaceOnUse"
       gradientTransform="matrix(0.15232557,0,0,0.15409853,63.134419,38.251167)"
       x1="150.96001"
       y1="192.35001"
       x2="112.03"
       y2="137.27" />
  </defs>
  <sodipodi:namedview
     id="base"
     pagecolor="#ffffff"
     bordercolor="#666666"
     borderopacity="1.0"
     inkscape:pageopacity="0.0"
     inkscape:pageshadow="2"
     inkscape:zoom="0.24748737"
     inkscape:cx="-778.81795"
     inkscape:cy="399.1036"
     inkscape:document-units="mm"
     inkscape:current-layer="layer1"
     showgrid="false"
     fit-margin-top="0"
     fit-margin-left="0"
     fit-margin-right="0"
     fit-margin-bottom="0"
     inkscape:window-width="2560"
     inkscape:window-height="993"
     inkscape:window-x="0"
     inkscape:window-y="384"
     inkscape:window-maximized="1" />
  <metadata
     id="metadata920">
    <rdf:RDF>
      <cc:Work
         rdf:about="">
        <dc:format>image/svg+xml</dc:format>
        <dc:type
           rdf:resource="http://purl.org/dc/dcmitype/StillImage" />
        <dc:title></dc:title>
      </cc:Work>
    </rdf:RDF>
  </metadata>
  <g
     inkscape:label="Layer 1"
     inkscape:groupmode="layer"
     id="layer1"
     transform="translate(3.529246,1.0961252)">
    <path
       id="path19"
       d="m 105.76991,92.775159 -3.98637,-4.00817 c -0.31731,-0.319027 -0.80841,-0.383907 -1.19659,-0.157639 -2.781878,1.620188 -5.767455,2.863978 -8.873632,3.696572 -0.005,0.0017 -0.0114,0.0027 -0.0167,0.0044 -0.467336,0.134219 -0.760414,0.584876 -0.713594,1.055192 v 5.566957 l -17.480866,2.27e-4 v -2.170883 h 8.280736 c 0.546786,0 0.990133,-0.445727 0.990133,-0.995472 0,-0.549726 -0.443347,-0.995473 -0.990133,-0.995473 h -8.280736 v -1.419889 c 0.0403,-0.473606 -0.261868,-0.919803 -0.731535,-1.045792 -3.101776,-0.831744 -6.083553,-2.073384 -8.863232,-3.690572 -0.007,-0.0044 -0.0142,-0.0089 -0.0214,-0.01236 -0.014,-0.0079 -0.0307,-0.0168 -0.045,-0.02412 -0.418887,-0.210339 -0.917223,-0.09509 -1.204891,0.254608 l -3.92097,3.94187 -12.359905,-12.426905 3.92577,-3.94677 c 0.355977,-0.300758 0.461746,-0.821924 0.227848,-1.245191 -0.003,-0.0052 -0.006,-0.0101 -0.009,-0.0155 -1.611688,-2.797179 -2.848978,-5.799256 -3.677972,-8.923232 -0.124879,-0.470346 -0.563556,-0.773204 -1.034592,-0.735964 H 40.229723 V 47.906189 h 5.636057 c 0.448476,0 0.841033,-0.303107 0.956592,-0.738764 0.828444,-3.121776 2.065084,-6.121853 3.675172,-8.917132 0.224818,-0.390217 0.160519,-0.883743 -0.156559,-1.202791 l -3.986169,-4.007869 12.359905,-12.427905 3.98657,4.00817 c 0.317317,0.318767 0.808193,0.383417 1.19659,0.157398 2.781479,-1.619987 5.766556,-2.863478 8.872532,-3.696171 0.467347,-0.125299 0.768585,-0.567536 0.731545,-1.038792 v -5.588455 h 17.479866 v 1.477786 h -9.19963 c -0.546785,0 -0.990132,0.445727 -0.990132,0.995473 0,0.549735 0.443347,0.995472 0.990132,0.995472 h 9.19963 v 2.127784 c -0.0314,0.452516 0.250918,0.882793 0.698915,1.021492 0.0167,0.0052 0.0334,0.0098 0.0501,0.0141 3.099276,0.832683 6.078254,2.074584 8.855031,3.691671 0.38813,0.226039 0.87923,0.161379 1.19629,-0.157388 l 3.98657,-4.00837 12.35991,12.427905 -3.98637,4.007869 c -0.31707,0.319028 -0.38161,0.812554 -0.15656,1.202791 1.61059,2.795779 2.84718,5.796056 3.67537,8.917132 0.11579,0.435647 0.50813,0.738754 0.95659,0.738754 h 5.63606 v 17.574866 h -5.54776 c -0.47129,-0.04196 -0.91837,0.262108 -1.04399,0.735274 -0.82798,3.121776 -2.06478,6.123253 -3.67627,8.920832 -0.22482,0.390457 -0.16051,0.883733 0.15656,1.20279 l 3.98657,4.00787 z"
       inkscape:connector-curvature="0"
       style="fill:#ececec;stroke:#4d4d4d;stroke-width:0.35039732" />
    <path
       id="path21"
       d="m 82.240091,24.63068 c -17.584865,0 -31.891756,14.38389 -31.891756,32.063755 0,17.679864 14.305891,32.063754 31.891756,32.063754 17.584865,0 31.890759,-14.38389 31.890759,-32.063754 0,-17.679865 -14.305894,-32.063755 -31.890759,-32.063755 z"
       inkscape:connector-curvature="0"
       style="fill:#ffffff;stroke:#808080;stroke-width:1.16799104" />
    <path
       id="path23"
       d="M 82.240091,86.364208 C 65.967216,86.363921 52.729317,73.05431 52.729317,56.693435 c 0,-16.360875 13.238899,-29.670773 29.510774,-29.670773 16.271875,0 29.510769,13.309898 29.510769,29.670773 0,16.360875 -13.237894,29.670773 -29.510769,29.670773 z"
       inkscape:connector-curvature="0"
       style="fill:#ffffff;stroke:#808080;stroke-width:0.35039732" />
    <path
       id="path25"
       d="m 82.240091,81.397246 c -13.548896,0 -24.571812,-11.081915 -24.571812,-24.703811 0,-13.621896 11.022916,-24.703811 24.571812,-24.703811 13.548896,0 24.571809,11.081915 24.571809,24.703811 0,13.621896 -11.022913,24.703811 -24.571809,24.703811 z"
       inkscape:connector-curvature="0"
       style="fill:#ffffff;stroke:#4d4d4d;stroke-width:1.37078953" />
    <path
       id="path27"
       d="m 119.6198,79.022264 -3.53607,-3.555173 c 1.39299,-2.532981 2.49888,-5.21606 3.29538,-7.995439 h 4.99936 c 1.02789,0 1.86428,-0.842293 1.86428,-1.877785 V 47.793003 c 0,-1.035292 -0.83614,-1.877786 -1.86398,-1.877786 h -4.99956 c -0.79676,-2.780078 -1.90269,-5.463158 -3.29538,-7.995438 l 3.53607,-3.555173 c 0.35272,-0.354637 0.54632,-0.826364 0.54539,-1.32809 -8.7e-4,-0.500546 -0.19547,-0.971122 -0.54773,-1.32479 l -12.5199,-12.587903 c -0.35225,-0.353698 -0.82006,-0.549506 -1.31769,-0.550436 h -0.004 c -0.49787,0 -0.96567,0.194878 -1.31719,0.548336 l -3.53607,3.555372 c -2.518883,-1.400489 -5.187362,-2.51238 -7.952541,-3.313374 v -5.026062 c 0,-1.033392 -0.837784,-1.874285 -1.867786,-1.874285 H 73.397519 c -1.029793,0 -1.867786,0.840653 -1.867786,1.874285 v 5.026562 c -2.765379,0.801064 -5.434058,1.912985 -7.952539,3.313174 l -3.536273,-3.555572 c -0.351787,-0.353458 -0.819364,-0.548096 -1.31719,-0.548096 h -0.003 c -0.497856,7.05e-4 -0.966133,0.196278 -1.31819,0.550676 L 44.883637,31.711306 c -0.352487,0.354148 -0.547496,0.824724 -0.548416,1.32529 -9.7e-4,0.501956 0.192659,0.973453 0.545386,1.32809 l 3.536073,3.555373 c -1.392489,2.53178 -2.498181,5.21486 -3.295175,7.995238 h -4.999561 c -1.027893,0 -1.864286,0.842524 -1.864286,1.878086 v 17.800864 c 0,1.035492 0.836363,1.877785 1.864286,1.877785 h 4.999361 c 0.796994,2.780579 1.902886,5.463458 3.295375,7.995439 l -3.535573,3.554673 c -0.352957,0.354617 -0.546786,0.826374 -0.545626,1.32859 9.7e-4,0.500786 0.195699,0.971342 0.547946,1.32499 l 12.519904,12.586903 c 0.352247,0.354157 0.820294,0.549746 1.31789,0.550676 h 0.004 c 0.497856,0 0.965673,-0.194639 1.31679,-0.548096 l 3.536273,-3.555173 c 2.518881,1.40019 5.18756,2.511881 7.952539,3.313175 v 5.026061 c 0,1.03369 0.838003,1.87429 1.867786,1.87429 l 17.705864,-2.4e-4 c 1.029792,0 1.867786,-0.84063 1.867786,-1.874085 v -5.026361 c 2.765178,-0.801304 5.434058,-1.913185 7.952541,-3.313375 l 3.53577,3.555373 c 0.35296,0.354867 0.81354,0.546236 1.32139,0.548346 0.49763,-8.71e-4 0.9659,-0.196759 1.31769,-0.550916 l 12.5199,-12.586903 c 0.72781,-0.732215 0.72874,-1.922286 0.002,-2.65288 z"
       inkscape:connector-curvature="0"
       style="fill:none;stroke:#4d4d4d;stroke-width:1.16799104" />
    <path
       id="path29"
       d="m 151.36956,106.94415 -1.84748,-0.73337 c 0.0857,-1.1456 0.067,-2.29689 -0.0556,-3.43898 l 1.82138,-0.79404 c 0.7108,-0.30989 1.03809,-1.14399 0.72968,-1.85959 l -3.34318,-7.751538 c -0.30869,-0.714635 -1.13759,-1.045092 -1.84858,-0.735015 l -1.82159,0.794274 c -0.74479,-0.869933 -1.56789,-1.670487 -2.45858,-2.390782 l 0.72991,-1.857485 c 0.28445,-0.723525 -0.0703,-1.545888 -0.79186,-1.833586 l -7.81604,-3.104276 c -0.72175,-0.285998 -1.53949,0.07052 -1.82399,0.794493 l -0.7299,1.857186 c -1.13919,-0.08592 -2.28428,-0.06747 -3.42027,0.05598 l -0.79025,-1.832186 c -0.30869,-0.714635 -1.13899,-1.043492 -1.84928,-0.732445 l -7.70905,3.361175 c -0.34409,0.149919 -0.60991,0.425366 -0.74829,0.775304 -0.1391,0.351817 -0.13327,0.736414 0.0162,1.083091 l 0.79,1.831486 c -0.86572,0.749295 -1.66198,1.576788 -2.37818,2.472082 l -1.84698,-0.733845 c -0.35016,-0.138899 -0.73248,-0.132109 -1.0773,0.01897 -0.34385,0.150609 -0.60898,0.426977 -0.74644,0.777404 l -3.08778,7.857943 c -0.28422,0.72541 0.0704,1.54778 0.79025,1.83378 l 1.84748,0.73362 c -0.0858,1.14469 -0.0671,2.29618 0.0557,3.43847 l -1.82158,0.79429 c -0.7108,0.30964 -1.03809,1.1437 -0.72967,1.85949 l 3.34338,7.75114 c 0.30845,0.71535 1.13779,1.04509 1.84838,0.73549 l 1.82189,-0.79429 c 0.74527,0.87041 1.56839,1.67099 2.45858,2.39098 l -0.72897,1.85579 c -0.13885,0.35181 -0.13255,0.73712 0.0182,1.08449 0.1498,0.34503 0.42377,0.61136 0.773,0.75047 l 7.81434,3.10358 c 0.16798,0.067 0.34364,0.10029 0.51907,0.10029 0.18963,0 0.37927,-0.0391 0.55843,-0.11734 0.34457,-0.15015 0.61015,-0.42584 0.74785,-0.77671 l 0.72967,-1.85719 c 1.13969,0.0862 2.28478,0.0674 3.42027,-0.0562 l 0.79026,1.83168 c 0.30822,0.71417 1.13709,1.0433 1.84928,0.73313 l 7.70924,-3.36117 c 0.71151,-0.31012 1.04,-1.1437 0.73199,-1.85859 v -2.3e-4 l -0.78999,-1.83148 c 0.86572,-0.74907 1.66198,-1.57659 2.37798,-2.47178 l 1.84698,0.73361 c 0.34969,0.1389 0.73247,0.13234 1.07769,-0.019 0.3434,-0.15062 0.6083,-0.42653 0.74622,-0.77719 l 3.08758,-7.85744 c 0.2847,-0.7247 -0.0692,-1.54759 -0.79002,-1.83398 z"
       inkscape:connector-curvature="0"
       style="fill:none;stroke:#4d4d4d;stroke-width:1.16799104" />
    <path
       id="path31"
       d="m 147.43959,115.36918 -2.00468,-0.79615 c -0.41701,-0.16583 -0.89322,-0.0286 -1.15999,0.334 -0.87947,1.19599 -1.91319,2.27038 -3.07248,3.19347 -0.35154,0.27989 -0.47199,0.76265 -0.29377,1.1763 l 0.85734,1.98768 -6.65694,2.90238 -0.83289,-1.93079 c -0.15864,-0.44199 -0.60666,-0.71627 -1.07749,-0.64554 -1.46379,0.21995 -2.95108,0.24453 -4.42087,0.0728 -0.44591,-0.0513 -0.87039,0.20354 -1.03509,0.62305 l -0.79186,2.01528 -6.74825,-2.68008 0.79187,-2.01558 c 0.16495,-0.41952 0.0286,-0.89804 -0.33221,-1.1662 -1.18999,-0.88445 -2.25919,-1.92438 -3.17778,-3.09087 -0.005,-0.006 -0.0105,-0.0131 -0.0156,-0.0193 -0.3031,-0.36563 -0.81237,-0.45792 -1.21679,-0.24642 l -1.91319,0.8341 -2.88677,-6.69285 1.92128,-0.83783 c 0.41471,-0.15109 0.68449,-0.56497 0.64908,-1.01349 -0.003,-0.03 -0.006,-0.0597 -0.0107,-0.0893 -0.21644,-1.46669 -0.23974,-2.95598 -0.0692,-4.42647 0.0555,-0.47781 -0.23601,-0.91771 -0.6768,-1.06149 l -1.94808,-0.77389 2.66588,-6.78465 1.95138,0.775294 c 0.39257,0.183399 0.8683,0.08835 1.15999,-0.246628 0.0226,-0.02577 0.0438,-0.0525 0.0634,-0.08035 0.87715,-1.189891 1.90689,-2.259183 3.06078,-3.178476 0.031,-0.02464 0.0603,-0.05085 0.088,-0.07844 0.30846,-0.310118 0.3723,-0.776464 0.18452,-1.151491 l -0.83452,-1.934986 6.65695,-2.902377 0.85711,1.987384 c 0.17846,0.413657 0.61155,0.655595 1.05469,0.588386 1.46329,-0.219718 2.94988,-0.244068 4.41876,-0.07217 0.44639,0.05128 0.8704,-0.203549 1.0353,-0.623046 l 0.7921,-2.015784 6.74825,2.680279 -0.7921,2.015785 c -0.1647,0.419517 -0.0285,0.898043 0.33221,1.166191 1.19069,0.885153 2.25989,1.924885 3.17758,3.090476 0.29307,0.372197 0.79932,0.478286 1.20979,0.276388 l 1.93648,-0.844393 2.88658,6.692848 -1.91758,0.83597 c -0.44288,0.15976 -0.715,0.61298 -0.64486,1.08429 0.219,1.47139 0.24322,2.96698 0.0722,4.44476 -0.052,0.44807 0.20247,0.87531 0.61996,1.0412 l 2.00468,0.7959 z"
       inkscape:connector-curvature="0"
       style="fill:#ececec;stroke:#808080;stroke-width:0.35039732" />
    <path
       id="path33"
       d="m 135.87968,91.665167 c -3.49137,-1.386889 -7.31094,-1.32339 -10.75492,0.178029 -3.44427,1.501688 -6.10065,4.261567 -7.48004,7.77194 -1.37919,3.510174 -1.31629,7.350644 0.17705,10.813914 2.29598,5.32306 7.47954,8.50864 12.9139,8.50814 1.86309,0 3.75667,-0.37478 5.57176,-1.16599 7.10964,-3.09958 10.38592,-11.43692 7.30274,-18.584861 -1.49339,-3.462873 -4.23867,-6.133753 -7.73004,-7.520442 z"
       inkscape:connector-curvature="0"
       style="fill:#ffffff;stroke:#4d4d4d;stroke-width:0.66799486" />
    <path
       id="path35"
       d="m 130.70972,116.58858 c -6.46365,0 -11.72191,-5.28686 -11.72191,-11.78491 0,-6.498354 5.25856,-11.784913 11.72191,-11.784913 6.46345,0 11.72191,5.286959 11.72191,11.784913 0,6.49855 -5.25856,11.78491 -11.72191,11.78491 z"
       inkscape:connector-curvature="0"
       style="fill:#ffffff;stroke:#4d4d4d;stroke-width:0.37118718" />
    <rect
       id="rect37"
       height="141.10892"
       width="197.55849"
       y="-1.0961251"
       x="-3.5292461"
       style="fill-opacity:0;stroke-width:0.99999231" />
    <path
       style="fill:url(#linearGradient1558);stroke-width:0;stroke-miterlimit:7.69810009"
       inkscape:connector-curvature="0"
       d="m 82.066631,41.433398 c -1.241153,0.0058 -2.426472,0.111874 -3.469418,0.296733 -3.072341,0.543872 -3.630182,1.682161 -3.630182,3.781442 v 2.772509 h 7.260447 v 0.924128 h -9.985181 c -2.110068,0 -3.957704,1.270785 -4.535713,3.688206 -0.666616,2.770898 -0.696165,4.500172 0,7.393523 0.5161,2.153668 1.748574,3.688165 3.858641,3.688165 H 74.0615 v -3.323572 c 0,-2.401139 2.073451,-4.519182 4.535713,-4.519182 h 7.251769 c 2.018651,0 3.630182,-1.665382 3.630182,-3.696679 v -6.926933 c 0,-1.971454 -1.659885,-3.452391 -3.630182,-3.781442 -1.247228,-0.208002 -2.541322,-0.302518 -3.782516,-0.296732 z m -3.926336,2.229835 c 0.749932,0 1.362367,0.623677 1.362367,1.390512 0,0.764107 -0.612435,1.381997 -1.362367,1.381997 -0.752619,0 -1.362368,-0.61789 -1.362368,-1.381997 0,-0.766835 0.609749,-1.390512 1.362368,-1.390512 z"
       id="path63" />
    <path
       style="fill:url(#linearGradient1560);stroke-width:0;stroke-miterlimit:7.69810009"
       inkscape:connector-curvature="0"
       d="m 90.381761,49.203003 v 3.230337 c 0,2.504457 -2.119118,4.612169 -4.535713,4.612169 h -7.251769 c -1.986415,0 -3.630182,1.703445 -3.630182,3.696637 v 6.926933 c 0,1.971496 1.710966,3.131068 3.630182,3.696679 2.298233,0.677113 4.502238,0.799484 7.251769,0 1.82784,-0.530234 3.630182,-1.597398 3.630182,-3.696679 v -2.772467 h -7.251769 v -0.92417 h 10.881993 c 2.110067,0 2.896368,-1.474696 3.630182,-3.688165 0.757991,-2.278726 0.725755,-4.470002 0,-7.393522 -0.521473,-2.104695 -1.517429,-3.688207 -3.630182,-3.688207 z M 86.30309,66.745364 c 0.752619,0 1.362368,0.617891 1.362368,1.381998 0,0.766835 -0.609749,1.39047 -1.362368,1.39047 -0.749973,0 -1.362367,-0.623635 -1.362367,-1.39047 0,-0.764107 0.612394,-1.381998 1.362367,-1.381998 z"
       id="path65" />
    <path
       style="fill:url(#b);stroke-width:0;stroke-miterlimit:7.69810009"
       inkscape:connector-curvature="0"
       d="m 130.63432,98.445338 c -0.5176,0.0024 -1.01191,0.04665 -1.44685,0.123746 -1.28126,0.226811 -1.51389,0.701511 -1.51389,1.576976 v 1.15622 h 3.02782 v 0.38538 h -4.16412 c -0.87996,0 -1.65048,0.52996 -1.89152,1.5381 -0.278,1.15554 -0.29033,1.8767 0,3.08331 0.21522,0.89815 0.7292,1.53808 1.60916,1.53808 h 1.04102 v -1.38603 c 0,-1.00135 0.86469,-1.88463 1.89153,-1.88463 h 3.0242 c 0.84184,0 1.5139,-0.69452 1.5139,-1.54163 v -2.88873 c 0,-0.822158 -0.69222,-1.439753 -1.5139,-1.576977 -0.52013,-0.08674 -1.0598,-0.126159 -1.57742,-0.123746 z m -1.6374,0.929907 c 0.31275,0 0.56815,0.260092 0.56815,0.579885 0,0.31866 -0.2554,0.57633 -0.56815,0.57633 -0.31386,0 -0.56815,-0.25767 -0.56815,-0.57633 0,-0.319793 0.25429,-0.579885 0.56815,-0.579885 z"
       id="path69" />
    <path
       style="fill:url(#a);stroke-width:0;stroke-miterlimit:7.69810009"
       inkscape:connector-curvature="0"
       d="m 134.10198,101.68549 v 1.34715 c 0,1.04443 -0.88374,1.92341 -1.89153,1.92341 h -3.0242 c -0.8284,0 -1.5139,0.71039 -1.5139,1.54161 v 2.88873 c 0,0.82218 0.71353,1.30575 1.5139,1.54163 0.95843,0.28237 1.87756,0.33341 3.0242,0 0.76226,-0.22112 1.51389,-0.66616 1.51389,-1.54163 v -1.1562 h -3.0242 v -0.3854 h 4.53811 c 0.87996,0 1.20787,-0.61499 1.5139,-1.53808 0.3161,-0.95029 0.30266,-1.86412 0,-3.08332 -0.21747,-0.87772 -0.63282,-1.53809 -1.5139,-1.53809 z m -1.70093,7.31569 c 0.31386,0 0.56815,0.25768 0.56815,0.57633 0,0.31979 -0.25429,0.57987 -0.56815,0.57987 -0.31276,0 -0.56815,-0.26008 -0.56815,-0.57987 0,-0.31865 0.25539,-0.57633 0.56815,-0.57633 z"
       id="path71" />
  </g>
</svg>
