<?xml version="1.0" encoding="UTF-8" standalone="no"?>
<!-- Created with Inkscape (http://www.inkscape.org/) -->

<svg
   xmlns:dc="http://purl.org/dc/elements/1.1/"
   xmlns:cc="http://creativecommons.org/ns#"
   xmlns:rdf="http://www.w3.org/1999/02/22-rdf-syntax-ns#"
   xmlns:svg="http://www.w3.org/2000/svg"
   xmlns="http://www.w3.org/2000/svg"
   xmlns:sodipodi="http://sodipodi.sourceforge.net/DTD/sodipodi-0.dtd"
   xmlns:inkscape="http://www.inkscape.org/namespaces/inkscape"
   width="197.556mm"
   height="141.11099mm"
   viewBox="0 0 197.556 141.11099"
   version="1.1"
   id="svg1352"
   inkscape:version="0.92.5 (0.92.5+69)"
   sodipodi:docname="featured_icon.svg">
  <defs
     id="defs1346">
    <filter
       inkscape:collect="always"
       style="color-interpolation-filters:sRGB"
       id="filter4623"
       x="-0.22799616"
       width="1.4559923"
       y="-0.087856948"
       height="1.1757139">
      <feGaussianBlur
         inkscape:collect="always"
         stdDeviation="4.2016529"
         id="feGaussianBlur4625" />
    </filter>
  </defs>
  <sodipodi:namedview
     id="base"
     pagecolor="#ffffff"
     bordercolor="#666666"
     borderopacity="1.0"
     inkscape:pageopacity="0.0"
     inkscape:pageshadow="2"
     inkscape:zoom="0.35"
     inkscape:cx="-6.6658341"
     inkscape:cy="-161.90499"
     inkscape:document-units="mm"
     inkscape:current-layer="layer1"
     showgrid="false"
     fit-margin-top="0"
     fit-margin-left="0"
     fit-margin-right="0"
     fit-margin-bottom="0"
     inkscape:window-width="2560"
     inkscape:window-height="993"
     inkscape:window-x="0"
     inkscape:window-y="384"
     inkscape:window-maximized="1" />
  <metadata
     id="metadata1349">
    <rdf:RDF>
      <cc:Work
         rdf:about="">
        <dc:format>image/svg+xml</dc:format>
        <dc:type
           rdf:resource="http://purl.org/dc/dcmitype/StillImage" />
        <dc:title></dc:title>
      </cc:Work>
    </rdf:RDF>
  </metadata>
  <g
     inkscape:label="Layer 1"
     inkscape:groupmode="layer"
     id="layer1"
     transform="translate(32.254189,35.115021)">
    <rect
       style="fill:none;fill-opacity:0.33723001;stroke:none;stroke-width:14.17650032;stroke-miterlimit:4;stroke-dasharray:none"
       id="rect4506"
       width="197.556"
       height="141.11099"
       x="-32.254189"
       y="-35.115021"
       inkscape:export-xdpi="64.290001"
       inkscape:export-ydpi="64.290001" />
    <circle
       style="fill:#77ccac;fill-opacity:0.175083;stroke:#ccece2;stroke-width:0.88376707;stroke-miterlimit:4;stroke-dasharray:none;stroke-opacity:1"
       id="circle4603"
       cx="66.523811"
       cy="35.440475"
       r="60.323132"
       inkscape:export-xdpi="64.290001"
       inkscape:export-ydpi="64.290001" />
    <circle
       style="fill:#49bb90;fill-opacity:0.309739;stroke:#b0e1cf;stroke-width:1.32599998;stroke-miterlimit:4;stroke-dasharray:none;stroke-opacity:0.99710083"
       id="circle4512"
       cx="66.523811"
       cy="35.440475"
       r="45.978966"
       inkscape:export-xdpi="64.290001"
       inkscape:export-ydpi="64.290001" />
    <circle
       style="fill:#3ca27c;fill-opacity:0.63935601;stroke:#6dc7a6;stroke-width:1.62716007;stroke-miterlimit:4;stroke-dasharray:none;stroke-opacity:1"
       id="circle4510"
       cx="66.523811"
       cy="35.440475"
       r="32.899513"
       inkscape:export-xdpi="64.290001"
       inkscape:export-ydpi="64.290001" />
    <path
       id="path4605"
       d="m 243.49251,-46.434406 -11.24988,19.485364 h 11.05717 v 76.473959 h 22.11433 v -76.473959 h 11.05717 l -22.11433,-38.303154 z"
       style="opacity:0.27890499;fill:#000000;fill-opacity:1;stroke:#000000;stroke-width:3;stroke-linecap:butt;stroke-linejoin:miter;stroke-miterlimit:4;stroke-dasharray:none;stroke-opacity:1;filter:url(#filter4623)"
       inkscape:connector-curvature="0"
       transform="matrix(0.88376678,0,0,0.88376678,-158.26843,43.052924)" />
    <path
       id="path4551"
       d="M 56.922162,2.0157385 46.979891,19.236256 h 9.77196 V 86.8214 h 19.54391 V 19.236256 h 9.77196 L 66.52381,-14.614799 Z"
       style="fill:#e6e6e6;fill-opacity:1;stroke:#4d4d4d;stroke-width:1.76753354;stroke-linecap:butt;stroke-linejoin:miter;stroke-miterlimit:4;stroke-dasharray:none;stroke-opacity:1"
       inkscape:connector-curvature="0" />
    <path
       sodipodi:nodetypes="cccccccc"
       id="path4631"
       d="M 60.231683,16.147501 V 83.617444 H 72.603048 V 16.147501 h 7.640278 L 66.523802,-7.615406 52.804286,16.147501 Z"
       style="fill:none;stroke:#4d4d4d;stroke-width:0.75120181;stroke-linecap:butt;stroke-linejoin:miter;stroke-miterlimit:4;stroke-dasharray:none;stroke-opacity:1"
       inkscape:connector-curvature="0" />
    <path
       style="fill:#092e20;stroke-width:0.11765675"
       id="path4388"
       d="m 96.178534,44.852641 c 0,1.81944 -1.474945,3.294381 -3.294382,3.294381 H 40.16346 c -1.819437,0 -3.294382,-1.474941 -3.294382,-3.294381 V 26.028309 c 0,-1.819439 1.474945,-3.294381 3.294382,-3.294381 h 52.720692 c 1.819437,0 3.294382,1.474942 3.294382,3.294381 z"
       inkscape:connector-curvature="0" />
    <path
       id="path4390"
       d="m 47.098721,26.724718 h 2.808695 v 13.000571 c -1.440821,0.273551 -2.498671,0.382971 -3.647586,0.382971 -3.428745,0 -5.216065,-1.550006 -5.216065,-4.523068 0,-2.863288 1.896858,-4.723554 4.833093,-4.723554 0.455919,0 0.802417,0.03659 1.22198,0.145776 v -4.282696 z m 0,6.544054 c -0.328262,-0.109303 -0.601813,-0.145777 -0.948312,-0.145777 -1.422584,0 -2.243356,0.875482 -2.243356,2.407252 0,1.495767 0.784298,2.316421 2.22512,2.316421 0.309907,0 0.565339,-0.01824 0.966548,-0.07271 z"
       inkscape:connector-curvature="0"
       style="fill:#ffffff;stroke-width:0.11765648" />
    <path
       id="path4392"
       d="m 54.375539,31.062007 v 6.511227 c 0,2.243121 -0.164131,3.319089 -0.656524,4.249399 -0.456036,0.893719 -1.057967,1.458823 -2.298066,2.07899 l -2.608091,-1.240217 c 1.240217,-0.583576 1.84203,-1.093852 2.225002,-1.878503 0.401326,-0.8023 0.529101,-1.732727 0.529101,-4.17657 v -5.544326 z m -2.808578,-4.322346 h 2.808578 v 2.88176 h -2.808578 z"
       inkscape:connector-curvature="0"
       style="fill:#ffffff;stroke-width:0.11765648" />
    <path
       id="path4394"
       d="m 56.072027,31.700411 c 1.240335,-0.583694 2.425724,-0.838891 3.720651,-0.838891 1.440822,0 2.389133,0.382972 2.808696,1.130796 0.23696,0.419328 0.309907,0.966431 0.309907,2.133936 v 5.708339 c -1.258571,0.182603 -2.845169,0.310143 -4.012321,0.310143 -2.352659,0 -3.410626,-0.820889 -3.410626,-2.644447 0,-1.97004 1.404347,-2.88176 4.851447,-3.173784 v -0.620167 c 0,-0.510511 -0.255315,-0.692761 -0.966666,-0.692761 -1.039495,0 -2.206765,0.29167 -3.301205,0.857127 v -2.170291 z m 4.395411,4.468357 c -1.860384,0.182603 -2.462197,0.474274 -2.462197,1.203744 0,0.547103 0.346616,0.802535 1.11256,0.802535 0.419563,0 0.802417,-0.03659 1.349637,-0.12754 z"
       inkscape:connector-curvature="0"
       style="fill:#ffffff;stroke-width:0.11765648" />
    <path
       id="path4396"
       d="m 64.279273,31.499924 c 1.659544,-0.437917 3.027419,-0.638404 4.41353,-0.638404 1.440821,0 2.480434,0.328026 3.100719,0.966666 0.583576,0.601577 0.765826,1.2581 0.765826,2.662801 V 39.99884 H 69.75077 v -5.39855 c 0,-1.075969 -0.364735,-1.477412 -1.367757,-1.477412 -0.382972,0 -0.72947,0.03659 -1.295045,0.200721 v 6.675123 H 64.27939 v -8.498798 z"
       inkscape:connector-curvature="0"
       style="fill:#ffffff;stroke-width:0.11765648" />
    <path
       id="path4398"
       d="m 73.6512,41.530845 c 0.98502,0.510511 1.969805,0.747589 3.0093,0.747589 1.841912,0 2.62621,-0.747589 2.62621,-2.535026 0,-0.01812 0,-0.03647 0,-0.05495 -0.547103,0.273669 -1.094323,0.383207 -1.823676,0.383207 -2.462197,0 -4.030911,-1.623306 -4.030911,-4.194689 0,-3.191785 2.316421,-4.997223 6.419809,-4.997223 1.203861,0 2.31642,0.127539 3.666058,0.400855 l -0.961724,2.02628 c -0.747825,-0.146011 -0.05989,-0.01965 -0.624991,-0.07436 v 0.291788 l 0.03636,1.185272 0.01812,1.532122 c 0.01824,0.382737 0.01824,0.765944 0.03659,1.148798 0,0.346499 0,0.510865 0,0.766179 0,2.407487 -0.200605,3.538284 -0.802418,4.468241 -0.875481,1.367991 -2.38925,2.042751 -4.541304,2.042751 -1.094323,0 -2.042517,-0.164248 -3.027537,-0.54722 V 41.53084 Z m 5.580917,-8.389613 c -0.03647,0 -0.07283,0 -0.09107,0 h -0.200722 c -0.546985,-0.01824 -1.185271,0.12754 -1.623189,0.401091 -0.674642,0.383207 -1.021376,1.076086 -1.021376,2.061106 0,1.404465 0.693232,2.206765 1.933332,2.206765 0.382972,0 0.693114,-0.07295 1.057731,-0.182368 v -0.200604 -0.765943 c 0,-0.328262 -0.01812,-0.693232 -0.01812,-1.076087 l -0.01812,-1.294927 -0.01835,-0.930074 v -0.218959 z"
       inkscape:connector-curvature="0"
       style="fill:#ffffff;stroke-width:0.11765648" />
    <path
       id="path4400"
       d="m 87.878221,30.825164 c 2.808578,0 4.523068,1.769201 4.523068,4.632253 0,2.936353 -1.787202,4.778383 -4.632488,4.778383 -2.808813,0 -4.541423,-1.769083 -4.541423,-4.614016 1.18e-4,-2.954825 1.787555,-4.79662 4.650843,-4.79662 z m -0.05494,7.149161 c 1.076204,0 1.714608,-0.893719 1.714608,-2.444078 0,-1.53177 -0.620168,-2.443843 -1.696019,-2.443843 -1.112677,0 -1.751199,0.893954 -1.751199,2.443843 1.18e-4,1.550477 0.638522,2.444078 1.73261,2.444078 z"
       inkscape:connector-curvature="0"
       style="fill:#ffffff;stroke-width:0.11765648" />
  </g>
</svg>
