<?xml version="1.0" encoding="UTF-8" standalone="no"?>
<!-- Created with Inkscape (http://www.inkscape.org/) -->

<svg
   xmlns:dc="http://purl.org/dc/elements/1.1/"
   xmlns:cc="http://creativecommons.org/ns#"
   xmlns:rdf="http://www.w3.org/1999/02/22-rdf-syntax-ns#"
   xmlns:svg="http://www.w3.org/2000/svg"
   xmlns="http://www.w3.org/2000/svg"
   xmlns:sodipodi="http://sodipodi.sourceforge.net/DTD/sodipodi-0.dtd"
   xmlns:inkscape="http://www.inkscape.org/namespaces/inkscape"
   width="197.55556mm"
   height="141.11111mm"
   viewBox="0 0 197.55556 141.11111"
   version="1.1"
   id="svg2973"
   inkscape:version="0.92.5 (0.92.5+69)"
   sodipodi:docname="featured_icon.svg">
  <defs
     id="defs2967" />
  <sodipodi:namedview
     id="base"
     pagecolor="#ffffff"
     bordercolor="#666666"
     borderopacity="1.0"
     inkscape:pageopacity="0.0"
     inkscape:pageshadow="2"
     inkscape:zoom="0.35"
     inkscape:cx="19.047624"
     inkscape:cy="-70.476182"
     inkscape:document-units="mm"
     inkscape:current-layer="layer1"
     showgrid="false"
     fit-margin-top="0"
     fit-margin-left="0"
     fit-margin-right="0"
     fit-margin-bottom="0"
     inkscape:window-width="2560"
     inkscape:window-height="993"
     inkscape:window-x="0"
     inkscape:window-y="384"
     inkscape:window-maximized="1" />
  <metadata
     id="metadata2970">
    <rdf:RDF>
      <cc:Work
         rdf:about="">
        <dc:format>image/svg+xml</dc:format>
        <dc:type
           rdf:resource="http://purl.org/dc/dcmitype/StillImage" />
        <dc:title></dc:title>
      </cc:Work>
    </rdf:RDF>
  </metadata>
  <g
     inkscape:label="Layer 1"
     inkscape:groupmode="layer"
     id="layer1"
     transform="translate(39.057541,10.924604)">
    <circle
       style="fill:none;fill-opacity:0.17254902;stroke:#74cbae;stroke-width:24.34659958;stroke-miterlimit:4;stroke-dasharray:none;stroke-opacity:0.17254902"
       id="circle4603"
       cx="59.72023"
       cy="59.630951"
       r="48.62331"
       inkscape:export-xdpi="64.290001"
       inkscape:export-ydpi="64.290001" />
    <circle
       style="fill:none;fill-opacity:0.309739;stroke:#54c098;stroke-width:22.36700058;stroke-miterlimit:4;stroke-dasharray:none;stroke-opacity:0.42745104"
       id="circle4512"
       cx="59.72023"
       cy="59.630951"
       r="37.453056"
       inkscape:export-xdpi="64.290001"
       inkscape:export-ydpi="64.290001" />
    <circle
       style="fill:#3ca27c;fill-opacity:0.63935601;stroke:#40a881;stroke-width:20.74430084;stroke-miterlimit:4;stroke-dasharray:none;stroke-opacity:0.79215698"
       id="circle4510"
       cx="59.72023"
       cy="59.630951"
       r="27.656975"
       inkscape:export-xdpi="64.290001"
       inkscape:export-ydpi="64.290001" />
    <rect
       style="fill:none;fill-opacity:1;stroke:none;stroke-width:0.56444401;stroke-linecap:round;stroke-linejoin:round;stroke-miterlimit:4;stroke-dasharray:none;stroke-dashoffset:0;stroke-opacity:1"
       id="rect6917-1"
       width="197.55556"
       height="141.11111"
       x="-39.057541"
       y="-10.924604"
       inkscape:export-xdpi="64.290001"
       inkscape:export-ydpi="64.290001" />
    <g
       id="g20858"
       transform="translate(-425.78196,13.537555)"
       inkscape:export-xdpi="64.290001"
       inkscape:export-ydpi="64.290001">
      <g
         id="g7860"
         transform="matrix(0.26109936,0,0,0.26109936,455.65271,-16.625299)">
        <path
           inkscape:connector-curvature="0"
           style="fill:#d1d1d1;fill-opacity:0.98039198;stroke:none;stroke-width:0.84918398px;stroke-linecap:butt;stroke-linejoin:miter;stroke-opacity:1"
           d="m 4.6659736,252.70813 220.6653964,-0.42333 0.70764,44.6267 -19.0277,15.79699 -30.24003,8.59705 -37.68279,3.99952 -34.92179,0.68328 -34.969428,-1.89562 -35.255579,-6.7899 L 11.62647,305.1158 2.6052749,294.46259 Z"
           id="path2262" />
        <path
           inkscape:connector-curvature="0"
           id="path2264"
           d="M 223.45659,252.02043 A 109.13445,33.961525 0 0 1 114.32214,285.98195 109.13445,33.961525 0 0 1 5.1876971,252.02043 109.13445,33.961525 0 0 1 114.32214,218.0589 109.13445,33.961525 0 0 1 223.45659,252.02043 Z"
           style="fill:#ececec;fill-opacity:1;stroke:none;stroke-width:2.95495009;stroke-linecap:round;stroke-linejoin:round;stroke-miterlimit:4;stroke-dasharray:none;stroke-dashoffset:0;stroke-opacity:1" />
        <path
           inkscape:connector-curvature="0"
           style="fill:none;fill-opacity:0.98000004;stroke:#4d4d4d;stroke-width:5.58158016;stroke-linecap:round;stroke-linejoin:round;stroke-miterlimit:4;stroke-dasharray:none;stroke-dashoffset:0;stroke-opacity:1"
           d="M 114.32215,219.80412 A 111.05762,33.961525 0 0 0 3.2641162,253.76467 V 292.9876 A 111.05762,33.961525 0 0 0 114.32215,326.94999 111.05762,33.961525 0 0 0 225.38017,292.9876 V 253.76467 A 111.05762,33.961525 0 0 0 114.32215,219.80412 Z"
           id="path2266" />
        <path
           inkscape:connector-curvature="0"
           style="fill:#d1d1d1;fill-opacity:0.98039198;stroke:none;stroke-width:0.84918398px;stroke-linecap:butt;stroke-linejoin:miter;stroke-opacity:1"
           d="m 4.6659736,178.74501 220.6653964,-0.42334 0.70764,44.62671 -19.0277,15.79699 -30.24003,8.59705 -37.68279,3.99952 -34.92179,0.68328 L 69.197272,250.1296 33.941693,243.3397 11.62647,231.15268 2.6052749,220.49947 Z"
           id="path2254" />
        <path
           inkscape:connector-curvature="0"
           id="path2256"
           d="M 223.45659,178.05731 A 109.13445,33.961525 0 0 1 114.32214,212.01883 109.13445,33.961525 0 0 1 5.1876971,178.05731 109.13445,33.961525 0 0 1 114.32214,144.09578 109.13445,33.961525 0 0 1 223.45659,178.05731 Z"
           style="fill:#ececec;fill-opacity:1;stroke:none;stroke-width:2.95495009;stroke-linecap:round;stroke-linejoin:round;stroke-miterlimit:4;stroke-dasharray:none;stroke-dashoffset:0;stroke-opacity:1" />
        <path
           inkscape:connector-curvature="0"
           style="fill:none;fill-opacity:0.98000004;stroke:#4d4d4d;stroke-width:5.58158016;stroke-linecap:round;stroke-linejoin:round;stroke-miterlimit:4;stroke-dasharray:none;stroke-dashoffset:0;stroke-opacity:1"
           d="M 114.32215,145.841 A 111.05762,33.961525 0 0 0 3.2641162,179.80155 v 39.22293 A 111.05762,33.961525 0 0 0 114.32215,252.98687 111.05762,33.961525 0 0 0 225.38017,219.02448 V 179.80155 A 111.05762,33.961525 0 0 0 114.32215,145.841 Z"
           id="path2258" />
        <path
           inkscape:connector-curvature="0"
           style="fill:#d1d1d1;fill-opacity:0.98039198;stroke:none;stroke-width:0.84918398px;stroke-linecap:butt;stroke-linejoin:miter;stroke-opacity:1"
           d="m 4.6659736,104.78189 220.6653964,-0.42333 0.70764,44.62671 -19.0277,15.79698 -30.24003,8.59706 -37.68279,3.99952 L 104.1667,178.0621 69.197272,176.16649 33.941693,169.37658 11.62647,157.18956 2.6052749,146.53635 Z"
           id="path2247" />
        <path
           inkscape:connector-curvature="0"
           id="path6945"
           d="M 223.45659,104.0942 A 109.13445,33.961525 0 0 1 114.32214,138.05572 109.13445,33.961525 0 0 1 5.1876971,104.0942 109.13445,33.961525 0 0 1 114.32214,70.132671 109.13445,33.961525 0 0 1 223.45659,104.0942 Z"
           style="fill:#ececec;fill-opacity:1;stroke:none;stroke-width:2.95495009;stroke-linecap:round;stroke-linejoin:round;stroke-miterlimit:4;stroke-dasharray:none;stroke-dashoffset:0;stroke-opacity:1" />
        <path
           inkscape:connector-curvature="0"
           style="fill:none;fill-opacity:0.98000004;stroke:#4d4d4d;stroke-width:5.58158016;stroke-linecap:round;stroke-linejoin:round;stroke-miterlimit:4;stroke-dasharray:none;stroke-dashoffset:0;stroke-opacity:1"
           d="M 114.32215,71.877887 A 111.05762,33.961525 0 0 0 3.2641162,105.83843 v 39.22294 A 111.05762,33.961525 0 0 0 114.32215,179.02376 111.05762,33.961525 0 0 0 225.38017,145.06137 V 105.83843 A 111.05762,33.961525 0 0 0 114.32215,71.877887 Z"
           id="ellipse6947" />
      </g>
      <ellipse
         style="fill:#000000;fill-opacity:0.17223301;stroke:none;stroke-width:0.177186;stroke-miterlimit:4;stroke-dasharray:none;stroke-opacity:0.67568102"
         id="ellipse6872"
         cx="485.57758"
         cy="9.679553"
         rx="12.674896"
         ry="2.9797101" />
      <rect
         ry="0"
         rx="0"
         y="63.484646"
         x="427.68558"
         height="26.481756"
         width="115.63322"
         id="rect2647"
         style="fill:#0f4c35;fill-opacity:1;stroke:#1a1a1a;stroke-width:1.61418998;stroke-linecap:round;stroke-linejoin:round;stroke-miterlimit:4;stroke-dasharray:none;stroke-dashoffset:0;stroke-opacity:1" />
      <g
         id="g19237"
         transform="matrix(0.92251711,0,0,0.92251711,37.618109,5.9449181)">
        <path
           d="m 456.24663,80.687148 h 2.5906 v -6.156856 c 0.43737,-0.134561 0.75699,-0.185043 1.14389,-0.185043 0.85793,0 1.21118,0.353253 1.21118,1.211186 v 5.130713 h 2.5906 v -5.214827 c 0,-0.437366 -0.0336,-0.639241 -0.10096,-0.891564 0.40371,-0.168227 0.75698,-0.235508 1.1607,-0.235508 0.80747,0 1.16072,0.353253 1.16072,1.177537 v 5.164362 h 2.5906 v -5.282107 c 0,-1.177554 -0.20188,-1.816778 -0.74017,-2.338258 -0.55513,-0.538312 -1.41304,-0.807468 -2.55695,-0.807468 -1.02614,0 -1.86724,0.168227 -2.9102,0.588777 -0.75699,-0.437366 -1.39623,-0.588777 -2.45602,-0.588777 -1.19435,0 -2.30461,0.168227 -3.68402,0.555128 z"
           style="font-style:normal;font-variant:normal;font-weight:bold;font-stretch:normal;font-size:10.01360035px;line-height:1.25;font-family:DTLProkyonT;-inkscape-font-specification:'DTLProkyonT Bold';letter-spacing:0px;word-spacing:0px;fill:#ffffff;fill-opacity:1;stroke:none;stroke-width:1.57705998"
           id="path2093"
           inkscape:connector-curvature="0" />
        <path
           d="m 470.71988,80.687148 h 2.59058 v -8.24279 h -2.59058 z m 0,-9.571721 h 2.59058 v -2.657878 h -2.59058 z"
           style="font-style:normal;font-variant:normal;font-weight:bold;font-stretch:normal;font-size:10.01360035px;line-height:1.25;font-family:DTLProkyonT;-inkscape-font-specification:'DTLProkyonT Bold';letter-spacing:0px;word-spacing:0px;fill:#ffffff;fill-opacity:1;stroke:none;stroke-width:1.57705998"
           id="path2095"
           inkscape:connector-curvature="0" />
        <path
           d="m 475.24525,84.488914 c 0.90838,0.353269 1.78313,0.504663 2.79245,0.504663 1.98499,0 3.38122,-0.622408 4.18867,-1.884058 0.55513,-0.857933 0.74017,-1.900892 0.74017,-4.121404 0,-0.235507 0,-0.386901 0,-0.706522 -0.0168,-0.353252 -0.0168,-0.706522 -0.0336,-1.059774 l -0.0168,-1.413061 -0.0336,-1.093423 v -0.269156 c 0.52148,0.0504 0.7738,0.100963 1.46351,0.235507 v -2.035453 c -1.24484,-0.25234 -2.27098,-0.370085 -3.38124,-0.370085 -3.78495,0 -5.92133,1.665367 -5.92133,4.609217 0,2.371906 1.44669,3.869064 3.71765,3.869064 0.67289,0 1.17754,-0.100963 1.6822,-0.353253 0,0.0168 0,0.0336 0,0.0504 0,1.648552 -0.72333,2.338258 -2.42237,2.338258 -0.95884,0 -1.86724,-0.218692 -2.77562,-0.689706 z m 5.14753,-9.924973 0.0168,0.857916 0.0168,1.194369 c 0,0.353253 0.0168,0.689689 0.0168,0.992494 v 0.706522 0.185043 c -0.33644,0.100963 -0.63923,0.16821 -0.97568,0.16821 -1.14389,0 -1.79995,-0.740154 -1.79995,-2.035453 0,-0.908397 0.31962,-1.547622 0.94203,-1.900891 0.42055,-0.252324 0.9925,-0.386902 1.51397,-0.370086 h 0.18505 c 0.0336,0 0.0504,0 0.0842,0 z"
           style="font-style:normal;font-variant:normal;font-weight:bold;font-stretch:normal;font-size:10.01360035px;line-height:1.25;font-family:DTLProkyonT;-inkscape-font-specification:'DTLProkyonT Bold';letter-spacing:0px;word-spacing:0px;fill:#ffffff;fill-opacity:1;stroke:none;stroke-width:1.57705998"
           id="path2097"
           inkscape:connector-curvature="0" />
        <path
           d="m 485.58657,80.687148 h 2.5906 v -5.954997 c 0.53829,-0.185043 1.04296,-0.269156 1.63173,-0.269156 0.57195,0 1.05978,0.08416 1.53079,0.269156 v -2.20368 c -0.58876,-0.185042 -1.09342,-0.269156 -1.81677,-0.269156 -1.26165,0 -2.62423,0.269156 -3.93635,0.790636 z"
           style="font-style:normal;font-variant:normal;font-weight:bold;font-stretch:normal;font-size:10.01360035px;line-height:1.25;font-family:DTLProkyonT;-inkscape-font-specification:'DTLProkyonT Bold';letter-spacing:0px;word-spacing:0px;fill:#ffffff;fill-opacity:1;stroke:none;stroke-width:1.57705998"
           id="path2099"
           inkscape:connector-curvature="0" />
        <path
           d="m 492.63998,75.034955 c 1.00933,-0.521479 2.08594,-0.790635 3.04478,-0.790635 0.65608,0 0.89158,0.16821 0.89158,0.639225 v 0.57196 c -3.17935,0.26914 -4.47465,1.11024 -4.47465,2.927018 0,1.6822 0.97567,2.439203 3.1457,2.439203 1.07661,0 2.54014,-0.117762 3.70084,-0.285989 v -5.265274 c 0,-1.076608 -0.0674,-1.581271 -0.28597,-1.968172 -0.3869,-0.689706 -1.26165,-1.042976 -2.59058,-1.042976 -1.19437,0 -2.28779,0.235508 -3.4317,0.77382 z m 4.05411,3.852231 c -0.50467,0.08416 -0.85792,0.117762 -1.24484,0.117762 -0.70652,0 -1.02614,-0.235507 -1.02614,-0.740171 0,-0.67289 0.55513,-0.942029 2.27098,-1.110256 z"
           style="font-style:normal;font-variant:normal;font-weight:bold;font-stretch:normal;font-size:10.01360035px;line-height:1.25;font-family:DTLProkyonT;-inkscape-font-specification:'DTLProkyonT Bold';letter-spacing:0px;word-spacing:0px;fill:#ffffff;fill-opacity:1;stroke:none;stroke-width:1.57705998"
           id="path2101"
           inkscape:connector-curvature="0" />
        <path
           d="m 500.21961,74.547108 h 1.32895 v 3.128893 c 0,1.396228 0.0842,1.766313 0.45418,2.237328 0.4542,0.555128 1.26165,0.8411 2.40555,0.8411 0.4542,0 0.89157,-0.0504 1.39623,-0.134562 v -1.951356 c -0.25234,0.06737 -0.3869,0.100963 -0.55513,0.100963 -0.87475,0 -1.11025,-0.302804 -1.11025,-1.429876 v -2.792456 h 1.81677 v -1.934524 h -1.81677 V 70.30801 h -2.47284 v 2.304608 h -1.44669 z"
           style="font-style:normal;font-variant:normal;font-weight:bold;font-stretch:normal;font-size:10.01360035px;line-height:1.25;font-family:DTLProkyonT;-inkscape-font-specification:'DTLProkyonT Bold';letter-spacing:0px;word-spacing:0px;fill:#ffffff;fill-opacity:1;stroke:none;stroke-width:1.57705998"
           id="path2103"
           inkscape:connector-curvature="0" />
        <path
           d="m 514.72413,77.305915 0.0168,-0.185042 c 0.0168,-0.285972 0.0168,-0.52148 0.0168,-0.656058 0,-2.69151 -1.3794,-4.222316 -3.78495,-4.222316 -2.50647,0 -4.15504,1.715849 -4.15504,4.356894 0,2.691527 1.61492,4.272798 4.37373,4.272798 1.11026,0 2.1364,-0.25234 3.12889,-0.77382 v -2.00182 c -0.79063,0.521479 -1.73266,0.790635 -2.7588,0.790635 -1.36258,0 -2.15322,-0.555128 -2.23733,-1.581271 z m -5.36622,-1.799945 c 0.13456,-0.891565 0.74015,-1.446693 1.6149,-1.446693 0.8411,0 1.32895,0.504664 1.41305,1.446693 z"
           style="font-style:normal;font-variant:normal;font-weight:bold;font-stretch:normal;font-size:10.01360035px;line-height:1.25;font-family:DTLProkyonT;-inkscape-font-specification:'DTLProkyonT Bold';letter-spacing:0px;word-spacing:0px;fill:#ffffff;fill-opacity:1;stroke:none;stroke-width:1.57705998"
           id="path2105"
           inkscape:connector-curvature="0" />
      </g>
      <rect
         ry="0"
         rx="0"
         y="65.930351"
         x="430.45834"
         height="21.590324"
         width="110.08767"
         id="rect19164"
         style="fill:none;fill-opacity:1;stroke:#1a1a1a;stroke-width:0.70590299;stroke-linecap:round;stroke-linejoin:round;stroke-miterlimit:4;stroke-dasharray:none;stroke-dashoffset:0;stroke-opacity:1" />
    </g>
  </g>
</svg>
