<?xml version="1.0" encoding="iso-8859-1"?>
<!-- Generator: Adobe Illustrator 19.0.0, SVG Export Plug-In . SVG Version: 6.00 Build 0)  -->
<svg version="1.1" id="Capa_1" xmlns="http://www.w3.org/2000/svg" xmlns:xlink="http://www.w3.org/1999/xlink" x="0px" y="0px"
	 viewBox="0 0 511.997 511.997" style="enable-background:new 0 0 511.997 511.997;" xml:space="preserve">
<path style="fill:#A1785E;" d="M455.422,429.759c-2.18-13.168-11.741-23.905-24.572-27.6L300.205,368.07v-51.22l-111.957,1.384
	v53.815L57.602,402.073c-12.866,3.66-22.461,14.406-24.658,27.6l-5.018,30.369c68.273,29.4,141.971,44.143,216.3,43.26
	c74.329,0.839,148.01-13.895,216.3-43.26L455.422,429.759z"/>
<path style="fill:#94D0AD;" d="M455.422,429.759c-2.18-13.168-11.741-23.905-24.572-27.6l-95.778-25.004v27.6
	c0,43.295-35.093,78.387-78.387,78.387l0,0h-24.831c-43.295,0-78.387-35.093-78.387-78.387l0,0v-24.572l-95.864,21.976
	c-12.866,3.66-22.461,14.406-24.658,27.6l-5.018,30.282c68.273,29.4,141.971,44.143,216.3,43.26
	c74.329,0.839,148.01-13.895,216.3-43.26L455.422,429.759z"/>
<path style="fill:#7BBF97;" d="M153.813,412.628l-96.21,21.976c-12.84,3.651-22.435,14.354-24.658,27.513
	c66.897,27.955,138.787,41.962,211.282,41.184c72.469,0.77,144.324-13.246,211.196-41.184
	c-2.215-13.134-11.767-23.836-24.572-27.513l-96.037-24.399c-3.461,49.922-37.982,72.59-90.154,72.936
	C222.596,483.142,160.475,478.903,153.813,412.628z"/>
<g>
	<path style="fill:#343433;" d="M244.659,491.794c-78.811,0-99.844-54.715-99.844-87.048v-27.591h17.304v27.591
		c0,7.138,2.319,69.744,82.54,69.744c77.816,0,81.761-58.098,81.761-69.744v-27.591h17.304v27.591
		C343.724,413.658,340.947,491.794,244.659,491.794z"/>
	<path style="fill:#343433;" d="M237.616,511.997c-73.559,0-145.285-14.795-213.108-44.004c-3.651-1.583-5.762-5.442-5.113-9.361
		l5.018-30.369c2.734-16.404,14.83-29.953,30.827-34.513l124.364-28.586v-46.937c0-4.741,3.807-8.591,8.548-8.652l111.948-1.376
		c0.043,0,0.078,0,0.112,0c2.276,0,4.464,0.9,6.082,2.492c1.635,1.627,2.57,3.841,2.57,6.16v44.532l124.182,32.393
		c16.162,4.646,28.223,18.195,30.922,34.565l5.105,30.256c0.658,3.928-1.454,7.804-5.122,9.387
		c-69.822,30.022-143.719,44.965-219.813,43.961C241.959,511.979,239.779,511.997,237.616,511.997z M37.573,454.729
		c65.755,27.34,135.231,40.837,206.549,39.92c71.379,0.9,140.967-12.623,206.74-39.912l-3.971-23.542c0-0.009,0-0.017,0-0.026
		c-1.627-9.82-8.86-17.944-18.429-20.704l-130.438-34.02c-3.807-0.995-6.472-4.439-6.472-8.375v-42.455l-94.653,1.159v45.276
		c0,4.032-2.786,7.527-6.714,8.436L59.54,410.508c-9.171,2.63-16.422,10.746-18.065,20.592L37.573,454.729z"/>
</g>
<path style="fill:#CE4928;" d="M433.619,304.219c0,0-2.336,8.652-38.242,8.652s-66.794,43.26-66.794,43.26l-3.98,39.367
	l51.133-6.143c3.374-9.656,10.434-17.59,19.64-22.063c16.266-8.652,53.123-4.759,53.123-4.759
	C455.162,346.094,433.619,304.219,433.619,304.219z"/>
<path style="fill:#333333;" d="M324.604,404.149c-2.258,0-4.439-0.883-6.056-2.474c-1.877-1.843-2.812-4.438-2.552-7.043
	l3.98-39.367c0.156-1.497,0.692-2.933,1.575-4.153c1.358-1.921,33.933-46.885,73.828-46.885c22.547,0,29.469-3.591,30.836-4.49
	c1.376-2.275,3.764-3.824,6.489-4.118c3.539-0.372,6.974,1.462,8.609,4.646c3.893,7.579,22.962,46.366,15.21,65.513
	c-1.445,3.565-5.027,5.762-8.92,5.347c-13.255-1.393-38.043-1.583-48.157,3.798c-7.467,3.634-12.883,9.725-15.53,17.278
	c-1.099,3.115-3.859,5.338-7.138,5.736l-51.133,6.143C325.287,404.132,324.95,404.149,324.604,404.149z M336.95,359.418
	l-2.656,26.198l35.413-4.257c4.62-9.517,12.243-17.157,21.89-21.846c13.35-7.112,36.909-6.93,49.567-6.229
	c-0.476-9.258-5.641-24.156-11.04-36.295c-7.069,2.682-18.013,4.534-34.755,4.534C368.201,321.523,342.928,351.735,336.95,359.418z
	 M425.27,301.943c0,0.009-0.009,0.017-0.009,0.026C425.261,301.96,425.27,301.952,425.27,301.943z M425.278,301.926
	c-0.009,0.009-0.009,0.009-0.009,0.017C425.27,301.934,425.27,301.934,425.278,301.926z M425.278,301.917L425.278,301.917
	L425.278,301.917z M425.287,301.9L425.287,301.9L425.287,301.9z"/>
<path style="fill:#E3653E;" d="M244.918,453.033c-44.445,0.104-85.889-22.426-109.967-59.785
	c-9.059-14.068-4.984-32.817,9.085-41.876c14.068-9.059,32.817-4.984,41.876,9.085c20.748,32.445,63.878,41.928,96.323,21.171
	c8.505-5.442,15.729-12.667,21.171-21.171c9.059-14.068,27.808-18.143,41.876-9.085c14.068,9.059,18.143,27.808,9.085,41.876
	C330.478,430.547,289.208,453.085,244.918,453.033z"/>
<g>
	<path style="fill:#F7A291;" d="M295.1,442.91c6.359-2.673,12.493-5.849,18.342-9.517l-14.449-66.88
		c-4.672,5.823-10.253,10.841-16.525,14.881h-0.606L295.1,442.91z"/>
	<path style="fill:#F7A291;" d="M254.695,452.687c6.705-0.519,13.359-1.566,19.9-3.115l-2.509-62.727
		c-6.29,2.751-12.978,4.508-19.813,5.191L254.695,452.687z"/>
	<path style="fill:#F7A291;" d="M217.405,449.918c6.515,1.454,13.142,2.353,19.813,2.682l5.105-60.564
		c-6.723-0.208-13.367-1.436-19.727-3.634L217.405,449.918z"/>
</g>
<g>
	<path style="fill:#333333;" d="M244.59,461.676c-47.482,0-91.166-23.81-116.906-63.739c-11.628-18.074-6.394-42.222,11.672-53.85
		c18.057-11.611,42.213-6.377,53.833,11.689c18.161,28.396,56.013,36.719,84.383,18.567c7.397-4.733,13.817-11.144,18.55-18.55
		c11.646-18.083,35.785-23.317,53.85-11.706c18.057,11.62,23.3,35.776,11.689,53.841c-25.575,39.92-69.138,63.748-116.551,63.748
		C244.927,461.676,244.763,461.676,244.59,461.676z M160.397,355.214c-4.006,0-8.064,1.107-11.68,3.426
		c-10.036,6.463-12.952,19.891-6.489,29.927c22.538,34.954,60.789,55.805,102.362,55.805c0.121,0,0.234,0,0.346,0
		c0.052,0,0.112,0,0.164,0c41.486,0,79.598-20.843,101.99-55.788c6.463-10.054,3.547-23.482-6.489-29.945
		c-10.036-6.446-23.464-3.539-29.919,6.498c-6.056,9.483-14.284,17.711-23.784,23.784c-36.434,23.274-84.989,12.597-108.271-23.802
		C174.5,358.709,167.518,355.214,160.397,355.214z"/>
	<path style="fill:#333333;" d="M452.229,298.249c-2.275,0-4.482-1.194-5.667-3.322c-1.748-3.123-0.632-7.077,2.492-8.834
		l12.978-7.268c3.115-1.756,7.077-0.64,8.834,2.492c1.748,3.123,0.632,7.077-2.492,8.834l-12.978,7.268
		C454.392,297.98,453.302,298.249,452.229,298.249z"/>
	<path style="fill:#333333;" d="M463.2,318.667c-2.647,0-5.139-1.627-6.1-4.265c-1.229-3.366,0.51-7.086,3.876-8.323l14.016-5.113
		c3.392-1.194,7.095,0.519,8.323,3.876c1.229,3.357-0.51,7.086-3.876,8.323l-14.016,5.113
		C464.688,318.538,463.935,318.667,463.2,318.667z"/>
	<path style="fill:#333333;" d="M470.035,341.076c-2.933,0-5.589-1.999-6.307-4.975c-0.839-3.478,1.306-6.991,4.802-7.821
		l14.449-3.461c3.435-0.787,6.991,1.306,7.821,4.802c0.839,3.478-1.306,6.991-4.802,7.821l-14.449,3.461
		C471.047,341.016,470.537,341.076,470.035,341.076z"/>
	<path style="fill:#333333;" d="M471.679,366.158c-2.985,0-5.658-2.059-6.325-5.096c-0.77-3.495,1.445-6.965,4.94-7.735
		l14.535-3.193c3.487-0.787,6.965,1.436,7.735,4.94c0.77,3.495-1.445,6.965-4.94,7.735l-14.535,3.193
		C472.605,366.106,472.146,366.158,471.679,366.158z"/>
</g>
<path style="fill:#AD8165;" d="M244.226,92.331c69.216,0,90.846,39.713,90.846,86.52v17.304c14.968,0,19.727,14.708,17.304,34.608
	c-2.076,16.785-8.652,34.608-25.956,34.608v12.978c0,25.956-20.678,37.636-44.817,62.727c-9.007,11.161-23.135,16.889-37.377,15.141
	c-14.224,1.8-28.37-3.893-37.377-15.055c-24.139-25.091-44.817-36.771-44.817-62.727v-12.978c-17.304,0-23.88-17.823-25.956-34.608
	c-2.423-19.9,2.336-34.608,17.304-34.608v-17.304C153.38,132.044,175.01,92.331,244.226,92.331z"/>
<path style="fill:#A37C62;" d="M335.072,196.241v-17.304c0-46.894-21.284-86.52-90.846-86.52h-7.787l-5.451,20.073
	c-19.38,48.391-28.967,100.147-28.206,152.275c0,11.334,1.038,44.644,2.076,74.407l1.99,1.99
	c9.007,11.161,23.153,16.854,37.377,15.055c14.224,1.8,28.37-3.893,37.377-15.055c24.139-25.091,44.817-36.771,44.817-62.727
	v-12.978c17.304,0,23.88-17.823,25.956-34.608C354.799,210.95,350.04,196.241,335.072,196.241z"/>
<g>
	<path style="fill:#333333;" d="M239.632,362.948c-14.743,0-28.69-6.593-38.086-18.221c-5.191-5.364-10.478-10.322-15.591-15.124
		c-16.984-15.928-30.403-28.508-30.403-51.168v-7.216c-10.01-2.327-22.383-11.152-25.904-39.574
		c-1.895-15.556,0.433-27.531,6.723-34.634c2.821-3.184,6.394-5.364,10.529-6.454v-11.62c0-60.028,34.565-93.096,97.335-93.096
		s97.335,33.033,97.335,93.009v11.62c4.144,1.09,7.718,3.27,10.538,6.454c6.29,7.103,8.617,19.078,6.714,34.617
		c-3.513,28.431-15.894,37.264-25.904,39.583v7.216c0,22.504-13.428,34.971-30.429,50.77c-5.278,4.906-10.737,9.984-16.465,15.937
		c-9.751,12.398-25.428,19.078-41.781,17.685C242.695,362.879,241.155,362.948,239.632,362.948z M244.226,98.82
		c-55.979,0-84.357,26.951-84.357,80.118v17.304c0,3.582-2.907,6.489-6.489,6.489c-4.257,0-6.203,1.644-7.302,2.881
		c-3.651,4.127-4.949,13.03-3.556,24.451c1.627,13.177,6.342,28.906,19.51,28.906c3.582,0,6.489,2.907,6.489,6.489v12.978
		c0,17.044,10.46,26.856,26.302,41.703c4.992,4.681,10.642,9.984,16.439,16.015c8.107,9.984,20.012,14.959,32.272,13.61
		c0.45-0.061,0.9-0.061,1.358,0c12.121,1.246,23.828-3.686,31.355-13.238c6.385-6.679,12.243-12.121,17.408-16.915
		c15.824-14.708,26.276-24.425,26.276-41.27v-12.978c0-3.582,2.907-6.489,6.489-6.489c13.168,0,17.875-15.721,19.519-28.915
		c1.384-11.403,0.095-20.315-3.556-24.433c-1.099-1.237-3.054-2.881-7.311-2.881c-3.582,0-6.489-2.907-6.489-6.489v-17.304
		C328.583,125.745,300.205,98.82,244.226,98.82z"/>
	<path style="fill:#333333;" d="M421.419,165.786c-0.087-8.514-4.075-16.517-10.815-21.717c4.291-4.767,6.74-10.902,6.922-17.304
		c-0.26-12.883-8.946-24.07-21.37-27.513c1.038-2.769,1.566-5.693,1.557-8.652c-0.839-16.698-14.959-29.624-31.666-28.984h-3.98
		c-0.467-16.716-14.397-29.893-31.121-29.425c-0.069,0-0.138,0-0.199,0.009l0,0c-2.327,0.009-4.637,0.242-6.922,0.692l-2.25-1.125
		c-4.378-12.874-16.603-21.422-30.196-21.111c-6.117,0.009-12.104,1.713-17.304,4.932l0,0c-9.266-14.786-28.379-19.882-43.779-11.68
		c-4.992,2.725-9.154,6.766-12.026,11.68h-1.817c-5.2-3.219-11.187-4.923-17.304-4.932c-13.696-0.355-26.034,8.228-30.455,21.197
		l-2.336,1.125c-17.313-3.625-34.305,7.441-37.982,24.745c-0.26,1.107-0.433,2.241-0.519,3.374h-3.98
		c-16.681-0.64-30.784,12.234-31.666,28.898c-0.009,2.959,0.519,5.883,1.557,8.652c-12.978,2.968-22.279,14.371-22.582,27.686
		c-0.009,6.636,2.423,13.039,6.835,17.996c-6.74,5.2-10.728,13.203-10.815,21.717c0.199,10.754,6.463,20.471,16.179,25.091
		c-2.829,4.317-4.335,9.37-4.326,14.535c0.173,13.212,9.18,24.667,21.976,27.946c-0.337,1.653-0.51,3.331-0.519,5.018
		c0.597,14.501,11.568,26.449,25.956,28.292c5.979,9.483,16.473,15.158,27.686,14.968c2.25,0,5.883-2.596,8.133-3.028V265.89
		c-12.459,0-22.236-12.113-24.658-25.091c-1.376-5.667-2.102-11.473-2.163-17.304c6.489,0.459,12.84-2.025,17.304-6.749l4.153,4.672
		c1.817,4.066,2.336,5.018,5.278,10.469c0.363,0.882,1.376,1.306,2.258,0.943c0.052-0.026,0.112-0.052,0.164-0.078
		c0.684-0.26,1.133-0.917,1.125-1.644v-34.608c6.956-2.362,11.801-8.678,12.286-16.006v-1.557c2.743,1.116,5.693,1.644,8.652,1.557
		c8.349,0.32,16.093-4.335,19.727-11.853c3.963,3.115,8.894,4.741,13.93,4.586c1.903,0.078,3.798-0.156,5.624-0.692
		c5.667,9.829,17.84,13.791,28.206,9.171c4.231-1.661,7.77-4.707,10.036-8.652c1.973,0.346,3.997,0.346,5.97,0
		c5.035,0.156,9.967-1.471,13.93-4.586c3.746,7.415,11.516,11.922,19.813,11.507c2.968,0.061,5.909-0.502,8.652-1.644v1.644
		c0.476,7.311,5.33,13.61,12.286,15.92v34.608c-0.052,1.004,0.727,1.852,1.73,1.903c0.026,0,0.061,0,0.086,0
		c0.744,0.061,1.436-0.355,1.73-1.038c2.855-5.451,3.461-6.402,5.278-10.555l4.413-4.845c4.058,4.075,9.777,6.056,15.487,5.364
		c0.182,4.819-0.26,9.647-1.298,14.362c-1.99,13.238-7.7,28.811-25.264,30.109v12.978c13.411,2.682,29.503-0.692,36.079-12.113
		c14.103-2.111,24.71-13.956,25.264-28.206c-0.009-1.687-0.182-3.366-0.519-5.018c12.727-3.149,21.794-14.406,22.149-27.513
		c0.009-5.165-1.497-10.218-4.326-14.535c9.846-4.586,16.205-14.406,16.352-25.264"/>
	<path style="fill:#333333;" d="M244.226,311.201c-6.221,0-12.442-0.857-18.481-2.561c-2.301-0.649-3.634-3.046-2.985-5.338
		c0.649-2.31,3.063-3.651,5.338-2.994c10.547,2.994,21.708,2.994,32.255,0c2.31-0.64,4.689,0.692,5.347,2.994
		c0.658,2.301-0.684,4.689-2.994,5.338C256.659,310.344,250.447,311.201,244.226,311.201z"/>
	<path style="fill:#333333;" d="M252.878,326.099h-17.304c-2.388,0-4.326-1.938-4.326-4.326s1.938-4.326,4.326-4.326h17.304
		c2.388,0,4.326,1.938,4.326,4.326S255.266,326.099,252.878,326.099z"/>
	<path style="fill:#333333;" d="M245.169,287.33c-3.132,0-6.307-0.536-9.336-1.627l-9.188-2.492
		c-2.31-0.623-3.668-3.011-3.037-5.312c0.632-2.301,3.037-3.642,5.312-3.037l9.517,2.596c4.413,1.583,8.886,1.583,12.969,0.104
		l9.846-2.699c2.301-0.606,4.689,0.744,5.312,3.037c0.623,2.31-0.735,4.689-3.037,5.312l-9.517,2.596
		C251.226,286.819,248.224,287.33,245.169,287.33z"/>
	<path style="fill:#333333;" d="M259.445,240.886c-3.27,0-6.091-2.474-6.446-5.797c-0.441-4.11-3.738-7.397-7.839-7.839
		c-2.353-0.251-4.655,0.433-6.48,1.912c-1.834,1.479-2.985,3.591-3.236,5.935c-0.381,3.565-3.591,6.152-7.138,5.762
		c-3.565-0.372-6.143-3.573-5.762-7.138c0.614-5.788,3.452-10.997,7.986-14.648c4.525-3.66,10.192-5.33,16.006-4.715
		c10.14,1.082,18.282,9.223,19.363,19.363c0.381,3.565-2.206,6.757-5.771,7.138C259.904,240.869,259.679,240.886,259.445,240.886z"
		/>
</g>
<path style="fill:#B28C76;" d="M210.57,208.787h-26.908c-9.976-0.389-18.394,7.337-18.861,17.304v1.557
	c-1.107,9.509,2.059,19.017,8.652,25.956c6.108,5.321,14.06,8.055,22.149,7.614h3.98c19.727-1.471,29.763-13.411,29.763-35.387
	C228.696,216.02,220.399,208.484,210.57,208.787z"/>
<path style="fill:#333333;" d="M193.621,267.75c-8.816,0-17.52-3.245-24.433-9.258c-8.384-8.782-12.165-20.151-10.832-31.597
	l-0.043-0.805c0.64-13.783,12.061-24.243,25.601-23.793h26.562c13.134-0.311,24.459,9.768,25.342,23.101
	c0.009,25.696-12.692,40.561-35.759,42.282l-4.464,0.017C194.944,267.733,194.278,267.75,193.621,267.75z M183.169,215.267
	c-6.42,0-11.594,4.897-11.897,11.126l0.009,1.255c-0.926,8.366,1.592,15.928,6.87,21.483c4.421,3.807,10.581,5.953,17.096,5.598
	l4.326-0.009c15.721-1.194,23.274-10.374,23.274-28.898c-0.398-5.935-5.996-10.729-12.078-10.555c-0.069,0-0.138,0-0.199,0h-26.908
	C183.498,215.267,183.333,215.267,183.169,215.267z"/>
<path style="fill:#B28C76;" d="M277.883,208.787h26.908c9.976-0.389,18.394,7.337,18.861,17.304v1.557
	c1.107,9.509-2.059,19.017-8.652,25.956c-6.108,5.321-14.06,8.055-22.149,7.614h-3.98c-19.727-1.471-29.763-13.411-29.763-35.387
	C259.757,216.02,268.054,208.484,277.883,208.787z"/>
<g>
	<path style="fill:#333333;" d="M294.564,267.75c-0.684,0-1.376-0.026-2.068-0.061l-3.625,0.009
		c-23.551-1.739-36.252-16.603-36.252-41.876c0.891-13.757,12.07-23.75,25.35-23.533h26.821c13.618-0.554,24.71,10.019,25.342,23.49
		l0.009,1.86c1.289,10.703-2.5,22.063-10.434,30.429C312.396,264.471,303.666,267.75,294.564,267.75z M292.851,254.72
		c6.826,0.372,13.03-1.782,17.875-6.013c4.845-5.139,7.363-12.693,6.472-20.315l-0.043-2.31
		c-0.294-6.082-5.529-11.308-12.113-10.815h-27.167c-0.199-0.009-0.389-0.009-0.571-0.009c-6.195,0-11.317,4.759-11.715,10.988
		c0.009,18.091,7.562,27.28,23.767,28.482L292.851,254.72z"/>
	<circle style="fill:#333333;" cx="203.389" cy="233.012" r="8.652"/>
	<circle style="fill:#333333;" cx="285.064" cy="233.012" r="8.652"/>
</g>
<g>
	<path style="fill:#7BBF97;" d="M137.91,248.638l4.343-4.343c2.803-2.803,7.354-2.803,10.157,0l4.343,4.343
		c2.803,2.803,2.803,7.354,0,10.157l-4.343,4.343c-2.803,2.803-7.354,2.803-10.157,0l-4.343-4.343
		C135.107,255.984,135.107,251.441,137.91,248.638z"/>
	<path style="fill:#7BBF97;" d="M331.741,248.586l4.343-4.343c2.803-2.803,7.354-2.803,10.157,0l4.343,4.343
		c2.803,2.803,2.803,7.354,0,10.157l-4.343,4.343c-2.803,2.803-7.354,2.803-10.157,0l-4.343-4.343
		C328.93,255.932,328.93,251.389,331.741,248.586z"/>
</g>
<g>
</g>
<g>
</g>
<g>
</g>
<g>
</g>
<g>
</g>
<g>
</g>
<g>
</g>
<g>
</g>
<g>
</g>
<g>
</g>
<g>
</g>
<g>
</g>
<g>
</g>
<g>
</g>
<g>
</g>
</svg>
