<?xml version="1.0" encoding="iso-8859-1"?>
<!-- Generator: Adobe Illustrator 19.0.0, SVG Export Plug-In . SVG Version: 6.00 Build 0)  -->
<svg version="1.1" id="Capa_1" xmlns="http://www.w3.org/2000/svg" xmlns:xlink="http://www.w3.org/1999/xlink" x="0px" y="0px"
	 viewBox="0 0 511.995 511.995" style="enable-background:new 0 0 511.995 511.995;" xml:space="preserve">
<rect x="183.281" y="257.645" style="fill:#A47C61;" width="145.822" height="172.344"/>
<path style="fill:#DDDDDC;" d="M256.183,502.882c80.813-0.027,160.669-17.462,234.136-51.129l-8.476-42.38
	c-4.183-20.926-20.16-37.513-40.921-42.471l-75.281-18.957l-27.342-45.569l-29.711,62.521l-52.405,55.595l-52.223-52.405
	l-29.529-62.795l-27.342,45.569L71.9,369.728c-20.834,4.894-36.893,21.491-41.104,42.471l-7.929,39.645
	C96.089,485.356,175.653,502.754,256.183,502.882z"/>
<g>
	<polygon style="fill:#A6B9C1;" points="137.703,352.958 101.247,362.437 101.247,393.515 137.703,393.515 	"/>
	<path style="fill:#A6B9C1;" d="M101.247,481.099l2.552,0.638l-2.552-0.729V481.099z"/>
	<rect x="101.256" y="429.989" style="fill:#A6B9C1;" width="36.456" height="36.456"/>
	<path style="fill:#A6B9C1;" d="M137.703,490.213l-6.653-1.367L137.703,490.213z"/>
	<path style="fill:#A6B9C1;" d="M126.219,487.57c-6.653-1.549-13.306-3.281-19.959-5.104
		C112.822,484.654,119.475,486.021,126.219,487.57z"/>
	<path style="fill:#A6B9C1;" d="M64.792,372.188c-10.855,4.119-20.105,11.593-26.43,21.327h26.43V372.188z"/>
	<path style="fill:#A6B9C1;" d="M64.792,469.251l-3.19-1.094L64.792,469.251z"/>
	<path style="fill:#A6B9C1;" d="M64.792,429.97H28.336v24.699c9.114,4.192,19.23,8.02,28.982,11.757h7.473
		C64.792,466.426,64.792,429.97,64.792,429.97z"/>
	<rect x="174.167" y="429.989" style="fill:#A6B9C1;" width="36.456" height="36.456"/>
	<polygon style="fill:#A6B9C1;" points="210.614,375.014 206.239,370.548 183.272,393.515 210.614,393.515 	"/>
	<rect x="301.762" y="429.989" style="fill:#A6B9C1;" width="36.456" height="36.456"/>
	<polygon style="fill:#A6B9C1;" points="304.851,369.181 301.753,372.462 301.753,393.515 329.094,393.515 	"/>
	<path style="fill:#A6B9C1;" d="M447.575,466.426h7.473c9.752-3.646,19.504-7.565,28.982-11.757V429.97h-36.456V466.426z"/>
	<path style="fill:#A6B9C1;" d="M447.575,469.251l3.463-1.276l-3.463,1.185V469.251z"/>
	<path style="fill:#A6B9C1;" d="M447.575,369.728v23.787h28.071C469.321,382.578,459.396,374.175,447.575,369.728z"/>
	<path style="fill:#A6B9C1;" d="M406.927,482.193c-6.927,1.914-13.944,3.737-20.962,5.377
		C392.892,485.93,400,484.107,406.927,482.193z"/>
	<path style="fill:#A6B9C1;" d="M374.664,490.213l6.471-1.549l-6.471,1.367V490.213z"/>
	<path style="fill:#A6B9C1;" d="M411.119,481.099l-2.825,0.911L411.119,481.099z"/>
	<polygon style="fill:#A6B9C1;" points="411.119,359.52 374.664,350.042 374.664,393.515 411.119,393.515 	"/>
	<rect x="374.673" y="429.989" style="fill:#A6B9C1;" width="36.456" height="36.456"/>
	<polygon style="fill:#A6B9C1;" points="174.158,429.97 174.158,402.629 183.272,393.515 137.703,393.515 137.703,429.97 	"/>
	<path style="fill:#A6B9C1;" d="M475.646,393.515c2.889,5.013,4.949,10.463,6.106,16.132l2.278,11.21v-27.342H475.646z"/>
	<rect x="64.792" y="393.533" style="fill:#A6B9C1;" width="36.456" height="36.456"/>
	<path style="fill:#A6B9C1;" d="M38.361,393.515H28.336v30.258l2.461-11.21C32.127,405.8,34.688,399.339,38.361,393.515z"/>
	<polygon style="fill:#A6B9C1;" points="301.753,429.97 301.753,393.515 283.525,393.515 256.183,420.857 228.842,393.515 
		210.614,393.515 210.614,429.97 	"/>
	<rect x="411.128" y="393.533" style="fill:#A6B9C1;" width="36.456" height="36.456"/>
	<polygon style="fill:#A6B9C1;" points="338.208,429.97 374.664,429.97 374.664,393.515 329.094,393.515 338.208,402.629 	"/>
</g>
<g>
	<rect x="101.256" y="393.533" style="fill:#7D9BAA;" width="36.456" height="36.456"/>
	<path style="fill:#7D9BAA;" d="M64.792,393.515h-26.43c-3.718,5.833-6.289,12.331-7.565,19.139l-2.187,11.119v6.197h36.456
		L64.792,393.515z"/>
	<polygon style="fill:#7D9BAA;" points="174.158,429.97 210.614,429.97 210.614,393.515 183.272,393.515 174.158,402.629 	"/>
	<polygon style="fill:#7D9BAA;" points="338.208,429.97 338.208,402.629 329.094,393.515 301.753,393.515 301.753,429.97 	"/>
	<path style="fill:#7D9BAA;" d="M475.646,393.515h-28.071v36.456h36.456v-9.114l-2.278-11.21
		C480.594,403.969,478.535,398.528,475.646,393.515z"/>
	<rect x="374.673" y="393.533" style="fill:#7D9BAA;" width="36.456" height="36.456"/>
</g>
<g>
	<path style="fill:#A6B9C1;" d="M411.119,466.426v14.582c12.304-3.554,24.516-7.565,36.456-11.848v-2.734H411.119z"/>
	<path style="fill:#A6B9C1;" d="M386.238,487.57l-4.83,1.094L386.238,487.57z"/>
	<path style="fill:#A6B9C1;" d="M455.322,466.426l-4.01,1.549L455.322,466.426z"/>
	<path style="fill:#A6B9C1;" d="M131.05,488.755l-5.013-1.185L131.05,488.755z"/>
	<path style="fill:#A6B9C1;" d="M57.045,466.426l4.557,1.641l-4.284-1.641H57.045z"/>
	<path style="fill:#A6B9C1;" d="M106.351,482.466l-2.643-0.638L106.351,482.466z"/>
	<path style="fill:#A6B9C1;" d="M64.792,466.426v2.734c11.939,4.375,24.152,8.294,36.456,11.848v-14.582H64.792z"/>
	<path style="fill:#A6B9C1;" d="M338.208,466.426v30.349c-12.121,1.732-24.334,3.099-36.456,4.101v-34.451h-91.139v34.451
		c-12.121-1.003-24.334-2.37-36.456-4.101v-30.349h-36.456v23.696c78.07,17.025,158.892,17.025,236.961,0v-23.696H338.208z"/>
</g>
<path style="fill:#7D9BAA;" d="M101.247,466.426v14.582l2.552,0.729l2.552,0.638c6.653,1.823,13.306,3.554,19.959,5.104l5.013,1.185
	l6.471,1.367v-23.605L101.247,466.426L101.247,466.426z"/>
<path style="fill:#A6B9C1;" d="M57.318,466.426l4.284,1.641l3.19,1.094v-2.734H57.318z"/>
<g>
	<path style="fill:#7D9BAA;" d="M174.158,496.684c12.121,1.732,24.334,3.099,36.456,4.101v-34.359h-36.456V496.684z"/>
	<path style="fill:#7D9BAA;" d="M301.753,500.785c12.121-1.003,24.334-2.37,36.456-4.101v-30.258h-36.456V500.785z"/>
</g>
<path style="fill:#A6B9C1;" d="M447.575,469.16l3.463-1.185l4.01-1.549h-7.473V469.16z"/>
<path style="fill:#7D9BAA;" d="M374.664,466.426v23.696l6.471-1.367l4.83-1.094c7.018-1.641,14.035-3.463,20.962-5.377h1.367
	l2.825-0.911v-14.947H374.664z"/>
<g>
	<circle style="fill:#333333;" cx="283.534" cy="448.216" r="6.835"/>
	<path style="fill:#333333;" d="M21.692,461.14c-0.629,0-1.276-0.064-1.914-0.201c-4.921-1.048-8.057-5.888-7.009-10.818
		l9.114-42.653c4.785-23.887,23.231-43.264,46.973-49.224l75.727-19.139c4.858-1.212,9.834,1.713,11.073,6.608
		c1.23,4.876-1.723,9.834-6.608,11.073l-75.736,19.139c-16.97,4.265-30.149,18.091-33.585,35.243l-9.132,42.762
		C29.676,458.205,25.893,461.14,21.692,461.14z"/>
	<path style="fill:#333333;" d="M490.31,461.14c-4.211,0-7.993-2.926-8.904-7.209l-9.114-42.653
		c-3.463-17.271-16.642-31.097-33.603-35.362l-75.381-19.139c-4.876-1.249-7.829-6.207-6.598-11.082
		c1.249-4.894,6.188-7.811,11.082-6.598l75.372,19.139c23.723,5.96,42.161,25.337,46.973,49.343l9.087,42.535
		c1.057,4.922-2.087,9.761-7.009,10.818C491.586,461.076,490.939,461.14,490.31,461.14z"/>
	
		<rect x="222.003" y="352.43" transform="matrix(-0.7624 0.6471 -0.6471 -0.7624 660.4403 539.8235)" style="fill:#333333;" width="18.228" height="77.459"/>
	<path style="fill:#333333;" d="M256.183,511.995c-5.031,0-9.114-4.074-9.114-9.114v-82.216c0-2.16,0.766-4.256,2.169-5.897
		l50.126-59.049c3.263-3.828,8.995-4.302,12.851-1.048c3.837,3.254,4.311,9.014,1.048,12.851l-47.966,56.497v78.862
		C265.297,507.912,261.214,511.995,256.183,511.995z"/>
	<rect x="174.167" y="275.053" style="fill:#333333;" width="18.228" height="45.569"/>
	<rect x="319.99" y="275.053" style="fill:#333333;" width="18.228" height="45.569"/>
	<path style="fill:#333333;" d="M174.915,418.013c-1.905,0-3.737-0.474-5.405-1.385c-2.443-1.331-4.265-3.463-5.213-6.042
		l-25.82-58.985c-1.185-2.707-0.984-5.815,0.538-8.348l27.342-45.569c1.695-2.816,4.903-4.256,8.038-4.42
		c3.281,0.082,6.27,1.923,7.811,4.812l31.99,59.869c1.558,2.916,1.413,6.444-0.374,9.223l-29.256,45.569
		c-1.331,2.178-3.554,3.937-6.17,4.757C177.22,417.849,176.054,418.013,174.915,418.013z M169.273,402.811
		c-0.055,0.082-0.109,0.173-0.164,0.246L169.273,402.811z M157.051,348.602l19.066,43.546l19.467-30.322l-21.892-40.976
		L157.051,348.602z"/>
	<path style="fill:#333333;" d="M337.415,418.031c-1.085,0-2.178-0.164-3.245-0.474c-2.789-0.884-5.031-2.634-6.471-4.994
		l-29.146-45.396c-1.777-2.78-1.923-6.298-0.365-9.223l31.999-59.869c1.549-2.889,4.53-4.739,7.811-4.812
		c3.281,0.055,6.352,1.613,8.038,4.42l27.342,45.569c1.522,2.534,1.713,5.642,0.538,8.348l-25.829,58.976
		c-0.948,2.579-2.771,4.712-5.204,6.052C341.17,417.557,339.302,418.031,337.415,418.031z M343.011,402.683l0.137,0.21
		C343.102,402.82,343.057,402.747,343.011,402.683z M316.772,361.826l19.476,30.322l19.075-43.546l-16.642-27.752L316.772,361.826z"
		/>
</g>
<path style="fill:#AC8164;" d="M255.454,311.49c-10.481,0.811-21.008-0.62-30.896-4.192c-30.44-16.04-60.243-51.311-60.243-72.364
	v-18.228c-13.58-5.997-23.122-18.565-25.245-33.266c-4.192-19.868-2.096-35.909,16.132-35.909v-27.342
	c0-45.569,27.888-91.777,100.253-91.777s100.253,46.481,100.253,91.777v27.342c18.228,0,20.324,16.04,16.132,35.909
	c-2.124,14.701-11.666,27.269-25.245,33.266v18.228c0,21.144-29.802,56.415-60.243,72.364
	C276.471,310.907,265.935,312.328,255.454,311.49z"/>
<path style="fill:#A47C61;" d="M356.436,150.447v-27.342c0-45.569-27.889-91.777-100.253-91.777
	c-4.685-0.109-9.378,0.109-14.035,0.638c-21.591,61.027-32.263,125.38-31.534,190.116c-0.118,27.405,1.394,54.802,4.557,82.025
	c3.226,2.196,6.571,4.211,10.025,6.015c9.889,3.573,20.415,5.004,30.896,4.192c10.472,0.838,21.008-0.556,30.896-4.101
	c30.532-15.858,60.334-51.22,60.334-72.273v-18.228c13.58-5.997,23.122-18.565,25.245-33.266
	C377.125,166.488,374.664,150.447,356.436,150.447z"/>
<g>
	<path style="fill:#333333;" d="M248.837,323.447c-9.278,0-18.419-1.549-27.278-4.639c-0.428-0.155-0.848-0.328-1.249-0.547
		c-42.024-22.147-64.499-54.082-65.091-92.442c-13.589-9.214-22.858-23.915-25.173-40.292c-3.609-17.198-2.206-29.802,4.402-37.941
		c2.269-2.789,5.942-5.942,11.638-7.647v-19.476c0-46.244,28.645-100.253,109.367-100.253c80.731,0,109.367,54.346,109.367,100.891
		v18.456c5.769,1.704,9.46,4.876,11.73,7.674c6.526,8.038,7.893,20.47,4.202,37.996c-2.023,16.004-11.283,30.887-25.063,40.229
		c-0.884,38.251-33.958,76.037-65.1,92.451c-0.365,0.191-0.747,0.365-1.148,0.51c-10.918,3.955-22.302,5.596-33.94,4.767
		C253.276,323.356,251.052,323.447,248.837,323.447z M228.185,301.811c8.558,2.889,17.453,3.937,26.458,3.153
		c0.501-0.046,1.012-0.036,1.504-0.009c9.059,0.684,17.973-0.474,26.521-3.472c27.05-14.5,54.82-47.31,54.82-77.587v-3.554
		c0-3.327,1.814-6.398,4.739-7.993c11.256-6.17,18.957-17.444,20.579-30.167c3.463-16.56,0.875-21.91-0.401-23.477
		c-0.428-0.538-1.75-2.16-6.681-2.16c-5.04,0-9.114-4.083-9.114-9.114v-26.339c0-39.964-23.942-82.663-91.139-82.663
		s-91.139,42.37-91.139,82.025v27.342c0,5.031-4.083,9.114-9.114,9.114c-4.839,0-6.17,1.631-6.608,2.169
		c-1.312,1.613-3.992,7.118-0.602,23.313c1.877,13.133,9.57,24.252,20.689,30.322c2.926,1.595,4.748,4.666,4.748,8.002v3.554
		C173.429,264.189,203.058,288.432,228.185,301.811z"/>
	<path style="fill:#333333;" d="M257.076,511.995c-0.31,0-0.602,0-0.911,0c-82.417-0.073-162.3-17.298-237.417-51.211
		c-4.584-2.069-6.626-7.464-4.557-12.049c2.078-4.593,7.473-6.635,12.058-4.557c72.747,32.837,150.115,49.525,229.934,49.589
		c0.292,0,0.583,0,0.884,0c79.719,0,156.914-16.715,229.469-49.671c4.63-2.114,9.998-0.046,12.067,4.52
		c2.087,4.584,0.055,9.989-4.52,12.067C419.149,494.734,339.402,511.995,257.076,511.995z"/>
	<path style="fill:#333333;" d="M359.535,207.5c-3.883,3.609-8.23,6.68-12.942,9.114v-18.228c0.055-1.258-0.921-2.324-2.178-2.379
		c-1.048-0.046-1.996,0.638-2.288,1.65l-11.757,35.362c-1.34,3.746-3.873,6.945-7.2,9.114l-13.124,9.114
		c-0.583-11.866-8.758-21.992-20.233-25.063c-11.155-3.226-22.666-5.067-34.268-5.468c-11.602,0.401-23.113,2.242-34.268,5.468
		c-11.292,3.235-19.258,13.325-19.777,25.063l-13.124-9.114c-3.327-2.169-5.86-5.368-7.2-9.114l-11.848-35.453
		c-0.355-1.212-1.613-1.905-2.825-1.549l0,0c-0.984,0.319-1.65,1.239-1.641,2.278v18.228c-4.712-2.433-9.059-5.505-12.942-9.114
		c-3.363,3.399-5.268,7.975-5.286,12.759v39.19c0,42.744,24.152,78.015,69.995,102.076c12.121,5.076,25.264,7.227,38.369,6.289
		h3.099c12.65,0.793,25.318-1.358,37.002-6.289c33.904-18.228,69.995-59.696,69.995-102.076v-39.007
		C365.021,215.493,363.025,210.873,359.535,207.5z M218.999,252.158c-0.137-4.265,2.707-8.048,6.835-9.114
		c9.661-2.67,19.604-4.165,29.62-4.466c10.034,0.456,19.978,2.105,29.62,4.921c4.129,1.066,6.972,4.849,6.835,9.114v13.306
		c0,5.031-4.083,9.114-9.114,9.114h-5.468c-1.914,0.009-3.5-1.467-3.646-3.372c0.055-3.017-2.269-5.55-5.286-5.742h-25.792
		c-3.017,0.191-5.341,2.725-5.286,5.742c-0.146,1.905-1.732,3.381-3.646,3.372h-5.468c-5.031,0-9.114-4.083-9.114-9.114
		L218.999,252.158z"/>
	<path style="fill:#333333;" d="M368.466,146.164c3.819-14.874,4.839-30.322,3.008-45.569c-5.104-43.109-9.661-50.947-50.582-79.2
		c-38.224-28.526-90.647-28.526-128.87,0c-41.012,28.253-45.569,36.456-50.582,79.655c-1.805,15.248-0.747,30.705,3.099,45.569
		l15.767,14.947c1.914,4.648,2.552,5.742,5.651,11.939c0.456,1.003,1.641,1.449,2.643,1.003c0.729-0.355,1.194-1.103,1.185-1.914
		v-43.747l6.835-12.486c1.358-2.652,2.051-5.587,2.005-8.567V94.762c-0.109-8.184,5.031-15.521,12.759-18.228
		c20.78-7.619,42.671-11.812,64.8-12.395c22.247,0.519,44.257,4.675,65.164,12.304c19.413,6.927,9.114,28.162,14.764,39.281
		l6.471,12.851v43.747c0,1.094,0.829,2.005,1.914,2.096c0.811,0.009,1.559-0.456,1.914-1.185c3.099-6.197,3.737-7.291,5.742-12.03
		L368.466,146.164z"/>
	<circle style="fill:#333333;" cx="212.892" cy="180.523" r="9.114"/>
	<circle style="fill:#333333;" cx="299.474" cy="180.523" r="9.114"/>
	<path style="fill:#333333;" d="M256.247,229c-3.272,0-6.589-0.538-9.743-1.613l-9.743-2.652c-2.433-0.665-3.864-3.172-3.199-5.596
		c0.665-2.433,3.199-3.873,5.596-3.199l10.025,2.734c4.612,1.568,9.396,1.568,13.726,0.082l10.308-2.816
		c2.47-0.665,4.94,0.775,5.596,3.199c0.656,2.433-0.775,4.931-3.199,5.596l-10.034,2.734C262.627,228.49,259.455,229,256.247,229z"
		/>
	<path style="fill:#333333;" d="M274.502,256.989h-36.456c-2.515,0-4.557-2.042-4.557-4.557s2.042-4.557,4.557-4.557h36.456
		c2.515,0,4.557,2.042,4.557,4.557S277.027,256.989,274.502,256.989z"/>
</g>
<g>
</g>
<g>
</g>
<g>
</g>
<g>
</g>
<g>
</g>
<g>
</g>
<g>
</g>
<g>
</g>
<g>
</g>
<g>
</g>
<g>
</g>
<g>
</g>
<g>
</g>
<g>
</g>
<g>
</g>
</svg>
