<?xml version="1.0" encoding="iso-8859-1"?>
<!-- Generator: Adobe Illustrator 19.0.0, SVG Export Plug-In . SVG Version: 6.00 Build 0)  -->
<svg version="1.1" id="Capa_1" xmlns="http://www.w3.org/2000/svg" xmlns:xlink="http://www.w3.org/1999/xlink" x="0px" y="0px"
	 viewBox="0 0 512.002 512.002" style="enable-background:new 0 0 512.002 512.002;" xml:space="preserve">
<rect x="185.844" y="266.292" style="fill:#E5BBB5;" width="140.662" height="166.245"/>
<path style="fill:#DDDDDC;" d="M256.175,503.211c77.962,0.062,155.009-16.765,225.85-49.32l-8.176-40.616
	c-3.692-20.563-19.174-37.003-39.473-41.935l-72.617-18.198l-26.374-43.957l-28.572,60.66l-50.55,54.243L205.8,373.186
	l-28.484-60.924l-26.374,43.957l-72.529,18.198c-20.071,4.712-35.552,20.677-39.649,40.88l-7.648,38.242
	C101.702,486.059,178.459,503,256.175,503.211z"/>
<g>
	<polygon style="fill:#A6B9C1;" points="141.887,358.241 106.722,367.384 106.722,397.363 141.887,397.363 	"/>
	<path style="fill:#A6B9C1;" d="M106.722,481.848l2.462,0.615l-2.462-0.703V481.848z"/>
	<rect x="106.722" y="432.537" style="fill:#A6B9C1;" width="35.165" height="35.165"/>
	<path style="fill:#A6B9C1;" d="M139.162,492.397l-6.066-1.319L139.162,492.397z"/>
	<path style="fill:#A6B9C1;" d="M130.81,488.089c-6.418-1.495-12.835-3.165-19.253-4.923
		C117.887,484.924,124.305,486.595,130.81,488.089z"/>
	<path style="fill:#A6B9C1;" d="M71.556,376.791c-10.514,4.07-19.455,11.402-25.495,20.923h25.495V376.791z"/>
	<path style="fill:#A6B9C1;" d="M71.556,470.419l-3.077-1.055L71.556,470.419z"/>
	<path style="fill:#A6B9C1;" d="M71.556,432.88H36.391v23.825c8.791,4.044,18.55,7.736,27.957,11.341h7.209V432.88z"/>
	<rect x="177.053" y="432.537" style="fill:#A6B9C1;" width="35.165" height="35.165"/>
	<polygon style="fill:#A6B9C1;" points="212.218,379.516 207.998,375.208 185.844,397.363 212.218,397.363 	"/>
	<rect x="300.132" y="432.537" style="fill:#A6B9C1;" width="35.165" height="35.165"/>
	<polygon style="fill:#A6B9C1;" points="303.121,373.89 300.132,377.055 300.132,397.363 326.506,397.363 	"/>
	<path style="fill:#A6B9C1;" d="M440.794,468.045h7.209c9.407-3.517,18.813-7.297,27.957-11.341V432.88h-35.165V468.045z"/>
	<path style="fill:#A6B9C1;" d="M440.794,470.419l3.341-1.231l-3.341,1.143V470.419z"/>
	<path style="fill:#A6B9C1;" d="M440.794,374.417v23.297h27.077C461.796,387.059,452.231,378.83,440.794,374.417z"/>
	<path style="fill:#A6B9C1;" d="M401.584,482.902c-6.681,1.846-13.451,3.604-20.22,5.187
		C388.045,486.507,394.903,484.837,401.584,482.902z"/>
	<path style="fill:#A6B9C1;" d="M367.737,492.397l6.242-1.495l-6.242,1.319V492.397z"/>
	<path style="fill:#A6B9C1;" d="M405.628,481.848l-2.725,0.879L405.628,481.848z"/>
	<polygon style="fill:#A6B9C1;" points="405.628,364.571 370.463,355.428 370.463,397.363 405.628,397.363 	"/>
	<rect x="370.463" y="432.537" style="fill:#A6B9C1;" width="35.165" height="35.165"/>
	<polygon style="fill:#A6B9C1;" points="177.053,432.528 177.053,406.154 185.844,397.363 141.887,397.363 141.887,432.528 	"/>
	<path style="fill:#A6B9C1;" d="M465.146,399.385c2.813,4.95,4.8,10.321,5.89,15.912l2.198,10.813v-26.374L465.146,399.385z"/>
	<rect x="71.556" y="397.371" style="fill:#A6B9C1;" width="35.165" height="35.165"/>
	<path style="fill:#A6B9C1;" d="M43.336,399.385h-9.67v29.187l2.198-10.813C37.2,411.227,39.732,404.993,43.336,399.385z"/>
	<polygon style="fill:#A6B9C1;" points="300.132,432.528 300.132,397.363 282.549,397.363 256.175,423.737 229.801,397.363 
		212.218,397.363 212.218,432.528 	"/>
	<rect x="405.628" y="397.371" style="fill:#A6B9C1;" width="35.165" height="35.165"/>
	<polygon style="fill:#A6B9C1;" points="335.297,432.528 370.463,432.528 370.463,397.363 326.506,397.363 335.297,406.154 	"/>
</g>
<g>
	<rect x="106.722" y="397.371" style="fill:#7D9BAA;" width="35.165" height="35.165"/>
	<path style="fill:#7D9BAA;" d="M71.556,397.714H46.061c-3.587,5.626-6.066,11.895-7.297,18.462l-2.11,10.374v6.33H71.82
		L71.556,397.714z"/>
	<polygon style="fill:#7D9BAA;" points="177.053,432.528 212.218,432.528 212.218,397.363 185.844,397.363 177.053,406.154 	"/>
	<polygon style="fill:#7D9BAA;" points="335.297,432.528 335.297,406.154 326.506,397.363 300.132,397.363 300.132,432.528 	"/>
	<path style="fill:#7D9BAA;" d="M467.871,397.714h-27.077v35.165h35.165v-8.791l-2.198-10.813
		C472.645,407.807,470.649,402.558,467.871,397.714z"/>
	<rect x="370.463" y="397.371" style="fill:#7D9BAA;" width="35.165" height="35.165"/>
</g>
<g>
	<path style="fill:#A6B9C1;" d="M405.628,468.045v14.066c11.868-3.429,23.649-7.297,35.165-11.429v-2.637H405.628z"/>
	<path style="fill:#A6B9C1;" d="M378.727,490.111l-4.659,1.055L378.727,490.111z"/>
	<path style="fill:#A6B9C1;" d="M448.266,468.045l-3.868,1.495L448.266,468.045z"/>
	<path style="fill:#A6B9C1;" d="M133.096,491.254l-4.835-1.143L133.096,491.254z"/>
	<path style="fill:#A6B9C1;" d="M64.084,468.045l4.396,1.582l-4.132-1.582H64.084z"/>
	<path style="fill:#A6B9C1;" d="M111.645,483.606l-2.549-1.055L111.645,483.606z"/>
	<path style="fill:#A6B9C1;" d="M71.556,468.045v2.637c11.517,4.22,23.297,8,35.165,11.429v-14.066H71.556z"/>
	<path style="fill:#A6B9C1;" d="M335.297,468.045v29.275c-11.693,1.758-23.473,3.077-35.165,3.956v-33.231h-87.914v33.143
		c-11.693-0.879-23.473-2.198-35.165-3.956v-29.187h-35.165v22.858c75.307,16.422,153.269,16.422,228.575,0v-22.858L335.297,468.045
		L335.297,468.045z"/>
</g>
<path style="fill:#7D9BAA;" d="M106.722,468.045v14.066l2.462,0.703l2.462,0.615c6.418,1.758,12.835,3.429,19.253,4.923l4.835,1.143
	l6.242,1.319v-22.77L106.722,468.045L106.722,468.045z"/>
<path style="fill:#A6B9C1;" d="M64.347,468.045l4.132,1.582l3.077,1.055v-2.637H64.347z"/>
<g>
	<path style="fill:#7D9BAA;" d="M177.053,496.881c11.693,1.758,23.473,3.077,35.165,3.956v-32.792h-35.165V496.881z"/>
	<path style="fill:#7D9BAA;" d="M300.132,501.189c11.693-0.879,23.473-2.198,35.165-3.956v-29.187h-35.165V501.189z"/>
</g>
<path style="fill:#A6B9C1;" d="M440.794,470.331l3.341-1.143l3.868-1.495h-7.209V470.331z"/>
<path style="fill:#7D9BAA;" d="M370.463,468.045v22.858l6.242-1.319l4.659-1.055c6.769-1.582,13.539-3.341,20.22-5.187h1.319
	l2.725-0.879v-14.418H370.463z"/>
<g>
	<circle style="fill:#333333;" cx="282.549" cy="450.12" r="6.594"/>
	<path style="fill:#333333;" d="M29.982,462.076c-0.607,0-1.231-0.062-1.846-0.193c-4.747-1.011-7.772-5.679-6.761-10.435
		l8.791-41.152c4.615-23.042,22.418-41.724,45.311-47.473l73.074-18.207c4.703-1.152,9.477,1.697,10.655,6.409
		s-1.688,9.486-6.409,10.664l-73.056,18.198c-16.334,4.106-29.047,17.442-32.361,33.979l-8.809,41.258
		C37.683,459.245,34.035,462.076,29.982,462.076z"/>
	<path style="fill:#333333;" d="M482.016,462.076c-4.062,0-7.71-2.822-8.589-6.954l-8.791-41.152
		c-3.341-16.651-16.053-29.987-32.414-34.102l-72.696-18.198c-4.703-1.178-7.569-5.952-6.391-10.664
		c1.178-4.712,5.952-7.587,10.664-6.391l72.705,18.198c22.901,5.75,40.695,24.431,45.337,47.588l8.765,41.038
		c1.02,4.747-2.013,9.416-6.761,10.435C483.238,462.014,482.623,462.076,482.016,462.076z"/>
	
		<rect x="223.211" y="357.707" transform="matrix(-0.7624 0.6471 -0.6471 -0.7624 664.5327 546.1442)" style="fill:#333333;" width="17.583" height="74.726"/>
	<path style="fill:#333333;" d="M256.175,511.65c-4.853,0-8.791-3.93-8.791-8.791v-79.298c0-2.084,0.738-4.106,2.092-5.688
		l48.352-56.968c3.147-3.692,8.677-4.158,12.396-1.011c3.701,3.139,4.158,8.686,1.011,12.396l-46.269,54.506v76.063
		C264.966,507.72,261.028,511.65,256.175,511.65z"/>
	<rect x="177.053" y="283.084" style="fill:#333333;" width="17.583" height="43.957"/>
	<rect x="317.714" y="283.084" style="fill:#333333;" width="17.583" height="43.957"/>
	<path style="fill:#333333;" d="M177.747,421.389c-1.96,0-3.877-0.527-5.591-1.565c-2.198-1.319-3.833-3.341-4.668-5.741
		l-24.871-56.792c-1.143-2.611-0.949-5.609,0.519-8.053l26.374-43.957c1.635-2.725,4.378-4.396,7.772-4.264
		c3.165,0.088,6.048,1.873,7.534,4.677l30.594,57.759c1.486,2.796,1.345,6.189-0.369,8.862l-28.009,43.632
		c-1.134,2.031-2.892,3.64-5.037,4.58c-0.457,0.202-1.055,0.404-1.538,0.527C179.558,421.275,178.653,421.389,177.747,421.389z
		 M160.551,354.399l18.286,41.768l18.638-29.029l-20.897-39.447L160.551,354.399z"/>
	<path style="fill:#333333;" d="M334.594,421.398c-0.897,0-1.785-0.114-2.664-0.334c-0.141-0.035-0.281-0.07-0.431-0.114
		c-2.822-0.782-5.213-2.69-6.602-5.275l-27.869-43.368c-1.714-2.681-1.855-6.075-0.352-8.897l30.866-57.759
		c1.495-2.787,4.369-4.572,7.534-4.642c3.165-0.026,6.128,1.556,7.754,4.264l26.374,43.957c1.468,2.444,1.653,5.442,0.519,8.053
		l-24.862,56.792c-0.835,2.4-2.453,4.413-4.651,5.741C338.488,420.862,336.554,421.398,334.594,421.398z M339.71,406.242
		l0.343,0.536C339.957,406.593,339.851,406.418,339.71,406.242z M314.62,367.164l18.787,29.249l18.4-42.014l-16.053-26.77
		L314.62,367.164z"/>
</g>
<path style="fill:#FBD3CA;" d="M255.472,318.064c-10.11,0.818-20.273-0.563-29.803-4.044
	c-29.363-15.473-58.111-49.495-58.111-69.803v-17.583c-13.134-5.75-22.348-17.89-24.352-32.088
	c-4.044-19.165-2.022-34.638,15.561-34.638v-25.935c0-43.957,26.902-88.529,96.705-88.529s96.705,44.836,96.705,88.529v26.374
	c17.583,0,19.605,15.473,15.561,34.638c-2.004,14.198-11.218,26.339-24.352,32.088v17.583c0,20.396-28.748,54.419-58.111,69.803
	C275.709,317.792,265.547,319.023,255.472,318.064z"/>
<path style="fill:#F3CAC2;" d="M352.88,162.897v-26.374c0-43.957-26.902-88.529-96.705-88.529
	c-4.519-0.105-9.046,0.105-13.539,0.615c-20.827,58.867-31.121,120.943-30.418,183.388c-0.123,26.436,1.345,52.862,4.396,79.122
	c3.112,2.119,6.339,4.062,9.671,5.802c9.53,3.481,19.693,4.862,29.803,4.044c10.136,0.703,20.299-0.791,29.803-4.396
	c29.451-15.297,58.199-49.407,58.199-69.715v-17.583c13.134-5.75,22.348-17.89,24.352-32.088
	C372.836,178.37,370.463,162.897,352.88,162.897z"/>
<path style="fill:#333333;" d="M261.212,330.082c-1.908,0-3.824-0.07-5.741-0.202c-11.174,0.809-22.233-0.738-32.818-4.598
	c-0.369-0.141-0.73-0.299-1.09-0.484c-40.537-21.372-62.225-52.194-62.788-89.188c-13.293-9.02-22.242-23.438-24.291-39.508
	c-3.455-16.202-2.128-28.194,4.167-35.948c2.198-2.708,5.758-5.767,11.323-7.402v-18.77c0-44.889,27.631-97.32,105.496-97.32
	c77.874,0,105.496,52.423,105.496,97.32h-17.583c0-38.55-23.095-79.738-87.914-79.738s-87.914,41.188-87.914,79.738v26.374
	c0,4.853-3.939,8.791-8.791,8.791c-4.765,0-6.04,1.574-6.453,2.084c-1.231,1.512-3.728,6.673-0.51,21.943
	c1.688,12.976,9.108,23.851,19.965,29.794c2.822,1.547,4.572,4.501,4.572,7.71v3.429c0,38.533,28.625,61.935,52.88,74.841
	c8.238,2.928,16.827,4.053,25.53,3.341c0.475-0.035,0.941-0.035,1.415,0c8.703,0.712,17.301-0.413,25.521-3.341
	c26.102-13.987,52.898-45.645,52.898-74.841v-3.429c0-3.209,1.749-6.172,4.572-7.71c10.857-5.943,18.277-16.818,19.851-29.099
	c3.341-15.974,0.844-21.134-0.387-22.647c-0.413-0.519-1.688-2.084-6.444-2.084v-17.583c10.857,0,16.932,4.668,20.106,8.598
	c6.295,7.754,7.613,19.745,4.053,36.651c-1.952,15.438-10.884,29.803-24.176,38.814c-0.853,36.889-32.748,73.337-62.788,89.18
	c-0.352,0.185-0.721,0.343-1.09,0.484C279.516,328.465,270.435,330.082,261.212,330.082z"/>
<path style="fill:#FBD3CA;" d="M183.031,122.281l-24.88-8.791c20.194-4.475,41.012-5.459,61.54-2.901"/>
<g style="opacity:0.2;enable-background:new    ;">
	<path style="fill:#E1C7C4;" d="M306.462,119.468c9.117-0.413,18.04,2.743,24.88,8.791c5.873,7.912,10.198,16.853,12.747,26.374
		l1.319-47.034h-45.276L306.462,119.468z"/>
</g>
<g style="opacity:0.2;enable-background:new    ;">
	<path style="fill:#E1C7C4;" d="M288.615,119.468c-14.33-17.583-50.023-23.033-68.661-26.374
		c2.198,12.132,21.89,10.813,31.913,17.583c2.637,1.758,0,1.582-3.253,1.143c-6.857-1.143-12.835-2.11-24.176-4.396
		c-25.143-5.011-65.496,4.835-65.496,4.835c24.853,1.292,49.61,3.842,74.287,7.648c13.662,2.831,27.491,4.739,41.407,5.714
		c3.596,0.264,7.068,1.415,10.11,3.341c12.572,7.798,26.11,13.917,40.264,18.198l-7.297-12.22
		C308.923,130.457,294.242,126.149,288.615,119.468z"/>
</g>
<g>
	<path style="fill:#333333;" d="M344.528,38.236c-25.671-18.198-45.1-17.583-83.957-15.737
		c12.378-6.629,25.732-11.227,39.561-13.627c1.037-0.369,1.582-1.503,1.231-2.549l0,0c-0.202-0.545-0.615-0.985-1.143-1.231
		C154.986-19.172,158.151,51.159,158.151,51.159c-19.429,8.176-25.055,18.989-25.055,57.759c0,32.968,12.572,43.957,31.034,70.331
		c0.633,0.967,1.925,1.24,2.901,0.615l0,0c0.642-0.352,1.046-1.02,1.055-1.758v-23.737c-0.448-10.901,3.807-21.469,11.693-29.011
		c0.826-0.826,0.826-2.163,0.009-2.98c0,0,0,0-0.009-0.009l0,0l-0.352-0.967l-13.187-5.011c-1.152-0.167-1.952-1.24-1.785-2.391
		c0.009-0.053,0.018-0.105,0.026-0.158c0.185-0.879,0.879-1.574,1.758-1.758c17.688-3.341,35.798-3.78,53.627-1.319
		c17.583,3.077,29.803,4.484,37.715,5.714c0.703,0.167,1.407-0.264,1.582-0.967l0,0c-0.018-0.457-0.246-0.879-0.615-1.143
		c-12.695-8.475-26.251-15.569-40.44-21.187c20.923,2.989,53.627,10.374,71.65,28.132c9.486,8.343,20.422,14.875,32.264,19.253
		c0.589,0.343,1.345,0.132,1.679-0.457c0.026-0.053,0.053-0.105,0.079-0.158c0.264-0.466,0.264-1.029,0-1.495
		c-6.681-7.209-12.853-14.875-18.462-22.945c42.374,5.099,37.979,11.517,37.539,62.682c0,1.213,0.985,2.198,2.198,2.198
		c0.712,0.097,1.407-0.255,1.758-0.879c18.726-26.374,32.968-32.44,32.968-65.408C379.254,95.995,382.331,64.961,344.528,38.236z"/>
	<path style="fill:#333333;" d="M256.606,512.002c-0.149,0-0.29,0-0.44,0c-79.518-0.026-156.574-16.651-229.024-49.399
		c-4.422-2.004-6.391-7.2-4.387-11.631c2.004-4.413,7.209-6.4,11.631-4.387c70.155,31.71,144.785,47.807,221.797,47.834
		c0.141,0,0.281,0,0.422,0c77.065,0,151.669-16.238,221.78-48.256c4.396-2.031,9.627-0.079,11.64,4.343
		c2.013,4.413,0.079,9.627-4.343,11.64C413.259,495.228,336.194,512.002,256.606,512.002z"/>
	<path style="fill:#333333;" d="M355.869,217.931c-3.701,3.534-7.912,6.497-12.484,8.791V209.14c0.053-1.213-0.897-2.233-2.11-2.286
		l0,0l0,0c-1.002-0.009-1.89,0.633-2.198,1.582l-11.341,34.11c-1.292,3.613-3.736,6.699-6.945,8.791l-12.66,8.791
		c-0.563-11.446-8.448-21.214-19.517-24.176c-10.769-3.068-21.864-4.835-33.055-5.275c-11.191,0.44-22.286,2.207-33.056,5.275
		c-10.892,3.121-18.576,12.853-19.077,24.176l-12.66-8.791c-3.209-2.092-5.653-5.178-6.945-8.791l-11.429-34.198
		c-0.343-1.169-1.556-1.837-2.725-1.495l0,0c-0.932,0.334-1.565,1.204-1.582,2.198v17.583c-4.572-2.295-8.783-5.257-12.484-8.791
		c-3.244,3.279-5.081,7.692-5.099,12.308v37.803c0,41.231,23.297,75.254,67.518,98.463c11.675,4.941,24.37,7.016,37.012,6.066h2.989
		c12.202,0.765,24.422-1.31,35.693-6.066c32.704-17.583,67.518-57.583,67.518-98.463v-37.803
		C361.117,225.535,359.192,221.14,355.869,217.931z M220.306,261.009c-0.132-4.114,2.611-7.763,6.594-8.791
		c9.301-2.717,18.893-4.308,28.572-4.747c9.679,0.44,19.271,2.031,28.572,4.747c3.982,1.029,6.725,4.677,6.594,8.791v13.627
		c0,4.853-3.939,8.791-8.791,8.791h-5.275c-1.846,0.009-3.376-1.415-3.517-3.253c0.053-2.91-2.189-5.354-5.099-5.539h-24.88
		c-2.91,0.185-5.152,2.629-5.099,5.539c-0.141,1.837-1.67,3.262-3.517,3.253h-5.275c-4.853,0-8.791-3.939-8.791-8.791
		L220.306,261.009z"/>
	<circle style="fill:#333333;" cx="213.713" cy="191.908" r="8.791"/>
	<circle style="fill:#333333;" cx="297.231" cy="191.908" r="8.791"/>
	<path style="fill:#333333;" d="M255.621,239.03c-3.156,0-6.356-0.519-9.398-1.556l-9.398-2.558
		c-2.347-0.642-3.728-3.059-3.086-5.398c0.642-2.356,3.086-3.719,5.398-3.086l9.671,2.637c4.457,1.521,9.073,1.521,13.249,0.079
		l9.934-2.717c2.374-0.651,4.765,0.747,5.398,3.086c0.633,2.339-0.747,4.756-3.086,5.398l-9.679,2.637
		C261.775,238.538,258.716,239.03,255.621,239.03z"/>
	<path style="fill:#333333;" d="M273.142,265.668h-35.165c-2.426,0-4.396-1.96-4.396-4.396s1.969-4.396,4.396-4.396h35.165
		c2.426,0,4.396,1.969,4.396,4.396C277.538,263.699,275.569,265.668,273.142,265.668z"/>
</g>
<g>
</g>
<g>
</g>
<g>
</g>
<g>
</g>
<g>
</g>
<g>
</g>
<g>
</g>
<g>
</g>
<g>
</g>
<g>
</g>
<g>
</g>
<g>
</g>
<g>
</g>
<g>
</g>
<g>
</g>
</svg>
