<?xml version="1.0" encoding="UTF-8" standalone="no"?>
<!-- Created with Inkscape (http://www.inkscape.org/) -->

<svg
   xmlns:dc="http://purl.org/dc/elements/1.1/"
   xmlns:cc="http://creativecommons.org/ns#"
   xmlns:rdf="http://www.w3.org/1999/02/22-rdf-syntax-ns#"
   xmlns:svg="http://www.w3.org/2000/svg"
   xmlns="http://www.w3.org/2000/svg"
   xmlns:xlink="http://www.w3.org/1999/xlink"
   xmlns:sodipodi="http://sodipodi.sourceforge.net/DTD/sodipodi-0.dtd"
   xmlns:inkscape="http://www.inkscape.org/namespaces/inkscape"
   width="197.55556mm"
   height="141.11111mm"
   viewBox="0 0 700.00001 500.00001"
   id="svg2"
   version="1.1"
   inkscape:version="0.92.3 (2405546, 2018-03-11)"
   sodipodi:docname="featured_icon.svg">
  <defs
     id="defs4">
    <linearGradient
       inkscape:collect="always"
       id="linearGradient5468">
      <stop
         style="stop-color:#177753;stop-opacity:1"
         offset="0"
         id="stop5470" />
      <stop
         style="stop-color:#092e20;stop-opacity:1"
         offset="1"
         id="stop5472" />
    </linearGradient>
    <clipPath
       id="clipPath5135"
       clipPathUnits="userSpaceOnUse">
      <rect
         y="-36.741493"
         x="937.71857"
         height="221.06453"
         width="504.56284"
         id="rect5137"
         style="opacity:1;fill:#949494;fill-opacity:1;stroke:none;stroke-width:4.16200018;stroke-linecap:round;stroke-linejoin:round;stroke-miterlimit:4;stroke-dasharray:none;stroke-opacity:1" />
    </clipPath>
    <clipPath
       id="clipPath5578"
       clipPathUnits="userSpaceOnUse">
      <rect
         transform="matrix(0.70710678,-0.70710678,0.70710678,0.70710678,0,0)"
         inkscape:export-ydpi="90"
         inkscape:export-xdpi="90"
         inkscape:export-filename="C:\Users\f9539184\Desktop\Vinicius\dev\jekyll\mavinstecnologia.github.io\assets\posts\desenvolvimento-web-com-python-e-django-introducao\thumb-bg.png"
         y="867.06122"
         x="-2061.3474"
         height="630"
         width="1200"
         id="rect5580"
         style="opacity:1;fill:url(#radialGradient5582);fill-opacity:1;stroke:none;stroke-width:4.16200018;stroke-linecap:round;stroke-linejoin:round;stroke-miterlimit:4;stroke-dasharray:none;stroke-opacity:1" />
    </clipPath>
    <radialGradient
       r="600"
       fy="617.87262"
       fx="262.85715"
       cy="617.87262"
       cx="262.85715"
       gradientTransform="matrix(0,-0.71428577,1.3154762,-2.0960848e-5,-2221.3681,1360.1303)"
       gradientUnits="userSpaceOnUse"
       id="radialGradient5582"
       xlink:href="#linearGradient5468"
       inkscape:collect="always" />
    <clipPath
       id="clipPath5584"
       clipPathUnits="userSpaceOnUse">
      <rect
         transform="matrix(0.70710678,-0.70710678,0.70710678,0.70710678,0,0)"
         inkscape:export-ydpi="90"
         inkscape:export-xdpi="90"
         inkscape:export-filename="C:\Users\f9539184\Desktop\Vinicius\dev\jekyll\mavinstecnologia.github.io\assets\posts\desenvolvimento-web-com-python-e-django-introducao\thumb-bg.png"
         y="867.06122"
         x="-2061.3474"
         height="630"
         width="1200"
         id="rect5586"
         style="opacity:1;fill:url(#radialGradient5588);fill-opacity:1;stroke:none;stroke-width:4.16200018;stroke-linecap:round;stroke-linejoin:round;stroke-miterlimit:4;stroke-dasharray:none;stroke-opacity:1" />
    </clipPath>
    <radialGradient
       r="600"
       fy="617.87262"
       fx="262.85715"
       cy="617.87262"
       cx="262.85715"
       gradientTransform="matrix(0,-0.71428577,1.3154762,-2.0960848e-5,-2221.3681,1360.1303)"
       gradientUnits="userSpaceOnUse"
       id="radialGradient5588"
       xlink:href="#linearGradient5468"
       inkscape:collect="always" />
    <clipPath
       id="clipPath5590"
       clipPathUnits="userSpaceOnUse">
      <rect
         transform="matrix(0.70710678,-0.70710678,0.70710678,0.70710678,0,0)"
         inkscape:export-ydpi="90"
         inkscape:export-xdpi="90"
         inkscape:export-filename="C:\Users\f9539184\Desktop\Vinicius\dev\jekyll\mavinstecnologia.github.io\assets\posts\desenvolvimento-web-com-python-e-django-introducao\thumb-bg.png"
         y="867.06122"
         x="-2061.3474"
         height="630"
         width="1200"
         id="rect5592"
         style="opacity:1;fill:url(#radialGradient5594);fill-opacity:1;stroke:none;stroke-width:4.16200018;stroke-linecap:round;stroke-linejoin:round;stroke-miterlimit:4;stroke-dasharray:none;stroke-opacity:1" />
    </clipPath>
    <radialGradient
       r="600"
       fy="617.87262"
       fx="262.85715"
       cy="617.87262"
       cx="262.85715"
       gradientTransform="matrix(0,-0.71428577,1.3154762,-2.0960848e-5,-2221.3681,1360.1303)"
       gradientUnits="userSpaceOnUse"
       id="radialGradient5594"
       xlink:href="#linearGradient5468"
       inkscape:collect="always" />
    <clipPath
       id="clipPath5596"
       clipPathUnits="userSpaceOnUse">
      <rect
         transform="matrix(0.70710678,-0.70710678,0.70710678,0.70710678,0,0)"
         inkscape:export-ydpi="90"
         inkscape:export-xdpi="90"
         inkscape:export-filename="C:\Users\f9539184\Desktop\Vinicius\dev\jekyll\mavinstecnologia.github.io\assets\posts\desenvolvimento-web-com-python-e-django-introducao\thumb-bg.png"
         y="867.06122"
         x="-2061.3474"
         height="630"
         width="1200"
         id="rect5598"
         style="opacity:1;fill:url(#radialGradient5600);fill-opacity:1;stroke:none;stroke-width:4.16200018;stroke-linecap:round;stroke-linejoin:round;stroke-miterlimit:4;stroke-dasharray:none;stroke-opacity:1" />
    </clipPath>
    <radialGradient
       r="600"
       fy="617.87262"
       fx="262.85715"
       cy="617.87262"
       cx="262.85715"
       gradientTransform="matrix(0,-0.71428577,1.3154762,-2.0960848e-5,-2221.3681,1360.1303)"
       gradientUnits="userSpaceOnUse"
       id="radialGradient5600"
       xlink:href="#linearGradient5468"
       inkscape:collect="always" />
    <clipPath
       id="clipPath5602"
       clipPathUnits="userSpaceOnUse">
      <rect
         transform="matrix(0.70710678,-0.70710678,0.70710678,0.70710678,0,0)"
         inkscape:export-ydpi="90"
         inkscape:export-xdpi="90"
         inkscape:export-filename="C:\Users\f9539184\Desktop\Vinicius\dev\jekyll\mavinstecnologia.github.io\assets\posts\desenvolvimento-web-com-python-e-django-introducao\thumb-bg.png"
         y="867.06122"
         x="-2061.3474"
         height="630"
         width="1200"
         id="rect5604"
         style="opacity:1;fill:url(#radialGradient5606);fill-opacity:1;stroke:none;stroke-width:4.16200018;stroke-linecap:round;stroke-linejoin:round;stroke-miterlimit:4;stroke-dasharray:none;stroke-opacity:1" />
    </clipPath>
    <radialGradient
       r="600"
       fy="617.87262"
       fx="262.85715"
       cy="617.87262"
       cx="262.85715"
       gradientTransform="matrix(0,-0.71428577,1.3154762,-2.0960848e-5,-2221.3681,1360.1303)"
       gradientUnits="userSpaceOnUse"
       id="radialGradient5606"
       xlink:href="#linearGradient5468"
       inkscape:collect="always" />
    <clipPath
       id="clipPath5608"
       clipPathUnits="userSpaceOnUse">
      <rect
         transform="matrix(0.70710678,-0.70710678,0.70710678,0.70710678,0,0)"
         inkscape:export-ydpi="90"
         inkscape:export-xdpi="90"
         inkscape:export-filename="C:\Users\f9539184\Desktop\Vinicius\dev\jekyll\mavinstecnologia.github.io\assets\posts\desenvolvimento-web-com-python-e-django-introducao\thumb-bg.png"
         y="867.06122"
         x="-2061.3474"
         height="630"
         width="1200"
         id="rect5610"
         style="opacity:1;fill:url(#radialGradient5612);fill-opacity:1;stroke:none;stroke-width:4.16200018;stroke-linecap:round;stroke-linejoin:round;stroke-miterlimit:4;stroke-dasharray:none;stroke-opacity:1" />
    </clipPath>
    <radialGradient
       r="600"
       fy="617.87262"
       fx="262.85715"
       cy="617.87262"
       cx="262.85715"
       gradientTransform="matrix(0,-0.71428577,1.3154762,-2.0960848e-5,-2221.3681,1360.1303)"
       gradientUnits="userSpaceOnUse"
       id="radialGradient5612"
       xlink:href="#linearGradient5468"
       inkscape:collect="always" />
  </defs>
  <sodipodi:namedview
     id="base"
     pagecolor="#ffffff"
     bordercolor="#666666"
     borderopacity="1.0"
     inkscape:pageopacity="0.0"
     inkscape:pageshadow="2"
     inkscape:zoom="0.49497475"
     inkscape:cx="30.747412"
     inkscape:cy="624.0646"
     inkscape:document-units="px"
     inkscape:current-layer="layer1"
     showgrid="false"
     fit-margin-top="0"
     fit-margin-left="0"
     fit-margin-right="0"
     fit-margin-bottom="0"
     inkscape:window-width="2560"
     inkscape:window-height="1017"
     inkscape:window-x="-8"
     inkscape:window-y="-8"
     inkscape:window-maximized="1" />
  <metadata
     id="metadata7">
    <rdf:RDF>
      <cc:Work
         rdf:about="">
        <dc:format>image/svg+xml</dc:format>
        <dc:type
           rdf:resource="http://purl.org/dc/dcmitype/StillImage" />
        <dc:title />
      </cc:Work>
    </rdf:RDF>
  </metadata>
  <g
     inkscape:label="Camada 1"
     inkscape:groupmode="layer"
     id="layer1"
     transform="translate(79.943932,-155.16328)">
    <rect
       style="opacity:1;fill:#cccccc;fill-opacity:0;stroke:none;stroke-width:0.41213304;stroke-linecap:round;stroke-linejoin:round;stroke-miterlimit:4;stroke-dasharray:none;stroke-dashoffset:0;stroke-opacity:1"
       id="rect4136"
       width="700"
       height="500"
       x="-79.943932"
       y="155.16328" />
    <text
       id="text7817"
       y="687.01227"
       x="-355.0593"
       style="font-style:normal;font-weight:normal;line-height:0%;font-family:sans-serif;letter-spacing:0px;word-spacing:0px;fill:#000000;fill-opacity:1;stroke:none;stroke-width:1px;stroke-linecap:butt;stroke-linejoin:miter;stroke-opacity:1"
       xml:space="preserve"><tspan
         y="687.01227"
         x="-355.0593"
         id="tspan7819"
         sodipodi:role="line"> </tspan></text>
    <circle
       r="0"
       cy="40.466427"
       cx="-293.01733"
       id="path6142-0"
       style="opacity:1;fill:#e06f69;fill-opacity:1;stroke:none;stroke-width:1.60000002;stroke-miterlimit:4;stroke-dasharray:none;stroke-opacity:1" />
    <circle
       r="0"
       cy="40.466427"
       cx="-273.50555"
       id="path6142-4-5"
       style="opacity:1;fill:#dbba35;fill-opacity:1;stroke:none;stroke-width:1.60000002;stroke-miterlimit:4;stroke-dasharray:none;stroke-opacity:1" />
    <circle
       r="0"
       cy="40.466427"
       cx="-253.99391"
       id="path6142-6-4"
       style="opacity:1;fill:#38d787;fill-opacity:1;stroke:none;stroke-width:1.60000002;stroke-miterlimit:4;stroke-dasharray:none;stroke-opacity:1" />
    <g
       style="fill:#f2f2f2;stroke:#333333;stroke-width:4;stroke-miterlimit:4;stroke-dasharray:none;stroke-opacity:1"
       id="g4139"
       transform="matrix(1.4328791,0,0,1.4328791,-42.673377,256.95252)">
      <g
         style="fill:#f2f2f2;stroke:#333333;stroke-width:4;stroke-miterlimit:4;stroke-dasharray:none;stroke-opacity:1"
         id="g4141">
        <path
           style="fill:#f2f2f2;stroke:#333333;stroke-width:4;stroke-miterlimit:4;stroke-dasharray:none;stroke-opacity:1"
           inkscape:connector-curvature="0"
           d="M 51.464,0 H 75.336 V 110.496 C 63.09,112.821 54.099,113.751 44.334,113.751 15.191,113.75 0,100.576 0,75.308 0,50.971 16.122,35.161 41.078,35.161 c 3.875,0 6.82,0.309 10.386,1.239 z m 0,55.62 c -2.79,-0.929 -5.115,-1.239 -8.06,-1.239 -12.091,0 -19.067,7.441 -19.067,20.461 0,12.712 6.666,19.687 18.912,19.687 2.634,0 4.805,-0.155 8.215,-0.619 z"
           id="path4143" />
        <path
           style="fill:#f2f2f2;stroke:#333333;stroke-width:4;stroke-miterlimit:4;stroke-dasharray:none;stroke-opacity:1"
           inkscape:connector-curvature="0"
           d="m 113.312,36.865 v 55.338 c 0,19.067 -1.395,28.212 -5.58,36.118 -3.876,7.597 -8.992,12.401 -19.532,17.672 L 66.033,135.452 c 10.541,-4.96 15.656,-9.299 18.911,-15.967 3.411,-6.82 4.497,-14.726 4.497,-35.497 V 36.865 Z M 89.441,0.127 h 23.871 V 24.619 H 89.441 Z"
           id="path4145" />
        <path
           style="fill:#f2f2f2;stroke:#333333;stroke-width:4;stroke-miterlimit:4;stroke-dasharray:none;stroke-opacity:1"
           inkscape:connector-curvature="0"
           d="m 127.731,42.29 c 10.542,-4.959 20.617,-7.129 31.623,-7.129 12.246,0 20.306,3.254 23.872,9.61 2.014,3.565 2.634,8.215 2.634,18.137 v 48.517 c -10.697,1.55 -24.182,2.636 -34.102,2.636 -19.996,0 -28.988,-6.978 -28.988,-22.478 0,-16.742 11.936,-24.492 41.234,-26.973 v -5.27 c 0,-4.34 -2.17,-5.889 -8.216,-5.889 -8.835,0 -18.756,2.48 -28.058,7.286 V 42.29 Z m 37.358,37.978 c -15.812,1.55 -20.927,4.031 -20.927,10.231 0,4.65 2.946,6.82 9.456,6.82 3.566,0 6.82,-0.309 11.471,-1.084 z"
           id="path4147" />
        <path
           style="fill:#f2f2f2;stroke:#333333;stroke-width:4;stroke-miterlimit:4;stroke-dasharray:none;stroke-opacity:1"
           inkscape:connector-curvature="0"
           d="m 197.487,40.585 c 14.105,-3.72 25.731,-5.424 37.512,-5.424 12.246,0 21.082,2.789 26.354,8.215 4.96,5.114 6.509,10.694 6.509,22.632 V 112.82 H 243.99 V 66.938 c 0,-9.145 -3.1,-12.557 -11.625,-12.557 -3.255,0 -6.2,0.31 -11.007,1.705 v 56.734 h -23.871 z"
           id="path4149" />
        <path
           style="fill:#f2f2f2;stroke:#333333;stroke-width:4;stroke-miterlimit:4;stroke-dasharray:none;stroke-opacity:1"
           inkscape:connector-curvature="0"
           d="m 277.142,125.842 c 8.372,4.34 16.742,6.354 25.577,6.354 15.655,0 22.321,-6.354 22.321,-21.546 0,-0.155 0,-0.31 0,-0.465 -4.65,2.324 -9.301,3.255 -15.5,3.255 -20.927,0 -34.26,-13.796 -34.26,-35.652 0,-27.129 19.688,-42.473 54.564,-42.473 10.232,0 19.688,1.084 31.159,3.409 l -8.174,17.219 c -6.356,-1.24 -0.509,-0.166 -5.312,-0.631 v 2.481 l 0.309,10.074 0.154,13.022 c 0.155,3.254 0.155,6.51 0.311,9.765 0,2.945 0,4.341 0,6.511 0,20.462 -1.705,30.072 -6.82,37.977 -7.441,11.627 -20.307,17.362 -38.598,17.362 -9.301,0 -17.36,-1.395 -25.732,-4.651 v -22.011 z m 47.434,-71.306 c -0.31,0 -0.619,0 -0.774,0 h -1.706 c -4.649,-0.155 -10.074,1.084 -13.796,3.409 -5.734,3.256 -8.681,9.147 -8.681,17.517 0,11.937 5.892,18.757 16.432,18.757 3.255,0 5.891,-0.621 8.99,-1.55 v -1.706 -6.509 c 0,-2.79 -0.154,-5.892 -0.154,-9.146 l -0.154,-11.005 -0.156,-7.906 v -1.861 z"
           id="path4151" />
        <path
           style="fill:#f2f2f2;stroke:#333333;stroke-width:4;stroke-miterlimit:4;stroke-dasharray:none;stroke-opacity:1"
           inkscape:connector-curvature="0"
           d="m 398.062,34.85 c 23.871,0 38.443,15.037 38.443,39.373 0,24.958 -15.19,40.614 -39.373,40.614 -23.873,0 -38.599,-15.037 -38.599,-39.218 10e-4,-25.114 15.193,-40.769 39.529,-40.769 z m -0.467,60.764 c 9.147,0 14.573,-7.596 14.573,-20.772 0,-13.02 -5.271,-20.771 -14.415,-20.771 -9.457,0 -14.884,7.597 -14.884,20.771 10e-4,13.177 5.427,20.772 14.726,20.772 z"
           id="path4153" />
      </g>
    </g>
    <path
       style="fill:#333333;fill-opacity:1;fill-rule:evenodd;stroke:#4d4d4d;stroke-width:3.93631744;stroke-linecap:butt;stroke-linejoin:miter;stroke-miterlimit:4;stroke-dasharray:none;stroke-opacity:1"
       d="m 433.68102,533.84892 h 49.80647"
       id="path7352"
       inkscape:connector-curvature="0" />
    <path
       style="fill:#333333;fill-opacity:1;fill-rule:evenodd;stroke:#4d4d4d;stroke-width:3.93631744;stroke-linecap:butt;stroke-linejoin:miter;stroke-miterlimit:4;stroke-dasharray:none;stroke-opacity:1"
       d="m 56.62465,533.84892 h 49.80648"
       id="path916"
       inkscape:connector-curvature="0" />
    <g
       id="g973"
       style="font-style:normal;font-weight:normal;font-size:58.37850952px;line-height:1.25;font-family:sans-serif;letter-spacing:0px;word-spacing:0px;fill:#4d4d4d;fill-opacity:1;stroke:none;stroke-width:1.45946264"
       aria-label="Camada Model"
       transform="matrix(0.83739822,0,0,0.83739822,45.207075,86.753143)">
      <path
         id="path951"
         style="font-style:normal;font-variant:normal;font-weight:normal;font-stretch:normal;font-family:'Agency FB';-inkscape-font-specification:'Agency FB';fill:#4d4d4d;fill-opacity:1;stroke-width:1.45946264"
         d="m 159.61294,551.82647 q 0,1.39675 -0.91217,2.28041 -0.91216,0.88366 -2.30891,0.88366 h -11.48757 q -1.39675,0 -2.28041,-0.88366 -0.88366,-0.88366 -0.88366,-2.28041 v -38.28239 q 0,-1.39675 0.88366,-2.28041 0.88366,-0.88366 2.28041,-0.88366 h 11.48757 q 1.39675,0 2.30891,0.88366 0.91217,0.88366 0.91217,2.28041 v 10.37587 h -3.99072 v -10.03381 h -9.91979 v 37.59827 h 9.91979 v -10.97448 h 3.99072 z"
         inkscape:connector-curvature="0" />
      <path
         id="path953"
         style="font-style:normal;font-variant:normal;font-weight:normal;font-stretch:normal;font-family:'Agency FB';-inkscape-font-specification:'Agency FB';fill:#4d4d4d;fill-opacity:1;stroke-width:1.45946264"
         d="m 181.81843,554.99054 h -3.73417 v -0.76964 q -2.2519,0.31356 -4.50381,0.59861 -2.7935,0.34206 -4.4753,0.34206 -3.10706,0 -3.10706,-3.07855 v -10.11933 q 0,-3.19257 3.22108,-3.19257 h 8.9221 v -8.352 h -8.15247 v 4.73185 h -3.67716 v -4.67484 q 0,-3.22108 3.19258,-3.22108 h 9.12164 q 3.19257,0 3.19257,3.22108 z m -3.67716,-3.44912 v -9.80577 h -8.46602 v 9.9768 z"
         inkscape:connector-curvature="0" />
      <path
         id="path955"
         style="font-style:normal;font-variant:normal;font-weight:normal;font-stretch:normal;font-family:'Agency FB';-inkscape-font-specification:'Agency FB';fill:#4d4d4d;fill-opacity:1;stroke-width:1.45946264"
         d="m 215.91057,554.99054 h -3.79118 v -24.34338 l -8.26649,0.22804 v 24.11534 h -3.76268 v -24.34338 l -8.26649,0.22804 v 24.11534 h -3.79118 v -27.73549 h 3.79118 v 0.76964 q 2.2234,-0.28506 4.4468,-0.59861 2.70799,-0.34206 4.47531,-0.34206 1.73881,0 2.56546,1.05469 2.39443,-0.31356 4.76036,-0.65562 3.10706,-0.39907 4.70334,-0.39907 3.13557,0 3.13557,3.10706 z"
         inkscape:connector-curvature="0" />
      <path
         id="path957"
         style="font-style:normal;font-variant:normal;font-weight:normal;font-stretch:normal;font-family:'Agency FB';-inkscape-font-specification:'Agency FB';fill:#4d4d4d;fill-opacity:1;stroke-width:1.45946264"
         d="m 237.80251,554.99054 h -3.73417 v -0.76964 q -2.2519,0.31356 -4.50381,0.59861 -2.7935,0.34206 -4.47531,0.34206 -3.10705,0 -3.10705,-3.07855 v -10.11933 q 0,-3.19257 3.22108,-3.19257 h 8.9221 v -8.352 h -8.15247 v 4.73185 h -3.67716 v -4.67484 q 0,-3.22108 3.19258,-3.22108 h 9.12164 q 3.19257,0 3.19257,3.22108 z m -3.67716,-3.44912 v -9.80577 h -8.46602 v 9.9768 z"
         inkscape:connector-curvature="0" />
      <path
         id="path959"
         style="font-style:normal;font-variant:normal;font-weight:normal;font-stretch:normal;font-family:'Agency FB';-inkscape-font-specification:'Agency FB';fill:#4d4d4d;fill-opacity:1;stroke-width:1.45946264"
         d="m 259.77997,554.99054 h -3.76268 v -0.76964 q -6.1001,0.94067 -6.75572,0.94067 -2.42293,0 -3.9052,-1.62479 -1.48227,-1.6533 -1.48227,-4.10474 v -16.21942 q 0,-2.56546 1.68181,-4.24727 1.6818,-1.7103 4.21875,-1.7103 h 6.24263 v -16.87504 h 3.76268 z m -3.76268,-3.44912 v -20.95127 h -5.24495 q -3.13556,0 -3.13556,3.22108 v 14.82267 q 0,3.19257 3.13556,3.19257 0.74114,0 5.24495,-0.28505 z"
         inkscape:connector-curvature="0" />
      <path
         id="path961"
         style="font-style:normal;font-variant:normal;font-weight:normal;font-stretch:normal;font-family:'Agency FB';-inkscape-font-specification:'Agency FB';fill:#4d4d4d;fill-opacity:1;stroke-width:1.45946264"
         d="m 281.70042,554.99054 h -3.73418 v -0.76964 q -2.2519,0.31356 -4.50381,0.59861 -2.7935,0.34206 -4.4753,0.34206 -3.10706,0 -3.10706,-3.07855 v -10.11933 q 0,-3.19257 3.22108,-3.19257 h 8.9221 v -8.352 h -8.15246 v 4.73185 h -3.67716 v -4.67484 q 0,-3.22108 3.19257,-3.22108 h 9.12164 q 3.19258,0 3.19258,3.22108 z m -3.67717,-3.44912 v -9.80577 h -8.46602 v 9.9768 z"
         inkscape:connector-curvature="0" />
      <path
         id="path963"
         style="font-style:normal;font-variant:normal;font-weight:normal;font-stretch:normal;font-family:'Agency FB';-inkscape-font-specification:'Agency FB';fill:#4d4d4d;fill-opacity:1;stroke-width:1.45946264"
         d="m 321.83565,554.99054 h -3.73418 v -28.24859 q 0,-0.5986 0.39908,-3.50613 l -7.29732,27.56447 h -0.79814 l -7.29731,-27.56447 q 0.39907,2.93603 0.39907,3.50613 v 28.24859 h -3.73417 v -44.61053 h 3.67716 l 7.2403,29.01822 q 0.057,0.22804 0.11402,1.28273 0,-0.42757 0.11402,-1.28273 l 7.24031,-29.01822 h 3.67716 z"
         inkscape:connector-curvature="0" />
      <path
         id="path965"
         style="font-style:normal;font-variant:normal;font-weight:normal;font-stretch:normal;font-family:'Agency FB';-inkscape-font-specification:'Agency FB';fill:#4d4d4d;fill-opacity:1;stroke-width:1.45946264"
         d="m 344.44022,551.76946 q 0,3.22108 -3.22108,3.22108 h -9.52072 q -3.19257,0 -3.19257,-3.22108 v -21.29333 q 0,-3.22108 3.19257,-3.22108 h 9.52072 q 3.22108,0 3.22108,3.22108 z m -3.79119,-0.11402 v -21.06529 h -8.352 v 21.06529 z"
         inkscape:connector-curvature="0" />
      <path
         id="path967"
         style="font-style:normal;font-variant:normal;font-weight:normal;font-stretch:normal;font-family:'Agency FB';-inkscape-font-specification:'Agency FB';fill:#4d4d4d;fill-opacity:1;stroke-width:1.45946264"
         d="m 366.38917,554.99054 h -3.76268 v -0.76964 q -6.1001,0.94067 -6.75572,0.94067 -2.42293,0 -3.9052,-1.62479 -1.48227,-1.6533 -1.48227,-4.10474 v -16.21942 q 0,-2.56546 1.6818,-4.24727 1.68181,-1.7103 4.21876,-1.7103 h 6.24263 v -16.87504 h 3.76268 z m -3.76268,-3.44912 v -20.95127 h -5.24495 q -3.13556,0 -3.13556,3.22108 v 14.82267 q 0,3.19257 3.13556,3.19257 0.74114,0 5.24495,-0.28505 z"
         inkscape:connector-curvature="0" />
      <path
         id="path969"
         style="font-style:normal;font-variant:normal;font-weight:normal;font-stretch:normal;font-family:'Agency FB';-inkscape-font-specification:'Agency FB';fill:#4d4d4d;fill-opacity:1;stroke-width:1.45946264"
         d="m 388.13857,551.76946 q 0,3.22108 -3.19257,3.22108 h -9.12165 q -3.19257,0 -3.19257,-3.22108 v -21.29333 q 0,-3.22108 3.19257,-3.22108 h 9.12165 q 3.19257,0 3.19257,3.22108 v 9.97679 l -1.28273,1.33974 h -10.5469 v 10.03381 h 8.15247 v -5.07391 h 3.67716 z m -3.67716,-12.99834 v -8.352 h -8.15247 v 8.352 z"
         inkscape:connector-curvature="0" />
      <path
         id="path971"
         style="font-style:normal;font-variant:normal;font-weight:normal;font-stretch:normal;font-family:'Agency FB';-inkscape-font-specification:'Agency FB';fill:#4d4d4d;fill-opacity:1;stroke-width:1.45946264"
         d="m 398.37192,554.99054 h -3.73418 v -44.61053 h 3.73418 z"
         inkscape:connector-curvature="0" />
    </g>
  </g>
</svg>
