<?xml version="1.0" encoding="UTF-8" standalone="no"?>
<!-- Created with Inkscape (http://www.inkscape.org/) -->

<svg
   xmlns:dc="http://purl.org/dc/elements/1.1/"
   xmlns:cc="http://creativecommons.org/ns#"
   xmlns:rdf="http://www.w3.org/1999/02/22-rdf-syntax-ns#"
   xmlns:svg="http://www.w3.org/2000/svg"
   xmlns="http://www.w3.org/2000/svg"
   xmlns:xlink="http://www.w3.org/1999/xlink"
   xmlns:sodipodi="http://sodipodi.sourceforge.net/DTD/sodipodi-0.dtd"
   xmlns:inkscape="http://www.inkscape.org/namespaces/inkscape"
   width="197.55556mm"
   height="141.11111mm"
   viewBox="0 0 700.00001 500.00001"
   id="svg6091"
   version="1.1"
   inkscape:version="0.91 r13725"
   sodipodi:docname="featured_icon.svg">
  <defs
     id="defs6093">
    <inkscape:perspective
       sodipodi:type="inkscape:persp3d"
       inkscape:vp_x="0 : 148.5 : 1"
       inkscape:vp_y="0 : 1000 : 0"
       inkscape:vp_z="210 : 148.5 : 1"
       inkscape:persp3d-origin="105 : 99 : 1"
       id="perspective6677" />
    <linearGradient
       inkscape:collect="always"
       id="linearGradient5390">
      <stop
         style="stop-color:#4c98ff;stop-opacity:1"
         offset="0"
         id="stop5386" />
      <stop
         style="stop-color:#14559b;stop-opacity:1"
         offset="1"
         id="stop5388" />
    </linearGradient>
    <clipPath
       clipPathUnits="userSpaceOnUse"
       id="clipPath5452">
      <rect
         style="opacity:1;fill:url(#linearGradient5456);fill-opacity:1;stroke:none;stroke-width:1.9604528;stroke-linecap:round;stroke-linejoin:round;stroke-miterlimit:39.29999924;stroke-dasharray:none;stroke-opacity:1"
         id="rect5454"
         width="476.25"
         height="211.66667"
         x="-3.3352184"
         y="-45.135017"
         transform="matrix(0.8660254,0.5,-0.5,0.8660254,0,0)" />
    </clipPath>
    <linearGradient
       inkscape:collect="always"
       xlink:href="#linearGradient5390"
       id="linearGradient5456"
       gradientUnits="userSpaceOnUse"
       gradientTransform="matrix(1.0041059,0,0,1.0092858,0.01369393,-1.5463813)"
       x1="236.6131"
       y1="-43.17857"
       x2="236.6131"
       y2="166.9762" />
    <clipPath
       clipPathUnits="userSpaceOnUse"
       id="clipPath5458">
      <rect
         style="opacity:1;fill:url(#linearGradient5456);fill-opacity:1;stroke:none;stroke-width:1.9604528;stroke-linecap:round;stroke-linejoin:round;stroke-miterlimit:39.29999924;stroke-dasharray:none;stroke-opacity:1"
         id="rect5460"
         width="476.25"
         height="211.66667"
         x="-3.3352184"
         y="-45.135017"
         transform="matrix(0.8660254,0.5,-0.5,0.8660254,0,0)" />
    </clipPath>
    <clipPath
       clipPathUnits="userSpaceOnUse"
       id="clipPath5464">
      <rect
         style="opacity:1;fill:url(#linearGradient5456);fill-opacity:1;stroke:none;stroke-width:1.9604528;stroke-linecap:round;stroke-linejoin:round;stroke-miterlimit:39.29999924;stroke-dasharray:none;stroke-opacity:1"
         id="rect5466"
         width="476.25"
         height="211.66667"
         x="-3.3352184"
         y="-45.135017"
         transform="matrix(0.8660254,0.5,-0.5,0.8660254,0,0)" />
    </clipPath>
    <clipPath
       clipPathUnits="userSpaceOnUse"
       id="clipPath5470">
      <rect
         style="opacity:1;fill:url(#linearGradient5456);fill-opacity:1;stroke:none;stroke-width:1.9604528;stroke-linecap:round;stroke-linejoin:round;stroke-miterlimit:39.29999924;stroke-dasharray:none;stroke-opacity:1"
         id="rect5472"
         width="476.25"
         height="211.66667"
         x="-3.3352184"
         y="-45.135017"
         transform="matrix(0.8660254,0.5,-0.5,0.8660254,0,0)" />
    </clipPath>
    <clipPath
       clipPathUnits="userSpaceOnUse"
       id="clipPath5476">
      <rect
         style="opacity:1;fill:url(#linearGradient5456);fill-opacity:1;stroke:none;stroke-width:1.9604528;stroke-linecap:round;stroke-linejoin:round;stroke-miterlimit:39.29999924;stroke-dasharray:none;stroke-opacity:1"
         id="rect5478"
         width="476.25"
         height="211.66667"
         x="-3.3352184"
         y="-45.135017"
         transform="matrix(0.8660254,0.5,-0.5,0.8660254,0,0)" />
    </clipPath>
    <clipPath
       clipPathUnits="userSpaceOnUse"
       id="clipPath5482">
      <rect
         style="opacity:1;fill:url(#linearGradient5456);fill-opacity:1;stroke:none;stroke-width:1.9604528;stroke-linecap:round;stroke-linejoin:round;stroke-miterlimit:39.29999924;stroke-dasharray:none;stroke-opacity:1"
         id="rect5484"
         width="476.25"
         height="211.66667"
         x="-3.3352184"
         y="-45.135017"
         transform="matrix(0.8660254,0.5,-0.5,0.8660254,0,0)" />
    </clipPath>
    <linearGradient
       id="linearGradient2795">
      <stop
         id="stop2797"
         offset="0"
         style="stop-color:#b8b8b8;stop-opacity:0.49803922;" />
      <stop
         id="stop2799"
         offset="1"
         style="stop-color:#7f7f7f;stop-opacity:0;" />
    </linearGradient>
    <linearGradient
       id="linearGradient2787">
      <stop
         id="stop2789"
         offset="0"
         style="stop-color:#7f7f7f;stop-opacity:0.5;" />
      <stop
         id="stop2791"
         offset="1"
         style="stop-color:#7f7f7f;stop-opacity:0;" />
    </linearGradient>
    <linearGradient
       id="linearGradient3676">
      <stop
         id="stop3678"
         offset="0"
         style="stop-color:#b2b2b2;stop-opacity:0.5;" />
      <stop
         id="stop3680"
         offset="1"
         style="stop-color:#b3b3b3;stop-opacity:0;" />
    </linearGradient>
    <linearGradient
       id="linearGradient3236">
      <stop
         id="stop3244"
         offset="0"
         style="stop-color:#f4f4f4;stop-opacity:1" />
      <stop
         id="stop3240"
         offset="1"
         style="stop-color:white;stop-opacity:1" />
    </linearGradient>
    <linearGradient
       id="linearGradient4671">
      <stop
         id="stop4673"
         offset="0"
         style="stop-color:#ffd43b;stop-opacity:1;" />
      <stop
         id="stop4675"
         offset="1"
         style="stop-color:#ffe873;stop-opacity:1" />
    </linearGradient>
    <linearGradient
       id="linearGradient4689">
      <stop
         id="stop4691"
         offset="0"
         style="stop-color:#5a9fd4;stop-opacity:1;" />
      <stop
         id="stop4693"
         offset="1"
         style="stop-color:#306998;stop-opacity:1;" />
    </linearGradient>
    <linearGradient
       gradientTransform="translate(100.2702,99.61116)"
       gradientUnits="userSpaceOnUse"
       xlink:href="#linearGradient4671"
       id="linearGradient2987"
       y2="144.75717"
       x2="-65.308502"
       y1="144.75717"
       x1="224.23996" />
    <linearGradient
       gradientTransform="translate(100.2702,99.61116)"
       gradientUnits="userSpaceOnUse"
       xlink:href="#linearGradient4689"
       id="linearGradient2990"
       y2="76.313133"
       x2="26.670298"
       y1="77.475983"
       x1="172.94208" />
    <linearGradient
       y2="144.75717"
       x2="-65.308502"
       y1="144.75717"
       x1="224.23996"
       gradientTransform="matrix(0.562541,0,0,0.567972,-11.5974,-7.60954)"
       gradientUnits="userSpaceOnUse"
       id="linearGradient2255"
       xlink:href="#linearGradient4671"
       inkscape:collect="always" />
    <linearGradient
       y2="76.313133"
       x2="26.670298"
       y1="76.176224"
       x1="172.94208"
       gradientTransform="matrix(0.562541,0,0,0.567972,-11.5974,-7.60954)"
       gradientUnits="userSpaceOnUse"
       id="linearGradient2258"
       xlink:href="#linearGradient4689"
       inkscape:collect="always" />
    <radialGradient
       gradientUnits="userSpaceOnUse"
       gradientTransform="matrix(1,0,0,0.177966,0,108.7434)"
       r="29.036913"
       fy="132.28575"
       fx="61.518883"
       cy="132.28575"
       cx="61.518883"
       id="radialGradient2801"
       xlink:href="#linearGradient2795"
       inkscape:collect="always" />
    <clipPath
       id="clipPath7776"
       clipPathUnits="userSpaceOnUse">
      <circle
         transform="matrix(0.5,0.8660254,-0.8660254,0.5,0,0)"
         r="145.31044"
         cy="-126.91056"
         cx="353.54645"
         id="circle7778"
         style="opacity:1;fill:#333333;fill-opacity:1;stroke:none;stroke-width:2;stroke-linecap:round;stroke-linejoin:round;stroke-miterlimit:1;stroke-dasharray:none;stroke-dashoffset:0;stroke-opacity:1" />
    </clipPath>
    <clipPath
       id="clipPath7780"
       clipPathUnits="userSpaceOnUse">
      <circle
         transform="matrix(0.5,-0.8660254,0.8660254,0.5,0,0)"
         r="145.31044"
         cy="369.6355"
         cx="-66.865463"
         id="circle7782"
         style="opacity:1;fill:#333333;fill-opacity:1;stroke:none;stroke-width:2;stroke-linecap:round;stroke-linejoin:round;stroke-miterlimit:1;stroke-dasharray:none;stroke-dashoffset:0;stroke-opacity:1" />
    </clipPath>
    <linearGradient
       inkscape:collect="always"
       id="linearGradient5468">
      <stop
         style="stop-color:#177753;stop-opacity:1"
         offset="0"
         id="stop5470" />
      <stop
         style="stop-color:#092e20;stop-opacity:1"
         offset="1"
         id="stop5472" />
    </linearGradient>
    <clipPath
       id="clipPath5135"
       clipPathUnits="userSpaceOnUse">
      <rect
         y="-36.741493"
         x="937.71857"
         height="221.06453"
         width="504.56284"
         id="rect5137"
         style="opacity:1;fill:#949494;fill-opacity:1;stroke:none;stroke-width:4.16200018;stroke-linecap:round;stroke-linejoin:round;stroke-miterlimit:4;stroke-dasharray:none;stroke-opacity:1" />
    </clipPath>
    <clipPath
       id="clipPath5578"
       clipPathUnits="userSpaceOnUse">
      <rect
         transform="matrix(0.70710678,-0.70710678,0.70710678,0.70710678,0,0)"
         inkscape:export-ydpi="90"
         inkscape:export-xdpi="90"
         inkscape:export-filename="C:\Users\f9539184\Desktop\Vinicius\dev\jekyll\mavinstecnologia.github.io\assets\posts\desenvolvimento-web-com-python-e-django-introducao\thumb-bg.png"
         y="867.06122"
         x="-2061.3474"
         height="630"
         width="1200"
         id="rect5580"
         style="opacity:1;fill:url(#radialGradient5582);fill-opacity:1;stroke:none;stroke-width:4.16200018;stroke-linecap:round;stroke-linejoin:round;stroke-miterlimit:4;stroke-dasharray:none;stroke-opacity:1" />
    </clipPath>
    <radialGradient
       r="600"
       fy="617.87262"
       fx="262.85715"
       cy="617.87262"
       cx="262.85715"
       gradientTransform="matrix(0,-0.71428577,1.3154762,-2.0960848e-5,-2221.3681,1360.1303)"
       gradientUnits="userSpaceOnUse"
       id="radialGradient5582"
       xlink:href="#linearGradient5468"
       inkscape:collect="always" />
    <clipPath
       id="clipPath5584"
       clipPathUnits="userSpaceOnUse">
      <rect
         transform="matrix(0.70710678,-0.70710678,0.70710678,0.70710678,0,0)"
         inkscape:export-ydpi="90"
         inkscape:export-xdpi="90"
         inkscape:export-filename="C:\Users\f9539184\Desktop\Vinicius\dev\jekyll\mavinstecnologia.github.io\assets\posts\desenvolvimento-web-com-python-e-django-introducao\thumb-bg.png"
         y="867.06122"
         x="-2061.3474"
         height="630"
         width="1200"
         id="rect5586"
         style="opacity:1;fill:url(#radialGradient5588);fill-opacity:1;stroke:none;stroke-width:4.16200018;stroke-linecap:round;stroke-linejoin:round;stroke-miterlimit:4;stroke-dasharray:none;stroke-opacity:1" />
    </clipPath>
    <radialGradient
       r="600"
       fy="617.87262"
       fx="262.85715"
       cy="617.87262"
       cx="262.85715"
       gradientTransform="matrix(0,-0.71428577,1.3154762,-2.0960848e-5,-2221.3681,1360.1303)"
       gradientUnits="userSpaceOnUse"
       id="radialGradient5588"
       xlink:href="#linearGradient5468"
       inkscape:collect="always" />
    <clipPath
       id="clipPath5590"
       clipPathUnits="userSpaceOnUse">
      <rect
         transform="matrix(0.70710678,-0.70710678,0.70710678,0.70710678,0,0)"
         inkscape:export-ydpi="90"
         inkscape:export-xdpi="90"
         inkscape:export-filename="C:\Users\f9539184\Desktop\Vinicius\dev\jekyll\mavinstecnologia.github.io\assets\posts\desenvolvimento-web-com-python-e-django-introducao\thumb-bg.png"
         y="867.06122"
         x="-2061.3474"
         height="630"
         width="1200"
         id="rect5592"
         style="opacity:1;fill:url(#radialGradient5594);fill-opacity:1;stroke:none;stroke-width:4.16200018;stroke-linecap:round;stroke-linejoin:round;stroke-miterlimit:4;stroke-dasharray:none;stroke-opacity:1" />
    </clipPath>
    <radialGradient
       r="600"
       fy="617.87262"
       fx="262.85715"
       cy="617.87262"
       cx="262.85715"
       gradientTransform="matrix(0,-0.71428577,1.3154762,-2.0960848e-5,-2221.3681,1360.1303)"
       gradientUnits="userSpaceOnUse"
       id="radialGradient5594"
       xlink:href="#linearGradient5468"
       inkscape:collect="always" />
    <clipPath
       id="clipPath5596"
       clipPathUnits="userSpaceOnUse">
      <rect
         transform="matrix(0.70710678,-0.70710678,0.70710678,0.70710678,0,0)"
         inkscape:export-ydpi="90"
         inkscape:export-xdpi="90"
         inkscape:export-filename="C:\Users\f9539184\Desktop\Vinicius\dev\jekyll\mavinstecnologia.github.io\assets\posts\desenvolvimento-web-com-python-e-django-introducao\thumb-bg.png"
         y="867.06122"
         x="-2061.3474"
         height="630"
         width="1200"
         id="rect5598"
         style="opacity:1;fill:url(#radialGradient5600);fill-opacity:1;stroke:none;stroke-width:4.16200018;stroke-linecap:round;stroke-linejoin:round;stroke-miterlimit:4;stroke-dasharray:none;stroke-opacity:1" />
    </clipPath>
    <radialGradient
       r="600"
       fy="617.87262"
       fx="262.85715"
       cy="617.87262"
       cx="262.85715"
       gradientTransform="matrix(0,-0.71428577,1.3154762,-2.0960848e-5,-2221.3681,1360.1303)"
       gradientUnits="userSpaceOnUse"
       id="radialGradient5600"
       xlink:href="#linearGradient5468"
       inkscape:collect="always" />
    <clipPath
       id="clipPath5602"
       clipPathUnits="userSpaceOnUse">
      <rect
         transform="matrix(0.70710678,-0.70710678,0.70710678,0.70710678,0,0)"
         inkscape:export-ydpi="90"
         inkscape:export-xdpi="90"
         inkscape:export-filename="C:\Users\f9539184\Desktop\Vinicius\dev\jekyll\mavinstecnologia.github.io\assets\posts\desenvolvimento-web-com-python-e-django-introducao\thumb-bg.png"
         y="867.06122"
         x="-2061.3474"
         height="630"
         width="1200"
         id="rect5604"
         style="opacity:1;fill:url(#radialGradient5606);fill-opacity:1;stroke:none;stroke-width:4.16200018;stroke-linecap:round;stroke-linejoin:round;stroke-miterlimit:4;stroke-dasharray:none;stroke-opacity:1" />
    </clipPath>
    <radialGradient
       r="600"
       fy="617.87262"
       fx="262.85715"
       cy="617.87262"
       cx="262.85715"
       gradientTransform="matrix(0,-0.71428577,1.3154762,-2.0960848e-5,-2221.3681,1360.1303)"
       gradientUnits="userSpaceOnUse"
       id="radialGradient5606"
       xlink:href="#linearGradient5468"
       inkscape:collect="always" />
    <clipPath
       id="clipPath5608"
       clipPathUnits="userSpaceOnUse">
      <rect
         transform="matrix(0.70710678,-0.70710678,0.70710678,0.70710678,0,0)"
         inkscape:export-ydpi="90"
         inkscape:export-xdpi="90"
         inkscape:export-filename="C:\Users\f9539184\Desktop\Vinicius\dev\jekyll\mavinstecnologia.github.io\assets\posts\desenvolvimento-web-com-python-e-django-introducao\thumb-bg.png"
         y="867.06122"
         x="-2061.3474"
         height="630"
         width="1200"
         id="rect5610"
         style="opacity:1;fill:url(#radialGradient5612);fill-opacity:1;stroke:none;stroke-width:4.16200018;stroke-linecap:round;stroke-linejoin:round;stroke-miterlimit:4;stroke-dasharray:none;stroke-opacity:1" />
    </clipPath>
    <radialGradient
       r="600"
       fy="617.87262"
       fx="262.85715"
       cy="617.87262"
       cx="262.85715"
       gradientTransform="matrix(0,-0.71428577,1.3154762,-2.0960848e-5,-2221.3681,1360.1303)"
       gradientUnits="userSpaceOnUse"
       id="radialGradient5612"
       xlink:href="#linearGradient5468"
       inkscape:collect="always" />
  </defs>
  <sodipodi:namedview
     id="base"
     pagecolor="#ffffff"
     bordercolor="#666666"
     borderopacity="1.0"
     inkscape:pageopacity="0.0"
     inkscape:pageshadow="2"
     inkscape:zoom="0.49497475"
     inkscape:cx="-176.09199"
     inkscape:cy="542.88569"
     inkscape:document-units="px"
     inkscape:current-layer="layer1"
     showgrid="false"
     fit-margin-top="0"
     fit-margin-left="0"
     fit-margin-right="0"
     fit-margin-bottom="0"
     inkscape:snap-bbox="true"
     inkscape:bbox-paths="true"
     inkscape:bbox-nodes="true"
     inkscape:snap-bbox-edge-midpoints="true"
     inkscape:snap-bbox-midpoints="true"
     inkscape:object-paths="true"
     inkscape:object-nodes="true"
     inkscape:snap-smooth-nodes="true"
     inkscape:snap-intersection-paths="true"
     inkscape:snap-global="false"
     inkscape:window-width="1920"
     inkscape:window-height="1017"
     inkscape:window-x="-8"
     inkscape:window-y="-8"
     inkscape:window-maximized="1" />
  <metadata
     id="metadata6096">
    <rdf:RDF>
      <cc:Work
         rdf:about="">
        <dc:format>image/svg+xml</dc:format>
        <dc:type
           rdf:resource="http://purl.org/dc/dcmitype/StillImage" />
        <dc:title></dc:title>
      </cc:Work>
    </rdf:RDF>
  </metadata>
  <g
     inkscape:label="Camada 1"
     inkscape:groupmode="layer"
     id="layer1"
     transform="translate(235.67786,99.367569)">
    <text
       xml:space="preserve"
       style="font-style:normal;font-weight:normal;font-size:40px;line-height:125%;font-family:sans-serif;letter-spacing:0px;word-spacing:0px;fill:#000000;fill-opacity:1;stroke:none;stroke-width:1px;stroke-linecap:butt;stroke-linejoin:miter;stroke-opacity:1"
       x="-1055.1884"
       y="621.95642"
       id="text7817"
       sodipodi:linespacing="125%"><tspan
         sodipodi:role="line"
         id="tspan7819"
         x="-1055.1884"
         y="621.95642" /></text>
    <circle
       style="opacity:1;fill:#e06f69;fill-opacity:1;stroke:none;stroke-width:1.60000002;stroke-miterlimit:4;stroke-dasharray:none;stroke-opacity:1"
       id="path6142-0"
       cx="-993.14636"
       cy="-24.589396"
       r="0" />
    <circle
       style="opacity:1;fill:#dbba35;fill-opacity:1;stroke:none;stroke-width:1.60000002;stroke-miterlimit:4;stroke-dasharray:none;stroke-opacity:1"
       id="path6142-4-5"
       cx="-973.63458"
       cy="-24.589396"
       r="0" />
    <circle
       style="opacity:1;fill:#38d787;fill-opacity:1;stroke:none;stroke-width:1.60000002;stroke-miterlimit:4;stroke-dasharray:none;stroke-opacity:1"
       id="path6142-6-4"
       cx="-954.12292"
       cy="-24.589396"
       r="0" />
    <rect
       style="opacity:1;fill:none;fill-opacity:1;stroke:none;stroke-width:2;stroke-linecap:round;stroke-linejoin:round;stroke-miterlimit:4;stroke-dasharray:none;stroke-dashoffset:0;stroke-opacity:1"
       id="rect6917"
       width="700"
       height="500"
       x="-235.67786"
       y="-99.367569" />
    <g
       style="font-style:normal;font-weight:normal;font-size:164.55722046px;line-height:125%;font-family:sans-serif;text-align:center;letter-spacing:0.17400192px;word-spacing:0px;text-anchor:middle;fill:#4d4d4d;fill-opacity:1;stroke:none;stroke-width:7.869771;stroke-linecap:butt;stroke-linejoin:miter;stroke-miterlimit:4;stroke-dasharray:none;stroke-opacity:1"
       id="text8308">
      <path
         d="m -117.93008,244.26335 -10.52588,0 0,-79.62705 q 0,-1.68736 1.12491,-9.88308 l -20.56965,77.69865 -2.24981,0 -20.56965,-77.69865 q 1.1249,8.27607 1.1249,9.88308 l 0,79.62705 -10.52588,0 0,-125.74807 10.36518,0 20.40895,81.79651 q 0.1607,0.6428 0.3214,3.61576 0,-1.20525 0.3214,-3.61576 l 20.40896,-81.79651 10.36517,0 0,125.74807 z"
         style="font-style:normal;font-variant:normal;font-weight:normal;font-stretch:condensed;font-family:'Agency FB';-inkscape-font-specification:'Agency FB Condensed';letter-spacing:0.17400192px;fill:#4d4d4d;stroke:none;stroke-width:7.869771;stroke-miterlimit:4;stroke-dasharray:none"
         id="path7213" />
      <path
         d="m -44.235634,235.34448 q 0,3.93716 -2.571207,6.42802 -2.490856,2.49085 -6.428016,2.49085 l -35.19339,0 q -3.93716,0 -6.428016,-2.49085 -2.490857,-2.49086 -2.490857,-6.42802 l 0,-107.91033 q 0,-3.93716 2.490857,-6.42801 2.490856,-2.49086 6.428016,-2.49086 l 35.19339,0 q 3.93716,0 6.428016,2.49086 2.571207,2.49085 2.571207,6.42801 l 0,107.91033 z m -11.168679,-0.9642 0,-105.98192 -30.774128,0 0,105.98192 30.774128,0 z"
         style="font-style:normal;font-variant:normal;font-weight:normal;font-stretch:condensed;font-family:'Agency FB';-inkscape-font-specification:'Agency FB Condensed';letter-spacing:0.17400192px;fill:#4d4d4d;stroke:none;stroke-width:7.869771;stroke-miterlimit:4;stroke-dasharray:none"
         id="path7215" />
      <path
         d="m 27.932147,221.52424 q 0,9.96343 -6.588717,16.39145 -6.508366,6.34766 -16.4717919,6.34766 l -28.7653731,0 0,-125.74807 28.7653731,0 q 10.0437759,0 16.5521419,6.42802 6.508367,6.34766 6.508367,16.31109 l 0,80.26985 z m -11.168679,-1.1249 0,-78.18075 q 0,-6.18697 -3.93716,-9.96342 -3.8568095,-3.85681 -10.0437753,-3.85681 l -15.5075897,0 0,105.98192 14.8647881,0 q 6.5083666,0 10.5258769,-3.69611 4.09786,-3.77646 4.09786,-10.28483 z"
         style="font-style:normal;font-variant:normal;font-weight:normal;font-stretch:condensed;font-family:'Agency FB';-inkscape-font-specification:'Agency FB Condensed';letter-spacing:0.17400192px;fill:#4d4d4d;stroke:none;stroke-width:7.869771;stroke-miterlimit:4;stroke-dasharray:none"
         id="path7217" />
      <path
         d="m 89.25266,244.26335 -41.300006,0 0,-125.74807 40.817905,0 0,9.88308 -29.649226,0 0,46.92452 26.997669,0 0,10.04377 -26.997669,0 0,49.01363 30.131327,0 0,9.88307 z"
         style="font-style:normal;font-variant:normal;font-weight:normal;font-stretch:condensed;font-family:'Agency FB';-inkscape-font-specification:'Agency FB Condensed';letter-spacing:0.17400192px;fill:#4d4d4d;stroke:none;stroke-width:7.869771;stroke-miterlimit:4;stroke-dasharray:none"
         id="path7219" />
      <path
         d="m 147.11811,244.26335 -40.1751,0 0,-125.74807 11.16868,0 0,115.865 29.00642,0 0,9.88307 z"
         style="font-style:normal;font-variant:normal;font-weight:normal;font-stretch:condensed;font-family:'Agency FB';-inkscape-font-specification:'Agency FB Condensed';letter-spacing:0.17400192px;fill:#4d4d4d;stroke:none;stroke-width:7.869771;stroke-miterlimit:4;stroke-dasharray:none"
         id="path7221" />
    </g>
    <path
       d="m -134.95766,92.264137 c 2.12425,0.94411 3.87085,1.36897 5.99512,1.36897 5.09821,0 8.44981,-2.737928 8.44981,-6.797618 0,-1.74661 -0.56646,-3.209983 -1.74661,-4.342926 -0.8969,-0.991318 -1.93543,-1.652193 -4.34293,-2.785123 -3.30438,-1.55779 -3.96526,-2.17147 -3.96526,-3.682039 0,-1.699414 1.60499,-2.832344 4.05968,-2.832344 1.98264,0 3.58763,0.566472 5.28703,1.74661 l 0,-4.012482 c -1.98263,-0.944111 -3.54041,-1.274554 -5.61746,-1.274554 -4.86219,0 -8.11937,2.643524 -8.11937,6.703201 0,2.879552 1.36896,4.531746 5.33423,6.467175 1.98263,0.94411 2.5963,1.274554 3.06836,1.604998 1.18015,0.802499 1.65221,1.652193 1.65221,2.737928 0,1.793804 -1.65221,2.926747 -4.20131,2.926747 -2.17145,0 -4.1541,-0.708083 -5.8535,-2.171469 l 0,4.342926 z"
       style="font-style:normal;font-variant:normal;font-weight:500;font-stretch:normal;font-size:medium;line-height:125%;font-family:DTLProkyonT;-inkscape-font-specification:'DTLProkyonT Medium';text-align:center;letter-spacing:-0.65304399px;word-spacing:0px;text-anchor:middle;fill:#4d4d4d;fill-opacity:1;stroke:none;stroke-width:1px;stroke-linecap:butt;stroke-linejoin:miter;stroke-opacity:1"
       id="path4424"
       inkscape:connector-curvature="0" />
    <path
       d="m -108.20087,66.395439 2.83234,0.42486 8.402599,-9.393922 -3.776439,-0.424859 -7.4585,9.393921 z m 12.226271,15.530665 c 0,-0.472055 0,-0.896915 0,-1.085734 0,-3.351595 -0.42486,-5.428648 -1.604998,-7.175257 -1.652194,-2.596304 -4.437333,-4.012482 -7.977753,-4.012482 -6.46718,0 -10.8573,5.0038 -10.8573,12.415085 0,7.175257 4.2013,11.423767 11.28214,11.423767 3.11558,0 5.664679,-0.755291 8.024968,-2.360276 l 0,-3.870871 c -2.454692,1.935429 -4.673358,2.69072 -7.552898,2.69072 -4.76777,0 -7.64732,-2.737928 -7.64732,-7.316869 0.0943,-0.141624 0.0943,-0.377652 0.0943,-0.708083 l 16.238745,0 z m -15.813891,-3.351607 c 0.66088,-3.398803 2.92674,-5.38144 6.18393,-5.38144 3.20998,0 5.0038,1.841026 5.33424,5.38144 l -11.51817,0 z"
       style="font-style:normal;font-variant:normal;font-weight:500;font-stretch:normal;font-size:medium;line-height:125%;font-family:DTLProkyonT;-inkscape-font-specification:'DTLProkyonT Medium';text-align:center;letter-spacing:-0.65304399px;word-spacing:0px;text-anchor:middle;fill:#4d4d4d;fill-opacity:1;stroke:none;stroke-width:1px;stroke-linecap:butt;stroke-linejoin:miter;stroke-opacity:1"
       id="path4426"
       inkscape:connector-curvature="0" />
    <path
       d="m -90.590909,92.972219 4.390121,0 0,-18.693427 c 1.652194,-0.708096 3.11558,-1.038527 4.767773,-1.038527 1.416166,0 2.501901,0.236028 3.776455,0.755291 l 0,-3.682038 c -1.321762,-0.42486 -2.407484,-0.613679 -3.965274,-0.613679 -2.92676,0 -6.231147,0.660874 -8.969075,1.793817 l 0,21.478563 z"
       style="font-style:normal;font-variant:normal;font-weight:500;font-stretch:normal;font-size:medium;line-height:125%;font-family:DTLProkyonT;-inkscape-font-specification:'DTLProkyonT Medium';text-align:center;letter-spacing:-0.65304399px;word-spacing:0px;text-anchor:middle;fill:#4d4d4d;fill-opacity:1;stroke:none;stroke-width:1px;stroke-linecap:butt;stroke-linejoin:miter;stroke-opacity:1"
       id="path4428"
       inkscape:connector-curvature="0" />
    <path
       d="m -73.838032,92.972219 4.390134,0 0,-22.941937 -4.390134,0 0,22.941937 z m -0.188807,-27.568098 4.673344,0 0,-5.050996 -4.673344,0 0,5.050996 z"
       style="font-style:normal;font-variant:normal;font-weight:500;font-stretch:normal;font-size:medium;line-height:125%;font-family:DTLProkyonT;-inkscape-font-specification:'DTLProkyonT Medium';text-align:center;letter-spacing:-0.65304399px;word-spacing:0px;text-anchor:middle;fill:#4d4d4d;fill-opacity:1;stroke:none;stroke-width:1px;stroke-linecap:butt;stroke-linejoin:miter;stroke-opacity:1"
       id="path4430"
       inkscape:connector-curvature="0" />
    <path
       d="m -43.183819,81.926104 c 0,-0.472055 0,-0.896915 0,-1.085734 0,-3.351595 -0.424847,-5.428648 -1.604998,-7.175257 -1.652193,-2.596304 -4.437317,-4.012482 -7.977744,-4.012482 -6.467174,0 -10.857308,5.0038 -10.857308,12.415085 0,7.175257 4.201315,11.423767 11.282156,11.423767 3.115579,0 5.664688,-0.755291 8.024964,-2.360276 l 0,-3.870871 c -2.454705,1.935429 -4.673357,2.69072 -7.552909,2.69072 -4.767761,0 -7.647313,-2.737928 -7.647313,-7.316869 0.09434,-0.141624 0.09434,-0.377652 0.09434,-0.708083 l 16.238735,0 z m -15.813888,-3.351607 c 0.660875,-3.398803 2.926747,-5.38144 6.183938,-5.38144 3.209983,0 5.003801,1.841026 5.334232,5.38144 l -11.51817,0 z"
       style="font-style:normal;font-variant:normal;font-weight:500;font-stretch:normal;font-size:medium;line-height:125%;font-family:DTLProkyonT;-inkscape-font-specification:'DTLProkyonT Medium';text-align:center;letter-spacing:-0.65304399px;word-spacing:0px;text-anchor:middle;fill:#4d4d4d;fill-opacity:1;stroke:none;stroke-width:1px;stroke-linecap:butt;stroke-linejoin:miter;stroke-opacity:1"
       id="path4432"
       inkscape:connector-curvature="0" />
    <path
       d="m -14.954024,70.219102 c -1.227346,-0.330444 -2.313081,-0.472055 -3.63483,-0.472055 -7.411285,0 -12.179058,4.814968 -12.179058,12.273461 0,7.316881 4.201302,11.282155 11.990226,11.282155 2.549108,0 5.0038,-0.283236 8.213783,-0.991318 l 0,-34.743356 -4.390121,0 0,12.651113 z m 0,19.118287 c -1.36897,0.330431 -2.407484,0.424847 -3.729246,0.424847 -4.956593,0 -7.694521,-2.879552 -7.694521,-8.072159 0,-5.287037 2.973956,-8.402604 8.024964,-8.402604 1.227346,0 2.265873,0.141612 3.398803,0.519264 l 0,15.530652 z"
       style="font-style:normal;font-variant:normal;font-weight:500;font-stretch:normal;font-size:medium;line-height:125%;font-family:DTLProkyonT;-inkscape-font-specification:'DTLProkyonT Medium';text-align:center;letter-spacing:-0.65304399px;word-spacing:0px;text-anchor:middle;fill:#4d4d4d;fill-opacity:1;stroke:none;stroke-width:1px;stroke-linecap:butt;stroke-linejoin:miter;stroke-opacity:1"
       id="path4434"
       inkscape:connector-curvature="0" />
    <path
       d="m -3.0957862,70.030282 0,15.577861 c 0,6.325562 -0.2360277,8.780242 -1.1801255,10.857295 -0.849707,2.029845 -2.2186772,3.351595 -5.0510212,4.862172 l 3.8236625,1.74661 c 2.7851359,-1.60498 4.2485097,-3.02116 5.33424427,-5.381436 1.0857346,-2.360288 1.46336103,-5.19262 1.46336103,-10.998919 l 0,-16.663583 -4.3901211,0 z m -0.09434,-4.626161 4.6733569,0 0,-5.050996 -4.6733569,0 0,5.050996 z"
       style="font-style:normal;font-variant:normal;font-weight:500;font-stretch:normal;font-size:medium;line-height:125%;font-family:DTLProkyonT;-inkscape-font-specification:'DTLProkyonT Medium';text-align:center;letter-spacing:-0.65304399px;word-spacing:0px;text-anchor:middle;fill:#4d4d4d;fill-opacity:1;stroke:none;stroke-width:1px;stroke-linecap:butt;stroke-linejoin:miter;stroke-opacity:1"
       id="path4436"
       inkscape:connector-curvature="0" />
    <path
       d="m 8.3479488,76.119805 c 2.7851362,-2.029845 5.0982172,-2.926748 7.6001042,-2.926748 1.463387,0 2.501913,0.424848 3.021164,1.321763 0.330443,0.613666 0.42486,1.463373 0.42486,3.63483 l 0,0.755291 -0.519264,0.04717 c -8.449811,0.755291 -11.8014183,3.068359 -11.8014183,8.166576 0,4.201301 2.4074968,6.231134 7.3640763,6.231134 2.17147,0 4.437342,-0.18882 8.261005,-0.755279 l 0.802486,-0.09434 0,-14.492138 c 0,-3.021164 -0.18882,-4.342913 -0.708083,-5.428648 -0.94411,-1.935429 -2.973955,-2.926748 -5.995119,-2.926748 -2.879539,0 -5.523051,0.802499 -8.4498112,2.501901 l 0,3.965274 z M 19.394077,89.573417 c -1.982637,0.377639 -3.398803,0.566458 -4.484538,0.566458 -2.5019,0 -3.729246,-1.085722 -3.729246,-3.257191 0,-2.973943 2.218664,-4.201289 8.213784,-4.673344 l 0,7.364077 z"
       style="font-style:normal;font-variant:normal;font-weight:500;font-stretch:normal;font-size:medium;line-height:125%;font-family:DTLProkyonT;-inkscape-font-specification:'DTLProkyonT Medium';text-align:center;letter-spacing:-0.65304399px;word-spacing:0px;text-anchor:middle;fill:#4d4d4d;fill-opacity:1;stroke:none;stroke-width:1px;stroke-linecap:butt;stroke-linejoin:miter;stroke-opacity:1"
       id="path4438"
       inkscape:connector-curvature="0" />
    <path
       d="m 30.497769,92.972219 4.390122,0 0,-18.929455 c 1.746609,-0.566471 3.115567,-0.802499 4.767773,-0.802499 3.823662,0 5.239815,1.416166 5.239815,5.287024 l 0,14.44493 4.390134,0 0,-14.964181 c 0,-3.021163 -0.519263,-4.720565 -1.746609,-6.042327 -1.463374,-1.510582 -3.776455,-2.265872 -7.222466,-2.265872 -3.257191,0 -6.278354,0.472055 -9.818769,1.557789 l 0,21.714591 z"
       style="font-style:normal;font-variant:normal;font-weight:500;font-stretch:normal;font-size:medium;line-height:125%;font-family:DTLProkyonT;-inkscape-font-specification:'DTLProkyonT Medium';text-align:center;letter-spacing:-0.65304399px;word-spacing:0px;text-anchor:middle;fill:#4d4d4d;fill-opacity:1;stroke:none;stroke-width:1px;stroke-linecap:butt;stroke-linejoin:miter;stroke-opacity:1"
       id="path4440"
       inkscape:connector-curvature="0" />
    <path
       d="m 55.060955,103.31025 c 2.73794,1.22736 4.956592,1.74661 7.411284,1.74661 4.24851,0 7.788937,-1.84101 9.629963,-5.0038 1.368957,-2.313068 1.793804,-4.956592 1.793804,-11.093323 0,-1.699401 -0.04717,-3.776441 -0.09434,-6.32555 l -0.09434,-4.578953 -0.09434,-3.587622 0,-0.849707 c 1.652206,0.188832 2.407496,0.330443 4.154106,0.613679 l 0,-3.446011 c -3.493219,-0.660887 -5.995119,-0.896915 -8.49702,-0.896915 -9.299518,0 -14.775374,4.626162 -14.775374,12.509502 0,6.561577 4.154094,10.857295 10.479669,10.857295 1.746597,0 3.115567,-0.283236 4.626149,-0.94411 -0.09434,0.04717 -0.09434,0.141611 -0.09434,0.188819 0,1.888221 -0.141612,3.257191 -0.472055,4.295718 -0.849707,2.879539 -3.11558,4.342918 -6.561591,4.342918 -2.596303,0 -4.76776,-0.70809 -7.411284,-2.360294 l 0,4.531744 z m 14.350514,-29.881165 0,0.755291 0.04717,3.209983 0.09434,4.531745 c 0,1.652194 0.04717,2.926748 0.04717,3.776455 l 0,2.643512 0,0.708082 c -1.36897,0.472056 -2.501912,0.660875 -3.776467,0.660875 -4.342913,0 -6.939229,-2.785123 -6.939229,-7.552896 0,-5.570272 3.446011,-8.733047 9.629962,-8.733047 0.09434,0 0.377652,0 0.613679,0 l 0.283223,0 z"
       style="font-style:normal;font-variant:normal;font-weight:500;font-stretch:normal;font-size:medium;line-height:125%;font-family:DTLProkyonT;-inkscape-font-specification:'DTLProkyonT Medium';text-align:center;letter-spacing:-0.65304399px;word-spacing:0px;text-anchor:middle;fill:#4d4d4d;fill-opacity:1;stroke:none;stroke-width:1px;stroke-linecap:butt;stroke-linejoin:miter;stroke-opacity:1"
       id="path4442"
       inkscape:connector-curvature="0" />
    <path
       d="m 80.145642,81.78448 c 0,7.316881 4.106885,11.801406 10.762892,11.801406 6.797605,0 11.046116,-4.673344 11.046116,-12.179045 0,-7.269673 -4.106899,-11.801419 -10.762893,-11.801419 -6.797606,0 -11.046115,4.720565 -11.046115,12.179058 z m 4.390121,-0.188819 c 0,-5.428648 2.313081,-8.449812 6.514382,-8.449812 4.201302,0 6.514383,3.021164 6.514383,8.449812 0,5.428647 -2.313081,8.449811 -6.514383,8.449811 -4.201301,0 -6.514382,-3.021164 -6.514382,-8.449811 z"
       style="font-style:normal;font-variant:normal;font-weight:500;font-stretch:normal;font-size:medium;line-height:125%;font-family:DTLProkyonT;-inkscape-font-specification:'DTLProkyonT Medium';text-align:center;letter-spacing:-0.65304399px;word-spacing:0px;text-anchor:middle;fill:#4d4d4d;fill-opacity:1;stroke:none;stroke-width:1px;stroke-linecap:butt;stroke-linejoin:miter;stroke-opacity:1"
       id="path4444"
       inkscape:connector-curvature="0" />
    <path
       inkscape:connector-curvature="0"
       style="opacity:1;fill:#d1d1d1;fill-opacity:1;stroke:#4d4d4d;stroke-width:4.28871584;stroke-linecap:round;stroke-linejoin:round;stroke-miterlimit:4;stroke-dasharray:none;stroke-dashoffset:0;stroke-opacity:1"
       d="m 300.48038,165.52304 a 106.1403,30.759027 0 0 0 -106.1407,30.75814 l 0,35.5243 a 106.1403,30.759027 0 0 0 106.1407,30.75981 106.1403,30.759027 0 0 0 106.14069,-30.75981 l 0,-35.5243 A 106.1403,30.759027 0 0 0 300.48038,165.52304 Z"
       id="path6991" />
    <path
       inkscape:connector-curvature="0"
       id="path6993"
       d="M 404.78237,196.28154 A 104.30228,30.759027 0 0 1 300.48009,227.04057 104.30228,30.759027 0 0 1 196.17781,196.28154 104.30228,30.759027 0 0 1 300.48009,165.52252 104.30228,30.759027 0 0 1 404.78237,196.28154 Z"
       style="opacity:1;fill:#ececec;fill-opacity:1;stroke:none;stroke-width:5;stroke-linecap:round;stroke-linejoin:round;stroke-miterlimit:4;stroke-dasharray:none;stroke-dashoffset:0;stroke-opacity:1" />
    <path
       id="path6987"
       d="m 300.48038,102.1113 a 106.1403,30.759027 0 0 0 -106.1407,30.75814 l 0,35.5243 a 106.1403,30.759027 0 0 0 106.1407,30.75981 106.1403,30.759027 0 0 0 106.14069,-30.75981 l 0,-35.5243 A 106.1403,30.759027 0 0 0 300.48038,102.1113 Z"
       style="opacity:1;fill:#d1d1d1;fill-opacity:1;stroke:#4d4d4d;stroke-width:4.28871584;stroke-linecap:round;stroke-linejoin:round;stroke-miterlimit:4;stroke-dasharray:none;stroke-dashoffset:0;stroke-opacity:1"
       inkscape:connector-curvature="0" />
    <path
       style="opacity:1;fill:#ececec;fill-opacity:1;stroke:none;stroke-width:5;stroke-linecap:round;stroke-linejoin:round;stroke-miterlimit:4;stroke-dasharray:none;stroke-dashoffset:0;stroke-opacity:1"
       d="M 404.78237,132.8698 A 104.30228,30.759027 0 0 1 300.48009,163.62883 104.30228,30.759027 0 0 1 196.17781,132.8698 104.30228,30.759027 0 0 1 300.48009,102.11078 104.30228,30.759027 0 0 1 404.78237,132.8698 Z"
       id="path6989"
       inkscape:connector-curvature="0" />
    <path
       inkscape:connector-curvature="0"
       style="opacity:1;fill:#d1d1d1;fill-opacity:1;stroke:#4d4d4d;stroke-width:4.28871584;stroke-linecap:round;stroke-linejoin:round;stroke-miterlimit:4;stroke-dasharray:none;stroke-dashoffset:0;stroke-opacity:1"
       d="M 300.48037,38.699575 A 106.1403,30.759027 0 0 0 194.33968,69.457713 l 0,35.524297 a 106.1403,30.759027 0 0 0 106.14069,30.75981 106.1403,30.759027 0 0 0 106.14069,-30.75981 l 0,-35.524297 A 106.1403,30.759027 0 0 0 300.48037,38.699575 Z"
       id="ellipse6947" />
    <path
       inkscape:connector-curvature="0"
       id="path6945"
       d="M 404.78237,69.458077 A 104.30228,30.759027 0 0 1 300.48009,100.2171 104.30228,30.759027 0 0 1 196.17781,69.458077 104.30228,30.759027 0 0 1 300.48009,38.69905 104.30228,30.759027 0 0 1 404.78237,69.458077 Z"
       style="opacity:1;fill:#ececec;fill-opacity:1;stroke:none;stroke-width:5;stroke-linecap:round;stroke-linejoin:round;stroke-miterlimit:4;stroke-dasharray:none;stroke-dashoffset:0;stroke-opacity:1" />
  </g>
</svg>
