<?xml version="1.0" encoding="UTF-8" standalone="no"?>
<!-- Created with Inkscape (http://www.inkscape.org/) -->

<svg
   xmlns:dc="http://purl.org/dc/elements/1.1/"
   xmlns:cc="http://creativecommons.org/ns#"
   xmlns:rdf="http://www.w3.org/1999/02/22-rdf-syntax-ns#"
   xmlns:svg="http://www.w3.org/2000/svg"
   xmlns="http://www.w3.org/2000/svg"
   xmlns:xlink="http://www.w3.org/1999/xlink"
   xmlns:sodipodi="http://sodipodi.sourceforge.net/DTD/sodipodi-0.dtd"
   xmlns:inkscape="http://www.inkscape.org/namespaces/inkscape"
   width="197.55556mm"
   height="141.11111mm"
   viewBox="0 0 197.55556 141.11111"
   version="1.1"
   id="svg1450"
   inkscape:version="0.92.5 (0.92.5+69)"
   sodipodi:docname="featured_icon.svg">
  <defs
     id="defs1444">
    <radialGradient
       inkscape:collect="always"
       xlink:href="#linearGradient4138"
       id="radialGradient4144"
       cx="-185"
       cy="559.07648"
       fx="-185"
       fy="559.07648"
       r="349.99997"
       gradientTransform="matrix(0,-0.30910289,0.40905744,3.4079936e-6,-246.84809,8.9660818)"
       gradientUnits="userSpaceOnUse" />
    <linearGradient
       inkscape:collect="always"
       id="linearGradient4138">
      <stop
         style="stop-color:#ffffff;stop-opacity:1"
         offset="0"
         id="stop4140" />
      <stop
         style="stop-color:#f0f0f0;stop-opacity:1"
         offset="1"
         id="stop4142" />
    </linearGradient>
  </defs>
  <sodipodi:namedview
     id="base"
     pagecolor="#ffffff"
     bordercolor="#666666"
     borderopacity="1.0"
     inkscape:pageopacity="0.0"
     inkscape:pageshadow="2"
     inkscape:zoom="1.4"
     inkscape:cx="491.90524"
     inkscape:cy="334.03612"
     inkscape:document-units="mm"
     inkscape:current-layer="layer1"
     showgrid="false"
     fit-margin-top="0"
     fit-margin-left="0"
     fit-margin-right="0"
     fit-margin-bottom="0"
     inkscape:window-width="2560"
     inkscape:window-height="993"
     inkscape:window-x="0"
     inkscape:window-y="384"
     inkscape:window-maximized="1" />
  <metadata
     id="metadata1447">
    <rdf:RDF>
      <cc:Work
         rdf:about="">
        <dc:format>image/svg+xml</dc:format>
        <dc:type
           rdf:resource="http://purl.org/dc/dcmitype/StillImage" />
        <dc:title></dc:title>
      </cc:Work>
    </rdf:RDF>
  </metadata>
  <g
     inkscape:label="Layer 1"
     inkscape:groupmode="layer"
     id="layer1"
     transform="translate(111.62897,5.6329384)">
    <rect
       style="opacity:0;fill:url(#radialGradient4144);fill-opacity:1;stroke:none;stroke-width:2.28160882;stroke-linecap:round;stroke-linejoin:round;stroke-miterlimit:4;stroke-dasharray:none;stroke-dashoffset:10.79999924;stroke-opacity:1"
       id="rect4136"
       width="197.55556"
       height="141.11111"
       x="-111.62897"
       y="-5.6329384"
       inkscape:export-xdpi="64.290001"
       inkscape:export-ydpi="64.290001" />
    <rect
       style="opacity:1;fill:none;fill-opacity:1;stroke:#4d4d4d;stroke-width:2.20262885;stroke-linecap:round;stroke-linejoin:round;stroke-miterlimit:4;stroke-dasharray:none;stroke-dashoffset:10.79999924;stroke-opacity:1"
       id="rect4185-7"
       width="157.70168"
       height="89.603241"
       x="-91.702026"
       y="20.121002"
       inkscape:export-xdpi="64.290001"
       inkscape:export-ydpi="64.290001" />
    <rect
       y="23.086971"
       x="-88.449501"
       height="83.671295"
       width="151.19664"
       id="rect4187-5"
       style="opacity:1;fill:none;fill-opacity:1;stroke:#4d4d4d;stroke-width:0.61393511;stroke-linecap:round;stroke-linejoin:round;stroke-miterlimit:4;stroke-dasharray:none;stroke-dashoffset:10.79999924;stroke-opacity:1"
       inkscape:export-xdpi="64.290001"
       inkscape:export-ydpi="64.290001" />
    <path
       inkscape:connector-curvature="0"
       id="path4307-9"
       style="font-style:normal;font-variant:normal;font-weight:normal;font-stretch:normal;font-size:medium;line-height:125%;font-family:'Baskerville Old Face';-inkscape-font-specification:'Baskerville Old Face';text-align:center;letter-spacing:0px;word-spacing:0px;text-anchor:middle;fill:#4d4d4d;fill-opacity:1;stroke:none;stroke-width:0.12738341px;stroke-linecap:butt;stroke-linejoin:miter;stroke-opacity:1"
       d="m -67.172825,66.645921 7.298592,-29.843137 q 5.676683,1.419172 10.542413,1.419172 2.959983,0 4.66299,-0.324385 1.743551,-0.324379 3.284363,-1.094787 -0.364927,1.986838 -1.013693,3.243821 -0.648764,1.256977 -1.824644,2.270672 -2.149033,1.824652 -6.609283,1.824652 -3.365463,0 -9.042146,-1.094793 l -4.419706,17.800457 q 2.149033,-1.662459 3.852037,-2.270672 1.743551,-0.648764 4.176416,-0.648764 6.284899,0 10.461321,4.500798 1.905743,2.027388 2.919436,4.703538 1.05424,2.676149 1.05424,5.433398 0,4.257511 -1.946293,8.555572 -2.635602,5.717233 -7.33914,8.839407 -4.662987,3.081628 -10.745152,3.081628 -3.284363,0 -6.284899,-0.932598 -2.959984,-0.973148 -4.906278,-2.595054 -1.540811,-1.338075 -2.432859,-3.081629 -0.851506,-1.784099 -0.851506,-3.689845 0,-1.824646 1.013695,-3.000534 1.05424,-1.216429 2.635602,-1.216429 1.297525,0 2.108483,0.9326 0.851504,0.932596 0.851504,2.392315 0,0.567666 -0.0811,1.621909 -0.121642,0.892048 -0.121642,1.662457 0,3.122176 2.067939,5.027916 2.10848,1.865199 5.514493,1.865199 5.636136,0 9.325975,-5.068464 1.905746,-2.676157 3.041081,-6.568736 1.135338,-3.892585 1.135338,-7.947356 0,-6.163257 -2.392315,-9.853105 -2.392317,-3.689842 -6.406541,-3.689842 -2.75725,0 -4.825183,1.986841 -2.067935,1.946289 -3.365463,5.757778 z"
       inkscape:export-xdpi="64.290001"
       inkscape:export-ydpi="64.290001" />
    <path
       inkscape:connector-curvature="0"
       id="path4285-1"
       style="font-style:normal;font-variant:normal;font-weight:bold;font-stretch:condensed;font-size:medium;line-height:125%;font-family:'Agency FB';-inkscape-font-specification:'Agency FB Bold Condensed';text-align:start;letter-spacing:0px;word-spacing:0px;text-anchor:start;fill:#4d4d4d;fill-opacity:1;stroke:none;stroke-width:0.12738341px;stroke-linecap:butt;stroke-linejoin:miter;stroke-opacity:1"
       d="m -18.813855,49.40551 h -3.066368 v -6.216828 q 0,-0.491228 0.190794,-1.368991 l -2.752916,6.434262 h -1.621771 l -2.766547,-6.434262 q 0.190796,0.893871 0.190796,1.368991 v 6.216828 h -3.066372 V 36.802741 h 3.01186 l 3.352562,6.965749 q 0.05451,0.112745 0.08177,0.571757 0,-0.201321 0.08177,-0.571757 l 3.352564,-6.965749 h 3.011853 z"
       inkscape:export-xdpi="64.290001"
       inkscape:export-ydpi="64.290001" />
    <path
       inkscape:connector-curvature="0"
       id="path4287-7"
       style="font-style:normal;font-variant:normal;font-weight:bold;font-stretch:condensed;font-size:medium;line-height:125%;font-family:'Agency FB';-inkscape-font-specification:'Agency FB Bold Condensed';text-align:start;letter-spacing:0px;word-spacing:0px;text-anchor:start;fill:#4d4d4d;fill-opacity:1;stroke:none;stroke-width:0.12738341px;stroke-linecap:butt;stroke-linejoin:miter;stroke-opacity:1"
       d="m -5.4717291,48.253953 q 0,1.151557 -1.93522,1.151557 h -6.9231849 q -1.894337,0 -1.894337,-1.151557 V 37.962355 q 0,-1.159614 1.894337,-1.159614 h 6.9231849 q 1.93522,0 1.93522,1.159614 z m -3.18902,-0.467066 v -9.365515 h -4.3746959 v 9.365515 z"
       inkscape:export-xdpi="64.290001"
       inkscape:export-ydpi="64.290001" />
    <path
       inkscape:connector-curvature="0"
       id="path4289-1"
       style="font-style:normal;font-variant:normal;font-weight:bold;font-stretch:condensed;font-size:medium;line-height:125%;font-family:'Agency FB';-inkscape-font-specification:'Agency FB Bold Condensed';text-align:start;letter-spacing:0px;word-spacing:0px;text-anchor:start;fill:#4d4d4d;fill-opacity:1;stroke:none;stroke-width:0.12738341px;stroke-linecap:butt;stroke-linejoin:miter;stroke-opacity:1"
       d="m 6.4530509,38.469691 h -3.51611 V 49.40551 h -3.17539 V 38.469691 h -3.51611 v -1.66695 h 10.20761 z"
       inkscape:export-xdpi="64.290001"
       inkscape:export-ydpi="64.290001" />
    <path
       inkscape:connector-curvature="0"
       id="path4291-0"
       style="font-style:normal;font-variant:normal;font-weight:bold;font-stretch:condensed;font-size:medium;line-height:125%;font-family:'Agency FB';-inkscape-font-specification:'Agency FB Bold Condensed';text-align:start;letter-spacing:0px;word-spacing:0px;text-anchor:start;fill:#4d4d4d;fill-opacity:1;stroke:none;stroke-width:0.12738341px;stroke-linecap:butt;stroke-linejoin:miter;stroke-opacity:1"
       d="M 11.331991,49.40551 H 8.1429609 V 36.802741 h 3.1890301 z"
       inkscape:export-xdpi="64.290001"
       inkscape:export-ydpi="64.290001" />
    <path
       inkscape:connector-curvature="0"
       id="path4293-5"
       style="font-style:normal;font-variant:normal;font-weight:bold;font-stretch:condensed;font-size:medium;line-height:125%;font-family:'Agency FB';-inkscape-font-specification:'Agency FB Bold Condensed';text-align:start;letter-spacing:0px;word-spacing:0px;text-anchor:start;fill:#4d4d4d;fill-opacity:1;stroke:none;stroke-width:0.12738341px;stroke-linecap:butt;stroke-linejoin:miter;stroke-opacity:1"
       d="m 24.646851,36.802741 -4.08849,12.618879 h -3.1754 l -4.07487,-12.618879 h 3.20266 l 2.38495,8.64075 q 0.0273,0.370435 0.0818,1.07909 -0.0136,-0.370436 0.0818,-1.07909 l 2.39859,-8.64075 z"
       inkscape:export-xdpi="64.290001"
       inkscape:export-ydpi="64.290001" />
    <path
       inkscape:connector-curvature="0"
       id="path4295-3"
       style="font-style:normal;font-variant:normal;font-weight:bold;font-stretch:condensed;font-size:medium;line-height:125%;font-family:'Agency FB';-inkscape-font-specification:'Agency FB Bold Condensed';text-align:start;letter-spacing:0px;word-spacing:0px;text-anchor:start;fill:#4d4d4d;fill-opacity:1;stroke:none;stroke-width:0.12738341px;stroke-linecap:butt;stroke-linejoin:miter;stroke-opacity:1"
       d="m 37.212161,48.253953 q 0,1.151557 -1.93522,1.151557 h -6.92318 q -1.89434,0 -1.89434,-1.151557 V 37.962355 q 0,-1.159614 1.89434,-1.159614 h 6.92318 q 1.93522,0 1.93522,1.159614 z m -3.18902,-0.467066 v -9.365515 h -4.3747 v 9.365515 z"
       inkscape:export-xdpi="64.290001"
       inkscape:export-ydpi="64.290001" />
    <path
       inkscape:connector-curvature="0"
       id="path4297-5"
       style="font-style:normal;font-variant:normal;font-weight:bold;font-stretch:condensed;font-size:medium;line-height:125%;font-family:'Agency FB';-inkscape-font-specification:'Agency FB Bold Condensed';text-align:start;letter-spacing:0px;word-spacing:0px;text-anchor:start;fill:#4d4d4d;fill-opacity:1;stroke:none;stroke-width:0.12738341px;stroke-linecap:butt;stroke-linejoin:miter;stroke-opacity:1"
       d="m 50.090921,48.253953 q 0,1.151557 -1.93522,1.151557 h -6.41894 q -1.92159,0 -1.92159,-1.151557 v -3.003727 h 3.18903 v 2.568869 h 3.8977 v -2.472233 l -6.39168,-3.575489 q -0.69505,-0.394594 -0.69505,-1.00661 v -2.802408 q 0,-1.159614 1.92159,-1.159614 h 6.41894 q 1.93522,0 1.93522,1.143508 v 2.818514 h -3.18902 v -2.375604 h -3.8977 v 2.278968 l 6.39168,3.559378 q 0.69504,0.386538 0.69504,1.022721 z"
       inkscape:export-xdpi="64.290001"
       inkscape:export-ydpi="64.290001" />
    <path
       id="path5392"
       style="font-style:normal;font-weight:normal;font-size:22.9829483px;line-height:1.25;font-family:sans-serif;text-align:center;letter-spacing:8.42394066px;word-spacing:0px;text-anchor:middle;fill:#4d4d4d;fill-opacity:1;stroke:none;stroke-width:0.12738341px;stroke-linecap:butt;stroke-linejoin:miter;stroke-opacity:1"
       d="m -29.004653,54.654945 q 0,0.313549 -0.110849,0.582755 -0.107684,0.26604 -0.304046,0.462402 -0.243868,0.243871 -0.576419,0.367388 -0.332548,0.120351 -0.839292,0.120351 h -0.627093 v 1.757762 h -0.627095 v -4.715869 h 1.279526 q 0.424397,0 0.718941,0.07285 0.294544,0.06968 0.522577,0.221699 0.269206,0.180527 0.414895,0.449733 0.148855,0.269209 0.148855,0.680934 z m -0.65243,0.01583 q 0,-0.243871 -0.08551,-0.424397 -0.08551,-0.180527 -0.259703,-0.294544 -0.152025,-0.09818 -0.348387,-0.139356 -0.193195,-0.04434 -0.490905,-0.04434 h -0.62076 v 1.884449 h 0.528913 q 0.380055,0 0.61759,-0.06651 0.237535,-0.06968 0.386393,-0.21853 0.148855,-0.152025 0.209031,-0.319882 0.06334,-0.167857 0.06334,-0.376888 z"
       inkscape:connector-curvature="0" />
    <path
       id="path5394"
       style="font-style:normal;font-weight:normal;font-size:22.9829483px;line-height:1.25;font-family:sans-serif;text-align:center;letter-spacing:8.42394066px;word-spacing:0px;text-anchor:middle;fill:#4d4d4d;fill-opacity:1;stroke:none;stroke-width:0.12738341px;stroke-linecap:butt;stroke-linejoin:miter;stroke-opacity:1"
       d="m -22.231241,57.945603 h -0.668268 L -23.36191,56.63124 h -2.039637 l -0.462402,1.314363 h -0.636594 l 1.716588,-4.715869 h 0.836123 z m -1.323865,-1.852775 -0.826623,-2.315179 -0.82979,2.315179 z"
       inkscape:connector-curvature="0" />
    <path
       id="path5396"
       style="font-style:normal;font-weight:normal;font-size:22.9829483px;line-height:1.25;font-family:sans-serif;text-align:center;letter-spacing:8.42394066px;word-spacing:0px;text-anchor:middle;fill:#4d4d4d;fill-opacity:1;stroke:none;stroke-width:0.12738341px;stroke-linecap:butt;stroke-linejoin:miter;stroke-opacity:1"
       d="m -15.236131,57.945603 h -0.813954 l -1.577236,-1.874946 h -0.883632 v 1.874946 h -0.627092 v -4.715869 h 1.320695 q 0.427564,0 0.712606,0.05701 0.285044,0.05384 0.513077,0.196362 0.25654,0.161524 0.399059,0.408562 0.145689,0.243868 0.145689,0.620759 0,0.509908 -0.256537,0.855128 -0.25654,0.34205 -0.706273,0.516243 z m -1.466385,-3.388837 q 0,-0.202698 -0.07284,-0.357886 -0.06968,-0.158358 -0.234369,-0.26604 -0.136186,-0.09185 -0.323048,-0.126687 -0.186862,-0.03801 -0.440233,-0.03801 h -0.737943 v 1.779933 h 0.633428 q 0.29771,0 0.51941,-0.05068 0.2217,-0.05384 0.376891,-0.196362 0.142519,-0.133019 0.209031,-0.304043 0.06968,-0.174194 0.06968,-0.440233 z"
       inkscape:connector-curvature="0" />
    <path
       id="path5398"
       style="font-style:normal;font-weight:normal;font-size:22.9829483px;line-height:1.25;font-family:sans-serif;text-align:center;letter-spacing:8.42394066px;word-spacing:0px;text-anchor:middle;fill:#4d4d4d;fill-opacity:1;stroke:none;stroke-width:0.12738341px;stroke-linecap:butt;stroke-linejoin:miter;stroke-opacity:1"
       d="M -8.5323965,57.945603 H -9.200662 L -9.6630662,56.63124 h -2.0396368 l -0.462402,1.314363 h -0.636594 l 1.716588,-4.715869 h 0.836126 z m -1.3238649,-1.852775 -0.8266236,-2.315179 -0.82979,2.315179 z"
       inkscape:connector-curvature="0" />
    <path
       id="path5400"
       style="font-style:normal;font-weight:normal;font-size:22.9829483px;line-height:1.25;font-family:sans-serif;text-align:center;letter-spacing:8.42394066px;word-spacing:0px;text-anchor:middle;fill:#4d4d4d;fill-opacity:1;stroke:none;stroke-width:0.12738341px;stroke-linecap:butt;stroke-linejoin:miter;stroke-opacity:1"
       d="M 2.9367819,57.945603 H 2.2685164 L 1.806115,56.63124 h -2.03963698 l -0.46240137,1.314363 H -1.3325207 L 0.38407057,53.229734 H 1.2201934 Z m -1.3238621,-1.852775 -0.82662329,-2.315179 -0.8297898,2.315179 z"
       inkscape:connector-curvature="0" />
    <path
       id="path5402"
       style="font-style:normal;font-weight:normal;font-size:22.9829483px;line-height:1.25;font-family:sans-serif;text-align:center;letter-spacing:8.42394066px;word-spacing:0px;text-anchor:middle;fill:#4d4d4d;fill-opacity:1;stroke:none;stroke-width:0.12738341px;stroke-linecap:butt;stroke-linejoin:miter;stroke-opacity:1"
       d="m 9.1147699,54.654945 q 0,0.313549 -0.1108498,0.582755 -0.1076828,0.26604 -0.3040454,0.462402 -0.2438696,0.243871 -0.5764191,0.367388 -0.3325492,0.120351 -0.8392914,0.120351 H 6.6570706 v 1.757762 H 6.0299774 v -4.715869 h 1.2795239 q 0.4243964,0 0.7189402,0.07285 0.2945438,0.06968 0.5225779,0.221699 0.2692067,0.180527 0.4148949,0.449733 0.1488556,0.269209 0.1488556,0.680934 z m -0.6524303,0.01583 q 0,-0.243871 -0.085513,-0.424397 Q 8.291314,54.065854 8.1171214,53.951837 7.9650987,53.853654 7.7687364,53.812481 7.5755409,53.768141 7.2778297,53.768141 H 6.6570706 v 1.884449 h 0.5289122 q 0.3800565,0 0.6175919,-0.06651 0.2375355,-0.06968 0.3863908,-0.21853 0.1488556,-0.152025 0.2090313,-0.319882 0.063343,-0.167857 0.063343,-0.376888 z"
       inkscape:connector-curvature="0" />
    <path
       id="path5404"
       style="font-style:normal;font-weight:normal;font-size:22.9829483px;line-height:1.25;font-family:sans-serif;text-align:center;letter-spacing:8.42394066px;word-spacing:0px;text-anchor:middle;fill:#4d4d4d;fill-opacity:1;stroke:none;stroke-width:0.12738341px;stroke-linecap:butt;stroke-linejoin:miter;stroke-opacity:1"
       d="m 16.223898,57.945603 h -0.813955 l -1.577234,-1.874946 h -0.883632 v 1.874946 h -0.627093 v -4.715869 h 1.320696 q 0.427564,0 0.712606,0.05701 0.285043,0.05384 0.513077,0.196362 0.256538,0.161524 0.399059,0.408562 0.145688,0.243868 0.145688,0.620759 0,0.509908 -0.256538,0.855128 -0.256538,0.34205 -0.706271,0.516243 z m -1.466385,-3.388837 q 0,-0.202698 -0.07284,-0.357886 -0.06968,-0.158358 -0.234368,-0.26604 -0.136187,-0.09185 -0.323049,-0.126687 -0.186861,-0.03801 -0.440232,-0.03801 h -0.737943 v 1.779933 h 0.633428 q 0.297711,0 0.51941,-0.05068 0.2217,-0.05384 0.37689,-0.196362 0.142521,-0.133019 0.209031,-0.304043 0.06968,-0.174194 0.06968,-0.440233 z"
       inkscape:connector-curvature="0" />
    <path
       id="path5406"
       style="font-style:normal;font-weight:normal;font-size:22.9829483px;line-height:1.25;font-family:sans-serif;text-align:center;letter-spacing:8.42394066px;word-spacing:0px;text-anchor:middle;fill:#4d4d4d;fill-opacity:1;stroke:none;stroke-width:0.12738341px;stroke-linecap:butt;stroke-linejoin:miter;stroke-opacity:1"
       d="m 22.316377,57.945603 h -3.106962 v -4.715869 h 3.106962 v 0.557417 h -2.479869 v 1.292192 h 2.479869 v 0.557417 h -2.479869 v 1.751426 h 2.479869 z"
       inkscape:connector-curvature="0" />
    <path
       id="path5408"
       style="font-style:normal;font-weight:normal;font-size:22.9829483px;line-height:1.25;font-family:sans-serif;text-align:center;letter-spacing:8.42394066px;word-spacing:0px;text-anchor:middle;fill:#4d4d4d;fill-opacity:1;stroke:none;stroke-width:0.12738341px;stroke-linecap:butt;stroke-linejoin:miter;stroke-opacity:1"
       d="m 29.289317,57.945603 h -0.775949 l -2.235999,-4.218627 v 4.218627 h -0.585921 v -4.715869 h 0.972311 l 2.039637,3.851242 v -3.851242 h 0.585921 z"
       inkscape:connector-curvature="0" />
    <path
       id="path5410"
       style="font-style:normal;font-weight:normal;font-size:22.9829483px;line-height:1.25;font-family:sans-serif;text-align:center;letter-spacing:8.42394066px;word-spacing:0px;text-anchor:middle;fill:#4d4d4d;fill-opacity:1;stroke:none;stroke-width:0.12738341px;stroke-linecap:butt;stroke-linejoin:miter;stroke-opacity:1"
       d="m 36.905185,55.59242 q 0,0.642927 -0.281875,1.165507 -0.278709,0.522577 -0.744278,0.810788 -0.323048,0.199528 -0.722107,0.288208 -0.395893,0.08868 -1.045156,0.08868 H 32.920925 V 53.229734 H 34.0991 q 0.690437,0 1.09583,0.101349 0.408561,0.09818 0.690436,0.272373 0.481405,0.30088 0.750612,0.801288 0.269207,0.500405 0.269207,1.187676 z m -0.655598,-0.0095 q 0,-0.554248 -0.193195,-0.934305 -0.193196,-0.380058 -0.576419,-0.598588 -0.278708,-0.158349 -0.592255,-0.218525 -0.313547,-0.06334 -0.750612,-0.06334 h -0.589088 v 3.639044 h 0.589088 q 0.452901,0 0.788617,-0.06651 0.338884,-0.06651 0.62076,-0.247037 0.351552,-0.224866 0.525745,-0.592255 0.177359,-0.367386 0.177359,-0.91847 z"
       inkscape:connector-curvature="0" />
    <path
       id="path5412"
       style="font-style:normal;font-weight:normal;font-size:22.9829483px;line-height:1.25;font-family:sans-serif;text-align:center;letter-spacing:8.42394066px;word-spacing:0px;text-anchor:middle;fill:#4d4d4d;fill-opacity:1;stroke:none;stroke-width:0.12738341px;stroke-linecap:butt;stroke-linejoin:miter;stroke-opacity:1"
       d="m 43.409388,57.945603 h -3.106963 v -4.715869 h 3.106963 v 0.557417 h -2.479869 v 1.292192 h 2.479869 v 0.557417 h -2.479869 v 1.751426 h 2.479869 z"
       inkscape:connector-curvature="0" />
    <path
       id="path5414"
       style="font-style:normal;font-weight:normal;font-size:22.9829483px;line-height:1.25;font-family:sans-serif;text-align:center;letter-spacing:8.42394066px;word-spacing:0px;text-anchor:middle;fill:#4d4d4d;fill-opacity:1;stroke:none;stroke-width:0.12738341px;stroke-linecap:butt;stroke-linejoin:miter;stroke-opacity:1"
       d="m 50.686373,57.945603 h -0.813954 l -1.577235,-1.874946 h -0.883632 v 1.874946 h -0.627093 v -4.715869 h 1.320697 q 0.427563,0 0.712606,0.05701 0.285042,0.05384 0.513076,0.196362 0.256538,0.161524 0.39906,0.408562 0.145688,0.243868 0.145688,0.620759 0,0.509908 -0.256538,0.855128 -0.256538,0.34205 -0.706272,0.516243 z m -1.466385,-3.388837 q 0,-0.202698 -0.07284,-0.357886 -0.06968,-0.158358 -0.234368,-0.26604 -0.136187,-0.09185 -0.323048,-0.126687 -0.186861,-0.03801 -0.440232,-0.03801 h -0.737944 v 1.779933 h 0.633428 q 0.297711,0 0.519411,-0.05068 0.221699,-0.05384 0.376889,-0.196362 0.142521,-0.133019 0.209031,-0.304043 0.06968,-0.174194 0.06968,-0.440233 z"
       inkscape:connector-curvature="0" />
    <path
       id="path5378"
       style="font-style:normal;font-variant:normal;font-weight:normal;font-stretch:condensed;font-size:134.2338562px;line-height:1.25;font-family:'Agency FB';-inkscape-font-specification:'Agency FB Condensed';text-align:center;letter-spacing:0px;word-spacing:0px;text-anchor:middle;fill:#4d4d4d;fill-opacity:1;stroke:none;stroke-width:0.12738341px;stroke-linecap:butt;stroke-linejoin:miter;stroke-opacity:1"
       d="m -21.099292,78.381813 q 0,0.980044 -0.547452,1.620071 -0.530346,0.620028 -1.368634,0.620028 h -6.312825 v 12.420555 h -2.378001 V 61.741072 h 8.690826 q 0.838288,0 1.368634,0.620028 0.547452,0.620028 0.547452,1.600071 z m -2.377999,-0.240012 V 64.20118 h -5.850912 v 13.940621 z"
       inkscape:connector-curvature="0" />
    <path
       id="path5380"
       style="font-style:normal;font-variant:normal;font-weight:normal;font-stretch:condensed;font-size:134.2338562px;line-height:1.25;font-family:'Agency FB';-inkscape-font-specification:'Agency FB Condensed';text-align:center;letter-spacing:0px;word-spacing:0px;text-anchor:middle;fill:#4d4d4d;fill-opacity:1;stroke:none;stroke-width:0.12738341px;stroke-linecap:butt;stroke-linejoin:miter;stroke-opacity:1"
       d="m -6.5062308,61.921079 -3.2505067,12.660564 q -0.6158855,1.900085 -1.6252505,6.340283 V 93.042467 H -13.75999 V 80.921926 q -0.239513,-1.520067 -0.735642,-3.200143 -0.821181,-2.880129 -0.889611,-3.14014 L -18.63575,61.921079 q 0,-0.01999 0,-0.180007 h 2.412218 l 3.678203,15.660697 3.6439894,-15.660697 h 2.3951088 q 0,0.140005 0,0.180007 z"
       inkscape:connector-curvature="0" />
    <path
       id="path5382"
       style="font-style:normal;font-variant:normal;font-weight:normal;font-stretch:condensed;font-size:134.2338562px;line-height:1.25;font-family:'Agency FB';-inkscape-font-specification:'Agency FB Condensed';text-align:center;letter-spacing:0px;word-spacing:0px;text-anchor:middle;fill:#4d4d4d;fill-opacity:1;stroke:none;stroke-width:0.12738341px;stroke-linecap:butt;stroke-linejoin:miter;stroke-opacity:1"
       d="M 5.7088283,64.20118 H 1.5687099 V 93.042467 H -0.80928934 V 64.20118 H -4.9836241 V 61.741072 H 5.7088283 Z"
       inkscape:connector-curvature="0" />
    <path
       id="path5384"
       style="font-style:normal;font-variant:normal;font-weight:normal;font-stretch:condensed;font-size:134.2338562px;line-height:1.25;font-family:'Agency FB';-inkscape-font-specification:'Agency FB Condensed';text-align:center;letter-spacing:0px;word-spacing:0px;text-anchor:middle;fill:#4d4d4d;fill-opacity:1;stroke:none;stroke-width:0.12738341px;stroke-linecap:butt;stroke-linejoin:miter;stroke-opacity:1"
       d="m 19.737326,93.042467 h -2.378002 v -15.04067 h -6.449687 v 15.04067 H 8.5316353 V 61.741072 h 2.3780017 v 13.760612 h 6.449687 V 61.741072 h 2.378002 z"
       inkscape:connector-curvature="0" />
    <path
       id="path5386"
       style="font-style:normal;font-variant:normal;font-weight:normal;font-stretch:condensed;font-size:134.2338562px;line-height:1.25;font-family:'Agency FB';-inkscape-font-specification:'Agency FB Condensed';text-align:center;letter-spacing:0px;word-spacing:0px;text-anchor:middle;fill:#4d4d4d;fill-opacity:1;stroke:none;stroke-width:0.12738341px;stroke-linecap:butt;stroke-linejoin:miter;stroke-opacity:1"
       d="m 35.305537,90.822368 q 0,0.980043 -0.547453,1.600071 -0.530346,0.620028 -1.368634,0.620028 h -7.493271 q -0.838289,0 -1.368634,-0.620028 -0.530346,-0.620028 -0.530346,-1.600071 V 63.961171 q 0,-0.980043 0.530346,-1.600071 0.530345,-0.620028 1.368634,-0.620028 h 7.493271 q 0.838288,0 1.368634,0.620028 0.547453,0.620028 0.547453,1.600071 z M 32.927536,90.582356 V 64.20118 h -6.552335 v 26.381176 z"
       inkscape:connector-curvature="0" />
    <path
       id="path5388"
       style="font-style:normal;font-variant:normal;font-weight:normal;font-stretch:condensed;font-size:134.2338562px;line-height:1.25;font-family:'Agency FB';-inkscape-font-specification:'Agency FB Condensed';text-align:center;letter-spacing:0px;word-spacing:0px;text-anchor:middle;fill:#4d4d4d;fill-opacity:1;stroke:none;stroke-width:0.12738341px;stroke-linecap:butt;stroke-linejoin:miter;stroke-opacity:1"
       d="m 50.634234,93.042467 h -1.64236 L 41.840761,70.02144 V 93.042467 H 39.599623 V 61.741072 h 1.779224 L 48.393096,84.36208 V 61.741072 h 2.241138 z"
       inkscape:connector-curvature="0" />
  </g>
</svg>
