<?xml version="1.0" encoding="UTF-8" standalone="no"?>
<!-- Created with Inkscape (http://www.inkscape.org/) -->

<svg
   xmlns:dc="http://purl.org/dc/elements/1.1/"
   xmlns:cc="http://creativecommons.org/ns#"
   xmlns:rdf="http://www.w3.org/1999/02/22-rdf-syntax-ns#"
   xmlns:svg="http://www.w3.org/2000/svg"
   xmlns="http://www.w3.org/2000/svg"
   xmlns:xlink="http://www.w3.org/1999/xlink"
   xmlns:sodipodi="http://sodipodi.sourceforge.net/DTD/sodipodi-0.dtd"
   xmlns:inkscape="http://www.inkscape.org/namespaces/inkscape"
   width="197.55556mm"
   height="141.11111mm"
   viewBox="0 0 197.55556 141.11111"
   version="1.1"
   id="svg1253"
   inkscape:version="0.92.5 (0.92.5+69)"
   sodipodi:docname="featured_icon.svg">
  <defs
     id="defs1247">
    <linearGradient
       inkscape:collect="always"
       xlink:href="#linearGradient2787"
       id="linearGradient3213"
       x1="87.922195"
       y1="112.47573"
       x2="114.06789"
       y2="112.47573"
       gradientUnits="userSpaceOnUse"
       gradientTransform="translate(-15.877713,-53.600727)" />
    <linearGradient
       id="linearGradient2787">
      <stop
         style="stop-color:#7f7f7f;stop-opacity:0.5;"
         offset="0"
         id="stop2789" />
      <stop
         style="stop-color:#7f7f7f;stop-opacity:0;"
         offset="1"
         id="stop2791" />
    </linearGradient>
    <linearGradient
       inkscape:collect="always"
       xlink:href="#linearGradient2787"
       id="linearGradient3215"
       x1="121.46432"
       y1="112.47573"
       x2="147.61002"
       y2="112.47573"
       gradientUnits="userSpaceOnUse"
       gradientTransform="translate(-15.877713,-53.600727)" />
    <linearGradient
       inkscape:collect="always"
       xlink:href="#linearGradient4671"
       id="linearGradient3287"
       x1="52.724461"
       y1="90.209328"
       x2="34.795147"
       y2="145.40726"
       gradientUnits="userSpaceOnUse"
       gradientTransform="translate(-20.158156,-53.661296)" />
    <linearGradient
       id="linearGradient4671">
      <stop
         style="stop-color:#ffd43b;stop-opacity:1;"
         offset="0"
         id="stop4673" />
      <stop
         style="stop-color:#ffe873;stop-opacity:1"
         offset="1"
         id="stop4675" />
    </linearGradient>
    <linearGradient
       inkscape:collect="always"
       xlink:href="#linearGradient2787"
       id="linearGradient3173"
       gradientUnits="userSpaceOnUse"
       x1="82.05999"
       y1="76.875626"
       x2="73.885971"
       y2="92.60746"
       gradientTransform="translate(69.338963,-53.600727)" />
    <linearGradient
       inkscape:collect="always"
       xlink:href="#linearGradient2787"
       id="linearGradient1884"
       gradientUnits="userSpaceOnUse"
       gradientTransform="translate(-21.508135,-53.600727)"
       x1="82.05999"
       y1="76.875626"
       x2="73.885971"
       y2="92.60746" />
    <linearGradient
       inkscape:collect="always"
       xlink:href="#linearGradient2787"
       id="linearGradient1886"
       gradientUnits="userSpaceOnUse"
       gradientTransform="translate(-10.36886,-53.600727)"
       x1="82.05999"
       y1="76.875626"
       x2="73.885971"
       y2="92.60746" />
    <linearGradient
       inkscape:collect="always"
       xlink:href="#linearGradient2787"
       id="linearGradient1888"
       gradientUnits="userSpaceOnUse"
       gradientTransform="translate(58.199688,-53.600727)"
       x1="82.05999"
       y1="76.875626"
       x2="73.885971"
       y2="92.60746" />
  </defs>
  <sodipodi:namedview
     id="base"
     pagecolor="#ffffff"
     bordercolor="#666666"
     borderopacity="1.0"
     inkscape:pageopacity="0.0"
     inkscape:pageshadow="2"
     inkscape:zoom="0.35"
     inkscape:cx="-55.238092"
     inkscape:cy="-73.333327"
     inkscape:document-units="mm"
     inkscape:current-layer="layer1"
     showgrid="false"
     fit-margin-top="0"
     fit-margin-left="0"
     fit-margin-right="0"
     fit-margin-bottom="0"
     inkscape:window-width="2560"
     inkscape:window-height="993"
     inkscape:window-x="0"
     inkscape:window-y="384"
     inkscape:window-maximized="1" />
  <metadata
     id="metadata1250">
    <rdf:RDF>
      <cc:Work
         rdf:about="">
        <dc:format>image/svg+xml</dc:format>
        <dc:type
           rdf:resource="http://purl.org/dc/dcmitype/StillImage" />
        <dc:title></dc:title>
      </cc:Work>
    </rdf:RDF>
  </metadata>
  <g
     inkscape:label="Layer 1"
     inkscape:groupmode="layer"
     id="layer1"
     transform="translate(19.402779,11.680557)">
    <rect
       style="fill:#cccccc;fill-opacity:0;stroke:none;stroke-width:0.11631301;stroke-linecap:round;stroke-linejoin:round;stroke-miterlimit:4;stroke-dasharray:none;stroke-dashoffset:0;stroke-opacity:1"
       id="rect4136"
       width="197.55556"
       height="141.11111"
       x="-19.402779"
       y="-11.680557"
       inkscape:export-xdpi="64.290001"
       inkscape:export-ydpi="64.290001" />
    <path
       sodipodi:nodetypes="sssccsssccsssccsssccs"
       id="path2186"
       style="font-style:normal;font-variant:normal;font-weight:bold;font-stretch:normal;font-size:112.41600037px;line-height:1.25;font-family:'MADE TOMMY';-inkscape-font-specification:'MADE TOMMY Bold';fill:url(#linearGradient3213);fill-opacity:1;stroke:#4d4d4d;stroke-width:0.961124;stroke-miterlimit:4;stroke-dasharray:none;stroke-opacity:0.94902003"
       d="m 90.003294,50.255044 v -9.613038 c 0,-3.575096 0.79447,-6.196835 5.87905,-6.196835 h 1.82727 V 23.402098 h -4.7668 c -9.77192,0 -15.015399,3.733988 -15.015399,13.664812 v 11.758094 c 0,4.44901 -1.906718,5.40237 -5.402368,5.40237 v 9.2158 c 3.49565,0 5.402368,0.95336 5.402368,5.48182 v 11.75809 c 0,9.85138 5.243479,13.66482 15.015399,13.66482 h 4.7668 v -11.12252 h -1.82727 c -5.08458,0 -5.87905,-2.5423 -5.87905,-6.19684 v -9.53359 c 0,-3.97233 -1.27115,-7.52472 -5.87905,-8.63697 v -0.031 c 4.6079,-1.03281 5.87905,-4.59962 5.87905,-8.57194 z"
       inkscape:connector-curvature="0" />
    <path
       sodipodi:nodetypes="sssccsssccsssccsssccss"
       id="path2192"
       style="font-style:normal;font-variant:normal;font-weight:bold;font-stretch:normal;font-size:112.41600037px;line-height:1.25;font-family:'MADE TOMMY';-inkscape-font-specification:'MADE TOMMY Bold';fill:#f9f9f9;fill-opacity:1;stroke:#4d4d4d;stroke-width:0.39576301;stroke-miterlimit:4;stroke-dasharray:none;stroke-opacity:0.94902003"
       d="M 88.082344,50.255044 V 41.48766 c 0,-5.737545 1.62688,-8.73104 6.2768,-8.73104 h 1.83586 l -0.0369,-7.868976 h -4.9742 c -6.88676,0 -11.665318,3.942287 -11.665318,11.463917 v 12.473443 c 0,4.44901 -2.088846,6.93361 -5.584496,6.93361 v 5.97608 c 3.49565,0 5.584496,2.66184 5.584496,7.1903 v 11.75809 c 0,6.36356 3.622328,12.06394 12.180908,12.06394 h 4.40771 l 0.0637,-7.90632 h -2.20952 c -5.08459,0 -5.87905,-4.15762 -5.87905,-7.81216 v -9.53359 c 0,-3.97233 -2.13572,-6.98537 -6.74362,-8.09762 v -1.15887 c 4.6079,-1.03281 6.74362,-4.01109 6.74362,-7.98342 z"
       inkscape:connector-curvature="0" />
    <path
       sodipodi:nodetypes="sssccsssccsssccsssccs"
       id="path2199"
       style="font-style:normal;font-variant:normal;font-weight:bold;font-stretch:normal;font-size:112.41600037px;line-height:1.25;font-family:'MADE TOMMY';-inkscape-font-specification:'MADE TOMMY Bold';fill:url(#linearGradient3215);fill-opacity:1;stroke:#4d4d4d;stroke-width:0.961124;stroke-miterlimit:4;stroke-dasharray:none;stroke-opacity:0.94902003"
       d="m 113.77348,67.494954 v 9.61304 c 0,3.5751 -0.79447,6.19684 -5.87905,6.19684 h -1.82727 v 11.04307 h 4.7668 c 9.77193,0 15.0154,-3.73399 15.0154,-13.66481 v -11.7581 c 0,-4.449 1.90672,-5.40237 5.40237,-5.40237 v -9.2158 c -3.49565,0 -5.40237,-0.95335 -5.40237,-5.48181 V 37.066916 c 0,-9.851378 -5.24347,-13.664814 -15.0154,-13.664814 h -4.7668 v 11.122523 h 1.82727 c 5.08458,0 5.87905,2.542291 5.87905,6.196834 v 9.533595 c 0,3.97232 1.27115,7.52471 5.87905,8.63696 v 0.031 c -4.6079,1.03281 -5.87905,4.59961 -5.87905,8.57194 z"
       inkscape:connector-curvature="0" />
    <path
       sodipodi:nodetypes="sssccsssccsssccsssccss"
       id="path2201"
       style="font-style:normal;font-variant:normal;font-weight:bold;font-stretch:normal;font-size:112.41600037px;line-height:1.25;font-family:'MADE TOMMY';-inkscape-font-specification:'MADE TOMMY Bold';fill:#f9f9f9;fill-opacity:1;stroke:#4d4d4d;stroke-width:0.39576301;stroke-miterlimit:4;stroke-dasharray:none;stroke-opacity:0.94902003"
       d="m 115.69443,67.494954 v 8.76739 c 0,5.73755 -1.62688,8.73104 -6.2768,8.73104 h -1.83586 l 0.0369,7.86898 h 4.9742 c 6.88676,0 11.66532,-3.94229 11.66532,-11.46392 v -12.47345 c 0,-4.449 2.08885,-6.9336 5.5845,-6.9336 v -5.97608 c -3.49565,0 -5.5845,-2.66184 -5.5845,-7.1903 V 37.066916 c 0,-6.363555 -3.62232,-12.063941 -12.18091,-12.063941 h -4.40771 l -0.0637,7.906325 h 2.20952 c 5.08459,0 5.87905,4.157616 5.87905,7.812159 v 9.533595 c 0,3.97232 2.13572,6.98537 6.74362,8.09762 v 1.15887 c -4.6079,1.03281 -6.74362,4.01108 -6.74362,7.98341 z"
       inkscape:connector-curvature="0" />
    <path
       id="path2304"
       style="font-style:normal;font-variant:normal;font-weight:bold;font-stretch:normal;font-size:67.91799927px;line-height:1.25;font-family:'MADE TOMMY';-inkscape-font-specification:'MADE TOMMY Bold';fill:#f2f2f2;fill-opacity:1;stroke:#545454;stroke-width:1.20339;stroke-miterlimit:4;stroke-dasharray:none;stroke-opacity:0.98823499"
       d="m 31.597862,45.535316 c 0.979523,0 1.877428,0.08163 2.448826,0.163253 v -10.6932 c -1.550921,-0.244883 -3.183471,-0.571393 -5.713926,-0.571393 -13.060398,0 -15.672481,10.121811 -15.672481,17.794788 H 7.599387 v 10.93809 h 5.060894 v 30.44706 h 13.305292 v -30.44706 h 8.081115 v -10.93809 h -8.081115 c 0,-4.32626 1.306024,-6.693448 5.632289,-6.693448 z"
       inkscape:connector-curvature="0" />
    <path
       sodipodi:nodetypes="ccccccccccccc"
       id="path3217"
       style="font-style:normal;font-variant:normal;font-weight:bold;font-stretch:normal;font-size:67.91799927px;line-height:1.25;font-family:'MADE TOMMY';-inkscape-font-specification:'MADE TOMMY Bold';fill:url(#linearGradient3287);fill-opacity:1;stroke:none;stroke-width:0.51599997;stroke-miterlimit:4;stroke-dasharray:none;stroke-opacity:0.98823499"
       d="M 32.566306,43.922121 V 36.548032 C 16.984395,34.554695 14.088232,44.494085 14.618139,54.054594 l -5.201219,0.11292 2e-6,7.22727 5.220068,0.0103 10e-7,30.34087 h 9.345526 v -30.34087 l 8.583789,-0.0103 v -7.22727 l -8.468791,-0.11296 C 24.387729,50.498744 23.4054,42.747077 32.566306,43.922121 Z"
       inkscape:connector-curvature="0" />
    <rect
       y="23.274899"
       x="52.377834"
       height="15.731833"
       width="8.174017"
       id="rect3167"
       style="fill:url(#linearGradient1884);fill-opacity:1;stroke:#4d4d4d;stroke-width:0.70671999;stroke-linecap:round;stroke-linejoin:round;stroke-miterlimit:4;stroke-dasharray:none;stroke-opacity:0.94902003" />
    <rect
       y="25.328808"
       x="54.243343"
       height="11.624012"
       width="4.4429951"
       id="rect3169"
       style="fill:#f9f9f9;fill-opacity:1;stroke:#4d4d4d;stroke-width:0.34758899;stroke-linecap:round;stroke-linejoin:round;stroke-miterlimit:4;stroke-dasharray:none;stroke-opacity:0.94902003" />
    <rect
       y="23.274899"
       x="63.517109"
       height="15.731833"
       width="8.174017"
       id="rect3293"
       style="fill:url(#linearGradient1886);fill-opacity:1;stroke:#4d4d4d;stroke-width:0.70671999;stroke-linecap:round;stroke-linejoin:round;stroke-miterlimit:4;stroke-dasharray:none;stroke-opacity:0.94902003" />
    <rect
       y="25.328808"
       x="65.382614"
       height="11.624012"
       width="4.4429951"
       id="rect3295"
       style="fill:#f9f9f9;fill-opacity:1;stroke:#4d4d4d;stroke-width:0.34758899;stroke-linecap:round;stroke-linejoin:round;stroke-miterlimit:4;stroke-dasharray:none;stroke-opacity:0.94902003" />
    <rect
       y="23.274899"
       x="132.08566"
       height="15.731833"
       width="8.174017"
       id="rect3309"
       style="fill:url(#linearGradient1888);fill-opacity:1;stroke:#4d4d4d;stroke-width:0.70671999;stroke-linecap:round;stroke-linejoin:round;stroke-miterlimit:4;stroke-dasharray:none;stroke-opacity:0.94902003" />
    <rect
       y="25.328808"
       x="133.95117"
       height="11.624012"
       width="4.4429951"
       id="rect3311"
       style="fill:#f9f9f9;fill-opacity:1;stroke:#4d4d4d;stroke-width:0.34758899;stroke-linecap:round;stroke-linejoin:round;stroke-miterlimit:4;stroke-dasharray:none;stroke-opacity:0.94902003" />
    <rect
       y="23.274899"
       x="143.22493"
       height="15.731833"
       width="8.174017"
       id="rect3315"
       style="fill:url(#linearGradient3173);fill-opacity:1;stroke:#4d4d4d;stroke-width:0.70671999;stroke-linecap:round;stroke-linejoin:round;stroke-miterlimit:4;stroke-dasharray:none;stroke-opacity:0.94902003" />
    <rect
       y="25.328808"
       x="145.09044"
       height="11.624012"
       width="4.4429951"
       id="rect3317"
       style="fill:#f9f9f9;fill-opacity:1;stroke:#4d4d4d;stroke-width:0.34758899;stroke-linecap:round;stroke-linejoin:round;stroke-miterlimit:4;stroke-dasharray:none;stroke-opacity:0.94902003" />
  </g>
</svg>
