<?xml version="1.0" encoding="UTF-8" standalone="no"?>
<!-- Created with Inkscape (http://www.inkscape.org/) -->

<svg
   xmlns:dc="http://purl.org/dc/elements/1.1/"
   xmlns:cc="http://creativecommons.org/ns#"
   xmlns:rdf="http://www.w3.org/1999/02/22-rdf-syntax-ns#"
   xmlns:svg="http://www.w3.org/2000/svg"
   xmlns="http://www.w3.org/2000/svg"
   xmlns:xlink="http://www.w3.org/1999/xlink"
   xmlns:sodipodi="http://sodipodi.sourceforge.net/DTD/sodipodi-0.dtd"
   xmlns:inkscape="http://www.inkscape.org/namespaces/inkscape"
   width="197.55556mm"
   height="141.11111mm"
   viewBox="0 0 197.55556 141.11111"
   version="1.1"
   id="svg1105"
   inkscape:version="0.92.5 (0.92.5+69)"
   sodipodi:docname="featured_icon.svg">
  <defs
     id="defs1099">
    <linearGradient
       inkscape:collect="always"
       xlink:href="#linearGradient4689"
       id="linearGradient4213"
       gradientUnits="userSpaceOnUse"
       gradientTransform="matrix(0.11217173,0,0,0.11347708,-32.97036,-42.176091)"
       x1="26.648937"
       y1="20.603781"
       x2="135.66525"
       y2="114.39767" />
    <linearGradient
       id="linearGradient4689">
      <stop
         id="stop4691"
         offset="0"
         style="stop-color:#5a9fd4;stop-opacity:1;" />
      <stop
         id="stop4693"
         offset="1"
         style="stop-color:#306998;stop-opacity:1;" />
    </linearGradient>
    <linearGradient
       inkscape:collect="always"
       xlink:href="#linearGradient4671"
       id="linearGradient4215"
       gradientUnits="userSpaceOnUse"
       gradientTransform="matrix(0.11217173,0,0,0.11347708,-32.97036,-42.176091)"
       x1="150.96111"
       y1="192.35176"
       x2="112.03144"
       y2="137.27299" />
    <linearGradient
       id="linearGradient4671">
      <stop
         id="stop4673"
         offset="0"
         style="stop-color:#ffd43b;stop-opacity:1;" />
      <stop
         id="stop4675"
         offset="1"
         style="stop-color:#ffe873;stop-opacity:1" />
    </linearGradient>
    <linearGradient
       inkscape:collect="always"
       xlink:href="#linearGradient4689"
       id="linearGradient1762"
       gradientUnits="userSpaceOnUse"
       gradientTransform="matrix(0.07070869,0,0,0.07153154,-90.316061,-28.246611)"
       x1="26.648937"
       y1="20.603781"
       x2="135.66525"
       y2="114.39767" />
    <linearGradient
       inkscape:collect="always"
       xlink:href="#linearGradient4671"
       id="linearGradient1764"
       gradientUnits="userSpaceOnUse"
       gradientTransform="matrix(0.07070869,0,0,0.07153154,-90.316061,-28.246611)"
       x1="150.96111"
       y1="192.35176"
       x2="112.03144"
       y2="137.27299" />
    <linearGradient
       inkscape:collect="always"
       xlink:href="#linearGradient4689"
       id="linearGradient1766"
       gradientUnits="userSpaceOnUse"
       gradientTransform="matrix(0.07070869,0,0,0.07153154,35.907207,-28.246611)"
       x1="26.648937"
       y1="20.603781"
       x2="135.66525"
       y2="114.39767" />
    <linearGradient
       inkscape:collect="always"
       xlink:href="#linearGradient4671"
       id="linearGradient1768"
       gradientUnits="userSpaceOnUse"
       gradientTransform="matrix(0.07070869,0,0,0.07153154,35.907207,-28.246611)"
       x1="150.96111"
       y1="192.35176"
       x2="112.03144"
       y2="137.27299" />
  </defs>
  <sodipodi:namedview
     id="base"
     pagecolor="#ffffff"
     bordercolor="#666666"
     borderopacity="1.0"
     inkscape:pageopacity="0.0"
     inkscape:pageshadow="2"
     inkscape:zoom="0.35"
     inkscape:cx="316.19049"
     inkscape:cy="-404.7619"
     inkscape:document-units="mm"
     inkscape:current-layer="layer1"
     showgrid="false"
     fit-margin-top="0"
     fit-margin-left="0"
     fit-margin-right="0"
     fit-margin-bottom="0"
     inkscape:window-width="2560"
     inkscape:window-height="993"
     inkscape:window-x="0"
     inkscape:window-y="384"
     inkscape:window-maximized="1" />
  <metadata
     id="metadata1102">
    <rdf:RDF>
      <cc:Work
         rdf:about="">
        <dc:format>image/svg+xml</dc:format>
        <dc:type
           rdf:resource="http://purl.org/dc/dcmitype/StillImage" />
        <dc:title></dc:title>
      </cc:Work>
    </rdf:RDF>
  </metadata>
  <g
     inkscape:label="Layer 1"
     inkscape:groupmode="layer"
     id="layer1"
     transform="translate(117.67659,99.371033)">
    <rect
       style="opacity:1;fill:#ebebeb;fill-opacity:0;stroke:none;stroke-width:3.38666677;stroke-miterlimit:4;stroke-dasharray:none;stroke-opacity:0"
       id="rect6192"
       width="197.55556"
       height="141.11111"
       x="-117.67659"
       y="-99.371033"
       inkscape:export-xdpi="64.285706"
       inkscape:export-ydpi="64.285706" />
    <path
       style="opacity:1;fill:#ffffff;fill-opacity:1;stroke:none;stroke-width:1.22817194;stroke-miterlimit:4;stroke-dasharray:none;stroke-opacity:1"
       d="M -104.37903,12.000127 H 66.582592 l -3.00913,1.73728 H -102.09726 Z"
       id="path12833"
       inkscape:connector-curvature="0"
       sodipodi:nodetypes="ccccc"
       inkscape:export-xdpi="64.285706"
       inkscape:export-ydpi="64.285706" />
    <path
       style="opacity:1;fill:#ffffff;fill-opacity:1;stroke:#4d4d4d;stroke-width:1.19133067;stroke-linecap:round;stroke-linejoin:round;stroke-miterlimit:4;stroke-dasharray:none;stroke-dashoffset:10.80000019;stroke-opacity:1"
       d="m -81.509435,-70.932299 c -2.448314,0 -4.419278,1.598245 -4.419278,3.583673 v 39.647 h -5.29e-4 V 6.8428566 H 48.133532 V -27.701626 h -5.3e-4 v -39.647 c 0,-1.985428 -1.97099,-3.583673 -4.41928,-3.583673 H -81.507607 Z"
       id="rect12959"
       inkscape:connector-curvature="0"
       inkscape:export-xdpi="64.285706"
       inkscape:export-ydpi="64.285706" />
    <rect
       y="-66.925743"
       x="-81.72805"
       height="73.670662"
       width="125.65963"
       id="rect12843"
       style="opacity:1;fill:#ffffff;fill-opacity:1;stroke:#4d4d4d;stroke-width:0.80414712;stroke-miterlimit:4;stroke-dasharray:none;stroke-opacity:1"
       inkscape:export-xdpi="64.285706"
       inkscape:export-ydpi="64.285706" />
    <path
       inkscape:connector-curvature="0"
       id="path12853"
       d="m 66.849812,12.015227 -2.90897,1.53529 H -102.27665 l -2.37084,-1.53013"
       style="fill:#e6e6e6;fill-rule:evenodd;stroke:#4d4d4d;stroke-width:0.69304466;stroke-linecap:round;stroke-linejoin:round;stroke-miterlimit:4;stroke-dasharray:none;stroke-opacity:1"
       inkscape:export-xdpi="64.285706"
       inkscape:export-ydpi="64.285706"
       sodipodi:nodetypes="cccc" />
    <rect
       style="opacity:1;fill:#ffffff;fill-opacity:1;stroke:#4d4d4d;stroke-width:1.23310792;stroke-miterlimit:4;stroke-dasharray:none;stroke-opacity:1"
       id="rect12855"
       width="170.96158"
       height="4.8619332"
       x="-104.37901"
       y="6.5555258"
       inkscape:export-xdpi="64.285706"
       inkscape:export-ydpi="64.285706" />
    <rect
       style="opacity:1;fill:none;fill-opacity:1;stroke:#4d4d4d;stroke-width:0.42563629;stroke-linecap:round;stroke-linejoin:round;stroke-miterlimit:4;stroke-dasharray:none;stroke-dashoffset:10.80000019;stroke-opacity:1"
       id="rect6624"
       width="21.712868"
       height="2.3562033"
       x="-29.754675"
       y="6.5937338"
       ry="0.6460554"
       inkscape:export-xdpi="64.285706"
       inkscape:export-ydpi="64.285706" />
    <rect
       style="opacity:1;fill:#e6e6e6;fill-opacity:1;stroke:#4d4d4d;stroke-width:0.40296537;stroke-linecap:round;stroke-linejoin:round;stroke-miterlimit:4;stroke-dasharray:none;stroke-dashoffset:10.80000019;stroke-opacity:1"
       id="rect7394"
       width="125.39085"
       height="3.2559814"
       x="-81.517891"
       y="-66.677803"
       inkscape:export-xdpi="64.285706"
       inkscape:export-ydpi="64.285706" />
    <circle
       style="opacity:1;fill:#ffffff;fill-opacity:1;stroke:#808080;stroke-width:1.23310876;stroke-linecap:round;stroke-linejoin:round;stroke-miterlimit:4;stroke-dasharray:none;stroke-dashoffset:10.80000019;stroke-opacity:1"
       id="circle4476"
       cx="-18.898233"
       cy="-28.610695"
       r="19.307665" />
    <circle
       r="25.261189"
       cy="-28.610695"
       cx="-18.898233"
       id="path4464"
       style="opacity:1;fill:none;fill-opacity:1;stroke:#808080;stroke-width:0.29101118;stroke-linecap:round;stroke-linejoin:round;stroke-miterlimit:4;stroke-dasharray:none;stroke-dashoffset:10.80000019;stroke-opacity:1" />
    <circle
       style="opacity:1;fill:none;fill-opacity:1;stroke:#808080;stroke-width:0.24662077;stroke-linecap:round;stroke-linejoin:round;stroke-miterlimit:4;stroke-dasharray:0.24662078, 0.49324401;stroke-dashoffset:0;stroke-opacity:1"
       id="circle4478"
       cx="-18.898233"
       cy="-28.610695"
       r="18.077997" />
    <circle
       style="opacity:1;fill:none;fill-opacity:1;stroke:#808080;stroke-width:0.07404552;stroke-linecap:round;stroke-linejoin:round;stroke-miterlimit:4;stroke-dasharray:none;stroke-dashoffset:10.80000019;stroke-opacity:1"
       id="circle4480"
       cx="-18.898233"
       cy="-28.610695"
       r="31.041119" />
    <rect
       y="-53.955818"
       x="44.185165"
       height="2.7602446"
       width="3.4769948"
       id="rect4699"
       style="opacity:1;fill:#cccccc;fill-opacity:1;stroke:#4d4d4d;stroke-width:0.24311809;stroke-linecap:round;stroke-linejoin:round;stroke-miterlimit:4;stroke-dasharray:none;stroke-dashoffset:0;stroke-opacity:1"
       inkscape:export-xdpi="64.285706"
       inkscape:export-ydpi="64.285706" />
    <rect
       style="opacity:1;fill:#cccccc;fill-opacity:1;stroke:#4d4d4d;stroke-width:0.24311809;stroke-linecap:round;stroke-linejoin:round;stroke-miterlimit:4;stroke-dasharray:none;stroke-dashoffset:0;stroke-opacity:1"
       id="rect4697"
       width="3.4769948"
       height="2.7602446"
       x="-85.472061"
       y="-56.45546"
       inkscape:export-xdpi="64.285706"
       inkscape:export-ydpi="64.285706" />
    <rect
       style="opacity:1;fill:#ffffff;fill-opacity:1;stroke:#4d4d4d;stroke-width:1.45685363;stroke-miterlimit:4;stroke-dasharray:none;stroke-opacity:1"
       id="rect12887-7"
       width="35.814209"
       height="64.257729"
       x="26.870638"
       y="-51.089119"
       ry="5.6225524"
       rx="6.1433148"
       inkscape:export-xdpi="64.285706"
       inkscape:export-ydpi="64.285706" />
    <ellipse
       style="opacity:1;fill:#ffffff;fill-opacity:1;stroke:#4d4d4d;stroke-width:0.65116006;stroke-miterlimit:4;stroke-dasharray:none;stroke-opacity:1"
       id="ellipse12891-9"
       cx="44.777756"
       cy="8.3854132"
       rx="2.0950835"
       ry="2.1457577"
       inkscape:export-xdpi="64.285706"
       inkscape:export-ydpi="64.285706" />
    <rect
       style="opacity:1;fill:#ffffff;fill-opacity:1;stroke:#4d4d4d;stroke-width:0.26060456;stroke-miterlimit:4;stroke-dasharray:none;stroke-opacity:1"
       id="rect12893-8"
       width="8.503108"
       height="0.75728464"
       x="40.526184"
       y="-47.843876"
       rx="0.48670483"
       ry="0.75728464"
       inkscape:export-xdpi="64.285706"
       inkscape:export-ydpi="64.285706" />
    <rect
       style="opacity:1;fill:#ffffff;fill-opacity:1;stroke:#4d4d4d;stroke-width:0.53043383;stroke-linecap:round;stroke-linejoin:round;stroke-miterlimit:4;stroke-dasharray:none;stroke-opacity:1"
       id="rect12889-6"
       width="29.767345"
       height="47.990833"
       x="29.894075"
       y="-43.825825"
       rx="0"
       ry="0"
       inkscape:export-xdpi="64.285706"
       inkscape:export-ydpi="64.285706" />
    <rect
       style="opacity:1;fill:#e6e6e6;fill-opacity:1;stroke:#4d4d4d;stroke-width:0.52441406;stroke-linecap:round;stroke-linejoin:round;stroke-miterlimit:4;stroke-dasharray:none;stroke-dashoffset:10.80000019;stroke-opacity:1"
       id="rect7396"
       width="29.773363"
       height="3.4560666"
       x="29.891069"
       y="-43.828857"
       ry="0"
       rx="0"
       inkscape:export-xdpi="64.285706"
       inkscape:export-ydpi="64.285706" />
    <rect
       style="opacity:1;fill:#ffffff;fill-opacity:1;stroke:#4d4d4d;stroke-width:1.3758446;stroke-miterlimit:4;stroke-dasharray:none;stroke-opacity:1"
       id="rect12859-2"
       width="37.478291"
       height="66.657814"
       x="-100.18466"
       y="-53.448704"
       ry="4.7612734"
       rx="14.021598"
       inkscape:export-xdpi="64.285706"
       inkscape:export-ydpi="64.285706" />
    <rect
       style="opacity:1;fill:#ffffff;fill-opacity:1;stroke:#4d4d4d;stroke-width:0.53043383;stroke-linecap:round;stroke-linejoin:round;stroke-miterlimit:4;stroke-dasharray:none;stroke-opacity:1"
       id="rect12861-7"
       width="32.069241"
       height="49.831127"
       x="-97.480141"
       y="-45.595089"
       rx="0"
       ry="0"
       inkscape:export-xdpi="64.285706"
       inkscape:export-ydpi="64.285706" />
    <ellipse
       style="opacity:1;fill:#ffffff;fill-opacity:1;stroke:#4d4d4d;stroke-width:0.40866342;stroke-miterlimit:4;stroke-dasharray:none;stroke-opacity:1"
       id="ellipse12863-7"
       cx="-81.445526"
       cy="-49.459831"
       rx="0.95614636"
       ry="0.98346484"
       inkscape:export-xdpi="64.285706"
       inkscape:export-ydpi="64.285706" />
    <rect
       style="opacity:1;fill:#e6e6e6;fill-opacity:1;stroke:#4d4d4d;stroke-width:0.53231627;stroke-linecap:round;stroke-linejoin:round;stroke-miterlimit:4;stroke-dasharray:none;stroke-dashoffset:10.80000019;stroke-opacity:1"
       id="rect7390"
       width="32.067356"
       height="3.2151656"
       x="-97.479202"
       y="-45.594158"
       inkscape:export-xdpi="64.285706"
       inkscape:export-ydpi="64.285706" />
    <circle
       r="14.167787"
       cy="-19.695549"
       cx="-81.445526"
       id="circle4517"
       style="opacity:1;fill:none;fill-opacity:1;stroke:#666666;stroke-width:0.3689971;stroke-linecap:round;stroke-linejoin:round;stroke-miterlimit:4;stroke-dasharray:none;stroke-dashoffset:10.80000019;stroke-opacity:1"
       inkscape:export-xdpi="64.285706"
       inkscape:export-ydpi="64.285706" />
    <circle
       r="12.768776"
       cy="-19.695518"
       cx="-81.445526"
       id="circle4515"
       style="fill:#ffffff;fill-opacity:1;stroke:#ffe178;stroke-width:0.3689971;stroke-linecap:round;stroke-linejoin:round;stroke-miterlimit:4;stroke-dasharray:none;stroke-dashoffset:10.80000019;stroke-opacity:1"
       inkscape:export-xdpi="64.285706"
       inkscape:export-ydpi="64.285706" />
    <circle
       r="12.768776"
       cy="-19.695549"
       cx="-81.445526"
       id="circle5149"
       style="opacity:1;fill:#ffffff;fill-opacity:1;stroke:#666666;stroke-width:0.81549239;stroke-linecap:round;stroke-linejoin:round;stroke-miterlimit:4;stroke-dasharray:none;stroke-dashoffset:10.80000019;stroke-opacity:1"
       inkscape:export-xdpi="64.285706"
       inkscape:export-ydpi="64.285706" />
    <circle
       r="13.052552"
       cy="-19.695549"
       cx="44.777756"
       id="circle5206"
       style="opacity:1;fill:none;fill-opacity:1;stroke:#666666;stroke-width:0.3689971;stroke-linecap:round;stroke-linejoin:round;stroke-miterlimit:4;stroke-dasharray:none;stroke-dashoffset:10.80000019;stroke-opacity:1"
       inkscape:export-xdpi="64.285706"
       inkscape:export-ydpi="64.285706" />
    <circle
       style="opacity:1;fill:#ffffff;fill-opacity:1;stroke:#666666;stroke-width:0.75130099;stroke-linecap:round;stroke-linejoin:round;stroke-miterlimit:4;stroke-dasharray:none;stroke-dashoffset:10.80000019;stroke-opacity:1"
       id="circle5210"
       cx="44.777756"
       cy="-19.695549"
       r="11.763668"
       inkscape:export-xdpi="64.285706"
       inkscape:export-ydpi="64.285706" />
    <path
       id="path6068"
       d="m -81.528722,-26.772666 c -0.576139,0.0027 -1.126348,0.05193 -1.610471,0.137741 -1.42616,0.252462 -1.685102,0.780847 -1.685102,1.755317 v 1.286977 h 3.370203 v 0.428974 h -3.370203 -1.264806 c -0.979474,0 -1.837129,0.589889 -2.105394,1.712037 -0.309436,1.28623 -0.323162,2.088869 0,3.431921 0.239566,0.999717 0.811682,1.712019 1.79116,1.712019 h 1.158744 v -1.542777 c 0,-1.114591 0.962476,-2.097732 2.105398,-2.097732 h 3.366281 c 0.937046,0 1.685095,-0.773058 1.685095,-1.71597 v -3.215449 c 0,-0.915134 -0.770508,-1.602574 -1.685095,-1.755317 -0.578954,-0.09655 -1.179661,-0.140427 -1.75581,-0.137741 z m -1.822579,1.035073 c 0.348118,0 0.632402,0.289505 0.632402,0.645465 0,0.354692 -0.284284,0.641512 -0.632402,0.641512 -0.349364,0 -0.632405,-0.28682 -0.632405,-0.641512 0,-0.35596 0.283041,-0.645465 0.632405,-0.645465 z"
       style="fill:url(#linearGradient1762);fill-opacity:1;stroke:#000000;stroke-width:0;stroke-miterlimit:7.69810009;stroke-dasharray:none"
       inkscape:connector-curvature="0" />
    <path
       id="path6070"
       d="m -77.667522,-23.163657 v 1.499498 c 0,1.16255 -0.983677,2.14103 -2.10539,2.14103 h -3.366281 c -0.922072,0 -1.685102,0.790726 -1.685102,1.715951 v 3.215449 c 0,0.915153 0.794218,1.453418 1.685102,1.71597 1.066816,0.31431 2.089837,0.371114 3.366281,0 0.848462,-0.246131 1.685095,-0.7415 1.685095,-1.71597 v -1.286959 h -3.366275 v -0.428992 h 3.366275 1.685101 c 0.979478,0 1.344467,-0.684543 1.685103,-1.712019 0.351858,-1.057767 0.336889,-2.074998 0,-3.431921 -0.242059,-0.976983 -0.704375,-1.712037 -1.685103,-1.712037 z m -1.893281,8.142954 c 0.349362,0 0.632403,0.28682 0.632403,0.641513 0,0.355959 -0.283041,0.645446 -0.632403,0.645446 -0.348126,0 -0.632404,-0.289487 -0.632404,-0.645446 0,-0.354693 0.284278,-0.641513 0.632404,-0.641513 z"
       style="fill:url(#linearGradient1764);fill-opacity:1;stroke:#000000;stroke-width:0;stroke-miterlimit:7.69810009;stroke-dasharray:none"
       inkscape:connector-curvature="0" />
    <path
       id="path4197"
       d="m 44.694546,-26.772666 c -0.576139,0.0027 -1.126348,0.05193 -1.610471,0.137741 -1.42616,0.252462 -1.685102,0.780847 -1.685102,1.755317 v 1.286977 h 3.370203 v 0.428974 h -3.370203 -1.264806 c -0.979474,0 -1.837129,0.589889 -2.105394,1.712037 -0.309436,1.28623 -0.323162,2.088869 0,3.431921 0.239566,0.999717 0.811682,1.712019 1.79116,1.712019 h 1.158744 v -1.542777 c 0,-1.114591 0.962476,-2.097732 2.105398,-2.097732 h 3.366281 c 0.937046,0 1.685095,-0.773058 1.685095,-1.71597 v -3.215449 c 0,-0.915134 -0.770508,-1.602574 -1.685095,-1.755317 -0.578954,-0.09655 -1.179661,-0.140427 -1.75581,-0.137741 z m -1.822579,1.035073 c 0.348118,0 0.632402,0.289505 0.632402,0.645465 0,0.354692 -0.284284,0.641512 -0.632402,0.641512 -0.349364,0 -0.632405,-0.28682 -0.632405,-0.641512 0,-0.35596 0.283041,-0.645465 0.632405,-0.645465 z"
       style="fill:url(#linearGradient1766);fill-opacity:1;stroke:#000000;stroke-width:0;stroke-miterlimit:7.69810009;stroke-dasharray:none"
       inkscape:connector-curvature="0" />
    <path
       id="path4199"
       d="m 48.555746,-23.163657 v 1.499498 c 0,1.16255 -0.983677,2.14103 -2.10539,2.14103 h -3.366281 c -0.922072,0 -1.685102,0.790726 -1.685102,1.715951 v 3.215449 c 0,0.915153 0.794218,1.453418 1.685102,1.71597 1.066816,0.31431 2.089837,0.371114 3.366281,0 0.848462,-0.246131 1.685095,-0.7415 1.685095,-1.71597 v -1.286959 h -3.366275 v -0.428992 h 3.366275 1.685101 c 0.979478,0 1.344467,-0.684543 1.685103,-1.712019 0.351858,-1.057767 0.336889,-2.074998 0,-3.431921 -0.242059,-0.976983 -0.704375,-1.712037 -1.685103,-1.712037 z m -1.893281,8.142954 c 0.349362,0 0.632403,0.28682 0.632403,0.641513 0,0.355959 -0.283041,0.645446 -0.632403,0.645446 -0.348126,0 -0.632404,-0.289487 -0.632404,-0.645446 0,-0.354693 0.284278,-0.641513 0.632404,-0.641513 z"
       style="fill:url(#linearGradient1768);fill-opacity:1;stroke:#000000;stroke-width:0;stroke-miterlimit:7.69810009;stroke-dasharray:none"
       inkscape:connector-curvature="0" />
    <path
       id="path4207"
       d="m -19.030192,-39.837836 c -0.913984,0.0043 -1.78683,0.08238 -2.55484,0.218512 -2.262449,0.400502 -2.673232,1.238728 -2.673232,2.78462 v 2.041652 h 5.346463 v 0.68052 h -5.346463 -2.00648 c -1.553829,0 -2.914406,0.935795 -3.33998,2.715963 -0.490887,2.040464 -0.512662,3.313765 0,5.444373 0.380045,1.585943 1.287647,2.715933 2.841482,2.715933 h 1.838223 v -2.44745 c 0,-1.768177 1.526865,-3.327825 3.339987,-3.327825 h 5.340242 c 1.486523,0 2.673223,-1.226373 2.673223,-2.722202 v -5.100964 c 0,-1.451762 -1.222328,-2.54231 -2.673223,-2.78462 -0.918448,-0.153171 -1.871404,-0.222772 -2.785402,-0.218512 z m -2.891327,1.642031 c 0.552253,0 1.003239,0.45927 1.003239,1.023961 0,0.562682 -0.450986,1.017691 -1.003239,1.017691 -0.554227,0 -1.003241,-0.455009 -1.003241,-1.017691 0,-0.564691 0.449014,-1.023961 1.003241,-1.023961 z"
       style="fill:url(#linearGradient4213);fill-opacity:1;stroke:#000000;stroke-width:0;stroke-miterlimit:7.69810009;stroke-dasharray:none"
       inkscape:connector-curvature="0" />
    <path
       id="path4209"
       d="m -12.904815,-34.112532 v 2.378792 c 0,1.844261 -1.560497,3.396513 -3.339975,3.396513 h -5.340242 c -1.462767,0 -2.673232,1.254402 -2.673232,2.722172 v 5.100964 c 0,1.451792 1.259941,2.305691 2.673232,2.722201 1.692389,0.49862 3.315302,0.588734 5.340242,0 1.345994,-0.390459 2.673223,-1.176309 2.673223,-2.722201 v -2.041621 h -5.340234 v -0.680551 h 5.340234 2.673232 c 1.5538349,0 2.1328506,-1.085953 2.6732342,-2.715933 0.5581841,-1.678033 0.534437,-3.291762 0,-5.444373 -0.3840019,-1.549879 -1.1174151,-2.715963 -2.6732342,-2.715963 z m -3.003485,12.91792 c 0.554224,0 1.003238,0.455009 1.003238,1.017692 0,0.56469 -0.449014,1.02393 -1.003238,1.02393 -0.552265,0 -1.003242,-0.45924 -1.003242,-1.02393 0,-0.562683 0.450977,-1.017692 1.003242,-1.017692 z"
       style="fill:url(#linearGradient4215);fill-opacity:1;stroke:#000000;stroke-width:0;stroke-miterlimit:7.69810009;stroke-dasharray:none"
       inkscape:connector-curvature="0" />
  </g>
</svg>
