<?xml version="1.0" encoding="UTF-8" standalone="no"?>
<!-- Created with Inkscape (http://www.inkscape.org/) -->

<svg
   xmlns:dc="http://purl.org/dc/elements/1.1/"
   xmlns:cc="http://creativecommons.org/ns#"
   xmlns:rdf="http://www.w3.org/1999/02/22-rdf-syntax-ns#"
   xmlns:svg="http://www.w3.org/2000/svg"
   xmlns="http://www.w3.org/2000/svg"
   xmlns:sodipodi="http://sodipodi.sourceforge.net/DTD/sodipodi-0.dtd"
   xmlns:inkscape="http://www.inkscape.org/namespaces/inkscape"
   width="185.20834mm"
   height="132.29167mm"
   viewBox="0 0 185.20834 132.29167"
   version="1.1"
   id="svg1401"
   sodipodi:docname="featured_img.svg"
   inkscape:version="0.92.5 (0.92.5+69)">
  <defs
     id="defs1395">
    <filter
       inkscape:collect="always"
       style="color-interpolation-filters:sRGB"
       id="filter4707"
       x="-0.032124937"
       width="1.0642499"
       y="-0.60021949"
       height="2.200439">
      <feGaussianBlur
         inkscape:collect="always"
         stdDeviation="1.1960894"
         id="feGaussianBlur4709" />
    </filter>
  </defs>
  <sodipodi:namedview
     id="base"
     pagecolor="#ffffff"
     bordercolor="#666666"
     borderopacity="1.0"
     inkscape:pageopacity="0.0"
     inkscape:pageshadow="2"
     inkscape:zoom="0.35"
     inkscape:cx="169.81023"
     inkscape:cy="270.39855"
     inkscape:document-units="mm"
     inkscape:current-layer="layer1"
     showgrid="false"
     inkscape:window-width="2560"
     inkscape:window-height="993"
     inkscape:window-x="0"
     inkscape:window-y="384"
     inkscape:window-maximized="1"
     fit-margin-top="0"
     fit-margin-left="0"
     fit-margin-right="0"
     fit-margin-bottom="0" />
  <metadata
     id="metadata1398">
    <rdf:RDF>
      <cc:Work
         rdf:about="">
        <dc:format>image/svg+xml</dc:format>
        <dc:type
           rdf:resource="http://purl.org/dc/dcmitype/StillImage" />
        <dc:title></dc:title>
      </cc:Work>
    </rdf:RDF>
  </metadata>
  <g
     inkscape:label="Layer 1"
     inkscape:groupmode="layer"
     id="layer1"
     transform="translate(39.687501,30.705358)">
    <rect
       style="fill:none;stroke:#ffffff;stroke-width:0.36551902;stroke-linecap:round;stroke-linejoin:round"
       id="rect2731"
       width="184.84282"
       height="131.92615"
       x="-39.504742"
       y="-30.522598"
       inkscape:export-xdpi="68.57"
       inkscape:export-ydpi="68.57" />
    <path
       inkscape:connector-curvature="0"
       d="m 52.916673,81.422013 c -19.045211,0 -33.963071,-23.20632 -33.963071,-52.831382 0,-29.625073 14.91786,-52.832751 33.963071,-52.832751 19.045205,0 33.963055,23.206328 33.963055,52.831401 0,29.625073 -14.91785,52.832732 -33.963055,52.832732 z m 0,-101.939753 c -15.515651,0 -28.623731,22.488784 -28.623731,49.108371 0,26.619575 13.10808,49.107902 28.623731,49.107902 15.515635,0 28.623745,-22.488766 28.623745,-49.108355 0,-26.619583 -13.10811,-49.107918 -28.623745,-49.107918 z"
       id="path2670"
       style="fill:#000000;fill-opacity:0;stroke:#130654;stroke-width:0.515342;stroke-miterlimit:4;stroke-dasharray:none;stroke-opacity:1"
       inkscape:export-xdpi="68.57"
       inkscape:export-ydpi="68.57" />
    <path
       inkscape:connector-curvature="0"
       d="M 7.1627496,55.005988 C -2.3598584,38.512347 10.27847,13.989936 35.934532,-0.82259605 61.590598,-15.635133 89.147978,-14.319723 98.670588,2.173916 108.19319,18.667547 95.554838,43.18995 69.898778,58.002492 44.242713,72.815033 16.685361,71.499613 7.1627496,55.005988 Z M 95.445178,4.036104 C 87.687338,-9.400846 61.657438,-9.508386 38.604212,3.801406 15.550981,17.111193 2.6295516,39.707293 10.387381,53.144245 18.145202,66.581186 44.175112,66.688744 67.228338,53.378962 90.281578,40.069158 103.203,17.47304 95.445178,4.036104 Z"
       id="path4513"
       style="fill:#000000;fill-opacity:0;stroke:#130654;stroke-width:1.49809003;stroke-miterlimit:4;stroke-dasharray:none;stroke-opacity:1"
       inkscape:export-xdpi="68.57"
       inkscape:export-ydpi="68.57" />
    <path
       inkscape:connector-curvature="0"
       d="m 98.670578,55.00598 c -9.5226,16.493633 -37.0788,17.809703 -62.734856,2.997184 C 10.279661,43.190635 -2.3598584,18.667549 7.1627496,2.173908 16.685361,-14.319723 44.241551,-15.635799 69.897618,-0.82326005 95.553698,13.989277 108.19318,38.51235 98.670578,55.00598 Z M 10.388151,4.036102 c -7.7578194,13.436949 5.164,36.033273 28.21723,49.343066 C 61.658618,66.688945 87.688128,66.581194 95.445948,53.144237 103.20379,39.707303 90.281968,17.110968 67.228738,3.801175 44.175501,-9.508618 18.145991,-9.400833 10.388151,4.036102 Z"
       id="path4515"
       style="fill:#000000;fill-opacity:0;stroke:#130654;stroke-width:1.49809003;stroke-miterlimit:4;stroke-dasharray:none;stroke-opacity:1"
       inkscape:export-xdpi="68.57"
       inkscape:export-ydpi="68.57" />
    <path
       style="fill:#130654;fill-opacity:1;stroke:#130654;stroke-width:0.50975227;stroke-miterlimit:4;stroke-dasharray:none;stroke-opacity:1"
       id="path2909"
       d="m 44.88998,30.831015 c -0.684891,0 -1.382428,-0.283433 -1.819243,-0.83894 v 3.000973 h -1.371782 v -7.408407 h 1.240406 l 0.04736,0.814931 c 0.425477,-0.6262 1.181051,-0.956976 1.901957,-0.956976 1.382447,0 2.400764,1.158383 2.400764,2.694203 0,1.535839 -1.016989,2.694872 -2.399436,2.694216 z M 44.465186,26.45959 c -0.803601,0 -1.45314,0.6262 -1.45314,1.677893 0,1.051648 0.649539,1.6792 1.45314,1.6792 0.803601,0 1.45314,-0.626203 1.45314,-1.677868 0,-1.051694 -0.649539,-1.679225 -1.45314,-1.679225 z"
       class="cls-1"
       inkscape:connector-curvature="0" />
    <path
       style="fill:#130654;fill-opacity:1;stroke:#130654;stroke-width:0.50975227;stroke-miterlimit:4;stroke-dasharray:none;stroke-opacity:1"
       id="path2911"
       d="m 52.459771,30.690306 -0.04736,-0.81493 c -0.425477,0.626184 -1.181724,0.956969 -1.902621,0.956295 -1.382446,0 -2.400773,-1.157702 -2.400773,-2.693531 0,-1.535829 1.016325,-2.694209 2.400773,-2.693539 0.720897,0 1.477144,0.333434 1.902621,0.956968 l 0.04736,-0.814914 h 1.243072 v 5.103651 z M 50.935947,26.46026 c -0.803591,0 -1.45314,0.626205 -1.453794,1.67788 -6.84e-4,1.051674 0.649539,1.678543 1.45314,1.678543 0.803581,0 1.453784,-0.626203 1.453784,-1.677868 0,-1.051694 -0.649529,-1.678555 -1.45313,-1.678555 z"
       class="cls-1"
       inkscape:connector-curvature="0" />
    <path
       style="fill:#130654;fill-opacity:1;stroke:#130654;stroke-width:0.50975227;stroke-miterlimit:4;stroke-dasharray:none;stroke-opacity:1"
       id="path2913"
       d="m 58.495728,30.690952 v -2.823575 c 0,-0.992317 -0.342108,-1.323085 -0.968307,-1.323085 -0.650223,0 -1.359107,0.590191 -1.359107,1.299076 v 2.847584 h -1.371119 v -5.104297 h 1.253082 l 0.05928,0.945631 c 0.342782,-0.650214 1.110358,-1.087022 1.890629,-1.087022 1.358433,0 1.867269,0.945648 1.867269,2.209386 v 3.036986 z"
       class="cls-1"
       inkscape:connector-curvature="0" />
    <path
       style="fill:#130654;fill-opacity:1;stroke:#130654;stroke-width:0.50975227;stroke-miterlimit:4;stroke-dasharray:none;stroke-opacity:1"
       id="path2915"
       d="m 64.891128,30.692302 -0.04736,-0.815596 c -0.425477,0.626203 -1.181715,0.95697 -1.901957,0.95697 -1.382447,0 -2.400764,-1.158377 -2.400764,-2.694206 0,-1.535829 1.016325,-2.693535 2.400764,-2.693535 0.6849,0 1.381793,0.28409 1.819262,0.838936 v -2.681542 h 1.371109 v 7.088973 z m -1.523823,-4.230035 c -0.800252,0 -1.453131,0.626212 -1.453131,1.677203 0,1.05101 0.649539,1.677213 1.453131,1.677213 0.803601,0 1.45313,-0.625538 1.45313,-1.677213 0,-1.051674 -0.647537,-1.677203 -1.45313,-1.677203 z"
       class="cls-1"
       inkscape:connector-curvature="0" />
    <path
       style="fill:#130654;fill-opacity:1;stroke:#130654;stroke-width:0.50975227;stroke-miterlimit:4;stroke-dasharray:none;stroke-opacity:1"
       id="path2917"
       d="m 71.28186,30.692967 -0.04736,-0.81493 c -0.425458,0.626204 -1.181705,0.956303 -1.902602,0.956303 -1.382466,0 -2.400793,-1.15769 -2.400793,-2.694204 0,-1.536495 1.016325,-2.693537 2.400793,-2.693537 0.720897,0 1.477144,0.333442 1.902602,0.957638 l 0.04736,-0.815602 h 1.240406 v 5.103667 z m -1.523814,-4.23003 c -0.800251,0 -1.45313,0.626198 -1.453813,1.677873 -5.08e-4,1.051676 0.650212,1.675873 1.453149,1.675873 0.802927,0 1.453804,-0.626203 1.453804,-1.677868 0,-1.051694 -0.649548,-1.675878 -1.45314,-1.675878 z"
       class="cls-1"
       inkscape:connector-curvature="0" />
    <path
       style="fill:#130654;fill-opacity:1;stroke:#130654;stroke-width:0.50975227;stroke-miterlimit:4;stroke-dasharray:none;stroke-opacity:1"
       id="path2919"
       d="m 75.558595,30.859015 a 4.0119664,4.0119664 0 0 1 -2.044008,-0.579516 l 0.224746,-0.944983 c 0.413465,0.248093 1.039674,0.567531 1.795912,0.567531 0.543514,0 0.921628,-0.165394 0.921628,-0.590866 0,-0.366115 -0.390126,-0.496158 -1.087008,-0.661542 -1.252399,-0.272083 -1.701225,-0.933644 -1.701225,-1.654544 0,-0.803594 0.626209,-1.55917 2.008665,-1.55917 0.838933,0 1.571841,0.366126 1.733881,0.460822 l -0.224725,0.898292 a 2.9736301,2.9736301 0 0 0 -1.47648,-0.425472 c -0.554852,0 -0.826951,0.18873 -0.826951,0.496158 0,0.342116 0.354794,0.496169 0.897634,0.626203 1.347105,0.283434 1.890619,0.909637 1.890619,1.595178 0.0029,1.098363 -0.800925,1.771909 -2.112688,1.771909 z"
       class="cls-1"
       inkscape:connector-curvature="0" />
    <rect
       style="fill:#130654;fill-opacity:1;stroke:none;stroke-width:0.50975227;stroke-miterlimit:4;stroke-dasharray:none"
       id="rect2921"
       height="3.3357477"
       width="1.6065205"
       y="22.108856"
       x="30.487331"
       class="cls-1" />
    <rect
       style="fill:#130654;fill-opacity:1;stroke:none;stroke-width:0.50975227;stroke-miterlimit:4;stroke-dasharray:none"
       id="rect2923"
       height="3.3357477"
       width="1.6065205"
       y="28.96106"
       x="30.487331"
       class="cls-1" />
    <rect
       style="stroke:none;stroke-width:0.50975227;stroke-miterlimit:4;stroke-dasharray:none"
       id="rect2925"
       height="1.5738431"
       width="1.6065205"
       y="26.418259"
       x="30.487331"
       class="cls-2" />
    <rect
       style="fill:#130654;fill-opacity:1;stroke:none;stroke-width:0.50975227;stroke-miterlimit:4;stroke-dasharray:none"
       id="rect2927"
       height="11.08826"
       width="1.6065205"
       y="24.851742"
       x="27.907173"
       class="cls-1" />
    <rect
       style="fill:#130654;fill-opacity:1;stroke:none;stroke-width:0.50975227;stroke-miterlimit:4;stroke-dasharray:none"
       id="rect2929"
       height="3.3357477"
       width="1.6065205"
       y="31.713303"
       x="33.014812"
       class="cls-1" />
    <rect
       style="fill:#130654;fill-opacity:1;stroke:none;stroke-width:0.50975227;stroke-miterlimit:4;stroke-dasharray:none"
       id="rect2931"
       height="3.3357477"
       width="1.6065205"
       y="24.855743"
       x="33.014812"
       class="cls-1" />
    <rect
       style="stroke:none;stroke-width:0.50975227;stroke-miterlimit:4;stroke-dasharray:none"
       id="rect2933"
       height="1.5738431"
       width="1.6065205"
       y="29.165131"
       x="33.014812"
       class="cls-3" />
    <rect
       style="fill:#130654;fill-opacity:1;stroke:none;stroke-width:0.50975227;stroke-miterlimit:4;stroke-dasharray:none"
       id="rect2935"
       height="11.08826"
       width="1.6065205"
       y="21.239899"
       x="35.541626"
       class="cls-1" />
    <ellipse
       style="fill:#130654;fill-opacity:0.246913;stroke:none;stroke-width:1;stroke-linecap:round;stroke-linejoin:round;stroke-miterlimit:4;stroke-dasharray:none;stroke-opacity:1;filter:url(#filter4707)"
       id="path4693"
       cx="228.12572"
       cy="124.68713"
       rx="44.678913"
       ry="2.391304"
       transform="matrix(0.76839254,0,0,0.76839254,-122.37344,-4.460339)"
       inkscape:export-xdpi="68.57"
       inkscape:export-ydpi="68.57" />
    <path
       inkscape:connector-curvature="0"
       d="M 26.500641,74.343853 C 10.007011,64.821265 8.6909116,37.265062 23.503451,11.609006 c 14.812532,-25.656067 39.335627,-38.295569 55.829237,-28.77297 16.49365,9.522602 17.80973,37.078801 2.9972,62.73487 -14.81255,25.656077 -39.335617,38.295547 -55.829247,28.772947 z m 50.969867,-88.282409 c -13.43694,-7.757825 -36.033268,5.163992 -49.343066,28.217229 -13.309772,23.05323 -13.20206,49.082732 0.234939,56.84056 13.436942,7.75782 36.033267,-5.163967 49.343057,-28.21721 13.30981,-23.053236 13.20195,-49.082775 -0.23493,-56.840579 z"
       id="path4755"
       style="fill:#000000;fill-opacity:0;stroke:#130654;stroke-width:0.958776;stroke-miterlimit:4;stroke-dasharray:none;stroke-opacity:1"
       inkscape:export-xdpi="68.57"
       inkscape:export-ydpi="68.57" />
    <path
       inkscape:connector-curvature="0"
       d="M 79.332698,74.343843 C 62.839048,83.866453 38.316652,71.228123 23.504121,45.572073 8.6915816,19.916007 10.007,-7.641366 26.50063,-17.163969 c 16.49363,-9.522603 41.016038,3.115738 55.828578,28.771808 14.81253,25.656064 13.49712,53.213415 -2.99651,62.736004 z M 28.362821,-13.938561 c -13.43695,7.757826 -13.544489,33.787726 -0.234688,56.840965 13.30978,23.053222 35.905865,35.974649 49.342825,28.216819 13.43693,-7.757818 13.54451,-33.787714 0.2347,-56.840952 C 64.395878,-8.774967 41.799751,-21.696382 28.362821,-13.938561 Z"
       id="path4757"
       style="fill:#000000;fill-opacity:0;stroke:#130654;stroke-width:0.958776;stroke-miterlimit:4;stroke-dasharray:none;stroke-opacity:1"
       inkscape:export-xdpi="68.57"
       inkscape:export-ydpi="68.57" />
    <path
       inkscape:connector-curvature="0"
       d="m 0.08459055,28.589951 c 0,-19.045217 23.20633145,-33.963082 52.83140245,-33.963081 29.625075,4e-6 52.832747,14.91787 52.832747,33.963083 0,19.045201 -23.206332,33.963052 -52.831398,33.963063 -29.625081,0 -52.83274145,-14.917859 -52.83275145,-33.963065 z m 101.93975945,0 c 0,-15.515656 -22.488782,-28.62373605 -49.108357,-28.62373605 -26.619571,0 -49.1079134,13.10807705 -49.1079134,28.62373605 0,15.515643 22.4887714,28.623749 49.1083524,28.623749 26.619596,-1e-5 49.107938,-13.108112 49.107918,-28.623749 z"
       id="path4759"
       style="fill:#000000;fill-opacity:0;stroke:#130654;stroke-width:2.39693999;stroke-miterlimit:4;stroke-dasharray:none;stroke-opacity:1"
       inkscape:export-xdpi="68.57"
       inkscape:export-ydpi="68.57" />
  </g>
</svg>
