<?xml version="1.0" encoding="UTF-8" standalone="no"?>
<!-- Created with Inkscape (http://www.inkscape.org/) -->

<svg
   xmlns:dc="http://purl.org/dc/elements/1.1/"
   xmlns:cc="http://creativecommons.org/ns#"
   xmlns:rdf="http://www.w3.org/1999/02/22-rdf-syntax-ns#"
   xmlns:svg="http://www.w3.org/2000/svg"
   xmlns="http://www.w3.org/2000/svg"
   xmlns:xlink="http://www.w3.org/1999/xlink"
   xmlns:sodipodi="http://sodipodi.sourceforge.net/DTD/sodipodi-0.dtd"
   xmlns:inkscape="http://www.inkscape.org/namespaces/inkscape"
   width="197.55855mm"
   height="141.0089mm"
   viewBox="0 0 197.55855 141.0089"
   version="1.1"
   id="svg7123"
   inkscape:version="0.92.5 (0.92.5+69)"
   sodipodi:docname="featured_img.svg">
  <defs
     id="defs7117">
    <linearGradient
       gradientTransform="translate(9.9054858,164.41491)"
       inkscape:collect="always"
       xlink:href="#linearGradient7036"
       id="linearGradient7038"
       x1="111.88453"
       y1="-163.19318"
       x2="51.214344"
       y2="-33.475685"
       gradientUnits="userSpaceOnUse" />
    <linearGradient
       inkscape:collect="always"
       id="linearGradient7036">
      <stop
         style="stop-color:#669bc7;stop-opacity:1"
         offset="0"
         id="stop7032" />
      <stop
         style="stop-color:#33638c;stop-opacity:1"
         offset="1"
         id="stop7034" />
    </linearGradient>
  </defs>
  <sodipodi:namedview
     id="base"
     pagecolor="#ffffff"
     bordercolor="#666666"
     borderopacity="1.0"
     inkscape:pageopacity="0.0"
     inkscape:pageshadow="2"
     inkscape:zoom="0.35"
     inkscape:cx="-80.946725"
     inkscape:cy="-24.955068"
     inkscape:document-units="mm"
     inkscape:current-layer="layer1"
     showgrid="false"
     fit-margin-top="0"
     fit-margin-left="0"
     fit-margin-right="0"
     fit-margin-bottom="0"
     inkscape:window-width="2560"
     inkscape:window-height="993"
     inkscape:window-x="0"
     inkscape:window-y="384"
     inkscape:window-maximized="1" />
  <metadata
     id="metadata7120">
    <rdf:RDF>
      <cc:Work
         rdf:about="">
        <dc:format>image/svg+xml</dc:format>
        <dc:type
           rdf:resource="http://purl.org/dc/dcmitype/StillImage" />
        <dc:title></dc:title>
      </cc:Work>
    </rdf:RDF>
  </metadata>
  <g
     inkscape:label="Layer 1"
     inkscape:groupmode="layer"
     id="layer1"
     transform="translate(11.84475,-1.2217425)">
    <path
       style="color:#000000;font-style:normal;font-variant:normal;font-weight:normal;font-stretch:normal;font-size:medium;line-height:normal;font-family:sans-serif;font-variant-ligatures:normal;font-variant-position:normal;font-variant-caps:normal;font-variant-numeric:normal;font-variant-alternates:normal;font-feature-settings:normal;text-indent:0;text-align:start;text-decoration:none;text-decoration-line:none;text-decoration-style:solid;text-decoration-color:#000000;letter-spacing:normal;word-spacing:normal;text-transform:none;writing-mode:lr-tb;direction:ltr;text-orientation:mixed;dominant-baseline:auto;baseline-shift:baseline;text-anchor:start;white-space:normal;shape-padding:0;clip-rule:nonzero;display:inline;overflow:visible;visibility:visible;opacity:1;isolation:auto;mix-blend-mode:normal;color-interpolation:sRGB;color-interpolation-filters:linearRGB;solid-color:#000000;solid-opacity:1;vector-effect:none;fill:url(#linearGradient7038);fill-opacity:1;fill-rule:nonzero;stroke:none;stroke-width:3.4000001;stroke-linecap:butt;stroke-linejoin:miter;stroke-miterlimit:4;stroke-dasharray:none;stroke-dashoffset:0;stroke-opacity:1;color-rendering:auto;image-rendering:auto;shape-rendering:auto;text-rendering:auto;enable-background:accumulate"
       d="m 151.80197,13.06336 -130.673826,3.054679 -14.9101572,11.55079 0.08008,0.92578 6.0878902,69.13867 43.769532,8.863281 29.839843,-51.445309 13.470708,7.408198 14.84179,57.740231 30.22266,-2.71484 26.10352,-36.578122 -7.00782,-59.210938 z m -1.08398,3.42578 9.70508,7.16797 6.67969,56.443357 -24.4336,34.238283 -25.78906,2.3164 L 102.39182,60.287969 84.721893,50.57117 54.43869,102.78015 15.550018,94.905153 9.7668148,29.21961 22.32541,19.491089 Z"
       id="path6996"
       inkscape:connector-curvature="0"
       inkscape:export-xdpi="64.279999"
       inkscape:export-ydpi="64.279999" />
    <path
       style="fill:#4c7fa9;fill-opacity:1;stroke:none;stroke-width:0.26458332px;stroke-linecap:butt;stroke-linejoin:miter;stroke-opacity:1"
       d="m 161.80104,35.300949 0.43402,3.66748 2.98465,-3.708591 -0.39823,-3.364719 z"
       id="path7046"
       inkscape:connector-curvature="0"
       inkscape:export-xdpi="64.279999"
       inkscape:export-ydpi="64.279999" />
    <path
       style="fill:#274c6b;fill-opacity:1;stroke:none;stroke-width:0.26458332px;stroke-linecap:butt;stroke-linejoin:miter;stroke-opacity:1"
       d="m 157.86249,93.048651 -1.72361,2.415265 4.66879,-0.687827 1.72042,-2.410775 z"
       id="path7044"
       inkscape:connector-curvature="0"
       inkscape:export-xdpi="64.279999"
       inkscape:export-ydpi="64.279999" />
    <path
       style="fill:#274c6b;fill-opacity:1;stroke:none;stroke-width:0.26458332px;stroke-linecap:butt;stroke-linejoin:miter;stroke-opacity:1"
       d="m 102.58511,74.693857 0.92986,3.617492 2.77569,-2.854799 -0.91367,-3.554648 z"
       id="path7042"
       inkscape:connector-curvature="0"
       inkscape:export-xdpi="64.279999"
       inkscape:export-ydpi="64.279999" />
    <path
       style="fill:#274c6b;fill-opacity:1;stroke:none;stroke-width:0.26458332px;stroke-linecap:butt;stroke-linejoin:miter;stroke-opacity:1"
       d="m 76.508631,64.731035 -2.555869,4.406379 1.853469,3.580323 2.437887,-4.203028 z"
       id="path7040"
       inkscape:connector-curvature="0"
       sodipodi:nodetypes="ccccc"
       inkscape:export-xdpi="64.279999"
       inkscape:export-ydpi="64.279999" />
    <path
       style="fill:#274c6b;fill-opacity:1;stroke:none;stroke-width:0.26458332px;stroke-linecap:butt;stroke-linejoin:miter;stroke-opacity:1"
       d="m 7.3870548,40.962001 0.278898,3.16738 3.7169942,3.446238 -0.252238,-2.864919 z"
       id="path7030"
       inkscape:connector-curvature="0"
       inkscape:export-xdpi="64.279999"
       inkscape:export-ydpi="64.279999" />
    <path
       style="fill:#ffffff;stroke:#4d4d4d;stroke-width:0.59784985"
       inkscape:connector-curvature="0"
       d="m 138.23248,133.45422 -0.65761,-2.48094 c 1.26575,-0.76632 2.44268,-1.67265 3.50708,-2.70086 l 2.21616,1.27949 c 0.45564,0.26307 1.04196,0.10373 1.30698,-0.35527 l 4.55579,-7.89087 c 0.26495,-0.45892 0.11007,-1.04638 -0.34569,-1.30943 l -2.21624,-1.27954 c 0.3583,-1.43629 0.55475,-2.9087 0.58549,-4.38766 l 2.47737,-0.67096 c 0.24711,-0.0669 0.45366,-0.2265 0.58165,-0.44914 0.12775,-0.22211 0.1618,-0.48053 0.0963,-0.72744 l -2.32826,-8.78426 c -0.0657,-0.24694 -0.22288,-0.45347 -0.44323,-0.58124 l -0.001,-0.001 c -0.2207,-0.12742 -0.47794,-0.16079 -0.72424,-0.094 l -2.47741,0.67105 c -0.75815,-1.26548 -1.65649,-2.4413 -2.67725,-3.50407 l 1.28632,-2.227971 c 0.26449,-0.458092 0.10828,-1.04526 -0.34827,-1.308872 l -7.84834,-4.531241 c -0.45648,-0.263557 -1.04312,-0.105395 -1.30766,0.352819 l -1.28644,2.228191 c -1.43088,-0.352639 -2.89844,-0.542735 -4.37321,-0.566605 l -0.65758,-2.481183 c -0.0656,-0.246716 -0.22294,-0.452663 -0.44363,-0.580073 l -10e-4,-5.29e-4 c -0.22086,-0.127101 -0.47849,-0.160253 -0.72527,-0.09328 l -8.7708,2.375631 c -0.24689,0.06677 -0.45378,0.225459 -0.58228,0.447119 -0.12895,0.222261 -0.16385,0.480825 -0.0982,0.728303 l 0.65756,2.481037 c -1.26524,0.765916 -2.44205,1.672302 -3.50693,2.700833 l -2.21622,-1.279541 c -0.45567,-0.263075 -1.04205,-0.103659 -1.3071,0.355399 l -4.55579,7.890853 c -0.26499,0.45902 -0.10982,1.04644 0.34583,1.30952 l 2.21617,1.27949 c -0.35835,1.43656 -0.55478,2.90888 -0.58551,4.38765 l -2.47701,0.67087 c -0.24722,0.0669 -0.45388,0.22639 -0.5819,0.4493 -0.12774,0.22224 -0.1618,0.4807 -0.0962,0.72759 l 2.32852,8.78382 c 0.0654,0.24715 0.22293,0.45363 0.44325,0.58139 l 0.001,0.001 c 0.2207,0.12742 0.47787,0.16089 0.724,0.094 l 2.47744,-0.67091 c 0.75825,1.26534 1.65671,2.44113 2.67732,3.50398 l -1.28635,2.22798 c -0.26453,0.45821 -0.10828,1.04532 0.3483,1.30886 l 7.84878,4.53137 c 0.4565,0.26356 1.04313,0.10539 1.30761,-0.35272 l 1.28642,-2.22812 c 1.43084,0.35249 2.89847,0.54267 4.37323,0.56653 l 0.65742,2.48097 c 0.0657,0.24764 0.22083,0.45034 0.44541,0.58125 0.22082,0.12696 0.47851,0.15998 0.72512,0.093 l 8.77124,-2.37537 c 0.51004,-0.13829 0.81502,-0.6656 0.67984,-1.17546 z"
       id="path6950"
       inkscape:export-xdpi="64.279999"
       inkscape:export-ydpi="64.279999" />
    <path
       style="fill:#ffffff;stroke:#4d4d4d;stroke-width:0.46135631"
       inkscape:connector-curvature="0"
       d="m 107.94138,57.107209 -1.98063,-0.006 c -0.3184,-1.096552 -0.75892,-2.154841 -1.31276,-3.153611 l 1.39636,-1.396355 c 0.28709,-0.28711 0.28545,-0.75597 -0.004,-1.045181 l -4.97191,-4.97191 c -0.28916,-0.289181 -0.75802,-0.290941 -1.0451,-0.005 l -1.39641,1.39641 c -0.99904,-0.553969 -2.05734,-0.994471 -3.15361,-1.31277 l -0.005,-1.980621 c -5.3e-4,-0.197569 -0.0782,-0.383418 -0.21861,-0.523279 -0.14005,-0.13955 -0.32585,-0.216641 -0.52301,-0.217041 l -7.012784,-0.019 c -0.197175,-5.29e-4 -0.382535,0.0756 -0.521785,0.214291 l -0.0011,7.94e-4 c -0.13906,0.139068 -0.215286,0.32416 -0.214741,0.52106 l 0.0054,1.9807 c -1.094711,0.31237 -2.150589,0.747138 -3.146655,1.295739 l -1.403808,-1.403811 c -0.288639,-0.288639 -0.757502,-0.289499 -1.045188,-0.0021 l -4.945108,4.94511 c -0.287628,0.28762 -0.28689,0.75647 0.0019,1.045181 l 1.403948,1.403961 c -0.548643,0.996119 -0.983451,2.052079 -1.295799,3.146589 l -1.980806,-0.006 c -0.196985,-5.29e-4 -0.381942,0.0758 -0.520989,0.214841 L 74.048392,57.23 c -0.138856,0.13925 -0.215006,0.324681 -0.214374,0.521991 l 0.019,7.012231 c 5.3e-4,0.197361 0.07742,0.383265 0.216985,0.52333 0.139928,0.140473 0.325705,0.218091 0.523275,0.218615 l 1.980694,0.0047 c 0.318212,1.096082 0.758783,2.154312 1.31276,3.153493 l -1.396416,1.396412 c -0.287096,0.287097 -0.285385,0.756031 0.0039,1.045274 l 4.971907,4.971907 c 0.289213,0.289211 0.758073,0.290872 1.045178,0.0037 l 1.396362,-1.39636 c 0.999236,0.55403 2.057477,0.994503 3.153606,1.312767 l 0.0053,1.980354 c 5.29e-4,0.197633 0.07809,0.383535 0.218689,0.523483 0.140141,0.1396 0.325966,0.216644 0.523128,0.217038 l 7.012504,0.01871 c 0.1973,5.29e-4 0.38267,-0.07557 0.5219,-0.214291 l 0.001,-0.0011 c 0.13906,-0.139057 0.21534,-0.324096 0.2147,-0.520874 l -0.005,-1.980692 c 1.09463,-0.312465 2.15051,-0.747337 3.1466,-1.295808 l 1.40382,1.403821 c 0.28871,0.288708 0.75756,0.289436 1.04518,0.0019 l 4.9453,-4.945441 c 0.28763,-0.287625 0.2869,-0.756483 -0.002,-1.045133 l -1.4039,-1.403903 c 0.54853,-0.996138 0.98341,-2.052124 1.29576,-3.146642 l 1.98061,0.0047 c 0.1977,5.29e-4 0.37979,-0.07463 0.52223,-0.215919 0.13874,-0.139247 0.21483,-0.324741 0.21416,-0.521914 l -0.0187,-7.012519 c -7.9e-4,-0.407792 -0.33337,-0.740432 -0.74042,-0.741522 z"
       id="path6964"
       inkscape:export-xdpi="64.279999"
       inkscape:export-ydpi="64.279999" />
    <path
       id="path27"
       d="m 37.826178,38.06121 -1.522929,-1.53116 c 0.59994,-1.090901 1.076227,-2.246461 1.419268,-3.443502 h 2.153142 c 0.442695,0 0.802915,-0.362759 0.802915,-0.808728 v -7.66654 c 0,-0.445881 -0.360111,-0.808721 -0.802786,-0.808721 h -2.153229 c -0.343151,-1.197349 -0.819457,-2.35291 -1.419265,-3.44352 L 37.82622,18.82789 c 0.151911,-0.15273 0.235291,-0.355911 0.234892,-0.57199 -2.65e-4,-0.215571 -0.08418,-0.418241 -0.2359,-0.570561 l -5.392116,-5.42141 c -0.151709,-0.15233 -0.353187,-0.23667 -0.567507,-0.23707 h -0.0016 c -0.214426,0 -0.415901,0.0839 -0.567296,0.23617 l -1.522925,1.53125 c -1.084842,-0.60318 -2.234113,-1.08205 -3.425032,-1.427029 v -2.164631 c 0,-0.44508 -0.360817,-0.8072301 -0.804425,-0.8072301 h -7.625218 c -0.443513,0 -0.804426,0.3620501 -0.804426,0.8072301 v 2.16484 c -1.191003,0.34501 -2.340356,0.8239 -3.425029,1.42695 l -1.523125,-1.53134 c -0.15151,-0.15224 -0.352885,-0.23605 -0.567292,-0.23605 h -0.0013 c -0.214416,2.91e-4 -0.416096,0.0846 -0.567723,0.23716 l -5.3916902,5.42097 c -0.151811,0.152531 -0.235799,0.35521 -0.236195,0.57079 -4.23e-4,0.21618 0.08298,0.419261 0.23489,0.57199 l 1.522928,1.53123 c -0.599723,1.090411 -1.075925,2.245961 -1.419176,3.443431 h -2.153233 c -0.442696,0 -0.802915,0.362859 -0.802915,0.808859 v 7.666541 c 0,0.44596 0.360206,0.80872 0.802915,0.80872 h 2.153147 c 0.34325,1.197559 0.819539,2.35304 1.419262,3.443509 l -1.522712,1.530941 c -0.152014,0.15273 -0.235494,0.355909 -0.234994,0.572209 4.23e-4,0.215669 0.08428,0.41834 0.235993,0.57065 l 5.3921172,5.420982 c 0.151708,0.152519 0.35329,0.236768 0.567594,0.237159 h 0.0017 c 0.21442,0 0.415898,-0.0838 0.567119,-0.23605 l 1.523014,-1.531171 c 1.084845,0.603031 2.234197,1.081831 3.425029,1.426941 v 2.164649 c 0,0.44518 0.360918,0.807219 0.804428,0.807219 l 7.625623,-9.7e-5 c 0.443515,0 0.804428,-0.362062 0.804428,-0.807141 v -2.164781 c 1.190916,-0.345099 2.340361,-0.823968 3.425031,-1.427009 l 1.522797,1.531239 c 0.152013,0.152842 0.350379,0.235251 0.569102,0.23617 0.214318,-2.65e-4 0.415997,-0.0847 0.567508,-0.237279 l 5.392116,-5.420982 c 0.313457,-0.315348 0.313856,-0.827889 7.93e-4,-1.142539 z"
       inkscape:connector-curvature="0"
       style="fill:#ffffff;stroke:#4d4d4d;stroke-width:0.50303471"
       inkscape:export-xdpi="64.279999"
       inkscape:export-ydpi="64.279999" />
    <rect
       style="opacity:1;fill:none;fill-opacity:1;stroke:none;stroke-width:2.74599504;stroke-linecap:round;stroke-linejoin:round;stroke-miterlimit:4;stroke-dasharray:none;stroke-dashoffset:0;stroke-opacity:1"
       id="rect6274"
       width="197.55855"
       height="141.0089"
       x="-11.84475"
       y="1.2217425"
       inkscape:export-xdpi="64.279999"
       inkscape:export-ydpi="64.279999" />
    <path
       id="path19"
       d="m 31.861258,43.98435 -1.716866,-1.726251 c -0.13666,-0.13739 -0.34817,-0.16534 -0.515353,-0.068 -1.19811,0.69778 -2.483948,1.233471 -3.821729,1.592051 -0.0021,7.93e-4 -0.005,7.93e-4 -0.0072,0.0011 -0.201279,0.0578 -0.327502,0.251889 -0.307338,0.454459 V 46.6353 l -7.528721,10e-5 v -0.934971 h 3.566374 c 0.235495,0 0.426437,-0.191958 0.426437,-0.428728 0,-0.23676 -0.190942,-0.428742 -0.426437,-0.428742 H 17.964062 V 44.23143 c 0.01736,-0.203959 -0.112784,-0.396131 -0.315064,-0.450389 -1.335881,-0.35823 -2.620086,-0.892972 -3.817249,-1.589471 -0.003,-0.0011 -0.0061,-0.004 -0.0092,-0.005 -0.006,-0.004 -0.01322,-0.007 -0.01938,-0.0105 -0.180409,-0.0906 -0.395032,-0.0409 -0.518927,0.10967 l -1.688698,1.697709 -5.3232072,-5.352071 1.690765,-1.699807 c 0.15331,-0.12954 0.198864,-0.353992 0.09813,-0.536282 -0.0013,-0.0011 -0.0026,-0.004 -0.0039,-0.007 -0.694124,-1.204709 -1.227005,-2.497659 -1.584042,-3.8431 -0.05378,-0.202559 -0.242711,-0.333009 -0.445581,-0.31697 h -2.39355 v -7.569251 h 2.427359 c 0.193153,0 0.362218,-0.130591 0.411988,-0.318161 0.3568,-1.344519 0.889401,-2.636589 1.582836,-3.84047 0.09683,-0.168059 0.06913,-0.380599 -0.06742,-0.51803 l -1.716779,-1.72612 5.3232082,-5.35249 1.716951,1.72625 c 0.136664,0.13728 0.348074,0.16514 0.515351,0.0679 1.197937,-0.697709 2.483563,-1.233259 3.821254,-1.59189 0.20128,-0.054 0.331018,-0.24443 0.315066,-0.44739 v -2.406918 h 7.528288 v 0.63646 h -3.962133 c -0.23549,0 -0.426432,0.19196 -0.426432,0.42875 0,0.236761 0.190942,0.42872 0.426432,0.42872 h 3.96213 v 0.916411 c -0.01352,0.194889 0.108067,0.380209 0.301017,0.439929 0.0072,10e-4 0.01437,0.004 0.02156,0.007 1.33481,0.35863 2.617804,0.89349 3.81372,1.58994 0.167159,0.0974 0.378669,0.0695 0.515223,-0.0678 l 1.716948,-1.72634 5.323213,5.35249 -1.716863,1.72613 c -0.136559,0.13741 -0.164354,0.34996 -0.06743,0.51802 0.693653,1.2041 1.226232,2.49626 1.582923,3.84047 0.04987,0.18763 0.218842,0.31816 0.411988,0.31816 h 2.427359 v 7.569218 h -2.389312 c -0.202981,-0.01799 -0.395529,0.112811 -0.449631,0.316651 -0.356597,1.34452 -0.889267,2.6372 -1.583311,3.842081 -0.09684,0.168158 -0.06912,0.3806 0.06743,0.51802 l 1.71695,1.72612 z"
       inkscape:connector-curvature="0"
       style="fill:#ececec;stroke:#4d4d4d;stroke-width:0.15091042"
       inkscape:export-xdpi="64.279999"
       inkscape:export-ydpi="64.279999" />
    <path
       id="path21"
       d="m 21.727345,14.635639 c -7.573512,0 -13.7352562,6.19492 -13.7352562,13.80934 0,7.614441 6.1613142,13.80934 13.7352562,13.80934 7.573518,0 13.734831,-6.194899 13.734831,-13.80934 0,-7.61442 -6.161313,-13.80934 -13.734831,-13.80934 z"
       inkscape:connector-curvature="0"
       style="fill:#ffffff;stroke:#808080;stroke-width:0.50303471"
       inkscape:export-xdpi="64.279999"
       inkscape:export-ydpi="64.279999" />
    <path
       id="path23"
       d="M 21.727345,41.223269 C 14.718885,41.223139 9.0175378,35.49091 9.0175378,28.44455 c 0,-7.04637 5.7017782,-12.77872 12.7098072,-12.77872 7.008035,0 12.709809,5.73235 12.709809,12.77872 0,7.04636 -5.701345,12.778719 -12.709809,12.778719 z"
       inkscape:connector-curvature="0"
       style="fill:#ffffff;stroke:#808080;stroke-width:0.15091042"
       inkscape:export-xdpi="64.279999"
       inkscape:export-ydpi="64.279999" />
    <path
       id="path25"
       d="m 21.727345,39.08407 c -5.835284,0 -10.582677,-4.7728 -10.582677,-10.63952 0,-5.86673 4.747393,-10.639531 10.582677,-10.639531 5.835291,0 10.582678,4.772801 10.582678,10.639531 0,5.86672 -4.747387,10.63952 -10.582678,10.63952 z"
       inkscape:connector-curvature="0"
       style="fill:#ffffff;stroke:#4d4d4d;stroke-width:0.59037673"
       inkscape:export-xdpi="64.279999"
       inkscape:export-ydpi="64.279999" />
    <path
       id="path29"
       d="m 66.692849,100.39597 -2.806822,-1.114183 c 0.130202,-1.740476 0.101793,-3.489597 -0.08448,-5.224743 l 2.767168,-1.206362 c 1.0799,-0.470808 1.577142,-1.738032 1.108583,-2.825224 L 62.598104,78.248767 c -0.468987,-1.085718 -1.728311,-1.587775 -2.808496,-1.116682 l -2.767489,1.206714 C 55.890578,77.01714 54.640067,75.800871 53.286867,74.706554 l 1.108932,-2.822032 C 54.827956,70.7853 54.288997,69.535913 53.192749,69.098819 L 41.318064,64.382571 c -1.096534,-0.434512 -2.338906,0.107111 -2.771138,1.207064 l -1.108916,2.821561 c -1.73074,-0.130506 -3.470442,-0.102542 -5.196316,0.08508 L 31.041086,65.712698 C 30.572104,64.626964 29.310653,64.127341 28.231529,64.599905 L 16.51939,69.706451 c -0.522766,0.227753 -0.926618,0.646239 -1.136856,1.177893 -0.211331,0.534509 -0.202472,1.118804 0.02461,1.645507 l 1.200224,2.782528 c -1.315262,1.138375 -2.524997,2.395559 -3.613099,3.755763 l -2.806064,-1.11492 c -0.5319882,-0.211026 -1.1128362,-0.20071 -1.6367122,0.02887 -0.522401,0.228819 -0.925205,0.6487 -1.134044,1.181097 l -4.691176,11.938344 c -0.431808,1.102096 0.106956,2.351498 1.200604,2.78601 l 2.806824,1.114568 c -0.130354,1.739095 -0.101943,3.48852 0.08462,5.223969 l -2.767474,1.20674 c -1.079898,0.47042 -1.577141,1.73759 -1.108567,2.82507 l 5.079507,11.77608 c 0.468619,1.08681 1.728612,1.58778 2.8081912,1.11741 l 2.767946,-1.20674 c 1.132267,1.32239 2.38281,2.53869 3.735249,3.63255 l -1.107504,2.81945 c -0.210949,0.53449 -0.201377,1.11988 0.02765,1.64763 0.227587,0.5242 0.643821,0.92882 1.174398,1.14017 l 11.872103,4.71518 c 0.255206,0.10179 0.522081,0.15237 0.788609,0.15237 0.2881,0 0.576212,-0.0594 0.848405,-0.17827 0.523497,-0.22812 0.926984,-0.64697 1.136187,-1.18004 l 1.10857,-2.82157 c 1.731497,0.13096 3.471198,0.10239 5.196316,-0.0854 l 1.200621,2.78282 c 0.46827,1.08501 1.727549,1.58505 2.809557,1.11382 l 11.712427,-5.10653 c 1.080979,-0.47116 1.580044,-1.73759 1.112092,-2.8237 v -2.7e-4 l -1.200209,-2.78251 c 1.315265,-1.13804 2.524999,-2.39527 3.612799,-3.75531 l 2.806062,1.11455 c 0.531275,0.21103 1.112822,0.20106 1.637305,-0.0289 0.521716,-0.22884 0.924171,-0.64802 1.133711,-1.18077 l 4.690869,-11.93758 c 0.432538,-1.10102 -0.105135,-2.35121 -1.200253,-2.78631 z"
       inkscape:connector-curvature="0"
       style="fill:#ffffff;stroke:#4d4d4d;stroke-width:1.77449548"
       inkscape:export-xdpi="64.279999"
       inkscape:export-ydpi="64.279999" />
    <path
       id="path31"
       d="m 60.724473,113.1961 -3.045653,-1.20957 c -0.63355,-0.25194 -1.357042,-0.0435 -1.762339,0.50744 -1.336154,1.81703 -2.906654,3.44932 -4.66793,4.85174 -0.534085,0.42523 -0.717082,1.15868 -0.446315,1.78712 l 1.30253,3.01983 -10.1137,4.4095 -1.265383,-2.93339 c -0.24102,-0.67151 -0.921684,-1.08821 -1.637001,-0.98076 -2.223894,0.33417 -4.483492,0.37151 -6.716501,0.1106 -0.67746,-0.0779 -1.322358,0.30923 -1.572583,0.94658 l -1.203052,3.06176 -10.252422,-4.07177 1.203066,-3.06221 c 0.250603,-0.63736 0.04345,-1.36437 -0.504717,-1.77177 -1.807919,-1.34372 -3.432323,-2.92366 -4.82791,-4.69587 -0.0076,-0.009 -0.01595,-0.0199 -0.02371,-0.0293 -0.460492,-0.55549 -1.234211,-0.69571 -1.848635,-0.37438 l -2.906649,1.26722 -4.3857882,-10.16825 2.918947,-1.27289 c 0.630057,-0.22955 1.0399262,-0.85835 0.986128,-1.53977 -0.0046,-0.0456 -0.0091,-0.0907 -0.01626,-0.13567 -0.328831,-2.228298 -0.36423,-4.490935 -0.105133,-6.725008 0.08432,-0.725924 -0.358564,-1.394251 -1.028243,-1.612691 l -2.959662,-1.17575 4.050195,-10.307725 2.9646762,1.177875 c 0.59642,0.278635 1.319183,0.134152 1.762338,-0.374682 0.03434,-0.03919 0.06655,-0.07976 0.09632,-0.121999 1.332629,-1.807766 2.897084,-3.432323 4.650155,-4.828974 0.0471,-0.03737 0.09161,-0.07718 0.133696,-0.119113 0.468636,-0.471156 0.565627,-1.179652 0.280337,-1.749425 l -1.267862,-2.939777 10.113714,-4.409488 1.302184,3.019372 c 0.271126,0.62846 0.929108,0.996032 1.602359,0.893922 2.223135,-0.333812 4.481668,-0.370809 6.713296,-0.109691 0.678186,0.07794 1.322375,-0.309248 1.572901,-0.946582 l 1.203415,-3.062517 10.252424,4.072072 -1.203415,3.062518 c -0.250225,0.637365 -0.04329,1.364366 0.504716,1.771758 1.80898,1.344785 3.433387,2.924432 4.827606,4.695278 0.445254,0.565459 1.214385,0.726638 1.838,0.419912 l 2.94204,-1.282875 4.385497,10.168258 -2.913324,1.270066 c -0.672854,0.242718 -1.086279,0.931283 -0.979718,1.64733 0.332722,2.235441 0.369517,4.507648 0.109691,6.752796 -0.079,0.68074 0.307608,1.32983 0.94189,1.58186 l 3.045654,1.20919 z"
       inkscape:connector-curvature="0"
       style="fill:#ececec;stroke:#808080;stroke-width:0.53234857"
       inkscape:export-xdpi="64.279999"
       inkscape:export-ydpi="64.279999" />
    <path
       id="path33"
       d="m 43.161069,77.182853 c -5.304337,-2.107065 -11.107303,-2.01059 -16.339642,0.270476 -5.232781,2.281457 -9.268545,6.474465 -11.364212,11.807685 -2.095364,5.332902 -1.999802,11.167616 0.268986,16.429266 3.488219,8.08717 11.363452,12.92693 19.61972,12.92617 2.830541,0 5.707403,-0.56939 8.465015,-1.77145 C 54.612411,112.13589 59.589969,99.46921 54.905783,88.609551 52.636918,83.34851 48.466092,79.29072 43.161752,77.183962 Z"
       inkscape:connector-curvature="0"
       style="fill:#ffffff;stroke:#4d4d4d;stroke-width:1.0148654"
       inkscape:export-xdpi="64.279999"
       inkscape:export-ydpi="64.279999" />
    <path
       id="path35"
       d="m 35.309964,115.04797 c -9.820037,0 -17.808763,-8.03218 -17.808763,-17.904476 0,-9.872758 7.989181,-17.904479 17.808763,-17.904479 9.819735,0 17.808763,8.032329 17.808763,17.904479 0,9.873056 -7.989182,17.904476 -17.808763,17.904476 z"
       inkscape:connector-curvature="0"
       style="fill:#ffffff;stroke:#4d4d4d;stroke-width:0.56393409"
       inkscape:export-xdpi="64.279999"
       inkscape:export-ydpi="64.279999" />
    <g
       transform="translate(9.9054868,164.41492)"
       aria-label="not"
       style="font-style:normal;font-variant:normal;font-weight:bold;font-stretch:normal;font-size:10.35812092px;line-height:1.25;font-family:'MADE TOMMY';-inkscape-font-specification:'MADE TOMMY Bold';letter-spacing:0px;word-spacing:0px;fill:#306998;fill-opacity:1;stroke:#336d9d;stroke-width:0.30490476;stroke-miterlimit:4;stroke-dasharray:none;stroke-opacity:1"
       id="text6458"
       inkscape:export-xdpi="64.279999"
       inkscape:export-ydpi="64.279999">
      <path
         inkscape:connector-curvature="0"
         d="m 7.2908279,-138.2388 c -0.683636,0 -1.1393933,0.26932 -1.4397788,0.61113 v -0.48683 H 4.1730335 v 5.25157 h 1.6780156 v -2.82777 c 0,-0.58005 0.3521761,-0.90115 0.8390077,-0.90115 0.4661155,0 0.8390078,0.30038 0.8390078,0.90115 v 2.82777 h 1.6883737 v -3.28352 c 0,-1.05653 -0.6214872,-2.09235 -1.9266104,-2.09235 z"
         style="font-style:normal;font-variant:normal;font-weight:bold;font-stretch:normal;font-family:'MADE TOMMY';-inkscape-font-specification:'MADE TOMMY Bold';letter-spacing:0px;fill:#306998;fill-opacity:1;stroke:#336d9d;stroke-width:0.30490476;stroke-miterlimit:4;stroke-dasharray:none;stroke-opacity:1"
         id="path7021" />
      <path
         inkscape:connector-curvature="0"
         d="m 12.870294,-138.2388 c -1.636583,0 -2.817409,1.19119 -2.817409,2.75527 0,1.55371 1.180826,2.75526 2.817409,2.75526 1.646942,0 2.817409,-1.20155 2.817409,-2.75526 0,-1.56408 -1.170467,-2.75527 -2.817409,-2.75527 z m 0,3.87394 c -0.673278,0 -1.118677,-0.50755 -1.118677,-1.11867 0,-0.61113 0.445399,-1.12904 1.118677,-1.12904 0.683636,0 1.129036,0.51791 1.129036,1.12904 0,0.61112 -0.4454,1.11867 -1.129036,1.11867 z"
         style="font-style:normal;font-variant:normal;font-weight:bold;font-stretch:normal;font-family:'MADE TOMMY';-inkscape-font-specification:'MADE TOMMY Bold';letter-spacing:0px;fill:#306998;fill-opacity:1;stroke:#336d9d;stroke-width:0.30490476;stroke-miterlimit:4;stroke-dasharray:none;stroke-opacity:1"
         id="path7023" />
      <path
         inkscape:connector-curvature="0"
         d="m 19.470683,-136.72651 v -1.38799 h -1.035812 v -1.09796 h -1.678015 v 1.09796 h -0.652562 v 1.38799 h 0.652562 v 1.83339 c 0,1.02545 0.372892,2.12341 1.988759,2.12341 0.33146,0 0.54898,-0.0311 0.725068,-0.0932 v -1.4087 c -0.08287,0.0103 -0.186446,0.0311 -0.321101,0.0311 -0.517906,0 -0.714711,-0.27967 -0.714711,-0.82865 v -1.6573 z"
         style="font-style:normal;font-variant:normal;font-weight:bold;font-stretch:normal;font-family:'MADE TOMMY';-inkscape-font-specification:'MADE TOMMY Bold';letter-spacing:0px;fill:#306998;fill-opacity:1;stroke:#336d9d;stroke-width:0.30490476;stroke-miterlimit:4;stroke-dasharray:none;stroke-opacity:1"
         id="path7025" />
    </g>
    <g
       transform="translate(9.9054868,164.41492)"
       aria-label="is"
       style="font-style:normal;font-variant:normal;font-weight:bold;font-stretch:normal;font-size:26.19205093px;line-height:1.25;font-family:'MADE TOMMY';-inkscape-font-specification:'MADE TOMMY Bold';letter-spacing:0px;word-spacing:0px;fill:#ffdb4f;fill-opacity:1;stroke:#ffdb50;stroke-width:0.77099705;stroke-miterlimit:4;stroke-dasharray:none;stroke-opacity:1"
       id="text6928"
       inkscape:export-xdpi="64.279999"
       inkscape:export-ydpi="64.279999">
      <path
         inkscape:connector-curvature="0"
         d="m 16.558316,-58.51083 h 4.243112 V -71.7902 h -4.243112 z m 2.121556,-14.746125 c 1.231026,0 2.226324,-1.02149 2.226324,-2.252516 0,-1.231026 -0.995298,-2.226324 -2.226324,-2.226324 -1.231026,0 -2.226324,0.995298 -2.226324,2.226324 0,1.231026 0.995298,2.252516 2.226324,2.252516 z"
         style="font-style:normal;font-variant:normal;font-weight:bold;font-stretch:normal;font-family:'MADE TOMMY';-inkscape-font-specification:'MADE TOMMY Bold';letter-spacing:0px;fill:#ffdb4f;fill-opacity:1;stroke:#ffdb50;stroke-width:0.77099705;stroke-miterlimit:4;stroke-dasharray:none;stroke-opacity:1"
         id="path7011" />
      <path
         inkscape:connector-curvature="0"
         d="m 29.667028,-66.735134 c -1.047682,-0.209536 -2.488245,-0.26192 -2.488245,-1.126258 0,-0.733378 0.785762,-0.969106 1.623907,-0.969106 0.785762,0 1.361987,0.340497 1.519139,0.969106 l 3.562119,-0.864338 c -0.576225,-2.252516 -2.828741,-3.378774 -5.10745,-3.378774 -3.32639,0 -5.709867,1.597715 -5.709867,4.374072 0,2.593013 1.388179,3.509735 3.928808,4.08596 1.571523,0.340497 2.959702,0.288113 2.959702,1.204834 0,0.680994 -0.707186,0.942914 -1.597715,0.942914 -1.204835,0 -1.728676,-0.550033 -1.885828,-1.073874 l -3.850232,1.204835 c 0.550033,2.331092 3.116854,3.19543 5.788444,3.19543 3.876423,0 5.945595,-1.650099 5.945595,-4.452649 0,-2.435861 -1.335794,-3.404967 -4.688377,-4.112152 z"
         style="font-style:normal;font-variant:normal;font-weight:bold;font-stretch:normal;font-family:'MADE TOMMY';-inkscape-font-specification:'MADE TOMMY Bold';letter-spacing:0px;fill:#ffdb4f;fill-opacity:1;stroke:#ffdb50;stroke-width:0.77099705;stroke-miterlimit:4;stroke-dasharray:none;stroke-opacity:1"
         id="path7013" />
    </g>
    <path
       style="fill:#ffffff;stroke:#4d4d4d;stroke-width:0.78280795"
       inkscape:connector-curvature="0"
       d="m 157.63207,11.097469 -0.79524,1.06881 c -0.72676,-0.2542 -1.47534,-0.4418 -2.23597,-0.56054 l -0.1981,-1.31687 c -0.0773,-0.5139202 -0.56052,-0.8704901 -1.07729,-0.79495 l -5.59812,0.81968 c -0.51618,0.0759 -0.8739,0.55517 -0.7965,1.06924 l 0.19822,1.31704 c -0.69237,0.33126 -1.35342,0.72525 -1.97422,1.17692 l -1.07589,-0.79475 c -0.41905,-0.30964 -1.01296,-0.22263 -1.32438,0.19458 l -3.36547,4.52147 c -0.31034,0.41764 -0.2214,1.00887 0.19795,1.318631 l 1.0757,0.79468 c -0.25323,0.722589 -0.43995,1.46709 -0.55706,2.223929 l -1.32319,0.19377 c -0.5162,0.0759 -0.87312,0.556351 -0.79496,1.07014 l 0.83871,5.57374 c 0.0373,0.248761 0.16958,0.468612 0.37212,0.618911 0.20363,0.15108 0.45361,0.214011 0.70398,0.17739 l 1.32271,-0.193741 c 0.3349,0.69044 0.73247,1.349451 1.18784,1.96842 l -0.79546,1.068401 c -0.15067,0.202581 -0.2126,0.45126 -0.17458,0.700709 0.0378,0.24873 0.17078,0.46831 0.37379,0.618091 l 4.55146,3.36205 c 0.42031,0.309819 1.01422,0.2229 1.32424,-0.193511 l 0.7954,-1.068758 c 0.72617,0.254108 1.47487,0.441759 2.23566,0.56039 l 0.19823,1.317048 c 0.0771,0.513871 0.56033,0.870421 1.07722,0.79493 l 5.5979,-0.81988 c 0.51661,-0.0756 0.87394,-0.55531 0.79677,-1.069031 l -0.19818,-1.317238 c 0.69276,-0.331481 1.35383,-0.72549 1.97435,-1.176891 l 1.07495,0.79383 c 0.20367,0.150931 0.45422,0.21368 0.70525,0.17635 0.24934,-0.0371 0.46928,-0.168299 0.61992,-0.37025 l 3.36471,-4.520481 c 0.0725,-0.0971 0.12452,-0.205078 0.15497,-0.318637 0.0329,-0.12278 0.0404,-0.25232 0.0209,-0.381881 -0.0374,-0.249111 -0.16984,-0.468861 -0.3731,-0.618879 l -1.07573,-0.79452 c 0.25349,-0.722861 0.43995,-1.467432 0.55692,-2.223962 l 1.32286,-0.19388 c 0.51581,-0.0757 0.87267,-0.555149 0.79542,-1.069999 l -0.83868,-5.573871 c -0.0773,-0.5144 -0.56001,-0.87166 -1.07625,-0.796259 l -1.4e-4,-5e-5 -1.3227,0.193739 c -0.33477,-0.690399 -0.73237,-1.349439 -1.18769,-1.96824 l 0.79532,-1.068439 c 0.15056,-0.202281 0.21273,-0.451231 0.17463,-0.700971 -0.0379,-0.24843 -0.1706,-0.46779 -0.37369,-0.61791 l -4.55117,-3.36183 c -0.41977,-0.31001 -1.01388,-0.22365 -1.32432,0.19332 z"
       id="path6930"
       inkscape:export-xdpi="64.279999"
       inkscape:export-ydpi="64.279999" />
    <path
       style="fill:#ececec;stroke:#808080;stroke-width:0.23484237"
       inkscape:connector-curvature="0"
       d="m 162.40387,15.101329 -0.86316,1.15968 c -0.17969,0.2412 -0.17346,0.573281 0.015,0.80888 0.6217,0.776831 1.13793,1.6324 1.53442,2.54303 0.1202,0.27613 0.41185,0.43786 0.71055,0.394221 l 1.43551,-0.21023 0.72419,4.813039 -1.39442,0.20427 c -0.31367,0.026 -0.56895,0.268491 -0.60483,0.58557 -0.11158,0.985791 -0.35361,1.952881 -0.71973,2.87461 -0.11059,0.279771 -0.0192,0.598781 0.22379,0.778172 l 1.1673,0.862229 -2.90561,3.903768 -1.1675,-0.862269 c -0.24297,-0.17957 -0.57641,-0.174289 -0.8126,0.01281 -0.77899,0.61694 -1.6377,1.128739 -2.5522,1.521071 -0.005,0.0021 -0.01,0.005 -0.0152,0.007 -0.28928,0.1328 -0.43737,0.446482 -0.37058,0.74498 l 0.2081,1.383252 -4.83357,0.707858 -0.20912,-1.389139 c -0.0259,-0.29468 -0.24702,-0.54111 -0.54353,-0.596001 -0.02,-0.0021 -0.0397,-0.007 -0.0597,-0.009 -0.98704,-0.114292 -1.95521,-0.35755 -2.8776,-0.723033 -0.2997,-0.11884 -0.63504,-0.007 -0.80459,0.254032 l -0.83892,1.1269 -3.92982,-2.902741 0.8404,-1.1288 c 0.18683,-0.222318 0.20779,-0.546809 0.0415,-0.793721 -0.0128,-0.01921 -0.0264,-0.0376 -0.041,-0.0549 -0.61815,-0.77425 -1.13176,-1.62638 -1.52674,-2.532851 -0.0111,-0.02439 -0.0224,-0.0479 -0.0355,-0.0706 -0.14727,-0.253481 -0.43809,-0.375711 -0.71346,-0.319201 l -1.39742,0.2046 -0.7242,-4.81303 1.43528,-0.21015 c 0.29874,-0.0437 0.5305,-0.28217 0.56386,-0.58072 0.11158,-0.98542 0.3537,-1.95202 0.71976,-2.87313 0.1106,-0.2801 0.0192,-0.59879 -0.22377,-0.77832 l -1.16757,-0.86246 2.90575,-3.90373 1.16758,0.86244 c 0.24302,0.1794 0.57641,0.17423 0.81258,-0.0128 0.77957,-0.617289 1.63815,-1.129089 2.55192,-1.520999 0.29179,-0.12518 0.44829,-0.434511 0.3888,-0.735251 l -0.21076,-1.400109 4.83356,-0.707751 0.20855,1.386421 c 0.0266,0.31442 0.2728,0.56921 0.59008,0.60555 0.99054,0.11343 1.96295,0.35722 2.88998,0.724269 0.28105,0.11146 0.60177,0.0208 0.78159,-0.22074 l 0.86299,-1.159739 z"
       id="path6932"
       inkscape:export-xdpi="64.279999"
       inkscape:export-ydpi="64.279999" />
    <path
       style="fill:#cccccc;fill-opacity:1;stroke:#4d4d4d;stroke-width:0.44770175"
       inkscape:connector-curvature="0"
       d="m 145.05042,18.475489 c -1.50348,2.01966 -2.12493,4.503401 -1.75035,6.993401 0.37469,2.49024 1.7006,4.688671 3.73388,6.190588 2.03316,1.501752 4.53032,2.127232 7.03141,1.761221 3.84433,-0.56301 6.80578,-3.366159 7.74812,-6.884339 0.32317,-1.206131 0.40903,-2.49701 0.21167,-3.80931 -0.77334,-5.140301 -5.60245,-8.707541 -10.76471,-7.951481 -2.50084,0.36611 -4.70613,1.68005 -6.20947,3.699751 z"
       id="path6934"
       inkscape:export-xdpi="64.279999"
       inkscape:export-ydpi="64.279999" />
    <path
       style="fill:#ffffff;stroke:#4d4d4d;stroke-width:0.24877611"
       inkscape:connector-curvature="0"
       d="m 160.29136,26.14287 c -1.12122,4.184439 -5.45595,6.671449 -9.66266,5.544271 -4.2069,-1.127252 -6.71714,-5.448561 -5.59598,-9.632801 1.12118,-4.18432 5.45602,-6.671431 9.66266,-5.544261 4.20704,1.12726 6.71715,5.44855 5.59598,9.632791 z"
       id="path6936"
       inkscape:export-xdpi="64.279999"
       inkscape:export-ydpi="64.279999" />
    <g
       transform="translate(9.9054868,164.41492)"
       aria-label="!="
       style="font-style:normal;font-variant:normal;font-weight:bold;font-stretch:normal;font-size:12.13221359px;line-height:1.25;font-family:'MADE TOMMY';-inkscape-font-specification:'MADE TOMMY Bold';letter-spacing:0px;word-spacing:0px;fill:#306998;fill-opacity:1;stroke:#336d9d;stroke-width:0.35712752;stroke-miterlimit:4;stroke-dasharray:none;stroke-opacity:1"
       id="text6940"
       inkscape:export-xdpi="64.279999"
       inkscape:export-ydpi="64.279999">
      <path
         inkscape:connector-curvature="0"
         d="m 139.74882,-138.17497 c -0.59448,0 -1.07977,0.49742 -1.07977,1.09189 0,0.60661 0.48529,1.0919 1.07977,1.0919 0.60661,0 1.0919,-0.48529 1.0919,-1.0919 0,-0.59447 -0.48529,-1.09189 -1.0919,-1.09189 z m 0.81285,-1.04338 0.27905,-5.42309 h -2.17167 l 0.27904,5.42309 z"
         style="font-style:normal;font-variant:normal;font-weight:bold;font-stretch:normal;font-family:'MADE TOMMY';-inkscape-font-specification:'MADE TOMMY Bold';letter-spacing:0px;fill:#306998;fill-opacity:1;stroke:#336d9d;stroke-width:0.35712752;stroke-miterlimit:4;stroke-dasharray:none;stroke-opacity:1"
         id="path6998" />
      <path
         inkscape:connector-curvature="0"
         d="m 142.2945,-141.81464 v 1.51653 h 4.54958 v -1.51653 z m 0,4.10069 h 4.54958 v -1.5044 h -4.54958 z"
         style="font-style:normal;font-variant:normal;font-weight:bold;font-stretch:normal;font-family:'MADE TOMMY';-inkscape-font-specification:'MADE TOMMY Bold';letter-spacing:0px;fill:#306998;fill-opacity:1;stroke:#336d9d;stroke-width:0.35712752;stroke-miterlimit:4;stroke-dasharray:none;stroke-opacity:1"
         id="path7000" />
    </g>
    <path
       style="fill:#ececec;stroke:#4d4d4d;stroke-width:0.17935494"
       inkscape:connector-curvature="0"
       d="m 128.57784,136.00837 -0.74128,-2.797 c -0.0589,-0.22262 -0.26009,-0.37706 -0.49006,-0.37615 -1.64784,0.006 -3.28962,-0.20652 -4.87961,-0.63241 -0.001,-2.7e-4 -0.006,-0.002 -0.009,-0.002 -0.24152,-0.0601 -0.48677,0.0647 -0.58639,0.28512 l -1.42475,2.46775 -7.74906,-4.47379 0.5556,-0.96231 3.6707,2.11928 c 0.24239,0.13995 0.55299,0.0558 0.69369,-0.18788 0.14064,-0.24367 0.0583,-0.55473 -0.18413,-0.69468 l -3.67077,-2.11931 0.36339,-0.62942 c 0.13909,-0.19963 0.11926,-0.47475 -0.0565,-0.65081 -1.16211,-1.16254 -2.16613,-2.47606 -2.98442,-3.90435 -0.001,-0.004 -0.004,-0.008 -0.006,-0.011 -0.005,-0.007 -0.009,-0.0155 -0.0138,-0.0223 -0.13187,-0.2005 -0.38229,-0.27685 -0.59927,-0.1955 l -2.74696,0.74387 -2.29853,-8.67195 2.75034,-0.74482 c 0.23476,-0.0422 0.41502,-0.24616 0.41963,-0.49367 1.9e-4,-0.003 2.7e-4,-0.006 -5.3e-4,-0.009 0.001,-1.65242 0.22131,-3.29987 0.65335,-4.89684 0.065,-0.24048 -0.0519,-0.48698 -0.27026,-0.59103 l -2.46359,-1.42234 4.49796,-7.790681 2.49838,1.442441 c 0.19879,0.11478 0.45039,0.0809 0.61311,-0.0827 1.1662,-1.171825 2.4822,-2.185211 3.91131,-3.012254 0.19953,-0.11543 0.29729,-0.350697 0.23847,-0.573228 l -0.74128,-2.79682 8.65963,-2.345825 0.74138,2.797051 c 0.0592,0.222517 0.26013,0.376811 0.49011,0.376049 1.64761,-0.0063 3.28911,0.206497 4.87905,0.632288 0.23924,0.06409 0.48596,-0.05488 0.59014,-0.273259 l 1.43027,-2.477267 7.74857,4.473639 -0.37823,0.655074 -4.07805,-2.354472 c -0.24238,-0.13993 -0.55298,-0.05583 -0.69369,0.187881 -0.14064,0.243686 -0.0583,0.554744 0.18412,0.694679 l 4.07808,2.354472 -0.54456,0.943218 c -0.12981,0.192534 -0.11467,0.455544 0.0483,0.631684 0.006,0.007 0.0115,0.0129 0.0186,0.0193 1.16076,1.1623 2.16346,2.47523 2.9805,3.90274 0.11416,0.19954 0.34845,0.29655 0.5706,0.23635 l 2.79307,-0.75656 2.29827,8.67239 -2.79286,0.7564 c -0.22218,0.0603 -0.37709,0.26252 -0.37718,0.49312 -0.001,1.65153 -0.22127,3.29799 -0.65293,4.89348 -0.0602,0.22273 0.0361,0.45752 0.23495,0.57229 l 2.49839,1.44245 -4.49795,7.79068 -2.45923,-1.41984 c -0.19817,-0.13923 -0.47417,-0.11885 -0.65094,0.0588 -1.166,1.17193 -2.48242,2.18591 -3.91277,3.0136 -0.1996,0.11553 -0.29728,0.35069 -0.23846,0.57323 l 0.74146,2.79691 z"
       id="path6942"
       inkscape:export-xdpi="64.279999"
       inkscape:export-ydpi="64.279999" />
    <path
       style="fill:#ffffff;stroke:#808080;stroke-width:0.59784985"
       inkscape:connector-curvature="0"
       d="m 135.58795,99.778855 c -7.79511,-4.500507 -17.81843,-1.785903 -22.34324,6.051305 -4.52483,7.83723 -1.86451,17.87471 5.93103,22.37547 7.79512,4.50052 17.81799,1.78567 22.34281,-6.05156 4.52481,-7.83721 1.86452,-17.87471 -5.9306,-22.375215 z"
       id="path6944"
       inkscape:export-xdpi="64.279999"
       inkscape:export-ydpi="64.279999" />
    <path
       style="fill:#ffffff;stroke:#808080;stroke-width:0.17935494"
       inkscape:connector-curvature="0"
       d="m 119.78797,127.14474 c -7.21344,-4.16486 -9.67526,-13.4528 -5.48802,-20.70534 4.18724,-7.252527 13.46228,-9.764364 20.67537,-5.5999 7.21306,4.16448 9.67526,13.4528 5.48799,20.70534 -4.18724,7.25253 -13.46181,9.76463 -20.67534,5.5999 z"
       id="path6946"
       inkscape:export-xdpi="64.279999"
       inkscape:export-ydpi="64.279999" />
    <path
       style="fill:#ffffff;stroke:#4d4d4d;stroke-width:0.70165461"
       inkscape:connector-curvature="0"
       d="m 121.05917,124.94295 c -6.00603,-3.46757 -8.05611,-11.20113 -4.56986,-17.23951 3.48627,-6.03839 11.20876,-8.129727 17.21479,-4.66215 6.00602,3.46757 8.05612,11.20113 4.56985,17.23951 -3.48627,6.03838 -11.20876,8.12973 -17.21478,4.66215 z"
       id="path6948"
       inkscape:export-xdpi="64.279999"
       inkscape:export-ydpi="64.279999" />
    <g
       transform="translate(9.9054868,164.41492)"
       aria-label="%"
       style="font-style:normal;font-variant:normal;font-weight:bold;font-stretch:normal;font-size:18.71571541px;line-height:1.25;font-family:'MADE TOMMY';-inkscape-font-specification:'MADE TOMMY Bold';letter-spacing:0px;word-spacing:0px;fill:#306998;fill-opacity:1;stroke:#306998;stroke-width:0.55092144;stroke-miterlimit:4;stroke-dasharray:none;stroke-opacity:1"
       id="text6954"
       inkscape:export-xdpi="64.279999"
       inkscape:export-ydpi="64.279999">
      <path
         inkscape:connector-curvature="0"
         d="m 120.89176,-56.9733 -8.64666,13.101001 h 1.81543 L 122.7259,-56.9733 Z m -4.30461,3.219103 c 0,-1.815424 -1.47854,-3.293966 -3.29397,-3.293966 -1.81542,0 -3.29396,1.478542 -3.29396,3.293966 0,1.815424 1.47854,3.293966 3.29396,3.293966 1.81543,0 3.29397,-1.478542 3.29397,-3.293966 z m -4.58535,0 c 0,-0.711197 0.58018,-1.291384 1.29138,-1.291384 0.72991,0 1.3101,0.580187 1.3101,1.291384 0,0.711197 -0.58019,1.3101 -1.3101,1.3101 -0.7112,0 -1.29138,-0.598903 -1.29138,-1.3101 z m 9.65731,3.368829 c -1.81543,0 -3.29397,1.478541 -3.29397,3.293966 0,1.815424 1.47854,3.293966 3.29397,3.293966 1.81542,0 3.29396,-1.478542 3.29396,-3.293966 0,-1.815425 -1.47854,-3.293966 -3.29396,-3.293966 z m 0,4.58535 c -0.7112,0 -1.29139,-0.580187 -1.29139,-1.291384 0,-0.711197 0.58019,-1.291385 1.29139,-1.291385 0.71119,0 1.29138,0.580188 1.29138,1.291385 0,0.711197 -0.58019,1.291384 -1.29138,1.291384 z"
         style="font-style:normal;font-variant:normal;font-weight:bold;font-stretch:normal;font-family:'MADE TOMMY';-inkscape-font-specification:'MADE TOMMY Bold';letter-spacing:0px;fill:#306998;fill-opacity:1;stroke:#306998;stroke-width:0.55092144;stroke-miterlimit:4;stroke-dasharray:none;stroke-opacity:1"
         id="path7008" />
    </g>
    <path
       style="fill:#ececec;stroke:#4d4d4d;stroke-width:0.13840687"
       inkscape:connector-curvature="0"
       d="m 107.91672,64.814548 -2.23293,-0.0058 c -0.17773,-5.29e-4 -0.33301,0.118589 -0.37826,0.290184 -0.32447,1.229524 -0.81096,2.410815 -1.44599,3.510942 -8e-4,0.0021 -0.003,0.0042 -0.003,0.0062 -0.093,0.168026 -0.049,0.375761 0.0954,0.494049 l 1.55489,1.554882 -4.88247,4.882589 -0.60634,-0.606341 2.31287,-2.312865 c 0.15273,-0.152723 0.15206,-0.401048 -10e-4,-0.554601 -0.15354,-0.153538 -0.40187,-0.154208 -0.55459,-0.0013 l -2.31289,2.312887 -0.39659,-0.396592 c -0.12101,-0.143534 -0.33004,-0.183759 -0.49642,-0.08777 -1.09865,0.634034 -2.27828,1.120071 -3.50636,1.444762 -0.003,7.94e-4 -0.007,0.0011 -0.01,0.0024 -0.006,0.0016 -0.0132,0.004 -0.0194,0.0057 -0.17578,0.05822 -0.2827,0.229664 -0.26542,0.407646 l 0.006,2.196148 -6.923132,-0.01871 -0.0058,-2.198855 c 0.01543,-0.183433 -0.100603,-0.358534 -0.284149,-0.411424 -0.0021,-2.65e-4 -0.0046,-0.0013 -0.0065,-0.0016 -1.231429,-0.33112 -2.415516,-0.824039 -3.519612,-1.465045 -0.16624,-0.09649 -0.373361,-0.05855 -0.494527,0.08341 l -1.552266,1.552265 -4.908783,-4.908783 1.574192,-1.574191 c 0.125264,-0.125262 0.150246,-0.319564 0.06085,-0.473522 -0.640549,-1.103326 -1.133086,-2.286672 -1.464122,-3.51713 -0.04619,-0.171784 -0.201994,-0.291666 -0.379675,-0.292206 l -2.232792,-0.0058 -0.019,-6.923402 2.232991,0.006 c 0.177657,2.65e-4 0.332824,-0.118642 0.3782,-0.290229 0.324411,-1.22936 0.810848,-2.410431 1.445789,-3.510532 0.09554,-0.165528 0.05615,-0.3732 -0.08582,-0.494469 l -1.560891,-1.560901 4.882248,-4.88224 0.412753,0.41275 -2.569517,2.56952 c -0.15272,0.15272 -0.152059,0.401042 0.0013,0.55459 0.153543,0.153562 0.401867,0.15421 0.554588,0.0021 l 2.569519,-2.56952 0.594312,0.59432 c 0.117621,0.13515 0.316654,0.17648 0.480521,0.0902 0.0058,-0.003 0.01222,-0.006 0.01804,-0.0105 1.098225,-0.633072 2.277142,-1.118262 3.504383,-1.442173 0.171553,-0.0453 0.290666,-0.200477 0.290142,-0.378108 l -0.0061,-2.233041 6.923408,0.019 0.006,2.232851 c 5.3e-4,0.17767 0.12037,0.333531 0.29222,0.379661 1.23073,0.331028 2.41412,0.823648 3.51718,1.464059 0.154,0.0893 0.34826,0.0645 0.47352,-0.0608 l 1.57419,-1.574191 4.90879,4.90878 -1.54953,1.54954 c -0.14335,0.119909 -0.1833,0.329689 -0.0862,0.49694 0.64069,1.10321 1.13357,2.28699 1.46485,3.518469 0.0463,0.17186 0.202,0.291661 0.37968,0.292222 l 2.2329,0.006 z"
       id="path6956"
       inkscape:export-xdpi="64.279999"
       inkscape:export-ydpi="64.279999" />
    <path
       style="fill:#cccccc;stroke:#808080;stroke-width:0.13840687"
       inkscape:connector-curvature="0"
       d="m 99.55447,69.595453 c -4.5452,4.545044 -11.960114,4.525015 -16.529823,-0.0447 -4.569701,-4.569703 -4.589534,-11.984971 -0.04468,-16.529812 4.544853,-4.544859 11.960123,-4.52502 16.529823,0.0446 4.56971,4.569719 4.58982,11.984707 0.0447,16.529841 z"
       id="path6960"
       inkscape:export-xdpi="64.279999"
       inkscape:export-ydpi="64.279999" />
    <path
       style="fill:#ffffff;stroke:#4d4d4d;stroke-width:0.54146165"
       inkscape:connector-curvature="0"
       d="m 98.16716,68.208147 c -3.78429,3.784296 -9.95833,3.767817 -13.763026,-0.03686 -3.804687,-3.804676 -3.821165,-9.978715 -0.03687,-13.763016 3.784304,-3.78432 9.958336,-3.76782 13.763026,0.0369 3.80469,3.804679 3.82117,9.978718 0.0369,13.763017 z"
       id="path6962"
       inkscape:export-xdpi="64.279999"
       inkscape:export-ydpi="64.279999" />
    <g
       transform="translate(9.9054868,164.41492)"
       aria-label="or"
       style="font-style:normal;font-variant:normal;font-weight:bold;font-stretch:normal;font-size:13.31713963px;line-height:1.25;font-family:'MADE TOMMY';-inkscape-font-specification:'MADE TOMMY Bold';letter-spacing:0px;word-spacing:0px;fill:#ffdb4f;fill-opacity:1;stroke:#ffdb4f;stroke-width:0.39200732;stroke-miterlimit:4;stroke-dasharray:none;stroke-opacity:1"
       id="text6968"
       inkscape:export-xdpi="64.279999"
       inkscape:export-ydpi="64.279999">
      <path
         inkscape:connector-curvature="0"
         d="m 78.686643,-106.64909 c -2.104108,0 -3.622262,1.53147 -3.622262,3.54236 0,1.99757 1.518154,3.542357 3.622262,3.542357 2.117426,0 3.622262,-1.544787 3.622262,-3.542357 0,-2.01089 -1.504836,-3.54236 -3.622262,-3.54236 z m 0,4.98061 c -0.865614,0 -1.438251,-0.65254 -1.438251,-1.43825 0,-0.78571 0.572637,-1.45157 1.438251,-1.45157 0.878932,0 1.451569,0.66586 1.451569,1.45157 0,0.78571 -0.572637,1.43825 -1.451569,1.43825 z"
         style="font-style:normal;font-variant:normal;font-weight:bold;font-stretch:normal;font-family:'MADE TOMMY';-inkscape-font-specification:'MADE TOMMY Bold';letter-spacing:0px;fill:#ffdb4f;fill-opacity:1;stroke:#ffdb4f;stroke-width:0.39200732;stroke-miterlimit:4;stroke-dasharray:none;stroke-opacity:1"
         id="path7016" />
      <path
         inkscape:connector-curvature="0"
         d="m 85.528324,-105.46387 v -1.02542 h -2.157377 v 6.751795 h 2.157377 v -2.663425 c 0,-1.13196 0.213074,-2.22397 2.130742,-1.93099 v -2.31718 c -0.799028,0 -1.651325,0.42615 -2.130742,1.18522 z"
         style="font-style:normal;font-variant:normal;font-weight:bold;font-stretch:normal;font-family:'MADE TOMMY';-inkscape-font-specification:'MADE TOMMY Bold';letter-spacing:0px;fill:#ffdb4f;fill-opacity:1;stroke:#ffdb4f;stroke-width:0.39200732;stroke-miterlimit:4;stroke-dasharray:none;stroke-opacity:1"
         id="path7018" />
    </g>
    <path
       id="path6984"
       d="m 163.04464,60.36894 -0.94786,1.273939 c -0.86624,-0.30299 -1.75849,-0.5266 -2.6651,-0.66812 l -0.23612,-1.569609 c -0.0922,-0.612561 -0.66809,-1.037561 -1.28405,-0.947539 l -6.67254,0.977008 c -0.61526,0.0905 -1.04163,0.66172 -0.94937,1.274461 l 0.23626,1.56981 c -0.82527,0.39484 -1.61318,0.864439 -2.35314,1.4028 l -1.28237,-0.94728 c -0.49948,-0.36907 -1.20738,-0.265361 -1.57857,0.23192 l -4.01138,5.389259 c -0.36992,0.497792 -0.26389,1.202494 0.23594,1.571712 l 1.28216,0.947206 c -0.30184,0.861269 -0.52439,1.748657 -0.66398,2.650749 l -1.57715,0.230968 c -0.61526,0.09042 -1.04069,0.663128 -0.94754,1.275525 l 0.99969,6.643483 c 0.0445,0.296511 0.20218,0.558552 0.44355,0.737701 0.24271,0.180081 0.54067,0.255082 0.83909,0.211426 l 1.57656,-0.230923 c 0.39917,0.82296 0.87305,1.608455 1.41581,2.346214 l -0.94812,1.273455 c -0.17961,0.241462 -0.25341,0.537869 -0.20812,0.835202 0.0451,0.296466 0.20366,0.558184 0.44554,0.736714 l 5.42498,4.007311 c 0.50098,0.369289 1.20887,0.265678 1.5784,-0.230646 l 0.94805,-1.273878 c 0.86554,0.302881 1.75794,0.526536 2.66475,0.66794 l 0.23628,1.569821 c 0.0919,0.612497 0.66787,1.037481 1.28397,0.947496 l 6.67227,-0.977238 c 0.61577,-0.09012 1.04169,-0.661882 0.94969,-1.274202 l -0.2362,-1.570056 c 0.82573,-0.395094 1.61366,-0.864722 2.35328,-1.402765 l 1.28125,0.946192 c 0.24275,0.179888 0.54141,0.254688 0.8406,0.210193 0.29722,-0.04418 0.55934,-0.200594 0.73892,-0.441306 l 4.01048,-5.388084 c 0.0864,-0.115686 0.14833,-0.244443 0.18472,-0.379788 0.0392,-0.146349 0.0481,-0.300752 0.0249,-0.455181 -0.0447,-0.296921 -0.2024,-0.558845 -0.44471,-0.737656 l -1.28219,-0.947012 c 0.30214,-0.861595 0.52439,-1.749068 0.6638,-2.650797 l 1.57675,-0.231085 c 0.61482,-0.09027 1.04016,-0.661704 0.94808,-1.27536 l -0.99963,-6.643648 c -0.0922,-0.61313 -0.66751,-1.03895 -1.28281,-0.949084 l -1.8e-4,-5.6e-5 -1.57654,0.230921 c -0.39903,-0.822899 -0.87293,-1.608424 -1.41564,-2.345992 l 0.94796,-1.2735 c 0.17939,-0.241107 0.25355,-0.53784 0.20812,-0.83551 -0.0451,-0.296113 -0.20343,-0.557572 -0.44538,-0.736491 l -5.42466,-4.00707 c -0.50035,-0.369501 -1.20847,-0.266581 -1.57851,0.230431 z"
       inkscape:connector-curvature="0"
       style="fill:#ffffff;stroke:#4d4d4d;stroke-width:0.93304926"
       inkscape:export-xdpi="64.279999"
       inkscape:export-ydpi="64.279999" />
    <path
       id="path6986"
       d="m 168.73278,65.14125 -1.02882,1.382258 c -0.21417,0.287496 -0.20663,0.683313 0.017,0.964131 0.74102,0.92592 1.35632,1.945698 1.82891,3.031096 0.14322,0.329128 0.49089,0.521898 0.84692,0.469889 l 1.71102,-0.250579 0.86318,5.736781 -1.66204,0.243472 c -0.37387,0.03096 -0.67815,0.320027 -0.7209,0.697963 -0.13301,1.174985 -0.42148,2.327688 -0.85786,3.426322 -0.13174,0.33346 -0.0229,0.713703 0.26673,0.927521 l 1.39133,1.027708 -3.46328,4.653013 -1.39156,-1.027767 c -0.28961,-0.214026 -0.68704,-0.207748 -0.96857,0.01532 -0.9285,0.735351 -1.95199,1.345382 -3.04203,1.81301 -0.007,0.003 -0.0127,0.006 -0.017,0.0087 -0.34482,0.15829 -0.52131,0.532175 -0.44173,0.887961 l 0.24808,1.648735 -5.76127,0.843714 -0.24927,-1.655752 c -0.0309,-0.351235 -0.29442,-0.64497 -0.64784,-0.710393 -0.0238,-0.003 -0.0472,-0.0087 -0.0713,-0.01021 -1.17648,-0.136221 -2.33046,-0.426173 -3.42989,-0.861798 -0.35721,-0.141648 -0.75693,-0.0087 -0.95901,0.302775 l -0.99994,1.343182 -4.68403,-3.459851 1.00168,-1.345446 c 0.22269,-0.264988 0.24767,-0.651748 0.0494,-0.946057 -0.0149,-0.02289 -0.0314,-0.04478 -0.0489,-0.06546 -0.73679,-0.922853 -1.34898,-1.938522 -1.81975,-3.018972 -0.0127,-0.02907 -0.0268,-0.05709 -0.0423,-0.08411 -0.17557,-0.302133 -0.52215,-0.447812 -0.85036,-0.380463 l -1.66564,0.243872 -0.86316,-5.73678 1.71074,-0.250476 c 0.35606,-0.05212 0.63228,-0.336333 0.67207,-0.692179 0.13301,-1.174544 0.42158,-2.326659 0.85789,-3.424563 0.13174,-0.333854 0.0231,-0.713714 -0.26671,-0.927695 l -1.39166,-1.027989 3.46344,-4.65296 1.39164,1.027965 c 0.28969,0.213836 0.68707,0.207663 0.96855,-0.01532 0.9292,-0.735762 1.95256,-1.345796 3.0417,-1.812928 0.3478,-0.149199 0.53433,-0.517898 0.46341,-0.876358 l -0.25119,-1.668831 5.76126,-0.843589 0.24857,1.652508 c 0.0317,0.374772 0.32516,0.67846 0.70332,0.72177 1.18065,0.135202 2.3397,0.425781 3.44465,0.863291 0.33499,0.132849 0.71726,0.02479 0.93162,-0.263121 l 1.02861,-1.38231 z"
       inkscape:connector-curvature="0"
       style="fill:#ececec;stroke:#808080;stroke-width:0.27991474"
       inkscape:export-xdpi="64.279999"
       inkscape:export-ydpi="64.279999" />
    <path
       id="path6988"
       d="m 148.04823,69.162991 c -1.79204,2.407296 -2.53276,5.367721 -2.08629,8.335624 0.44661,2.968181 2.027,5.588548 4.4505,7.378719 2.42341,1.789977 5.39982,2.535502 8.38094,2.099246 4.58217,-0.671071 8.11199,-4.01221 9.23519,-8.205626 0.3852,-1.437614 0.48752,-2.976253 0.25227,-4.540419 -0.92174,-6.126856 -6.67769,-10.378734 -12.83072,-9.477569 -2.98081,0.436378 -5.60935,2.002497 -7.40124,4.409819 z"
       inkscape:connector-curvature="0"
       style="fill:#ffffff;stroke:#4d4d4d;stroke-width:0.53362751"
       inkscape:export-xdpi="64.279999"
       inkscape:export-ydpi="64.279999" />
    <path
       id="path6990"
       d="m 166.21431,78.301938 c -1.33641,4.987541 -6.50308,7.951874 -11.51717,6.608352 -5.01433,-1.343591 -8.00635,-6.49428 -6.67,-11.481586 1.33636,-4.987396 6.50317,-7.951845 11.51718,-6.608339 5.01448,1.343607 8.00633,6.494264 6.66999,11.481573 z"
       inkscape:connector-curvature="0"
       style="fill:#ffffff;stroke:#4d4d4d;stroke-width:0.29652274"
       inkscape:export-xdpi="64.279999"
       inkscape:export-ydpi="64.279999" />
    <g
       transform="translate(9.9054868,164.41492)"
       aria-label="=="
       style="font-style:normal;font-variant:normal;font-weight:bold;font-stretch:normal;font-size:14.4607029px;line-height:1.25;font-family:'MADE TOMMY';-inkscape-font-specification:'MADE TOMMY Bold';letter-spacing:0px;word-spacing:0px;fill:#ffdb4f;fill-opacity:1;stroke:#ffdb4f;stroke-width:0.42566961;stroke-miterlimit:4;stroke-dasharray:none;stroke-opacity:1"
       id="text6994"
       inkscape:export-xdpi="64.279999"
       inkscape:export-ydpi="64.279999">
      <path
         inkscape:connector-curvature="0"
         d="m 140.93101,-90.993444 v 1.807588 h 5.42277 v -1.807588 z m 0,4.887718 h 5.42277 v -1.793127 h -5.42277 z"
         style="font-style:normal;font-variant:normal;font-weight:bold;font-stretch:normal;font-family:'MADE TOMMY';-inkscape-font-specification:'MADE TOMMY Bold';letter-spacing:0px;fill:#ffdb4f;fill-opacity:1;stroke:#ffdb4f;stroke-width:0.42566961;stroke-miterlimit:4;stroke-dasharray:none;stroke-opacity:1"
         id="path7003" />
      <path
         inkscape:connector-curvature="0"
         d="m 148.07663,-90.993444 v 1.807588 h 5.42277 v -1.807588 z m 0,4.887718 h 5.42277 v -1.793127 h -5.42277 z"
         style="font-style:normal;font-variant:normal;font-weight:bold;font-stretch:normal;font-family:'MADE TOMMY';-inkscape-font-specification:'MADE TOMMY Bold';letter-spacing:0px;fill:#ffdb4f;fill-opacity:1;stroke:#ffdb4f;stroke-width:0.42566961;stroke-miterlimit:4;stroke-dasharray:none;stroke-opacity:1"
         id="path7005" />
    </g>
  </g>
</svg>
