<?xml version="1.0" encoding="UTF-8" standalone="no"?>
<!-- Created with Inkscape (http://www.inkscape.org/) -->

<svg
   xmlns:dc="http://purl.org/dc/elements/1.1/"
   xmlns:cc="http://creativecommons.org/ns#"
   xmlns:rdf="http://www.w3.org/1999/02/22-rdf-syntax-ns#"
   xmlns:svg="http://www.w3.org/2000/svg"
   xmlns="http://www.w3.org/2000/svg"
   xmlns:sodipodi="http://sodipodi.sourceforge.net/DTD/sodipodi-0.dtd"
   xmlns:inkscape="http://www.inkscape.org/namespaces/inkscape"
   width="197.55565mm"
   height="141.11102mm"
   viewBox="0 0 197.55565 141.11102"
   version="1.1"
   id="svg3512"
   inkscape:version="0.92.5 (0.92.5+69)"
   sodipodi:docname="drawing.svg">
  <defs
     id="defs3506" />
  <sodipodi:namedview
     id="base"
     pagecolor="#ffffff"
     bordercolor="#666666"
     borderopacity="1.0"
     inkscape:pageopacity="0.0"
     inkscape:pageshadow="2"
     inkscape:zoom="0.49497475"
     inkscape:cx="513.54523"
     inkscape:cy="153.78037"
     inkscape:document-units="mm"
     inkscape:current-layer="layer1"
     showgrid="false"
     fit-margin-top="0"
     fit-margin-left="0"
     fit-margin-right="0"
     fit-margin-bottom="0"
     inkscape:window-width="1280"
     inkscape:window-height="993"
     inkscape:window-x="1280"
     inkscape:window-y="384"
     inkscape:window-maximized="0" />
  <metadata
     id="metadata3509">
    <rdf:RDF>
      <cc:Work
         rdf:about="">
        <dc:format>image/svg+xml</dc:format>
        <dc:type
           rdf:resource="http://purl.org/dc/dcmitype/StillImage" />
        <dc:title></dc:title>
      </cc:Work>
    </rdf:RDF>
  </metadata>
  <g
     inkscape:label="Layer 1"
     inkscape:groupmode="layer"
     id="layer1"
     transform="translate(175.39116,30.06509)">
    <rect
       style="opacity:1;fill:none;fill-opacity:1;stroke:none;stroke-width:0.80562317;stroke-linecap:round;stroke-linejoin:round;stroke-miterlimit:4;stroke-dasharray:none;stroke-dashoffset:0;stroke-opacity:1"
       id="rect4057"
       width="197.55565"
       height="141.11102"
       x="-175.39116"
       y="-30.06509" />
    <circle
       r="49.787395"
       cy="40.490421"
       cx="-76.613335"
       id="circle4603"
       style="fill:none;fill-opacity:0.17254902;stroke:#74cbae;stroke-width:24.92948723;stroke-miterlimit:4;stroke-dasharray:none;stroke-opacity:0.17254902" />
    <circle
       r="38.34972"
       cy="40.490421"
       cx="-76.613335"
       id="circle4512"
       style="fill:none;fill-opacity:0.309739;stroke:#54c098;stroke-width:22.90250206;stroke-miterlimit:4;stroke-dasharray:none;stroke-opacity:0.42745104" />
    <circle
       r="28.319113"
       cy="40.490421"
       cx="-76.613335"
       id="circle4510"
       style="fill:#3ca27c;fill-opacity:0.63935601;stroke:#40a881;stroke-width:21.24093246;stroke-miterlimit:4;stroke-dasharray:none;stroke-opacity:0.79215698" />
    <g
       id="g4426"
       transform="translate(3.9739839,0.58191111)">
      <rect
         style="fill:#e4e4e4;fill-opacity:1;stroke:none;stroke-width:1.29964006;stroke-miterlimit:4;stroke-dasharray:none;stroke-opacity:1"
         id="rect4654"
         width="71.273148"
         height="9.5304098"
         x="-114.26583"
         y="-11.0943" />
      <rect
         style="fill:#ffffff;fill-opacity:1;stroke:none;stroke-width:0.93875772;stroke-miterlimit:4;stroke-dasharray:none;stroke-opacity:1"
         id="rect4775"
         width="71.273148"
         height="90.166405"
         x="-114.26583"
         y="-1.3671355" />
      <rect
         style="fill:none;fill-opacity:1;stroke:#333333;stroke-width:0.93875772;stroke-miterlimit:4;stroke-dasharray:none;stroke-opacity:1"
         id="rect4619"
         width="71.273148"
         height="99.893562"
         x="-114.26583"
         y="-11.0943"
         rx="0"
         ry="0" />
      <path
         style="fill:none;stroke:#333333;stroke-width:0.51631421;stroke-linecap:butt;stroke-linejoin:miter;stroke-miterlimit:4;stroke-dasharray:none;stroke-opacity:1"
         d="m -114.26583,-1.8359983 h 71.273114"
         id="path4621"
         inkscape:connector-curvature="0" />
      <rect
         style="fill:#ffffff;fill-opacity:1;stroke:#4d4d4d;stroke-width:0.24357872;stroke-miterlimit:4;stroke-dasharray:none;stroke-opacity:1"
         id="rect4623"
         width="43.641777"
         height="4.5627041"
         x="-94.337471"
         y="-8.6104517" />
      <path
         style="fill:none;stroke:#333333;stroke-width:0.44820821px;stroke-linecap:butt;stroke-linejoin:miter;stroke-opacity:1"
         d="m -48.780386,-7.5275163 h 2.85172"
         id="path4625"
         inkscape:connector-curvature="0" />
      <path
         style="fill:none;stroke:#333333;stroke-width:0.44820821px;stroke-linecap:butt;stroke-linejoin:miter;stroke-opacity:1"
         d="m -48.780386,-6.7094163 h 2.85172"
         id="path4627"
         inkscape:connector-curvature="0" />
      <path
         style="fill:none;stroke:#333333;stroke-width:0.44820821px;stroke-linecap:butt;stroke-linejoin:miter;stroke-opacity:1"
         d="m -48.780386,-5.8997463 h 2.85172"
         id="path4629"
         inkscape:connector-curvature="0" />
      <path
         style="fill:none;stroke:#333333;stroke-width:0.44820821px;stroke-linecap:butt;stroke-linejoin:miter;stroke-opacity:1"
         d="m -48.780386,-5.1306823 h 2.85172"
         id="path4631"
         inkscape:connector-curvature="0" />
      <path
         style="fill:none;fill-opacity:0.586411;stroke:#333333;stroke-width:0.42489326;stroke-miterlimit:4;stroke-dasharray:none;stroke-opacity:1"
         id="path4633"
         sodipodi:type="arc"
         sodipodi:cx="-99.075935"
         sodipodi:cy="-6.1901183"
         sodipodi:rx="1.2751129"
         sodipodi:ry="1.2751129"
         sodipodi:start="0.26179939"
         sodipodi:end="5.4977871"
         sodipodi:open="true"
         sodipodi:arc-type="arc"
         d="m -97.844271,-5.8600948 a 1.2751129,1.2751129 0 0 1 -1.231664,0.9450894 1.2751129,1.2751129 0 0 1 -1.231665,-0.9450894 1.2751129,1.2751129 0 0 1 0.594108,-1.4343036 1.2751129,1.2751129 0 0 1 1.539198,0.2026391" />
      <path
         style="fill:#333333;fill-opacity:1;stroke:#333333;stroke-width:0.31567082px;stroke-linecap:butt;stroke-linejoin:miter;stroke-opacity:1"
         d="m -98.736282,-6.6817553 0.90212,-0.922406 0.10143,0.999268 z"
         id="path4635"
         sodipodi:nodetypes="cccc"
         inkscape:connector-curvature="0" />
      <path
         style="fill:none;stroke:#333333;stroke-width:0.3920399px;stroke-linecap:butt;stroke-linejoin:miter;stroke-opacity:1"
         d="m -110.79776,-6.3011283 h 3.03476"
         id="path4637"
         inkscape:connector-curvature="0" />
      <path
         style="fill:none;stroke:#333333;stroke-width:0.3920399px;stroke-linecap:butt;stroke-linejoin:miter;stroke-opacity:1"
         d="m -109.56385,-7.6228593 -1.23391,1.321731 1.25009,1.26158"
         id="path4641"
         sodipodi:nodetypes="ccc"
         inkscape:connector-curvature="0" />
      <path
         d="m -52.917706,-6.5872003 c -0.0147,-0.04463 -0.054,-0.07637 -0.10092,-0.0806 l -0.6365,-0.05777 -0.25168,-0.58911 c -0.0186,-0.04318 -0.0608,-0.07112 -0.10778,-0.07112 -0.047,0 -0.0892,0.02792 -0.10781,0.07126 l -0.25169,0.589016 -0.63661,0.05776 c -0.0468,0.0044 -0.0863,0.03592 -0.10081,0.08059 -0.0147,0.04463 0,0.09365 0.0343,0.124514 l 0.48111,0.421953 -0.14188,0.624947 c -0.0105,0.04594 0.008,0.09345 0.0456,0.121018 0.0203,0.01481 0.0445,0.02233 0.0686,0.02233 0.0206,0 0.0415,-0.0058 0.0601,-0.01668 l 0.54904,-0.328156 0.54886,0.328156 c 0.0401,0.02416 0.0908,0.02193 0.12884,-0.0058 0.0382,-0.02764 0.0559,-0.07516 0.0456,-0.121012 l -0.1419,-0.624949 0.48116,-0.421867 c 0.0354,-0.03099 0.0489,-0.07986 0.0344,-0.1246 z m 0,0"
         id="path4643"
         style="fill:#ffc107;stroke:#ffc107;stroke-width:0.23914473;stroke-miterlimit:4;stroke-dasharray:none;stroke-opacity:1"
         inkscape:connector-curvature="0" />
      <path
         style="fill:none;stroke:#b6b6b6;stroke-width:0.3920399px;stroke-linecap:butt;stroke-linejoin:miter;stroke-opacity:1"
         d="m -102.78261,-6.3570683 h -3.03475"
         id="path4666"
         inkscape:connector-curvature="0" />
      <path
         style="fill:none;stroke:#b6b6b6;stroke-width:0.3920399px;stroke-linecap:butt;stroke-linejoin:miter;stroke-opacity:1"
         d="m -104.01651,-5.0353383 1.2339,-1.32173 -1.25007,-1.261581"
         id="path4668"
         sodipodi:nodetypes="ccc"
         inkscape:connector-curvature="0" />
      <rect
         style="fill:#ececec;stroke:#333333;stroke-width:1.19281697;stroke-miterlimit:4;stroke-dasharray:none;stroke-opacity:1"
         id="rect5060"
         width="61.952415"
         height="24.435165"
         x="-109.60548"
         y="22.186354" />
      <rect
         style="fill:#147d55;fill-opacity:1;stroke:#333333;stroke-width:1.19281697;stroke-miterlimit:4;stroke-dasharray:none;stroke-opacity:1"
         id="rect5058"
         width="61.992455"
         height="13.3892"
         x="-109.62551"
         y="3.3874955" />
      <path
         style="fill:#0f5c3d;fill-opacity:1;stroke:#333333;stroke-width:0.95425236;stroke-linecap:butt;stroke-linejoin:miter;stroke-miterlimit:4;stroke-dasharray:none;stroke-opacity:1"
         d="M -88.639162,3.5726797 -75.245202,16.54771 H -109.63166 V 3.5726797 Z"
         id="path5062"
         inkscape:connector-curvature="0" />
      <path
         d="m -95.231082,9.0920757 c -0.0413,-0.127943 -0.15497,-0.218928 -0.28922,-0.231034 l -1.82457,-0.165591 -0.7215,-1.688684 c -0.0532,-0.123779 -0.1743,-0.203861 -0.30898,-0.203861 -0.13456,0 -0.25575,0.08004 -0.30895,0.204269 l -0.72144,1.688413 -1.824878,0.165575 c -0.13417,0.01247 -0.24734,0.10297 -0.28894,0.231021 -0.0417,0.127935 -0.003,0.268437 0.0982,0.356919 l 1.37916,1.2095283 -0.40668,1.791411 c -0.0297,0.131678 0.0212,0.267886 0.13061,0.3469 0.0589,0.04244 0.12751,0.06401 0.1968,0.06401 0.0597,0 0.11901,-0.01662 0.172238,-0.04781 l 1.57384,-0.94066 1.57327,0.94066 c 0.11509,0.06924 0.2603,0.06286 0.36932,-0.01662 0.10945,-0.07923 0.16039,-0.215443 0.13064,-0.346877 l -0.40671,-1.791418 1.37919,-1.2092843 c 0.10155,-0.08883 0.14021,-0.228905 0.0985,-0.357164 z m 0,0"
         id="path5064"
         style="fill:#ffffff;fill-opacity:1;stroke:#333333;stroke-width:0.68551141;stroke-miterlimit:4;stroke-dasharray:none;stroke-opacity:1"
         inkscape:connector-curvature="0" />
      <path
         style="fill:none;stroke:#cccccc;stroke-width:6.62246895;stroke-linecap:butt;stroke-linejoin:miter;stroke-miterlimit:4;stroke-dasharray:none;stroke-opacity:1"
         d="m -83.571722,55.6012 h 36.095176"
         id="path5068"
         inkscape:connector-curvature="0" />
      <path
         style="fill:none;stroke:#cccccc;stroke-width:6.62246895;stroke-linecap:butt;stroke-linejoin:miter;stroke-miterlimit:4;stroke-dasharray:none;stroke-opacity:1"
         d="m -83.571722,72.256414 h 36.095176"
         id="path5320"
         inkscape:connector-curvature="0" />
      <path
         style="fill:#808080;fill-opacity:1;stroke:none;stroke-width:0.23132563px;stroke-linecap:butt;stroke-linejoin:miter;stroke-opacity:1"
         d="m -54.874016,70.266758 2.59035,3.982918 2.59263,-3.986519 z"
         id="path5076"
         inkscape:connector-curvature="0" />
      <rect
         style="fill:#126e4b;fill-opacity:1;stroke:#333333;stroke-width:0.8881197;stroke-miterlimit:4;stroke-dasharray:none;stroke-opacity:1"
         id="rect5164"
         width="19.351406"
         height="4.1795387"
         x="-67.272041"
         y="78.776001" />
      <path
         style="fill:#ececec;stroke-width:0.33422911"
         d="m -101.72516,68.415185 -2.64274,1.441519 c -0.15508,0.08456 -0.29446,0.188505 -0.42413,0.301807 1.54078,1.299141 3.52977,2.082901 5.702888,2.082901 2.15711,0 4.13339,-0.772065 5.66984,-2.05349 -0.14173,-0.11965 -0.29546,-0.227274 -0.46595,-0.312166 l -2.82987,-1.414782 c -0.36565,-0.182822 -0.59662,-0.556485 -0.59662,-0.965245 v -1.1103 c 0.0796,-0.09057 0.17049,-0.206886 0.26775,-0.344255 0.38568,-0.544788 0.67747,-1.144056 0.87968,-1.772732 0.36297,-0.111967 0.63035,-0.447202 0.63035,-0.845595 V 62.23768 c 0,-0.260697 -0.116,-0.493654 -0.29614,-0.656757 V 59.86768 c 0,0 0.35196,-2.666127 -3.25871,-2.666127 -3.610628,0 -3.258698,2.666127 -3.258698,2.666127 v 1.713243 c -0.18048,0.163103 -0.29614,0.39606 -0.29614,0.656757 v 1.185167 c 0,0.312166 0.16411,0.586904 0.40979,0.745659 0.29611,1.289108 1.07151,2.216923 1.07151,2.216923 v 1.082897 c -2.2e-4,0.394385 -0.21624,0.75769 -0.56281,0.946859 z"
         id="path5236"
         inkscape:connector-curvature="0" />
      <path
         style="fill:#666666;stroke:#333333;stroke-width:0.95139062;stroke-miterlimit:4;stroke-dasharray:none"
         d="m -98.937732,54.528746 c -4.890728,-0.08356 -8.923498,3.813524 -9.007058,8.704259 -0.0475,2.773077 1.18851,5.265405 3.15643,6.922834 0.12868,-0.112303 0.26671,-0.215241 0.42012,-0.298797 l 2.64275,-1.441524 c 0.34656,-0.189169 0.56249,-0.552474 0.56249,-0.947526 v -1.082897 c 0,0 -0.77574,-0.927812 -1.07154,-2.216922 -0.24531,-0.158758 -0.40973,-0.43316 -0.40973,-0.74566 v -1.185169 c 0,-0.260694 0.11594,-0.493652 0.29608,-0.656754 v -1.713246 c 0,0 -0.35193,-2.666124 3.258708,-2.666124 3.61066,0 3.2587,2.666124 3.2587,2.666124 v 1.713246 c 0.18049,0.163102 0.29614,0.39606 0.29614,0.656754 v 1.185169 c 0,0.398397 -0.26738,0.733629 -0.63034,0.84559 -0.20222,0.628684 -0.494,1.227947 -0.87969,1.772737 -0.0973,0.137367 -0.18816,0.25368 -0.26772,0.344255 v 1.1103 c 0,0.40876 0.23095,0.782757 0.59659,0.965245 l 2.82993,1.414783 c 0.16976,0.08489 0.32317,0.19218 0.46454,0.311496 1.90844,-1.591585 3.14141,-3.971276 3.18719,-6.651103 0.0842,-4.890739 -3.81251,-8.923512 -8.70359,-9.00707 z"
         id="path5238"
         inkscape:connector-curvature="0" />
      <path
         style="fill:none;stroke:#cccccc;stroke-width:6.62246895;stroke-linecap:butt;stroke-linejoin:miter;stroke-miterlimit:4;stroke-dasharray:none;stroke-opacity:1"
         d="m -83.571722,63.928801 h 36.095176"
         id="path5318"
         inkscape:connector-curvature="0" />
      <circle
         style="fill:#e6e6e6;fill-opacity:1;stroke:none;stroke-width:4.22558403;stroke-miterlimit:4;stroke-dasharray:none;stroke-opacity:1"
         id="path5550"
         cx="-70.143456"
         cy="34.403946"
         r="9.757925" />
      <path
         d="m -63.952826,34.100592 c -0.0538,-0.09405 -0.13171,-0.171911 -0.22569,-0.22569 l -8.507946,-4.861692 c -0.29064,-0.167804 -0.66232,-0.06822 -0.8301,0.222422 -0.0539,0.09328 -0.082,0.199178 -0.0815,0.306895 v 9.72338 c 2.2e-4,0.216881 0.11602,0.417195 0.30387,0.525671 0.18801,0.108553 0.41969,0.108553 0.60771,0 l 8.507946,-4.861689 c 0.29134,-0.166664 0.39238,-0.537901 0.22569,-0.829297 z m -8.429766,4.117623 v -7.627993 l 6.675086,3.813995 z"
         id="path5328"
         style="fill:#0c4b33;fill-opacity:1;stroke:#0c4b33;stroke-width:1.22395492;stroke-miterlimit:4;stroke-dasharray:none;stroke-opacity:1"
         inkscape:connector-curvature="0" />
      <rect
         style="fill:#cccccc;fill-opacity:1;stroke:#333333;stroke-width:0.80777317;stroke-miterlimit:4;stroke-dasharray:none;stroke-opacity:1"
         id="rect5522"
         width="19.445005"
         height="23.802614"
         x="-109.60885"
         y="22.500692" />
      <path
         style="fill:none;stroke:#666666;stroke-width:2.62776375;stroke-linecap:butt;stroke-linejoin:miter;stroke-miterlimit:4;stroke-dasharray:none;stroke-opacity:1"
         d="m -107.30921,26.328051 h 14.845738"
         id="path5524"
         inkscape:connector-curvature="0" />
      <path
         style="fill:none;stroke:#ececec;stroke-width:2.62776375;stroke-linecap:butt;stroke-linejoin:miter;stroke-miterlimit:4;stroke-dasharray:none;stroke-opacity:1"
         d="m -107.30921,30.365022 h 14.845738"
         id="path5526"
         inkscape:connector-curvature="0" />
      <path
         style="fill:none;stroke:#ececec;stroke-width:2.62776375;stroke-linecap:butt;stroke-linejoin:miter;stroke-miterlimit:4;stroke-dasharray:none;stroke-opacity:1"
         d="m -107.30921,34.401997 h 14.845738"
         id="path5528"
         inkscape:connector-curvature="0" />
      <path
         style="fill:none;stroke:#ececec;stroke-width:2.62776375;stroke-linecap:butt;stroke-linejoin:miter;stroke-miterlimit:4;stroke-dasharray:none;stroke-opacity:1"
         d="m -107.30921,38.438975 h 14.845738"
         id="path5530"
         inkscape:connector-curvature="0" />
      <path
         style="fill:none;stroke:#ececec;stroke-width:2.62776375;stroke-linecap:butt;stroke-linejoin:miter;stroke-miterlimit:4;stroke-dasharray:none;stroke-opacity:1"
         d="m -107.30921,42.475953 h 14.845738"
         id="path5532"
         inkscape:connector-curvature="0" />
      <path
         style="fill:none;stroke:#000000;stroke-width:3.960145;stroke-linecap:butt;stroke-linejoin:miter;stroke-miterlimit:4;stroke-dasharray:none;stroke-opacity:1"
         d="m -116.67126,-4.891251 v 94.291878 h 70.957543"
         id="path5514"
         inkscape:connector-curvature="0" />
    </g>
  </g>
</svg>
