<?xml version="1.0" encoding="UTF-8" standalone="no"?>
<!-- Created with Inkscape (http://www.inkscape.org/) -->

<svg
   xmlns:dc="http://purl.org/dc/elements/1.1/"
   xmlns:cc="http://creativecommons.org/ns#"
   xmlns:rdf="http://www.w3.org/1999/02/22-rdf-syntax-ns#"
   xmlns:svg="http://www.w3.org/2000/svg"
   xmlns="http://www.w3.org/2000/svg"
   xmlns:xlink="http://www.w3.org/1999/xlink"
   xmlns:sodipodi="http://sodipodi.sourceforge.net/DTD/sodipodi-0.dtd"
   xmlns:inkscape="http://www.inkscape.org/namespaces/inkscape"
   width="746.66669"
   height="533.33337"
   viewBox="0 0 700.00001 500.00001"
   id="svg2"
   version="1.1"
   inkscape:version="0.92.3 (2405546, 2018-03-11)"
   sodipodi:docname="featured_icon.svg">
  <defs
     id="defs4">
    <inkscape:perspective
       id="perspective6677"
       inkscape:persp3d-origin="105 : 99 : 1"
       inkscape:vp_z="210 : 148.5 : 1"
       inkscape:vp_y="0 : 1000 : 0"
       inkscape:vp_x="0 : 148.5 : 1"
       sodipodi:type="inkscape:persp3d" />
    <linearGradient
       id="linearGradient5390"
       inkscape:collect="always">
      <stop
         id="stop5386"
         offset="0"
         style="stop-color:#4c98ff;stop-opacity:1" />
      <stop
         id="stop5388"
         offset="1"
         style="stop-color:#14559b;stop-opacity:1" />
    </linearGradient>
    <clipPath
       id="clipPath5452"
       clipPathUnits="userSpaceOnUse">
      <rect
         transform="rotate(30)"
         y="-45.135017"
         x="-3.3352184"
         height="211.66667"
         width="476.25"
         id="rect5454"
         style="opacity:1;fill:url(#linearGradient5456);fill-opacity:1;stroke:none;stroke-width:1.9604528;stroke-linecap:round;stroke-linejoin:round;stroke-miterlimit:39.29999924;stroke-dasharray:none;stroke-opacity:1" />
    </clipPath>
    <linearGradient
       y2="166.9762"
       x2="236.6131"
       y1="-43.17857"
       x1="236.6131"
       gradientTransform="matrix(1.0041059,0,0,1.0092858,0.01369393,-1.5463813)"
       gradientUnits="userSpaceOnUse"
       id="linearGradient5456"
       xlink:href="#linearGradient5390"
       inkscape:collect="always" />
    <clipPath
       id="clipPath5458"
       clipPathUnits="userSpaceOnUse">
      <rect
         transform="rotate(30)"
         y="-45.135017"
         x="-3.3352184"
         height="211.66667"
         width="476.25"
         id="rect5460"
         style="opacity:1;fill:url(#linearGradient5456);fill-opacity:1;stroke:none;stroke-width:1.9604528;stroke-linecap:round;stroke-linejoin:round;stroke-miterlimit:39.29999924;stroke-dasharray:none;stroke-opacity:1" />
    </clipPath>
    <clipPath
       id="clipPath5464"
       clipPathUnits="userSpaceOnUse">
      <rect
         transform="rotate(30)"
         y="-45.135017"
         x="-3.3352184"
         height="211.66667"
         width="476.25"
         id="rect5466"
         style="opacity:1;fill:url(#linearGradient5456);fill-opacity:1;stroke:none;stroke-width:1.9604528;stroke-linecap:round;stroke-linejoin:round;stroke-miterlimit:39.29999924;stroke-dasharray:none;stroke-opacity:1" />
    </clipPath>
    <clipPath
       id="clipPath5470"
       clipPathUnits="userSpaceOnUse">
      <rect
         transform="rotate(30)"
         y="-45.135017"
         x="-3.3352184"
         height="211.66667"
         width="476.25"
         id="rect5472"
         style="opacity:1;fill:url(#linearGradient5456);fill-opacity:1;stroke:none;stroke-width:1.9604528;stroke-linecap:round;stroke-linejoin:round;stroke-miterlimit:39.29999924;stroke-dasharray:none;stroke-opacity:1" />
    </clipPath>
    <clipPath
       id="clipPath5476"
       clipPathUnits="userSpaceOnUse">
      <rect
         transform="rotate(30)"
         y="-45.135017"
         x="-3.3352184"
         height="211.66667"
         width="476.25"
         id="rect5478"
         style="opacity:1;fill:url(#linearGradient5456);fill-opacity:1;stroke:none;stroke-width:1.9604528;stroke-linecap:round;stroke-linejoin:round;stroke-miterlimit:39.29999924;stroke-dasharray:none;stroke-opacity:1" />
    </clipPath>
    <clipPath
       id="clipPath5482"
       clipPathUnits="userSpaceOnUse">
      <rect
         transform="rotate(30)"
         y="-45.135017"
         x="-3.3352184"
         height="211.66667"
         width="476.25"
         id="rect5484"
         style="opacity:1;fill:url(#linearGradient5456);fill-opacity:1;stroke:none;stroke-width:1.9604528;stroke-linecap:round;stroke-linejoin:round;stroke-miterlimit:39.29999924;stroke-dasharray:none;stroke-opacity:1" />
    </clipPath>
    <linearGradient
       id="linearGradient2795">
      <stop
         style="stop-color:#b8b8b8;stop-opacity:0.49803922;"
         offset="0"
         id="stop2797" />
      <stop
         style="stop-color:#7f7f7f;stop-opacity:0;"
         offset="1"
         id="stop2799" />
    </linearGradient>
    <linearGradient
       id="linearGradient2787">
      <stop
         style="stop-color:#7f7f7f;stop-opacity:0.5;"
         offset="0"
         id="stop2789" />
      <stop
         style="stop-color:#7f7f7f;stop-opacity:0;"
         offset="1"
         id="stop2791" />
    </linearGradient>
    <linearGradient
       id="linearGradient3676">
      <stop
         style="stop-color:#b2b2b2;stop-opacity:0.5;"
         offset="0"
         id="stop3678" />
      <stop
         style="stop-color:#b3b3b3;stop-opacity:0;"
         offset="1"
         id="stop3680" />
    </linearGradient>
    <linearGradient
       id="linearGradient3236">
      <stop
         style="stop-color:#f4f4f4;stop-opacity:1"
         offset="0"
         id="stop3244" />
      <stop
         style="stop-color:white;stop-opacity:1"
         offset="1"
         id="stop3240" />
    </linearGradient>
    <linearGradient
       id="linearGradient4671">
      <stop
         style="stop-color:#ffd43b;stop-opacity:1;"
         offset="0"
         id="stop4673" />
      <stop
         style="stop-color:#ffe873;stop-opacity:1"
         offset="1"
         id="stop4675" />
    </linearGradient>
    <linearGradient
       id="linearGradient4689">
      <stop
         style="stop-color:#5a9fd4;stop-opacity:1;"
         offset="0"
         id="stop4691" />
      <stop
         style="stop-color:#306998;stop-opacity:1;"
         offset="1"
         id="stop4693" />
    </linearGradient>
    <linearGradient
       x1="224.23996"
       y1="144.75717"
       x2="-65.308502"
       y2="144.75717"
       id="linearGradient2987"
       xlink:href="#linearGradient4671"
       gradientUnits="userSpaceOnUse"
       gradientTransform="translate(100.2702,99.61116)" />
    <linearGradient
       x1="172.94208"
       y1="77.475983"
       x2="26.670298"
       y2="76.313133"
       id="linearGradient2990"
       xlink:href="#linearGradient4689"
       gradientUnits="userSpaceOnUse"
       gradientTransform="translate(100.2702,99.61116)" />
    <linearGradient
       inkscape:collect="always"
       xlink:href="#linearGradient4671"
       id="linearGradient2255"
       gradientUnits="userSpaceOnUse"
       gradientTransform="matrix(0.562541,0,0,0.567972,-11.5974,-7.60954)"
       x1="224.23996"
       y1="144.75717"
       x2="-65.308502"
       y2="144.75717" />
    <linearGradient
       inkscape:collect="always"
       xlink:href="#linearGradient4689"
       id="linearGradient2258"
       gradientUnits="userSpaceOnUse"
       gradientTransform="matrix(0.562541,0,0,0.567972,-11.5974,-7.60954)"
       x1="172.94208"
       y1="76.176224"
       x2="26.670298"
       y2="76.313133" />
    <radialGradient
       inkscape:collect="always"
       xlink:href="#linearGradient2795"
       id="radialGradient2801"
       cx="61.518883"
       cy="132.28575"
       fx="61.518883"
       fy="132.28575"
       r="29.036913"
       gradientTransform="matrix(1,0,0,0.177966,0,108.7434)"
       gradientUnits="userSpaceOnUse" />
    <clipPath
       clipPathUnits="userSpaceOnUse"
       id="clipPath7776">
      <circle
         style="opacity:1;fill:#333333;fill-opacity:1;stroke:none;stroke-width:2;stroke-linecap:round;stroke-linejoin:round;stroke-miterlimit:1;stroke-dasharray:none;stroke-dashoffset:0;stroke-opacity:1"
         id="circle7778"
         cx="353.54645"
         cy="-126.91056"
         r="145.31044"
         transform="rotate(60)" />
    </clipPath>
    <clipPath
       clipPathUnits="userSpaceOnUse"
       id="clipPath7780">
      <circle
         style="opacity:1;fill:#333333;fill-opacity:1;stroke:none;stroke-width:2;stroke-linecap:round;stroke-linejoin:round;stroke-miterlimit:1;stroke-dasharray:none;stroke-dashoffset:0;stroke-opacity:1"
         id="circle7782"
         cx="-66.865463"
         cy="369.6355"
         r="145.31044"
         transform="rotate(-60)" />
    </clipPath>
    <linearGradient
       id="linearGradient5468"
       inkscape:collect="always">
      <stop
         id="stop5470"
         offset="0"
         style="stop-color:#177753;stop-opacity:1" />
      <stop
         id="stop5472"
         offset="1"
         style="stop-color:#092e20;stop-opacity:1" />
    </linearGradient>
    <clipPath
       clipPathUnits="userSpaceOnUse"
       id="clipPath5135">
      <rect
         style="opacity:1;fill:#949494;fill-opacity:1;stroke:none;stroke-width:4.16200018;stroke-linecap:round;stroke-linejoin:round;stroke-miterlimit:4;stroke-dasharray:none;stroke-opacity:1"
         id="rect5137"
         width="504.56284"
         height="221.06453"
         x="937.71857"
         y="-36.741493" />
    </clipPath>
    <clipPath
       clipPathUnits="userSpaceOnUse"
       id="clipPath5578">
      <rect
         style="opacity:1;fill:url(#radialGradient5582);fill-opacity:1;stroke:none;stroke-width:4.16200018;stroke-linecap:round;stroke-linejoin:round;stroke-miterlimit:4;stroke-dasharray:none;stroke-opacity:1"
         id="rect5580"
         width="1200"
         height="630"
         x="-2061.3474"
         y="867.06122"
         inkscape:export-filename="C:\Users\f9539184\Desktop\Vinicius\dev\jekyll\mavinstecnologia.github.io\assets\posts\desenvolvimento-web-com-python-e-django-introducao\thumb-bg.png"
         inkscape:export-xdpi="90"
         inkscape:export-ydpi="90"
         transform="rotate(-45)" />
    </clipPath>
    <radialGradient
       inkscape:collect="always"
       xlink:href="#linearGradient5468"
       id="radialGradient5582"
       gradientUnits="userSpaceOnUse"
       gradientTransform="matrix(0,-0.71428577,1.3154762,-2.0960848e-5,-2221.3681,1360.1303)"
       cx="262.85715"
       cy="617.87262"
       fx="262.85715"
       fy="617.87262"
       r="600" />
    <clipPath
       clipPathUnits="userSpaceOnUse"
       id="clipPath5584">
      <rect
         style="opacity:1;fill:url(#radialGradient5588);fill-opacity:1;stroke:none;stroke-width:4.16200018;stroke-linecap:round;stroke-linejoin:round;stroke-miterlimit:4;stroke-dasharray:none;stroke-opacity:1"
         id="rect5586"
         width="1200"
         height="630"
         x="-2061.3474"
         y="867.06122"
         inkscape:export-filename="C:\Users\f9539184\Desktop\Vinicius\dev\jekyll\mavinstecnologia.github.io\assets\posts\desenvolvimento-web-com-python-e-django-introducao\thumb-bg.png"
         inkscape:export-xdpi="90"
         inkscape:export-ydpi="90"
         transform="rotate(-45)" />
    </clipPath>
    <radialGradient
       inkscape:collect="always"
       xlink:href="#linearGradient5468"
       id="radialGradient5588"
       gradientUnits="userSpaceOnUse"
       gradientTransform="matrix(0,-0.71428577,1.3154762,-2.0960848e-5,-2221.3681,1360.1303)"
       cx="262.85715"
       cy="617.87262"
       fx="262.85715"
       fy="617.87262"
       r="600" />
    <clipPath
       clipPathUnits="userSpaceOnUse"
       id="clipPath5590">
      <rect
         style="opacity:1;fill:url(#radialGradient5594);fill-opacity:1;stroke:none;stroke-width:4.16200018;stroke-linecap:round;stroke-linejoin:round;stroke-miterlimit:4;stroke-dasharray:none;stroke-opacity:1"
         id="rect5592"
         width="1200"
         height="630"
         x="-2061.3474"
         y="867.06122"
         inkscape:export-filename="C:\Users\f9539184\Desktop\Vinicius\dev\jekyll\mavinstecnologia.github.io\assets\posts\desenvolvimento-web-com-python-e-django-introducao\thumb-bg.png"
         inkscape:export-xdpi="90"
         inkscape:export-ydpi="90"
         transform="rotate(-45)" />
    </clipPath>
    <radialGradient
       inkscape:collect="always"
       xlink:href="#linearGradient5468"
       id="radialGradient5594"
       gradientUnits="userSpaceOnUse"
       gradientTransform="matrix(0,-0.71428577,1.3154762,-2.0960848e-5,-2221.3681,1360.1303)"
       cx="262.85715"
       cy="617.87262"
       fx="262.85715"
       fy="617.87262"
       r="600" />
    <clipPath
       clipPathUnits="userSpaceOnUse"
       id="clipPath5596">
      <rect
         style="opacity:1;fill:url(#radialGradient5600);fill-opacity:1;stroke:none;stroke-width:4.16200018;stroke-linecap:round;stroke-linejoin:round;stroke-miterlimit:4;stroke-dasharray:none;stroke-opacity:1"
         id="rect5598"
         width="1200"
         height="630"
         x="-2061.3474"
         y="867.06122"
         inkscape:export-filename="C:\Users\f9539184\Desktop\Vinicius\dev\jekyll\mavinstecnologia.github.io\assets\posts\desenvolvimento-web-com-python-e-django-introducao\thumb-bg.png"
         inkscape:export-xdpi="90"
         inkscape:export-ydpi="90"
         transform="rotate(-45)" />
    </clipPath>
    <radialGradient
       inkscape:collect="always"
       xlink:href="#linearGradient5468"
       id="radialGradient5600"
       gradientUnits="userSpaceOnUse"
       gradientTransform="matrix(0,-0.71428577,1.3154762,-2.0960848e-5,-2221.3681,1360.1303)"
       cx="262.85715"
       cy="617.87262"
       fx="262.85715"
       fy="617.87262"
       r="600" />
    <clipPath
       clipPathUnits="userSpaceOnUse"
       id="clipPath5602">
      <rect
         style="opacity:1;fill:url(#radialGradient5606);fill-opacity:1;stroke:none;stroke-width:4.16200018;stroke-linecap:round;stroke-linejoin:round;stroke-miterlimit:4;stroke-dasharray:none;stroke-opacity:1"
         id="rect5604"
         width="1200"
         height="630"
         x="-2061.3474"
         y="867.06122"
         inkscape:export-filename="C:\Users\f9539184\Desktop\Vinicius\dev\jekyll\mavinstecnologia.github.io\assets\posts\desenvolvimento-web-com-python-e-django-introducao\thumb-bg.png"
         inkscape:export-xdpi="90"
         inkscape:export-ydpi="90"
         transform="rotate(-45)" />
    </clipPath>
    <radialGradient
       inkscape:collect="always"
       xlink:href="#linearGradient5468"
       id="radialGradient5606"
       gradientUnits="userSpaceOnUse"
       gradientTransform="matrix(0,-0.71428577,1.3154762,-2.0960848e-5,-2221.3681,1360.1303)"
       cx="262.85715"
       cy="617.87262"
       fx="262.85715"
       fy="617.87262"
       r="600" />
    <clipPath
       clipPathUnits="userSpaceOnUse"
       id="clipPath5608">
      <rect
         style="opacity:1;fill:url(#radialGradient5612);fill-opacity:1;stroke:none;stroke-width:4.16200018;stroke-linecap:round;stroke-linejoin:round;stroke-miterlimit:4;stroke-dasharray:none;stroke-opacity:1"
         id="rect5610"
         width="1200"
         height="630"
         x="-2061.3474"
         y="867.06122"
         inkscape:export-filename="C:\Users\f9539184\Desktop\Vinicius\dev\jekyll\mavinstecnologia.github.io\assets\posts\desenvolvimento-web-com-python-e-django-introducao\thumb-bg.png"
         inkscape:export-xdpi="90"
         inkscape:export-ydpi="90"
         transform="rotate(-45)" />
    </clipPath>
    <radialGradient
       inkscape:collect="always"
       xlink:href="#linearGradient5468"
       id="radialGradient5612"
       gradientUnits="userSpaceOnUse"
       gradientTransform="matrix(0,-0.71428577,1.3154762,-2.0960848e-5,-2221.3681,1360.1303)"
       cx="262.85715"
       cy="617.87262"
       fx="262.85715"
       fy="617.87262"
       r="600" />
  </defs>
  <sodipodi:namedview
     id="base"
     pagecolor="#ffffff"
     bordercolor="#666666"
     borderopacity="1.0"
     inkscape:pageopacity="0.0"
     inkscape:pageshadow="2"
     inkscape:zoom="0.5"
     inkscape:cx="-86.367326"
     inkscape:cy="98.303206"
     inkscape:document-units="px"
     inkscape:current-layer="layer1"
     showgrid="false"
     inkscape:snap-bbox="true"
     inkscape:bbox-paths="true"
     inkscape:bbox-nodes="true"
     inkscape:snap-bbox-edge-midpoints="true"
     inkscape:snap-bbox-midpoints="true"
     inkscape:object-paths="true"
     inkscape:object-nodes="true"
     inkscape:snap-intersection-paths="true"
     inkscape:snap-smooth-nodes="true"
     inkscape:snap-global="false"
     fit-margin-top="0"
     fit-margin-left="0"
     fit-margin-right="0"
     fit-margin-bottom="0"
     inkscape:window-width="1920"
     inkscape:window-height="1017"
     inkscape:window-x="-4"
     inkscape:window-y="-4"
     inkscape:window-maximized="1"
     units="px" />
  <metadata
     id="metadata7">
    <rdf:RDF>
      <cc:Work
         rdf:about="">
        <dc:format>image/svg+xml</dc:format>
        <dc:type
           rdf:resource="http://purl.org/dc/dcmitype/StillImage" />
        <dc:title />
      </cc:Work>
    </rdf:RDF>
  </metadata>
  <g
     inkscape:groupmode="layer"
     id="layer2"
     inkscape:label="bg"
     transform="translate(-60.811192,81.208939)" />
  <g
     inkscape:label="Camada 1"
     inkscape:groupmode="layer"
     id="layer1"
     transform="translate(-60.811192,81.208939)">
    <text
       id="text7817"
       y="260.21118"
       x="-884.11536"
       style="font-style:normal;font-weight:normal;font-size:40px;line-height:125%;font-family:sans-serif;letter-spacing:0px;word-spacing:0px;fill:#000000;fill-opacity:1;stroke:none;stroke-width:1px;stroke-linecap:butt;stroke-linejoin:miter;stroke-opacity:1"
       xml:space="preserve"><tspan
         y="295.60181"
         x="-884.11536"
         id="tspan7819"
         sodipodi:role="line" /></text>
    <circle
       r="0"
       cy="-386.33466"
       cx="-822.07343"
       id="path6142-0"
       style="opacity:1;fill:#e06f69;fill-opacity:1;stroke:none;stroke-width:1.60000002;stroke-miterlimit:4;stroke-dasharray:none;stroke-opacity:1" />
    <circle
       r="0"
       cy="-386.33466"
       cx="-802.56165"
       id="path6142-4-5"
       style="opacity:1;fill:#dbba35;fill-opacity:1;stroke:none;stroke-width:1.60000002;stroke-miterlimit:4;stroke-dasharray:none;stroke-opacity:1" />
    <circle
       r="0"
       cy="-386.33466"
       cx="-783.04999"
       id="path6142-6-4"
       style="opacity:1;fill:#38d787;fill-opacity:1;stroke:none;stroke-width:1.60000002;stroke-miterlimit:4;stroke-dasharray:none;stroke-opacity:1" />
    <rect
       y="-111.79211"
       x="586.26703"
       height="177.71107"
       width="143.25165"
       id="rect820"
       style="opacity:1;fill:#dcdcdc;fill-opacity:1;stroke:#4d4d4d;stroke-width:1.26581517;stroke-linecap:round;stroke-linejoin:bevel;stroke-miterlimit:4;stroke-dasharray:none;stroke-opacity:1"
       transform="matrix(0.96592582,0.25881905,0,1,0,0)" />
    <rect
       style="opacity:1;fill:#ececec;fill-opacity:1;stroke:#4d4d4d;stroke-width:1.64737212;stroke-linecap:round;stroke-linejoin:bevel;stroke-miterlimit:4;stroke-dasharray:none;stroke-opacity:1"
       id="rect818"
       width="143.25165"
       height="177.71107"
       x="560.74481"
       y="-90.679199"
       transform="matrix(0.96592582,0.25881905,0,1,0,0)" />
    <rect
       style="opacity:1;fill:#f9f9f9;fill-opacity:1;stroke:#4d4d4d;stroke-width:2.41048601;stroke-linecap:round;stroke-linejoin:bevel;stroke-miterlimit:4;stroke-dasharray:none;stroke-opacity:1"
       id="rect822"
       width="143.25165"
       height="177.71107"
       x="535.46838"
       y="-70.041077"
       transform="matrix(0.96592582,0.25881905,0,1,0,0)" />
    <rect
       style="opacity:1;fill:#ffffff;fill-opacity:1;stroke:#4d4d4d;stroke-width:2.8874322;stroke-linecap:round;stroke-linejoin:bevel;stroke-miterlimit:4;stroke-dasharray:none;stroke-opacity:1"
       id="rect824"
       width="143.25165"
       height="21.026892"
       x="510.19193"
       y="28.37608"
       transform="matrix(0.96592582,0.25881905,0,-1,0,0)" />
    <rect
       y="58.681984"
       x="510.06906"
       height="69.863525"
       width="143.25165"
       id="rect826"
       style="opacity:1;fill:#ffffff;fill-opacity:1;stroke:#4d4d4d;stroke-width:2.8874322;stroke-linecap:round;stroke-linejoin:bevel;stroke-miterlimit:4;stroke-dasharray:none;stroke-opacity:1"
       transform="matrix(0.96592582,0.25881905,0,1,0,0)" />
    <rect
       style="opacity:1;fill:#ffffff;fill-opacity:1;stroke:#4d4d4d;stroke-width:2.8874322;stroke-linecap:round;stroke-linejoin:bevel;stroke-miterlimit:4;stroke-dasharray:none;stroke-opacity:1"
       id="rect830"
       width="143.37453"
       height="62.604546"
       x="510.19193"
       y="-16.124533"
       transform="matrix(0.96592582,0.25881905,0,1,0,0)" />
    <path
       style="fill:#ffcc00;fill-opacity:0.82352941;stroke:none;stroke-width:0.08799227px;stroke-linecap:butt;stroke-linejoin:miter;stroke-opacity:1"
       d="m 553.95041,155.39201 15.24148,12.88363 -15.24148,4.71574 z"
       id="path858"
       inkscape:connector-curvature="0" />
    <ellipse
       style="opacity:1;fill:none;fill-opacity:1;stroke:#4d4d4d;stroke-width:0.82324868;stroke-linecap:round;stroke-linejoin:bevel;stroke-miterlimit:4;stroke-dasharray:none;stroke-opacity:1"
       id="path860"
       cx="579.07361"
       cy="15.76114"
       rx="18.019785"
       ry="17.405775"
       transform="matrix(0.96592582,0.25881905,0,1,0,0)" />
    <ellipse
       cy="15.76114"
       cx="579.07361"
       id="circle862"
       style="opacity:1;fill:none;fill-opacity:1;stroke:#4d4d4d;stroke-width:1.9492507;stroke-linecap:round;stroke-linejoin:bevel;stroke-miterlimit:4;stroke-dasharray:none;stroke-opacity:1"
       rx="21.631853"
       ry="20.894764"
       transform="matrix(0.96592582,0.25881905,0,1,0,0)" />
    <rect
       style="opacity:1;fill:#cccccc;fill-opacity:1;stroke:#333333;stroke-width:1.45588624;stroke-linecap:round;stroke-linejoin:bevel;stroke-miterlimit:4;stroke-dasharray:none;stroke-opacity:1"
       id="rect864"
       width="103.86495"
       height="5.8972054"
       x="529.76239"
       y="71.426613"
       transform="matrix(0.96592582,0.25881905,0,1,0,0)" />
    <rect
       y="84.252396"
       x="529.76239"
       height="5.8972054"
       width="103.86495"
       id="rect866"
       style="opacity:1;fill:#cccccc;fill-opacity:1;stroke:#333333;stroke-width:1.45588624;stroke-linecap:round;stroke-linejoin:bevel;stroke-miterlimit:4;stroke-dasharray:none;stroke-opacity:1"
       transform="matrix(0.96592582,0.25881905,0,1,0,0)" />
    <rect
       y="97.078064"
       x="529.76239"
       height="5.8972054"
       width="103.86495"
       id="rect870"
       style="opacity:1;fill:#cccccc;fill-opacity:1;stroke:#333333;stroke-width:1.45588624;stroke-linecap:round;stroke-linejoin:bevel;stroke-miterlimit:4;stroke-dasharray:none;stroke-opacity:1"
       transform="matrix(0.96592582,0.25881905,0,1,0,0)" />
    <rect
       style="opacity:1;fill:#cccccc;fill-opacity:1;stroke:#333333;stroke-width:1.45588624;stroke-linecap:round;stroke-linejoin:bevel;stroke-miterlimit:4;stroke-dasharray:none;stroke-opacity:1"
       id="rect872"
       width="103.86495"
       height="5.8972054"
       x="529.76239"
       y="109.90387"
       transform="matrix(0.96592582,0.25881905,0,1,0,0)" />
    <path
       inkscape:connector-curvature="0"
       id="path4424"
       style="font-style:normal;font-variant:normal;font-weight:500;font-stretch:normal;font-size:medium;line-height:125%;font-family:DTLProkyonT;-inkscape-font-specification:'DTLProkyonT Medium';text-align:center;letter-spacing:-0.65304399px;word-spacing:0px;text-anchor:middle;fill:#4d4d4d;fill-opacity:1;stroke:none;stroke-width:0.83664787px;stroke-linecap:butt;stroke-linejoin:miter;stroke-opacity:1"
       d="m 157.41451,126.26893 c 1.77725,0.78988 3.23854,1.14534 5.01581,1.14534 4.26541,0 7.06951,-2.29068 7.06951,-5.68721 0,-1.4613 -0.47392,-2.68563 -1.46129,-3.6335 -0.75039,-0.82938 -1.61928,-1.38231 -3.63351,-2.33017 -2.7646,-1.30332 -3.31752,-1.81676 -3.31752,-3.08056 0,-1.42182 1.34281,-2.36968 3.39652,-2.36968 1.65877,0 3.00158,0.47394 4.42338,1.4613 v -3.35704 c -1.65876,-0.78989 -2.96207,-1.06635 -4.69983,-1.06635 -4.06794,0 -6.79306,2.2117 -6.79306,5.60822 0,2.40917 1.14534,3.79147 4.46288,5.41074 1.65876,0.78989 2.17218,1.06635 2.56713,1.34282 0.98737,0.67141 1.38232,1.38231 1.38232,2.29069 0,1.50078 -1.38232,2.44865 -3.51502,2.44865 -1.81674,0 -3.47552,-0.59242 -4.89732,-1.81676 z" />
    <path
       inkscape:connector-curvature="0"
       id="path4426"
       style="font-style:normal;font-variant:normal;font-weight:500;font-stretch:normal;font-size:medium;line-height:125%;font-family:DTLProkyonT;-inkscape-font-specification:'DTLProkyonT Medium';text-align:center;letter-spacing:-0.65304399px;word-spacing:0px;text-anchor:middle;fill:#4d4d4d;fill-opacity:1;stroke:none;stroke-width:0.83664787px;stroke-linecap:butt;stroke-linejoin:miter;stroke-opacity:1"
       d="m 179.80053,104.62594 2.36967,0.35545 7.03001,-7.8594 -3.15955,-0.355457 z m 10.22908,12.9937 c 0,-0.39495 0,-0.75041 0,-0.90839 0,-2.8041 -0.35546,-4.54186 -1.34282,-6.00316 -1.3823,-2.17219 -3.71248,-3.35703 -6.67457,-3.35703 -5.41075,0 -9.08374,4.18642 -9.08374,10.38705 0,6.00317 3.51501,9.55768 9.43918,9.55768 2.60665,0 4.73935,-0.63192 6.71408,-1.97473 v -3.23855 c -2.05371,1.61927 -3.90996,2.25118 -6.31912,2.25118 -3.98895,0 -6.39811,-2.29068 -6.39811,-6.12164 0.0789,-0.11849 0.0789,-0.31596 0.0789,-0.59241 h 13.58611 z m -13.23066,-2.80412 c 0.55293,-2.8436 2.44865,-4.50237 5.17377,-4.50237 2.68563,0 4.18642,1.54029 4.46288,4.50237 z" />
    <path
       inkscape:connector-curvature="0"
       id="path4428"
       style="font-style:normal;font-variant:normal;font-weight:500;font-stretch:normal;font-size:medium;line-height:125%;font-family:DTLProkyonT;-inkscape-font-specification:'DTLProkyonT Medium';text-align:center;letter-spacing:-0.65304399px;word-spacing:0px;text-anchor:middle;fill:#4d4d4d;fill-opacity:1;stroke:none;stroke-width:0.83664787px;stroke-linecap:butt;stroke-linejoin:miter;stroke-opacity:1"
       d="m 194.53386,126.86134 h 3.67299 v -15.63981 c 1.38231,-0.59243 2.60664,-0.86888 3.98895,-0.86888 1.18483,0 2.09321,0.19747 3.15956,0.63191 v -3.08057 c -1.10585,-0.35546 -2.01422,-0.51343 -3.31754,-0.51343 -2.44866,0 -5.21328,0.55291 -7.50396,1.50079 z" />
    <path
       inkscape:connector-curvature="0"
       id="path4430"
       style="font-style:normal;font-variant:normal;font-weight:500;font-stretch:normal;font-size:medium;line-height:125%;font-family:DTLProkyonT;-inkscape-font-specification:'DTLProkyonT Medium';text-align:center;letter-spacing:-0.65304399px;word-spacing:0px;text-anchor:middle;fill:#4d4d4d;fill-opacity:1;stroke:none;stroke-width:0.83664787px;stroke-linecap:butt;stroke-linejoin:miter;stroke-opacity:1"
       d="m 208.55012,126.86134 h 3.673 v -19.19432 h -3.673 z m -0.15796,-23.06479 h 3.90994 v -4.225903 h -3.90994 z" />
    <path
       inkscape:connector-curvature="0"
       id="path4432"
       style="font-style:normal;font-variant:normal;font-weight:500;font-stretch:normal;font-size:medium;line-height:125%;font-family:DTLProkyonT;-inkscape-font-specification:'DTLProkyonT Medium';text-align:center;letter-spacing:-0.65304399px;word-spacing:0px;text-anchor:middle;fill:#4d4d4d;fill-opacity:1;stroke:none;stroke-width:0.83664787px;stroke-linecap:butt;stroke-linejoin:miter;stroke-opacity:1"
       d="m 234.1969,117.61964 c 0,-0.39495 0,-0.75041 0,-0.90839 0,-2.8041 -0.35545,-4.54186 -1.34282,-6.00316 -1.3823,-2.17219 -3.71246,-3.35703 -6.67456,-3.35703 -5.41074,0 -9.08374,4.18642 -9.08374,10.38705 0,6.00317 3.51502,9.55768 9.43919,9.55768 2.60665,0 4.73935,-0.63192 6.71407,-1.97473 v -3.23855 c -2.05372,1.61927 -3.90996,2.25118 -6.31913,2.25118 -3.98893,0 -6.3981,-2.29068 -6.3981,-6.12164 0.0789,-0.11849 0.0789,-0.31596 0.0789,-0.59241 h 13.5861 z m -13.23066,-2.80412 c 0.55293,-2.8436 2.44866,-4.50237 5.17379,-4.50237 2.68562,0 4.18641,1.54029 4.46287,4.50237 z" />
    <path
       inkscape:connector-curvature="0"
       id="path4434"
       style="font-style:normal;font-variant:normal;font-weight:500;font-stretch:normal;font-size:medium;line-height:125%;font-family:DTLProkyonT;-inkscape-font-specification:'DTLProkyonT Medium';text-align:center;letter-spacing:-0.65304399px;word-spacing:0px;text-anchor:middle;fill:#4d4d4d;fill-opacity:1;stroke:none;stroke-width:0.83664787px;stroke-linecap:butt;stroke-linejoin:miter;stroke-opacity:1"
       d="m 257.8153,107.825 c -1.02686,-0.27647 -1.93523,-0.39495 -3.04107,-0.39495 -6.20064,0 -10.18958,4.02843 -10.18958,10.26856 0,6.12166 3.51501,9.4392 10.03159,9.4392 2.13271,0 4.18642,-0.23697 6.87205,-0.82939 V 97.240469 h -3.67299 z m 0,15.99527 c -1.14534,0.27645 -2.01422,0.35545 -3.12006,0.35545 -4.14693,0 -6.43761,-2.40917 -6.43761,-6.75356 0,-4.42339 2.48815,-7.03002 6.71407,-7.03002 1.02686,0 1.89574,0.11848 2.8436,0.43444 z" />
    <path
       inkscape:connector-curvature="0"
       id="path4436"
       style="font-style:normal;font-variant:normal;font-weight:500;font-stretch:normal;font-size:medium;line-height:125%;font-family:DTLProkyonT;-inkscape-font-specification:'DTLProkyonT Medium';text-align:center;letter-spacing:-0.65304399px;word-spacing:0px;text-anchor:middle;fill:#4d4d4d;fill-opacity:1;stroke:none;stroke-width:0.83664787px;stroke-linecap:butt;stroke-linejoin:miter;stroke-opacity:1"
       d="m 267.73647,107.66702 v 13.03319 c 0,5.29226 -0.19747,7.34597 -0.98735,9.08372 -0.71091,1.69827 -1.85625,2.80411 -4.22592,4.06794 l 3.19905,1.46129 c 2.33019,-1.34281 3.55451,-2.52765 4.46288,-4.50237 0.90839,-1.97473 1.22432,-4.34439 1.22432,-9.20222 v -13.94155 z m -0.0789,-3.87047 h 3.90996 v -4.225903 h -3.90996 z" />
    <path
       inkscape:connector-curvature="0"
       id="path4438"
       style="font-style:normal;font-variant:normal;font-weight:500;font-stretch:normal;font-size:medium;line-height:125%;font-family:DTLProkyonT;-inkscape-font-specification:'DTLProkyonT Medium';text-align:center;letter-spacing:-0.65304399px;word-spacing:0px;text-anchor:middle;fill:#4d4d4d;fill-opacity:1;stroke:none;stroke-width:0.83664787px;stroke-linecap:butt;stroke-linejoin:miter;stroke-opacity:1"
       d="m 277.31085,112.76181 c 2.33017,-1.69827 4.26541,-2.44866 6.35861,-2.44866 1.22434,0 2.09322,0.35545 2.52765,1.10585 0.27646,0.51342 0.35546,1.22433 0.35546,3.04107 v 0.63192 l -0.43445,0.0395 c -7.06951,0.63191 -9.87363,2.56713 -9.87363,6.83254 0,3.51501 2.01423,5.21326 6.16114,5.21326 1.81676,0 3.71249,-0.15797 6.91156,-0.63189 l 0.67139,-0.0789 v -12.12482 c 0,-2.52765 -0.15797,-3.63349 -0.59241,-4.54186 -0.78989,-1.61928 -2.48816,-2.44866 -5.01581,-2.44866 -2.40916,0 -4.62084,0.67141 -7.06951,2.09321 v 3.31754 z m 9.24172,11.25593 c -1.65877,0.31595 -2.84361,0.47393 -3.75198,0.47393 -2.09321,0 -3.12007,-0.90837 -3.12007,-2.72512 0,-2.48815 1.85624,-3.515 6.87205,-3.90995 z" />
    <path
       inkscape:connector-curvature="0"
       id="path4440"
       style="font-style:normal;font-variant:normal;font-weight:500;font-stretch:normal;font-size:medium;line-height:125%;font-family:DTLProkyonT;-inkscape-font-specification:'DTLProkyonT Medium';text-align:center;letter-spacing:-0.65304399px;word-spacing:0px;text-anchor:middle;fill:#4d4d4d;fill-opacity:1;stroke:none;stroke-width:0.83664787px;stroke-linecap:butt;stroke-linejoin:miter;stroke-opacity:1"
       d="m 295.84245,126.86134 h 3.67298 v -15.83729 c 1.4613,-0.47393 2.60664,-0.6714 3.98895,-0.6714 3.19906,0 4.38388,1.18483 4.38388,4.42337 v 12.08532 h 3.67299 v -12.51975 c 0,-2.52765 -0.43443,-3.94945 -1.46129,-5.0553 -1.22433,-1.26382 -3.15956,-1.89573 -6.04266,-1.89573 -2.72512,0 -5.25278,0.39494 -8.21485,1.30332 z" />
    <path
       inkscape:connector-curvature="0"
       id="path4442"
       style="font-style:normal;font-variant:normal;font-weight:500;font-stretch:normal;font-size:medium;line-height:125%;font-family:DTLProkyonT;-inkscape-font-specification:'DTLProkyonT Medium';text-align:center;letter-spacing:-0.65304399px;word-spacing:0px;text-anchor:middle;fill:#4d4d4d;fill-opacity:1;stroke:none;stroke-width:0.83664787px;stroke-linecap:butt;stroke-linejoin:miter;stroke-opacity:1"
       d="m 316.39318,135.51063 c 2.2907,1.02687 4.14693,1.4613 6.20064,1.4613 3.55451,0 6.5166,-1.54028 8.05689,-4.18642 1.14533,-1.93522 1.50078,-4.14692 1.50078,-9.2812 0,-1.4218 -0.0395,-3.15955 -0.0789,-5.29226 l -0.0789,-3.83097 -0.0789,-3.00157 v -0.71091 c 1.38231,0.15798 2.01423,0.27646 3.47552,0.51343 v -2.8831 c -2.92259,-0.55293 -5.0158,-0.7504 -7.10901,-0.7504 -7.78042,0 -12.36178,3.87047 -12.36178,10.46604 0,5.48974 3.47551,9.08374 8.76779,9.08374 1.46128,0 2.60663,-0.23697 3.87046,-0.78989 -0.0789,0.0395 -0.0789,0.11848 -0.0789,0.15798 0,1.57978 -0.11848,2.72512 -0.39494,3.594 -0.71091,2.40916 -2.60665,3.63349 -5.48974,3.63349 -2.17219,0 -3.98894,-0.59241 -6.20064,-1.97473 v 3.79147 z m 12.00633,-25.00001 v 0.63191 l 0.0395,2.68563 0.0789,3.79148 c 0,1.3823 0.0395,2.44865 0.0395,3.15955 v 2.21169 0.59242 c -1.14535,0.39494 -2.09322,0.55292 -3.15958,0.55292 -3.63348,0 -5.80569,-2.33017 -5.80569,-6.31912 0,-4.66035 2.8831,-7.30648 8.05689,-7.30648 0.079,0 0.31596,0 0.51343,0 h 0.23696 z" />
    <path
       inkscape:connector-curvature="0"
       id="path4444"
       style="font-style:normal;font-variant:normal;font-weight:500;font-stretch:normal;font-size:medium;line-height:125%;font-family:DTLProkyonT;-inkscape-font-specification:'DTLProkyonT Medium';text-align:center;letter-spacing:-0.65304399px;word-spacing:0px;text-anchor:middle;fill:#4d4d4d;fill-opacity:1;stroke:none;stroke-width:0.83664787px;stroke-linecap:butt;stroke-linejoin:miter;stroke-opacity:1"
       d="m 337.38023,117.50114 c 0,6.12165 3.43602,9.87363 9.00475,9.87363 5.68721,0 9.24171,-3.90995 9.24171,-10.18957 0,-6.08216 -3.43603,-9.87364 -9.00475,-9.87364 -5.6872,0 -9.24171,3.94945 -9.24171,10.18958 z m 3.67299,-0.15797 c 0,-4.54187 1.93523,-7.06952 5.45025,-7.06952 3.51501,0 5.45024,2.52765 5.45024,7.06952 0,4.54186 -1.93523,7.06951 -5.45024,7.06951 -3.51502,0 -5.45025,-2.52765 -5.45025,-7.06951 z" />
    <path
       inkscape:connector-curvature="0"
       id="path1022"
       style="font-style:normal;font-variant:normal;font-weight:normal;font-stretch:normal;font-size:medium;line-height:1.25;font-family:'Agency FB';-inkscape-font-specification:'Agency FB';letter-spacing:-2.23692131px;word-spacing:0px;fill:#4d4d4d;fill-opacity:1;stroke:none;stroke-width:2.61569762"
       d="m 138.83862,167.10659 h -12.3565 v 73.709 h -7.09732 v -73.709 h -12.45861 v -6.28724 h 31.91243 z" />
    <path
       inkscape:connector-curvature="0"
       id="path1024"
       style="font-style:normal;font-variant:normal;font-weight:normal;font-stretch:normal;font-size:medium;line-height:1.25;font-family:'Agency FB';-inkscape-font-specification:'Agency FB';letter-spacing:-2.23692131px;word-spacing:0px;fill:#4d4d4d;fill-opacity:1;stroke:none;stroke-width:2.61569762"
       d="m 171.63779,240.81559 h -26.24478 v -79.99624 h 25.93841 v 6.28724 h -18.84109 v 29.85163 h 17.15613 v 6.38948 h -17.15613 v 31.18064 h 19.14746 z" />
    <path
       inkscape:connector-curvature="0"
       id="path1026"
       style="font-style:normal;font-variant:normal;font-weight:normal;font-stretch:normal;font-size:medium;line-height:1.25;font-family:'Agency FB';-inkscape-font-specification:'Agency FB';letter-spacing:-2.23692131px;word-spacing:0px;fill:#4d4d4d;fill-opacity:1;stroke:none;stroke-width:2.61569762"
       d="m 220.4187,240.81559 h -6.68884 v -50.65577 q 0,-1.07343 0.71484,-6.28724 l -13.07133,49.42898 h -1.42968 l -13.07133,-49.42898 q 0.71484,5.26492 0.71484,6.28724 v 50.65577 h -6.68885 v -79.99624 h 6.58673 l 12.96921,52.03589 q 0.10212,0.40893 0.20424,2.30021 0,-0.76673 0.20424,-2.30021 l 12.96921,-52.03589 h 6.58672 z" />
    <path
       inkscape:connector-curvature="0"
       id="path1028"
       style="font-style:normal;font-variant:normal;font-weight:normal;font-stretch:normal;font-size:medium;line-height:1.25;font-family:'Agency FB';-inkscape-font-specification:'Agency FB';letter-spacing:-2.23692131px;word-spacing:0px;fill:#4d4d4d;fill-opacity:1;stroke:none;stroke-width:2.61569762"
       d="m 262.97032,203.3477 q 0,2.50467 -1.63392,4.14037 -1.58286,1.5846 -4.08479,1.5846 h -18.8411 v 31.74292 h -7.09732 v -79.99624 h 25.93842 q 2.50193,0 4.08479,1.58458 1.63392,1.58459 1.63392,4.08927 z m -7.09733,-0.61339 v -35.62772 h -17.46248 v 35.62772 z" />
    <path
       inkscape:connector-curvature="0"
       id="path1030"
       style="font-style:normal;font-variant:normal;font-weight:normal;font-stretch:normal;font-size:medium;line-height:1.25;font-family:'Agency FB';-inkscape-font-specification:'Agency FB';letter-spacing:-2.23692131px;word-spacing:0px;fill:#4d4d4d;fill-opacity:1;stroke:none;stroke-width:2.61569762"
       d="m 297.86294,240.81559 h -25.52995 v -79.99624 h 7.09733 v 73.70899 h 18.43262 z" />
    <path
       inkscape:connector-curvature="0"
       id="path1032"
       style="font-style:normal;font-variant:normal;font-weight:normal;font-stretch:normal;font-size:medium;line-height:1.25;font-family:'Agency FB';-inkscape-font-specification:'Agency FB';letter-spacing:-2.23692131px;word-spacing:0px;fill:#4d4d4d;fill-opacity:1;stroke:none;stroke-width:2.61569762"
       d="m 338.01474,240.81559 h -7.04627 l -2.80829,-17.7883 h -15.87963 l -2.8083,17.7883 h -6.84202 v -0.20446 l 14.24571,-79.99625 h 6.99521 z m -10.77363,-24.07555 -6.99522,-43.34621 -7.04625,43.34621 z" />
    <path
       inkscape:connector-curvature="0"
       id="path1034"
       style="font-style:normal;font-variant:normal;font-weight:normal;font-stretch:normal;font-size:medium;line-height:1.25;font-family:'Agency FB';-inkscape-font-specification:'Agency FB';letter-spacing:-2.23692131px;word-spacing:0px;fill:#4d4d4d;fill-opacity:1;stroke:none;stroke-width:2.61569762"
       d="m 373.31585,167.10659 h -12.3565 v 73.709 h -7.09731 v -73.709 h -12.45862 v -6.28724 h 31.91243 z" />
    <path
       inkscape:connector-curvature="0"
       id="path1036"
       style="font-style:normal;font-variant:normal;font-weight:normal;font-stretch:normal;font-size:medium;line-height:1.25;font-family:'Agency FB';-inkscape-font-specification:'Agency FB';letter-spacing:-2.23692131px;word-spacing:0px;fill:#4d4d4d;fill-opacity:1;stroke:none;stroke-width:2.61569762"
       d="m 406.11501,240.81559 h -26.24477 v -79.99624 h 25.93841 v 6.28724 h -18.84109 v 29.85163 h 17.15612 v 6.38948 h -17.15612 v 31.18064 h 19.14745 z" />
  </g>
</svg>
