<?xml version="1.0" encoding="UTF-8" standalone="no"?>
<svg
   xmlns:dc="http://purl.org/dc/elements/1.1/"
   xmlns:cc="http://creativecommons.org/ns#"
   xmlns:rdf="http://www.w3.org/1999/02/22-rdf-syntax-ns#"
   xmlns:svg="http://www.w3.org/2000/svg"
   xmlns="http://www.w3.org/2000/svg"
   xmlns:xlink="http://www.w3.org/1999/xlink"
   xmlns:sodipodi="http://sodipodi.sourceforge.net/DTD/sodipodi-0.dtd"
   xmlns:inkscape="http://www.inkscape.org/namespaces/inkscape"
   data-name="Layer 1"
   width="894.28571"
   height="466.58386"
   viewBox="0 0 894.28571 466.58386"
   version="1.1"
   id="svg212"
   sodipodi:docname="amador.svg"
   inkscape:version="0.92.5 (0.92.5+69)">
  <metadata
     id="metadata218">
    <rdf:RDF>
      <cc:Work
         rdf:about="">
        <dc:format>image/svg+xml</dc:format>
        <dc:type
           rdf:resource="http://purl.org/dc/dcmitype/StillImage" />
        <dc:title />
      </cc:Work>
    </rdf:RDF>
  </metadata>
  <defs
     id="defs216">
    <linearGradient
       inkscape:collect="always"
       xlink:href="#linearGradient4689"
       id="linearGradient3027"
       gradientUnits="userSpaceOnUse"
       gradientTransform="matrix(0.14883897,0,0,0.15027592,-140.8619,-42.508833)"
       x1="26.648937"
       y1="20.603781"
       x2="135.66525"
       y2="114.39767" />
    <linearGradient
       id="linearGradient4689">
      <stop
         id="stop4691"
         offset="0"
         style="stop-color:#5a9fd4;stop-opacity:1;" />
      <stop
         id="stop4693"
         offset="1"
         style="stop-color:#306998;stop-opacity:1;" />
    </linearGradient>
    <linearGradient
       inkscape:collect="always"
       xlink:href="#linearGradient4671"
       id="linearGradient3029"
       gradientUnits="userSpaceOnUse"
       gradientTransform="matrix(0.14883897,0,0,0.15027592,-140.8619,-42.508833)"
       x1="150.96111"
       y1="192.35176"
       x2="112.03144"
       y2="137.27299" />
    <linearGradient
       id="linearGradient4671">
      <stop
         id="stop4673"
         offset="0"
         style="stop-color:#ffd43b;stop-opacity:1;" />
      <stop
         id="stop4675"
         offset="1"
         style="stop-color:#ffe873;stop-opacity:1" />
    </linearGradient>
  </defs>
  <sodipodi:namedview
     pagecolor="#ffffff"
     bordercolor="#666666"
     borderopacity="1"
     objecttolerance="10"
     gridtolerance="10"
     guidetolerance="10"
     inkscape:pageopacity="0"
     inkscape:pageshadow="2"
     inkscape:window-width="2560"
     inkscape:window-height="1003"
     id="namedview214"
     showgrid="false"
     fit-margin-top="0"
     fit-margin-left="0"
     fit-margin-right="0"
     fit-margin-bottom="0"
     inkscape:zoom="0.57742976"
     inkscape:cx="-179.7534"
     inkscape:cy="208.32964"
     inkscape:window-x="0"
     inkscape:window-y="0"
     inkscape:window-maximized="1"
     inkscape:current-layer="svg212" />
  <rect
     style="opacity:1;vector-effect:none;fill:none;fill-opacity:0.21568627;stroke:none;stroke-width:9.26559448;stroke-linecap:round;stroke-linejoin:round;stroke-miterlimit:4;stroke-dasharray:none;stroke-dashoffset:0;stroke-opacity:1"
     id="rect3288"
     width="894.28571"
     height="466.58386"
     x="0"
     y="0" />
  <rect
     y="0"
     x="0"
     height="466.58386"
     width="894.28571"
     id="rect4338"
     style="opacity:1;vector-effect:none;fill:none;fill-opacity:0.21568627;stroke:none;stroke-width:9.26559448;stroke-linecap:round;stroke-linejoin:round;stroke-miterlimit:4;stroke-dasharray:none;stroke-dashoffset:0;stroke-opacity:1" />
  <path
     id="path4340"
     d="M 659.7947,281.39962 H 234.49112 a 29.14989,29.14989 0 0 0 0,58.29978 H 659.7947 a 29.0851,29.0851 0 0 0 21.86783,-9.90138 29.449865,29.449865 0 0 0 3.28238,-4.54313 27.759182,27.759182 0 0 0 1.90202,-3.86928 29.131726,29.131726 0 0 0 -27.05223,-39.98599 z"
     style="fill:#7f5337;stroke-width:1.08687127;fill-opacity:1"
     inkscape:connector-curvature="0" />
  <path
     id="path4342"
     d="m 686.68221,323.92891 a 313.3686,313.3686 0 0 1 -30.49066,31.39066 H 238.10511 a 313.3686,313.3686 0 0 1 -30.49066,-31.39066 z"
     style="fill:#9e6c47;fill-opacity:1;stroke-width:1.08430529"
     inkscape:connector-curvature="0" />
  <path
     id="path4344"
     d="m 482.23254,214.94833 h -70.55969 a 3.4506642,3.4506642 0 0 0 -1.11947,0.17376 3.7475322,3.7475322 0 0 0 -2.64111,3.5867 v 111.46949 h 78.09169 V 218.70879 a 3.7641396,3.7641396 0 0 0 -3.77142,-3.76062 z m -26.70442,54.99566 a 8.1855211,8.1855211 0 0 1 -1.69552,4.99964 8.3308682,8.3308682 0 0 1 -14.97709,-4.99964 v -12.93376 a 8.3366616,8.3366616 0 0 1 16.67261,0 z"
     style="fill:#2f2e41;stroke-width:1.08687127"
     inkscape:connector-curvature="0" />
  <path
     id="path4348"
     d="M 599.07121,40.994592 H 297.4644 a 9.7943082,9.7943082 0 0 0 -9.78184,9.770956 V 254.29305 a 9.7895582,9.7895582 0 0 0 9.78184,9.78184 h 301.60681 a 9.7896018,9.7896018 0 0 0 9.78184,-9.78184 V 50.765548 a 9.7943517,9.7943517 0 0 0 -9.78184,-9.770956 z"
     style="fill:#3f3d56;stroke-width:1.08687127"
     inkscape:connector-curvature="0" />
  <path
     id="path4350"
     d="M 596.54964,48.059248 H 299.97509 a 5.2392197,5.2392197 0 0 0 -5.22783,5.238713 V 251.7824 a 5.236861,5.236861 0 0 0 5.22783,5.22783 h 296.57455 a 5.2369045,5.2369045 0 0 0 5.22787,-5.22783 V 53.297961 a 5.2392632,5.2392632 0 0 0 -5.22787,-5.238713 z"
     style="fill:#00b0ff;stroke-width:1.08687127"
     inkscape:connector-curvature="0" />
  <path
     id="path4420"
     d="M 581.64661,75.401329 H 304.143 a 1.1038156,1.1038156 0 0 1 0,-2.207112 h 277.50361 a 1.1038156,1.1038156 0 0 1 0,2.207112 z"
     style="fill:#3f3d56;stroke-width:1.08687127"
     inkscape:connector-curvature="0" />
  <ellipse
     id="ellipse4422"
     ry="6.6114817"
     rx="6.4673514"
     cy="60.948223"
     cx="323.03299"
     style="fill:#3f3d56;stroke-width:1.08687127" />
  <ellipse
     id="ellipse4424"
     ry="6.6114817"
     rx="6.4673514"
     cy="60.948223"
     cx="345.37476"
     style="fill:#3f3d56;stroke-width:1.08687127" />
  <ellipse
     id="ellipse4426"
     ry="6.6114817"
     rx="6.4673514"
     cy="60.948223"
     cx="367.71652"
     style="fill:#3f3d56;stroke-width:1.08687127" />
  <path
     id="path4428"
     d="m 568.19316,55.971644 h -15.86829 a 1.2013188,1.2013188 0 0 0 0,2.401989 h 15.86829 a 1.2011123,1.2011123 0 0 0 0,-2.401989 z"
     style="fill:#3f3d56;stroke-width:1.08687127"
     inkscape:connector-curvature="0" />
  <path
     id="path4430"
     d="m 568.19316,60.482197 h -15.86829 a 1.2012862,1.2012862 0 0 0 0,2.401948 h 15.86829 a 1.2010797,1.2010797 0 0 0 0,-2.401948 z"
     style="fill:#3f3d56;stroke-width:1.08687127"
     inkscape:connector-curvature="0" />
  <path
     id="path4432"
     d="m 568.19316,64.99271 h -15.86829 a 1.2013188,1.2013188 0 0 0 0,2.401989 h 15.86829 a 1.2011123,1.2011123 0 0 0 0,-2.401989 z"
     style="fill:#3f3d56;stroke-width:1.08687127"
     inkscape:connector-curvature="0" />
  <rect
     id="rect4434"
     rx="3.1301458"
     height="6.2602916"
     width="11.962204"
     y="101.04781"
     x="319.23892"
     style="fill:#e6e6e6;stroke-width:1.08687127" />
  <rect
     id="rect4436"
     rx="3.1301458"
     height="6.2602916"
     width="11.962204"
     y="101.04781"
     x="384.4512"
     style="fill:#e6e6e6;stroke-width:1.08687127" />
  <rect
     id="rect4438"
     rx="3.1301458"
     height="6.2602916"
     width="11.962204"
     y="101.04781"
     x="402.92804"
     style="fill:#e6e6e6;stroke-width:1.08687127" />
  <rect
     id="rect4440"
     rx="3.1301458"
     height="6.2602916"
     width="41.698578"
     y="100.52592"
     x="336.9769"
     style="fill:#e6e6e6;stroke-width:1.08687127" />
  <rect
     id="rect4442"
     rx="3.1301458"
     height="6.2602916"
     width="41.698578"
     y="100.52592"
     x="423.92654"
     style="fill:#e6e6e6;stroke-width:1.08687127" />
  <rect
     id="rect4444"
     rx="3.1301458"
     height="6.2602916"
     width="11.962204"
     y="115.1771"
     x="336.62888"
     style="fill:#e6e6e6;stroke-width:1.08687127" />
  <rect
     id="rect4446"
     rx="3.1301458"
     height="6.2602916"
     width="11.962204"
     y="115.1771"
     x="401.84116"
     style="fill:#e6e6e6;stroke-width:1.08687127" />
  <rect
     id="rect4448"
     rx="3.1301458"
     height="6.2602916"
     width="11.962204"
     y="115.1771"
     x="420.31799"
     style="fill:#e6e6e6;stroke-width:1.08687127" />
  <rect
     id="rect4450"
     rx="3.1301458"
     height="6.2602916"
     width="41.698578"
     y="114.65528"
     x="354.36685"
     style="fill:#e6e6e6;stroke-width:1.08687127" />
  <rect
     id="rect4452"
     rx="3.1301458"
     height="6.2602916"
     width="41.698578"
     y="114.65528"
     x="441.3165"
     style="fill:#e6e6e6;stroke-width:1.08687127" />
  <rect
     id="rect4454"
     rx="3.1301458"
     height="6.2602916"
     width="11.962204"
     y="129.30646"
     x="354.01883"
     style="fill:#e6e6e6;stroke-width:1.08687127" />
  <rect
     id="rect4456"
     rx="3.1301458"
     height="6.2602916"
     width="11.962204"
     y="129.30646"
     x="419.23111"
     style="fill:#e6e6e6;stroke-width:1.08687127" />
  <rect
     id="rect4458"
     rx="3.1301458"
     height="6.2602916"
     width="11.962204"
     y="129.30646"
     x="437.70795"
     style="fill:#e6e6e6;stroke-width:1.08687127" />
  <rect
     id="rect4460"
     rx="3.1301458"
     height="6.2602916"
     width="41.698578"
     y="128.78458"
     x="371.75681"
     style="fill:#e6e6e6;stroke-width:1.08687127" />
  <rect
     id="rect4462"
     rx="3.1301458"
     height="6.2602916"
     width="41.698578"
     y="128.78458"
     x="458.70645"
     style="fill:#e6e6e6;stroke-width:1.08687127" />
  <rect
     id="rect4464"
     rx="3.1301458"
     height="6.2602916"
     width="11.962204"
     y="143.43582"
     x="371.40878"
     style="fill:#e6e6e6;stroke-width:1.08687127" />
  <rect
     id="rect4466"
     rx="3.1301458"
     height="6.2602916"
     width="11.962204"
     y="143.43582"
     x="436.62106"
     style="fill:#e6e6e6;stroke-width:1.08687127" />
  <rect
     id="rect4468"
     rx="3.1301458"
     height="6.2602916"
     width="11.962204"
     y="143.43582"
     x="455.09793"
     style="fill:#e6e6e6;stroke-width:1.08687127" />
  <rect
     id="rect4470"
     rx="3.1301458"
     height="6.2602916"
     width="41.698578"
     y="142.91394"
     x="389.14664"
     style="fill:#e6e6e6;stroke-width:1.08687127" />
  <rect
     id="rect4472"
     rx="3.1301458"
     height="6.2602916"
     width="11.962204"
     y="199.61996"
     x="384.4512"
     style="fill:#e6e6e6;stroke-width:1.08687127" />
  <rect
     id="rect4474"
     rx="3.1301458"
     height="6.2602916"
     width="11.962204"
     y="199.61996"
     x="402.92804"
     style="fill:#e6e6e6;stroke-width:1.08687127" />
  <rect
     id="rect4476"
     rx="3.1301458"
     height="6.2602916"
     width="41.698578"
     y="200.14185"
     x="423.92654"
     style="fill:#e6e6e6;stroke-width:1.08687127" />
  <rect
     id="rect4478"
     rx="3.1301458"
     height="6.2602916"
     width="11.962204"
     y="199.61996"
     x="319.23892"
     style="fill:#e6e6e6;stroke-width:1.08687127" />
  <rect
     id="rect4480"
     rx="3.1301458"
     height="6.2602916"
     width="41.698578"
     y="200.14185"
     x="336.9769"
     style="fill:#e6e6e6;stroke-width:1.08687127" />
  <rect
     id="rect4482"
     rx="3.1301458"
     height="6.2602916"
     width="11.962204"
     y="185.49068"
     x="336.62888"
     style="fill:#e6e6e6;stroke-width:1.08687127" />
  <rect
     id="rect4484"
     rx="3.1301458"
     height="6.2602916"
     width="11.962204"
     y="185.49068"
     x="401.84116"
     style="fill:#e6e6e6;stroke-width:1.08687127" />
  <rect
     id="rect4486"
     rx="3.1301458"
     height="6.2602916"
     width="11.962204"
     y="185.49068"
     x="420.31799"
     style="fill:#e6e6e6;stroke-width:1.08687127" />
  <rect
     id="rect4488"
     rx="3.1301458"
     height="6.2602916"
     width="41.698578"
     y="186.01256"
     x="354.36685"
     style="fill:#e6e6e6;stroke-width:1.08687127" />
  <rect
     id="rect4490"
     rx="3.1301458"
     height="6.2602916"
     width="11.962204"
     y="171.36131"
     x="354.01883"
     style="fill:#e6e6e6;stroke-width:1.08687127" />
  <rect
     id="rect4492"
     rx="3.1301458"
     height="6.2602916"
     width="11.962204"
     y="171.36131"
     x="419.23111"
     style="fill:#e6e6e6;stroke-width:1.08687127" />
  <rect
     id="rect4494"
     rx="3.1301458"
     height="6.2602916"
     width="11.962204"
     y="171.36131"
     x="437.70795"
     style="fill:#e6e6e6;stroke-width:1.08687127" />
  <rect
     id="rect4496"
     rx="3.1301458"
     height="6.2602916"
     width="41.698578"
     y="171.88319"
     x="371.75681"
     style="fill:#e6e6e6;stroke-width:1.08687127" />
  <rect
     id="rect4498"
     rx="3.1301458"
     height="6.2602916"
     width="11.962204"
     y="157.23203"
     x="371.40878"
     style="fill:#e6e6e6;stroke-width:1.08687127" />
  <rect
     id="rect4500"
     rx="3.1301458"
     height="6.2602916"
     width="11.962204"
     y="157.23203"
     x="436.62106"
     style="fill:#e6e6e6;stroke-width:1.08687127" />
  <rect
     id="rect4502"
     rx="3.1301458"
     height="6.2602916"
     width="11.962204"
     y="157.23203"
     x="455.09793"
     style="fill:#e6e6e6;stroke-width:1.08687127" />
  <rect
     id="rect4504"
     rx="3.1301458"
     height="6.2602916"
     width="41.698578"
     y="157.75391"
     x="389.14664"
     style="fill:#e6e6e6;stroke-width:1.08687127" />
  <path
     id="path4506"
     d="m 584.97447,403.73785 c -0.66297,0.33685 -1.33686,0.67386 -1.99983,0.99994 -17.17258,8.58629 -30.91058,13.46635 -49.70264,18.81375 -1.58683,-17.71601 -3.1193,-48.85486 -4.60832,-68.15769 -0.39107,-5.01048 -0.78255,-9.21669 -1.16294,-12.18383 a 16.501206,16.501206 0 0 0 -0.95647,-4.61921 l 0.0653,4.61921 0.16309,12.18383 0.94558,69.67928 a 313.65782,313.65782 0 0 1 -71.55961,10.31443 c -1.26075,0.0329 -2.4998,0.0542 -3.69535,0.076 -0.42389,0.0123 -0.8369,0.0205 -1.2499,0.0205 -1.35859,0.0123 -2.7063,0.0205 -4.06489,0.0205 a 314.40052,314.40052 0 0 1 -75.58105,-9.16229 c 0.53258,-17.53124 1.06512,-48.32232 1.57598,-70.95096 0.10885,-4.42359 0.20662,-8.54283 0.31507,-12.18383 0.20662,-7.78201 0.42385,-13.39027 0.63039,-15.27056 a 4.7399327,4.7399327 0 0 0 -0.42393,1.05675 105.59376,105.59376 0 0 0 -2.05418,14.21628 c -0.38038,3.641 -0.76081,7.76024 -1.1412,12.18383 -2.0216,23.50899 -4.13013,55.47389 -6.30388,69.02716 A 310.27199,310.27199 0 0 1 326.1578,411.34591 q -9.78185,-4.07578 -19.21587,-8.79279 c 1.19555,-7.82547 2.44545,-16.59654 3.72796,-25.69364 0.99994,-7.05381 2.03245,-14.30324 3.08673,-21.4657 1.63029,-11.06436 3.30407,-21.91133 4.99959,-31.46494 2.47807,-13.95542 5.02137,-25.17194 7.5429,-30.32373 2.3911,-4.8909 4.78224,-9.71661 7.09727,-14.33581 0.80428,-1.61944 1.60856,-3.21715 2.3911,-4.77136 0.18486,-0.36971 0.36971,-0.7282 0.55432,-1.08686 1.6629,-3.2715 3.2715,-6.40169 4.80398,-9.33626 1.31509,-2.51065 2.56507,-4.88002 3.74969,-7.06466 2.86934,-5.3039 5.30395,-9.53184 7.10816,-12.20556 a 60.056769,60.056769 0 0 1 31.82359,-24.13939 l 0.32617,-0.0871 0.22839,0.0978 22.22648,-6.82554 3.24977,-0.99993 2.1846,-0.67385 7.69505,-5.85822 4.18447,-3.18454 3.92358,-2.98892 7.67332,-5.83649 47.50716,2.92369 9.24925,22.26998 20.71578,7.57551 0.35861,-0.16308 0.31508,-0.13063 0.32616,0.0871 a 60.110504,60.110504 0 0 1 31.82359,24.13938 c 1.02163,1.53252 2.26072,3.55408 3.66278,5.99953 1.19555,2.07595 2.49979,4.44532 3.91273,7.06466 2.01072,3.72805 4.2062,7.93425 6.53212,12.48818 0.51081,0.9999 1.03251,2.02156 1.55421,3.05411 q 1.45097,2.86926 2.94541,5.85818 c 2.31503,4.61921 4.70617,9.44492 7.09728,14.3467 2.0759,4.24967 4.17358,12.98811 6.23864,24.10681 1.70637,9.23838 3.40189,20.12885 5.04306,31.4649 2.15203,14.69451 -0.14131,32.29094 1.80421,45.81163 0.11954,0.85867 0.25017,1.69556 0.36971,2.53246 z"
     style="fill:#3f3d56;stroke-width:1.08687127"
     inkscape:connector-curvature="0" />
  <circle
     id="circle4508"
     r="55.252674"
     cy="121.27985"
     cx="447.81689"
     style="fill:#a0616a;stroke-width:1.08687127" />
  <path
     id="path4510"
     d="m 538.9346,48.059248 a 28.919971,28.919971 0 0 0 -4.31485,-7.064656 C 526.22907,30.745399 510.9694,26.234845 495.30761,38.364329 a 16.606035,16.606035 0 0 0 -9.07537,0.521698 14.031769,14.031769 0 0 0 -3.82582,2.108565 17.35778,17.35778 0 0 0 -5.36913,7.064656 16.869938,16.869938 0 0 0 -1.19556,4.597476 54.958048,54.958048 0 0 0 -12.20556,-4.597476 65.581726,65.581726 0 0 0 -31.66055,0 39.718179,39.718179 0 0 0 -9.54272,3.782312 c -5.08656,2.934532 -8.01025,6.640767 -8.53194,10.760006 -7.3364,0.413004 -14.96625,4.271435 -20.65059,10.597005 -0.64123,0.70647 -1.26074,1.445556 -1.83678,2.206332 a 35.549962,35.549962 0 0 0 -7.30378,21.791786 v 1.380323 h 1.38032 a 29.204645,29.204645 0 0 1 11.03174,2.152028 29.981616,29.981616 0 0 1 6.40165,3.53231 31.262766,31.262766 0 0 1 3.66278,3.04326 36.39194,36.39194 0 0 1 6.65165,8.74929 40.713655,40.713655 0 0 1 4.43443,26.85662 39.344252,39.344252 0 0 1 -1.65206,6.26037 40.849438,40.849438 0 0 1 -4.03227,8.29283 c -0.0653,0.0978 -0.11954,0.19553 -0.18485,0.2933 -0.7282,1.16294 -1.42383,2.34764 -2.07595,3.54319 -0.48908,0.89125 -0.94555,1.80422 -1.36944,2.71719 a 56.470234,56.470234 0 0 0 -3.13019,7.86893 58.241584,58.241584 0 0 0 -2.65195,14.71625 c -0.076,1.32597 -0.0978,2.65195 -0.0542,3.97793 a 56.494951,56.494951 0 0 0 1.11948,10.17319 c 0.0978,0.45647 0.19553,0.90209 0.2933,1.3586 l 0.79339,3.46711 1.88029,8.2711 1.30425,5.69517 1.20644,5.28218 1.78248,-2.55415 c 0.60862,-0.86947 2.14114,-3.54319 4.19531,-7.3255 1.3586,-2.46718 2.93454,-5.4126 4.64094,-8.62975 2.38018,-4.51052 4.98875,-9.54273 7.54281,-14.56405 1.03255,-2.03245 2.05418,-4.05405 3.04331,-6.03215 1.86941,-3.74969 3.63016,-7.369 5.14091,-10.58612 1.39116,-2.96719 2.57587,-5.59741 3.45623,-7.70593 0.27153,1.38032 0.49996,2.78238 0.67385,4.19532 0.19553,1.43467 0.33684,2.89107 0.41304,4.34751 0.0205,0.2173 0.0329,0.44562 0.0435,0.66305 l 0.0435,0.8912 0.0123,0.26085 1.15205,0.15199 a 101.10288,101.10288 0 0 0 19.99846,0.15199 h 0.0123 a 81.365196,81.365196 0 0 0 25.60667,-6.20603 53.536215,53.536215 0 0 0 12.82507,-7.86894 44.887786,44.887786 0 0 0 5.06483,-4.91267 c 0.39147,-0.44562 0.7717,-0.89124 1.14124,-1.34771 a 44.697095,44.697095 0 0 0 5.48868,-8.58629 45.433001,45.433001 0 0 0 2.5433,-6.26037 c 4.17358,-12.6403 3.93446,-28.41083 -0.71736,-47.148461 a 10.785024,10.785024 0 0 0 3.55408,-1.369478 c 3.41277,-2.054135 5.78214,-6.129913 6.52123,-11.107818 l 1.17382,0.315073 a 32.719174,32.719174 0 0 0 10.87958,-8.195016 26.21039,26.21039 0 0 0 1.67379,-2.206332 c 5.31479,-7.825597 5.35825,-17.216164 1.91291,-25.139446 z"
     style="fill:#2f2e41;stroke-width:1.08687127"
     inkscape:connector-curvature="0" />
  <path
     id="path4514"
     d="m 603.03829,300.65899 c -3.30411,45.51817 0.11954,65.56009 -18.11817,103.08975 a 311.0182,311.0182 0 0 1 -51.64812,19.8028 q -2.77149,0.78255 -5.55391,1.52159 a 313.65782,313.65782 0 0 1 -71.55958,10.31443 c -1.26078,0.0329 -2.49984,0.0542 -3.69539,0.076 -0.42385,0.0123 -0.83689,0.0205 -1.2499,0.0205 -1.35859,0.0123 -2.7063,0.0205 -4.06489,0.0205 a 314.40052,314.40052 0 0 1 -75.58101,-9.16229 q -3.71712,-0.91297 -7.40162,-1.92379 a 310.27199,310.27199 0 0 1 -38.00789,-13.07503 q -9.78185,-4.07578 -19.21587,-8.7928 c -1.42379,-0.71735 -2.84761,-1.43467 -4.24967,-2.17375 -7.20596,-12.67291 -11.30347,-28.08474 -11.3904,-46.60503 4.98871,-31.91055 300.71553,-80.63499 311.73642,-53.11541 z"
     style="fill:#2f2e41;stroke-width:1.08687127"
     inkscape:connector-curvature="0" />
  <path
     id="path4516"
     d="m 603.02971,308.45423 c 0.16883,-2.81795 0.35738,-5.72882 0.57748,-8.76005 -11.0209,-27.51958 -306.74771,21.20486 -311.73642,53.11541 0.0123,2.92566 0.13885,5.76489 0.34917,8.53687 12.08122,-31.49566 293.02561,-77.80508 310.80973,-52.89223 z"
     style="opacity:0.2;stroke-width:1.08687127"
     inkscape:connector-curvature="0" />
  <path
     id="path4518"
     d="m 310.30635,179.17027 a 6.9174469,6.9174469 0 0 0 -7.33934,-7.40771 6.3626533,6.3626533 0 0 0 -1.09237,0.1368 l -43.21629,9.7629 a 7.1164201,7.1164201 0 0 0 -4.57434,3.51612 8.8946396,8.8946396 0 0 0 -1.87746,0.27276 10.500629,10.500629 0 0 0 4.64246,20.48171 10.644752,10.644752 0 0 0 4.23286,-2.04809 l 14.64452,41.23658 a 6.8782649,6.8782649 0 0 0 7.54396,3.3111 l 28.09419,-6.34927 a 6.9736161,6.9736161 0 0 0 5.35924,-6.21281 z m -54.10593,23.82698 a 7.5108133,7.5108133 0 0 1 -3.34528,-14.64435 c 0.13638,-0.0329 0.27317,0 0.40955,-0.0329 a 7.0716954,7.0716954 0 0 0 0.92177,3.5501 l 5.35919,9.35331 a 7.0703044,7.0703044 0 0 1 -3.34527,1.77513 z"
     style="fill:#2f2e41;stroke-width:1.08687127"
     inkscape:connector-curvature="0" />
  <g
     transform="matrix(1.2051615,-0.26917233,0.26917233,1.2051615,443.14116,211.41722)"
     id="g4524">
    <path
       id="path4520"
       d="m -122.3649,-39.412338 c -1.21276,0.0056 -2.37092,0.109066 -3.38998,0.289388 -3.00201,0.530358 -3.54707,1.640444 -3.54707,3.68763 v 2.703711 h 7.09414 v 0.901237 h -7.09414 -2.66237 c -2.06175,0 -3.86708,1.239233 -4.43177,3.59668 -0.65135,2.70218 -0.68024,4.388385 0,7.209895 0.50428,2.100224 1.70856,3.59668 3.77032,3.59668 h 2.43912 v -3.241146 c 0,-2.341536 2.02596,-4.406965 4.43177,-4.406966 h 7.08588 c 1.97245,0 3.54707,-1.624056 3.54707,-3.604948 v -6.755143 c 0,-1.922552 -1.62189,-3.366764 -3.54707,-3.68763 -1.21867,-0.202863 -2.48314,-0.295023 -3.6959,-0.289388 z m -3.83646,2.174544 c 0.73278,0 1.33119,0.608184 1.33119,1.35599 -1e-5,0.745155 -0.59841,1.347721 -1.33119,1.347721 -0.7354,0 -1.33118,-0.602566 -1.33118,-1.347721 0,-0.747806 0.59578,-1.35599 1.33118,-1.35599 z"
       style="fill:url(#linearGradient3027);fill-opacity:1;stroke-width:0.26458332"
       inkscape:connector-curvature="0" />
    <path
       id="path4522"
       d="m -114.23723,-31.830372 v 3.150195 c 0,2.442304 -2.0706,4.497917 -4.43177,4.497917 h -7.08588 c -1.94093,0 -3.54707,1.661182 -3.54707,3.604948 v 6.755142 c 0,1.922553 1.6718,3.053376 3.54707,3.604948 2.24561,0.6602968 4.39903,0.7796292 7.08588,0 1.78598,-0.517099 3.54707,-1.557763 3.54707,-3.604948 v -2.70371 h -7.08588 v -0.901237 h 7.08588 3.54707 c 2.06175,0 2.83005,-1.438118 3.54707,-3.59668 0.74065,-2.222205 0.70914,-4.359215 0,-7.209895 -0.50953,-2.05249 -1.48269,-3.59668 -3.54707,-3.59668 z m -3.98529,17.106966 c 0.7354,1e-6 1.33119,0.602567 1.33119,1.347721 0,0.747805 -0.59579,1.355989 -1.33119,1.355989 -0.73278,0 -1.33118,-0.608184 -1.33118,-1.355989 0,-0.745154 0.5984,-1.347721 1.33118,-1.347721 z"
       style="fill:url(#linearGradient3029);fill-opacity:1;stroke-width:0.26458332"
       inkscape:connector-curvature="0" />
  </g>
  <path
     id="path4526"
     d="m 302.96701,171.76256 c 0.40955,5.46194 -8.94368,11.74286 -21.47158,14.23493 -11.50406,2.35541 -21.81307,0.71674 -24.71474,-3.58423 a 6.5486604,6.5486604 0 0 1 1.87766,-0.75112 l 43.21629,-9.76287 a 6.3626533,6.3626533 0 0 1 1.09237,-0.13679 z"
     style="fill:#3f3d56;stroke-width:1.08687127"
     inkscape:connector-curvature="0" />
  <path
     id="path4528"
     d="m 273.07863,310.41393 24.27383,-12.13688 -20.22817,-54.61613 -5.33105,-27.54349 a 20.825943,20.825943 0 0 0 -33.99969,-11.85487 v 0 a 20.825932,20.825932 0 0 0 -2.70905,28.82201 l 19.78887,24.73602 z"
     style="fill:#a0616a;stroke-width:1.08687127"
     inkscape:connector-curvature="0" />
  <path
     id="path4530"
     d="m 297.35246,288.16293 -32.36508,16.18246 24.56171,76.96034 a 33.667795,33.667795 0 0 0 24.27602,22.51605 v 0 a 33.667805,33.667805 0 0 0 36.66823,-15.43032 l 65.13062,-111.6368 a 34.367153,34.367153 0 0 0 -11.08137,-46.7159 v 0 a 34.367272,34.367272 0 0 0 -49.23105,13.87401 l -39.75341,84.70674 z"
     style="fill:#3f3d56;stroke-width:1.08687127"
     inkscape:connector-curvature="0" />
</svg>
