<svg width="15" height="13" viewBox="0 0 15 13" fill="none" xmlns="http://www.w3.org/2000/svg">
<path d="M12.2073 0.882584C12.4571 0.63448 12.7894 0.497317 13.1343 0.50004C13.4791 0.502762 13.8095 0.645157 14.0556 0.897177C14.3018 1.1492 14.4445 1.49113 14.4536 1.85082C14.4627 2.21052 14.3375 2.55984 14.1045 2.82508L7.02983 12.0565C6.90817 12.1933 6.76135 12.303 6.59813 12.3791C6.43491 12.4553 6.25865 12.4963 6.07989 12.4998C5.90112 12.5032 5.72353 12.469 5.55772 12.3992C5.39191 12.3294 5.2413 12.2255 5.11488 12.0935L0.423254 7.19846C0.2926 7.07144 0.187806 6.91826 0.115123 6.74806C0.0424401 6.57786 0.00335737 6.39413 0.000206956 6.20783C-0.00294346 6.02153 0.029903 5.83648 0.0967861 5.66371C0.163669 5.49094 0.263219 5.334 0.389497 5.20225C0.515775 5.07049 0.666194 4.96663 0.83178 4.89684C0.997367 4.82706 1.17473 4.79279 1.35329 4.79608C1.53184 4.79936 1.70793 4.84014 1.87106 4.91598C2.03418 4.99181 2.181 5.10115 2.30274 5.23747L6.01561 9.10951L12.1736 0.923285C12.1847 0.909041 12.1965 0.895453 12.2091 0.882584H12.2073Z" fill="url(#paint0_linear_3660_1593)"/>
<defs>
<linearGradient id="paint0_linear_3660_1593" x1="-5.42467e-08" y1="6.54257" x2="14.4541" y2="6.54257" gradientUnits="userSpaceOnUse">
<stop stop-color="#F2A900"/>
<stop offset="0.21567" stop-color="#FFD87D"/>
<stop offset="0.566876" stop-color="#FFE9B6"/>
<stop offset="1" stop-color="#F2A900"/>
</linearGradient>
</defs>
</svg>
