<?xml version="1.0" encoding="UTF-8" standalone="no"?>
<svg
   xmlns:dc="http://purl.org/dc/elements/1.1/"
   xmlns:cc="http://creativecommons.org/ns#"
   xmlns:rdf="http://www.w3.org/1999/02/22-rdf-syntax-ns#"
   xmlns:svg="http://www.w3.org/2000/svg"
   xmlns="http://www.w3.org/2000/svg"
   xmlns:sodipodi="http://sodipodi.sourceforge.net/DTD/sodipodi-0.dtd"
   xmlns:inkscape="http://www.inkscape.org/namespaces/inkscape"
   id="currentIllo"
   data-name="Layer 1"
   width="878.63"
   height="482.99997"
   viewBox="0 0 878.63005 482.99998"
   class="injected-svg DownloadModal__ImageFile-sc-p17csy-5 iIfSkb grid_media"
   version="1.1"
   sodipodi:docname="experienced-programmer.svg"
   inkscape:version="0.92.5 (0.92.5+69)">
  <metadata
     id="metadata1816">
    <rdf:RDF>
      <cc:Work
         rdf:about="">
        <dc:format>image/svg+xml</dc:format>
        <dc:type
           rdf:resource="http://purl.org/dc/dcmitype/StillImage" />
        <dc:title>programming</dc:title>
      </cc:Work>
    </rdf:RDF>
  </metadata>
  <sodipodi:namedview
     pagecolor="#ffffff"
     bordercolor="#666666"
     borderopacity="1"
     objecttolerance="10"
     gridtolerance="10"
     guidetolerance="10"
     inkscape:pageopacity="0"
     inkscape:pageshadow="2"
     inkscape:window-width="2560"
     inkscape:window-height="993"
     id="namedview1814"
     showgrid="false"
     inkscape:snap-bbox="true"
     inkscape:bbox-paths="true"
     inkscape:bbox-nodes="true"
     inkscape:snap-bbox-edge-midpoints="true"
     inkscape:snap-bbox-midpoints="true"
     fit-margin-top="0"
     fit-margin-left="0"
     fit-margin-right="0"
     fit-margin-bottom="0"
     inkscape:zoom="0.51294176"
     inkscape:cx="697.96113"
     inkscape:cy="-101.6007"
     inkscape:window-x="0"
     inkscape:window-y="384"
     inkscape:window-maximized="1"
     inkscape:current-layer="currentIllo" />
  <defs
     id="defs1657">
    <linearGradient
       id="dff037aa-d578-4bab-81e7-399360663117-582"
       x1="597.75"
       y1="725.44"
       x2="597.75"
       y2="347.69"
       gradientUnits="userSpaceOnUse">
      <stop
         offset="0"
         stop-color="gray"
         stop-opacity="0.25"
         id="stop1650" />
      <stop
         offset="0.54"
         stop-color="gray"
         stop-opacity="0.12"
         id="stop1652" />
      <stop
         offset="1"
         stop-color="gray"
         stop-opacity="0.1"
         id="stop1654" />
    </linearGradient>
  </defs>
  <title
     id="title1659">programming</title>
  <rect
     style="opacity:1;vector-effect:none;fill:none;fill-opacity:0.17647059;stroke:none;stroke-width:1.71638203;stroke-linecap:square;stroke-linejoin:bevel;stroke-miterlimit:4;stroke-dasharray:none;stroke-dashoffset:0;stroke-opacity:1"
     id="rect851"
     width="878.63"
     height="482.99997"
     x="0"
     y="0" />
  <g
     id="g1900"
     transform="matrix(0.84380064,0,0,0.84380064,-0.00907093,7.9705423)">
    <path
       id="path1661"
       transform="translate(-79.34,-172.91)"
       d="m 1040.82,611.12 q -1.74,3.75 -3.47,7.4 -2.7,5.67 -5.33,11.12 c -0.78,1.61 -1.56,3.19 -2.32,4.77 -8.6,17.57 -16.63,33.11 -23.45,45.89 A 73.21,73.21 0 0 1 942.44,719 l -151.65,1.65 h -1.6 l -13,0.14 -11.12,0.12 -34.1,0.37 h -1.38 l -17.36,0.19 h -0.53 l -107,1.16 -95.51,1 -11.11,0.12 -69,0.75 H 429 l -44.75,0.48 h -0.48 l -141.5,1.53 -42.33,0.46 A 88.07,88.07 0 0 1 173.27,723.15 86.39,86.39 0 0 1 134.18,698.4 C 116,678.37 102.75,655 93.85,629.64 q -1.93,-5.49 -3.6,-11.12 C 59.44,514.37 97,380 164.6,290.08 q 4.25,-5.64 8.64,-11 l 0.07,-0.08 c 20.79,-25.52 44.1,-46.84 68.93,-62 44,-26.91 92.75,-34.49 140.7,-11.9 40.57,19.12 78.45,28.11 115.17,30.55 3.71,0.24 7.42,0.42 11.11,0.53 84.23,2.65 163.17,-27.7 255.87,-47.29 3.69,-0.78 7.39,-1.55 11.12,-2.28 66.13,-13.16 139.49,-20.1 226.73,-5.51 a 189.09,189.09 0 0 1 26.76,6.4 q 5.77,1.86 11.12,4 c 41.64,16.94 64.35,48.24 74,87.46 q 1.37,5.46 2.37,11.11 c 17.11,94.34 -33,228.16 -76.37,321.05 z"
       inkscape:connector-curvature="0"
       style="opacity:0.1;fill:#f9d226" />
    <g
       id="g1675"
       style="opacity:0.1">
      <path
         id="path1663"
         transform="translate(-79.34,-172.91)"
         d="m 242.24,217 v 509.62 l -42.33,0.46 a 88.07,88.07 0 0 1 -26.67,-3.82 V 279 h 0.07 c 20.79,-25.55 44.1,-46.87 68.93,-62 z"
         inkscape:connector-curvature="0"
         style="fill:#f9d226" />
      <path
         id="path1665"
         transform="translate(-79.34,-172.91)"
         d="M 1117.24,290.08 H 164.6 q 4.25,-5.64 8.64,-11 V 279 h 941.63 q 1.37,5.43 2.37,11.08 z"
         inkscape:connector-curvature="0"
         style="fill:#f9d226" />
      <path
         id="path1667"
         transform="translate(-79.34,-172.91)"
         d="m 1040.82,191.51 v 427 h -3.47 q -2.7,5.67 -5.33,11.12 c -0.78,1.61 -1.56,3.19 -2.32,4.77 V 187.47 q 5.77,1.86 11.12,4.04 z"
         inkscape:connector-curvature="0"
         style="fill:#f9d226" />
      <path
         id="path1669"
         transform="translate(-79.34,-172.91)"
         d="m 776.21,186.58 v 534.25 l -11.12,0.12 V 188.86 c 3.69,-0.78 7.39,-1.55 11.12,-2.28 z"
         inkscape:connector-curvature="0"
         style="fill:#f9d226" />
      <path
         id="path1671"
         transform="translate(-79.34,-172.91)"
         d="m 509.22,236.15 v 487.58 l -11.11,0.12 V 235.62 c 3.71,0.24 7.42,0.38 11.11,0.53 z"
         inkscape:connector-curvature="0"
         style="fill:#f9d226" />
      <path
         id="path1673"
         transform="translate(-79.34,-172.91)"
         d="m 1037.35,618.52 q -2.7,5.67 -5.33,11.12 H 93.85 q -1.93,-5.49 -3.6,-11.12 z"
         inkscape:connector-curvature="0"
         style="fill:#f9d226" />
    </g>
    <rect
       id="rect1677"
       height="57.66"
       width="19"
       y="265.82999"
       x="211.60001"
       style="fill:#3f3d56" />
    <rect
       id="rect1679"
       height="61"
       width="19"
       y="262.82999"
       x="722.92999"
       style="fill:#3f3d56" />
    <polygon
       id="polygon1681"
       points="349.78,551.4 349.63,551.4 304.98,551.82 304.5,551.83 106.1,553.65 106.1,538.65 152.75,510.65 246.35,509.87 248.35,509.86 249.01,509.85 251.01,509.82 295.95,509.45 297.96,509.44 298.6,509.43 300.6,509.42 315.01,509.3 315.39,509.29 350.94,508.99 351.23,508.99 628.63,506.65 635.42,506.6 636.1,506.6 641.28,506.55 678.93,506.24 680.93,506.21 682.78,506.19 683.74,506.19 695.45,506.1 697.77,506.07 700.88,506.05 710.63,505.96 726.1,505.83 728.1,505.81 731.58,505.79 732.23,505.79 806.94,505.15 863.1,533.65 863.1,546.65 711.18,548.05 709.56,548.08 651.82,548.61 650.44,548.63 632.89,548.78 632.37,548.78 525.39,549.77 "
       style="fill:#65617d" />
    <polygon
       id="polygon1683"
       points="349.78,551.4 349.63,551.4 304.98,551.82 304.5,551.83 106.1,553.65 106.1,538.65 152.75,510.65 246.35,509.87 248.35,509.86 249.01,509.85 251.01,509.82 295.95,509.45 297.96,509.44 298.6,509.43 300.6,509.42 315.01,509.3 315.39,509.29 350.94,508.99 351.23,508.99 628.63,506.65 635.42,506.6 636.1,506.6 641.28,506.55 678.93,506.24 680.93,506.21 682.78,506.19 683.74,506.19 695.45,506.1 697.77,506.07 700.88,506.05 710.63,505.96 726.1,505.83 728.1,505.81 731.58,505.79 732.23,505.79 806.94,505.15 863.1,533.65 863.1,546.65 711.18,548.05 709.56,548.08 651.82,548.61 650.44,548.63 632.89,548.78 632.37,548.78 525.39,549.77 "
       style="opacity:0.2" />
    <path
       id="path1685"
       transform="translate(-79.34,-172.91)"
       d="m 375.44,656.57 v 24.49 a 6.13,6.13 0 0 1 -3.5,5.54 6,6 0 0 1 -2.5,0.6 l -34.9,0.74 a 6,6 0 0 1 -2.7,-0.57 6.12,6.12 0 0 1 -3.57,-5.57 v -25.23 z"
       inkscape:connector-curvature="0"
       style="fill:#3f3d56" />
    <path
       id="path1687"
       transform="translate(-79.34,-172.91)"
       d="m 375.44,656.57 v 24.49 a 6.13,6.13 0 0 1 -3.5,5.54 6,6 0 0 1 -2.5,0.6 l -34.9,0.74 a 6,6 0 0 1 -2.7,-0.57 6.12,6.12 0 0 1 -3.57,-5.57 v -25.23 z"
       inkscape:connector-curvature="0"
       style="opacity:0.1" />
    <path
       id="path1689"
       transform="translate(-79.34,-172.91)"
       d="m 377.44,656.57 v 24.49 a 6.13,6.13 0 0 1 -3.5,5.54 6,6 0 0 1 -2.5,0.6 l -34.9,0.74 a 6,6 0 0 1 -2.7,-0.57 6.12,6.12 0 0 1 -3.57,-5.57 v -25.23 z"
       inkscape:connector-curvature="0"
       style="fill:#3f3d56" />
    <rect
       id="rect1691"
       height="31.5"
       width="47.169998"
       y="483.66"
       x="680.92999"
       style="fill:#3f3d56" />
    <rect
       id="rect1693"
       height="31.5"
       width="47.169998"
       y="483.66"
       x="680.92999"
       style="opacity:0.1" />
    <rect
       id="rect1695"
       height="31.5"
       width="47.169998"
       y="483.66"
       x="678.92999"
       style="fill:#3f3d56" />
    <polygon
       id="polygon1697"
       points="230.6,271.55 211.6,271.06 211.6,265.82 230.6,265.82 "
       style="opacity:0.1" />
    <path
       id="path1699"
       transform="translate(-79.34,-172.91)"
       d="m 435,277.31 -22.83,164 a 4.3,4.3 0 0 1 -4.37,3.71 l -182.8,-4.74 -3.47,-0.09 a 4.3,4.3 0 0 1 -4.16,-4.87 L 243,263.64 a 4.3,4.3 0 0 1 4.54,-3.63 L 431,272.43 a 4.29,4.29 0 0 1 4,4.88 z"
       inkscape:connector-curvature="0"
       style="fill:#65617d" />
    <polygon
       id="polygon1701"
       points="156.6,250.49 324.6,255.82 345.26,109.82 175.93,99.16 "
       style="fill:#f9d226" />
    <rect
       id="rect1703"
       ry="5.3299999"
       rx="5.3299999"
       height="173.33"
       width="204.67"
       y="96.82"
       x="384.60001"
       style="fill:#65617d" />
    <rect
       id="rect1705"
       height="144.33"
       width="186"
       y="108.49"
       x="394.26001"
       style="fill:#f9d226" />
    <polygon
       id="polygon1707"
       points="741.93,266.61 722.93,267 722.93,262.82 741.93,262.82 "
       style="opacity:0.1" />
    <path
       id="path1709"
       transform="translate(-79.34,-172.91)"
       d="m 907,432.53 a 3.08,3.08 0 0 1 -3,3.28 l -187.2,3.87 a 3.08,3.08 0 0 1 -3.13,-2.79 L 697.58,269.61 a 3.08,3.08 0 0 1 2.92,-3.37 l 185.78,-9.24 2,-0.1 a 3.07,3.07 0 0 1 3.22,2.8 z"
       inkscape:connector-curvature="0"
       style="fill:#65617d" />
    <polygon
       id="polygon1711"
       points="798.6,94.82 812.93,246.82 644.6,250.82 628.93,103.16 "
       style="fill:#f9d226" />
    <path
       id="path1713"
       transform="translate(-79.34,-172.91)"
       d="m 907,432.53 a 3.08,3.08 0 0 1 -3,3.28 L 886.28,257 l 2,-0.1 a 3.07,3.07 0 0 1 3.22,2.8 z"
       inkscape:connector-curvature="0"
       style="opacity:0.1" />
    <path
       id="path1715"
       transform="translate(-79.34,-172.91)"
       d="M 247.57,260 225,440.28 l -3.47,-0.09 a 4.3,4.3 0 0 1 -4.16,-4.87 L 243,263.64 a 4.3,4.3 0 0 1 4.57,-3.64 z"
       inkscape:connector-curvature="0"
       style="opacity:0.1" />
    <rect
       id="rect1717"
       height="17.08"
       width="19"
       y="306.41"
       x="211.60001"
       style="opacity:0.1" />
    <polygon
       id="polygon1719"
       points="298.1,488.62 250.93,489.88 250.93,483.65 298.1,483.65 "
       style="opacity:0.1" />
    <path
       id="path1721"
       transform="translate(-79.34,-172.91)"
       d="m 460.69,485.27 v 168.2 a 4,4 0 0 1 -3.85,3.95 l -191.65,5.1 h -0.05 a 4,4 0 0 1 -3.95,-3.95 v -173.3 a 4,4 0 0 1 3.95,-3.95 h 191.6 a 4,4 0 0 1 3.95,3.95 z"
       inkscape:connector-curvature="0"
       style="fill:#65617d" />
    <path
       id="path1723"
       transform="translate(-79.34,-172.91)"
       d="m 265.19,481.32 v 181.2 h -0.05 a 4,4 0 0 1 -3.95,-3.95 v -173.3 a 4,4 0 0 1 3.95,-3.95 z"
       inkscape:connector-curvature="0"
       style="opacity:0.1" />
    <polygon
       id="polygon1725"
       points="372.1,319.15 372.1,467.4 194.6,471.4 194.6,319.15 "
       style="fill:#d4dfec" />
    <rect
       id="rect1727"
       height="17.42"
       width="19"
       y="306.41"
       x="722.92999"
       style="opacity:0.1" />
    <polygon
       id="polygon1729"
       points="726.1,490.06 678.93,488.8 678.93,483.65 726.1,483.65 "
       style="opacity:0.1" />
    <path
       id="path1731"
       transform="translate(-79.34,-172.91)"
       d="m 867.69,485.27 v 173.3 a 4,4 0 0 1 -4,3.95 v 0 L 672,657.42 a 4,4 0 0 1 -3.85,-3.95 v -168.2 a 4,4 0 0 1 3.95,-3.95 h 191.6 a 4,4 0 0 1 3.99,3.95 z"
       inkscape:connector-curvature="0"
       style="fill:#65617d" />
    <path
       id="path1733"
       transform="translate(-79.34,-172.91)"
       d="m 867.69,485.27 v 173.3 a 4,4 0 0 1 -4,3.95 v 0 -181.2 0 a 4,4 0 0 1 4,3.95 z"
       inkscape:connector-curvature="0"
       style="opacity:0.1" />
    <polygon
       id="polygon1735"
       points="598.1,319.15 598.1,467.4 775.6,471.4 775.6,319.15 "
       style="fill:#d4dfec" />
    <path
       id="path1737"
       transform="translate(-79.34,-172.91)"
       d="m 663.19,485.27 v 168.2 a 4,4 0 0 1 -3.85,3.95 l -191.65,5.1 v 0 a 4,4 0 0 1 -4,-3.95 v -173.3 a 4,4 0 0 1 3.95,-3.95 h 191.6 a 4,4 0 0 1 3.95,3.95 z"
       inkscape:connector-curvature="0"
       style="fill:#65617d" />
    <polygon
       id="polygon1739"
       points="574.6,319.15 574.6,467.4 397.1,471.4 397.1,319.15 "
       style="fill:#d4dfec" />
    <polygon
       id="polygon1741"
       points="349.78,551.4 349.63,551.4 304.98,551.82 304.5,551.83 106.1,553.65 106.1,538.65 308.61,537.32 309.09,537.32 350.08,537.04 350.27,537.04 633.35,535.17 633.64,535.17 633.81,535.16 634.28,535.16 639.07,535.13 640.53,535.13 715.02,534.63 719.42,534.61 720.4,534.6 863.1,533.65 863.1,546.65 711.18,548.05 709.56,548.08 651.82,548.61 650.44,548.63 632.89,548.78 632.37,548.78 525.39,549.77 "
       style="opacity:0.1" />
    <circle
       id="circle1743"
       r="51.330002"
       cy="272.16"
       cx="487.26001"
       style="fill:#fbbebe" />
    <path
       id="path1745"
       transform="translate(-79.34,-172.91)"
       d="m 383.74,725.09 c 0,-0.11 0.06,-0.23 0.1,-0.35 1,-3.59 2.78,-9.66 4.11,-14.51 0.17,-0.6 0.33,-1.19 0.48,-1.75 1.47,-5.47 4.33,-18.28 5.92,-26.27 0.56,-2.81 1,-5 1.09,-6.1 0.2,-1.69 3.21,-8.92 6.62,-17.23 2.39,-5.84 5,-12.22 6.91,-17.6 a 61.38,61.38 0 0 0 2.93,-9.85 5.1,5.1 0 0 0 0,-2.13 14.69,14.69 0 0 1 -0.48,-3.5 v 0 c -0.23,-6.2 1.62,-16 4.48,-20.11 3.5,-5 6,-23.66 6,-23.66 0,0 5.18,0.75 6,-3.53 a 6.15,6.15 0 0 0 0.1,-1.4 7.41,7.41 0 0 0 -0.09,-1.11 c -0.89,-6.24 14.72,-12.88 23.5,-14.31 a 19.67,19.67 0 0 1 3,-0.28 27.24,27.24 0 0 0 6.25,-1.44 q 1.4,-0.43 3,-1 c 3.68,-1.24 8.08,-2.88 12.75,-4.68 17.56,-6.81 38.82,-16 38.82,-16 0.15,-0.71 0.32,-1.39 0.51,-2.06 a 27.71,27.71 0 0 1 16.35,-18.93 v 0 c 0,-0.66 0,-1.33 0,-2 0,-3.45 -0.15,-7 -0.3,-10.54 0,-0.69 -0.06,-1.38 -0.1,-2.07 0,-0.2 0,-0.41 0,-0.61 0,-0.2 0,-0.35 0,-0.52 0,-0.7 -0.07,-1.4 -0.11,-2.09 l -0.18,-0.14 a 16.41,16.41 0 0 1 -3.9,-4.2 15.27,15.27 0 0 1 -1.42,-3 c -1.25,-3.39 -1.54,-7.17 -2.38,-10.75 l -0.18,-0.74 a 84,84 0 0 0 -4,-10.58 c -2.21,-5.42 -3.91,-11 -5.6,-16.65 q -1.54,-5.13 -3.11,-10.28 l -1.58,-5.24 c -0.3,-1 -0.6,-2 -0.83,-3 v 0 a 13.27,13.27 0 0 1 -0.26,-1.4 10,10 0 0 1 0.24,-4.61 32.09,32.09 0 0 1 1.32,-3 7.87,7.87 0 0 0 0.5,-1.38 v 0 a 3,3 0 0 0 0.08,-0.32 5.65,5.65 0 0 0 0.11,-1.08 18.46,18.46 0 0 0 -0.52,-3.89 0.07,0.07 0 0 1 0,-0.05 2.56,2.56 0 0 0 -0.05,-0.27 25.48,25.48 0 0 1 -0.36,-3 28.45,28.45 0 0 1 3.47,-15.57 l 0.19,-0.36 a 25.22,25.22 0 0 1 1.84,-2.78 v 0 c 0.31,-0.42 0.63,-0.82 1,-1.22 -1.4,1.34 -3.7,0.75 -5,-0.69 a 3.61,3.61 0 0 1 -0.55,-0.75 3.81,3.81 0 0 1 -0.23,-0.45 c -0.05,-0.12 -0.09,-0.25 -0.13,-0.38 -0.7,-2.45 0.52,-5.06 2.12,-7.05 a 18.49,18.49 0 0 1 5.74,-4.7 v 0 a 3.84,3.84 0 0 1 0.4,-0.21 17.12,17.12 0 0 1 2.64,-1.06 v 0 a 15.06,15.06 0 0 1 1.63,-0.44 l -3.71,-0.34 -1.5,-0.14 a 14.49,14.49 0 0 1 13,-10.91 h 1.08 a 11.73,11.73 0 0 1 1.57,0.13 4.44,4.44 0 0 1 -2.65,-4.33 14.41,14.41 0 0 0 9.19,3.06 h 0.38 a 30,30 0 0 1 -0.34,-3.27 v 0 a 33.19,33.19 0 0 1 0,-4.46 8.44,8.44 0 0 0 6.78,2.26 l -2.08,-2.9 a 9.49,9.49 0 0 0 6.56,2.05 l 0.48,-0.05 a 7,7 0 0 0 1.19,-0.23 h 0.09 c -0.19,-0.24 -0.36,-0.49 -0.53,-0.75 l -0.06,-0.12 a 9.67,9.67 0 0 1 -1,-2.09 6.59,6.59 0 0 1 -0.24,-0.87 v 0 a 8.75,8.75 0 0 1 0.45,-5.45 c 3.23,2.7 6.77,6.39 11,3.6 4.23,-2.79 4.37,-7.91 11,-7.39 a 10.2,10.2 0 0 1 8.41,6.12 6.75,6.75 0 0 1 7.67,-1.75 6.85,6.85 0 0 1 3.88,6.89 c 2.75,-0.69 5.71,-1.37 8.35,-0.33 2.64,1.04 4.34,4.41 2.84,6.66 a 1.43,1.43 0 0 1 -0.14,0.2 c -1.23,1.59 -3.95,2.46 -3.66,4.46 l 0.42,0.3 1.3,0.94 q 7.65,5.52 14.9,11.6 c 2.48,2.08 5.12,4.58 5.29,7.83 a 8.64,8.64 0 0 1 -0.24,2.37 v 0 c -0.16,0.78 -0.38,1.56 -0.55,2.34 a 19.51,19.51 0 0 0 -0.34,6.05 v 0 c 0.07,0.59 0.16,1.17 0.27,1.76 1.53,7.73 7.71,14.11 8.32,22 v 0.56 a 17.78,17.78 0 0 1 -0.07,2.53 c -0.46,4.8 -2.68,9.41 -4.48,14 -0.11,0.28 -0.22,0.56 -0.32,0.84 -3.47,9 -5.47,18.59 -7,28.16 a 100.26,100.26 0 0 1 -2,10.09 26.73,26.73 0 0 1 -5.09,10.43 16.22,16.22 0 0 1 -3.36,3 18.67,18.67 0 0 1 -2.65,1.41 c 0,0 0,0 0,0.06 0.11,0.61 0.2,1.22 0.31,1.83 0.06,0.32 0.11,0.64 0.17,1 v 0 a 0.14,0.14 0 0 0 0,0.06 c 0.84,4.73 1.8,9.36 2.81,13.76 l 0.51,2.19 c 12.6,4.55 14.09,13.87 14.18,17.44 a 9.64,9.64 0 0 1 0,1.43 c 0,0 19,0.5 26.5,6 a 20.34,20.34 0 0 0 4.51,2.3 83,83 0 0 0 9.25,2.89 c 1.61,0.42 3.29,0.83 5,1.23 3,0.69 6.18,1.36 9.25,2 8.19,1.65 15.9,3 19.81,4 9.33,2.36 30.67,22.82 30.67,22.82 0,0 2.5,20.64 5,23.65 2.5,3.01 7,13.59 7,13.59 l 16.54,29.41 7,12.37 h 4.5 c 0.62,0 1.84,0.88 3.21,2.1 1.19,1.06 2.51,2.38 3.67,3.58 l 1.92,2.05 1.2,1.33 c 0,0 7.27,0.18 9.24,5.93 5.92,-0.17 13.19,0.22 18.28,2.5 a 14.14,14.14 0 0 1 2,1.08 8.68,8.68 0 0 1 4.13,5.66 8.34,8.34 0 0 1 0.18,1.44 c 0,0.57 0,1.14 0,1.7 -0.36,7.57 -5.29,13.87 -9.82,18.11 l 0.32,0.57 c 0,0 -0.15,0.36 -0.44,1 -0.08,0.19 -0.18,0.4 -0.29,0.64 v 0 c -0.59,1.26 -1.53,3.15 -2.76,5.36 a 63.31,63.31 0 0 1 -9.57,13.17 l -0.29,0.3 -57.74,0.53 -0.17,-0.2 -11.2,-13.36 -5.57,-6.64 -0.17,-0.21 -0.16,1.59 -0.54,5.3 -1.3,12.81 -0.07,0.64 v 0.17 l -0.15,1.48 0.11,-1.48 h -0.29 l -107,1 -175.62,1.94 v 0.84 h -0.14 v -0.84 l -44.75,0.48 z"
       style="fill:url(#dff037aa-d578-4bab-81e7-399360663117-582)"
       inkscape:connector-curvature="0" />
    <path
       id="path1747"
       transform="translate(-79.34,-172.91)"
       d="m 617.94,550.07 c 0,0 -99.5,12 -90,0 3.44,-4.34 4.39,-17.2 4.2,-31.85 -0.06,-4.45 -0.22,-9.06 -0.45,-13.65 -1.1,-22 -3.75,-43.5 -3.75,-43.5 0,0 87,-41 77,-8.5 -4,13.13 -2.69,31.57 0.35,48.88 0.89,5.05 1.92,10 3,14.7 a 344.67,344.67 0 0 0 9.65,33.92 z"
       inkscape:connector-curvature="0"
       style="fill:#fbbebe" />
    <path
       id="path1749"
       transform="translate(-79.34,-172.91)"
       d="m 617.94,550.07 c 0,0 -99.5,12 -90,0 3.44,-4.34 4.39,-17.2 4.2,-31.85 15.17,-6.48 34.47,-1.65 34.47,-1.65 20.32,-4.05 33.35,-3.26 41.68,-0.42 a 344.67,344.67 0 0 0 9.65,33.92 z"
       inkscape:connector-curvature="0"
       style="opacity:0.1" />
    <path
       id="path1751"
       transform="translate(-79.34,-172.91)"
       d="m 429.08,725.44 v -0.84 l 175.62,-1.91 107,-1 h 0.3 l -0.11,1.48 0.15,-1.48 h 0.19 v -0.17 l 1.37,-13.45 0.52,-5.09 0.16,-1.59 0.14,-1.33 6.18,-20.61 6.18,-20.58 5.2,-17.33 7.94,-26.48 c 0,0 -4.5,-10.5 -7,-13.5 -2.5,-3 -5,-23.5 -5,-23.5 0,0 -21.34,-20.33 -30.67,-22.67 -3.91,-1 -11.63,-2.33 -19.83,-4 -3.07,-0.62 -6.22,-1.28 -9.25,-2 -1.71,-0.39 -3.39,-0.8 -5,-1.21 a 87.91,87.91 0 0 1 -9.25,-2.86 20.7,20.7 0 0 1 -4.5,-2.29 c -7.35,-5.39 -25.77,-6 -26.48,-6 v 0 a 0.42,0.42 0 0 1 0,-0.07 v -0.09 a 10.26,10.26 0 0 0 0,-1.26 c 0,-0.4 0,-0.87 -0.09,-1.4 0,-0.16 0,-0.33 -0.07,-0.5 -0.05,-0.36 -0.11,-0.74 -0.2,-1.14 a 5,5 0 0 0 -0.12,-0.53 17.21,17.21 0 0 0 -1.25,-3.49 c -0.07,-0.16 -0.16,-0.33 -0.24,-0.49 a 18.25,18.25 0 0 0 -1.7,-2.63 c -0.13,-0.17 -0.27,-0.35 -0.42,-0.52 a 19.58,19.58 0 0 0 -2.72,-2.64 c -0.27,-0.21 -0.55,-0.43 -0.84,-0.63 a 4.67,4.67 0 0 0 -0.51,-0.36 l -0.89,-0.58 -0.83,-0.48 c -0.73,-0.4 -1.5,-0.79 -2.34,-1.16 -0.26,-0.12 -0.54,-0.23 -0.82,-0.34 -0.28,-0.11 -0.72,-0.28 -1.09,-0.42 h -0.06 L 608,518 c -0.57,-0.19 -1.15,-0.36 -1.76,-0.53 l -0.93,-0.24 -1,-0.23 -1,-0.21 c -1,-0.2 -2.07,-0.38 -3.19,-0.52 l -1.14,-0.14 -1.17,-0.12 -1.21,-0.1 -1.72,-0.1 -2,-0.07 a 124.68,124.68 0 0 0 -26.24,2.79 72.27,72.27 0 0 0 -18.26,-1.68 h -0.87 l -1,0.06 h -0.64 l -1.29,0.12 c -0.43,0 -0.87,0.09 -1.3,0.15 -0.43,0.06 -0.88,0.11 -1.31,0.18 l -0.66,0.11 c -0.65,0.11 -1.31,0.23 -2,0.37 q -0.33,0.06 -0.66,0.15 c -0.87,0.19 -1.74,0.42 -2.6,0.68 -0.43,0.12 -0.86,0.26 -1.29,0.41 -0.22,0.06 -0.43,0.14 -0.64,0.22 l -0.64,0.23 -0.63,0.25 -0.75,0.3 c -0.38,0.16 -0.75,0.33 -1.12,0.51 -0.21,0.09 -0.42,0.19 -0.62,0.3 -0.2,0.11 -0.41,0.2 -0.6,0.31 a 27.75,27.75 0 0 0 -6.21,4.38 l -0.51,0.49 -0.5,0.51 c -0.17,0.17 -0.33,0.35 -0.49,0.53 a 23.82,23.82 0 0 0 -1.82,2.25 c -0.16,0.21 -0.31,0.42 -0.46,0.64 a 26.69,26.69 0 0 0 -1.72,2.92 c -0.13,0.24 -0.25,0.49 -0.37,0.73 a 32.7,32.7 0 0 0 -2,5.25 q -0.28,1 -0.51,2 c 0,0 -21.17,9.34 -38.73,16.1 -4.67,1.8 -9.07,3.43 -12.75,4.66 -1.07,0.36 -2.07,0.69 -3,1 a 26.7,26.7 0 0 1 -6.25,1.44 19.67,19.67 0 0 0 -3,0.28 c -8.07,1.31 -21.9,7 -23.41,12.71 a 3.69,3.69 0 0 0 -0.1,1.4 c 0,0 0,0.07 0,0.11 1,7 -6,6 -6,6 0,0 -2.5,18.5 -6,23.5 -2.53,3.6 -4.26,11.63 -4.48,17.69 v 0 a 19.61,19.61 0 0 0 0.44,5.63 c 0,0.05 0,0.1 0,0.14 0.4,1.34 -0.56,5 -2.19,9.69 -1.77,5.15 -4.35,11.55 -6.83,17.59 -3.74,9.12 -7.26,17.4 -7.48,19.22 -0.09,0.81 -0.35,2.26 -0.71,4.13 -1.46,7.62 -4.7,22.13 -6.3,28 -1.19,4.38 -2.92,10.38 -4.11,14.5 0,0.12 -0.07,0.24 -0.1,0.35 L 429,724.6 v 0.84 h 0.14 z"
       inkscape:connector-curvature="0"
       style="fill:#f9d226" />
    <path
       id="path1753"
       transform="translate(-79.34,-172.91)"
       d="m 445.44,607.57 c 0,0 57,29.5 77.5,26 z"
       inkscape:connector-curvature="0"
       style="opacity:0.1" />
    <path
       id="path1755"
       transform="translate(-79.34,-172.91)"
       d="m 561.44,595.57 c 0,0 55.5,18 74,20.5 18.5,2.5 -74,-20.5 -74,-20.5 z"
       inkscape:connector-curvature="0"
       style="opacity:0.1" />
    <path
       id="path1757"
       transform="translate(-79.34,-172.91)"
       d="m 623,537.65 c -29,5.34 -83.6,4.19 -107.2,3.38 8.65,-31 50.83,-20.46 50.83,-20.46 52.21,-10.42 56.21,11.2 56.37,17.08 z"
       inkscape:connector-curvature="0"
       style="opacity:0.1" />
    <path
       id="path1759"
       transform="translate(-79.34,-172.91)"
       d="m 623,535.65 c -29,5.34 -83.6,4.19 -107.2,3.38 8.65,-31 50.83,-20.46 50.83,-20.46 52.21,-10.42 56.21,11.2 56.37,17.08 z"
       inkscape:connector-curvature="0"
       style="fill:#f9d226" />
    <path
       id="path1761"
       transform="translate(-79.34,-172.91)"
       d="m 776.94,672.32 c 0,0 34.16,-5.25 34.83,9.75 0.67,15 -17.42,25.48 -17.42,25.48 z"
       inkscape:connector-curvature="0"
       style="fill:#fbbebe" />
    <path
       id="path1763"
       transform="translate(-79.34,-172.91)"
       d="m 605.29,501.45 a 47,47 0 0 1 -4.5,1.74 c -10.78,3.72 -21.65,7.47 -33,8.83 -11.35,1.36 -23.26,0.16 -33.16,-5.5 a 28.77,28.77 0 0 1 -3,-1.95 c -1.1,-22 -3.75,-43.5 -3.75,-43.5 0,0 87,-41 77,-8.5 -3.98,13.13 -2.63,31.57 0.41,48.88 z"
       inkscape:connector-curvature="0"
       style="opacity:0.1" />
    <path
       id="path1765"
       transform="translate(-79.34,-172.91)"
       d="m 552.52,364.84 a 9.47,9.47 0 0 1 -8.32,-1.75 l 2.08,2.89 a 8.47,8.47 0 0 1 -6.78,-2.25 34.08,34.08 0 0 0 0.32,7.75 14.52,14.52 0 0 1 -9.56,-3 4.42,4.42 0 0 0 2.64,4.31 14.34,14.34 0 0 0 -15.6,10.71 l 5.22,0.48 a 18.47,18.47 0 0 0 -10.44,6.37 c -1.6,2 -2.82,4.56 -2.12,7 0.7,2.44 4.08,4 5.92,2.26 a 27.94,27.94 0 0 0 -6.1,22.79 14.47,14.47 0 0 1 0.46,5.26 c -0.33,1.65 -1.37,3.08 -1.89,4.69 -1,2.92 -0.05,6.09 0.84,9 l 4.69,15.42 c 1.7,5.57 3.39,11.15 5.61,16.54 a 82.08,82.08 0 0 1 4,10.51 c 1.26,4.84 1.31,10.14 4,14.37 a 19.93,19.93 0 0 0 7.18,6.33 c 9.89,5.66 21.84,6.86 33.16,5.5 11.32,-1.36 22.18,-5.11 32.95,-8.83 a 31,31 0 0 0 6.84,-3 c 7.45,-4.88 9.11,-14.86 10.5,-23.65 1.55,-9.8 3.62,-19.58 7.29,-28.8 2.18,-5.49 5,-11.06 4.52,-16.94 -0.61,-7.81 -6.79,-14.14 -8.32,-21.82 a 19,19 0 0 1 0.07,-7.77 17.66,17.66 0 0 0 0.79,-4.7 c -0.17,-3.22 -2.81,-5.7 -5.29,-7.77 Q 609.11,380 600.52,374 c -0.29,-2 2.43,-2.86 3.66,-4.44 1.74,-2.23 -0.06,-5.77 -2.7,-6.81 -2.64,-1.04 -5.6,-0.36 -8.35,0.33 a 6.59,6.59 0 0 0 -11.55,-5.11 10.2,10.2 0 0 0 -8.42,-6.08 c -6.63,-0.52 -6.76,4.55 -11,7.34 -4.24,2.79 -7.74,-0.89 -11,-3.57 a 9.28,9.28 0 0 0 1.36,9.18 z"
       inkscape:connector-curvature="0"
       style="fill:#3f3d56" />
    <path
       id="path1767"
       transform="translate(-79.34,-172.91)"
       d="m 802.27,702.32 c 0,0 -0.89,2.12 -2.53,5.19 a 69,69 0 0 1 -9,13.17 l -0.27,0.29 h -1.62 l -57.74,0.53 h -1.38 l -0.17,-0.2 -11.2,-13.29 -4.22,-5.01 -0.17,-0.21 -0.36,-0.42 -0.2,-0.24 -0.26,-0.31 -8.21,-9.74 3,-12.5 5.11,-21.06 0.13,-0.51 1,-4 0.71,-3 2.38,-9.78 8.16,-33.65 14.5,7.5 15.29,27 8.21,14.5 h 4.5 c 0.85,0 2.8,1.64 4.76,3.53 0.7,0.67 1.4,1.38 2,2 1.78,1.84 3.19,3.42 3.19,3.42 0,0 7.29,0.16 9.25,5.9 a 7,7 0 0 1 0.25,0.85 40.3,40.3 0 0 0 2.53,6.56 c 1.29,2.81 2.91,6 4.55,9.19 3.05,5.85 6.15,11.42 7.29,13.44 l 0.14,0.25 z"
       inkscape:connector-curvature="0"
       style="fill:#f9d226" />
    <path
       id="path1769"
       transform="translate(-79.34,-172.91)"
       d="m 716.37,657.17 -0.1,1.43 v 0.1 l -0.17,2.3 -1.33,18.51 -1.61,22.3 -0.46,6.28 -1,13.44 v 0.17 l -107,1 -175.59,1.9 v 0.84 h -0.14 v -0.84 -0.28 l 0.45,-14.36 0.86,-28.06 0.74,-23.79 0.07,-2.37 a 10.53,10.53 0 0 1 11.42,-10.17 c 4.72,0.4 10.85,0.89 18.18,1.41 l 3,0.22 c 42.33,2.94 120.56,6.74 199.5,2 1.66,-0.09 3.33,-0.19 5,-0.31 12.24,-0.77 24.47,-1.76 36.58,-3 a 10.53,10.53 0 0 1 11.6,11.23 z"
       inkscape:connector-curvature="0"
       style="opacity:0.1" />
    <path
       id="path1771"
       transform="translate(-79.34,-172.91)"
       d="m 429.08,725.44 v -0.84 l 175.62,-1.91 107,-1 h 0.3 v -0.17 l 1,-13.44 0.43,-6 1.64,-22.61 1.29,-17.9 v -0.44 a 10.62,10.62 0 0 0 -0.11,-2.47 0.3,0.3 0 0 0 0,-0.1 10.39,10.39 0 0 0 -2,-4.64 10.54,10.54 0 0 0 -9.42,-4 c -12.11,1.24 -24.34,2.23 -36.58,3 -1.67,0.12 -3.34,0.22 -5,0.31 -78.94,4.69 -157.17,0.89 -199.5,-2 l -3,-0.22 c -7.33,-0.52 -13.46,-1 -18.18,-1.41 a 10.54,10.54 0 0 0 -11.24,8.53 11,11 0 0 0 -0.18,1.64 l -0.68,22.16 -0.93,28.07 -0.44,14.36 v 0.28 0.84 z"
       inkscape:connector-curvature="0"
       style="fill:#3f3d56" />
    <path
       id="path1773"
       transform="translate(-79.34,-172.91)"
       d="m 716.67,664.18 -1.23,15.33 -1.83,22.85 -0.46,5.72 -1,12.81 -0.06,0.64 v 0.17 0 l -0.15,1.48 0.11,-1.48 h -0.29 l -107,1 -175.65,1.9 v -0.28 l 0.49,-14.36 1,-28.06 0.64,-18.65 a 6.36,6.36 0 0 1 3.06,-5.25 6.25,6.25 0 0 1 3.78,-0.9 c 2.1,0.17 4.68,0.37 7.69,0.59 4.89,0.36 10.92,0.78 17.94,1.22 13,0.82 29.31,1.7 48,2.42 52,2 122.2,2.67 188.88,-3.17 3,-0.26 6.1,-0.55 9.13,-0.84 a 6.26,6.26 0 0 1 3.48,0.66 5.16,5.16 0 0 1 0.86,0.54 6.14,6.14 0 0 1 2,2.46 3.56,3.56 0 0 1 0.25,0.61 6.28,6.28 0 0 1 0.36,2.59 z"
       inkscape:connector-curvature="0"
       style="opacity:0.1" />
    <path
       id="path1775"
       transform="translate(-79.34,-172.91)"
       d="m 377.44,677.87 v 3.19 a 6.13,6.13 0 0 1 -3.5,5.54 l -40.1,0.77 a 6.12,6.12 0 0 1 -3.57,-5.57 v -3 z"
       inkscape:connector-curvature="0"
       style="opacity:0.1" />
    <polygon
       id="polygon1777"
       points="246.35,516.57 246.35,507.9 298.6,506.9 298.6,515.57 "
       style="fill:#3f3d56" />
    <polygon
       id="polygon1779"
       points="246.35,516.57 246.35,507.9 298.6,506.9 298.6,515.57 "
       style="opacity:0.1" />
    <polygon
       id="polygon1781"
       points="248.35,516.57 248.35,507.9 300.6,506.9 300.6,515.57 "
       style="fill:#3f3d56" />
    <g
       id="g1801"
       style="opacity:0.1">
      <path
         id="path1783"
         transform="translate(-79.34,-172.91)"
         d="m 552.93,361.56 a 9.75,9.75 0 0 1 -1.89,-4.34 9.49,9.49 0 0 0 0.42,4.6 9,9 0 0 0 1.47,-0.26 z"
         inkscape:connector-curvature="0" />
      <path
         id="path1785"
         transform="translate(-79.34,-172.91)"
         d="m 540.23,368.2 a 35.12,35.12 0 0 1 -0.37,-3.7 c 0,1.23 0,2.47 0,3.71 z"
         inkscape:connector-curvature="0" />
      <path
         id="path1787"
         transform="translate(-79.34,-172.91)"
         d="m 621.73,401.57 a 18.34,18.34 0 0 1 0.36,-2.65 18,18 0 0 0 0.8,-4.69 6.16,6.16 0 0 0 -0.16,-1.06 c -0.17,0.92 -0.44,1.84 -0.64,2.75 a 19.14,19.14 0 0 0 -0.36,5.65 z"
         inkscape:connector-curvature="0" />
      <path
         id="path1789"
         transform="translate(-79.34,-172.91)"
         d="m 600.93,370.67 1.09,0.79 a 19.71,19.71 0 0 0 2.57,-2.22 3.67,3.67 0 0 0 0.38,-3.64 3,3 0 0 1 -0.38,0.64 c -1.23,1.58 -3.95,2.45 -3.66,4.43 z"
         inkscape:connector-curvature="0" />
      <path
         id="path1791"
         transform="translate(-79.34,-172.91)"
         d="m 518.76,380.29 a 12.32,12.32 0 0 0 -0.87,2.28 18.16,18.16 0 0 1 5,-1.89 z"
         inkscape:connector-curvature="0" />
      <path
         id="path1793"
         transform="translate(-79.34,-172.91)"
         d="m 532.55,369.41 a 14.83,14.83 0 0 1 -1.88,-1.23 4.25,4.25 0 0 0 0.09,1.18 11.86,11.86 0 0 1 1.79,0.05 z"
         inkscape:connector-curvature="0" />
      <path
         id="path1795"
         transform="translate(-79.34,-172.91)"
         d="m 630.32,428.33 c -0.41,4.85 -2.67,9.52 -4.5,14.12 -3.67,9.22 -5.74,19 -7.29,28.81 -1.39,8.79 -3,18.77 -10.5,23.64 a 30,30 0 0 1 -6.83,3 c -10.78,3.73 -21.65,7.47 -33,8.83 -11.35,1.36 -23.26,0.17 -33.16,-5.49 a 20,20 0 0 1 -7.18,-6.33 c -2.67,-4.23 -2.72,-9.53 -4,-14.37 a 82.21,82.21 0 0 0 -4,-10.52 c -2.21,-5.38 -3.91,-11 -5.6,-16.53 q -2.35,-7.71 -4.69,-15.43 a 28.81,28.81 0 0 1 -1.14,-4.75 c -0.39,2.56 0.37,5.24 1.14,7.75 q 2.34,7.73 4.69,15.43 c 1.69,5.57 3.39,11.15 5.6,16.53 a 82.21,82.21 0 0 1 4,10.52 c 1.26,4.84 1.31,10.14 4,14.37 a 20,20 0 0 0 7.18,6.33 c 9.9,5.66 21.84,6.85 33.16,5.49 11.32,-1.36 22.18,-5.1 33,-8.83 a 30,30 0 0 0 6.83,-3 c 7.45,-4.87 9.11,-14.85 10.5,-23.64 1.55,-9.81 3.62,-19.59 7.29,-28.81 2.18,-5.48 5,-11.05 4.52,-16.94 0,-0.06 -0.02,-0.12 -0.02,-0.18 z"
         inkscape:connector-curvature="0" />
      <path
         id="path1797"
         transform="translate(-79.34,-172.91)"
         d="m 510.63,424.46 c 0,0 0,-0.07 0,-0.11 a 14,14 0 0 0 -0.46,-5.25 26.59,26.59 0 0 1 -0.39,-3.32 27.35,27.35 0 0 0 0.39,6.32 c 0.16,0.78 0.34,1.57 0.46,2.36 z"
         inkscape:connector-curvature="0" />
      <path
         id="path1799"
         transform="translate(-79.34,-172.91)"
         d="m 513.68,400 a 27.74,27.74 0 0 1 2.61,-3.67 c -1.83,1.75 -5.21,0.19 -5.92,-2.24 a 5.83,5.83 0 0 0 0,3 4.39,4.39 0 0 0 3.31,2.91 z"
         inkscape:connector-curvature="0" />
    </g>
    <path
       id="path1803"
       transform="translate(-79.34,-172.91)"
       d="m 763.44,656.57 c 0,0 3.17,11.5 0,21.5 -3.17,10 0,-21.5 0,-21.5 z"
       inkscape:connector-curvature="0"
       style="opacity:0.1" />
    <path
       id="path1805"
       transform="translate(-79.34,-172.91)"
       d="m 776.94,668.3 c 0,0 1.33,14.6 -1.67,17.19 -3,2.59 1.67,-17.19 1.67,-17.19 z"
       inkscape:connector-curvature="0"
       style="opacity:0.1" />
    <line
       id="line1807"
       stroke-miterlimit="10"
       y2="341.85999"
       x2="300.60001"
       y1="342.85999"
       x1="198.99001"
       style="fill:none;stroke:#6c63ff;stroke-width:2;stroke-miterlimit:10" />
    <line
       id="line1809"
       stroke-miterlimit="10"
       y2="354.34"
       x2="300.60001"
       y1="355.32999"
       x1="198.99001"
       style="fill:none;stroke:#6c63ff;stroke-width:2;stroke-miterlimit:10" />
    <line
       id="line1811"
       stroke-miterlimit="10"
       y2="366.81"
       x2="300.60001"
       y1="367.81"
       x1="198.99001"
       style="fill:none;stroke:#6c63ff;stroke-width:2;stroke-miterlimit:10" />
  </g>
</svg>
