<?xml version="1.0" encoding="UTF-8" standalone="no"?>
<svg
   xmlns:dc="http://purl.org/dc/elements/1.1/"
   xmlns:cc="http://creativecommons.org/ns#"
   xmlns:rdf="http://www.w3.org/1999/02/22-rdf-syntax-ns#"
   xmlns:svg="http://www.w3.org/2000/svg"
   xmlns="http://www.w3.org/2000/svg"
   xmlns:xlink="http://www.w3.org/1999/xlink"
   xmlns:sodipodi="http://sodipodi.sourceforge.net/DTD/sodipodi-0.dtd"
   xmlns:inkscape="http://www.inkscape.org/namespaces/inkscape"
   data-name="Layer 1"
   width="894.28571"
   height="466.58386"
   viewBox="0 0 894.2857 466.58386"
   version="1.1"
   id="svg39"
   sodipodi:docname="figurante.svg"
   inkscape:version="0.92.5 (0.92.5+69)">
  <metadata
     id="metadata45">
    <rdf:RDF>
      <cc:Work
         rdf:about="">
        <dc:format>image/svg+xml</dc:format>
        <dc:type
           rdf:resource="http://purl.org/dc/dcmitype/StillImage" />
        <dc:title />
      </cc:Work>
    </rdf:RDF>
  </metadata>
  <defs
     id="defs43">
    <linearGradient
       inkscape:collect="always"
       xlink:href="#linearGradient4689"
       id="linearGradient2995"
       gradientUnits="userSpaceOnUse"
       gradientTransform="matrix(0.14883897,0,0,0.15027592,-140.8619,-42.508833)"
       x1="26.648937"
       y1="20.603781"
       x2="135.66525"
       y2="114.39767" />
    <linearGradient
       id="linearGradient4689">
      <stop
         id="stop4691"
         offset="0"
         style="stop-color:#5a9fd4;stop-opacity:1;" />
      <stop
         id="stop4693"
         offset="1"
         style="stop-color:#306998;stop-opacity:1;" />
    </linearGradient>
    <linearGradient
       inkscape:collect="always"
       xlink:href="#linearGradient4671"
       id="linearGradient2997"
       gradientUnits="userSpaceOnUse"
       gradientTransform="matrix(0.14883897,0,0,0.15027592,-140.8619,-42.508833)"
       x1="150.96111"
       y1="192.35176"
       x2="112.03144"
       y2="137.27299" />
    <linearGradient
       id="linearGradient4671">
      <stop
         id="stop4673"
         offset="0"
         style="stop-color:#ffd43b;stop-opacity:1;" />
      <stop
         id="stop4675"
         offset="1"
         style="stop-color:#ffe873;stop-opacity:1" />
    </linearGradient>
  </defs>
  <sodipodi:namedview
     pagecolor="#ffffff"
     bordercolor="#666666"
     borderopacity="1"
     objecttolerance="10"
     gridtolerance="10"
     guidetolerance="10"
     inkscape:pageopacity="0"
     inkscape:pageshadow="2"
     inkscape:window-width="2560"
     inkscape:window-height="1003"
     id="namedview41"
     showgrid="false"
     fit-margin-top="0"
     fit-margin-left="0"
     fit-margin-right="0"
     fit-margin-bottom="0"
     inkscape:zoom="0.34826932"
     inkscape:cx="546.81157"
     inkscape:cy="345.53018"
     inkscape:window-x="0"
     inkscape:window-y="0"
     inkscape:window-maximized="1"
     inkscape:current-layer="svg39" />
  <rect
     y="0"
     x="0"
     height="466.58386"
     width="894.28571"
     id="rect3286"
     style="opacity:1;vector-effect:none;fill:none;fill-opacity:0.21568627;stroke:none;stroke-width:9.26559448;stroke-linecap:round;stroke-linejoin:round;stroke-miterlimit:4;stroke-dasharray:none;stroke-dashoffset:0;stroke-opacity:1" />
  <path
     inkscape:connector-curvature="0"
     style="fill:#5aa02c;stroke-width:0.82185084"
     d="m 196.24545,373.99564 c -16.03499,11.95331 -20.5795,32.9847 -20.5795,32.9847 0,0 21.45334,1.65135 37.48835,-10.30199 16.035,-11.95331 20.5795,-32.9847 20.5795,-32.9847 0,0 -21.45333,-1.65126 -37.48835,10.30199 z"
     id="path2" />
  <path
     inkscape:connector-curvature="0"
     style="fill:#71c837;stroke-width:0.82185084"
     d="m 202.92493,379.60775 c -7.70658,18.45563 -27.0075,27.96612 -27.0075,27.96612 0,0 -6.80607,-20.41204 0.90049,-38.8677 7.70657,-18.45566 27.00745,-27.96612 27.00745,-27.96612 0,0 6.80613,20.41204 -0.90044,38.8677 z"
     id="path4-6" />
  <path
     inkscape:connector-curvature="0"
     style="fill:#cacaca;stroke-width:0.82185084"
     d="m 664.26557,326.25481 v 0 a 159.97893,159.97893 0 0 1 -1.34238,-34.67836 l 1.34238,-19.15487 v 0 c -7.39681,14.71796 -5.72514,34.08939 0,53.8332 z"
     id="path6-7" />
  <path
     inkscape:connector-curvature="0"
     style="fill:#cacaca;stroke-width:0.82185084"
     d="m 670.0334,329.45917 v 0 a 117.59913,117.59913 0 0 1 -0.64588,-20.6419 l 0.64588,-11.40171 v 0 c -3.55882,8.76072 -2.75453,20.29131 0,32.04361 z"
     id="path8-5" />
  <path
     inkscape:connector-curvature="0"
     style="fill:#ffffff;stroke-width:0.82185084;fill-opacity:1"
     d="m 695.67126,343.5599 v 6.40869 a 1.9325823,1.9325823 0 0 1 -1.92262,1.92262 h -3.20439 a 0.63857812,0.63857812 0 0 0 -0.64088,0.64087 v 52.55152 a 1.9325741,1.9325741 0 0 1 -1.92262,1.92261 H 648.8876 a 1.9240844,1.9240844 0 0 1 -1.92261,-1.92261 v -52.55152 a 0.64281887,0.64281887 0 0 0 -0.64088,-0.64087 h -3.8452 a 1.9240926,1.9240926 0 0 1 -1.92259,-1.92262 v -6.40869 a 1.9199669,1.9199669 0 0 1 1.92259,-1.92262 h 51.26979 a 1.9283909,1.9283909 0 0 1 1.92256,1.92262 z"
     id="path10-3" />
  <rect
     style="fill:#c8c8c8;stroke-width:0.82185084;fill-opacity:1"
     x="647.02258"
     y="353.23706"
     width="42.938427"
     height="1.9226133"
     id="rect12" />
  <path
     inkscape:connector-curvature="0"
     style="fill:#bd8f6d;stroke-width:1.09724629;fill-opacity:1"
     d="m 689.9034,390.34734 c -14.36816,10.59851 -28.89307,10.71527 -43.57929,0 v -24.14347 a 68.438627,121.98981 0 0 1 43.57929,0 z"
     id="path14-5" />
  <circle
     style="fill:#feb8b8;stroke-width:0.82185084"
     id="fff0188c-9915-4c0d-8339-9317a77083e8"
     data-name="Ellipse 276"
     cx="449.22842"
     cy="116.3513"
     r="58.076832" />
  <path
     inkscape:connector-curvature="0"
     style="fill:#2f2e41;stroke-width:0.82185084"
     id="ac220ed6-7c3f-4d1e-8d82-3295770c496a-98"
     data-name="Path 1461"
     d="M 503.47277,66.247449 A 67.07434,67.07434 0 0 0 465.31425,37.078597 l -7.12989,5.202967 v -6.755903 a 61.739745,61.739745 0 0 0 -11.53227,-0.671789 l -6.15128,5.56574 v -5.103341 a 66.433856,66.433856 0 0 0 -45.82911,27.25988 c -13.35842,19.257828 -15.61339,46.049649 -2.4744,65.461989 3.60637,-11.08441 7.98415,-21.48477 11.59164,-32.568095 a 32.804762,32.804762 0 0 0 8.5462,0.04131 l 4.38786,-10.239087 1.22602,9.805802 c 13.60137,-1.184615 33.77501,-3.786623 46.66879,-6.170327 l -1.25398,-7.522863 7.50159,6.250995 c 3.9501,-0.909156 6.29572,-1.73432 6.10205,-2.364663 9.5897,15.460008 21.32577,25.334078 30.91438,40.794048 3.64222,-21.79943 7.83417,-39.925304 -4.40908,-59.817916 z" />
  <path
     inkscape:connector-curvature="0"
     style="fill:#00b0ff;stroke-width:0.82185084"
     d="m 574.13525,265.69785 c -1.99711,-12.01487 -4.05708,-24.26038 -9.64105,-35.08393 -3.66998,-7.08952 -9.49561,-13.84543 -17.34895,-15.24723 a 16.783427,16.783427 0 0 1 -4.51739,-1.04576 c -2.30105,-1.10842 -33.22344,-18.76066 -38.13827,-21.83516 -4.21997,-2.6394 -10.88148,-7.52652 -14.24041,-7.52652 -3.37915,-0.0742 -16.33648,2.94142 -66.90995,-1.01194 0,0 -13.89327,5.47615 -24.64354,12.11644 -0.16308,-0.10747 -52.49081,27.9925 -54.45668,27.91854 -3.72302,-0.15687 -7.18362,2.22699 -9.31794,5.22877 -2.13377,3.00172 -3.13477,6.71783 -4.18279,10.31075 11.42929,25.45273 21.88655,50.93799 33.31693,76.39072 a 6.5178361,6.5178361 0 0 1 0.82661,3.13501 7.6511358,7.6511358 0 0 1 -1.42197,3.13497 c -5.6053,9.00412 -5.42707,20.32929 -4.81477,30.91214 0.61285,10.58285 1.37057,21.76129 -3.3589,31.24693 -1.28639,2.60425 -2.95928,4.98801 -4.1828,7.59226 -2.86525,5.89825 -3.9007,24.76306 -2.22721,31.10019 l 209.67113,6.00666 c -4.50819,-12.39212 15.58795,-163.34284 15.58795,-163.34284 z"
     id="path18" />
  <path
     inkscape:connector-curvature="0"
     style="fill:#fbbebe;stroke-width:0.82185084"
     id="bb46eb08-8e3e-4ac5-913b-26d221d967b9-99"
     data-name="Path 1421"
     d="m 312.61447,317.04111 a 37.018572,37.018572 0 0 0 -0.1254,9.12952 l 3.00513,43.15765 c 0.28213,4.06768 0.55982,8.12525 0.94162,12.1828 0.72104,7.87442 1.79814,15.68616 3.13499,23.48666 a 4.1829415,4.1829415 0 0 0 4.28709,4.06764 c 13.22851,2.7991 26.89599,2.68718 40.39661,1.92467 20.60134,-1.14986 73.3073,-3.32529 76.52738,-7.5083 3.22008,-4.183 1.34359,-10.94894 -2.8551,-14.33139 -4.1987,-3.38241 -73.7518,-11.62861 -73.7518,-11.62861 0.67961,-5.38549 2.72969,-10.45749 4.6745,-15.5708 3.49326,-9.06904 6.7559,-18.43597 6.8186,-28.1511 0.0627,-9.7151 -3.5974,-19.92956 -11.5558,-25.49532 -6.54654,-4.56923 -14.97518,-5.41679 -22.95265,-5.22868 -5.80422,0.1668 -15.83283,-1.22379 -21.13433,1.04577 -4.19522,1.84741 -6.62709,8.81159 -7.41084,12.91949 z" />
  <path
     inkscape:connector-curvature="0"
     style="fill:#00b0ff;stroke-width:0.82185084"
     id="efe93a1e-ccdd-49fd-af5f-e26394aa0937-100"
     data-name="Path 1430"
     d="m 330.13348,240.29656 a 10.823464,10.823464 0 0 0 -2.32101,3.71272 175.53737,175.53737 0 0 0 -14.74452,60.25451 6.0235586,6.0235586 0 0 1 -0.67962,2.91781 12.767174,12.767174 0 0 1 -1.53726,1.6626 5.7728612,5.7728612 0 0 0 0.69035,8.13482 q 0.14258,0.12021 0.29267,0.2311 c 1.72537,-3.24698 5.85569,-4.3084 9.52702,-4.59051 17.57833,-1.39056 34.74913,6.78728 52.3801,6.17033 -1.24391,-4.29828 -3.03309,-8.42867 -4.0475,-12.77848 -4.4864,-19.31486 6.70328,-40.34395 -0.15674,-58.9479 -1.37043,-3.72279 -3.66009,-7.3829 -7.26757,-9.01419 a 19.358919,19.358919 0 0 0 -4.65323,-1.23161 c -4.45505,-0.80504 -13.32371,-4.24569 -17.63096,-2.86517 -1.58989,0.51284 -2.21688,2.00752 -3.5347,2.91108 -2.00191,1.2787 -4.65769,1.74892 -6.317,3.43289 z" />
  <path
     inkscape:connector-curvature="0"
     style="fill:#fbbebe;stroke-width:0.82185084"
     id="a38c3c09-000b-42b7-8619-0229d8aff5e9-101"
     data-name="Path 1421"
     d="m 574.26071,304.12158 c -5.30149,-2.26955 -15.3301,-0.87896 -21.13433,-1.04576 -7.97743,-0.18824 -16.40606,0.65945 -22.95264,5.22871 -7.95842,5.56573 -11.61852,15.78019 -11.55581,25.49529 0.0628,9.71513 3.32532,19.08206 6.81859,28.1511 1.94483,5.11334 3.9949,10.18534 4.6745,15.57079 0,0 -69.55312,8.24621 -73.75178,11.62862 -4.19863,3.38245 -6.07515,10.14839 -2.8551,14.33139 3.22005,4.18301 103.69544,8.38276 116.92397,5.58366 a 4.1829415,4.1829415 0 0 0 4.2871,-4.06764 c 1.33685,-7.80053 2.41396,-15.61224 3.135,-23.48669 0.38179,-4.05752 0.65945,-8.11513 0.94162,-12.18277 l 3.00513,-43.15765 a 37.018572,37.018572 0 0 0 -0.12549,-9.12955 c -0.78367,-4.10787 -3.21555,-11.07205 -7.41085,-12.9195 z" />
  <path
     inkscape:connector-curvature="0"
     style="fill:#00b0ff;stroke-width:0.82185084"
     id="bd3879bf-5d05-49be-b690-c4d97e29a2ab-102"
     data-name="Path 1430"
     d="m 557.83561,236.8637 c -1.31784,-0.90356 -1.94483,-2.39827 -3.53471,-2.91107 -4.30725,-1.38053 -13.17591,2.06013 -17.63096,2.86513 a 19.358919,19.358919 0 0 0 -4.65323,1.23161 c -3.60748,1.63132 -5.89713,5.2914 -7.26756,9.01422 -6.86003,18.60395 4.32965,39.63301 -0.15686,58.9479 -1.0144,4.34981 -2.80357,8.4802 -4.04749,12.77848 17.63097,0.61695 34.80177,-7.56092 52.38012,-6.17033 3.67128,0.28205 7.80164,1.34353 9.52698,4.59051 q 0.15003,-0.11089 0.29261,-0.2311 a 5.7728612,5.7728612 0 0 0 0.69038,-8.13482 12.767174,12.767174 0 0 1 -1.53726,-1.66263 6.0235586,6.0235586 0 0 1 -0.67961,-2.91778 175.53737,175.53737 0 0 0 -14.74454,-60.2545 10.823464,10.823464 0 0 0 -2.32102,-3.71276 c -1.65931,-1.68397 -4.31509,-2.15419 -6.31701,-3.43286 z" />
  <circle
     style="fill:#fbbebe;stroke-width:0.82185084"
     cx="432.02792"
     cy="395.45154"
     r="15.674956"
     id="circle24" />
  <circle
     style="fill:#fbbebe;stroke-width:0.82185084"
     cx="466.73672"
     cy="395.45154"
     r="15.674956"
     id="circle26" />
  <path
     inkscape:connector-curvature="0"
     style="fill:#3f3d56;stroke-width:0.82185084"
     d="M 563.49441,430.77299 H 348.14416 a 9.4943254,9.4943254 0 0 1 -9.48359,-9.48303 V 290.6431 a 9.4943254,9.4943254 0 0 1 9.48359,-9.48307 h 215.35025 a 9.4943254,9.4943254 0 0 1 9.48356,9.48307 v 130.64686 a 9.4943254,9.4943254 0 0 1 -9.48356,9.48303 z"
     id="path28" />
  <circle
     style="fill:#ffffff;stroke-width:0.82185084"
     id="bf1cdf42-3b4f-4239-91c9-f6802a29e918"
     data-name="Ellipse 263"
     cx="455.29691"
     cy="355.96655"
     r="6.2744617" />
  <polygon
     transform="matrix(0.82185086,0,0,0.82185086,86.091489,34.814942)"
     style="fill:#7f5337;fill-opacity:1"
     points="51.97,483 826.68,483 826.68,476.724 878.63,476.724 878.63,449.724 0,449.724 0,476.724 51.97,476.724 "
     id="polygon31" />
  <path
     inkscape:connector-curvature="0"
     style="fill:#00b0ff;stroke-width:0.82185084"
     d="m 395.823,137.9977 v 0 c -9.33178,0 -16.89671,-8.17942 -16.89671,-18.26932 v 0 -9.13467 c 0,-10.08987 7.56492,-18.26929 16.8967,-18.26929 v 0 45.67328 z"
     id="path33" />
  <path
     inkscape:connector-curvature="0"
     style="fill:#00b0ff;stroke-width:0.82185084"
     d="m 503.66934,92.32442 v 0 c 9.33179,0 16.89671,8.17945 16.89671,18.26929 v 9.13467 c 0,10.08986 -7.56492,18.26932 -16.89671,18.26932 v 0 z"
     id="path35" />
  <path
     inkscape:connector-curvature="0"
     style="fill:#00b0ff;stroke-width:0.82185084"
     d="m 512.52343,112.02918 h -2.68088 c 0,-36.761383 -27.66053,-66.66911 -61.66018,-66.66911 -33.99947,0 -61.66024,29.907727 -61.66024,66.66911 h -2.68087 c 0,-38.35981 28.8633,-69.567755 64.34104,-69.567755 35.47806,1.6e-5 64.34113,31.20797 64.34113,69.567755 z"
     id="path37" />
  <g
     transform="matrix(0.9549874,0,0,0.9549874,784.80345,402.53756)"
     id="g2993">
    <path
       id="path2989"
       d="m -122.3649,-39.412338 c -1.21276,0.0056 -2.37092,0.109066 -3.38998,0.289388 -3.00201,0.530358 -3.54707,1.640444 -3.54707,3.68763 v 2.703711 h 7.09414 v 0.901237 h -7.09414 -2.66237 c -2.06175,0 -3.86708,1.239233 -4.43177,3.59668 -0.65135,2.70218 -0.68024,4.388385 0,7.209895 0.50428,2.100224 1.70856,3.59668 3.77032,3.59668 h 2.43912 v -3.241146 c 0,-2.341536 2.02596,-4.406965 4.43177,-4.406966 h 7.08588 c 1.97245,0 3.54707,-1.624056 3.54707,-3.604948 v -6.755143 c 0,-1.922552 -1.62189,-3.366764 -3.54707,-3.68763 -1.21867,-0.202863 -2.48314,-0.295023 -3.6959,-0.289388 z m -3.83646,2.174544 c 0.73278,0 1.33119,0.608184 1.33119,1.35599 -1e-5,0.745155 -0.59841,1.347721 -1.33119,1.347721 -0.7354,0 -1.33118,-0.602566 -1.33118,-1.347721 0,-0.747806 0.59578,-1.35599 1.33118,-1.35599 z"
       style="fill:url(#linearGradient2995);fill-opacity:1;stroke-width:0.26458332"
       inkscape:connector-curvature="0" />
    <path
       id="path2991"
       d="m -114.23723,-31.830372 v 3.150195 c 0,2.442304 -2.0706,4.497917 -4.43177,4.497917 h -7.08588 c -1.94093,0 -3.54707,1.661182 -3.54707,3.604948 v 6.755142 c 0,1.922553 1.6718,3.053376 3.54707,3.604948 2.24561,0.6602968 4.39903,0.7796292 7.08588,0 1.78598,-0.517099 3.54707,-1.557763 3.54707,-3.604948 v -2.70371 h -7.08588 v -0.901237 h 7.08588 3.54707 c 2.06175,0 2.83005,-1.438118 3.54707,-3.59668 0.74065,-2.222205 0.70914,-4.359215 0,-7.209895 -0.50953,-2.05249 -1.48269,-3.59668 -3.54707,-3.59668 z m -3.98529,17.106966 c 0.7354,1e-6 1.33119,0.602567 1.33119,1.347721 0,0.747805 -0.59579,1.355989 -1.33119,1.355989 -0.73278,0 -1.33118,-0.608184 -1.33118,-1.355989 0,-0.745154 0.5984,-1.347721 1.33118,-1.347721 z"
       style="fill:url(#linearGradient2997);fill-opacity:1;stroke-width:0.26458332"
       inkscape:connector-curvature="0" />
  </g>
  <rect
     style="opacity:1;vector-effect:none;fill:#9e6c47;fill-opacity:1;stroke:none;stroke-width:4.30049753;stroke-linecap:round;stroke-linejoin:round;stroke-miterlimit:4;stroke-dasharray:none;stroke-dashoffset:0;stroke-opacity:1"
     id="rect879"
     width="636.69611"
     height="5.1579447"
     x="128.80309"
     y="426.61096" />
</svg>
