<?xml version="1.0" encoding="UTF-8" standalone="no"?>
<svg
   xmlns:dc="http://purl.org/dc/elements/1.1/"
   xmlns:cc="http://creativecommons.org/ns#"
   xmlns:rdf="http://www.w3.org/1999/02/22-rdf-syntax-ns#"
   xmlns:svg="http://www.w3.org/2000/svg"
   xmlns="http://www.w3.org/2000/svg"
   xmlns:sodipodi="http://sodipodi.sourceforge.net/DTD/sodipodi-0.dtd"
   xmlns:inkscape="http://www.inkscape.org/namespaces/inkscape"
   id="59725d3d-bdd8-4af0-9b66-49b8d09410bc"
   data-name="Layer 1"
   width="1046.4829"
   height="549.68134"
   viewBox="0 0 1046.483 549.68135"
   version="1.1"
   sodipodi:docname="headline-img.svg"
   inkscape:version="0.92.5 (0.92.5+69)">
  <metadata
     id="metadata168">
    <rdf:RDF>
      <cc:Work
         rdf:about="">
        <dc:format>image/svg+xml</dc:format>
        <dc:type
           rdf:resource="http://purl.org/dc/dcmitype/StillImage" />
        <dc:title>programming</dc:title>
      </cc:Work>
    </rdf:RDF>
  </metadata>
  <sodipodi:namedview
     pagecolor="#ffffff"
     bordercolor="#666666"
     borderopacity="1"
     objecttolerance="10"
     gridtolerance="10"
     guidetolerance="10"
     inkscape:pageopacity="0"
     inkscape:pageshadow="2"
     inkscape:window-width="2560"
     inkscape:window-height="993"
     id="namedview166"
     showgrid="false"
     inkscape:zoom="0.79856107"
     inkscape:cx="-86.577439"
     inkscape:cy="356.81062"
     inkscape:window-x="0"
     inkscape:window-y="384"
     inkscape:window-maximized="1"
     inkscape:current-layer="59725d3d-bdd8-4af0-9b66-49b8d09410bc"
     fit-margin-top="0"
     fit-margin-left="0"
     fit-margin-right="0"
     fit-margin-bottom="0" />
  <defs
     id="defs9">
    <linearGradient
       id="dff037aa-d578-4bab-81e7-399360663117"
       x1="597.75"
       y1="725.44"
       x2="597.75"
       y2="347.69"
       gradientUnits="userSpaceOnUse"
       gradientTransform="rotate(0.60667148,17124.907,-10830.517)">
      <stop
         offset="0"
         stop-color="gray"
         stop-opacity="0.25"
         id="stop2" />
      <stop
         offset="0.54"
         stop-color="gray"
         stop-opacity="0.12"
         id="stop4" />
      <stop
         offset="1"
         stop-color="gray"
         stop-opacity="0.1"
         id="stop6" />
    </linearGradient>
  </defs>
  <title
     id="title11">programming</title>
  <path
     d="m 962.1866,441.10987 q -1.77961,3.73137 -3.54816,7.36285 -2.75989,5.64109 -5.44744,11.06294 c -0.79701,1.60165 -1.59369,3.1733 -2.37038,4.74517 -8.78555,17.47795 -16.97964,32.93206 -23.93458,45.63913 a 73.21,73.21 0 0 1 -64.21619,38.0222 l -151.65896,0.0442 -1.59992,-0.0169 -13.00075,0.002 -11.12065,0.002 -34.102,0.009 -1.37992,-0.0146 -17.36104,0.006 -0.52997,-0.006 -107.00629,0.027 -95.51523,-0.0113 -11.11065,0.002 -69.00407,0.0194 -0.08,-8.5e-4 -44.75257,0.006 -0.47998,-0.005 -141.50826,0.0317 -42.3325,0.0118 A 88.07,88.07 0 0 1 93.499031,543.94778 86.39,86.39 0 0 1 54.67328,518.78528 C 36.706381,498.56391 23.704571,475.05492 15.073587,449.60211 Q 13.201824,444.09198 11.59153,438.44462 C -18.11398,333.97423 20.866653,200.00946 89.414956,110.81026 q 4.309479,-5.59468 8.755986,-10.907901 l 0.07084,-0.0793 C 119.30083,74.524664 142.83526,53.45267 167.82439,38.556426 212.10685,12.113816 260.93438,5.0504158 308.6425,28.146855 c 40.36528,19.548492 78.14797,28.93907 114.84008,31.767732 3.70725,0.279269 7.41513,0.498541 11.10376,0.647606 84.19722,3.541697 163.45415,-25.970768 256.35638,-44.578142 3.69805,-0.740886 7.40599,-1.471667 11.14351,-2.162132 66.26564,-12.4590635 139.69501,-18.6219229 226.77564,-3.109024 a 189.09,189.09 0 0 1 26.69073,6.682982 q 5.74998,1.920989 11.07702,4.117516 c 41.45828,17.379944 63.83558,48.918648 73.06978,88.238627 q 1.3121,5.4742 2.2522,11.13447 c 16.1102,94.51588 -35.4139,227.7978 -79.765,320.22338 z"
     id="path13"
     inkscape:export-filename="/home/viniciusramos/Development/pythonacademy/pythonacademy.github.io/assets/img/headline.png"
     inkscape:export-xdpi="46.099998"
     inkscape:export-ydpi="46.099998"
     inkscape:connector-curvature="0"
     style="opacity:1;fill:#f1c40f;fill-opacity:0.13824888;stroke:none;stroke-width:3;stroke-miterlimit:4;stroke-dasharray:none;stroke-opacity:1" />
  <g
     id="g27"
     inkscape:export-filename="/home/viniciusramos/Development/pythonacademy/pythonacademy.github.io/assets/img/headline.png"
     inkscape:export-xdpi="46.099998"
     inkscape:export-ydpi="46.099998"
     transform="rotate(0.60667148,687.96385,506.39233)"
     style="opacity:0.1">
    <path
       d="m 242.24,217 v 509.62 l -42.33,0.46 a 88.07,88.07 0 0 1 -26.67,-3.82 V 279 h 0.07 c 20.79,-25.55 44.1,-46.87 68.93,-62 z"
       transform="translate(-79.34,-172.91)"
       id="path15"
       inkscape:connector-curvature="0"
       style="fill:#f1c40f" />
    <path
       d="M 1117.24,290.08 H 164.6 q 4.25,-5.64 8.64,-11 V 279 h 941.63 q 1.37,5.43 2.37,11.08 z"
       transform="translate(-79.34,-172.91)"
       id="path17"
       inkscape:connector-curvature="0"
       style="fill:#f1c40f" />
    <path
       d="m 1040.82,191.51 v 427 h -3.47 q -2.7,5.67 -5.33,11.12 c -0.78,1.61 -1.56,3.19 -2.32,4.77 V 187.47 q 5.77,1.86 11.12,4.04 z"
       transform="translate(-79.34,-172.91)"
       id="path19"
       inkscape:connector-curvature="0"
       style="fill:#f1c40f" />
    <path
       d="m 776.21,186.58 v 534.25 l -11.12,0.12 V 188.86 c 3.69,-0.78 7.39,-1.55 11.12,-2.28 z"
       transform="translate(-79.34,-172.91)"
       id="path21"
       inkscape:connector-curvature="0"
       style="fill:#f1c40f" />
    <path
       d="m 509.22,236.15 v 487.58 l -11.11,0.12 V 235.62 c 3.71,0.24 7.42,0.38 11.11,0.53 z"
       transform="translate(-79.34,-172.91)"
       id="path23"
       inkscape:connector-curvature="0"
       style="fill:#f1c40f" />
    <path
       d="m 1037.35,618.52 q -2.7,5.67 -5.33,11.12 H 93.85 q -1.93,-5.49 -3.6,-11.12 z"
       transform="translate(-79.34,-172.91)"
       id="path25"
       inkscape:connector-curvature="0"
       style="fill:#f1c40f" />
  </g>
  <polygon
     points="304.5,551.83 106.1,553.65 106.1,538.65 152.75,510.65 246.35,509.87 248.35,509.86 249.01,509.85 251.01,509.82 295.95,509.45 297.96,509.44 298.6,509.43 300.6,509.42 315.01,509.3 315.39,509.29 350.94,508.99 351.23,508.99 628.63,506.65 635.42,506.6 636.1,506.6 641.28,506.55 678.93,506.24 680.93,506.21 682.78,506.19 683.74,506.19 695.45,506.1 697.77,506.07 700.88,506.05 710.63,505.96 726.1,505.83 728.1,505.81 731.58,505.79 732.23,505.79 806.94,505.15 863.1,533.65 863.1,546.65 711.18,548.05 709.56,548.08 651.82,548.61 650.44,548.63 632.89,548.78 632.37,548.78 525.39,549.77 349.78,551.4 349.63,551.4 304.98,551.82 "
     id="polygon33"
     inkscape:export-filename="/home/viniciusramos/Development/pythonacademy/pythonacademy.github.io/assets/img/headline.png"
     inkscape:export-xdpi="46.099998"
     inkscape:export-ydpi="46.099998"
     transform="rotate(0.60667148,695.80383,506.35082)"
     style="fill:#f4e3d7" />
  <polygon
     points="304.5,551.83 106.1,553.65 106.1,538.65 152.75,510.65 246.35,509.87 248.35,509.86 249.01,509.85 251.01,509.82 295.95,509.45 297.96,509.44 298.6,509.43 300.6,509.42 315.01,509.3 315.39,509.29 350.94,508.99 351.23,508.99 628.63,506.65 635.42,506.6 636.1,506.6 641.28,506.55 678.93,506.24 680.93,506.21 682.78,506.19 683.74,506.19 695.45,506.1 697.77,506.07 700.88,506.05 710.63,505.96 726.1,505.83 728.1,505.81 731.58,505.79 732.23,505.79 806.94,505.15 863.1,533.65 863.1,546.65 711.18,548.05 709.56,548.08 651.82,548.61 650.44,548.63 632.89,548.78 632.37,548.78 525.39,549.77 349.78,551.4 349.63,551.4 304.98,551.82 "
     id="polygon35"
     inkscape:export-filename="/home/viniciusramos/Development/pythonacademy/pythonacademy.github.io/assets/img/headline.png"
     inkscape:export-xdpi="46.099998"
     inkscape:export-ydpi="46.099998"
     transform="rotate(0.60667148,695.80383,506.35082)"
     style="opacity:0.2" />
  <path
     d="m 296.36266,479.42913 -0.2593,24.48862 a 6.13,6.13 0 0 1 -3.55847,5.50263 6,6 0 0 1 -2.50621,0.5735 l -34.90588,0.37043 a 6,6 0 0 1 -2.69381,-0.59856 6.12,6.12 0 0 1 -3.51083,-5.60748 l 0.26715,-25.22859 z"
     id="path37"
     inkscape:export-filename="/home/viniciusramos/Development/pythonacademy/pythonacademy.github.io/assets/img/headline.png"
     inkscape:export-xdpi="46.099998"
     inkscape:export-ydpi="46.099998"
     inkscape:connector-curvature="0"
     style="fill:#929da5;fill-opacity:1" />
  <path
     d="m 296.36266,479.42913 -0.2593,24.48862 a 6.13,6.13 0 0 1 -3.55847,5.50263 6,6 0 0 1 -2.50621,0.5735 l -34.90588,0.37043 a 6,6 0 0 1 -2.69381,-0.59856 6.12,6.12 0 0 1 -3.51083,-5.60748 l 0.26715,-25.22859 z"
     id="path39"
     inkscape:export-filename="/home/viniciusramos/Development/pythonacademy/pythonacademy.github.io/assets/img/headline.png"
     inkscape:export-xdpi="46.099998"
     inkscape:export-ydpi="46.099998"
     inkscape:connector-curvature="0"
     style="opacity:0.1" />
  <path
     d="m 298.36255,479.4503 -0.25931,24.48863 a 6.13,6.13 0 0 1 -3.55846,5.50263 6,6 0 0 1 -2.50621,0.5735 l -34.90588,0.37043 a 6,6 0 0 1 -2.69381,-0.59856 6.12,6.12 0 0 1 -3.51083,-5.60749 l 0.26714,-25.22858 z"
     id="path41"
     inkscape:export-filename="/home/viniciusramos/Development/pythonacademy/pythonacademy.github.io/assets/img/headline.png"
     inkscape:export-xdpi="46.099998"
     inkscape:export-ydpi="46.099998"
     inkscape:connector-curvature="0"
     style="fill:#929da5;fill-opacity:1" />
  <rect
     x="686.25232"
     y="476.26431"
     width="47.169998"
     height="31.5"
     id="rect43"
     inkscape:export-filename="/home/viniciusramos/Development/pythonacademy/pythonacademy.github.io/assets/img/headline.png"
     inkscape:export-xdpi="46.099998"
     inkscape:export-ydpi="46.099998"
     transform="rotate(0.60667148)"
     style="fill:#848e95;fill-opacity:1" />
  <rect
     x="686.25232"
     y="476.26431"
     width="47.169998"
     height="31.5"
     id="rect45"
     inkscape:export-filename="/home/viniciusramos/Development/pythonacademy/pythonacademy.github.io/assets/img/headline.png"
     inkscape:export-xdpi="46.099998"
     inkscape:export-ydpi="46.099998"
     transform="rotate(0.60667148)"
     style="opacity:0.1;fill:#b9baa2;fill-opacity:1" />
  <rect
     x="684.25238"
     y="476.2543"
     width="47.169998"
     height="31.5"
     id="rect47"
     inkscape:export-filename="/home/viniciusramos/Development/pythonacademy/pythonacademy.github.io/assets/img/headline.png"
     inkscape:export-xdpi="46.099998"
     inkscape:export-ydpi="46.099998"
     transform="rotate(0.60667148)"
     style="fill:#929da5;fill-opacity:1" />
  <polygon
     points="298.1,483.65 298.1,488.62 250.93,489.88 250.93,483.65 "
     id="polygon71"
     inkscape:export-filename="/home/viniciusramos/Development/pythonacademy/pythonacademy.github.io/assets/img/headline.png"
     inkscape:export-xdpi="46.099998"
     inkscape:export-ydpi="46.099998"
     transform="rotate(0.60667148,695.80383,506.35082)"
     style="opacity:0.1" />
  <path
     d="m 383.42164,309.04137 -1.78093,168.19058 a 4,4 0 0 1 -3.89161,3.90901 l -191.69326,3.07048 -0.05,-5.3e-4 a 4,4 0 0 1 -3.90795,-3.9916 l 1.83494,-173.29028 a 4,4 0 0 1 3.9916,-3.90796 l 191.58926,2.0287 a 4,4 0 0 1 3.90795,3.9916 z"
     id="path73"
     inkscape:export-filename="/home/viniciusramos/Development/pythonacademy/pythonacademy.github.io/assets/img/headline.png"
     inkscape:export-xdpi="46.099998"
     inkscape:export-ydpi="46.099998"
     inkscape:connector-curvature="0"
     style="fill:#e2e5e7;fill-opacity:1" />
  <path
     d="m 187.97443,303.0216 -1.91859,181.18984 -0.05,-5.3e-4 a 4,4 0 0 1 -3.90795,-3.9916 l 1.83494,-173.29028 a 4,4 0 0 1 3.9916,-3.90796 z"
     id="path75"
     inkscape:export-filename="/home/viniciusramos/Development/pythonacademy/pythonacademy.github.io/assets/img/headline.png"
     inkscape:export-xdpi="46.099998"
     inkscape:export-ydpi="46.099998"
     inkscape:connector-curvature="0"
     style="opacity:0.1" />
  <polygon
     points="194.6,319.15 372.1,319.15 372.1,467.4 194.6,471.4 "
     id="polygon77"
     inkscape:export-filename="/home/viniciusramos/Development/pythonacademy/pythonacademy.github.io/assets/img/headline.png"
     inkscape:export-xdpi="46.099998"
     inkscape:export-ydpi="46.099998"
     transform="rotate(0.60667148,695.80383,506.35082)"
     style="fill:#929da5;fill-opacity:1" />
  <rect
     x="728.25232"
     y="299.01431"
     width="19"
     height="17.42"
     id="rect79"
     inkscape:export-filename="/home/viniciusramos/Development/pythonacademy/pythonacademy.github.io/assets/img/headline.png"
     inkscape:export-xdpi="46.099998"
     inkscape:export-ydpi="46.099998"
     transform="rotate(0.60667148)"
     style="opacity:0.1" />
  <polygon
     points="726.1,483.65 726.1,490.06 678.93,488.8 678.93,483.65 "
     id="polygon81"
     inkscape:export-filename="/home/viniciusramos/Development/pythonacademy/pythonacademy.github.io/assets/img/headline.png"
     inkscape:export-xdpi="46.099998"
     inkscape:export-ydpi="46.099998"
     transform="rotate(0.60667148,695.80383,506.35082)"
     style="opacity:0.1" />
  <path
     d="m 790.39883,313.35078 -1.83494,173.29028 a 4,4 0 0 1 -4.0416,3.90743 v 0 l -191.62525,-7.12937 a 4,4 0 0 1 -3.80796,-3.99054 l 1.78093,-168.19057 a 4,4 0 0 1 3.99161,-3.90796 l 191.58926,2.0287 a 4,4 0 0 1 3.94795,3.99203 z"
     id="path83"
     inkscape:export-filename="/home/viniciusramos/Development/pythonacademy/pythonacademy.github.io/assets/img/headline.png"
     inkscape:export-xdpi="46.099998"
     inkscape:export-ydpi="46.099998"
     inkscape:connector-curvature="0"
     style="fill:#e2e5e7;fill-opacity:1" />
  <path
     d="m 790.39883,313.35078 -1.83494,173.29028 a 4,4 0 0 1 -4.0416,3.90743 v 0 l 1.91859,-181.18984 v 0 a 4,4 0 0 1 3.95795,3.99213 z"
     id="path85"
     inkscape:export-filename="/home/viniciusramos/Development/pythonacademy/pythonacademy.github.io/assets/img/headline.png"
     inkscape:export-xdpi="46.099998"
     inkscape:export-ydpi="46.099998"
     inkscape:connector-curvature="0"
     style="opacity:0.1" />
  <polygon
     points="775.6,319.15 598.1,319.15 598.1,467.4 775.6,471.4 "
     id="polygon87"
     inkscape:export-filename="/home/viniciusramos/Development/pythonacademy/pythonacademy.github.io/assets/img/headline.png"
     inkscape:export-xdpi="46.099998"
     inkscape:export-ydpi="46.099998"
     transform="rotate(0.60667148,695.80383,506.35082)"
     style="fill:#929da5;fill-opacity:1" />
  <path
     d="m 585.91029,311.18549 -1.78094,168.19057 a 4,4 0 0 1 -3.8916,3.90901 l -191.69326,3.07049 v 0 a 4,4 0 0 1 -3.95795,-3.99214 l 1.83494,-173.29028 a 4,4 0 0 1 3.9916,-3.90796 l 191.58926,2.02871 a 4,4 0 0 1 3.90795,3.9916 z"
     id="path89"
     inkscape:export-filename="/home/viniciusramos/Development/pythonacademy/pythonacademy.github.io/assets/img/headline.png"
     inkscape:export-xdpi="46.099998"
     inkscape:export-ydpi="46.099998"
     inkscape:connector-curvature="0"
     style="fill:#e2e5e7;fill-opacity:1" />
  <polygon
     points="397.1,319.15 574.6,319.15 574.6,467.4 397.1,471.4 "
     id="polygon91"
     inkscape:export-filename="/home/viniciusramos/Development/pythonacademy/pythonacademy.github.io/assets/img/headline.png"
     inkscape:export-xdpi="46.099998"
     inkscape:export-ydpi="46.099998"
     transform="rotate(0.60667148,695.80383,506.35082)"
     style="fill:#929da5;fill-opacity:1" />
  <polygon
     points="304.5,551.83 106.1,553.65 106.1,538.65 308.61,537.32 309.09,537.32 350.08,537.04 350.27,537.04 633.35,535.17 633.64,535.17 633.81,535.16 634.28,535.16 639.07,535.13 640.53,535.13 715.02,534.63 719.42,534.61 720.4,534.6 863.1,533.65 863.1,546.65 711.18,548.05 709.56,548.08 651.82,548.61 650.44,548.63 632.89,548.78 632.37,548.78 525.39,549.77 349.78,551.4 349.63,551.4 304.98,551.82 "
     id="polygon93"
     inkscape:export-filename="/home/viniciusramos/Development/pythonacademy/pythonacademy.github.io/assets/img/headline.png"
     inkscape:export-xdpi="46.099998"
     inkscape:export-ydpi="46.099998"
     transform="rotate(0.60667148,695.80383,506.35082)"
     style="opacity:0.1" />
  <path
     d="m 298.13702,500.74911 -0.0338,3.18982 a 6.13,6.13 0 0 1 -3.55846,5.50263 l -40.1059,0.34537 a 6.12,6.12 0 0 1 -3.51083,-5.60749 l 0.0318,-2.99983 z"
     id="path127"
     inkscape:export-filename="/home/viniciusramos/Development/pythonacademy/pythonacademy.github.io/assets/img/headline.png"
     inkscape:export-xdpi="46.099998"
     inkscape:export-ydpi="46.099998"
     inkscape:connector-curvature="0"
     style="opacity:0.1" />
  <polygon
     points="298.6,515.57 246.35,516.57 246.35,507.9 298.6,506.9 "
     id="polygon129"
     inkscape:export-filename="/home/viniciusramos/Development/pythonacademy/pythonacademy.github.io/assets/img/headline.png"
     inkscape:export-xdpi="46.099998"
     inkscape:export-ydpi="46.099998"
     transform="rotate(0.60667148,695.80383,506.35082)"
     style="fill:#848e95;fill-opacity:1" />
  <polygon
     points="298.6,515.57 246.35,516.57 246.35,507.9 298.6,506.9 "
     id="polygon131"
     inkscape:export-filename="/home/viniciusramos/Development/pythonacademy/pythonacademy.github.io/assets/img/headline.png"
     inkscape:export-xdpi="46.099998"
     inkscape:export-ydpi="46.099998"
     transform="rotate(0.60667148,695.80383,506.35082)"
     style="opacity:0.1;fill:#b9baa2;fill-opacity:1" />
  <polygon
     points="300.6,515.57 248.35,516.57 248.35,507.9 300.6,506.9 "
     id="polygon133"
     inkscape:export-filename="/home/viniciusramos/Development/pythonacademy/pythonacademy.github.io/assets/img/headline.png"
     inkscape:export-xdpi="46.099998"
     inkscape:export-ydpi="46.099998"
     transform="rotate(0.60667148,695.80383,506.35082)"
     style="fill:#929da5;fill-opacity:1" />
  <path
     d="m 262.32518,547.18314 c 0.001,-0.11 0.0624,-0.22935 0.1037,-0.34892 1.03796,-3.57921 2.88213,-9.63003 4.26341,-14.46567 0.17634,-0.59817 0.34258,-1.18644 0.4985,-1.74482 1.52783,-5.45413 4.52331,-18.23313 6.19782,-26.20585 0.58972,-2.80391 1.05288,-4.98913 1.15453,-6.08811 0.21788,-1.68779 3.30426,-8.88552 6.80206,-17.15894 2.4517,-5.81437 5.12911,-12.16638 7.09597,-17.52585 a 61.38,61.38 0 0 0 3.03413,-9.81843 5.1,5.1 0 0 0 0.0225,-2.12988 14.69,14.69 0 0 1 -0.44292,-3.50488 v 0 c -0.16434,-6.20209 1.78932,-15.98195 4.69268,-20.06144 3.55275,-4.96266 6.25018,-23.59515 6.25018,-23.59515 0,0 5.17177,0.80481 6.03704,-3.46627 a 6.15,6.15 0 0 0 0.11482,-1.39886 7.41,7.41 0 0 0 -0.0782,-1.11089 c -0.82388,-6.24908 14.85555,-12.72342 23.6502,-14.06038 a 19.67,19.67 0 0 1 3.00279,-0.24822 27.24,27.24 0 0 0 6.2649,-1.37374 q 1.40448,-0.41515 3.01042,-0.96818 c 3.69292,-1.20097 8.11004,-2.79429 12.79884,-4.54474 17.63112,-6.62369 38.98724,-15.58807 38.98724,-15.58807 0.1575,-0.70837 0.33469,-1.38653 0.53178,-2.05448 a 27.71,27.71 0 0 1 16.54952,-18.75582 v 0 c 0.007,-0.65996 0.0141,-1.32993 0.0212,-1.99989 0.0365,-3.44981 -0.0759,-7.0012 -0.18838,-10.54259 0.007,-0.68996 -0.0454,-1.38055 -0.0781,-2.07094 0.002,-0.19999 0.004,-0.40998 0.006,-0.60996 0.002,-0.19999 0.004,-0.34998 0.006,-0.51997 0.007,-0.69997 -0.0552,-1.40067 -0.0879,-2.09105 l -0.1785,-0.1419 a 16.41,16.41 0 0 1 -3.85532,-4.24106 15.27,15.27 0 0 1 -1.38815,-3.01487 c -1.21404,-3.40304 -1.464,-7.1859 -2.26604,-10.77459 l -0.17216,-0.74187 a 84,84 0 0 0 -3.88775,-10.62176 c -2.15249,-5.44309 -3.79331,-11.04078 -5.42339,-16.70836 q -1.4856,-5.14602 -3.00098,-10.31235 l -1.52443,-5.25644 c -0.2894,-1.00312 -0.57879,-2.00624 -0.79819,-3.00862 v 0 a 13.27,13.27 0 0 1 -0.24516,-1.40267 10,10 0 0 1 0.2888,-4.6072 32.09,32.09 0 0 1 1.35169,-2.98586 7.87,7.87 0 0 0 0.51458,-1.37463 v 0 a 3,3 0 0 0 0.0834,-0.31913 5.65,5.65 0 0 0 0.12143,-1.07878 18.46,18.46 0 0 0 -0.47878,-3.89528 0.07,0.07 0 0 1 5.3e-4,-0.05 2.56,2.56 0 0 0 -0.0471,-0.27052 25.48,25.48 0 0 1 -0.32821,-3.00364 28.45,28.45 0 0 1 3.63466,-15.53238 l 0.1938,-0.35797 a 25.22,25.22 0 0 1 1.86933,-2.76036 v 0 c 0.31443,-0.4167 0.63865,-0.81329 1.01287,-1.20935 -1.41411,1.3251 -3.70774,0.71078 -4.99242,-0.7429 a 3.61,3.61 0 0 1 -0.54203,-0.75578 3.81,3.81 0 0 1 -0.22522,-0.45241 c -0.0487,-0.12052 -0.0874,-0.25094 -0.12597,-0.38136 -0.67402,-2.45727 0.57355,-5.05421 2.19453,-7.02715 a 18.49,18.49 0 0 1 5.78944,-4.63897 v 0 a 3.84,3.84 0 0 1 0.4022,-0.20575 17.12,17.12 0 0 1 2.65108,-1.03199 v 0 a 15.06,15.06 0 0 1 1.63457,-0.42271 l -3.7062,-0.37927 -1.49843,-0.15587 a 14.49,14.49 0 0 1 13.11479,-10.77174 l 1.07994,0.0114 a 11.73,11.73 0 0 1 1.56853,0.14662 4.44,4.44 0 0 1 -2.604,-4.35782 14.41,14.41 0 0 0 9.15709,3.15714 l 0.37997,0.004 a 30,30 0 0 1 -0.30535,-3.27342 v 0 a 33.19,33.19 0 0 1 0.0472,-4.45975 8.44,8.44 0 0 0 6.75569,2.33167 l -2.04918,-2.92186 a 9.49,9.49 0 0 0 6.53793,2.11934 l 0.4805,-0.0449 a 7,7 0 0 0 1.19237,-0.21738 l 0.09,9.5e-4 c -0.18745,-0.242 -0.3548,-0.49378 -0.52203,-0.75557 l -0.0587,-0.12063 a 9.67,9.67 0 0 1 -0.97781,-2.10047 6.59,6.59 0 0 1 -0.23078,-0.87249 v 0 a 8.75,8.75 0 0 1 0.50768,-5.44493 c 3.20123,2.73405 6.70196,6.46132 10.96127,3.71627 4.2593,-2.74506 4.4535,-7.86329 11.07763,-7.27312 a 10.2,10.2 0 0 1 8.34473,6.20871 6.75,6.75 0 0 1 7.6881,-1.66869 6.85,6.85 0 0 1 3.80683,6.93069 c 2.75715,-0.66084 5.72418,-1.30946 8.35302,-0.24157 2.62884,1.0679 4.29306,4.45571 2.76932,6.6897 a 1.43,1.43 0 0 1 -0.14211,0.19851 c -1.24676,1.57688 -3.97582,2.41803 -3.70701,4.42099 l 0.4168,0.30443 1.28997,0.95371 q 7.59112,5.6007 14.77634,11.75712 c 2.45784,2.10614 5.07122,4.63395 5.2068,7.88557 a 8.64,8.64 0 0 1 -0.26508,2.36733 v 0 c -0.16825,0.77826 -0.3965,1.55589 -0.57475,2.33404 a 19.51,19.51 0 0 0 -0.40404,6.04606 v 0 c 0.0637,0.59071 0.14761,1.17163 0.25135,1.76276 1.44807,7.74577 7.56017,14.19085 8.0866,22.08686 l -0.006,0.55997 a 17.78,17.78 0 0 1 -0.0968,2.52912 c -0.51079,4.79486 -2.77948,9.3811 -4.62798,13.95178 -0.11296,0.27882 -0.22592,0.55764 -0.32888,0.83656 -3.5651,8.96276 -5.66653,18.53105 -7.29777,28.08431 a 100.26,100.26 0 0 1 -2.10672,10.06826 26.73,26.73 0 0 1 -5.20015,10.37552 16.22,16.22 0 0 1 -3.39158,2.96425 18.67,18.67 0 0 1 -2.66478,1.38187 c 0,0 0,0 -6.3e-4,0.06 0.10353,0.61113 0.18707,1.22205 0.2906,1.83318 0.0566,0.32062 0.10322,0.64113 0.1594,1.00175 v 0 a 0.14,0.14 0 0 0 -6.3e-4,0.06 c 0.78987,4.73863 1.70079,9.37854 2.66415,13.78898 l 0.48678,2.19528 c 12.55112,4.68316 13.94235,14.01841 13.99455,17.58916 a 9.64,9.64 0 0 1 -0.0151,1.42992 c 0,0 18.99364,0.70115 26.43498,6.28026 a 20.34,20.34 0 0 0 4.4854,2.34762 83,83 0 0 0 9.21888,2.98778 c 1.60546,0.43702 3.28102,0.86479 4.98669,1.28287 2.99253,0.72173 6.16526,1.42536 9.22831,2.09783 8.17207,1.73662 15.86734,3.16818 19.76654,4.20953 9.30448,2.45865 30.42665,23.14346 30.42665,23.14346 0,0 2.28132,20.66531 4.74931,23.70161 2.46799,3.03631 6.85571,13.66336 6.85571,13.66336 l 16.22768,29.58348 6.86863,12.44343 4.49975,0.0476 c 0.61996,0.007 1.83058,0.89944 3.18758,2.13387 1.17871,1.07254 2.48466,2.40645 3.63189,3.61866 l 1.89819,2.07022 1.18585,1.34263 c 0,0 7.26768,0.25696 9.17669,6.0275 5.92147,-0.10731 13.18693,0.35965 18.25251,2.69341 a 14.14,14.14 0 0 1 1.98845,1.10112 8.68,8.68 0 0 1 4.06984,5.70341 8.34,8.34 0 0 1 0.16474,1.44182 c -0.006,0.56997 -0.0121,1.13994 -0.018,1.69991 -0.44013,7.56576 -5.43656,13.81321 -10.0112,18.00501 l 0.31395,0.57335 c 0,0 -0.15381,0.3584 -0.45057,0.99529 -0.082,0.18914 -0.18422,0.39807 -0.29676,0.63689 v 0 c -0.60331,1.25369 -1.56327,3.13363 -2.8166,5.33048 a 63.31,63.31 0 0 1 -9.70891,13.06793 l -0.29316,0.29691 -57.74237,-0.0814 -0.16787,-0.20179 -11.05792,-13.47784 -5.49938,-6.6986 -0.16777,-0.21179 -0.17682,1.58822 -0.59609,5.29398 -1.43556,12.79552 -0.0768,0.63922 -0.002,0.16999 -0.16566,1.47833 0.12567,-1.47875 -0.28999,-0.003 -107.00459,-0.133 -175.63069,0.0804 -0.009,0.83996 -0.13999,-10e-4 0.009,-0.83995 -44.75257,0.006 z"
     id="path97"
     inkscape:export-filename="/home/viniciusramos/Development/pythonacademy/pythonacademy.github.io/assets/img/headline.png"
     inkscape:export-xdpi="46.099998"
     inkscape:export-ydpi="46.099998"
     style="fill:url(#dff037aa-d578-4bab-81e7-399360663117)"
     inkscape:connector-curvature="0" />
  <path
     d="m 498.3652,374.65271 c 0,0 -99.62148,10.9458 -89.99495,-0.95294 3.48576,-4.30333 4.57187,-17.15255 4.537,-31.80374 -0.0129,-4.45039 -0.12406,-9.06183 -0.30545,-13.654 -0.867,-22.01042 -3.2892,-43.53727 -3.2892,-43.53727 0,0 87.42924,-40.07653 77.08568,-7.68423 -4.1388,13.08691 -3.02412,31.53975 -0.16757,48.88096 0.83648,5.05914 1.81401,10.01977 2.84419,14.73094 a 344.67,344.67 0 0 0 9.2903,34.02028 z"
     id="path99"
     inkscape:export-filename="/home/viniciusramos/Development/pythonacademy/pythonacademy.github.io/assets/img/headline.png"
     inkscape:export-xdpi="46.099998"
     inkscape:export-ydpi="46.099998"
     inkscape:connector-curvature="0"
     style="fill:#fbbebe" />
  <path
     d="m 307.65893,548.01319 0.009,-0.83996 175.63038,-0.0504 107.00459,0.133 0.29998,0.003 -0.12566,1.47875 0.16566,-1.47833 0.18999,0.002 0.002,-0.16999 1.51233,-13.43474 0.57387,-5.08421 0.17682,-1.58821 0.15408,-1.32845 6.39787,-20.54341 6.39756,-20.51341 5.38321,-17.27397 8.21993,-26.39444 c 0,0 -4.38857,-10.54706 -6.85667,-13.57336 -2.4681,-3.02631 -4.7509,-23.55163 -4.7509,-23.55163 0,0 -21.12354,-20.55481 -30.42824,-22.99347 -3.8992,-1.04134 -11.60468,-2.45301 -19.78654,-4.20974 -3.06326,-0.65247 -6.2061,-1.34578 -9.2283,-2.09783 -1.70578,-0.40808 -3.38134,-0.83585 -4.98691,-1.26287 a 87.91,87.91 0 0 1 -9.2192,-2.95778 20.7,20.7 0 0 1 -4.4755,-2.33752 c -7.29252,-5.46752 -25.70503,-6.27252 -26.41499,-6.28004 v 0 a 0.42,0.42 0 0 1 7.4e-4,-0.07 l 9.6e-4,-0.09 a 10.26,10.26 0 0 0 0.0133,-1.25993 c 0.004,-0.39998 0.009,-0.86995 -0.0752,-1.40087 0.002,-0.15999 0.003,-0.32999 -0.0647,-0.50072 -0.0462,-0.36051 -0.10215,-0.74112 -0.18791,-1.14205 a 5,5 0 0 0 -0.11439,-0.53124 17.21,17.21 0 0 0 -1.21297,-3.50304 c -0.0683,-0.16073 -0.1565,-0.33168 -0.2348,-0.49251 a 18.25,18.25 0 0 0 -1.67206,-2.64786 c -0.12819,-0.17136 -0.26628,-0.35284 -0.41447,-0.52442 a 19.58,19.58 0 0 0 -2.69189,-2.66865 c -0.26776,-0.21284 -0.54542,-0.4358 -0.83329,-0.63886 a 4.67,4.67 0 0 0 -0.50616,-0.36538 l -0.8838,-0.58939 -0.82488,-0.48876 c -0.72572,-0.40771 -1.49155,-0.80584 -2.32758,-1.18471 -0.25872,-0.12275 -0.53754,-0.2357 -0.81636,-0.34866 -0.27882,-0.11296 -0.71699,-0.28761 -1.08549,-0.43152 l -0.06,-6.4e-4 -0.74679,-0.30792 c -0.56795,-0.19602 -1.14612,-0.37216 -1.75429,-0.54861 l -0.9274,-0.24983 -0.99751,-0.24057 -0.99772,-0.22058 c -0.99783,-0.21058 -2.06586,-0.4019 -3.18432,-0.55375 l -1.13845,-0.15206 -1.16866,-0.13238 -1.20888,-0.11281 -1.71884,-0.1182 -1.99915,-0.0912 a 124.68,124.68 0 0 0 -26.26807,2.51201 72.27,72.27 0 0 0 -18.24119,-1.87325 l -0.86995,-0.009 -1.00058,0.0494 -0.63996,-0.007 -1.2912,0.10634 c -0.42998,-0.005 -0.8709,0.0808 -1.30152,0.13623 -0.43061,0.0554 -0.88111,0.10067 -1.31183,0.16612 l -0.66113,0.103 c -0.65112,0.10311 -1.31236,0.21612 -2.0038,0.3488 q -0.33062,0.0565 -0.66155,0.14301 c -0.87197,0.18078 -1.74435,0.40155 -2.60706,0.65243 -0.43124,0.11544 -0.8627,0.25088 -1.29427,0.39632 -0.22062,0.0577 -0.43145,0.13544 -0.64229,0.21321 l -0.6424,0.22321 -0.63261,0.24332 -0.75313,0.29204 c -0.38168,0.15597 -0.75346,0.32204 -1.12534,0.49811 -0.21094,0.0878 -0.42199,0.18554 -0.62314,0.29342 -0.20116,0.10787 -0.4121,0.19565 -0.60325,0.30363 a 27.75,27.75 0 0 0 -6.25603,4.314 l -0.51516,0.48457 -0.50537,0.50468 c -0.17179,0.16819 -0.33369,0.34649 -0.49559,0.52478 a 23.82,23.82 0 0 0 -1.84372,2.23061 c -0.16221,0.20829 -0.31443,0.41669 -0.46675,0.63509 a 26.69,26.69 0 0 0 -1.75082,2.90162 c -0.13253,0.23861 -0.25517,0.48733 -0.37771,0.72604 a 32.7,32.7 0 0 0 -2.05547,5.22853 q -0.29058,0.99698 -0.53115,1.99449 c 0,0 -21.26771,9.11533 -38.8983,15.68902 -4.6888,1.75045 -9.10581,3.33377 -12.79863,4.52474 -1.07375,0.34865 -2.07719,0.66804 -3.01042,0.96818 a 26.7,26.7 0 0 1 -6.26489,1.37374 19.67,19.67 0 0 0 -3.0028,0.24822 c -8.08342,1.22448 -21.97289,6.76772 -23.54327,12.46142 a 3.69,3.69 0 0 0 -0.11481,1.39886 c 0,0 -7.4e-4,0.07 -0.001,0.10999 0.92583,7.0102 -6.06319,5.93614 -6.06319,5.93614 0,0 -2.69574,18.47249 -6.24849,23.43515 -2.56797,3.57301 -4.3829,11.58424 -4.66705,17.64157 v 0 a 19.61,19.61 0 0 0 0.38036,5.63435 c -5.3e-4,0.05 -10e-4,0.1 -10e-4,0.13999 0.38579,1.34416 -0.61291,4.99379 -2.29248,9.66627 -1.82443,5.13097 -4.47205,11.50329 -7.01586,17.51669 -3.83636,9.07989 -7.44383,17.32216 -7.68309,19.13973 -0.0986,0.809 -0.37391,2.25616 -0.75369,4.12225 -1.5406,7.60411 -4.93405,22.07899 -6.59611,27.93172 -1.23631,4.36716 -3.02975,10.3485 -4.2633,14.45567 -0.001,0.11999 -0.0725,0.23925 -0.1037,0.34892 l 44.83214,0.0347 -0.009,0.83995 0.13999,0.001 z"
     id="path103"
     inkscape:export-filename="/home/viniciusramos/Development/pythonacademy/pythonacademy.github.io/assets/img/headline.png"
     inkscape:export-xdpi="46.099998"
     inkscape:export-ydpi="46.099998"
     inkscape:connector-curvature="0"
     style="fill:#f1c40f" />
  <path
     d="m 325.26605,430.32302 c 0,0 56.68445,30.10187 77.22036,26.81913 z"
     id="path105"
     inkscape:export-filename="/home/viniciusramos/Development/pythonacademy/pythonacademy.github.io/assets/img/headline.png"
     inkscape:export-xdpi="46.099998"
     inkscape:export-ydpi="46.099998"
     inkscape:connector-curvature="0"
     style="opacity:0.1" />
  <path
     d="m 441.38661,419.55192 c 0,0 55.3063,18.58664 73.77879,21.28238 18.47249,2.69574 -73.77879,-21.28238 -73.77879,-21.28238 z"
     id="path107"
     inkscape:export-filename="/home/viniciusramos/Development/pythonacademy/pythonacademy.github.io/assets/img/headline.png"
     inkscape:export-xdpi="46.099998"
     inkscape:export-ydpi="46.099998"
     inkscape:connector-curvature="0"
     style="opacity:0.1" />
  <path
     d="m 503.55642,362.28698 c -29.05491,5.03264 -83.63967,3.30459 -107.22977,2.24476 8.97775,-30.90668 51.04378,-19.92066 51.04378,-19.92066 52.3174,-9.8666 56.08826,11.79454 56.18599,17.6759 z"
     id="path109"
     inkscape:export-filename="/home/viniciusramos/Development/pythonacademy/pythonacademy.github.io/assets/img/headline.png"
     inkscape:export-xdpi="46.099998"
     inkscape:export-ydpi="46.099998"
     inkscape:connector-curvature="0"
     style="opacity:0.1" />
  <path
     d="m 503.5776,360.28709 c -29.05491,5.03265 -83.63968,3.30459 -107.22978,2.24476 8.97775,-30.90668 51.04379,-19.92066 51.04379,-19.92066 52.3174,-9.8666 56.08826,11.79454 56.18599,17.6759 z"
     id="path111"
     inkscape:export-filename="/home/viniciusramos/Development/pythonacademy/pythonacademy.github.io/assets/img/headline.png"
     inkscape:export-xdpi="46.099998"
     inkscape:export-ydpi="46.099998"
     inkscape:connector-curvature="0"
     style="fill:#f1c40f" />
  <path
     d="m 656.06188,498.57938 c 0,0 34.21367,-4.88801 34.72481,10.11824 0.51114,15.00626 -17.68881,25.29413 -17.68881,25.29413 z"
     id="path113"
     inkscape:export-filename="/home/viniciusramos/Development/pythonacademy/pythonacademy.github.io/assets/img/headline.png"
     inkscape:export-xdpi="46.099998"
     inkscape:export-ydpi="46.099998"
     inkscape:connector-curvature="0"
     style="fill:#fbbebe" />
  <path
     d="m 434.91013,188.74041 a 9.47,9.47 0 0 1 -8.30101,-1.83799 l 2.04928,2.91186 a 8.47,8.47 0 0 1 -6.75579,-2.32167 34.08,34.08 0 0 0 0.23792,7.75296 14.52,14.52 0 0 1 -9.5277,-3.10106 4.42,4.42 0 0 0 2.59422,4.33771 14.34,14.34 0 0 0 -15.71253,10.54423 l 5.21463,0.53524 a 18.47,18.47 0 0 0 -10.50686,6.2591 c -1.62109,1.98295 -2.86813,4.52989 -2.194,6.97716 0.67412,2.44728 4.03742,4.04298 5.89574,2.32256 a 27.94,27.94 0 0 0 -6.34097,22.72413 14.47,14.47 0 0 1 0.40428,5.26458 c -0.34745,1.64641 -1.40253,3.06532 -1.93955,4.66973 -1.03086,2.90924 -0.11448,6.08912 0.74466,9.00838 l 4.52647,15.4688 c 1.64092,5.58769 3.27175,11.18527 5.43455,16.59847 a 82.08,82.08 0 0 1 3.8885,10.55177 c 1.20868,4.85307 1.20256,10.1533 3.84762,14.41154 a 19.93,19.93 0 0 0 7.11257,6.40567 c 9.82952,5.7644 21.76614,7.09086 33.09991,5.8508 11.33376,-1.24007 22.23286,-4.87487 33.04165,-8.48062 a 31,31 0 0 0 6.87138,-2.92741 c 7.50125,-4.80085 9.26683,-14.76271 10.74982,-23.5375 1.65368,-9.78304 3.82711,-19.54057 7.59453,-28.7212 2.23801,-5.46661 5.11683,-11.00644 4.69911,-16.89119 -0.52727,-7.81602 -6.6399,-14.2111 -8.0885,-21.90687 a 19,19 0 0 1 0.15227,-7.76882 17.66,17.66 0 0 0 0.83972,-4.69138 c -0.13589,-3.22162 -2.74949,-5.72943 -5.20743,-7.82557 q -7.99818,-6.82507 -16.52417,-12.91569 c -0.26881,-2.00296 2.46014,-2.83411 3.7068,-4.401 1.76352,-2.21145 0.001,-5.77031 -2.62774,-6.8382 -2.62884,-1.0679 -5.59587,-0.41928 -8.35303,0.24157 a 6.59,6.59 0 0 0 -11.49524,-5.23201 10.2,10.2 0 0 0 -8.35515,-6.16881 c -6.62413,-0.59017 -6.8078,4.47817 -11.07711,7.22312 -4.2693,2.74495 -7.73014,-0.97191 -10.96158,-3.68627 a 9.28,9.28 0 0 0 1.26273,9.19388 z"
     id="path117"
     inkscape:export-filename="/home/viniciusramos/Development/pythonacademy/pythonacademy.github.io/assets/img/headline.png"
     inkscape:export-xdpi="46.099998"
     inkscape:export-ydpi="46.099998"
     inkscape:connector-curvature="0"
     style="fill:#442f22;fill-opacity:1" />
  <path
     d="m 681.07281,528.8459 c 0,0 -0.91239,2.11046 -2.58481,5.16292 a 69,69 0 0 1 -9.13894,13.07397 l -0.27306,0.28712 -1.6199,-0.0172 -57.74238,-0.0814 -1.37992,-0.0146 -0.16787,-0.20179 -11.05866,-13.40785 -4.16672,-5.0544 -0.16776,-0.21179 -0.35554,-0.42378 -0.19744,-0.24211 -0.25671,-0.31273 -8.10641,-9.82639 3.13219,-12.46753 5.3327,-21.00472 0.13539,-0.50859 1.0423,-3.98919 0.74172,-2.99231 2.48342,-9.75425 8.51584,-33.56172 14.41977,7.65311 15.00327,27.16038 8.05601,14.58612 4.49974,0.0476 c 0.84996,0.009 2.78248,1.66956 4.72236,3.58021 0.69287,0.67737 1.38531,1.39474 1.97871,2.02106 1.76042,1.85875 3.15361,3.45359 3.15361,3.45359 0,0 7.2879,0.23718 9.18701,5.99761 a 7,7 0 0 1 0.24099,0.8526 40.3,40.3 0 0 0 2.4604,6.58642 c 1.26017,2.8235 2.84631,6.03047 4.45244,9.23766 2.98788,5.88196 6.02873,11.48447 7.14728,13.51643 l 0.13735,0.25147 z"
     id="path119"
     inkscape:export-filename="/home/viniciusramos/Development/pythonacademy/pythonacademy.github.io/assets/img/headline.png"
     inkscape:export-xdpi="46.099998"
     inkscape:export-ydpi="46.099998"
     inkscape:connector-curvature="0"
     style="fill:#f1c40f" />
  <path
     d="m 595.65569,482.7889 -0.11514,1.42886 -0.001,0.1 -0.19434,2.29807 -1.52591,18.49488 -1.84603,22.2817 -0.52647,6.27478 -1.14225,13.42866 -0.002,0.16999 -107.00459,-0.133 -175.60027,0.0407 -0.009,0.83996 -0.13999,-10e-4 0.009,-0.83995 0.003,-0.27998 0.60202,-14.35443 1.15706,-28.04933 0.99185,-23.78083 0.0951,-2.36912 a 10.53,10.53 0 0 1 11.52704,-10.04852 c 4.7155,0.44996 10.83997,1.00484 18.16405,1.60242 l 2.99751,0.25175 c 42.29649,3.38804 120.48187,8.01614 199.46764,4.11224 1.66086,-0.0724 3.33182,-0.15473 5.003,-0.25704 12.24746,-0.64036 24.48726,-1.50081 36.60971,-2.61252 a 10.53,10.53 0 0 1 11.48045,11.3522 z"
     id="path121"
     inkscape:export-filename="/home/viniciusramos/Development/pythonacademy/pythonacademy.github.io/assets/img/headline.png"
     inkscape:export-xdpi="46.099998"
     inkscape:export-ydpi="46.099998"
     inkscape:connector-curvature="0"
     style="opacity:0.1" />
  <path
     d="m 307.65893,548.01319 0.009,-0.83996 175.63038,-0.0504 107.00459,0.133 0.29998,0.003 0.002,-0.16999 1.14225,-13.42866 0.4935,-5.99511 1.87931,-22.59137 1.47946,-17.88534 0.005,-0.43997 a 10.62,10.62 0 0 0 -0.0838,-2.47103 0.3,0.3 0 0 0 0.001,-0.1 10.39,10.39 0 0 0 -1.95076,-4.66091 10.54,10.54 0 0 0 -9.37712,-4.09952 c -12.12245,1.11171 -24.36225,1.97216 -36.60972,2.61252 -1.67117,0.10231 -3.34214,0.18462 -5.003,0.25704 -78.98523,3.8539 -157.17061,-0.7742 -199.46764,-4.11224 l -2.9975,-0.25175 c -7.32408,-0.59758 -13.44866,-1.14246 -18.16405,-1.60242 a 10.54,10.54 0 0 0 -11.32969,8.41051 11,11 0 0 0 -0.19735,1.63801 l -0.9146,22.15155 -1.22716,28.05858 -0.59202,14.35454 -0.003,0.27998 -0.009,0.83996 z"
     id="path123"
     inkscape:export-filename="/home/viniciusramos/Development/pythonacademy/pythonacademy.github.io/assets/img/headline.png"
     inkscape:export-xdpi="46.099998"
     inkscape:export-ydpi="46.099998"
     inkscape:connector-curvature="0"
     style="fill:#a05a2c" />
  <path
     d="m 595.88145,489.80169 -1.39225,15.31611 -2.07184,22.82935 -0.52054,5.71481 -1.13558,12.79869 -0.0668,0.63933 -0.002,0.16999 v 0 l -0.16566,1.47833 0.12566,-1.47876 -0.28998,-0.003 -107.00459,-0.13299 -175.66027,0.0401 0.003,-0.27998 0.64202,-14.35401 1.29705,-28.04784 0.83743,-18.64218 a 6.36,6.36 0 0 1 3.11542,-5.2173 6.25,6.25 0 0 1 3.78932,-0.85993 c 2.09808,0.19223 4.67582,0.41953 7.68332,0.67139 4.88591,0.41176 10.91113,0.89558 17.92608,1.40989 12.99059,0.9576 29.29035,2.01024 47.97168,2.9281 51.97591,2.55047 122.16488,3.96373 188.90298,-1.16992 3.00258,-0.22822 6.10548,-0.48539 9.13838,-0.74329 a 6.26,6.26 0 0 1 3.47282,0.69681 5.16,5.16 0 0 1 0.85423,0.54908 6.14,6.14 0 0 1 1.97384,2.48104 3.56,3.56 0 0 1 0.24353,0.61261 6.28,6.28 0 0 1 0.33256,2.59367 z"
     id="path125"
     inkscape:export-filename="/home/viniciusramos/Development/pythonacademy/pythonacademy.github.io/assets/img/headline.png"
     inkscape:export-xdpi="46.099998"
     inkscape:export-ydpi="46.099998"
     inkscape:connector-curvature="0"
     style="opacity:0.1" />
  <g
     id="g153"
     inkscape:export-filename="/home/viniciusramos/Development/pythonacademy/pythonacademy.github.io/assets/img/headline.png"
     inkscape:export-xdpi="46.099998"
     inkscape:export-ydpi="46.099998"
     transform="rotate(0.60667148,755.27677,-3423.9466)"
     style="opacity:0.1">
    <path
       d="m 552.93,361.56 a 9.75,9.75 0 0 1 -1.89,-4.34 9.49,9.49 0 0 0 0.42,4.6 9,9 0 0 0 1.47,-0.26 z"
       transform="translate(-79.34,-172.91)"
       id="path135"
       inkscape:connector-curvature="0" />
    <path
       d="m 540.23,368.2 a 35.12,35.12 0 0 1 -0.37,-3.7 c 0,1.23 0,2.47 0,3.71 z"
       transform="translate(-79.34,-172.91)"
       id="path137"
       inkscape:connector-curvature="0" />
    <path
       d="m 621.73,401.57 a 18.34,18.34 0 0 1 0.36,-2.65 18,18 0 0 0 0.8,-4.69 6.16,6.16 0 0 0 -0.16,-1.06 c -0.17,0.92 -0.44,1.84 -0.64,2.75 a 19.14,19.14 0 0 0 -0.36,5.65 z"
       transform="translate(-79.34,-172.91)"
       id="path139"
       inkscape:connector-curvature="0" />
    <path
       d="m 600.93,370.67 1.09,0.79 a 19.71,19.71 0 0 0 2.57,-2.22 3.67,3.67 0 0 0 0.38,-3.64 3,3 0 0 1 -0.38,0.64 c -1.23,1.58 -3.95,2.45 -3.66,4.43 z"
       transform="translate(-79.34,-172.91)"
       id="path141"
       inkscape:connector-curvature="0" />
    <path
       d="m 518.76,380.29 a 12.32,12.32 0 0 0 -0.87,2.28 18.16,18.16 0 0 1 5,-1.89 z"
       transform="translate(-79.34,-172.91)"
       id="path143"
       inkscape:connector-curvature="0" />
    <path
       d="m 532.55,369.41 a 14.83,14.83 0 0 1 -1.88,-1.23 4.25,4.25 0 0 0 0.09,1.18 11.86,11.86 0 0 1 1.79,0.05 z"
       transform="translate(-79.34,-172.91)"
       id="path145"
       inkscape:connector-curvature="0" />
    <path
       d="m 630.32,428.33 c -0.41,4.85 -2.67,9.52 -4.5,14.12 -3.67,9.22 -5.74,19 -7.29,28.81 -1.39,8.79 -3,18.77 -10.5,23.64 a 30,30 0 0 1 -6.83,3 c -10.78,3.73 -21.65,7.47 -33,8.83 -11.35,1.36 -23.26,0.17 -33.16,-5.49 a 20,20 0 0 1 -7.18,-6.33 c -2.67,-4.23 -2.72,-9.53 -4,-14.37 a 82.21,82.21 0 0 0 -4,-10.52 c -2.21,-5.38 -3.91,-11 -5.6,-16.53 q -2.35,-7.71 -4.69,-15.43 a 28.81,28.81 0 0 1 -1.14,-4.75 c -0.39,2.56 0.37,5.24 1.14,7.75 q 2.34,7.73 4.69,15.43 c 1.69,5.57 3.39,11.15 5.6,16.53 a 82.21,82.21 0 0 1 4,10.52 c 1.26,4.84 1.31,10.14 4,14.37 a 20,20 0 0 0 7.18,6.33 c 9.9,5.66 21.84,6.85 33.16,5.49 11.32,-1.36 22.18,-5.1 33,-8.83 a 30,30 0 0 0 6.83,-3 c 7.45,-4.87 9.11,-14.85 10.5,-23.64 1.55,-9.81 3.62,-19.59 7.29,-28.81 2.18,-5.48 5,-11.05 4.52,-16.94 0,-0.06 -0.02,-0.12 -0.02,-0.18 z"
       transform="translate(-79.34,-172.91)"
       id="path147"
       inkscape:connector-curvature="0" />
    <path
       d="m 510.63,424.46 c 0,0 0,-0.07 0,-0.11 a 14,14 0 0 0 -0.46,-5.25 26.59,26.59 0 0 1 -0.39,-3.32 27.35,27.35 0 0 0 0.39,6.32 c 0.16,0.78 0.34,1.57 0.46,2.36 z"
       transform="translate(-79.34,-172.91)"
       id="path149"
       inkscape:connector-curvature="0" />
    <path
       d="m 513.68,400 a 27.74,27.74 0 0 1 2.61,-3.67 c -1.83,1.75 -5.21,0.19 -5.92,-2.24 a 5.83,5.83 0 0 0 0,3 4.39,4.39 0 0 0 3.31,2.91 z"
       transform="translate(-79.34,-172.91)"
       id="path151"
       inkscape:connector-curvature="0" />
  </g>
  <path
     d="m 642.7294,482.68732 c 0,0 3.04806,11.53292 -0.22765,21.4988 -3.2757,9.96587 0.22765,-21.4988 0.22765,-21.4988 z"
     id="path155"
     inkscape:export-filename="/home/viniciusramos/Development/pythonacademy/pythonacademy.github.io/assets/img/headline.png"
     inkscape:export-xdpi="46.099998"
     inkscape:export-ydpi="46.099998"
     inkscape:connector-curvature="0"
     style="opacity:0.1" />
  <path
     d="m 656.10444,494.55961 c 0,0 1.17534,14.61326 -1.85191,17.17135 -3.02726,2.55809 1.85191,-17.17135 1.85191,-17.17135 z"
     id="path157"
     inkscape:export-filename="/home/viniciusramos/Development/pythonacademy/pythonacademy.github.io/assets/img/headline.png"
     inkscape:export-xdpi="46.099998"
     inkscape:export-ydpi="46.099998"
     inkscape:connector-curvature="0"
     style="opacity:0.1" />
  <line
     x1="200.74893"
     y1="337.6088"
     x2="302.36383"
     y2="337.68472"
     stroke-miterlimit="10"
     id="line159"
     inkscape:export-filename="/home/viniciusramos/Development/pythonacademy/pythonacademy.github.io/assets/img/headline.png"
     inkscape:export-xdpi="46.099998"
     inkscape:export-ydpi="46.099998"
     style="fill:none;stroke:#f1c40f;stroke-width:2;stroke-miterlimit:10" />
  <line
     x1="200.6169"
     y1="350.07809"
     x2="302.23169"
     y2="350.16403"
     stroke-miterlimit="10"
     id="line161"
     inkscape:export-filename="/home/viniciusramos/Development/pythonacademy/pythonacademy.github.io/assets/img/headline.png"
     inkscape:export-xdpi="46.099998"
     inkscape:export-ydpi="46.099998"
     style="fill:none;stroke:#f1c40f;stroke-width:2;stroke-miterlimit:10" />
  <line
     x1="200.48476"
     y1="362.5574"
     x2="302.09967"
     y2="362.63333"
     stroke-miterlimit="10"
     id="line163"
     inkscape:export-filename="/home/viniciusramos/Development/pythonacademy/pythonacademy.github.io/assets/img/headline.png"
     inkscape:export-xdpi="46.099998"
     inkscape:export-ydpi="46.099998"
     style="fill:none;stroke:#f1c40f;stroke-width:2;stroke-miterlimit:10" />
  <path
     style="opacity:1;fill:none;fill-opacity:0.13824888;stroke:#f1c40f;stroke-width:3;stroke-miterlimit:4;stroke-dasharray:none;stroke-opacity:1"
     inkscape:connector-curvature="0"
     inkscape:export-ydpi="46.099998"
     inkscape:export-xdpi="46.099998"
     inkscape:export-filename="/home/viniciusramos/Development/pythonacademy/pythonacademy.github.io/assets/img/headline.png"
     id="path994"
     d="m 962.1866,441.10987 q -1.77961,3.73137 -3.54816,7.36285 -2.75989,5.64109 -5.44744,11.06294 c -0.79701,1.60165 -1.59369,3.1733 -2.37038,4.74517 -8.78555,17.47795 -16.97964,32.93206 -23.93458,45.63913 a 73.21,73.21 0 0 1 -64.21619,38.0222 l -151.65896,0.0442 -1.59992,-0.0169 -13.00075,0.002 -11.12065,0.002 -34.102,0.009 -1.37992,-0.0146 -17.36104,0.006 -0.52997,-0.006 -107.00629,0.027 -95.51523,-0.0113 -11.11065,0.002 -69.00407,0.0194 -0.08,-8.5e-4 -44.75257,0.006 -0.47998,-0.005 -141.50826,0.0317 -42.3325,0.0118 A 88.07,88.07 0 0 1 93.499031,543.94778 86.39,86.39 0 0 1 54.67328,518.78528 C 36.706381,498.56391 23.704571,475.05492 15.073587,449.60211 Q 13.201824,444.09198 11.59153,438.44462 C -18.11398,333.97423 20.866653,200.00946 89.414956,110.81026 q 4.309479,-5.59468 8.755986,-10.907901 l 0.07084,-0.0793 C 119.30083,74.524664 142.83526,53.45267 167.82439,38.556426 212.10685,12.113816 260.93438,5.0504158 308.6425,28.146855 c 40.36528,19.548492 78.14797,28.93907 114.84008,31.767732 3.70725,0.279269 7.41513,0.498541 11.10376,0.647606 84.19722,3.541697 163.45415,-25.970768 256.35638,-44.578142 3.69805,-0.740886 7.40599,-1.471667 11.14351,-2.162132 66.26564,-12.4590635 139.69501,-18.6219229 226.77564,-3.109024 a 189.09,189.09 0 0 1 26.69073,6.682982 q 5.74998,1.920989 11.07702,4.117516 c 41.45828,17.379944 63.83558,48.918648 73.06978,88.238627 q 1.3121,5.4742 2.2522,11.13447 c 16.1102,94.51588 -35.4139,227.7978 -79.765,320.22338 z" />
  <g
     id="g1129"
     transform="matrix(0.49649889,0,0,0.49649889,-666.86143,187.04047)">
    <g
       id="g1048">
	<path
   id="path996"
   d="m 512.001,391.794 c 0,7.145 -5.79,12.936 -12.937,12.936 H 12.937 C 5.791,404.73 0,398.939 0,391.794 V 64.937 C 0,57.794 5.791,51.999 12.937,51.999 h 486.127 c 7.146,0 12.937,5.795 12.937,12.938 z"
   style="fill:#e2e5e7"
   inkscape:connector-curvature="0" />

	<path
   id="path998"
   d="m 314.069,404.73 h -58.068 -58.069 c 0,0 -2.353,38.809 -7.057,47.041 h 65.126 65.125 c -4.704,-8.233 -7.057,-47.041 -7.057,-47.041 z"
   style="fill:#d1d5d5"
   inkscape:connector-curvature="0" />

	<path
   id="path1000"
   d="m 332.003,455.005 c -7.057,-0.883 -10.877,-3.234 -10.877,-3.234 h -65.125 -65.126 c 0,0 -3.82,2.352 -10.877,3.234 -7.055,0.883 -11.76,1.469 -11.76,4.998 h 87.763 87.762 c -10e-4,-3.529 -4.705,-4.115 -11.76,-4.998 z"
   style="fill:#c6cbcb"
   inkscape:connector-curvature="0" />

	<path
   id="path1002"
   d="M 499.064,51.999 H 12.937 C 5.791,51.999 0,57.794 0,64.937 V 358.474 H 512 V 64.937 c 10e-4,-7.143 -5.789,-12.938 -12.936,-12.938 z m -8.253,288.09 H 233.865 21.19 V 70.388 h 377.583 92.038 z"
   style="fill:#2d404e"
   inkscape:connector-curvature="0" />

	<polygon
   id="polygon1004"
   points="490.811,70.388 398.773,70.388 21.19,70.388 21.19,340.089 233.865,340.089 490.811,340.089 "
   style="fill:#e2e5e7" />

	<path
   id="path1006"
   d="m 314.069,404.73 h -58.068 -58.069 c 0,0 -0.351,5.773 -1.05,13.33 h 118.237 c -0.699,-7.557 -1.05,-13.33 -1.05,-13.33 z"
   style="fill:#c6cbcb"
   inkscape:connector-curvature="0" />

	<circle
   id="circle1008"
   r="8.4119997"
   cy="382.689"
   cx="256.06699"
   style="fill:#2d404e" />

	<g
   id="g1026">
		<g
   id="g1012">
			<rect
   id="rect1010"
   height="168.26801"
   width="201.98801"
   style="fill:#2d404e"
   y="121.105"
   x="69.414001" />

		</g>

		<g
   id="g1016">
			<polygon
   id="polygon1014"
   points="271.402,218.603 271.402,289.372 69.414,289.372 69.414,183.218 111.088,216.663 156.164,185.64 207.616,229.269 "
   style="fill:#df584c" />

		</g>

		<g
   id="g1020">
			<polygon
   id="polygon1018"
   points="156.164,185.64 161.566,185.64 212.281,228.485 207.616,229.269 "
   style="fill:#b9483e" />

		</g>

		<g
   id="g1024">
			<polygon
   id="polygon1022"
   points="69.414,176.749 69.414,183.218 111.088,216.663 114.729,214.157 "
   style="fill:#b9483e" />

		</g>

	</g>

	<g
   id="g1034">
		<path
   id="path1028"
   d="m 420.875,175.78 c 0,-12.271 -5.002,-23.373 -13.076,-31.383 l -31.133,31.383 30.858,31.645 c 8.232,-8.031 13.351,-19.238 13.351,-31.645 z"
   style="fill:#df584c"
   inkscape:connector-curvature="0" />

		<path
   id="path1030"
   d="m 376.666,175.78 h -44.21 c 0,24.414 19.792,44.209 44.21,44.209 12.008,0 22.891,-4.795 30.858,-12.564 z"
   style="fill:#2d404e"
   inkscape:connector-curvature="0" />

		<path
   id="path1032"
   d="m 376.666,131.569 c -24.418,0 -44.21,19.793 -44.21,44.211 h 44.21 l 31.133,-31.383 c -7.991,-7.927 -18.989,-12.828 -31.133,-12.828 z"
   style="fill:#586a73"
   inkscape:connector-curvature="0" />

	</g>

	<g
   id="g1042">
		<path
   id="path1036"
   d="m 442.588,239.362 c 0,2.23 -1.807,4.037 -4.037,4.037 H 314.78 c -2.229,0 -4.036,-1.807 -4.036,-4.037 v 0 c 0,-2.229 1.808,-4.037 4.036,-4.037 h 123.771 c 2.23,0 4.037,1.809 4.037,4.037 z"
   style="fill:#c6cbcb"
   inkscape:connector-curvature="0" />

		<path
   id="path1038"
   d="m 442.588,257.116 c 0,2.23 -1.807,4.037 -4.037,4.037 H 314.78 c -2.229,0 -4.036,-1.807 -4.036,-4.037 v 0 c 0,-2.229 1.808,-4.037 4.036,-4.037 h 123.771 c 2.23,0 4.037,1.809 4.037,4.037 z"
   style="fill:#c6cbcb"
   inkscape:connector-curvature="0" />

		<path
   id="path1040"
   d="m 420.875,274.87 c 0,2.23 -1.51,4.037 -3.372,4.037 H 314.114 c -1.861,0 -3.371,-1.807 -3.371,-4.037 v 0 c 0,-2.229 1.51,-4.037 3.371,-4.037 h 103.389 c 1.862,0 3.372,1.809 3.372,4.037 z"
   style="fill:#c6cbcb"
   inkscape:connector-curvature="0" />

	</g>

	<polygon
   id="polygon1044"
   points="149.934,177.065 153.049,171.671 156.163,166.278 159.277,171.671 162.392,177.065 156.163,177.065 "
   style="fill:#e2e5e7" />

	<path
   id="path1046"
   d="M 499.064,51.999 H 410.006 L 271.402,358.474 H 512.001 V 64.937 c 0,-7.143 -5.79,-12.938 -12.937,-12.938 z"
   style="opacity:0.2;fill:#e2e5e7;enable-background:new"
   inkscape:connector-curvature="0" />

</g>
    <g
       id="g1050">
</g>
    <g
       id="g1052">
</g>
    <g
       id="g1054">
</g>
    <g
       id="g1056">
</g>
    <g
       id="g1058">
</g>
    <g
       id="g1060">
</g>
    <g
       id="g1062">
</g>
    <g
       id="g1064">
</g>
    <g
       id="g1066">
</g>
    <g
       id="g1068">
</g>
    <g
       id="g1070">
</g>
    <g
       id="g1072">
</g>
    <g
       id="g1074">
</g>
    <g
       id="g1076">
</g>
    <g
       id="g1078">
</g>
  </g>
</svg>
