<?xml version="1.0" encoding="UTF-8" standalone="no"?>
<svg
   xmlns:dc="http://purl.org/dc/elements/1.1/"
   xmlns:cc="http://creativecommons.org/ns#"
   xmlns:rdf="http://www.w3.org/1999/02/22-rdf-syntax-ns#"
   xmlns:svg="http://www.w3.org/2000/svg"
   xmlns="http://www.w3.org/2000/svg"
   xmlns:xlink="http://www.w3.org/1999/xlink"
   xmlns:sodipodi="http://sodipodi.sourceforge.net/DTD/sodipodi-0.dtd"
   xmlns:inkscape="http://www.inkscape.org/namespaces/inkscape"
   id="currentIllo"
   data-name="Layer 1"
   width="878.63"
   height="482.99997"
   viewBox="0 0 878.62997 482.99997"
   class="injected-svg DownloadModal__ImageFile-sc-p17csy-5 iIfSkb grid_media"
   version="1.1"
   sodipodi:docname="intermediate-programmer.svg"
   inkscape:version="0.92.5 (0.92.5+69)">
  <metadata
     id="metadata2138">
    <rdf:RDF>
      <cc:Work
         rdf:about="">
        <dc:format>image/svg+xml</dc:format>
        <dc:type
           rdf:resource="http://purl.org/dc/dcmitype/StillImage" />
        <dc:title>feeling_proud</dc:title>
      </cc:Work>
    </rdf:RDF>
  </metadata>
  <defs
     id="defs2136">
    <linearGradient
       id="linearGradient2795">
      <stop
         id="stop2797"
         offset="0"
         style="stop-color:#b8b8b8;stop-opacity:0.49803922;" />
      <stop
         id="stop2799"
         offset="1"
         style="stop-color:#7f7f7f;stop-opacity:0;" />
    </linearGradient>
    <linearGradient
       id="linearGradient2787">
      <stop
         id="stop2789"
         offset="0"
         style="stop-color:#7f7f7f;stop-opacity:0.5;" />
      <stop
         id="stop2791"
         offset="1"
         style="stop-color:#7f7f7f;stop-opacity:0;" />
    </linearGradient>
    <linearGradient
       id="linearGradient3676">
      <stop
         id="stop3678"
         offset="0"
         style="stop-color:#b2b2b2;stop-opacity:0.5;" />
      <stop
         id="stop3680"
         offset="1"
         style="stop-color:#b3b3b3;stop-opacity:0;" />
    </linearGradient>
    <linearGradient
       id="linearGradient3236">
      <stop
         id="stop3244"
         offset="0"
         style="stop-color:#f4f4f4;stop-opacity:1" />
      <stop
         id="stop3240"
         offset="1"
         style="stop-color:white;stop-opacity:1" />
    </linearGradient>
    <linearGradient
       id="linearGradient4671">
      <stop
         id="stop4673"
         offset="0"
         style="stop-color:#ffd43b;stop-opacity:1;" />
      <stop
         id="stop4675"
         offset="1"
         style="stop-color:#ffe873;stop-opacity:1" />
    </linearGradient>
    <linearGradient
       id="linearGradient4689">
      <stop
         id="stop4691"
         offset="0"
         style="stop-color:#5a9fd4;stop-opacity:1;" />
      <stop
         id="stop4693"
         offset="1"
         style="stop-color:#306998;stop-opacity:1;" />
    </linearGradient>
    <linearGradient
       gradientTransform="translate(100.2702,99.61116)"
       gradientUnits="userSpaceOnUse"
       xlink:href="#linearGradient4671"
       id="linearGradient2987"
       y2="144.75717"
       x2="-65.308502"
       y1="144.75717"
       x1="224.23996" />
    <linearGradient
       gradientTransform="translate(100.2702,99.61116)"
       gradientUnits="userSpaceOnUse"
       xlink:href="#linearGradient4689"
       id="linearGradient2990"
       y2="76.313133"
       x2="26.670298"
       y1="77.475983"
       x1="172.94208" />
    <linearGradient
       y2="144.75717"
       x2="-65.308502"
       y1="144.75717"
       x1="224.23996"
       gradientTransform="matrix(0.562541,0,0,0.567972,-11.5974,-7.60954)"
       gradientUnits="userSpaceOnUse"
       id="linearGradient2255"
       xlink:href="#linearGradient4671"
       inkscape:collect="always" />
    <linearGradient
       y2="76.313133"
       x2="26.670298"
       y1="76.176224"
       x1="172.94208"
       gradientTransform="matrix(0.562541,0,0,0.567972,-11.5974,-7.60954)"
       gradientUnits="userSpaceOnUse"
       id="linearGradient2258"
       xlink:href="#linearGradient4689"
       inkscape:collect="always" />
    <radialGradient
       gradientUnits="userSpaceOnUse"
       gradientTransform="matrix(1,0,0,0.177966,0,108.7434)"
       r="29.036913"
       fy="132.28575"
       fx="61.518883"
       cy="132.28575"
       cx="61.518883"
       id="radialGradient2801"
       xlink:href="#linearGradient2795"
       inkscape:collect="always" />
    <linearGradient
       y2="137.27299"
       x2="112.03144"
       y1="192.35176"
       x1="150.96111"
       gradientTransform="matrix(0.20111394,0,0,0.20305558,393.38416,70.283831)"
       gradientUnits="userSpaceOnUse"
       id="linearGradient1475"
       xlink:href="#linearGradient4671"
       inkscape:collect="always" />
    <linearGradient
       y2="114.39767"
       x2="135.66525"
       y1="20.603781"
       x1="26.648937"
       gradientTransform="matrix(0.20111394,0,0,0.20305558,393.38416,70.283831)"
       gradientUnits="userSpaceOnUse"
       id="linearGradient1478"
       xlink:href="#linearGradient4689"
       inkscape:collect="always" />
  </defs>
  <sodipodi:namedview
     pagecolor="#ffffff"
     bordercolor="#666666"
     borderopacity="1"
     objecttolerance="10"
     gridtolerance="10"
     guidetolerance="10"
     inkscape:pageopacity="0"
     inkscape:pageshadow="2"
     inkscape:window-width="2560"
     inkscape:window-height="993"
     id="namedview2134"
     showgrid="false"
     inkscape:snap-bbox="true"
     inkscape:bbox-paths="true"
     inkscape:bbox-nodes="true"
     inkscape:snap-bbox-edge-midpoints="true"
     inkscape:snap-bbox-midpoints="true"
     fit-margin-top="0"
     fit-margin-left="0"
     fit-margin-right="0"
     fit-margin-bottom="0"
     inkscape:zoom="1.4096228"
     inkscape:cx="147.2589"
     inkscape:cy="385.27928"
     inkscape:window-x="0"
     inkscape:window-y="384"
     inkscape:window-maximized="1"
     inkscape:current-layer="currentIllo" />
  <title
     id="title2034">feeling_proud</title>
  <rect
     style="opacity:1;vector-effect:none;fill:none;fill-opacity:0.17647059;stroke:none;stroke-width:1.71638203;stroke-linecap:square;stroke-linejoin:bevel;stroke-miterlimit:4;stroke-dasharray:none;stroke-dashoffset:0;stroke-opacity:1"
     id="rect851"
     width="878.63"
     height="482.99997"
     x="0"
     y="4.295528e-06" />
  <path
     style="fill:#d38d5f;stroke-width:0.72120643"
     inkscape:connector-curvature="0"
     d="m 162.64269,54.04269 c 0,0 2.49061,20.75517 -6.64166,22.41559 -9.13227,1.66042 8.30207,29.88744 8.30207,29.88744 l 41.51034,4.98124 -9.96249,-33.20827 c 0,0 -6.64165,-2.49062 -2.49061,-19.09475 4.15104,-16.60414 -30.71765,-4.98125 -30.71765,-4.98125 z"
     id="path2084" />
  <polygon
     style="fill:#e6e6e6"
     points="549.625,619.279 671.722,619.279 674.189,380.018 516.326,380.018 516.326,565.013 547.27,615.443 "
     id="polygon2036"
     transform="matrix(0.7212064,0,0,0.7212064,231.15756,0.02058)" />
  <polygon
     style="opacity:0.1"
     points="549.169,380.018 516.326,380.018 516.326,565.013 547.27,615.443 "
     id="polygon2038"
     transform="matrix(0.7212064,0,0,0.7212064,231.15756,0.02058)" />
  <polygon
     style="fill:#e6e6e6"
     points="221.566,560.08 190.622,610.51 188.267,614.345 66.17,614.345 63.703,375.084 221.566,375.084 "
     id="polygon2040"
     transform="matrix(0.7212064,0,0,0.7212064,103.40445,0.02058)" />
  <polygon
     style="opacity:0.1"
     points="221.566,560.08 190.622,610.51 188.723,375.084 221.566,375.084 "
     id="polygon2042"
     transform="matrix(0.7212064,0,0,0.7212064,103.40445,0.02058)" />
  <polygon
     style="fill:#e6e6e6"
     points="47.67,382.484 47.67,366.451 109.335,334.385 656.923,334.385 711.188,371.385 711.188,382.484 "
     id="polygon2044"
     transform="matrix(0.96069916,0,0,0.7212064,91.987833,0.02058)" />
  <polygon
     style="opacity:0.1"
     points="47.67,382.484 47.67,366.451 711.188,371.385 711.188,382.484 "
     id="polygon2046"
     transform="matrix(0.96069916,0,0,0.7212064,91.987833,0.02058)" />
  <path
     style="fill:#004455;stroke-width:0.72120643"
     inkscape:connector-curvature="0"
     d="m 124.86828,236.27309 c 0,0 0.8302,48.15199 5.81148,63.92592 4.98128,15.77393 4.15103,16.60413 3.32083,19.09476 -0.83021,2.49062 -1.66042,0.83021 -1.66042,4.98124 0,4.15103 -1.66041,69.73737 0,75.54882 1.66041,5.81145 -4.98124,15.77393 0,16.60413 4.98123,0.83021 28.22703,0 29.05724,-4.98124 0.83021,-4.98124 -6.64166,-6.64165 -3.32083,-9.96248 3.32084,-3.32082 8.30207,-71.39779 8.30207,-71.39779 l 11.6229,-47.32178 21.58537,-24.90621 h 45.66134 l 14.11352,54.79366 c 0,0 -5.81148,15.77393 -1.66042,15.77393 4.15106,0 29.05724,4.98124 29.05724,-13.28331 0,-18.26455 -8.30207,-72.228 -9.96246,-73.88841 -1.6604,-1.66041 0.8302,-7.47187 -1.66042,-9.96249 -2.49062,-2.49062 -31.54786,-19.92496 -42.34054,-23.24578 -10.79269,-3.32083 -25.93299,-7.27328 -25.93299,-7.27328 z"
     id="path2090" />
  <path
     style="fill:#f9d226;stroke-width:0.72120643"
     inkscape:connector-curvature="0"
     d="m 148.94427,86.83586 c 0,0 40.68013,8.30207 50.64262,-4.98124 9.96248,-13.28331 14.11351,37.3593 14.11351,37.3593 l 4.98124,53.13324 -7.47186,29.05724 c 0,0 -39.01972,31.54786 -51.47282,34.03848 -12.4531,2.49061 -31.54786,4.15104 -31.54786,4.15104 0,0 5.81148,-92.15297 5.81148,-93.81338 0,-1.66041 14.94369,-58.94468 14.94369,-58.94468 z"
     id="path2096" />
  <path
     style="fill:#2c89a0;stroke-width:0.72120643"
     inkscape:connector-curvature="0"
     d="m 191.28486,76.87338 1.15639,-3.97962 c 0,0 34.5425,11.45149 36.20291,18.92335 1.66042,7.47186 0.83021,59.77489 -4.98124,63.92593 -5.81144,4.15103 -14.11352,10.79268 -8.30207,20.75516 5.81146,9.96248 12.45308,20.75518 17.43435,21.58538 4.98127,0.8302 14.11351,6.64165 11.62289,12.45307 -2.49062,5.81141 -32.37807,-4.98124 -32.37807,-4.98124 0,0 -19.92496,-14.94373 -19.09475,-38.18952 0.83021,-23.24579 -1.66041,-90.49251 -1.66041,-90.49251 z"
     id="path2100" />
  <path
     style="fill:#2c89a0;stroke-width:0.72120643"
     inkscape:connector-curvature="0"
     d="m 153.12406,77.923333 c 0,0 -9.05098,-5.18492 -11.54161,-0.20368 -2.49062,4.98124 -25.7364,17.43434 -28.22703,17.43434 -2.49061,0 4.98125,68.907157 1.66042,77.209227 -3.32083,8.30207 -19.094762,68.90718 -9.96248,73.88842 9.13227,4.98123 2.49062,-4.98125 11.6229,7.47185 9.13227,12.4531 53.96343,12.45307 56.45406,7.47187 2.49062,-4.98121 -19.92497,-42.34059 -15.77393,-77.20924 4.15103,-34.86864 10.79268,-83.02068 4.98124,-89.662327 -5.81145,-6.64165 -9.21357,-16.40046 -9.21357,-16.40046 z"
     id="path2098" />
  <path
     style="fill:#2c89a0;stroke-width:0.72120643"
     inkscape:connector-curvature="0"
     d="m 220.34205,88.49627 7.73514,2.05317 c 0,0 18.00128,46.09879 13.85025,77.64668 -4.15104,31.54789 -6.64166,24.90621 -6.64166,24.90621 0,0 -6.64165,-14.94373 -21.58538,-11.6229 z"
     id="path2106" />
  <path
     style="fill:#2c89a0;stroke-width:0.72120643"
     inkscape:connector-curvature="0"
     d="m 128.1891,90.15668 -6.64166,-1.66041 c 0,0 -13.2833,4.15103 -16.60413,21.58537 -3.32082,17.43434 -0.83021,87.17172 3.32083,88.00192 4.15103,0.83021 20.50191,-12.14268 23.11916,-9.39217 2.61725,2.75052 -5.68482,-11.36299 -3.19422,-18.83486 2.4906,-7.47186 2e-5,-79.69985 2e-5,-79.69985 z"
     id="path2112" />
  <polygon
     style="fill:#3f3d56"
     points="113.035,426.883 100.702,418.25 156.201,418.25 142.635,426.883 "
     id="polygon2048"
     transform="matrix(0.7212064,0,0,0.7212064,103.40445,0.02058)" />
  <polygon
     style="fill:#3f3d56"
     points="113.035,462.649 100.702,454.016 156.201,454.016 142.635,462.649 "
     id="polygon2050"
     transform="matrix(0.7212064,0,0,0.7212064,103.40445,0.02058)" />
  <polygon
     style="fill:#3f3d56"
     points="113.035,513.215 100.702,504.581 156.201,504.581 142.635,513.215 "
     id="polygon2052"
     transform="matrix(0.7212064,0,0,0.7212064,103.40445,0.02058)" />
  <polygon
     style="fill:#3f3d56"
     points="113.035,563.78 100.702,555.147 156.201,555.147 142.635,563.78 "
     id="polygon2054"
     transform="matrix(0.7212064,0,0,0.7212064,103.40445,0.02058)" />
  <polygon
     style="fill:#3f3d56"
     points="581.691,423.183 595.257,431.816 624.857,431.816 637.19,423.183 "
     id="polygon2056"
     transform="matrix(0.7212064,0,0,0.7212064,231.15756,0.02058)" />
  <polygon
     style="fill:#3f3d56"
     points="581.691,458.949 595.257,467.582 624.857,467.582 637.19,458.949 "
     id="polygon2058"
     transform="matrix(0.7212064,0,0,0.7212064,231.15756,0.02058)" />
  <polygon
     style="fill:#3f3d56"
     points="581.691,509.515 595.257,518.148 624.857,518.148 637.19,509.515 "
     id="polygon2060"
     transform="matrix(0.7212064,0,0,0.7212064,231.15756,0.02058)" />
  <polygon
     style="fill:#3f3d56"
     points="581.691,560.08 595.257,568.713 624.857,568.713 637.19,560.08 "
     id="polygon2062"
     transform="matrix(0.7212064,0,0,0.7212064,231.15756,0.02058)" />
  <path
     style="fill:#b3b3b3;stroke-width:0.87132096"
     inkscape:connector-curvature="0"
     d="M 586.06586,53.78695 H 368.94538 a 8.2101954,8.2101954 0 0 0 -8.21123,8.21123 v 146.25794 a 8.2101954,8.2101954 0 0 0 8.21123,8.21123 h 82.42078 l -3.08787,19.71471 c 0,0 -17.64669,9.37477 -5.23882,9.65052 12.40787,0.27575 70.86247,0 70.86247,0 0,0 11.30494,0 -6.61749,-9.92627 l -2.90466,-19.43896 h 81.68607 a 8.2101606,8.2101606 0 0 0 8.21122,-8.21123 V 61.99818 a 8.2101606,8.2101606 0 0 0 -8.21122,-8.21123 z"
     id="path2064" />
  <rect
     style="fill:#f2f2f2;stroke-width:0.87132096"
     x="368.59244"
     y="62.472435"
     width="217.82639"
     height="121.87247"
     id="rect2066" />
  <circle
     style="fill:#f2f2f2;stroke-width:0.87132096"
     cx="477.50562"
     cy="205.30032"
     r="5.2388601"
     id="circle2070" />
  <polygon
     style="fill:#3f3d56"
     points="477.971,346.56 481.452,357.952 481.452,361.117 311.202,361.117 311.202,358.585 311.436,357.952 315.632,346.56 "
     id="polygon2072"
     transform="matrix(0.7212064,0,0,0.7212064,103.40445,0.02058)" />
  <path
     style="fill:#3f3d56;stroke-width:0.72120643"
     inkscape:connector-curvature="0"
     d="m 497.88238,255.94356 c -0.22366,0.95625 -1.06811,1.96505 -2.97606,2.91902 -6.84677,3.42338 -20.76858,-0.91291 -20.76858,-0.91291 0,0 -10.72661,-1.82581 -10.72661,-6.61855 a 8.5577774,8.5577774 0 0 1 0.94028,-0.55914 c 2.87858,-1.52292 12.423,-5.28083 29.34626,0.15911 a 7.0578556,7.0578556 0 0 1 3.21683,2.10809 3.3658703,3.3658703 0 0 1 0.96788,2.90438 z"
     id="path2074" />
  <path
     style="opacity:0.1;stroke-width:0.72120643"
     inkscape:connector-curvature="0"
     d="m 497.88238,255.94356 c -8.38042,3.21115 -15.85027,3.45077 -23.51638,-1.87373 a 16.835323,16.835323 0 0 0 -10.01455,-3.29785 c 2.87857,-1.52292 12.423,-5.28083 29.34626,0.15911 a 7.0578556,7.0578556 0 0 1 3.21683,2.10809 3.3658703,3.3658703 0 0 1 0.96784,2.90438 z"
     id="path2076" />
  <ellipse
     style="fill:#f2f2f2;stroke-width:0.72120643"
     cx="487.37485"
     cy="253.15694"
     rx="2.9669349"
     ry="0.91290307"
     id="ellipse2078" />
  <polygon
     style="opacity:0.1"
     points="311.202,358.585 311.436,357.952 481.452,357.952 481.452,361.117 311.202,361.117 "
     id="polygon2080"
     transform="matrix(0.7212064,0,0,0.7212064,103.40445,0.02058)" />
  <path
     style="fill:#784421;stroke-width:0.72120643"
     inkscape:connector-curvature="0"
     d="M 171.6749,0.02069 A 6.1691563,6.1691563 0 0 0 168.09681,0.82 c -1.0645,0.729 -1.73543,2.00613 -2.42028,3.19457 a 38.213669,38.213669 0 0 1 -10.4101,11.75901 c -3.09321,2.26603 -7.02577,5.09147 -6.49655,9.26944 a 12.528531,12.528531 0 0 0 1.50774,3.9129 c 2.85353,5.76028 10.64037,10.21175 9.87444,16.78471 2.83507,-4.74621 -0.95704,-7.09307 1.87803,-11.83923 1.35013,-2.26026 3.69554,-4.81166 5.73398,-3.39221 0.68252,0.47527 1.13068,1.3277 1.84134,1.74472 1.69571,0.99506 3.49972,-0.90728 5.00075,-2.25473 5.17599,-4.64647 12.53673,-3.42919 18.97773,-1.98147 3.04078,0.68347 6.38073,1.58017 8.17827,4.48641 2.3634,3.82111 -2.24543,7.94794 -3.40991,12.26808 a 2.3540177,2.3540177 0 0 0 2.52633,2.92964 c 1.93266,-0.19065 4.22209,-0.3469 4.33646,-1.195 2.43157,0.0865 5.41099,-0.18882 6.45283,-2.72075 a 10.646564,10.646564 0 0 0 0.49945,-3.09627 c 0.38239,-4.25309 2.1875,-8.13319 3.38332,-12.18113 1.19583,-4.04794 1.71579,-8.79187 -0.30225,-12.38081 A 14.32577,14.32577 0 0 0 212.60445,12.9145 C 201.1524,1.8319 186.09548,0.00424 171.6749,0.02069 Z"
     id="path2082" />
  <polygon
     style="fill:#d38d5f"
     points="51.633,632.631 75.806,632.631 68.9,569.318 47.028,569.318 "
     id="polygon2086"
     transform="matrix(0.7212064,0,0,0.7212064,103.40445,0.02058)" />
  <polygon
     style="fill:#d38d5f"
     points="227.756,502.552 254.233,491.041 243.872,447.298 224.303,449.6 "
     id="polygon2088"
     transform="matrix(0.7212064,0,0,0.7212064,103.40445,0.02058)" />
  <path
     style="fill:#2f2e41;stroke-width:0.72120643"
     inkscape:connector-curvature="0"
     d="m 286.7586,347.5208 c 0,0 -12.45307,-4.15104 -18.26455,8.30207 -5.81148,12.45311 -3.32082,15.77393 -3.32082,15.77393 0,0 19.09475,6.64166 22.41558,3.32082 1.44481,-1.44482 6.03268,-1.94672 10.75516,-2.0527 7.19251,-0.16141 9.10613,-10.33722 2.31325,-12.70683 q -0.30395,-0.10602 -0.61531,-0.18419 c -6.64165,-1.66041 -13.28331,-12.4531 -13.28331,-12.4531 z"
     id="path2092" />
  <circle
     style="fill:#d38d5f;stroke-width:0.72120643"
     cx="181.32234"
     cy="42.834892"
     r="24.906206"
     id="circle2094" />
  <path
     style="fill:#d38d5f;stroke-width:0.72120643"
     inkscape:connector-curvature="0"
     d="m 220.34205,174.83778 -19.92496,37.35931 c 0,0 -29.05723,29.88744 -12.45307,33.20827 16.60416,3.32083 25.73641,-27.39683 25.73641,-27.39683 l 21.58538,-30.71762 z"
     id="path2102" />
  <path
     style="fill:#784421;stroke-width:0.72120643"
     inkscape:connector-curvature="0"
     d="m 172.88819,6.53734 a 5.652859,5.652859 0 0 0 -2.91272,0.56495 6.7888745,6.7888745 0 0 0 -1.97021,2.25789 28.684304,28.684304 0 0 1 -8.47425,8.31119 c -2.518,1.60163 -5.71927,3.59861 -5.28846,6.55158 a 8.1925369,8.1925369 0 0 0 1.22736,2.76561 21.754066,21.754066 0 0 1 2.64336,13.55917 l 6.92366,-10.06371 c 1.09907,-1.59753 3.00834,-3.40085 4.6677,-2.3976 0.55561,0.33592 0.92043,0.93842 1.49893,1.23316 1.38039,0.7033 2.84891,-0.64124 4.07083,-1.59363 4.21346,-3.28409 10.20542,-2.42373 15.44866,-1.40049 2.47532,0.48307 5.19418,1.11685 6.65746,3.17097 2.43168,3.41355 -0.10746,8.34587 1.31174,12.28936 a 3.622901,3.622901 0 0 0 1.49905,-2.39236 c 1.9794,0.0611 4.40476,-0.13343 5.25287,-1.92302 a 6.6261343,6.6261343 0 0 0 0.40657,-2.18842 c 0.31128,-3.00605 1.78071,-5.74848 2.75416,-8.60953 0.97346,-2.86106 1.39673,-6.21403 -0.24604,-8.75068 a 10.588082,10.588082 0 0 0 -2.15227,-2.2712 C 196.88412,7.81749 184.62714,6.52571 172.88819,6.53734 Z"
     id="path2104" />
  <path
     style="fill:#2f2e41;stroke-width:0.72120643"
     inkscape:connector-curvature="0"
     d="m 138.47159,450.2433 c -2.00201,2.72059 -1.60061,6.60956 -3.374,9.4844 -1.53721,2.49196 -4.43425,3.79856 -6.357,6.00671 a 16.101769,16.101769 0 0 0 -1.63438,2.35104 c -1.78362,2.98763 -3.23338,6.81665 -1.47674,9.82024 1.4131,2.4162 4.38339,3.36054 7.10748,4.00414 3.44309,0.81352 7.02049,1.46456 10.50332,0.84291 3.48284,-0.62164 6.88667,-2.75428 8.12848,-6.06706 a 23.439287,23.439287 0 0 1 0.86913,-2.45261 c 1.88773,-3.71633 7.80885,-3.75651 9.74081,-7.45006 1.35202,-2.58481 0.10918,-5.70924 -1.13314,-8.34853 l -3.79433,-8.061 c -1.25917,-2.67509 -6.36365,-1.13668 -9.02474,-1.77771 -3.47062,-0.83599 -7.05814,-1.7571 -9.55489,1.64753 z"
     id="path2108" />
  <path
     style="fill:#d38d5f;stroke-width:0.72120643"
     inkscape:connector-curvature="0"
     d="m 110.75476,191.44192 34.86868,53.96344 c 0,0 21.58538,27.39682 28.22703,14.94372 6.64166,-12.4531 -23.24579,-33.20827 -23.24579,-33.20827 l -22.41558,-41.5103 z"
     id="path2110" />
  <g
     id="g994"
     transform="matrix(2.3241785,0,0,2.3241785,-495.42868,-96.360151)">
    <path
       id="path1948"
       d="m 418.37764,74.467873 c -1.6387,0.0076 -3.20362,0.147373 -4.58059,0.391026 -4.05639,0.716632 -4.79287,2.216601 -4.79287,4.982794 v 3.653303 h 9.58573 v 1.217768 h -9.58573 -3.59744 c -2.78588,0 -5.22528,1.674476 -5.98829,4.8599 -0.88013,3.651237 -0.91917,5.929668 0,9.742143 0.68138,2.837863 2.30863,4.859903 5.09451,4.859903 h 3.2958 v -4.379499 c 0,-3.163927 2.7375,-5.954774 5.98829,-5.954774 h 9.57456 c 2.66521,0 4.79286,-2.194452 4.79286,-4.871071 v -9.127673 c 0,-2.597788 -2.19153,-4.549231 -4.79286,-4.982794 -1.64669,-0.27411 -3.35527,-0.398641 -4.99397,-0.391026 z m -5.18389,2.938284 c 0.99014,0 1.79872,0.82179 1.79872,1.832238 0,1.006869 -0.80858,1.821065 -1.79872,1.821065 -0.99369,0 -1.79872,-0.814196 -1.79872,-1.821065 -1e-5,-1.010448 0.80503,-1.832238 1.79872,-1.832238 z"
       style="fill:url(#linearGradient1478);fill-opacity:1;stroke-width:0.35750985"
       inkscape:connector-curvature="0" />
    <path
       id="path1950"
       d="m 429.3599,84.712764 v 4.256602 c 0,3.300087 -2.79784,6.077667 -5.98829,6.077667 h -9.57456 c -2.62264,0 -4.79287,2.244622 -4.79287,4.871072 v 9.127675 c 0,2.59779 2.25895,4.12578 4.79287,4.87107 3.0343,0.8922 5.94404,1.05345 9.57456,0 2.41324,-0.69871 4.79286,-2.10488 4.79286,-4.87107 v -3.65331 h -9.57456 v -1.21776 h 9.57456 4.79287 c 2.78588,0 3.82401,-1.94322 4.79286,-4.859903 1.00079,-3.002683 0.95821,-5.89025 0,-9.742143 -0.68848,-2.773362 -2.00344,-4.8599 -4.79286,-4.8599 z m -5.385,23.115246 c 0.99369,0 1.79873,0.8142 1.79873,1.82107 -1e-5,1.01044 -0.80504,1.83223 -1.79873,1.83223 -0.99014,0 -1.79872,-0.82179 -1.79872,-1.83223 0,-1.00687 0.80858,-1.82107 1.79872,-1.82107 z"
       style="fill:url(#linearGradient1475);fill-opacity:1;stroke-width:0.35750985"
       inkscape:connector-curvature="0" />
  </g>
</svg>
