<svg id="Layer_1" data-name="Layer 1" xmlns="http://www.w3.org/2000/svg" viewBox="0 0 233.74 75.02"><defs><style>.cls-1{fill:#fff;}.cls-2{fill:#f04e23;}</style></defs><title>Logo_white</title><path class="cls-1" d="M91.93,167.11v-33.8a0.3,0.3,0,0,1,.31-0.31h6.49a0.31,0.31,0,0,1,.31.31v12.18h0.1a8.84,8.84,0,0,1,7.17-3.15c5.11,0,6.75,3.34,6.75,7.77v17a0.31,0.31,0,0,1-.31.31h-6.49a0.31,0.31,0,0,1-.31-0.31V150.74c0-1.92-2-2.51-3.28-2.51s-3.63.84-3.63,3.24v15.64a0.31,0.31,0,0,1-.31.31H92.24A0.31,0.31,0,0,1,91.93,167.11Z" transform="translate(-24.3 -104.84)"/><path class="cls-1" d="M143.75,160.44V148.79h-3a0.31,0.31,0,0,1-.31-0.31V144.3a0.31,0.31,0,0,1,.21-0.29l4-1.17,2.13-6.67A0.31,0.31,0,0,1,147,136h3.5a0.3,0.3,0,0,1,.31.31v6.58h5.25a0.31,0.31,0,0,1,.31.31v5.34a0.3,0.3,0,0,1-.31.3h-5.25V159.7c0,1.13.64,1.82,2.21,1.82h3a0.31,0.31,0,0,1,.31.31c0,0.08,0,3.76,0,4.69a0.32,0.32,0,0,1-.2.29,12,12,0,0,1-5,1.1C145.9,167.91,143.75,164.81,143.75,160.44Z" transform="translate(-24.3 -104.84)"/><path class="cls-1" d="M245.38,160.44V148.79h-3a0.31,0.31,0,0,1-.31-0.31V144.3a0.31,0.31,0,0,1,.21-0.29l4-1.17,2.13-6.67a0.31,0.31,0,0,1,.29-0.21h3.5a0.3,0.3,0,0,1,.31.31v6.58h5.25a0.31,0.31,0,0,1,.31.31v5.34a0.3,0.3,0,0,1-.31.3h-5.25V159.7c0,1.13.64,1.82,2.21,1.82h3a0.31,0.31,0,0,1,.31.31c0,0.08,0,3.76,0,4.69a0.32,0.32,0,0,1-.2.29,12,12,0,0,1-5,1.1C247.53,167.91,245.38,164.81,245.38,160.44Z" transform="translate(-24.3 -104.84)"/><path class="cls-1" d="M160.68,167.11v-24a0.31,0.31,0,0,1,.31-0.31h5.86a0.31,0.31,0,0,1,.29.21l0.68,2.44h0.1a8.76,8.76,0,0,1,7.13-3.15c3.49,0,5.17,1.57,6.11,4h0.2a8.62,8.62,0,0,1,7.71-4c5.11,0,6.75,3.34,6.75,7.77v17a0.31,0.31,0,0,1-.31.31H189a0.31,0.31,0,0,1-.31-0.31V150.85c0-1.92-1.81-2.66-3.09-2.66-1.48,0-3.68.94-3.78,3.1v15.82a0.3,0.3,0,0,1-.31.31h-6.53a0.31,0.31,0,0,1-.3-0.31V150.85c0-1.92-1.92-2.66-3.32-2.66a3.53,3.53,0,0,0-3.55,3.4v15.52a0.31,0.31,0,0,1-.3.31H161A0.31,0.31,0,0,1,160.68,167.11Z" transform="translate(-24.3 -104.84)"/><path class="cls-1" d="M200.11,148.24v-4.46a0.32,0.32,0,0,1,.25-0.3,50.16,50.16,0,0,1,9.5-1.13c6.29,0,10,1.52,10,8.31v16.46a0.31,0.31,0,0,1-.31.31h-6.21a0.3,0.3,0,0,1-.29-0.23l-0.67-2.43h0.28c-1.77,2.46-4.12,3.15-7,3.15-4.62,0-7.08-3.59-7.08-7.82,0-6.39,4.67-7.67,8.16-7.67h6v-1.62c0-2-1.5-2.45-7.2-2.45-2.41,0-5,.19-5.11.19A0.32,0.32,0,0,1,200.11,148.24Zm12.62,8.56h-3.9c-2.07,0-3.41.79-3.41,3,0,2.38,1.71,2.92,3.35,2.92a3.8,3.8,0,0,0,4-4v-2Z" transform="translate(-24.3 -104.84)"/><path class="cls-1" d="M224,167.11v-24a0.31,0.31,0,0,1,.3-0.31h5.8a0.3,0.3,0,0,1,.3.25l0.69,3.73h0.1a8.38,8.38,0,0,1,7.59-4.47,0.31,0.31,0,0,1,.31.31v6.68a0.31,0.31,0,0,1-.31.31h-1.66c-4.47,0-6,1.79-6,4v13.46a0.31,0.31,0,0,1-.3.31h-6.49A0.31,0.31,0,0,1,224,167.11Z" transform="translate(-24.3 -104.84)"/><path class="cls-1" d="M116.08,155.13c0-7.82,3.05-12.78,11.7-12.78s11.75,5,11.75,12.78-3.05,12.78-11.75,12.78S116.08,163,116.08,155.13Zm7.68,0c0,4.23.62,6.82,4,6.82s4.07-2.59,4.07-6.82-0.63-6.78-4.07-6.78S123.76,150.9,123.76,155.13Z" transform="translate(-24.3 -104.84)"/><path class="cls-2" d="M78.58,152.69c0.34-6.69-2-17.63-7.56-26.58-0.15-.23-0.4-0.14-0.35.1,0.37,1.36.46,3.83-1.7,3.68-3.84-.26.13-8.48-8.3-14.18a0.18,0.18,0,0,0-.28.22c0.58,1.1.92,4.53-.41,5.7-1.07.94-3,.69-4.93-2.4a13.35,13.35,0,0,1,.19-14.08c0.16-.26-0.06-0.36-0.24-0.3-11.6,3.83-13.92,17.51-16.39,22.49-0.41.84-.77,1.27-1.48,1.23-2.11-.14-0.59-4.65.14-6.22a0.18,0.18,0,0,0-.29-0.2,49.27,49.27,0,0,0-12.41,26.75c0-.23-0.1.82-0.16,1.59h0q0,0.45-.06.91c0,0.36,0,.72,0,1.09a27.14,27.14,0,0,0,54.29.45C78.59,152.85,78.58,152.77,78.58,152.69ZM51.34,165.3A12.59,12.59,0,1,1,64,152.82,12.59,12.59,0,0,1,51.34,165.3Z" transform="translate(-24.3 -104.84)"/></svg>