<?xml version="1.0" encoding="UTF-8" standalone="no"?>
<svg
   xmlns:dc="http://purl.org/dc/elements/1.1/"
   xmlns:cc="http://creativecommons.org/ns#"
   xmlns:rdf="http://www.w3.org/1999/02/22-rdf-syntax-ns#"
   xmlns:svg="http://www.w3.org/2000/svg"
   xmlns="http://www.w3.org/2000/svg"
   xmlns:sodipodi="http://sodipodi.sourceforge.net/DTD/sodipodi-0.dtd"
   xmlns:inkscape="http://www.inkscape.org/namespaces/inkscape"
   id="currentIllo"
   data-name="Layer 1"
   width="878.63"
   height="482.99997"
   viewBox="0 0 878.63 482.99997"
   class="injected-svg DownloadModal__ImageFile-sc-p17csy-5 iIfSkb grid_media"
   version="1.1"
   sodipodi:docname="new-programmer.svg"
   inkscape:version="0.92.5 (0.92.5+69)">
  <metadata
     id="metadata44">
    <rdf:RDF>
      <cc:Work
         rdf:about="">
        <dc:format>image/svg+xml</dc:format>
        <dc:type
           rdf:resource="http://purl.org/dc/dcmitype/StillImage" />
        <dc:title></dc:title>
      </cc:Work>
    </rdf:RDF>
  </metadata>
  <defs
     id="defs42" />
  <sodipodi:namedview
     pagecolor="#ffffff"
     bordercolor="#666666"
     borderopacity="1"
     objecttolerance="10"
     gridtolerance="10"
     guidetolerance="10"
     inkscape:pageopacity="0"
     inkscape:pageshadow="2"
     inkscape:window-width="2560"
     inkscape:window-height="993"
     id="namedview40"
     showgrid="false"
     inkscape:snap-bbox="true"
     inkscape:bbox-paths="true"
     inkscape:bbox-nodes="true"
     inkscape:snap-bbox-edge-midpoints="true"
     inkscape:snap-bbox-midpoints="true"
     fit-margin-top="0"
     fit-margin-left="0"
     fit-margin-right="0"
     fit-margin-bottom="0"
     inkscape:zoom="0.4732124"
     inkscape:cx="970.7921"
     inkscape:cy="164.53284"
     inkscape:window-x="0"
     inkscape:window-y="384"
     inkscape:window-maximized="1"
     inkscape:current-layer="currentIllo" />
  <rect
     style="opacity:1;vector-effect:none;fill:none;fill-opacity:0.17647059;stroke:none;stroke-width:1.71638203;stroke-linecap:square;stroke-linejoin:bevel;stroke-miterlimit:4;stroke-dasharray:none;stroke-dashoffset:0;stroke-opacity:1"
     id="rect851"
     width="878.63"
     height="482.99997"
     x="1.1523438e-05"
     y="3.621966e-08" />
  <g
     id="g875"
     transform="translate(0,-3.2062511e-5)">
    <path
       id="path2"
       transform="translate(-160.68481,-208.5)"
       d="m 294.7164,621.20348 c -19.51084,14.54436 -25.04043,40.13465 -25.04043,40.13465 0,0 26.10369,2.00928 45.61453,-12.53511 19.51084,-14.54439 25.04043,-40.13465 25.04043,-40.13465 0,0 -26.10368,-2.00921 -45.61453,12.53511 z"
       inkscape:connector-curvature="0"
       style="fill:#f1f1f1" />
    <path
       id="path4"
       transform="translate(-160.68481,-208.5)"
       d="m 302.84375,628.03207 c -9.37708,22.45621 -32.86178,34.02822 -32.86178,34.02822 0,0 -8.28141,-24.83665 1.09568,-47.29286 9.37709,-22.45621 32.86172,-34.02822 32.86172,-34.02822 0,0 8.28147,24.83666 -1.09562,47.29286 z"
       inkscape:connector-curvature="0"
       style="fill:#f1f1f1" />
    <path
       id="path6"
       transform="translate(-160.68481,-208.5)"
       d="m 864.18723,563.11405 v 0 a 194.65688,194.65688 0 0 1 -1.63336,-42.19544 l 1.63336,-23.307 v 0 c -9.00016,17.90831 -6.96615,41.47881 0,65.50242 z"
       inkscape:connector-curvature="0"
       style="fill:#cacaca" />
    <path
       id="path8"
       transform="translate(-160.68481,-208.5)"
       d="m 871.20535,567.013 v 0 a 143.0906,143.0906 0 0 1 -0.78588,-25.11633 l 0.78588,-13.87323 v 0 c -4.33026,10.65974 -3.35162,24.68975 0,38.98956 z"
       inkscape:connector-curvature="0"
       style="fill:#cacaca" />
    <path
       id="path10"
       transform="translate(-160.68481,-208.5)"
       d="m 902.40062,584.17028 v 7.79791 a 2.3515,2.3515 0 0 1 -2.33937,2.33937 h -3.899 a 0.777,0.777 0 0 0 -0.77979,0.77979 v 63.94288 a 2.35149,2.35149 0 0 1 -2.33937,2.33937 h -47.56722 a 2.34116,2.34116 0 0 1 -2.33938,-2.33937 v -63.94288 a 0.78216,0.78216 0 0 0 -0.77979,-0.77979 h -4.6787 a 2.34117,2.34117 0 0 1 -2.33937,-2.33937 v -7.79791 a 2.33615,2.33615 0 0 1 2.33937,-2.33938 h 62.3833 a 2.3464,2.3464 0 0 1 2.33932,2.33938 z"
       inkscape:connector-curvature="0"
       style="fill:#f2f2f2" />
    <rect
       id="rect12"
       height="2.33937"
       width="52.24601"
       y="387.4451"
       x="682.52173"
       style="fill:#e6e6e6" />
    <path
       id="path14"
       transform="translate(-160.68481,-208.5)"
       d="m 895.3825,630.36884 c -17.48271,7.23486 -35.15611,7.31459 -53.0258,0 v -16.481 a 83.27378,83.27378 0 0 1 53.0258,0 z"
       inkscape:connector-curvature="0"
       style="fill:#e6e6e6" />
    <circle
       r="70.665901"
       cy="99.21067"
       cx="441.8526"
       data-name="Ellipse 276"
       id="fff0188c-9915-4c0d-8339-9317a77083e8"
       style="fill:#feb8b8" />
    <path
       transform="translate(-160.68481,-208.5)"
       d="m 668.54008,246.746 a 81.61376,81.61376 0 0 0 -46.43,-35.49166 l -8.6754,6.33079 v -8.22035 a 75.12281,75.12281 0 0 0 -14.03207,-0.81741 l -7.48468,6.7722 V 209.11 a 80.83444,80.83444 0 0 0 -55.76328,33.16889 c -16.25407,23.43225 -18.99783,56.03165 -3.01076,79.65191 4.38811,-13.48715 9.71486,-26.14193 14.1043,-39.62775 a 39.91571,39.91571 0 0 0 10.39873,0.0504 l 5.339,-12.45857 1.49177,11.93136 c 16.54971,-1.44138 41.0963,-4.60742 56.785,-7.50784 l -1.52581,-9.15355 9.12769,7.606 c 4.80635,-1.10624 7.66041,-2.11028 7.42476,-2.87726 11.66844,18.81119 25.94847,30.82566 37.61558,49.63682 4.43172,-26.5248 9.53234,-48.57975 -5.36483,-72.7844 z"
       data-name="Path 1461"
       id="ac220ed6-7c3f-4d1e-8d82-3295770c496a-577"
       inkscape:connector-curvature="0"
       style="fill:#2f2e41" />
    <path
       id="path18"
       transform="translate(-160.68481,-208.5)"
       d="m 754.51974,489.43043 c -2.43,-14.61929 -4.93649,-29.51921 -11.73089,-42.68893 -4.46552,-8.62629 -11.55394,-16.84664 -21.1096,-18.55231 a 20.4215,20.4215 0 0 1 -5.49659,-1.27245 c -2.79985,-1.34871 -40.42516,-22.82733 -46.40535,-26.56828 -5.13471,-3.21152 -13.24023,-9.158 -17.32725,-9.158 -4.11163,-0.0904 -19.87765,3.579 -81.41374,-1.23129 0,0 -16.90485,6.66319 -29.98543,14.74285 -0.19823,-0.13063 -63.869,34.06031 -66.261,33.97034 -4.53005,-0.19075 -8.74079,2.70971 -11.33775,6.36219 -2.5963,3.65239 -3.81429,8.174 -5.08948,12.54576 13.90677,30.97 26.6308,61.97961 40.5389,92.94963 a 7.93068,7.93068 0 0 1 1.00579,3.81454 9.30964,9.30964 0 0 1 -1.7302,3.81453 c -6.82034,10.95592 -6.60348,24.736 -5.85845,37.61284 0.74569,12.87686 1.66766,26.47839 -4.087,38.02019 -1.56523,3.16878 -3.60075,6.06924 -5.08948,9.238 -3.48634,7.17681 -4.74624,30.13086 -2.71,37.84166 l 255.12065,7.30869 c -5.48539,-15.07829 18.96687,-198.74996 18.96687,-198.74996 z"
       inkscape:connector-curvature="0"
       style="fill:#f9d226" />
    <path
       transform="translate(-160.68481,-208.5)"
       d="m 436.31023,551.90313 a 45.04293,45.04293 0 0 0 -0.15258,11.10851 l 3.65653,52.51275 c 0.34331,4.94938 0.68117,9.88653 1.14573,14.82359 0.87734,9.58136 2.18792,19.08639 3.81455,28.57778 a 5.08966,5.08966 0 0 0 5.21639,4.94937 c 16.096,3.40585 32.72612,3.26965 49.15321,2.34185 25.067,-1.39909 89.1978,-4.0461 93.11589,-9.13583 3.91809,-5.08973 1.63483,-13.32231 -3.474,-17.43793 -5.10883,-4.11562 -89.73865,-14.14932 -89.73865,-14.14932 0.82693,-6.55285 3.32139,-12.72429 5.68777,-18.946 4.25049,-11.03491 8.22035,-22.43228 8.29664,-34.2533 0.0763,-11.82102 -4.37719,-24.24962 -14.0607,-31.02182 -7.9656,-5.5597 -18.22129,-6.591 -27.928,-6.3621 -7.06238,0.203 -19.26485,-1.48907 -25.71553,1.27245 -5.1046,2.24787 -8.06361,10.72166 -9.01725,15.72 z"
       data-name="Path 1421"
       id="bb46eb08-8e3e-4ac5-913b-26d221d967b9-578"
       inkscape:connector-curvature="0"
       style="fill:#fbbebe" />
    <path
       transform="translate(-160.68481,-208.5)"
       d="m 457.62676,458.523 a 13.16962,13.16962 0 0 0 -2.82413,4.51753 213.58786,213.58786 0 0 0 -17.94063,73.3156 7.32926,7.32926 0 0 1 -0.82693,3.55028 15.53466,15.53466 0 0 1 -1.87049,2.023 7.02422,7.02422 0 0 0 0.84,9.89817 q 0.17346,0.1463 0.35609,0.28121 c 2.09937,-3.95082 7.125,-5.24231 11.59215,-5.58556 21.38872,-1.692 42.28155,8.25852 63.73432,7.50784 -1.51355,-5.23 -3.69057,-10.25571 -4.92486,-15.54841 -5.4589,-23.50169 8.15632,-49.08916 -0.19073,-71.72579 -1.6675,-4.52979 -4.45348,-8.98325 -8.84294,-10.96818 a 23.55527,23.55527 0 0 0 -5.66189,-1.49858 c -5.42075,-0.97952 -16.21183,-5.166 -21.45275,-3.48622 -1.93452,0.624 -2.69742,2.44268 -4.3009,3.54209 -2.43585,1.55588 -5.66731,2.12802 -7.68631,4.17702 z"
       data-name="Path 1430"
       id="efe93a1e-ccdd-49fd-af5f-e26394aa0937-579"
       inkscape:connector-curvature="0"
       style="fill:#f9d226" />
    <path
       transform="translate(-160.68481,-208.5)"
       d="m 754.67242,536.1831 c -6.45068,-2.76152 -18.65315,-1.06948 -25.71553,-1.27245 -9.70666,-0.22892 -19.96235,0.8024 -27.928,6.3621 -9.68351,6.7722 -14.137,19.2008 -14.0607,31.02182 0.0763,11.82102 4.04615,23.21839 8.29664,34.2533 2.36638,6.22174 4.86084,12.39318 5.68777,18.946 0,0 -84.62988,10.0337 -89.73865,14.14932 -5.10877,4.11562 -7.39205,12.34819 -3.474,17.43793 3.91805,5.08974 126.17305,10.19983 142.2691,6.794 a 5.08966,5.08966 0 0 0 5.21639,-4.94937 c 1.62663,-9.49139 2.93721,-18.99642 3.81455,-28.57778 0.46456,-4.93706 0.80242,-9.87421 1.14573,-14.82359 l 3.65653,-52.51275 a 45.04293,45.04293 0 0 0 -0.15258,-11.10851 c -0.95354,-4.99833 -3.91255,-13.47212 -9.01725,-15.72002 z"
       data-name="Path 1421"
       id="a38c3c09-000b-42b7-8619-0229d8aff5e9-580"
       inkscape:connector-curvature="0"
       style="fill:#fbbebe" />
    <path
       transform="translate(-160.68481,-208.5)"
       d="m 734.68691,454.346 c -1.60348,-1.09941 -2.36638,-2.91813 -4.3009,-3.54209 -5.24092,-1.67976 -16.032,2.5067 -21.45275,3.48622 a 23.55527,23.55527 0 0 0 -5.66189,1.49858 c -4.38946,1.98493 -7.17544,6.43839 -8.84294,10.96818 -8.34705,22.63663 5.26817,48.2241 -0.19073,71.72579 -1.23429,5.2927 -3.41131,10.3184 -4.92486,15.54841 21.45277,0.75068 42.3456,-9.19987 63.73432,-7.50784 4.46712,0.34325 9.49278,1.63474 11.59215,5.58556 q 0.18253,-0.13482 0.35609,-0.28121 a 7.02422,7.02422 0 0 0 0.84005,-9.89817 15.53466,15.53466 0 0 1 -1.87049,-2.023 7.32926,7.32926 0 0 1 -0.82693,-3.55028 213.58786,213.58786 0 0 0 -17.94066,-73.31562 13.16962,13.16962 0 0 0 -2.82413,-4.51753 c -2.019,-2.049 -5.25046,-2.62114 -7.68633,-4.177 z"
       data-name="Path 1430"
       id="bd3879bf-5d05-49be-b690-c4d97e29a2ab-581"
       inkscape:connector-curvature="0"
       style="fill:#f9d226" />
    <circle
       id="circle24"
       r="19.07275"
       cy="438.81027"
       cx="420.92361"
       style="fill:#fbbebe" />
    <circle
       id="circle26"
       r="19.07275"
       cy="438.81027"
       cx="463.15613"
       style="fill:#fbbebe" />
    <path
       id="path28"
       transform="translate(-160.68481,-208.5)"
       d="M 741.57233,690.28819 H 479.54154 A 11.55237,11.55237 0 0 1 468.00223,678.74955 V 519.78292 a 11.55237,11.55237 0 0 1 11.53931,-11.53864 h 262.03079 a 11.55237,11.55237 0 0 1 11.5393,11.53864 v 158.96663 a 11.55237,11.55237 0 0 1 -11.5393,11.53864 z"
       inkscape:connector-curvature="0"
       style="fill:#3f3d56" />
    <circle
       r="7.6345501"
       cy="390.76627"
       cx="449.23651"
       data-name="Ellipse 263"
       id="bf1cdf42-3b4f-4239-91c9-f6802a29e918"
       style="fill:#ffffff" />
    <polygon
       id="polygon31"
       points="51.97,483 826.68,483 826.68,476.724 878.63,476.724 878.63,449.724 0,449.724 0,476.724 51.97,476.724 "
       style="fill:#f1f1f1" />
    <path
       id="path33"
       transform="translate(-160.68481,-208.5)"
       d="m 537.55552,334.04923 v 0 c -11.3546,0 -20.55934,-9.95244 -20.55934,-22.22945 v 0 -11.11478 c 0,-12.277 9.20473,-22.22945 20.55933,-22.22945 v 0 55.57369 z"
       inkscape:connector-curvature="0"
       style="fill:#f9d226" />
    <path
       id="path35"
       transform="translate(-160.68481,-208.5)"
       d="m 668.77923,278.47558 v 0 c 11.35461,0 20.55935,9.95245 20.55935,22.22943 v 11.11477 c 0,12.277 -9.20472,22.22945 -20.55935,22.22945 v 0 z"
       inkscape:connector-curvature="0"
       style="fill:#f9d226" />
    <path
       id="path37"
       transform="translate(-160.68481,-208.5)"
       d="m 679.55259,302.45164 h -3.262 c 0,-44.73 -33.65638,-81.12069 -75.026,-81.12069 -41.36939,0 -75.02605,36.3907 -75.02605,81.12069 h -3.262 c 0,-46.6749 35.11988,-84.64766 78.288,-84.64766 43.16846,2e-5 78.28805,37.97279 78.28805,84.64766 z"
       inkscape:connector-curvature="0"
       style="fill:#f9d226" />
  </g>
</svg>
