<?xml version="1.0" encoding="UTF-8" standalone="no"?>
<svg
   xmlns:dc="http://purl.org/dc/elements/1.1/"
   xmlns:cc="http://creativecommons.org/ns#"
   xmlns:rdf="http://www.w3.org/1999/02/22-rdf-syntax-ns#"
   xmlns:svg="http://www.w3.org/2000/svg"
   xmlns="http://www.w3.org/2000/svg"
   xmlns:xlink="http://www.w3.org/1999/xlink"
   xmlns:sodipodi="http://sodipodi.sourceforge.net/DTD/sodipodi-0.dtd"
   xmlns:inkscape="http://www.inkscape.org/namespaces/inkscape"
   data-name="Layer 1"
   width="894.28571"
   height="466.58386"
   viewBox="0 0 894.28571 466.58384"
   version="1.1"
   id="svg209"
   sodipodi:docname="profissional.svg"
   inkscape:version="0.92.5 (0.92.5+69)">
  <metadata
     id="metadata215">
    <rdf:RDF>
      <cc:Work
         rdf:about="">
        <dc:format>image/svg+xml</dc:format>
        <dc:type
           rdf:resource="http://purl.org/dc/dcmitype/StillImage" />
        <dc:title />
      </cc:Work>
    </rdf:RDF>
  </metadata>
  <defs
     id="defs213">
    <linearGradient
       y2="114.39767"
       x2="135.66525"
       y1="20.603781"
       x1="26.648937"
       gradientTransform="matrix(0.14883897,0,0,0.15027592,-140.8619,-42.508833)"
       gradientUnits="userSpaceOnUse"
       id="linearGradient1478"
       xlink:href="#linearGradient4689"
       inkscape:collect="always" />
    <linearGradient
       id="linearGradient4689">
      <stop
         id="stop4691"
         offset="0"
         style="stop-color:#5a9fd4;stop-opacity:1;" />
      <stop
         id="stop4693"
         offset="1"
         style="stop-color:#306998;stop-opacity:1;" />
    </linearGradient>
    <linearGradient
       y2="137.27299"
       x2="112.03144"
       y1="192.35176"
       x1="150.96111"
       gradientTransform="matrix(0.14883897,0,0,0.15027592,-140.8619,-42.508833)"
       gradientUnits="userSpaceOnUse"
       id="linearGradient1475"
       xlink:href="#linearGradient4671"
       inkscape:collect="always" />
    <linearGradient
       id="linearGradient4671">
      <stop
         id="stop4673"
         offset="0"
         style="stop-color:#ffd43b;stop-opacity:1;" />
      <stop
         id="stop4675"
         offset="1"
         style="stop-color:#ffe873;stop-opacity:1" />
    </linearGradient>
    <radialGradient
       r="29.036913"
       fy="132.28575"
       fx="61.518883"
       cy="132.28575"
       cx="61.518883"
       gradientTransform="matrix(0,-0.06348597,0.27904758,1.0031798e-7,-159.04133,-1.7195072)"
       gradientUnits="userSpaceOnUse"
       id="radialGradient1480"
       xlink:href="#linearGradient2795"
       inkscape:collect="always" />
    <linearGradient
       id="linearGradient2795">
      <stop
         id="stop2797"
         offset="0"
         style="stop-color:#b8b8b8;stop-opacity:0.49803922;" />
      <stop
         id="stop2799"
         offset="1"
         style="stop-color:#7f7f7f;stop-opacity:0;" />
    </linearGradient>
    <linearGradient
       inkscape:collect="always"
       xlink:href="#linearGradient4689"
       id="linearGradient1400"
       gradientUnits="userSpaceOnUse"
       gradientTransform="matrix(0.14883897,0,0,0.15027592,-140.8619,-42.508833)"
       x1="26.648937"
       y1="20.603781"
       x2="135.66525"
       y2="114.39767" />
    <linearGradient
       inkscape:collect="always"
       xlink:href="#linearGradient4671"
       id="linearGradient1402"
       gradientUnits="userSpaceOnUse"
       gradientTransform="matrix(0.14883897,0,0,0.15027592,-140.8619,-42.508833)"
       x1="150.96111"
       y1="192.35176"
       x2="112.03144"
       y2="137.27299" />
  </defs>
  <sodipodi:namedview
     pagecolor="#ffffff"
     bordercolor="#666666"
     borderopacity="1"
     objecttolerance="10"
     gridtolerance="10"
     guidetolerance="10"
     inkscape:pageopacity="0"
     inkscape:pageshadow="2"
     inkscape:window-width="2560"
     inkscape:window-height="1003"
     id="namedview211"
     showgrid="false"
     fit-margin-top="0"
     fit-margin-left="0"
     fit-margin-right="0"
     fit-margin-bottom="0"
     inkscape:zoom="0.77781454"
     inkscape:cx="572.65041"
     inkscape:cy="290.75165"
     inkscape:window-x="0"
     inkscape:window-y="0"
     inkscape:window-maximized="1"
     inkscape:current-layer="svg209" />
  <rect
     style="opacity:1;vector-effect:none;fill:#9e6c47;fill-opacity:1;stroke:none;stroke-width:3.64724398;stroke-linecap:round;stroke-linejoin:round;stroke-miterlimit:4;stroke-dasharray:none;stroke-dashoffset:0;stroke-opacity:1"
     id="rect1061"
     width="689.11029"
     height="26.355898"
     x="109.28055"
     y="312.30545" />
  <rect
     style="opacity:1;vector-effect:none;fill:none;fill-opacity:0.21568627;stroke:none;stroke-width:9.26559448;stroke-linecap:round;stroke-linejoin:round;stroke-miterlimit:4;stroke-dasharray:none;stroke-dashoffset:0;stroke-opacity:1"
     id="rect3284"
     width="894.28571"
     height="466.58386"
     x="0"
     y="0" />
  <path
     inkscape:connector-curvature="0"
     style="fill:#7f5337;stroke-width:0.99999994;fill-opacity:1"
     d="m 53.732875,294.46882 a 289.0029,289.0029 0 0 0 28.119987,28.95001 l 730.579998,0.99999 a 289.0029,289.0029 0 0 0 28.12003,-28.95001 z"
     id="path8" />
  <path
     inkscape:connector-curvature="0"
     style="fill:#3f3d56;stroke-width:0.99999994"
     d="m 549.1628,201.76933 v 85.704 a 4.12233,4.12233 0 0 0 4.11908,4.11908 h 127.00449 a 4.1223202,4.1223202 0 0 0 4.11908,-4.11908 v -85.704 a 4.1243301,4.1243301 0 0 0 -4.11908,-4.11451 H 553.28188 a 4.12434,4.12434 0 0 0 -4.11908,4.11451 z"
     id="path10" />
  <path
     inkscape:connector-curvature="0"
     style="fill:#00b0ff;stroke-width:0.99999994"
     d="m 552.14228,202.83569 v 83.58039 a 2.20523,2.20523 0 0 0 2.20138,2.20143 h 124.8855 a 2.20522,2.20522 0 0 0 2.20138,-2.20143 v -83.58039 a 2.20621,2.20621 0 0 0 -2.20138,-2.206 h -124.8855 a 2.20623,2.20623 0 0 0 -2.20138,2.206 z"
     id="path12" />
  <path
     inkscape:connector-curvature="0"
     style="fill:#2f2e41;stroke-width:0.99999994"
     d="m 546.50662,304.18788 a 2.46985,2.46985 0 0 0 1.94348,0.92984 h 135.99193 a 2.5024,2.5024 0 0 0 2.44608,-3.01569 l -2.11098,-10.0272 a 2.50694,2.50694 0 0 0 -1.55811,-1.81784 2.42467,2.42467 0 0 0 -0.888,-0.16743 h -131.7783 a 2.42446,2.42446 0 0 0 -0.888,0.16743 2.50671,2.50671 0 0 0 -1.55811,1.81784 l -2.11098,10.0272 a 2.5005,2.5005 0 0 0 0.51099,2.08585 z"
     id="path14" />
  <rect
     style="fill:#3f3d56;stroke-width:0.99999994"
     x="-681.36517"
     y="-294.40839"
     width="4.1884899"
     height="2.5130899"
     rx="0.48819"
     transform="scale(-1)"
     id="rect16" />
  <rect
     style="fill:#3f3d56;stroke-width:0.99999994"
     x="-672.98822"
     y="-294.40839"
     width="4.1884899"
     height="2.5130899"
     rx="0.48819"
     transform="scale(-1)"
     id="rect18" />
  <rect
     style="fill:#3f3d56;stroke-width:0.99999994"
     x="-664.61121"
     y="-294.40839"
     width="4.1884899"
     height="2.5130899"
     rx="0.48819"
     transform="scale(-1)"
     id="rect20" />
  <rect
     style="fill:#3f3d56;stroke-width:0.99999994"
     x="-656.23425"
     y="-294.40839"
     width="4.1884899"
     height="2.5130899"
     rx="0.48819"
     transform="scale(-1)"
     id="rect22" />
  <rect
     style="fill:#3f3d56;stroke-width:0.99999994"
     x="-647.85718"
     y="-294.40839"
     width="4.1884899"
     height="2.5130899"
     rx="0.48819"
     transform="scale(-1)"
     id="rect24" />
  <rect
     style="fill:#3f3d56;stroke-width:0.99999994"
     x="-639.48022"
     y="-294.40839"
     width="4.1884899"
     height="2.5130899"
     rx="0.48819"
     transform="scale(-1)"
     id="rect26" />
  <rect
     style="fill:#3f3d56;stroke-width:0.99999994"
     x="-631.10327"
     y="-294.40839"
     width="4.1884899"
     height="2.5130899"
     rx="0.48819"
     transform="scale(-1)"
     id="rect28" />
  <rect
     style="fill:#3f3d56;stroke-width:0.99999994"
     x="-622.72638"
     y="-294.40839"
     width="4.1884899"
     height="2.5130899"
     rx="0.48819"
     transform="scale(-1)"
     id="rect30" />
  <rect
     style="fill:#3f3d56;stroke-width:0.99999994"
     x="-614.34943"
     y="-294.40839"
     width="4.1884899"
     height="2.5130899"
     rx="0.48819"
     transform="scale(-1)"
     id="rect32" />
  <rect
     style="fill:#3f3d56;stroke-width:0.99999994"
     x="-605.97247"
     y="-294.40839"
     width="4.1884899"
     height="2.5130899"
     rx="0.48819"
     transform="scale(-1)"
     id="rect34" />
  <rect
     style="fill:#3f3d56;stroke-width:0.99999994"
     x="-597.59528"
     y="-294.40839"
     width="4.1884899"
     height="2.5130899"
     rx="0.48819"
     transform="scale(-1)"
     id="rect36" />
  <rect
     style="fill:#3f3d56;stroke-width:0.99999994"
     x="-589.21832"
     y="-294.40839"
     width="4.1884899"
     height="2.5130899"
     rx="0.48819"
     transform="scale(-1)"
     id="rect38" />
  <rect
     style="fill:#3f3d56;stroke-width:0.99999994"
     x="-580.84131"
     y="-294.40839"
     width="4.1884899"
     height="2.5130899"
     rx="0.48819"
     transform="scale(-1)"
     id="rect40" />
  <rect
     style="fill:#3f3d56;stroke-width:0.99999994"
     x="-572.46448"
     y="-294.40839"
     width="4.1884899"
     height="2.5130899"
     rx="0.48819"
     transform="scale(-1)"
     id="rect42" />
  <rect
     style="fill:#3f3d56;stroke-width:0.99999994"
     x="-564.0874"
     y="-294.40839"
     width="4.1884899"
     height="2.5130899"
     rx="0.48819"
     transform="scale(-1)"
     id="rect44" />
  <rect
     style="fill:#3f3d56;stroke-width:0.99999994"
     x="-555.71033"
     y="-294.40839"
     width="4.1884899"
     height="2.5130899"
     rx="0.48819"
     transform="scale(-1)"
     id="rect46" />
  <rect
     style="fill:#3f3d56;stroke-width:0.99999994"
     x="-681.46423"
     y="-298.59686"
     width="4.1884899"
     height="2.5130899"
     rx="0.48819"
     transform="scale(-1)"
     id="rect48" />
  <rect
     style="fill:#3f3d56;stroke-width:0.99999994"
     x="-673.08722"
     y="-298.59686"
     width="4.1884899"
     height="2.5130899"
     rx="0.48819"
     transform="scale(-1)"
     id="rect50" />
  <rect
     style="fill:#3f3d56;stroke-width:0.99999994"
     x="-664.71021"
     y="-298.59686"
     width="4.1884899"
     height="2.5130899"
     rx="0.48819"
     transform="scale(-1)"
     id="rect52" />
  <rect
     style="fill:#3f3d56;stroke-width:0.99999994"
     x="-656.33319"
     y="-298.59686"
     width="4.1884899"
     height="2.5130899"
     rx="0.48819"
     transform="scale(-1)"
     id="rect54" />
  <rect
     style="fill:#3f3d56;stroke-width:0.99999994"
     x="-647.95624"
     y="-298.59686"
     width="4.1884899"
     height="2.5130899"
     rx="0.48819"
     transform="scale(-1)"
     id="rect56" />
  <rect
     style="fill:#3f3d56;stroke-width:0.99999994"
     x="-639.57928"
     y="-298.59686"
     width="4.1884899"
     height="2.5130899"
     rx="0.48819"
     transform="scale(-1)"
     id="rect58" />
  <rect
     style="fill:#3f3d56;stroke-width:0.99999994"
     x="-631.20233"
     y="-298.59686"
     width="4.1884899"
     height="2.5130899"
     rx="0.48819"
     transform="scale(-1)"
     id="rect60" />
  <rect
     style="fill:#3f3d56;stroke-width:0.99999994"
     x="-622.82532"
     y="-298.59686"
     width="4.1884899"
     height="2.5130899"
     rx="0.48819"
     transform="scale(-1)"
     id="rect62" />
  <rect
     style="fill:#3f3d56;stroke-width:0.99999994"
     x="-614.44824"
     y="-298.59686"
     width="4.1884899"
     height="2.5130899"
     rx="0.48819"
     transform="scale(-1)"
     id="rect64" />
  <rect
     style="fill:#3f3d56;stroke-width:0.99999994"
     x="-606.07129"
     y="-298.59686"
     width="4.1884899"
     height="2.5130899"
     rx="0.48819"
     transform="scale(-1)"
     id="rect66" />
  <rect
     style="fill:#3f3d56;stroke-width:0.99999994"
     x="-597.69434"
     y="-298.59686"
     width="4.1884899"
     height="2.5130899"
     rx="0.48819"
     transform="scale(-1)"
     id="rect68" />
  <rect
     style="fill:#3f3d56;stroke-width:0.99999994"
     x="-589.31732"
     y="-298.59686"
     width="4.1884899"
     height="2.5130899"
     rx="0.48819"
     transform="scale(-1)"
     id="rect70" />
  <rect
     style="fill:#3f3d56;stroke-width:0.99999994"
     x="-580.94037"
     y="-298.59686"
     width="4.1884899"
     height="2.5130899"
     rx="0.48819"
     transform="scale(-1)"
     id="rect72" />
  <rect
     style="fill:#3f3d56;stroke-width:0.99999994"
     x="-572.56342"
     y="-298.59686"
     width="4.1884899"
     height="2.5130899"
     rx="0.48819"
     transform="scale(-1)"
     id="rect74" />
  <rect
     style="fill:#3f3d56;stroke-width:0.99999994"
     x="-564.18634"
     y="-298.59686"
     width="4.1884899"
     height="2.5130899"
     rx="0.48819"
     transform="scale(-1)"
     id="rect76" />
  <rect
     style="fill:#3f3d56;stroke-width:0.99999994"
     x="-555.80939"
     y="-298.59686"
     width="4.1884899"
     height="2.5130899"
     rx="0.48819"
     transform="scale(-1)"
     id="rect78" />
  <rect
     style="fill:#3f3d56;stroke-width:0.99999994"
     x="-641.2547"
     y="-303.62314"
     width="33.507931"
     height="2.5130899"
     rx="0.48819"
     transform="scale(-1)"
     id="rect80" />
  <rect
     style="fill:#ffffff;stroke-width:0.99999994"
     x="569.36395"
     y="218.91508"
     width="5.9658499"
     height="3.12216"
     rx="1.56108"
     id="rect82" />
  <rect
     style="fill:#ffffff;stroke-width:0.99999994"
     x="601.8869"
     y="218.91508"
     width="5.9658499"
     height="3.12216"
     rx="1.56108"
     id="rect84" />
  <rect
     style="fill:#ffffff;stroke-width:0.99999994"
     x="611.10175"
     y="218.91508"
     width="5.9658499"
     height="3.12216"
     rx="1.56108"
     id="rect86" />
  <rect
     style="fill:#ffffff;stroke-width:0.99999994"
     x="578.21033"
     y="218.65482"
     width="20.796129"
     height="3.12216"
     rx="1.56108"
     id="rect88" />
  <rect
     style="fill:#ffffff;stroke-width:0.99999994"
     x="621.57434"
     y="218.65482"
     width="20.796129"
     height="3.12216"
     rx="1.56108"
     id="rect90" />
  <rect
     style="fill:#ffffff;stroke-width:0.99999994"
     x="578.03674"
     y="225.96179"
     width="5.9658499"
     height="3.12216"
     rx="1.56108"
     id="rect92" />
  <rect
     style="fill:#ffffff;stroke-width:0.99999994"
     x="610.55975"
     y="225.96179"
     width="5.9658499"
     height="3.12216"
     rx="1.56108"
     id="rect94" />
  <rect
     style="fill:#ffffff;stroke-width:0.99999994"
     x="619.77466"
     y="225.96179"
     width="5.9658499"
     height="3.12216"
     rx="1.56108"
     id="rect96" />
  <rect
     style="fill:#ffffff;stroke-width:0.99999994"
     x="586.883"
     y="225.70146"
     width="20.796129"
     height="3.12216"
     rx="1.56108"
     id="rect98" />
  <rect
     style="fill:#ffffff;stroke-width:0.99999994"
     x="630.24713"
     y="225.70146"
     width="20.796129"
     height="3.12216"
     rx="1.56108"
     id="rect100" />
  <rect
     style="fill:#ffffff;stroke-width:0.99999994"
     x="586.70953"
     y="233.00844"
     width="5.9658499"
     height="3.12216"
     rx="1.56108"
     id="rect102" />
  <rect
     style="fill:#ffffff;stroke-width:0.99999994"
     x="619.23267"
     y="233.00844"
     width="5.9658499"
     height="3.12216"
     rx="1.56108"
     id="rect104" />
  <rect
     style="fill:#ffffff;stroke-width:0.99999994"
     x="628.44751"
     y="233.00844"
     width="5.9658499"
     height="3.12216"
     rx="1.56108"
     id="rect106" />
  <rect
     style="fill:#ffffff;stroke-width:0.99999994"
     x="595.55591"
     y="232.74811"
     width="20.796129"
     height="3.12216"
     rx="1.56108"
     id="rect108" />
  <rect
     style="fill:#ffffff;stroke-width:0.99999994"
     x="638.91992"
     y="232.74811"
     width="20.796129"
     height="3.12216"
     rx="1.56108"
     id="rect110" />
  <rect
     style="fill:#ffffff;stroke-width:0.99999994"
     x="595.38232"
     y="240.05508"
     width="5.9658499"
     height="3.12216"
     rx="1.56108"
     id="rect112" />
  <rect
     style="fill:#ffffff;stroke-width:0.99999994"
     x="627.9054"
     y="240.05508"
     width="5.9658499"
     height="3.12216"
     rx="1.56108"
     id="rect114" />
  <rect
     style="fill:#ffffff;stroke-width:0.99999994"
     x="637.12024"
     y="240.05508"
     width="5.9658499"
     height="3.12216"
     rx="1.56108"
     id="rect116" />
  <rect
     style="fill:#ffffff;stroke-width:0.99999994"
     x="604.2287"
     y="239.79475"
     width="20.796129"
     height="3.12216"
     rx="1.56108"
     id="rect118" />
  <rect
     style="fill:#ffffff;stroke-width:0.99999994"
     x="601.8869"
     y="268.07553"
     width="5.9658499"
     height="3.12216"
     rx="1.56108"
     id="rect120" />
  <rect
     style="fill:#ffffff;stroke-width:0.99999994"
     x="611.10175"
     y="268.07553"
     width="5.9658499"
     height="3.12216"
     rx="1.56108"
     id="rect122" />
  <rect
     style="fill:#ffffff;stroke-width:0.99999994"
     x="621.57434"
     y="268.33578"
     width="20.796129"
     height="3.12216"
     rx="1.56108"
     id="rect124" />
  <rect
     style="fill:#ffffff;stroke-width:0.99999994"
     x="569.36395"
     y="268.07553"
     width="5.9658499"
     height="3.12216"
     rx="1.56108"
     id="rect126" />
  <rect
     style="fill:#ffffff;stroke-width:0.99999994"
     x="578.21033"
     y="268.33578"
     width="20.796129"
     height="3.12216"
     rx="1.56108"
     id="rect128" />
  <rect
     style="fill:#ffffff;stroke-width:0.99999994"
     x="578.03674"
     y="261.02887"
     width="5.9658499"
     height="3.12216"
     rx="1.56108"
     id="rect130" />
  <rect
     style="fill:#ffffff;stroke-width:0.99999994"
     x="610.55975"
     y="261.02887"
     width="5.9658499"
     height="3.12216"
     rx="1.56108"
     id="rect132" />
  <rect
     style="fill:#ffffff;stroke-width:0.99999994"
     x="619.77466"
     y="261.02887"
     width="5.9658499"
     height="3.12216"
     rx="1.56108"
     id="rect134" />
  <rect
     style="fill:#ffffff;stroke-width:0.99999994"
     x="586.883"
     y="261.28922"
     width="20.796129"
     height="3.12216"
     rx="1.56108"
     id="rect136" />
  <rect
     style="fill:#ffffff;stroke-width:0.99999994"
     x="586.70953"
     y="253.98228"
     width="5.9658499"
     height="3.12216"
     rx="1.56108"
     id="rect138" />
  <rect
     style="fill:#ffffff;stroke-width:0.99999994"
     x="619.23267"
     y="253.98228"
     width="5.9658499"
     height="3.12216"
     rx="1.56108"
     id="rect140" />
  <rect
     style="fill:#ffffff;stroke-width:0.99999994"
     x="628.44751"
     y="253.98228"
     width="5.9658499"
     height="3.12216"
     rx="1.56108"
     id="rect142" />
  <rect
     style="fill:#ffffff;stroke-width:0.99999994"
     x="595.55591"
     y="254.24249"
     width="20.796129"
     height="3.12216"
     rx="1.56108"
     id="rect144" />
  <rect
     style="fill:#ffffff;stroke-width:0.99999994"
     x="595.38232"
     y="246.93558"
     width="5.9658499"
     height="3.12216"
     rx="1.56108"
     id="rect146" />
  <rect
     style="fill:#ffffff;stroke-width:0.99999994"
     x="627.9054"
     y="246.93558"
     width="5.9658499"
     height="3.12216"
     rx="1.56108"
     id="rect148" />
  <rect
     style="fill:#ffffff;stroke-width:0.99999994"
     x="637.12024"
     y="246.93558"
     width="5.9658499"
     height="3.12216"
     rx="1.56108"
     id="rect150" />
  <rect
     style="fill:#ffffff;stroke-width:0.99999994"
     x="604.2287"
     y="247.19585"
     width="20.796129"
     height="3.12216"
     rx="1.56108"
     id="rect152" />
  <path
     inkscape:connector-curvature="0"
     style="fill:#ffb6b6;stroke-width:0.99999994"
     d="m 558.65013,350.65962 -13.34951,-21.10163 41.90199,-33.40282 17.29535,-19.16107 a 19.16138,19.16138 0 0 1 32.41799,6.8279 v 0 a 19.16136,19.16136 0 0 1 -11.57016,23.99101 l -27.34877,10.07535 z"
     id="path154" />
  <path
     inkscape:connector-curvature="0"
     style="fill:#2f2e41;stroke-width:0.99999994"
     d="m 245.42288,197.65883 v 102.55998 h 71.84999 V 197.65883 a 3.448,3.448 0 0 0 -2.42997,-3.30002 3.1749,3.1749 0 0 0 -1.03004,-0.15987 h -64.92 a 3.4632801,3.4632801 0 0 0 -3.46998,3.46 z m 28.04001,35.23997 a 7.6703302,7.6703302 0 0 1 15.34001,0 v 11.90004 a 7.6701,7.6701 0 0 1 -15.34001,0 z"
     id="path156" />
  <path
     inkscape:connector-curvature="0"
     style="fill:#3f3d56;stroke-width:0.99999994"
     d="m 245.20295,296.93889 v 9.89001 a 1.94622,1.94622 0 0 0 1.92998,1.93999 h 68.43001 a 1.93972,1.93972 0 0 0 1.93001,-1.93999 v -9.89001 z"
     id="path158" />
  <path
     inkscape:connector-curvature="0"
     style="fill:#3f3d56;stroke-width:0.99999994"
     d="M 132.39289,43.138879 V 230.3988 a 9.00714,9.00714 0 0 0 9,9 h 277.49999 a 9.0070999,9.0070999 0 0 0 9,-9 V 43.138879 a 9.0114702,9.0114702 0 0 0 -9,-8.989999 H 141.39289 a 9.0115103,9.0115103 0 0 0 -9,8.989999 z"
     id="path160" />
  <path
     inkscape:connector-curvature="0"
     style="fill:#ffffff;stroke-width:0.99999994"
     d="M 138.90287,45.468811 V 228.08883 a 4.81833,4.81833 0 0 0 4.81001,4.80997 h 272.86999 a 4.8182899,4.8182899 0 0 0 4.81001,-4.80997 V 45.468811 a 4.82047,4.82047 0 0 0 -4.81001,-4.820002 H 143.71288 a 4.82051,4.82051 0 0 0 -4.81001,4.820002 z"
     id="path162" />
  <path
     inkscape:connector-curvature="0"
     style="fill:#2f2e41;stroke-width:0.99999994"
     d="m 189.54287,308.09882 a 2.9484,2.9484 0 0 0 2.32002,1.11001 H 354.2029 a 2.98725,2.98725 0 0 0 2.91999,-3.6 l -2.52,-11.96999 a 2.99264,2.99264 0 0 0 -1.86002,-2.17002 2.89454,2.89454 0 0 0 -1.05997,-0.19994 H 194.37288 a 2.8943,2.8943 0 0 0 -1.06001,0.19994 2.99239,2.99239 0 0 0 -1.85998,2.17002 l -2.52,11.96999 a 2.985,2.985 0 0 0 0.60998,2.48999 z"
     id="path164" />
  <path
     inkscape:connector-curvature="0"
     style="fill:#3f3d56;stroke-width:0.99999994"
     d="M 407.7274,65.805541 H 152.40402 a 1.0156,1.0156 0 0 1 0,-2.030702 H 407.7274 a 1.0156,1.0156 0 0 1 0,2.030702 z"
     id="path166" />
  <ellipse
     style="fill:#3f3d56;stroke-width:0.99999994"
     cx="169.78421"
     cy="52.507648"
     rx="5.9504299"
     ry="6.0830402"
     id="ellipse168" />
  <ellipse
     style="fill:#3f3d56;stroke-width:0.99999994"
     cx="190.34023"
     cy="52.507648"
     rx="5.9504299"
     ry="6.0830402"
     id="ellipse170" />
  <ellipse
     style="fill:#3f3d56;stroke-width:0.99999994"
     cx="210.89626"
     cy="52.507648"
     rx="5.9504299"
     ry="6.0830402"
     id="ellipse172" />
  <path
     inkscape:connector-curvature="0"
     style="fill:#3f3d56;stroke-width:0.99999994"
     d="m 395.34926,47.928879 h -14.60002 a 1.1053,1.1053 0 0 0 0,2.209999 h 14.60002 a 1.10511,1.10511 0 0 0 0,-2.209999 z"
     id="path174" />
  <path
     inkscape:connector-curvature="0"
     style="fill:#3f3d56;stroke-width:0.99999994"
     d="m 395.34926,52.078879 h -14.60002 a 1.10527,1.10527 0 0 0 0,2.21 h 14.60002 a 1.10508,1.10508 0 0 0 0,-2.21 z"
     id="path176" />
  <path
     inkscape:connector-curvature="0"
     style="fill:#3f3d56;stroke-width:0.99999994"
     d="m 395.34926,56.228819 h -14.60002 a 1.1053,1.1053 0 0 0 0,2.21 h 14.60002 a 1.10511,1.10511 0 0 0 0,-2.21 z"
     id="path178" />
  <path
     inkscape:connector-curvature="0"
     style="fill:#2f2e41;stroke-width:0.99999994"
     d="m 747.32865,301.27926 a 6.41621,6.41621 0 0 0 6.18308,4.331 l 26.49184,-0.68175 a 6.3285,6.3285 0 0 0 5.98084,-4.65702 l 3.74888,-40.08722 a 9.7940902,9.7940902 0 0 0 4.23794,0.87081 9.6613427,9.6613427 0 1 0 -0.48491,-19.3166 8.1839302,8.1839302 0 0 0 -1.73616,0.18066 6.54764,6.54764 0 0 0 -4.87408,-2.10301 l -40.75049,1.0523 a 5.8529402,5.8529402 0 0 0 -1.00521,0.12472 6.3645502,6.3645502 0 0 0 -4.87317,8.26462 z m 43.17343,-43.81681 2.66763,-9.55276 a 6.50649,6.50649 0 0 0 0.0189,-3.37459 c 0.12963,-3.4e-4 0.24378,-0.0616 0.37303,-0.062 a 6.9104902,6.9104902 0 0 1 0.32353,13.81712 6.50527,6.50527 0 0 1 -3.38464,-0.82779 z"
     id="path180" />
  <path
     inkscape:connector-curvature="0"
     style="fill:#3f3d56;stroke-width:0.99999994"
     d="m 745.12038,240.99312 c 0.8682,4.96414 10.62909,8.45385 22.36585,7.84728 10.79271,-0.49724 19.61745,-4.28697 21.23422,-8.77848 a 6.0251101,6.0251101 0 0 0 -1.84437,-0.24605 l -40.75049,1.0523 a 5.8529402,5.8529402 0 0 0 -1.00521,0.12472 z"
     id="path182" />
  <rect
     style="fill:#00b0ff;stroke-width:1.2514739"
     x="256.7402"
     y="140.19804"
     width="63.473705"
     height="13.573112"
     rx="4.0850234"
     id="rect190" />
  <rect
     style="fill:#e6e6e6;stroke-width:1.2514739"
     x="224.50407"
     y="167.34425"
     width="127.94597"
     height="13.573112"
     rx="4.0850234"
     id="rect192" />
  <rect
     style="fill:#e6e6e6;stroke-width:1.2514739"
     x="224.50407"
     y="194.49051"
     width="127.94597"
     height="13.573112"
     rx="4.0850234"
     id="rect194" />
  <path
     inkscape:connector-curvature="0"
     style="fill:#3f3d56;stroke-width:0.99999994"
     d="m 344.44412,237.02389 0.21657,0.68444 0.0113,0.0227 6.52513,19.83802 7.50629,22.86092 14.12269,42.96133 0.13682,6.67347 v 0.0227 l 1.0495,53.68452 -2.90895,7.27809 3.27398,11.93238 c 0,0 -1.5058,-18.037 -9.58239,-7.67886 -4.57447,5.88642 -9.92466,11.90963 -14.31666,17.55643 q 9.59962,3.88437 19.50716,7.02709 c 1.42598,0.45634 2.86333,0.88985 4.30069,1.32332 q 0.46193,0.13682 0.92402,0.27364 a 266.86342,266.86342 0 0 0 67.35084,10.82585 c 1.18639,0.034 2.35,0.0571 3.47932,0.0797 0.39934,0.0113 0.78716,0.0227 1.17502,0.0227 1.27763,0.0113 2.54388,0.0227 3.82151,0.0227 q 3.86722,0 7.70019,-0.11415 a 266.85337,266.85337 0 0 0 56.09151,-7.58611 c -0.12548,-7.58608 -0.46768,-16.44983 -0.95822,-25.91819 -0.22828,-4.64292 -5.35019,-9.6737 -5.65822,-14.53338 -0.21656,-3.65046 4.38055,-7.08416 4.141,-10.79168 -1.55142,-22.82676 -3.49077,-14.06416 -4.92812,-30.22882 q -0.22262,-2.37853 -0.41069,-4.55164 c -0.92398,-10.38101 -1.56283,-16.872 -1.56283,-16.872 l 6.13735,-38.68339 9.63949,-60.73444 -0.74154,-1.22064 -0.83274,-0.41064 -50.84398,-25.16535 -2.76065,-7.07274 a 10.97881,10.97881 0 0 0 -10.14145,-6.9473 l -33.49289,-0.13682 a 10.93117,10.93117 0 0 0 -8.90944,4.52886 l -9.06902,12.55978 z"
     id="path196" />
  <path
     inkscape:connector-curvature="0"
     style="fill:#3f3d56;stroke-width:0.99999994"
     d="m 380.54942,313.83168 -7.58615,16.23322 -5.17898,11.08823 -8.9094,46.64598 -4.46045,4.73413 -3.82156,-16.75933 -39.99772,8.88094 c -1.31191,-7.28954 -0.35111,0.24643 -1.16118,-7.75011 0.22828,-0.22828 0.46768,-0.45634 0.7073,-0.68451 0.63882,-0.5932 1.17498,-1.15219 1.16357,-1.68832 -0.45631,-27.58374 0.9126,-74.52631 12.34314,-102.96563 a 60.053281,60.053281 0 0 1 7.02709,-13.1074 c 0.22828,-0.30803 0.44492,-0.61606 0.66164,-0.92398 5.27036,-7.38081 8.60137,-14.64748 13.32416,-19.81512 v -0.0113 a 0.53028001,0.53028001 0 0 0 0.0797,-0.0797 0.15699999,0.15699999 0 0 0 0.0457,-0.034 l 32.44343,-17.20275 1.39177,39.10549 0.99246,28.1085 z"
     id="path198" />
  <path
     inkscape:connector-curvature="0"
     style="fill:#3f3d56;stroke-width:0.99999994"
     d="m 497.53427,318.4424 9.47603,20.27498 3.30739,7.06091 8.90683,46.64164 4.44575,4.72263 3.8304,-16.75525 1.79977,-0.36926 32.45851,-6.72242 9.46057,30.0463 a 17.984,17.984 0 0 0 -3.2612,-22.50554 c -0.64608,-0.58458 -1.18443,-1.15374 -1.16912,-1.69213 0.53846,-32.44309 -1.44601,-91.68363 -19.36736,-116.06589 -5.69178,-7.73775 -9.10677,-15.44474 -14.07561,-20.82883 -0.0151,-0.0151 -0.0151,-0.0302 -0.0302,-0.0302 l -12.09124,-19.79815 -0.73837,-1.21534 -0.83066,-0.41526 z"
     id="path200" />
  <circle
     style="fill:#ffb6b6;stroke-width:0.99999994"
     id="a657ec4b-47ce-4d2a-9c58-81a811696ca9"
     data-name="Ellipse 5"
     cx="440.12943"
     cy="127.37856"
     r="44.558262" />
  <path
     inkscape:connector-curvature="0"
     style="fill:#2f2e41;stroke-width:0.99999994"
     d="m 500.35515,96.254792 a 3.75933,3.75933 0 0 0 -2.69,-1.190004 l 0.67,-1.86 a 3.52769,3.52769 0 0 0 -3.96,-4.699997 l -2.43999,0.469999 0.23017,-1.63 a 3.53387,3.53387 0 0 0 -4.73,-3.819999 3.76631,3.76631 0 0 1 -3.24,-0.229984 3.8464702,3.8464702 0 0 1 -1.92,-2.610052 l -0.84998,-4.100001 -0.0899,-0.220006 c -4.13998,-6.9 -12.09997,-11.919999 -21.84,-13.760002 -8.67005,-1.649998 -17.55999,-0.809998 -26.12999,-0.02003 -3.39999,0.320013 -7.23999,0.679997 -10.44,2.64 -2.71998,1.68 -5.02001,5.04 -4.54999,8.429998 -8.45,-2.59 -17.51002,2.58 -21.99998,9.099999 -5.32003,7.760001 -6.19004,17.479997 -6.33003,25.079997 -0.38,17.98002 3.33003,32.69002 11.00001,43.73002 0.56001,0.79998 0.70001,2.47 1.81002,3.02997 l -0.2298,-0.37001 c 1.23999,0.62003 2.49997,1.62002 2.02998,2.69 -1.35,3.08001 7.61999,9.89 13.94,12.13999 11.53001,4.11001 26.85997,3.76003 37.63997,2.28 l 0.38,-2.54997 c 3.89,-0.53 6.63001,-1.54 7.40001,-3.12 1.36006,-1.16001 2.52,-2.20002 3.53,-3.16002 l 0.0113,-0.0113 c 0.0189,-0.0189 0.0601,-0.0499 0.0801,-0.0699 4.87,-4.66999 6,-7.32994 6.51001,-11.37993 0.49001,-3.97002 -0.38,-8.00002 -1.27,-11.62999 18.73999,2.9 -7.38002,-19.96002 10.08,-24.38001 a 5.4339999,5.4339999 0 0 1 0.60998,-0.15001 c 0.51001,-0.12 1.02002,-0.24 1.51003,-0.38001 a 26.44846,26.44846 0 0 0 6.72,-2.86999 c 4.87998,-2.97001 6.48998,-6.91001 9.00998,-11.35001 a 3.42652,3.42652 0 0 0 -0.44999,-4.030003 z"
     id="path203" />
  <path
     inkscape:connector-curvature="0"
     style="fill:#2f2e41;stroke-width:0.99999994"
     d="m 597.72516,321.61479 c -0.0113,1.74999 -0.0302,4.2 -0.10999,7.23001 q -0.0151,0.63001 -0.0302,1.28999 c -0.13002,5.57 -0.26003,10.24002 -0.47002,15.42999 -0.0113,0.35981 -0.0189,0.71003 -0.0401,1.07003 -0.28006,7.23998 -0.72,15.66999 -1.47999,29.02 -1.41002,24.65998 -3.87,3.38997 -6.34,12.03999 -0.11981,0.43 -0.24983,0.94001 -0.37002,1.54001 a 27.91582,27.91582 0 0 1 -1.88001,6.32999 c -1.30998,0.77998 -2.65999,1.52999 -3.98997,2.28 -3.79,2.10999 -7.63998,4.13994 -11.51996,6.06999 -2.18007,1.08 -4.37001,2.14001 -6.56999,3.15999 -0.34999,0.15988 -0.69,0.32013 -1.03,0.47002 a 270.88715,270.88715 0 0 1 -34.75,13.25998 c -2.32002,0.70001 -4.63,1.38002 -6.97001,2.01003 -2.43999,0.67998 -4.88002,1.32 -7.35001,1.92 a 266.8933,266.8933 0 0 1 -56.09001,7.58997 c -2.54997,0.0801 -5.11997,0.10999 -7.69999,0.10999 -1.27998,0 -2.54,-0.0113 -3.82001,-0.0189 -0.38997,0 -0.77998,-0.0113 -1.16999,-0.0189 -1.13,-0.0302 -2.29999,-0.0499 -3.48,-0.0801 a 266.66307,266.66307 0 0 1 -67.34997,-10.83001 l -0.93003,-0.26986 c -1.44,-0.43998 -2.86998,-0.87001 -4.30001,-1.32998 q -9.90005,-3.135 -19.50999,-7.02002 -7.33501,-2.95498 -14.49997,-6.34 a 0.33860999,0.33860999 0 0 1 -0.11981,-0.0601 c -1.00003,-0.46 -2.01003,-0.94 -3.01002,-1.43002 -0.13001,-0.0699 -0.26986,-0.13984 -0.41,-0.21014 q -5.59506,-2.72999 -11.07001,-5.72001 c -3.07,-7.05003 -7.39,-8.4 -10.06999,-14.59998 a 25.87356,25.87356 0 0 1 -1.68,-5.74001 c 0,-0.0189 -0.0113,-0.0401 -0.0113,-0.0699 0.28006,3.72 -1.19003,-6.6 -0.0113,-0.0401 -0.0113,-0.11981 -0.0189,-0.24983 -0.0302,-0.40003 -0.0302,-0.35981 -0.0699,-0.79997 -0.13001,-1.35 -3.43,-33.48998 -3.20999,-71.78998 -4.7,-103.34998 q -0.15005,-3.06002 -0.30992,-5.86 c -0.0302,-0.62 -0.0699,-1.23001 -0.10998,-1.83001 0.0699,-0.17991 0.15004,-0.37002 0.24,-0.55 a 1.002,1.002 0 0 1 0.0699,-0.15005 1.62294,1.62294 0 0 1 0.10016,-0.1799 c 0.0189,-0.0302 0.0499,-0.0699 0.0699,-0.10016 a 0.91693003,0.91693003 0 0 1 0.0499,-0.10016 c 0.09,-0.13984 0.19011,-0.28989 0.30009,-0.42999 0.0499,-0.0601 0.0899,-0.10999 0.13984,-0.15988 a 0.80824,0.80824 0 0 1 0.11981,-0.13984 0.63699999,0.63699999 0 0 1 0.10999,-0.13002 c 0.0401,-0.0401 0.0801,-0.0899 0.13001,-0.13984 a 0.30159001,0.30159001 0 0 1 0.0801,-0.0801 2.03313,2.03313 0 0 1 0.26003,-0.24982 9.6238701,9.6238701 0 0 1 1.13998,-0.90002 c 0.13985,-0.09 0.28989,-0.17991 0.43,-0.28006 a 19.13528,19.13528 0 0 1 3.17,-1.52002 c 0.38,-0.13984 0.76003,-0.26986 1.16999,-0.41 0.15005,-0.0401 0.28989,-0.0899 0.44002,-0.13984 0.21996,-0.0699 0.44001,-0.13985 0.66999,-0.19011 1.14002,-0.34016 2.36999,-0.63001 3.70001,-0.89998 0.15987,-0.0302 0.32995,-0.0601 0.49999,-0.10016 0.24,-0.0499 0.49002,-0.09 0.74,-0.13002 0.34015,-0.0601 0.69002,-0.12019 1.04001,-0.1799 2.96999,-0.47002 6.34001,-0.82001 10.06001,-1.04999 q 0.52497,-0.0302 1.04999,-0.0601 c 0.41,-0.0189 0.82,-0.0401 1.23998,-0.0601 0.34999,-0.0189 0.71003,-0.0302 1.07003,-0.0401 0.34998,-0.0189 0.70998,-0.0302 1.08,-0.0401 1.01,-0.0302 2.04997,-0.0601 3.10998,-0.0801 3.01999,-0.0601 6.20001,-0.0401 9.54002,0.0302 1.54998,0.0401 3.12998,0.0801 4.75,0.15005 0.10998,0 0.21014,0.0113 0.30992,0.0113 1.40999,0.0499 2.82999,0.10998 4.28999,0.19011 1.02002,0.0499 2.05001,0.10016 3.07993,0.15987 0.97002,0.0601 1.95001,0.12019 2.94002,0.19011 0.77001,0.0401 1.54001,0.10016 2.31999,0.15005 0.66002,0.0499 1.32,0.0998 1.98002,0.13984 l 0.89998,0.0601 c 0.49002,0.0401 0.97999,0.0699 1.48003,0.12019 1.09999,0.0899 2.19998,0.1799 3.31997,0.26985 1.11001,0.10016 2.24001,0.19994 3.37002,0.3001 1.13,0.10016 2.26998,0.21014 3.41,0.32012 0.12019,0.0113 0.23017,0.0189 0.34016,0.0302 1.03997,0.10998 2.07999,0.21014 3.12998,0.32013 0.24,0.0189 0.49001,0.0401 0.73001,0.0699 1.00108,0.10053 2.02175,0.21845 3.03201,0.32579 0.30993,0.034 0.61845,0.0658 0.92943,0.0998 0.79139,0.0862 1.57153,0.16101 2.36848,0.25436 1.04999,0.11982 2.12005,0.23018 3.15998,0.37002 0.80999,0.09 1.62002,0.17991 2.43001,0.28006 1.27,0.15005 2.55999,0.30992 3.84998,0.48 0.49002,0.0601 0.98003,0.11981 1.47001,0.19011 3.68001,0.46001 7.40001,0.96998 11.17999,1.49998 5.73003,0.81 11.55001,1.69002 17.41002,2.64 q 8.80505,1.425 17.71,3.01002 c 1.49998,0.26986 3,0.53998 4.50999,0.82001 q 1.01999,0.19502 2.04,0.38993 c 1.15998,0.21014 2.31999,0.43 3.48,0.65 1.15998,0.21997 2.31999,0.44002 3.48,0.67 1.37999,0.26986 2.76998,0.54002 4.15,0.80999 9.08999,1.8 18.12994,3.72 26.95,5.73003 1.44998,0.32995 2.89999,0.67 4.33999,0.99999 q 4.32,1.00497 8.55999,2.04 c 0.78002,0.1799 1.55002,0.37001 2.32003,0.56001 1.92,0.48 3.84,0.96 5.72999,1.44998 l 0.32995,0.0899 c 1.39,0.34016 2.75002,0.69003 4.11001,1.05003 q 4.815,1.25998 9.46998,2.54997 3.09003,0.85501 6.11002,1.73 c 3.00998,0.87001 5.95998,1.75 8.83,2.64 0.70999,0.21997 1.42001,0.44002 2.11998,0.65001 2.10002,0.65 4.17002,1.31002 6.18002,1.97 1.59998,0.51999 3.15998,1.04999 4.69999,1.57999 q 2.31001,0.79503 4.52999,1.59001 c 0.95002,0.34016 1.89003,0.70001 2.83,1.04002 1.35001,0.49999 2.68002,0.99998 3.98003,1.49998 0.39999,0.15004 0.78999,0.30992 1.17997,0.46 0.24982,0.10999 0.49001,0.19994 0.73001,0.3001 0.46999,0.19011 0.94999,0.37001 1.40999,0.55997 0.47002,0.17991 0.93003,0.37002 1.39,0.56999 0.45003,0.17991 0.91,0.37002 1.35001,0.56002 0.44999,0.1799 0.89,0.37001 1.33001,0.56999 0.37002,0.15004 0.72998,0.30992 1.08,0.47002 0.70999,0.30992 1.42001,0.61999 2.11,0.94 0.34016,0.15988 0.67998,0.30993 1.01998,0.46999 l 0.78002,0.35981 c 0.10999,0.0601 0.21997,0.10998 0.32995,0.15987 0.24983,0.12019 0.51001,0.24983 0.75999,0.37002 0.57997,0.26986 1.15,0.56001 1.71001,0.82998 0.75001,0.38004 1.47999,0.76003 2.18,1.13001 0.71002,0.37995 1.40001,0.76002 2.05999,1.12996 0.10998,0.0601 0.21014,0.12019 0.32012,0.17991 0.15005,0.0797 0.3001,0.17008 0.45,0.24982 0.51,0.28989 1.00002,0.59003 1.49,0.87995 0.96,0.58999 1.87,1.17 2.72001,1.75 0.19011,0.13002 0.37002,0.26003 0.56001,0.38 0.62998,0.45002 1.22998,0.89 1.78999,1.33999 0,0.0113 0,0.0113 0.0113,0.0113 0.19011,0.13984 0.37001,0.28989 0.54999,0.42999 0.15005,0.13985 0.30992,0.26004 0.46001,0.39999 0.51999,0.45003 0.99999,0.87995 1.44,1.32 a 5.6669999,5.6669999 0 0 1 0.41998,0.43004 1.20839,1.20839 0 0 1 0.15987,0.15987 c 0.19994,0.19994 0.38004,0.39999 0.55,0.6 a 0.55257,0.55257 0 0 1 0.0699,0.09 c 0.24,0.28007 0.45997,0.56002 0.67,0.84 0.10016,0.13985 0.21014,0.28007 0.30009,0.42002 0.11982,0.17008 0.24,0.34999 0.34016,0.51999 0.0899,0.13984 0.17008,0.28989 0.24983,0.43007 a 7.2566,7.2566 0 0 1 0.53998,1.12993 5.2413,5.2413 0 0 1 0.26986,0.82001 5.84442,5.84442 0 0 1 0.17008,0.81006 z"
     id="path205" />
  <path
     inkscape:connector-curvature="0"
     style="opacity:0.2;stroke-width:0.99999994"
     d="m 597.72516,321.61479 c -0.0113,1.74999 -0.0302,4.2 -0.10999,7.23001 -0.0113,0.41998 -0.0302,0.85001 -0.0401,1.28999 -0.10016,4.25 -0.2502,9.49999 -0.46001,15.42999 -0.0113,0.35981 -0.0189,0.71003 -0.0401,1.07003 -0.28006,7.23998 -0.72,15.66999 -1.47999,29.02 -1.41002,24.65998 -3.87001,3.38997 -6.34,12.03999 -6.86,-4.21999 -14.38001,-8.64 -22.42001,-13.18001 q -2.175,-1.23001 -4.39,-2.46999 c -16.08,-8.96999 -34.04001,-18.37006 -52.79002,-27.68002 -0.73999,-0.37001 -1.49,-0.73999 -2.23,-1.09999 -42.94998,-21.22998 -89.82999,-41.88 -127.80997,-55.66001 -7.33002,-2.65999 -14.33001,-5.05999 -20.91001,-7.17003 -13.85999,-4.43002 -25.83999,-7.53002 -35.06,-8.87002 -9.6,-1.39997 -16.23001,-0.89998 -18.91,1.99 q -0.15004,-3.05998 -0.30992,-5.85997 -0.0601,-0.93003 -0.12019,-1.83001 c 0.0616,-0.16479 0.14211,-0.32164 0.21959,-0.48019 0.0113,-0.0227 0.0189,-0.0469 0.0302,-0.0699 a 1.002,1.002 0 0 1 0.0699,-0.15005 1.62294,1.62294 0 0 1 0.10016,-0.1799 1.05985,1.05985 0 0 1 0.11981,-0.19994 c 0.0899,-0.14022 0.19011,-0.28989 0.3001,-0.43 a 3.48261,3.48261 0 0 1 0.26003,-0.30009 0.63699999,0.63699999 0 0 1 0.10998,-0.13002 c 0.0401,-0.0401 0.0801,-0.0899 0.13002,-0.13984 a 0.30159001,0.30159001 0 0 1 0.0801,-0.0801 2.03313,2.03313 0 0 1 0.26003,-0.24983 9.6238701,9.6238701 0 0 1 1.13999,-0.89998 c 0.13984,-0.09 0.28988,-0.17991 0.42999,-0.28007 a 19.13528,19.13528 0 0 1 3.17001,-1.51997 c 0.38003,-0.14022 0.76002,-0.26986 1.17002,-0.41 0.15005,-0.0401 0.28989,-0.09 0.43998,-0.14022 0.21997,-0.0699 0.44001,-0.13985 0.67,-0.19011 1.14001,-0.34016 2.37002,-0.62998 3.7,-0.89999 0.40003,-0.0801 0.82001,-0.15987 1.24003,-0.23017 0.34015,-0.0601 0.68999,-0.12019 1.03997,-0.1799 2.96999,-0.46999 6.34001,-0.82001 10.06001,-1.04999 q 0.52501,-0.0302 1.04999,-0.0601 c 0.41,-0.0189 0.82,-0.0401 1.24002,-0.0601 0.34999,-0.0189 0.70999,-0.0302 1.06999,-0.0401 0.34998,-0.0189 0.70998,-0.0302 1.08,-0.0401 1.01,-0.0302 2.05001,-0.0601 3.10998,-0.0801 3.02003,-0.0499 6.20002,-0.0302 9.54002,0.0401 1.54999,0.0302 3.13002,0.0801 4.75,0.15004 0.10016,0 0.21014,0.0113 0.30992,0.0113 1.40999,0.0401 2.84001,0.10999 4.28999,0.17991 1.02002,0.0499 2.05002,0.0998 3.07997,0.15987 0.96998,0.0601 1.94998,0.11981 2.93999,0.19011 0.77,0.0401 1.54,0.10016 2.31998,0.15005 0.66002,0.0499 1.32,0.10016 1.98002,0.13984 0.79,0.0601 1.58,0.12019 2.38001,0.17991 1.09999,0.09 2.19999,0.1799 3.31997,0.26986 1.11001,0.10015 2.24002,0.19993 3.37002,0.30009 1.13,0.0998 2.26998,0.21014 3.41,0.32013 0.12019,0.0113 0.23018,0.0189 0.34016,0.0302 1.04001,0.10999 2.07999,0.21015 3.13002,0.32013 q 8.72999,0.88498 17.96999,2.06997 5.52,0.70503 11.17999,1.51 c 5.72999,0.81003 11.55001,1.69001 17.41002,2.63002 q 8.80505,1.425 17.70996,3.00998 c 1.50001,0.26986 3,0.54002 4.50999,0.82 q 2.76,0.50994 5.52,1.04002 c 1.16002,0.21997 2.31999,0.44001 3.48,0.66999 1.38002,0.26986 2.77002,0.54002 4.15,0.80999 9.08999,1.8 18.12994,3.72 26.95,5.73003 1.45001,0.32996 2.89999,0.67 4.33999,0.99999 q 4.32,1.00501 8.56006,2.04 c 0.77998,0.19011 1.54999,0.37999 2.31995,0.56999 q 2.89501,0.72 5.72999,1.44 v 0.0113 c 0.10999,0.0189 0.21997,0.0499 0.32996,0.0801 1.37998,0.34998 2.74998,0.7 4.10997,1.06 q 4.815,1.26002 9.47002,2.54 c 2.05999,0.57996 4.09999,1.14999 6.11002,1.73 3.01002,0.88002 5.95998,1.76001 8.82996,2.64 0.71006,0.21997 1.42001,0.44001 2.12005,0.65 q 3.15001,0.99001 6.17998,1.97 c 1.60003,0.52003 3.16003,1.05 4.70003,1.58 q 2.30994,0.79502 4.52996,1.59001 c 0.96,0.34016 1.90004,0.68999 2.83003,1.03 1.35995,0.49999 2.67999,0.99998 3.98,1.50999 0.39998,0.15005 0.78999,0.30992 1.18,0.46001 0.72998,0.28006 1.44,0.56999 2.14001,0.85999 0.46998,0.17991 0.92999,0.37002 1.39,0.56999 0.44999,0.17991 0.90999,0.37002 1.35,0.56002 0.45,0.1799 0.88997,0.37001 1.32998,0.56999 0.37002,0.15004 0.73002,0.30992 1.08,0.47002 0.71002,0.30992 1.42001,0.61999 2.11,0.94 0.34016,0.15988 0.68001,0.30993 1.02002,0.46999 l 0.77998,0.35981 c 0.10998,0.0601 0.21997,0.10998 0.32995,0.15987 0.85002,0.40003 1.67002,0.80002 2.47004,1.2 0.74997,0.38003 1.47998,0.76003 2.17995,1.13001 0.83003,0.43993 1.61998,0.87001 2.38001,1.31002 0.15005,0.0798 0.30009,0.17008 0.44999,0.24983 0.51001,0.28989 0.99999,0.59002 1.49,0.87994 0.96,0.58999 1.87,1.17 2.71998,1.75 0.84,0.58001 1.62002,1.15 2.34999,1.71999 0,0.0113 0,0.0113 0.0113,0.0113 0.34999,0.28006 0.68999,0.56001 1.01001,0.82998 0.51998,0.45003 0.99998,0.87995 1.44,1.32 a 5.6669999,5.6669999 0 0 1 0.41998,0.43004 1.20839,1.20839 0 0 1 0.15987,0.15987 c 0.21014,0.23017 0.41998,0.46001 0.62007,0.68999 0.24,0.28006 0.45997,0.56001 0.67,0.84 0.10016,0.13984 0.21014,0.28006 0.30009,0.42002 0.11981,0.17008 0.24,0.34998 0.34016,0.51999 0.09,0.13984 0.17008,0.28989 0.24983,0.43007 a 7.2566,7.2566 0 0 1 0.53998,1.12993 6.0531202,6.0531202 0 0 1 0.26986,0.82 5.84442,5.84442 0 0 1 0.17007,0.81011 z"
     id="path207" />
  <g
     id="g3042"
     transform="matrix(0.93279939,0,0,0.93279939,349.25278,123.11366)">
    <path
       d="m -89.529241,-24.719658 c 0,-3.852902 -1.098619,-5.830932 -3.295857,-5.939247 -0.874254,-0.04126 -1.727874,0.098 -2.558288,0.420364 -0.662781,0.23726 -1.108932,0.471943 -1.343615,0.709203 v 9.196419 c 1.405509,0.881991 2.653708,1.292037 3.74201,1.227566 2.302973,-0.152157 3.45575,-2.021872 3.45575,-5.614305 z m 2.710442,0.159893 c 0,1.957398 -0.459047,3.582117 -1.3823,4.874154 -1.028988,1.462246 -2.45513,2.21529 -4.278424,2.256555 -1.374563,0.04384 -2.790388,-0.38684 -4.247478,-1.28946 v 8.358271 l -2.35713,-0.840727 v -18.552733 c 0.386837,-0.47452 0.884568,-0.881989 1.488035,-1.227563 1.402932,-0.817518 3.107595,-1.237883 5.113994,-1.258512 l 0.03352,0.03353 c 1.83361,-0.02321 3.246858,0.729835 4.239741,2.256552 0.92583,1.400352 1.390037,3.19528 1.390037,5.389938 z"
       style="fill:#646464;fill-opacity:1;stroke-width:0.26458332"
       id="path46"
       inkscape:connector-curvature="0" />
    <path
       d="m -72.412967,-19.074407 c 0,2.625338 -0.263049,4.443475 -0.789147,5.454411 -0.528679,1.010935 -1.534456,1.818137 -3.019914,2.419024 -1.204354,0.47452 -2.506707,0.732412 -3.90448,0.776253 l -0.389416,-1.485455 c 1.420981,-0.193419 2.421604,-0.38684 3.001859,-0.580258 1.14246,-0.386837 1.926452,-0.979988 2.35713,-1.774296 0.345575,-0.647307 0.515784,-1.882607 0.515784,-3.711061 v -0.61378 c -1.611823,0.732412 -3.301015,1.096039 -5.067572,1.096039 -1.160513,0 -2.184344,-0.363627 -3.066333,-1.096039 -0.990306,-0.796888 -1.485458,-1.807824 -1.485458,-3.032808 v -9.810202 l 2.35713,-0.807201 v 9.874673 c 0,1.054777 0.340419,1.867138 1.021252,2.43708 0.680834,0.569939 1.562825,0.843303 2.643392,0.822674 1.080566,-0.02321 2.238499,-0.440997 3.468642,-1.258512 v -11.520024 h 2.357131 z"
       style="fill:#646464;fill-opacity:1;stroke-width:0.26458332"
       id="path48"
       inkscape:connector-curvature="0" />
    <path
       d="m -63.211389,-17.558004 c -0.281101,0.02321 -0.538993,0.03353 -0.776253,0.03353 -1.333301,0 -2.372606,-0.317207 -3.115334,-0.954199 -0.74015,-0.636992 -1.111512,-1.516404 -1.111512,-2.638232 v -9.284104 h -1.614402 v -1.482876 h 1.614402 v -3.938008 l 2.354551,-0.83815 v 4.776158 h 2.648548 v 1.482876 h -2.648548 v 9.219631 c 0,0.884568 0.23726,1.511244 0.711782,1.877451 0.407469,0.301734 1.054778,0.474522 1.936766,0.518364 z"
       style="fill:#646464;fill-opacity:1;stroke-width:0.26458332"
       id="path50"
       inkscape:connector-curvature="0" />
    <path
       d="m -48.939661,-17.751422 h -2.35713 v -9.09842 c 0,-0.925833 -0.216631,-1.722718 -0.647306,-2.388079 -0.497732,-0.753044 -1.188884,-1.129567 -2.076029,-1.129567 -1.080569,0 -2.431923,0.569942 -4.054057,1.709825 v 10.906241 h -2.357134 v -21.748012 l 2.357134,-0.742727 v 9.905621 c 1.506087,-1.096039 3.151433,-1.645348 4.938622,-1.645348 1.248198,0 2.259134,0.420362 3.032808,1.258512 0.776256,0.838147 1.163092,1.882608 1.163092,3.130803 z"
       style="fill:#646464;fill-opacity:1;stroke-width:0.26458332"
       id="path52"
       inkscape:connector-curvature="0" />
    <path
       d="m -36.41128,-25.091022 c 0,-1.480299 -0.281099,-2.702705 -0.840727,-3.6698 -0.665358,-1.178565 -1.699503,-1.800084 -3.097279,-1.864558 -2.584074,0.149579 -3.873531,2.001242 -3.873531,5.549831 0,1.627299 0.268205,2.986386 0.809775,4.077269 0.691153,1.390036 1.727878,2.076029 3.110177,2.05282 2.594391,-0.02063 3.891585,-2.068293 3.891585,-6.145562 z m 2.5815,0.01547 c 0,2.106978 -0.538994,3.860641 -1.614403,5.260994 -1.183722,1.567981 -2.818757,2.35455 -4.905103,2.35455 -2.06829,0 -3.680113,-0.786569 -4.843205,-2.35455 -1.054778,-1.400353 -1.580878,-3.154016 -1.580878,-5.260994 0,-1.980607 0.569942,-3.646588 1.709822,-5.003099 1.204357,-1.439037 2.787812,-2.161132 4.745207,-2.161132 1.957401,0 3.551169,0.722095 4.778737,2.161132 1.139878,1.356511 1.709823,3.022492 1.709823,5.003099 z"
       style="fill:#646464;fill-opacity:1;stroke-width:0.26458332"
       id="path54"
       inkscape:connector-curvature="0" />
    <path
       d="m -20.316256,-17.751422 h -2.35713 v -9.614204 c 0,-1.054777 -0.317206,-1.877452 -0.951619,-2.470605 -0.634415,-0.590571 -1.480299,-0.876832 -2.535076,-0.85362 -1.119249,0.02063 -2.184345,0.386837 -3.195278,1.096039 v 11.84239 h -2.35713 v -12.133807 c 1.35651,-0.987724 2.604706,-1.632456 3.744584,-1.934189 1.075412,-0.281101 2.024454,-0.420362 2.841972,-0.420362 0.559625,0 1.085723,0.05416 1.580874,0.16247 0.925833,0.21405 1.678874,0.611203 2.259132,1.194041 0.647306,0.644728 0.969671,1.418404 0.969671,2.323602 z"
       style="fill:#646464;fill-opacity:1;stroke-width:0.26458332"
       id="path56"
       inkscape:connector-curvature="0" />
    <g
       id="g2876">
      <path
         inkscape:connector-curvature="0"
         style="fill:url(#linearGradient1400);fill-opacity:1;stroke-width:0.26458332"
         d="m -122.3649,-39.412338 c -1.21276,0.0056 -2.37092,0.109066 -3.38998,0.289388 -3.00201,0.530358 -3.54707,1.640444 -3.54707,3.68763 v 2.703711 h 7.09414 v 0.901237 h -7.09414 -2.66237 c -2.06175,0 -3.86708,1.239233 -4.43177,3.59668 -0.65135,2.70218 -0.68024,4.388385 0,7.209895 0.50428,2.100224 1.70856,3.59668 3.77032,3.59668 h 2.43912 v -3.241146 c 0,-2.341536 2.02596,-4.406965 4.43177,-4.406966 h 7.08588 c 1.97245,0 3.54707,-1.624056 3.54707,-3.604948 v -6.755143 c 0,-1.922552 -1.62189,-3.366764 -3.54707,-3.68763 -1.21867,-0.202863 -2.48314,-0.295023 -3.6959,-0.289388 z m -3.83646,2.174544 c 0.73278,0 1.33119,0.608184 1.33119,1.35599 -1e-5,0.745155 -0.59841,1.347721 -1.33119,1.347721 -0.7354,0 -1.33118,-0.602566 -1.33118,-1.347721 0,-0.747806 0.59578,-1.35599 1.33118,-1.35599 z"
         id="path1948" />
      <path
         inkscape:connector-curvature="0"
         style="fill:url(#linearGradient1402);fill-opacity:1;stroke-width:0.26458332"
         d="m -114.23723,-31.830372 v 3.150195 c 0,2.442304 -2.0706,4.497917 -4.43177,4.497917 h -7.08588 c -1.94093,0 -3.54707,1.661182 -3.54707,3.604948 v 6.755142 c 0,1.922553 1.6718,3.053376 3.54707,3.604948 2.24561,0.6602968 4.39903,0.7796292 7.08588,0 1.78598,-0.517099 3.54707,-1.557763 3.54707,-3.604948 v -2.70371 h -7.08588 v -0.901237 h 7.08588 3.54707 c 2.06175,0 2.83005,-1.438118 3.54707,-3.59668 0.74065,-2.222205 0.70914,-4.359215 0,-7.209895 -0.50953,-2.05249 -1.48269,-3.59668 -3.54707,-3.59668 z m -3.98529,17.106966 c 0.7354,1e-6 1.33119,0.602567 1.33119,1.347721 0,0.747805 -0.59579,1.355989 -1.33119,1.355989 -0.73278,0 -1.33118,-0.608184 -1.33118,-1.355989 0,-0.745154 0.5984,-1.347721 1.33118,-1.347721 z"
         id="path1950" />
    </g>
    <path
       sodipodi:nodetypes="ccccccccccccccccccccccc"
       id="text3004"
       style="font-style:normal;font-weight:normal;font-size:15.16445827px;line-height:125%;font-family:'Bitstream Vera Sans';fill:#646464;fill-opacity:1;stroke:none;stroke-width:0.26458332px;stroke-linecap:butt;stroke-linejoin:miter;stroke-opacity:1"
       d="m -15.726113,-33.985361 h 0.413266 v -2.591922 h 0.978992 v -0.308943 h -2.371251 v 0.308943 h 0.978993 v 2.591922 m 1.75869,0 h 0.353079 v -2.367235 l 0.766342,2.366938 h 0.393089 l 0.798554,-2.358913 v 2.35921 h 0.385178 v -2.900865 h -0.509558 l -0.872678,2.485193 -0.744265,-2.485193 h -0.569741 v 2.900865"
       inkscape:connector-curvature="0" />
    <ellipse
       id="path1894"
       style="opacity:0.44382025;fill:url(#radialGradient1480);fill-opacity:1;fill-rule:nonzero;stroke:none;stroke-width:4.07918215;stroke-miterlimit:4;stroke-dasharray:none;stroke-opacity:1"
       cx="-122.12731"
       cy="-5.6250811"
       rx="9.5067377"
       ry="1.8434346" />
  </g>
  <g
     id="g2882"
     transform="matrix(1.0176218,0,0,1.0176218,891.31244,296.42968)">
    <path
       inkscape:connector-curvature="0"
       style="fill:url(#linearGradient1478);fill-opacity:1;stroke-width:0.26458332"
       d="m -122.3649,-39.412338 c -1.21276,0.0056 -2.37092,0.109066 -3.38998,0.289388 -3.00201,0.530358 -3.54707,1.640444 -3.54707,3.68763 v 2.703711 h 7.09414 v 0.901237 h -7.09414 -2.66237 c -2.06175,0 -3.86708,1.239233 -4.43177,3.59668 -0.65135,2.70218 -0.68024,4.388385 0,7.209895 0.50428,2.100224 1.70856,3.59668 3.77032,3.59668 h 2.43912 v -3.241146 c 0,-2.341536 2.02596,-4.406965 4.43177,-4.406966 h 7.08588 c 1.97245,0 3.54707,-1.624056 3.54707,-3.604948 v -6.755143 c 0,-1.922552 -1.62189,-3.366764 -3.54707,-3.68763 -1.21867,-0.202863 -2.48314,-0.295023 -3.6959,-0.289388 z m -3.83646,2.174544 c 0.73278,0 1.33119,0.608184 1.33119,1.35599 -1e-5,0.745155 -0.59841,1.347721 -1.33119,1.347721 -0.7354,0 -1.33118,-0.602566 -1.33118,-1.347721 0,-0.747806 0.59578,-1.35599 1.33118,-1.35599 z"
       id="path2878" />
    <path
       inkscape:connector-curvature="0"
       style="fill:url(#linearGradient1475);fill-opacity:1;stroke-width:0.26458332"
       d="m -114.23723,-31.830372 v 3.150195 c 0,2.442304 -2.0706,4.497917 -4.43177,4.497917 h -7.08588 c -1.94093,0 -3.54707,1.661182 -3.54707,3.604948 v 6.755142 c 0,1.922553 1.6718,3.053376 3.54707,3.604948 2.24561,0.6602968 4.39903,0.7796292 7.08588,0 1.78598,-0.517099 3.54707,-1.557763 3.54707,-3.604948 v -2.70371 h -7.08588 v -0.901237 h 7.08588 3.54707 c 2.06175,0 2.83005,-1.438118 3.54707,-3.59668 0.74065,-2.222205 0.70914,-4.359215 0,-7.209895 -0.50953,-2.05249 -1.48269,-3.59668 -3.54707,-3.59668 z m -3.98529,17.106966 c 0.7354,1e-6 1.33119,0.602567 1.33119,1.347721 0,0.747805 -0.59579,1.355989 -1.33119,1.355989 -0.73278,0 -1.33118,-0.608184 -1.33118,-1.355989 0,-0.745154 0.5984,-1.347721 1.33118,-1.347721 z"
       id="path2880" />
  </g>
</svg>
