<svg width="80" height="80" viewBox="0 0 80 80" fill="none" xmlns="http://www.w3.org/2000/svg"><path d="M66.6773 36.6648V16.6565C66.6773 12.9731 63.6913 9.98706 60.0079 9.98706H16.6565C12.9731 9.98706 9.98706 12.9731 9.98706 16.6565V56.6732C9.98706 60.3566 12.9731 63.3426 16.6565 63.3426H36.6648" stroke="url(#paint0_linear_8126_23309)" stroke-width="3" stroke-linecap="round" stroke-linejoin="round"></path><path d="M30.83 36.6648H40.0005" stroke="#E1E1E6" stroke-width="3" stroke-linecap="square" stroke-linejoin="round"></path><path d="M30.83 23.7429H53.3394" stroke="#E1E1E6" stroke-width="3" stroke-linecap="square" stroke-linejoin="round"></path><path d="M20.4081 37.0816C20.6384 37.0816 20.825 36.895 20.825 36.6648C20.825 36.4346 20.6384 36.248 20.4081 36.248C20.1779 36.248 19.9913 36.4346 19.9913 36.6648C19.9913 36.895 20.1779 37.0816 20.4081 37.0816" stroke="#E1E1E6" stroke-width="3" stroke-linecap="square" stroke-linejoin="round"></path><path d="M20.4081 24.1598C20.6384 24.1598 20.825 23.9731 20.825 23.7429C20.825 23.5127 20.6384 23.3261 20.4081 23.3261C20.1779 23.3261 19.9913 23.5127 19.9913 23.7429C19.9913 23.9731 20.1779 24.1598 20.4081 24.1598" stroke="#E1E1E6" stroke-width="3" stroke-linecap="square" stroke-linejoin="round"></path><path d="M46.7524 56.4128V64.1661C46.7521 65.8707 47.7153 67.4291 49.2401 68.1911L50.9809 69.0615C53.5148 70.3278 56.497 70.3278 59.0309 69.0615L60.7716 68.1911C62.2965 67.4291 63.2597 65.8707 63.2593 64.1661V56.4128" stroke="#E1E1E6" stroke-width="3" stroke-linecap="round" stroke-linejoin="round"></path><path fill-rule="evenodd" clip-rule="evenodd" d="M41.3776 53.7257L51.6719 58.8678C53.778 59.9184 56.2553 59.9184 58.3614 58.8678L68.6457 53.7257C69.4909 53.3042 70.0251 52.4409 70.0251 51.4964C70.0251 50.5519 69.4909 49.6886 68.6457 49.2671L58.3414 44.125C56.236 43.0713 53.7572 43.0713 51.6519 44.125L41.3676 49.2671C40.5233 49.6905 39.9911 50.555 39.9932 51.4995C39.9953 52.444 40.5314 53.3061 41.3776 53.7257Z" stroke="#E1E1E6" stroke-width="3" stroke-linecap="round" stroke-linejoin="round"></path><path d="M70.0126 51.4949V57.4974" stroke="#E1E1E6" stroke-width="3" stroke-linecap="round" stroke-linejoin="round"></path><defs><linearGradient id="paint0_linear_8126_23309" x1="38.3322" y1="9.98706" x2="38.3322" y2="63.3426" gradientUnits="userSpaceOnUse"><stop stop-color="#4863F7"></stop><stop offset="1" stop-color="#202855"></stop></linearGradient></defs></svg>