<?xml version="1.0" encoding="UTF-8" standalone="no"?>
<!-- Created with Inkscape (http://www.inkscape.org/) -->

<svg
   xmlns:dc="http://purl.org/dc/elements/1.1/"
   xmlns:cc="http://creativecommons.org/ns#"
   xmlns:rdf="http://www.w3.org/1999/02/22-rdf-syntax-ns#"
   xmlns:svg="http://www.w3.org/2000/svg"
   xmlns="http://www.w3.org/2000/svg"
   xmlns:xlink="http://www.w3.org/1999/xlink"
   xmlns:sodipodi="http://sodipodi.sourceforge.net/DTD/sodipodi-0.dtd"
   xmlns:inkscape="http://www.inkscape.org/namespaces/inkscape"
   width="197.55855mm"
   height="141.1089mm"
   viewBox="0 0 197.55855 141.1089"
   version="1.1"
   id="svg3091"
   inkscape:version="0.92.5 (0.92.5+69)"
   sodipodi:docname="featured_img.svg">
  <defs
     id="defs3085">
    <linearGradient
       inkscape:collect="always"
       id="linearGradient2306">
      <stop
         style="stop-color:#333333;stop-opacity:1;"
         offset="0"
         id="stop2302" />
      <stop
         style="stop-color:#666666;stop-opacity:1"
         offset="1"
         id="stop2304" />
    </linearGradient>
    <clipPath
       clipPathUnits="userSpaceOnUse"
       id="clipPath2471">
      <g
         aria-label="PYTHON"
         style="font-style:normal;font-weight:normal;font-size:29.4532032px;line-height:1.25;font-family:sans-serif;letter-spacing:2.4066236px;word-spacing:0px;fill:url(#linearGradient2499);fill-opacity:1;stroke:none;stroke-width:0.73676795;stroke-miterlimit:4;stroke-dasharray:none;stroke-opacity:1"
         id="g2485"
         transform="matrix(1.0055692,0,0,1.0055692,0.05472785,-0.30648573)">
        <path
           d="m -67.521426,34.031886 h -8.453069 v 20.617242 h 6.096813 v -5.861187 h 2.356256 c 5.213217,0 8.453069,-2.208991 8.453069,-7.098222 0,-4.624153 -2.739147,-7.657833 -8.453069,-7.657833 z m 0,9.74901 h -2.356256 v -4.211808 h 2.356256 c 1.531567,0 2.29735,0.883596 2.29735,2.120631 0,1.325394 -0.82469,2.091177 -2.29735,2.091177 z"
           style="font-style:normal;font-variant:normal;font-weight:800;font-stretch:normal;font-family:'MADE TOMMY';-inkscape-font-specification:'MADE TOMMY Ultra-Bold';letter-spacing:2.4066236px;fill:url(#linearGradient2487);fill-opacity:1;stroke:none;stroke-width:0.73676795;stroke-miterlimit:4;stroke-dasharray:none;stroke-opacity:1"
           id="path2473"
           inkscape:connector-curvature="0" />
        <path
           d="m -35.691051,34.031886 h -6.715331 l -3.740556,8.011271 -3.77001,-8.011271 h -6.715331 l 7.422207,12.87105 v 7.746192 h 6.096813 v -7.746192 z"
           style="font-style:normal;font-variant:normal;font-weight:800;font-stretch:normal;font-family:'MADE TOMMY';-inkscape-font-specification:'MADE TOMMY Ultra-Bold';letter-spacing:2.4066236px;fill:url(#linearGradient2489);fill-opacity:1;stroke:none;stroke-width:0.73676795;stroke-miterlimit:4;stroke-dasharray:none;stroke-opacity:1"
           id="path2475"
           inkscape:connector-curvature="0" />
        <path
           d="m -16.652111,34.031886 h -15.757463 v 5.537202 h 4.830325 v 15.08004 h 6.096813 v -15.08004 h 4.830325 z"
           style="font-style:normal;font-variant:normal;font-weight:800;font-stretch:normal;font-family:'MADE TOMMY';-inkscape-font-specification:'MADE TOMMY Ultra-Bold';letter-spacing:2.4066236px;fill:url(#linearGradient2491);fill-opacity:1;stroke:none;stroke-width:0.73676795;stroke-miterlimit:4;stroke-dasharray:none;stroke-opacity:1"
           id="path2477"
           inkscape:connector-curvature="0" />
        <path
           d="m 0.65599304,34.031886 v 7.510567 H -5.7648053 v -7.510567 h -6.0968127 v 20.617242 h 6.0968127 v -7.657833 h 6.42079834 v 7.657833 H 6.7528061 V 34.031886 Z"
           style="font-style:normal;font-variant:normal;font-weight:800;font-stretch:normal;font-family:'MADE TOMMY';-inkscape-font-specification:'MADE TOMMY Ultra-Bold';letter-spacing:2.4066236px;fill:url(#linearGradient2493);fill-opacity:1;stroke:none;stroke-width:0.73676795;stroke-miterlimit:4;stroke-dasharray:none;stroke-opacity:1"
           id="path2479"
           inkscape:connector-curvature="0" />
        <path
           d="m 22.271623,33.678447 c -6.185172,0 -10.603153,4.5947 -10.603153,10.66206 0,6.096813 4.417981,10.691513 10.603153,10.691513 6.185173,0 10.603153,-4.5947 10.603153,-10.691513 0,-6.06736 -4.41798,-10.66206 -10.603153,-10.66206 z m 0,15.433479 c -2.827507,0 -4.50634,-2.061724 -4.50634,-4.771419 0,-2.680242 1.678833,-4.771419 4.50634,-4.771419 2.827508,0 4.50634,2.091177 4.50634,4.771419 0,2.709695 -1.678832,4.771419 -4.50634,4.771419 z"
           style="font-style:normal;font-variant:normal;font-weight:800;font-stretch:normal;font-family:'MADE TOMMY';-inkscape-font-specification:'MADE TOMMY Ultra-Bold';letter-spacing:2.4066236px;fill:url(#linearGradient2495);fill-opacity:1;stroke:none;stroke-width:0.73676795;stroke-miterlimit:4;stroke-dasharray:none;stroke-opacity:1"
           id="path2481"
           inkscape:connector-curvature="0" />
        <path
           d="M 50.252371,34.031886 V 45.017931 L 43.213056,34.031886 h -5.448843 v 20.617242 h 6.096813 V 43.663083 l 7.009863,10.986045 h 5.448842 V 34.031886 Z"
           style="font-style:normal;font-variant:normal;font-weight:800;font-stretch:normal;font-family:'MADE TOMMY';-inkscape-font-specification:'MADE TOMMY Ultra-Bold';letter-spacing:2.4066236px;fill:url(#linearGradient2497);fill-opacity:1;stroke:none;stroke-width:0.73676795;stroke-miterlimit:4;stroke-dasharray:none;stroke-opacity:1"
           id="path2483"
           inkscape:connector-curvature="0" />
      </g>
    </clipPath>
    <linearGradient
       id="d">
      <stop
         id="stop8"
         offset="0"
         stop-color="#5a9fd4" />
      <stop
         id="stop10"
         offset="1"
         stop-color="#306998" />
    </linearGradient>
    <linearGradient
       id="e">
      <stop
         id="stop3"
         offset="0"
         stop-color="#ffd43b" />
      <stop
         id="stop5"
         offset="1"
         stop-color="#ffe873" />
    </linearGradient>
    <linearGradient
       inkscape:collect="always"
       xlink:href="#linearGradient2306"
       id="linearGradient3818"
       gradientUnits="userSpaceOnUse"
       x1="26.130585"
       y1="53.615322"
       x2="56.91539"
       y2="34.407715"
       gradientTransform="matrix(1.131608,0,0,1.131608,79.91241,74.298837)" />
    <linearGradient
       inkscape:collect="always"
       xlink:href="#linearGradient2306"
       id="linearGradient3820"
       gradientUnits="userSpaceOnUse"
       x1="26.130585"
       y1="53.615322"
       x2="56.91539"
       y2="34.407715"
       gradientTransform="matrix(1.131608,0,0,1.131608,79.91241,74.298837)" />
    <linearGradient
       inkscape:collect="always"
       xlink:href="#linearGradient2306"
       id="linearGradient3822"
       gradientUnits="userSpaceOnUse"
       x1="26.130585"
       y1="53.615322"
       x2="56.91539"
       y2="34.407715"
       gradientTransform="matrix(1.131608,0,0,1.131608,79.91241,74.298837)" />
    <linearGradient
       inkscape:collect="always"
       xlink:href="#linearGradient2306"
       id="linearGradient3824"
       gradientUnits="userSpaceOnUse"
       x1="26.130585"
       y1="53.615322"
       x2="56.91539"
       y2="34.407715"
       gradientTransform="matrix(1.131608,0,0,1.131608,79.91241,74.298837)" />
    <linearGradient
       inkscape:collect="always"
       xlink:href="#linearGradient2306"
       id="linearGradient3826"
       gradientUnits="userSpaceOnUse"
       x1="26.130585"
       y1="53.615322"
       x2="56.91539"
       y2="34.407715"
       gradientTransform="matrix(1.131608,0,0,1.131608,79.91241,74.298837)" />
    <linearGradient
       inkscape:collect="always"
       xlink:href="#linearGradient2306"
       id="linearGradient3828"
       gradientUnits="userSpaceOnUse"
       x1="26.130585"
       y1="53.615322"
       x2="56.91539"
       y2="34.407715"
       gradientTransform="matrix(1.131608,0,0,1.131608,79.91241,74.298837)" />
  </defs>
  <sodipodi:namedview
     id="base"
     pagecolor="#ffffff"
     bordercolor="#666666"
     borderopacity="1.0"
     inkscape:pageopacity="0.0"
     inkscape:pageshadow="2"
     inkscape:zoom="0.35"
     inkscape:cx="330.35125"
     inkscape:cy="82.355131"
     inkscape:document-units="mm"
     inkscape:current-layer="layer1"
     showgrid="false"
     fit-margin-top="0"
     fit-margin-left="0"
     fit-margin-right="0"
     fit-margin-bottom="0"
     inkscape:window-width="2560"
     inkscape:window-height="993"
     inkscape:window-x="0"
     inkscape:window-y="384"
     inkscape:window-maximized="1" />
  <metadata
     id="metadata3088">
    <rdf:RDF>
      <cc:Work
         rdf:about="">
        <dc:format>image/svg+xml</dc:format>
        <dc:type
           rdf:resource="http://purl.org/dc/dcmitype/StillImage" />
        <dc:title></dc:title>
      </cc:Work>
    </rdf:RDF>
  </metadata>
  <g
     inkscape:label="Layer 1"
     inkscape:groupmode="layer"
     id="layer1"
     transform="translate(29.987608,-32.165787)">
    <rect
       style="opacity:1;fill:none;fill-opacity:1;stroke:none;stroke-width:0.92225039;stroke-linecap:round;stroke-linejoin:round;stroke-miterlimit:4;stroke-dasharray:none;stroke-dashoffset:0;stroke-opacity:1"
       id="rect2509"
       width="197.55855"
       height="141.1089"
       x="-29.987608"
       y="32.165787"
       inkscape:export-xdpi="64.279999"
       inkscape:export-ydpi="64.279999" />
    <path
       inkscape:connector-curvature="0"
       id="path2271"
       style="font-style:normal;font-variant:normal;font-weight:300;font-stretch:normal;font-size:12.64992428px;line-height:1.25;font-family:'MADE TOMMY';-inkscape-font-specification:'MADE TOMMY Light';letter-spacing:3.7918148px;word-spacing:0px;fill:none;fill-opacity:1;stroke:#999999;stroke-width:0.80574399;stroke-miterlimit:4;stroke-dasharray:none;stroke-opacity:1"
       d="m -2.6265973,48.566535 h -2.975214 v 9.964832 h 0.7687158 v -3.786636 h 2.2064982 c 2.17802831,0 3.4307497,-1.252723 3.4307497,-3.089099 0,-1.836376 -1.25272139,-3.089097 -3.4307497,-3.089097 z m 0,5.40948 h -2.2064982 v -4.640764 h 2.2064982 c 1.75096377,0 2.66203397,0.91107 2.66203397,2.320381 0,1.409313 -0.9110702,2.320383 -2.66203397,2.320383 z"
       inkscape:export-xdpi="64.279999"
       inkscape:export-ydpi="64.279999" />
    <path
       inkscape:connector-curvature="0"
       id="path2273"
       style="font-style:normal;font-variant:normal;font-weight:300;font-stretch:normal;font-size:12.64992428px;line-height:1.25;font-family:'MADE TOMMY';-inkscape-font-specification:'MADE TOMMY Light';letter-spacing:3.7918148px;word-spacing:0px;fill:none;fill-opacity:1;stroke:#999999;stroke-width:0.80574399;stroke-miterlimit:4;stroke-dasharray:none;stroke-opacity:1"
       d="M 13.631204,58.531367 10.9407,54.189547 c 1.338135,-0.370122 2.10685,-1.323899 2.10685,-2.718976 0,-1.836376 -1.309664,-2.904036 -3.487691,-2.904036 H 6.7839417 v 9.964832 H 7.5384218 V 54.360373 H 9.559859 c 0.1992967,0 0.3985934,-0.01423 0.583655,-0.02847 l 2.605091,4.199465 z M 7.5384218,53.605893 V 49.335251 H 9.559859 c 1.750964,0 2.733211,0.711773 2.733211,2.13532 0,1.409313 -0.982247,2.135322 -2.733211,2.135322 z"
       inkscape:export-xdpi="64.279999"
       inkscape:export-ydpi="64.279999" />
    <path
       inkscape:connector-curvature="0"
       id="path2275"
       style="font-style:normal;font-variant:normal;font-weight:300;font-stretch:normal;font-size:12.64992428px;line-height:1.25;font-family:'MADE TOMMY';-inkscape-font-specification:'MADE TOMMY Light';letter-spacing:3.7918148px;word-spacing:0px;fill:none;fill-opacity:1;stroke:#999999;stroke-width:0.80574399;stroke-miterlimit:4;stroke-dasharray:none;stroke-opacity:1"
       d="m 23.934574,48.39571 c -2.847095,0 -5.025122,2.306146 -5.025122,5.153241 0,2.847095 2.178027,5.167478 5.025122,5.167478 2.847095,0 5.039358,-2.320383 5.039358,-5.167478 0,-2.847095 -2.192263,-5.153241 -5.039358,-5.153241 z m 0,9.552003 c -2.420031,0 -4.270642,-1.964496 -4.270642,-4.398762 0,-2.420031 1.850611,-4.398761 4.270642,-4.398761 2.434266,0 4.284878,1.97873 4.284878,4.398761 0,2.434266 -1.850612,4.398762 -4.284878,4.398762 z"
       inkscape:export-xdpi="64.279999"
       inkscape:export-ydpi="64.279999" />
    <path
       inkscape:connector-curvature="0"
       id="path2277"
       style="font-style:normal;font-variant:normal;font-weight:300;font-stretch:normal;font-size:12.64992428px;line-height:1.25;font-family:'MADE TOMMY';-inkscape-font-specification:'MADE TOMMY Light';letter-spacing:3.7918148px;word-spacing:0px;fill:none;fill-opacity:1;stroke:#999999;stroke-width:0.80574399;stroke-miterlimit:4;stroke-dasharray:none;stroke-opacity:1"
       d="m 39.96928,53.150357 v 0.75448 h 3.573104 c -0.04271,2.277676 -1.380841,4.042876 -3.843578,4.042876 -2.434266,0 -4.284878,-1.964496 -4.284878,-4.398762 0,-2.420031 1.850612,-4.398761 4.284878,-4.398761 1.323899,0 2.491208,0.597889 3.259924,1.53743 l 0.640595,-0.412828 c -0.91107,-1.153073 -2.306146,-1.879082 -3.900519,-1.879082 -2.847095,0 -5.039358,2.306146 -5.039358,5.153241 0,2.847095 2.192263,5.167478 5.039358,5.167478 1.893318,0 3.217217,-0.896836 3.914755,-2.291912 l 0.185061,2.10685 h 0.498242 v -5.38101 z"
       inkscape:export-xdpi="64.279999"
       inkscape:export-ydpi="64.279999" />
    <path
       inkscape:connector-curvature="0"
       id="path2279"
       style="font-style:normal;font-variant:normal;font-weight:300;font-stretch:normal;font-size:12.64992428px;line-height:1.25;font-family:'MADE TOMMY';-inkscape-font-specification:'MADE TOMMY Light';letter-spacing:3.7918148px;word-spacing:0px;fill:none;fill-opacity:1;stroke:#999999;stroke-width:0.80574399;stroke-miterlimit:4;stroke-dasharray:none;stroke-opacity:1"
       d="m 57.544752,58.531367 -2.690505,-4.34182 c 1.338135,-0.370122 2.106851,-1.323899 2.106851,-2.718976 0,-1.836376 -1.309664,-2.904036 -3.487691,-2.904036 h -2.775919 v 9.964832 h 0.754481 v -4.170994 h 2.021438 c 0.199297,0 0.398593,-0.01423 0.583654,-0.02847 l 2.605092,4.199465 z m -6.092783,-4.925474 v -4.270642 h 2.021438 c 1.750962,0 2.73321,0.711773 2.73321,2.13532 0,1.409313 -0.982248,2.135322 -2.73321,2.135322 z"
       inkscape:export-xdpi="64.279999"
       inkscape:export-ydpi="64.279999" />
    <path
       inkscape:connector-curvature="0"
       id="path2281"
       style="font-style:normal;font-variant:normal;font-weight:300;font-stretch:normal;font-size:12.64992428px;line-height:1.25;font-family:'MADE TOMMY';-inkscape-font-specification:'MADE TOMMY Light';letter-spacing:3.7918148px;word-spacing:0px;fill:none;fill-opacity:1;stroke:#999999;stroke-width:0.80574399;stroke-miterlimit:4;stroke-dasharray:none;stroke-opacity:1"
       d="m 70.108225,58.531367 h 0.811422 l -3.715459,-9.964832 h -0.811422 l -3.715459,9.964832 h 0.811423 l 1.039189,-2.790154 h 4.541117 z m -5.295596,-3.558868 1.992966,-5.309833 1.978731,5.309833 z"
       inkscape:export-xdpi="64.279999"
       inkscape:export-ydpi="64.279999" />
    <path
       inkscape:connector-curvature="0"
       id="path2283"
       style="font-style:normal;font-variant:normal;font-weight:300;font-stretch:normal;font-size:12.64992428px;line-height:1.25;font-family:'MADE TOMMY';-inkscape-font-specification:'MADE TOMMY Light';letter-spacing:3.7918148px;word-spacing:0px;fill:none;fill-opacity:1;stroke:#999999;stroke-width:0.80574399;stroke-miterlimit:4;stroke-dasharray:none;stroke-opacity:1"
       d="m 85.944077,48.566535 -4.213701,6.235137 -4.227936,-6.235137 h -0.75448 v 9.964832 h 0.75448 v -8.541285 l 4.042875,6.00737 h 0.355887 l 4.042875,-6.00737 v 8.541285 h 0.75448 v -9.964832 z"
       inkscape:export-xdpi="64.279999"
       inkscape:export-ydpi="64.279999" />
    <path
       inkscape:connector-curvature="0"
       id="path2285"
       style="font-style:normal;font-variant:normal;font-weight:300;font-stretch:normal;font-size:12.64992428px;line-height:1.25;font-family:'MADE TOMMY';-inkscape-font-specification:'MADE TOMMY Light';letter-spacing:3.7918148px;word-spacing:0px;fill:none;fill-opacity:1;stroke:#999999;stroke-width:0.80574399;stroke-miterlimit:4;stroke-dasharray:none;stroke-opacity:1"
       d="m 99.967805,58.531367 h 0.811425 l -3.715462,-9.964832 h -0.811421 l -3.715459,9.964832 h 0.811421 L 94.3875,55.741213 h 4.541116 z m -5.295596,-3.558868 1.992967,-5.309833 1.97873,5.309833 z"
       inkscape:export-xdpi="64.279999"
       inkscape:export-ydpi="64.279999" />
    <path
       inkscape:connector-curvature="0"
       id="path2287"
       style="font-style:normal;font-variant:normal;font-weight:300;font-stretch:normal;font-size:12.64992428px;line-height:1.25;font-family:'MADE TOMMY';-inkscape-font-specification:'MADE TOMMY Light';letter-spacing:3.7918148px;word-spacing:0px;fill:none;fill-opacity:1;stroke:#999999;stroke-width:0.80574399;stroke-miterlimit:4;stroke-dasharray:none;stroke-opacity:1"
       d="m 110.78854,57.947713 c -2.42003,0 -4.27064,-1.964496 -4.27064,-4.398762 0,-2.420031 1.85061,-4.398761 4.27064,-4.398761 1.33814,0 2.50545,0.597889 3.27416,1.53743 l 0.6406,-0.412828 c -0.91107,-1.153073 -2.30615,-1.879082 -3.91476,-1.879082 -2.84709,0 -5.02512,2.306146 -5.02512,5.153241 0,2.633562 1.87908,4.811591 4.413,5.124771 l -0.4413,0.91107 0.32741,0.412829 c 0.71178,-0.341651 1.29543,-0.07118 1.29543,0.540948 0,0.782951 -0.91107,0.939541 -1.69402,0.569419 l -0.32742,0.59789 c 1.23849,0.62636 2.76168,0.170826 2.76168,-1.138838 0,-0.982248 -0.9253,-1.395077 -1.73672,-1.167309 l 0.32741,-0.683302 c 0.0427,0 0.0712,0 0.0996,0 1.60861,0 3.00369,-0.740245 3.91476,-1.879083 l -0.6406,-0.427065 c -0.76871,0.939542 -1.93602,1.537432 -3.27416,1.537432 z"
       inkscape:export-xdpi="64.279999"
       inkscape:export-ydpi="64.279999" />
    <path
       inkscape:connector-curvature="0"
       id="path2289"
       style="font-style:normal;font-variant:normal;font-weight:300;font-stretch:normal;font-size:12.64992428px;line-height:1.25;font-family:'MADE TOMMY';-inkscape-font-specification:'MADE TOMMY Light';letter-spacing:3.7918148px;word-spacing:0px;fill:none;fill-opacity:1;stroke:#999999;stroke-width:0.80574399;stroke-miterlimit:4;stroke-dasharray:none;stroke-opacity:1"
       d="m 127.32505,58.531367 h 0.81142 l -3.71546,-9.964832 h -0.81142 l -3.71546,9.964832 h 0.81142 l 1.03919,-2.790154 h 4.54112 z m -5.2956,-3.558868 1.99297,-5.309833 1.97873,5.309833 z m 3.31687,-8.897172 c -0.0569,0.384358 -0.21353,0.583654 -0.51248,0.583654 -0.45553,0 -1.09613,-0.555183 -1.67978,-0.555183 -0.61213,0 -0.99649,0.427063 -1.09614,1.153073 l 0.62636,0.09965 c 0.057,-0.412829 0.21354,-0.626361 0.49825,-0.626361 0.46977,0 1.08189,0.569419 1.67978,0.569419 0.62636,0 0.99649,-0.427063 1.11037,-1.138838 z"
       inkscape:export-xdpi="64.279999"
       inkscape:export-ydpi="64.279999" />
    <path
       inkscape:connector-curvature="0"
       id="path2291"
       style="font-style:normal;font-variant:normal;font-weight:300;font-stretch:normal;font-size:12.64992428px;line-height:1.25;font-family:'MADE TOMMY';-inkscape-font-specification:'MADE TOMMY Light';letter-spacing:3.7918148px;word-spacing:0px;fill:none;fill-opacity:1;stroke:#999999;stroke-width:0.80574399;stroke-miterlimit:4;stroke-dasharray:none;stroke-opacity:1"
       d="m 138.14579,48.39571 c -2.8471,0 -5.02513,2.306146 -5.02513,5.153241 0,2.847095 2.17803,5.167478 5.02513,5.167478 2.84709,0 5.03935,-2.320383 5.03935,-5.167478 0,-2.847095 -2.19226,-5.153241 -5.03935,-5.153241 z m 0,9.552003 c -2.42004,0 -4.27065,-1.964496 -4.27065,-4.398762 0,-2.420031 1.85061,-4.398761 4.27065,-4.398761 2.43426,0 4.28487,1.97873 4.28487,4.398761 0,2.434266 -1.85061,4.398762 -4.28487,4.398762 z"
       inkscape:export-xdpi="64.279999"
       inkscape:export-ydpi="64.279999" />
    <path
       inkscape:connector-curvature="0"
       id="path2250"
       style="font-style:normal;font-variant:normal;font-weight:300;font-stretch:normal;font-size:14.58886528px;line-height:1.25;font-family:'MADE TOMMY';-inkscape-font-specification:'MADE TOMMY Light';letter-spacing:4.37301302px;word-spacing:0px;fill:none;fill-opacity:1;stroke:#808080;stroke-width:1.08474195;stroke-miterlimit:4;stroke-dasharray:none;stroke-opacity:1"
       d="m 0.1574435,69.919251 c -3.2834887,0 -5.7953572,2.659626 -5.7953572,5.943114 0,3.283489 2.5118685,5.959533 5.7953572,5.959533 3.2834887,0 5.8117748,-2.676044 5.8117748,-5.959533 0,-3.283488 -2.5282861,-5.943114 -5.8117748,-5.943114 z m 0,11.016105 c -2.7909654,0 -4.9252325,-2.265608 -4.9252325,-5.072991 0,-2.790965 2.1342671,-5.07299 4.9252325,-5.07299 2.8073829,0 4.9416512,2.282025 4.9416512,5.07299 0,2.807383 -2.1342683,5.072991 -4.9416512,5.072991 z"
       inkscape:export-xdpi="64.279999"
       inkscape:export-ydpi="64.279999" />
    <path
       inkscape:connector-curvature="0"
       id="path2252"
       style="font-style:normal;font-variant:normal;font-weight:300;font-stretch:normal;font-size:14.58886528px;line-height:1.25;font-family:'MADE TOMMY';-inkscape-font-specification:'MADE TOMMY Light';letter-spacing:4.37301302px;word-spacing:0px;fill:none;fill-opacity:1;stroke:#808080;stroke-width:1.08474195;stroke-miterlimit:4;stroke-dasharray:none;stroke-opacity:1"
       d="M 20.915505,81.608471 17.812609,76.60115 c 1.543239,-0.426853 2.429781,-1.526822 2.429781,-3.135731 0,-2.117851 -1.510405,-3.349159 -4.022273,-3.349159 h -3.201402 v 11.492211 h 0.870124 V 76.79816 h 2.331278 c 0.229844,0 0.459688,-0.01642 0.673114,-0.03284 l 3.004393,4.843146 z m -7.026666,-5.680436 v -4.925233 h 2.331278 c 2.019345,0 3.152149,0.820872 3.152149,2.462617 0,1.625327 -1.132804,2.462616 -3.152149,2.462616 z"
       inkscape:export-xdpi="64.279999"
       inkscape:export-ydpi="64.279999" />
    <path
       inkscape:connector-curvature="0"
       id="path2254"
       style="font-style:normal;font-variant:normal;font-weight:300;font-stretch:normal;font-size:14.58886528px;line-height:1.25;font-family:'MADE TOMMY';-inkscape-font-specification:'MADE TOMMY Light';letter-spacing:4.37301302px;word-spacing:0px;fill:none;fill-opacity:1;stroke:#808080;stroke-width:1.08474195;stroke-miterlimit:4;stroke-dasharray:none;stroke-opacity:1"
       d="M 27.655638,70.11626 V 81.608471 H 28.54218 V 70.11626 Z"
       inkscape:export-xdpi="64.279999"
       inkscape:export-ydpi="64.279999" />
    <path
       inkscape:connector-curvature="0"
       id="path2256"
       style="font-style:normal;font-variant:normal;font-weight:300;font-stretch:normal;font-size:14.58886528px;line-height:1.25;font-family:'MADE TOMMY';-inkscape-font-specification:'MADE TOMMY Light';letter-spacing:4.37301302px;word-spacing:0px;fill:none;fill-opacity:1;stroke:#808080;stroke-width:1.08474195;stroke-miterlimit:4;stroke-dasharray:none;stroke-opacity:1"
       d="M 36.974079,80.738346 V 76.09221 H 41.91573 V 75.222085 H 36.974079 V 71.002802 H 42.29333 V 70.11626 h -6.189376 v 11.492211 h 6.337133 v -0.870125 z"
       inkscape:export-xdpi="64.279999"
       inkscape:export-ydpi="64.279999" />
    <path
       inkscape:connector-curvature="0"
       id="path2258"
       style="font-style:normal;font-variant:normal;font-weight:300;font-stretch:normal;font-size:14.58886528px;line-height:1.25;font-family:'MADE TOMMY';-inkscape-font-specification:'MADE TOMMY Light';letter-spacing:4.37301302px;word-spacing:0px;fill:none;fill-opacity:1;stroke:#808080;stroke-width:1.08474195;stroke-miterlimit:4;stroke-dasharray:none;stroke-opacity:1"
       d="m 57.35428,70.11626 v 9.998223 L 50.360448,70.11626 h -0.870123 v 11.492211 h 0.870123 v -9.998224 l 6.993832,9.998224 h 0.870125 V 70.11626 Z"
       inkscape:export-xdpi="64.279999"
       inkscape:export-ydpi="64.279999" />
    <path
       inkscape:connector-curvature="0"
       id="path2260"
       style="font-style:normal;font-variant:normal;font-weight:300;font-stretch:normal;font-size:14.58886528px;line-height:1.25;font-family:'MADE TOMMY';-inkscape-font-specification:'MADE TOMMY Light';letter-spacing:4.37301302px;word-spacing:0px;fill:none;fill-opacity:1;stroke:#808080;stroke-width:1.08474195;stroke-miterlimit:4;stroke-dasharray:none;stroke-opacity:1"
       d="m 72.42806,70.11626 h -7.158005 v 0.886542 h 3.135731 v 10.605669 h 0.870125 V 71.002802 h 3.152149 z"
       inkscape:export-xdpi="64.279999"
       inkscape:export-ydpi="64.279999" />
    <path
       inkscape:connector-curvature="0"
       id="path2262"
       style="font-style:normal;font-variant:normal;font-weight:300;font-stretch:normal;font-size:14.58886528px;line-height:1.25;font-family:'MADE TOMMY';-inkscape-font-specification:'MADE TOMMY Light';letter-spacing:4.37301302px;word-spacing:0px;fill:none;fill-opacity:1;stroke:#808080;stroke-width:1.08474195;stroke-miterlimit:4;stroke-dasharray:none;stroke-opacity:1"
       d="m 86.064288,81.608471 h 0.935794 L 82.715129,70.11626 h -0.935794 l -4.284953,11.492211 h 0.935794 l 1.198474,-3.217819 h 5.237164 z m -6.107289,-4.104361 2.298442,-6.123707 2.282025,6.123707 z"
       inkscape:export-xdpi="64.279999"
       inkscape:export-ydpi="64.279999" />
    <path
       inkscape:connector-curvature="0"
       id="path2264"
       style="font-style:normal;font-variant:normal;font-weight:300;font-stretch:normal;font-size:14.58886528px;line-height:1.25;font-family:'MADE TOMMY';-inkscape-font-specification:'MADE TOMMY Light';letter-spacing:4.37301302px;word-spacing:0px;fill:none;fill-opacity:1;stroke:#808080;stroke-width:1.08474195;stroke-miterlimit:4;stroke-dasharray:none;stroke-opacity:1"
       d="m 97.152993,70.11626 h -3.431246 v 11.492211 h 3.431246 c 3.283487,0 5.664017,-2.462617 5.664017,-5.746106 0,-3.283488 -2.38053,-5.746105 -5.664017,-5.746105 z m 0,10.622086 h -2.561122 v -9.735544 h 2.561122 c 2.807382,0 4.793897,2.068598 4.793897,4.859563 0,2.807383 -1.986515,4.875981 -4.793897,4.875981 z"
       inkscape:export-xdpi="64.279999"
       inkscape:export-ydpi="64.279999" />
    <path
       inkscape:connector-curvature="0"
       id="path2266"
       style="font-style:normal;font-variant:normal;font-weight:300;font-stretch:normal;font-size:14.58886528px;line-height:1.25;font-family:'MADE TOMMY';-inkscape-font-specification:'MADE TOMMY Light';letter-spacing:4.37301302px;word-spacing:0px;fill:none;fill-opacity:1;stroke:#808080;stroke-width:1.08474195;stroke-miterlimit:4;stroke-dasharray:none;stroke-opacity:1"
       d="m 117.13379,81.608471 h 0.93579 L 113.78463,70.11626 h -0.9358 l -4.28495,11.492211 h 0.93579 l 1.19848,-3.217819 h 5.23716 z m -6.10729,-4.104361 2.29844,-6.123707 2.28202,6.123707 z"
       inkscape:export-xdpi="64.279999"
       inkscape:export-ydpi="64.279999" />
    <path
       inkscape:connector-curvature="0"
       id="path2268"
       style="font-style:normal;font-variant:normal;font-weight:300;font-stretch:normal;font-size:14.58886528px;line-height:1.25;font-family:'MADE TOMMY';-inkscape-font-specification:'MADE TOMMY Light';letter-spacing:4.37301302px;word-spacing:0px;fill:none;fill-opacity:1;stroke:#808080;stroke-width:1.08474195;stroke-miterlimit:4;stroke-dasharray:none;stroke-opacity:1"
       d="m 142.04675,81.608471 h 0.9358 L 138.69759,70.11626 h -0.93579 l -4.28495,11.492211 h 0.93579 l 1.19847,-3.217819 h 5.23717 z m -6.10729,-4.104361 2.29844,-6.123707 2.28203,6.123707 z"
       inkscape:export-xdpi="64.279999"
       inkscape:export-ydpi="64.279999" />
    <path
       inkscape:connector-curvature="0"
       id="path2231"
       style="font-style:normal;font-variant:normal;font-weight:300;font-stretch:normal;font-size:15.213027px;line-height:1.25;font-family:'MADE TOMMY';-inkscape-font-specification:'MADE TOMMY Light';letter-spacing:4.56010485px;word-spacing:0px;fill:none;fill-opacity:1;stroke:#4d4d4d;stroke-width:2.34070849;stroke-miterlimit:4;stroke-dasharray:none;stroke-opacity:1"
       d="m 0.53366776,91.04065 c -3.42396726,0 -6.04330236,2.773413 -6.04330236,6.197382 0,3.423968 2.6193351,6.214498 6.04330236,6.214498 3.42396724,0 6.06042334,-2.79053 6.06042334,-6.214498 0,-3.423969 -2.6364561,-6.197382 -6.06042334,-6.197382 z m 0,11.48741 c -2.91037296,0 -5.13595146,-2.36254 -5.13595146,-5.290028 0,-2.910373 2.2255785,-5.290031 5.13595146,-5.290031 2.92749284,0 5.15307124,2.379658 5.15307124,5.290031 0,2.927488 -2.2255784,5.290028 -5.15307124,5.290028 z"
       inkscape:export-xdpi="64.279999"
       inkscape:export-ydpi="64.279999" />
    <path
       inkscape:connector-curvature="0"
       id="path2233"
       style="font-style:normal;font-variant:normal;font-weight:300;font-stretch:normal;font-size:15.213027px;line-height:1.25;font-family:'MADE TOMMY';-inkscape-font-specification:'MADE TOMMY Light';letter-spacing:4.56010485px;word-spacing:0px;fill:none;fill-opacity:1;stroke:#4d4d4d;stroke-width:2.34070849;stroke-miterlimit:4;stroke-dasharray:none;stroke-opacity:1"
       d="m 19.543376,96.912754 v -0.05136 c 1.12991,-0.445117 1.780464,-1.335348 1.780464,-2.516617 0,-1.797583 -1.352468,-3.098691 -3.560927,-3.098691 h -3.817724 v 11.983884 h 4.074521 c 2.20846,0 3.920444,-1.12991 3.920444,-3.321245 0,-1.626385 -0.975831,-2.602215 -2.396778,-2.995971 z m -1.780463,-4.742195 c 1.694864,0 2.653575,0.890232 2.653575,2.174219 0,1.301108 -0.958711,2.22558 -2.653575,2.22558 H 14.85254 v -4.399799 z m 0.256797,10.152061 h -3.16717 v -4.862031 h 3.16717 c 1.694864,0 3.013092,0.736153 3.013092,2.448137 0,1.694864 -1.318228,2.413894 -3.013092,2.413894 z"
       inkscape:export-xdpi="64.279999"
       inkscape:export-ydpi="64.279999" />
    <path
       inkscape:connector-curvature="0"
       id="path2235"
       style="font-style:normal;font-variant:normal;font-weight:300;font-stretch:normal;font-size:15.213027px;line-height:1.25;font-family:'MADE TOMMY';-inkscape-font-specification:'MADE TOMMY Light';letter-spacing:4.56010485px;word-spacing:0px;fill:none;fill-opacity:1;stroke:#4d4d4d;stroke-width:2.34070849;stroke-miterlimit:4;stroke-dasharray:none;stroke-opacity:1"
       d="m 35.214981,91.246088 v 8.114803 c 0,2.105739 -1.09567,3.167169 -2.790534,3.167169 -1.506545,0 -2.670695,-0.83887 -2.910372,-2.51661 l -0.890232,0.17119 c 0.308157,2.08862 1.831823,3.26989 3.800604,3.26989 2.19134,0 3.715005,-1.48942 3.715005,-4.091639 v -8.114803 z"
       inkscape:export-xdpi="64.279999"
       inkscape:export-ydpi="64.279999" />
    <path
       inkscape:connector-curvature="0"
       id="path2237"
       style="font-style:normal;font-variant:normal;font-weight:300;font-stretch:normal;font-size:15.213027px;line-height:1.25;font-family:'MADE TOMMY';-inkscape-font-specification:'MADE TOMMY Light';letter-spacing:4.56010485px;word-spacing:0px;fill:none;fill-opacity:1;stroke:#4d4d4d;stroke-width:2.34070849;stroke-miterlimit:4;stroke-dasharray:none;stroke-opacity:1"
       d="m 44.910694,102.32262 v -4.844911 h 5.153071 v -0.907351 h -5.153071 v -4.399799 h 5.546828 V 91.246088 H 44.003343 V 103.22997 H 50.6116 v -0.90735 z"
       inkscape:export-xdpi="64.279999"
       inkscape:export-ydpi="64.279999" />
    <path
       inkscape:connector-curvature="0"
       id="path2239"
       style="font-style:normal;font-variant:normal;font-weight:300;font-stretch:normal;font-size:15.213027px;line-height:1.25;font-family:'MADE TOMMY';-inkscape-font-specification:'MADE TOMMY Light';letter-spacing:4.56010485px;word-spacing:0px;fill:none;fill-opacity:1;stroke:#4d4d4d;stroke-width:2.34070849;stroke-miterlimit:4;stroke-dasharray:none;stroke-opacity:1"
       d="m 64.913087,91.246088 h -7.464249 v 0.924471 h 3.269889 v 11.059411 h 0.907351 V 92.170559 h 3.287009 z"
       inkscape:export-xdpi="64.279999"
       inkscape:export-ydpi="64.279999" />
    <path
       inkscape:connector-curvature="0"
       id="path2241"
       style="font-style:normal;font-variant:normal;font-weight:300;font-stretch:normal;font-size:15.213027px;line-height:1.25;font-family:'MADE TOMMY';-inkscape-font-specification:'MADE TOMMY Light';letter-spacing:4.56010485px;word-spacing:0px;fill:none;fill-opacity:1;stroke:#4d4d4d;stroke-width:2.34070849;stroke-miterlimit:4;stroke-dasharray:none;stroke-opacity:1"
       d="m 77.116858,91.04065 c -3.423968,0 -6.043303,2.773413 -6.043303,6.197382 0,3.423968 2.619335,6.214498 6.043303,6.214498 3.423968,0 6.060423,-2.79053 6.060423,-6.214498 0,-3.423969 -2.636455,-6.197382 -6.060423,-6.197382 z m 0,11.48741 c -2.910373,0 -5.135952,-2.36254 -5.135952,-5.290028 0,-2.910373 2.225579,-5.290031 5.135952,-5.290031 2.927492,0 5.153071,2.379658 5.153071,5.290031 0,2.927488 -2.225579,5.290028 -5.153071,5.290028 z"
       inkscape:export-xdpi="64.279999"
       inkscape:export-ydpi="64.279999" />
    <path
       inkscape:connector-curvature="0"
       id="path2243"
       style="font-style:normal;font-variant:normal;font-weight:300;font-stretch:normal;font-size:15.213027px;line-height:1.25;font-family:'MADE TOMMY';-inkscape-font-specification:'MADE TOMMY Light';letter-spacing:4.56010485px;word-spacing:0px;fill:none;fill-opacity:1;stroke:#4d4d4d;stroke-width:2.34070849;stroke-miterlimit:4;stroke-dasharray:none;stroke-opacity:1"
       d="m 93.874775,96.792915 c -1.814703,-0.479355 -2.961732,-0.958711 -2.961732,-2.413897 0,-1.455186 1.164149,-2.431017 2.516616,-2.431017 1.283988,0 2.17422,0.599194 2.567976,1.814703 l 0.890232,-0.222558 c -0.513595,-1.609265 -1.780463,-2.499496 -3.458208,-2.499496 -1.848942,0 -3.441087,1.386707 -3.441087,3.338368 0,2.276939 2.05438,2.876133 3.646526,3.304129 1.729103,0.462236 2.859012,0.890232 2.859012,2.328303 0,1.54078 -1.181269,2.51661 -2.978852,2.51661 -1.797582,0 -2.859012,-1.11279 -3.13293,-2.08862 l -0.873111,0.27392 c 0.393756,1.36959 1.848942,2.73917 4.006041,2.73917 2.773415,0 3.903324,-1.84894 3.903324,-3.44108 0,-2.208464 -1.917422,-2.773418 -3.543807,-3.218535 z"
       inkscape:export-xdpi="64.279999"
       inkscape:export-ydpi="64.279999" />
    <path
       inkscape:connector-curvature="0"
       id="path2245"
       style="font-style:normal;font-variant:normal;font-weight:300;font-stretch:normal;font-size:15.213027px;line-height:1.25;font-family:'MADE TOMMY';-inkscape-font-specification:'MADE TOMMY Light';letter-spacing:4.56010485px;word-spacing:0px;fill:none;fill-opacity:1;stroke:#4d4d4d;stroke-width:2.34070849;stroke-miterlimit:4;stroke-dasharray:none;stroke-opacity:1"
       d="m 122.73481,91.246088 v 10.425982 l -7.29305,-10.425982 h -0.90735 v 11.983882 h 0.90735 V 92.803993 l 7.29305,10.425977 h 0.90735 V 91.246088 Z"
       inkscape:export-xdpi="64.279999"
       inkscape:export-ydpi="64.279999" />
    <path
       inkscape:connector-curvature="0"
       id="path2247"
       style="font-style:normal;font-variant:normal;font-weight:300;font-stretch:normal;font-size:15.213027px;line-height:1.25;font-family:'MADE TOMMY';-inkscape-font-specification:'MADE TOMMY Light';letter-spacing:4.56010485px;word-spacing:0px;fill:none;fill-opacity:1;stroke:#4d4d4d;stroke-width:2.34070849;stroke-miterlimit:4;stroke-dasharray:none;stroke-opacity:1"
       d="m 137.03254,91.04065 c -3.42396,0 -6.0433,2.773413 -6.0433,6.197382 0,3.423968 2.61934,6.214498 6.0433,6.214498 3.42397,0 6.06043,-2.79053 6.06043,-6.214498 0,-3.423969 -2.63646,-6.197382 -6.06043,-6.197382 z m 0,11.48741 c -2.91037,0 -5.13595,-2.36254 -5.13595,-5.290028 0,-2.910373 2.22558,-5.290031 5.13595,-5.290031 2.9275,0 5.15308,2.379658 5.15308,5.290031 0,2.927488 -2.22558,5.290028 -5.15308,5.290028 z"
       inkscape:export-xdpi="64.279999"
       inkscape:export-ydpi="64.279999" />
    <path
       d="m 3.5046242,112.80959 h -9.5655605 v 23.33064 h 6.89920233 v -6.63257 H 3.5046242 c 5.899318,0 9.5655608,-2.49971 9.5655608,-8.0324 0,-5.23273 -3.099641,-8.66567 -9.5655608,-8.66567 z m 0,11.03206 H 0.83826603 v -4.76612 H 3.5046242 c 1.7331334,0 2.5996996,0.99989 2.5996996,2.39973 0,1.49982 -0.9332258,2.36639 -2.5996996,2.36639 z"
       style="font-style:normal;font-variant:normal;font-weight:800;font-stretch:normal;font-size:29.4532032px;line-height:1.25;font-family:'MADE TOMMY';-inkscape-font-specification:'MADE TOMMY Ultra-Bold';letter-spacing:2.4066236px;word-spacing:0px;fill:url(#linearGradient3818);fill-opacity:1;stroke:none;stroke-width:0.83373249;stroke-miterlimit:4;stroke-dasharray:none;stroke-opacity:1"
       id="path2387"
       inkscape:connector-curvature="0"
       inkscape:export-xdpi="64.279999"
       inkscape:export-ydpi="64.279999" />
    <path
       d="m 39.524131,112.80959 h -7.599122 l -4.232843,9.06562 -4.266174,-9.06562 H 15.82687 l 8.399029,14.56498 v 8.76566 h 6.899202 v -8.76566 z"
       style="font-style:normal;font-variant:normal;font-weight:800;font-stretch:normal;font-size:29.4532032px;line-height:1.25;font-family:'MADE TOMMY';-inkscape-font-specification:'MADE TOMMY Ultra-Bold';letter-spacing:2.4066236px;word-spacing:0px;fill:url(#linearGradient3820);fill-opacity:1;stroke:none;stroke-width:0.83373249;stroke-miterlimit:4;stroke-dasharray:none;stroke-opacity:1"
       id="path2389"
       inkscape:connector-curvature="0"
       inkscape:export-xdpi="64.279999"
       inkscape:export-ydpi="64.279999" />
    <path
       d="M 61.068748,112.80959 H 43.237477 v 6.26594 h 5.466034 v 17.0647 h 6.899203 v -17.0647 h 5.466034 z"
       style="font-style:normal;font-variant:normal;font-weight:800;font-stretch:normal;font-size:29.4532032px;line-height:1.25;font-family:'MADE TOMMY';-inkscape-font-specification:'MADE TOMMY Ultra-Bold';letter-spacing:2.4066236px;word-spacing:0px;fill:url(#linearGradient3822);fill-opacity:1;stroke:none;stroke-width:0.83373249;stroke-miterlimit:4;stroke-dasharray:none;stroke-opacity:1"
       id="path2391"
       inkscape:connector-curvature="0"
       inkscape:export-xdpi="64.279999"
       inkscape:export-ydpi="64.279999" />
    <path
       d="m 80.654737,112.80959 v 8.49902 H 73.38891 v -8.49902 h -6.899202 v 23.33064 h 6.899202 v -8.66567 h 7.265827 v 8.66567 h 6.899202 v -23.33064 z"
       style="font-style:normal;font-variant:normal;font-weight:800;font-stretch:normal;font-size:29.4532032px;line-height:1.25;font-family:'MADE TOMMY';-inkscape-font-specification:'MADE TOMMY Ultra-Bold';letter-spacing:2.4066236px;word-spacing:0px;fill:url(#linearGradient3824);fill-opacity:1;stroke:none;stroke-width:0.83373249;stroke-miterlimit:4;stroke-dasharray:none;stroke-opacity:1"
       id="path2393"
       inkscape:connector-curvature="0"
       inkscape:export-xdpi="64.279999"
       inkscape:export-ydpi="64.279999" />
    <path
       d="m 105.11516,112.40964 c -6.999193,0 -11.998616,5.1994 -11.998616,12.06527 0,6.8992 4.999423,12.0986 11.998616,12.0986 6.99919,0 11.99861,-5.1994 11.99861,-12.0986 0,-6.86587 -4.99942,-12.06527 -11.99861,-12.06527 z m 0,17.46465 c -3.19963,0 -5.09941,-2.33307 -5.09941,-5.39938 0,-3.03298 1.89978,-5.39938 5.09941,-5.39938 3.19963,0 5.09941,2.3664 5.09941,5.39938 0,3.06631 -1.89978,5.39938 -5.09941,5.39938 z"
       style="font-style:normal;font-variant:normal;font-weight:800;font-stretch:normal;font-size:29.4532032px;line-height:1.25;font-family:'MADE TOMMY';-inkscape-font-specification:'MADE TOMMY Ultra-Bold';letter-spacing:2.4066236px;word-spacing:0px;fill:url(#linearGradient3826);fill-opacity:1;stroke:none;stroke-width:0.83373249;stroke-miterlimit:4;stroke-dasharray:none;stroke-opacity:1"
       id="path2395"
       inkscape:connector-curvature="0"
       inkscape:export-xdpi="64.279999"
       inkscape:export-ydpi="64.279999" />
    <path
       d="m 136.7784,112.80959 v 12.4319 l -7.96575,-12.4319 h -6.16595 v 23.33064 h 6.8992 v -12.4319 l 7.93241,12.4319 h 6.16596 v -23.33064 z"
       style="font-style:normal;font-variant:normal;font-weight:800;font-stretch:normal;font-size:29.4532032px;line-height:1.25;font-family:'MADE TOMMY';-inkscape-font-specification:'MADE TOMMY Ultra-Bold';letter-spacing:2.4066236px;word-spacing:0px;fill:url(#linearGradient3828);fill-opacity:1;stroke:none;stroke-width:0.83373249;stroke-miterlimit:4;stroke-dasharray:none;stroke-opacity:1"
       id="path2397"
       inkscape:connector-curvature="0"
       inkscape:export-xdpi="64.279999"
       inkscape:export-ydpi="64.279999" />
    <rect
       style="opacity:1;vector-effect:none;fill:#ffda4c;fill-opacity:1;stroke:none;stroke-width:1.82517445;stroke-linecap:butt;stroke-linejoin:miter;stroke-miterlimit:4;stroke-dasharray:none;stroke-dashoffset:0;stroke-opacity:1"
       id="rect2885"
       width="131.30786"
       height="11.9436"
       x="168.38571"
       y="221.08855"
       transform="matrix(1,0,-0.72777109,0.68582013,0,0)"
       inkscape:export-xdpi="64.279999"
       inkscape:export-ydpi="64.279999" />
    <text
       xml:space="preserve"
       style="font-style:normal;font-variant:normal;font-weight:500;font-stretch:normal;font-size:13.94240761px;line-height:1.25;font-family:'MADE TOMMY';-inkscape-font-specification:'MADE TOMMY Medium';letter-spacing:2.48308778px;word-spacing:0px;fill:#4d4d4d;fill-opacity:1;stroke:none;stroke-width:0.34856015"
       x="10.953767"
       y="154.93829"
       id="text2889"
       inkscape:export-xdpi="64.279999"
       inkscape:export-ydpi="64.279999"><tspan
         sodipodi:role="line"
         id="tspan2887"
         x="10.953767"
         y="154.93829"
         style="font-style:normal;font-variant:normal;font-weight:500;font-stretch:normal;font-family:'MADE TOMMY';-inkscape-font-specification:'MADE TOMMY Medium';letter-spacing:2.48308778px;fill:#4d4d4d;stroke-width:0.34856015">INTRODUÇÃO</tspan></text>
  </g>
</svg>
