<?xml version="1.0" encoding="UTF-8" standalone="no"?>
<svg
   xmlns:dc="http://purl.org/dc/elements/1.1/"
   xmlns:cc="http://creativecommons.org/ns#"
   xmlns:rdf="http://www.w3.org/1999/02/22-rdf-syntax-ns#"
   xmlns:svg="http://www.w3.org/2000/svg"
   xmlns="http://www.w3.org/2000/svg"
   xmlns:xlink="http://www.w3.org/1999/xlink"
   xmlns:sodipodi="http://sodipodi.sourceforge.net/DTD/sodipodi-0.dtd"
   xmlns:inkscape="http://www.inkscape.org/namespaces/inkscape"
   width="197.55556mm"
   height="141.11111mm"
   viewBox="0 0 197.55556 141.11111"
   version="1.1"
   id="svg9179"
   sodipodi:docname="featured_icon.svg"
   inkscape:version="1.0.1 (0767f8302a, 2020-10-17)">
  <defs
     id="defs9173">
    <linearGradient
       id="linearGradient4689">
      <stop
         style="stop-color:#5a9fd4;stop-opacity:1;"
         offset="0"
         id="stop4691" />
      <stop
         style="stop-color:#306998;stop-opacity:1;"
         offset="1"
         id="stop4693" />
    </linearGradient>
    <linearGradient
       id="linearGradient4671">
      <stop
         style="stop-color:#ffd43b;stop-opacity:1;"
         offset="0"
         id="stop4673" />
      <stop
         style="stop-color:#ffe873;stop-opacity:1"
         offset="1"
         id="stop4675" />
    </linearGradient>
    <linearGradient
       y2="114.39767"
       x2="135.66525"
       y1="20.603781"
       x1="26.648937"
       gradientTransform="matrix(0.562541,0,0,0.567972,-1354.4729,-21.873847)"
       gradientUnits="userSpaceOnUse"
       id="linearGradient1478"
       xlink:href="#linearGradient4689"
       inkscape:collect="always" />
    <linearGradient
       y2="137.27299"
       x2="112.03144"
       y1="192.35176"
       x1="150.96111"
       gradientTransform="matrix(0.562541,0,0,0.567972,-1354.4729,-21.873847)"
       gradientUnits="userSpaceOnUse"
       id="linearGradient1475"
       xlink:href="#linearGradient4671"
       inkscape:collect="always" />
  </defs>
  <sodipodi:namedview
     id="base"
     pagecolor="#ffffff"
     bordercolor="#666666"
     borderopacity="1.0"
     inkscape:pageopacity="0.0"
     inkscape:pageshadow="2"
     inkscape:zoom="0.49497475"
     inkscape:cx="-398.82928"
     inkscape:cy="206.50229"
     inkscape:document-units="mm"
     inkscape:current-layer="layer1"
     inkscape:document-rotation="0"
     showgrid="false"
     inkscape:snap-global="true"
     fit-margin-top="0"
     fit-margin-left="0"
     fit-margin-right="0"
     fit-margin-bottom="0"
     inkscape:window-width="2560"
     inkscape:window-height="993"
     inkscape:window-x="0"
     inkscape:window-y="0"
     inkscape:window-maximized="1"
     inkscape:snap-bbox="true"
     inkscape:snap-bbox-midpoints="true"
     inkscape:snap-bbox-edge-midpoints="false"
     inkscape:bbox-nodes="false"
     inkscape:bbox-paths="false"
     inkscape:snap-nodes="false" />
  <metadata
     id="metadata9176">
    <rdf:RDF>
      <cc:Work
         rdf:about="">
        <dc:format>image/svg+xml</dc:format>
        <dc:type
           rdf:resource="http://purl.org/dc/dcmitype/StillImage" />
        <dc:title />
      </cc:Work>
    </rdf:RDF>
  </metadata>
  <g
     inkscape:label="Layer 1"
     inkscape:groupmode="layer"
     id="layer1"
     transform="translate(23.006674,155.03922)">
    <path
       inkscape:export-ydpi="128.25133"
       inkscape:export-xdpi="128.25133"
       sodipodi:nodetypes="ccccc"
       inkscape:connector-curvature="0"
       id="path1968"
       d="M -6.7189616,-45.096087 H 158.26118 l -2.90385,1.676507 H -4.5170309 Z"
       style="fill:#ffffff;fill-opacity:1;stroke:none;stroke-width:1.18519;stroke-miterlimit:4;stroke-dasharray:none;stroke-opacity:1" />
    <path
       inkscape:export-ydpi="128.25133"
       inkscape:export-xdpi="128.25133"
       inkscape:connector-curvature="0"
       id="path1970"
       d="m 15.350136,-125.12692 c -2.362653,0 -4.264658,1.54231 -4.264658,3.45827 v 38.259884 h -4.75e-4 v 33.335859 H 140.45721 v -33.335859 0 -38.259884 c 0,-1.91596 -1.90203,-3.45827 -4.26467,-3.45827 H 15.352402 Z"
       style="fill:#ffffff;fill-opacity:1;stroke:#4d4d4d;stroke-width:1.14964;stroke-linecap:round;stroke-linejoin:round;stroke-miterlimit:4;stroke-dasharray:none;stroke-dashoffset:10.8;stroke-opacity:1" />
    <rect
       inkscape:export-ydpi="128.25133"
       inkscape:export-xdpi="128.25133"
       style="fill:#e6e6e6;fill-opacity:1;stroke:#4d4d4d;stroke-width:0.776014;stroke-miterlimit:4;stroke-dasharray:none;stroke-opacity:1"
       id="rect1972"
       width="121.26315"
       height="71.09314"
       x="15.139531"
       y="-121.26054" />
    <path
       sodipodi:nodetypes="cccc"
       inkscape:export-ydpi="128.25133"
       inkscape:export-xdpi="128.25133"
       style="fill:#cccccc;fill-rule:evenodd;stroke:#4d4d4d;stroke-width:0.668796;stroke-linecap:round;stroke-linejoin:round;stroke-miterlimit:4;stroke-dasharray:none;stroke-opacity:1"
       d="m 158.51955,-45.081511 -2.8072,1.48156 H -4.6896503 l -2.2878948,-1.476575"
       id="path1974"
       inkscape:connector-curvature="0" />
    <rect
       inkscape:export-ydpi="128.25133"
       inkscape:export-xdpi="128.25133"
       y="-50.350166"
       x="-6.7189555"
       height="4.6918273"
       width="164.98012"
       id="rect1976"
       style="fill:#ffffff;fill-opacity:1;stroke:#4d4d4d;stroke-width:1.18997;stroke-miterlimit:4;stroke-dasharray:none;stroke-opacity:1" />
    <rect
       rx="0"
       ry="0"
       y="-49.931484"
       x="65.272522"
       height="1.8090562"
       width="20.997181"
       id="rect1978"
       style="fill:#e6e6e6;fill-opacity:1;stroke:#4d4d4d;stroke-width:0.366758;stroke-linecap:round;stroke-linejoin:round;stroke-miterlimit:4;stroke-dasharray:none;stroke-dashoffset:10.8;stroke-opacity:1" />
    <rect
       ry="0"
       rx="0"
       y="-116.04888"
       x="19.058001"
       height="60.669838"
       width="113.42622"
       id="rect1980"
       style="fill:#ffffff;fill-opacity:1;stroke:#4d4d4d;stroke-width:1.18696;stroke-linecap:round;stroke-linejoin:round;stroke-miterlimit:4;stroke-dasharray:none;stroke-dashoffset:0;stroke-opacity:1" />
    <rect
       style="opacity:1;fill:#efefef;fill-opacity:0;stroke:none;stroke-width:3.38667;stroke-miterlimit:4;stroke-dasharray:none;stroke-opacity:0"
       id="rect4464"
       width="197.55556"
       height="141.11111"
       x="-23.006674"
       y="-155.03922"
       ry="0" />
    <g
       id="g10073"
       transform="matrix(0.02746171,0,0,0.02746171,69.093198,-92.167502)" />
    <g
       id="g10075"
       transform="matrix(0.02746171,0,0,0.02746171,69.093198,-92.167502)" />
    <g
       id="g10077"
       transform="matrix(0.02746171,0,0,0.02746171,69.093198,-92.167502)" />
    <g
       id="g10079"
       transform="matrix(0.02746171,0,0,0.02746171,69.093198,-92.167502)" />
    <g
       id="g10081"
       transform="matrix(0.02746171,0,0,0.02746171,69.093198,-92.167502)" />
    <g
       id="g10083"
       transform="matrix(0.02746171,0,0,0.02746171,69.093198,-92.167502)" />
    <g
       id="g10085"
       transform="matrix(0.02746171,0,0,0.02746171,69.093198,-92.167502)" />
    <g
       id="g10087"
       transform="matrix(0.02746171,0,0,0.02746171,69.093198,-92.167502)" />
    <g
       id="g10089"
       transform="matrix(0.02746171,0,0,0.02746171,69.093198,-92.167502)" />
    <g
       id="g10091"
       transform="matrix(0.02746171,0,0,0.02746171,69.093198,-92.167502)" />
    <g
       id="g10093"
       transform="matrix(0.02746171,0,0,0.02746171,69.093198,-92.167502)" />
    <g
       id="g10095"
       transform="matrix(0.02746171,0,0,0.02746171,69.093198,-92.167502)" />
    <g
       id="g10097"
       transform="matrix(0.02746171,0,0,0.02746171,69.093198,-92.167502)" />
    <g
       id="g10099"
       transform="matrix(0.02746171,0,0,0.02746171,69.093198,-92.167502)" />
    <g
       id="g10101"
       transform="matrix(0.02746171,0,0,0.02746171,69.093198,-92.167502)" />
    <g
       id="g1367"
       transform="translate(0.99222257)">
      <g
         transform="matrix(0.23541747,0,0,0.23541747,349.97028,-96.548586)"
         id="g4300">
        <path
           inkscape:connector-curvature="0"
           style="fill:url(#linearGradient1478);fill-opacity:1"
           d="m -1284.563,-10.170557 c -4.5837,0.0213 -8.961,0.4122176 -12.8125,1.0937499 -11.3463,2.0045038 -13.4063,6.2001021 -13.4063,13.9375001 v 10.21875 h 26.8125 v 3.40625 h -26.8125 -10.0625 c -7.7925,0 -14.6158,4.683717 -16.75,13.59375 -2.4618,10.212966 -2.571,16.586023 0,27.25 1.9059,7.937852 6.4575,13.593748 14.25,13.59375 h 9.2188 v -12.25 c 0,-8.849902 7.6571,-16.656248 16.75,-16.65625 h 26.7812 c 7.455,0 13.4063,-6.138164 13.4063,-13.625 V 4.860693 c 0,-7.266339 -6.13,-12.7247775 -13.4063,-13.9375001 -4.606,-0.7667253 -9.3851,-1.1150479 -13.9687,-1.0937499 z m -14.5,8.21875 c 2.7695,0 5.0312,2.298646 5.0312,5.125 0,2.816336 -2.2617,5.09375 -5.0312,5.09375 -2.7795,-10e-7 -5.0313,-2.277415 -5.0313,-5.09375 0,-2.826353 2.2518,-5.125 5.0313,-5.125 z"
           id="path1948" />
        <path
           inkscape:connector-curvature="0"
           style="fill:url(#linearGradient1475);fill-opacity:1"
           d="m -1253.8443,18.485693 v 11.90625 c 0,9.230755 -7.8259,16.999999 -16.75,17 h -26.7812 c -7.3359,0 -13.4063,6.278483 -13.4063,13.625 V 86.54819 c 0,7.26634 6.3186,11.54032 13.4063,13.625 8.4873,2.49561 16.6262,2.94663 26.7812,0 6.7502,-1.95439 13.4063,-5.88761 13.4063,-13.625 V 76.329443 h -26.7813 v -3.40625 h 26.7813 13.4062 c 7.7925,0 10.6963,-5.435408 13.4062,-13.59375 2.7994,-8.398886 2.6803,-16.475776 0,-27.25 -1.9257,-7.757441 -5.6038,-13.59375 -13.4062,-13.59375 z m -15.0625,64.65625 c 2.7795,3e-6 5.0313,2.277417 5.0313,5.093747 0,2.82635 -2.2518,5.125 -5.0313,5.125 -2.7695,0 -5.0312,-2.29865 -5.0312,-5.125 0,-2.81633 2.2617,-5.093747 5.0312,-5.093747 z"
           id="path1950" />
      </g>
      <g
         id="g10071"
         transform="matrix(0.02746171,0,0,0.02746171,68.596415,-92.695169)">
        <g
           id="g10069">
          <path
             d="M 355.148,234.386 H 275.83 v -79.318 c 0,-10.946 -8.864,-19.83 -19.83,-19.83 -10.966,0 -19.83,8.884 -19.83,19.83 v 79.318 h -79.318 c -10.966,0 -19.83,8.884 -19.83,19.83 0,10.946 8.864,19.83 19.83,19.83 h 79.318 v 79.318 c 0,10.946 8.864,19.83 19.83,19.83 10.966,0 19.83,-8.884 19.83,-19.83 v -79.318 h 79.318 c 10.966,0 19.83,-8.884 19.83,-19.83 0,-10.946 -8.864,-19.83 -19.83,-19.83 z"
             id="path10067" />
        </g>
      </g>
      <g
         id="g1313"
         transform="matrix(0.33117552,0,0,0.33117552,21.688607,-55.167457)">
        <path
           style="fill:#e69629;fill-opacity:1;stroke:none;stroke-width:0.264583px;stroke-linecap:butt;stroke-linejoin:miter;stroke-opacity:1"
           d="m 262.06318,-75.829345 -1.52884,-0.442833 -1.48907,1.166122 -0.33671,7.716575 -0.98991,10.541715 0.0334,1.230704 1.08976,1.395272 2.36204,1.205251 2.1661,0.374203 2.91171,-0.806408 8.33681,-6.761916 4.3416,-2.017175 1.59496,-1.141979 0.32806,-2.91532 -2.7309,-1.488302 -2.06161,-1.474094 -0.55255,-0.976858 -1.19822,-4.559749 -0.66456,-0.50726 -1.38744,0.44627 z"
           id="path1307" />
        <path
           style="fill:#e69629;fill-opacity:1;stroke:none;stroke-width:0.264583px;stroke-linecap:butt;stroke-linejoin:miter;stroke-opacity:1"
           d="m 237.9881,-110.60183 2.22552,-1.89229 3.07079,-1.81411 2.74143,-0.60294 2.01871,1.21106 5.75832,2.19478 1.34112,1.01409 -0.31295,1.00518 -1.24,1.7368 -5.79419,3.62491 -3.53192,0.85982 -1.74043,-0.28314 -2.21148,-1.5968 -2.51503,-2.96641 z"
           id="path1305" />
        <path
           style="fill:#e69629;fill-opacity:1;stroke:none;stroke-width:0.264583px;stroke-linecap:butt;stroke-linejoin:miter;stroke-opacity:1"
           d="m 222.33683,-74.223356 0.85754,-2.397829 2.56489,-1.005982 2.65836,0.941863 7.94542,11.574886 3.55255,6.311961 -1.1142,3.780568 -2.8127,1.94279 -2.26941,-0.0065 -5.15618,-1.434441 -6.59683,-2.243331 -6.52568,-1.166857 -1.42422,-1.553819 0.29709,-1.418354 1.5972,-3.364669 0.0202,-2.08774 -0.40157,-2.995581 0.1993,-2.36193 0.98459,-1.247497 1.43413,-0.378074 2.16953,-0.144354 1.36697,-0.161771 z"
           id="path1303" />
        <path
           d="m 246.36834,-112.66641 c 0,0.26458 -0.26458,0.26458 -0.26458,0.26458 h -0.26459 c -0.26458,0 -0.26458,-0.26458 -0.52916,-0.52916 0,0 -0.26459,-0.26459 -0.26459,-0.52917 0,-0.26458 0,-0.26458 0.26459,-0.26458 l 0.52916,0.26458 c 0.26459,0.26458 0.52917,0.52917 0.52917,0.79375 m -4.7625,-2.64583 c 0,-1.32292 -0.52917,-2.11667 -1.32292,-2.11667 0,0 0,0.26458 -0.26458,0.26458 v 0.52917 h 0.79375 c 0,0.52917 0.26458,0.79375 0.26458,1.32292 h 0.52917 m 9.26042,-1.32292 c 0.52916,0 0.79375,0.52917 1.05833,1.32292 h 0.52917 c -0.26459,-0.26459 -0.26459,-0.52917 -0.26459,-0.79375 0,-0.26459 0,-0.52917 -0.26458,-0.79375 -0.26458,-0.26459 -0.52917,-0.52917 -0.79375,-0.52917 0,0 -0.26458,0.26458 -0.52917,0.26458 0,0.26459 0.26459,0.26459 0.26459,0.52917 m -7.9375,4.23333 c -0.26459,0 -0.26459,0 -0.26459,-0.26458 0,-0.26458 0,-0.52917 0.26459,-0.79375 0.52916,0 0.79375,-0.26458 0.79375,-0.26458 0.26458,0 0.26458,0.26458 0.26458,0.26458 0,0.26458 -0.26458,0.52917 -0.79375,1.05833 h -0.26458 m -2.91042,-0.26458 c -1.05833,-0.52917 -1.32291,-1.32292 -1.32291,-2.64583 0,-0.79375 0,-1.32292 0.52916,-1.85209 0.26458,-0.52916 0.79375,-0.79375 1.32292,-0.79375 0.52916,0 0.79375,0.26459 1.32291,0.79375 0.26459,0.79375 0.52917,1.5875 0.52917,2.38125 v 0.26459 0.26458 h 0.26458 v -0.26458 c 0.26459,0 0.26459,-0.52917 0.26459,-1.5875 0,-0.79375 0,-1.5875 -0.52917,-2.38125 -0.52917,-0.79375 -1.05833,-1.32292 -2.11667,-1.32292 -0.79375,0 -1.58749,0.52917 -1.85208,1.32292 -0.52916,1.05833 -0.635,1.85208 -0.635,3.175 0,1.05833 0.37042,2.11666 1.42875,3.175 0.26458,-0.26459 0.52917,-0.26459 0.79375,-0.52917 m 33.07292,37.306257 c 0.26458,0 0.26458,-0.105833 0.26458,-0.343958 0,-0.582083 -0.26458,-1.27 -1.05833,-2.037292 -0.79375,-0.79375 -2.11667,-1.296461 -3.70417,-1.508121 -0.26458,-0.0265 -0.52917,-0.0265 -0.52917,-0.0265 -0.26458,-0.0529 -0.26458,-0.0529 -0.52916,-0.0529 -0.26459,-0.0265 -0.79375,-0.0794 -1.05834,-0.13229 0.79375,-2.46063 1.05834,-4.63021 1.05834,-6.53521 0,-2.64583 -0.52917,-4.49792 -1.5875,-6.08542 -1.05834,-1.5875 -2.11667,-2.38125 -3.43959,-2.64583 -0.26458,0.26458 -0.26458,0.26458 -0.26458,0.52917 1.32292,0.52916 2.64583,1.5875 3.43958,3.175 0.79375,1.85208 1.05834,3.43958 1.05834,5.29166 0,1.48167 -0.26459,3.67771 -1.32292,6.4823 -1.05833,0.42333 -2.11667,1.402288 -2.91042,2.936871 0,0.238125 0,0.370417 0.26459,0.370417 0,0 0.26458,-0.238125 0.52916,-0.687917 0.52917,-0.449791 0.79375,-0.899583 1.32292,-1.349375 0.79375,-0.449791 1.32292,-0.687916 2.11667,-0.687916 1.32291,0 2.64583,0.185208 3.43958,0.555625 1.05833,0.343958 1.5875,0.714375 1.85209,1.137708 0.26458,0.396875 0.52916,0.767292 0.79375,1.11125 0,0.343958 0.26458,0.502708 0.26458,0.502708 m -24.34167,-38.364567 c -0.26458,-0.26459 -0.26458,-0.79375 -0.26458,-1.32292 0,-1.05833 0,-1.5875 0.52916,-2.38125 0.52917,-0.52917 1.05834,-0.79375 1.5875,-0.79375 0.79375,0 1.32292,0.52917 1.85209,1.05833 0.26458,0.79375 0.52916,1.32292 0.52916,2.11667 0,1.32292 -0.52916,2.11667 -1.5875,2.38125 0,0 0.26459,0.26458 0.52917,0.26458 0.52917,0 0.79375,0.26459 1.32292,0.52917 0.26458,-1.5875 0.52916,-2.64583 0.52916,-3.96875 0,-1.5875 -0.26458,-2.64583 -0.79375,-3.43958 -0.79375,-0.79375 -1.5875,-1.05834 -2.64583,-1.05834 -0.79375,0 -1.5875,0.26459 -2.38125,0.79375 -0.52917,0.79375 -0.79375,1.32292 -0.79375,2.11667 0,1.32292 0.26458,2.38125 0.79375,3.43958 0.26458,0 0.52917,0.26459 0.79375,0.26459 m 3.175,4.23333 c -3.43958,2.38125 -6.08542,3.43958 -8.20208,3.43958 -1.85209,0 -3.70417,-0.79375 -5.29167,-2.11666 0.26459,0.52916 0.52917,1.05833 0.79375,1.32291 l 1.5875,1.5875 c 1.05833,1.05834 2.38125,1.5875 3.70417,1.5875 1.85208,0 3.96875,-1.05833 6.61458,-2.91041 l 2.38125,-1.5875 c 0.52917,-0.52917 1.05833,-1.05834 1.05833,-1.85209 0,-0.26458 0,-0.52916 -0.26458,-0.52916 -0.26458,-0.52917 -1.5875,-1.32292 -4.23333,-2.11667 -2.38125,-1.05833 -4.23334,-1.5875 -5.29167,-1.5875 -0.79375,0 -2.11667,0.52917 -3.96875,1.5875 -1.5875,1.05833 -2.64583,2.11667 -2.64583,3.175 0,0 0.26458,0.26458 0.52917,0.79375 1.58749,1.32292 3.17499,2.11667 4.76249,2.11667 2.11667,0 4.7625,-1.05834 8.20209,-3.70417 v 0.52917 c 0.26458,0 0.26458,0.26458 0.26458,0.26458 m 6.08542,53.445841 c 1.05833,1.989666 2.91041,2.989791 5.02708,2.989791 0.52917,0 1.05833,-0.07937 1.5875,-0.238125 0.52917,-0.105833 1.05833,-0.291041 1.32292,-0.502708 0.26458,-0.185208 0.52916,-0.370417 0.79375,-0.582083 0.52916,-0.185209 0.52916,-0.3175 0.79375,-0.449792 l 4.49792,-3.889375 c 1.05833,-0.844021 2.11666,-1.582208 3.43958,-2.2225 1.05833,-0.635 2.11667,-1.058333 2.64583,-1.296458 0.79375,-0.211667 1.32292,-0.529167 1.85209,-0.9525 0.26458,-0.396875 0.52916,-0.899584 0.52916,-1.534584 0,-0.767291 -0.52916,-1.349375 -1.05833,-1.772708 -0.52917,-0.423333 -1.05833,-0.714375 -1.5875,-0.899583 -0.52917,-0.185209 -1.05833,-0.608542 -1.85208,-1.322917 -0.52917,-0.687917 -1.05834,-1.640417 -1.32292,-2.883958 l -0.26458,-1.534584 c -0.26459,-0.714375 -0.26459,-1.243541 -0.52917,-1.534583 0,-0.07937 0,-0.105833 -0.26458,-0.105833 -0.26459,0 -0.79375,0.238125 -1.05834,0.687916 -0.52916,0.449792 -1.05833,0.9525 -1.5875,1.481667 -0.26458,0.529167 -1.05833,1.005417 -1.5875,1.455208 -0.79375,0.449792 -1.5875,0.687917 -2.11667,0.687917 -2.11666,0 -3.175,-0.582083 -3.96875,-1.719792 -0.52916,-0.846666 -0.79375,-1.825625 -1.05833,-2.936875 -0.52917,-0.449791 -0.79375,-0.687916 -1.32292,-0.687916 -1.32291,0 -1.85208,1.375833 -1.85208,4.153958 v 0.873125 3.069167 2.354791 1.137709 0.79375 c 0,0.238125 -0.26458,0.767291 -0.26458,1.5875 -0.26459,0.820208 -0.26459,1.751541 -0.26459,2.804583 l -0.52916,2.936875 v 0.04498 m -38.36458,-1.399646 c 2.46062,0.359834 5.29166,1.129771 8.49312,2.304521 3.20146,1.164167 5.15938,1.772709 5.87375,1.772709 1.85208,0 3.38667,-0.820209 4.65667,-2.405063 0.26458,-0.513292 0.26458,-1.116542 0.26458,-1.80975 0,-2.500312 -1.50812,-5.662083 -4.52437,-9.498542 l -1.79917,-2.407708 c -0.37042,-0.502708 -0.82021,-1.27 -1.40229,-2.301875 -0.55563,-1.031875 -1.05834,-1.825625 -1.45521,-2.38125 -0.34396,-0.608542 -0.89958,-1.217083 -1.61396,-1.825625 -0.68792,-0.608542 -1.48167,-1.005417 -2.35479,-1.217083 -1.11125,0.211666 -1.87854,0.582083 -2.24896,1.084791 -0.37042,0.502709 -0.58208,1.058334 -0.635,1.640417 -0.0794,0.555625 -0.23812,0.926042 -0.50271,1.11125 -0.26458,0.15875 -0.71437,0.291042 -1.32291,0.423333 -0.1323,0 -0.37042,0 -0.71438,0.02646 h -0.71437 c -1.4023,0 -2.3548,0.15875 -2.8575,0.423333 -0.66146,0.767292 -1.00542,1.640417 -1.00542,2.566458 0,0.423334 0.10583,1.137709 0.3175,2.143125 0.21167,0.978959 0.3175,1.772709 0.3175,2.328334 0,1.084791 -0.3175,2.169583 -0.97896,3.254375 -0.66146,1.137708 -1.00542,1.984375 -1.00542,2.587625 0.26459,1.026583 2.01084,1.748896 5.2123,2.172229 m 8.81062,-24.050626 c 0,-1.82563 0.47625,-3.83646 1.45521,-6.21771 0.9525,-2.38125 1.905,-3.96875 2.83104,-5.02708 -0.0529,-0.26459 -0.18521,-0.26459 -0.39687,-0.26459 l -0.26459,-0.26458 c -0.76729,0.79375 -1.69333,2.64583 -2.80458,5.29167 -1.11125,2.38125 -1.69333,4.57729 -1.69333,6.19125 0,1.19062 0.29104,2.2225 0.8202,3.12208 0.58209,0.873128 1.98438,2.143128 4.20688,3.757086 l 2.80458,1.825625 c 2.98979,2.592917 4.57729,4.392083 4.57729,5.450417 0,0.555625 -0.26458,1.11125 -1.05833,1.719791 -0.52917,0.635 -1.24354,0.9525 -1.85208,0.9525 -0.0529,0 -0.0794,0.05292 -0.0794,0.185209 0,0.02646 0.26458,0.555625 0.82021,1.5875 1.11124,1.508125 3.49249,2.248958 6.66749,2.248958 5.82084,0 10.31875,-2.38125 13.75834,-7.14375 0,-1.322917 0,-2.143125 -0.26459,-2.487083 v -0.978959 c 0,-1.719791 0.26459,-3.01625 0.79375,-3.862916 0.52917,-0.846667 1.05834,-1.243542 1.85209,-1.243542 0.52916,0 1.05833,0.185208 1.5875,0.582083 0.26458,-2.037291 0.26458,-3.809999 0.26458,-5.397499 0,-2.40771 0,-4.39209 -0.52917,-6.24417 -0.26458,-1.5875 -0.79375,-2.91042 -1.32291,-3.96875 -0.52917,-0.79375 -1.05834,-1.5875 -1.5875,-2.38125 -0.52917,-0.79375 -0.79375,-1.5875 -1.32292,-2.381252 -0.26458,-1.05833 -0.52917,-1.85208 -0.52917,-3.175 -0.79375,-1.322924 -1.32291,-2.645834 -2.11666,-3.968754 -0.52917,-1.32292 -1.05834,-2.64583 -1.5875,-3.70417 l -2.38125,1.85209 c -2.64584,1.85208 -4.7625,2.64583 -6.61459,2.64583 -1.5875,0 -2.91041,-0.26458 -3.70416,-1.32292 l -1.5875,-1.32291 c 0,0.79375 -0.26459,1.85208 -0.79375,2.91041 l -1.66688,3.175004 c -0.74083,1.85209 -1.1377,2.91042 -1.21708,3.704172 -0.10583,0.52917 -0.18521,1.05833 -0.23812,1.05833 l -1.98438,3.96875 c -2.14312,3.96875 -3.22792,7.64646 -3.22792,10.68917 0,0.60854 0.0529,1.24354 0.15875,1.878544 -1.19062,-0.820214 -1.7727,-1.957914 -1.7727,-3.439584 m 18.94416,25.029584 c -3.43958,0 -6.08542,0.465667 -7.9375,1.389063 v -0.07938 c -1.32291,1.5875 -2.80458,2.407708 -4.86833,2.407708 -1.29646,0 -3.33375,-0.502708 -6.08542,-1.508125 -2.77812,-0.9525 -5.23875,-1.68275 -7.38187,-2.164292 -0.21167,-0.06085 -0.68792,-0.150812 -1.45521,-0.27252 -0.74083,-0.119063 -1.42875,-0.240771 -2.03729,-0.36248 -0.55563,-0.119062 -1.19063,-0.298979 -1.87854,-0.542395 -0.66146,-0.209021 -1.19063,-0.481542 -1.5875,-0.812271 -0.36513,-0.333375 -0.54505,-0.709084 -0.54505,-1.129771 0,-0.423333 0.09,-0.875771 0.26988,-1.357313 0.16933,-0.291041 0.35454,-0.582083 0.53975,-0.846666 0.18521,-0.291042 0.34396,-0.555625 0.44979,-0.820209 0.15875,-0.238125 0.26458,-0.47625 0.37042,-0.740833 0.10583,-0.238125 0.21166,-0.47625 0.26458,-0.767292 0.0529,-0.264583 0.10583,-0.529166 0.10583,-0.79375 0,-0.264583 -0.10583,-1.058333 -0.3175,-2.460625 -0.21166,-1.375833 -0.3175,-2.248958 -0.3175,-2.619375 0,-1.164166 0.26459,-2.090208 0.84667,-2.751666 0.58208,-0.661459 1.13771,-1.005417 1.71979,-1.005417 h 3.04271 c 0.23813,0 0.60854,-0.132292 1.16417,-0.449792 0.18521,-0.423333 0.34396,-0.767291 0.44979,-1.084791 0.13229,-0.3175 0.18521,-0.555625 0.23812,-0.661459 0.0529,-0.15875 0.10584,-0.3175 0.15875,-0.449791 0.10584,-0.185209 0.23813,-0.396875 0.42334,-0.608542 -0.21167,-0.264583 -0.3175,-0.608542 -0.3175,-1.031875 0,-0.291042 0,-0.555625 0.0529,-0.714375 0,-0.9525 0.44979,-2.30187 1.40229,-4.07458 l 0.92604,-1.66688 c 0.76729,-1.42875 1.34938,-2.48708 1.77271,-3.54541 0.44979,-1.05834 0.92604,-2.64584 1.45521,-4.7625 0.42333,-1.85209 1.42875,-3.704172 3.01625,-5.556252 l 1.98437,-2.381254 c 1.37584,-1.5875 2.27542,-2.91042 2.77813,-3.96875 0.50271,-1.05834 0.76729,-2.38125 0.76729,-3.43959 0,-0.52916 -0.13229,-2.11666 -0.42333,-4.7625 -0.26459,-2.64583 -0.39688,-5.29166 -0.39688,-7.67291 0,-1.85209 0.15875,-3.175 0.50271,-4.49792 0.34396,-1.32292 0.9525,-2.64583 1.85208,-3.70417 0.79375,-1.05833 1.85209,-2.11666 3.43959,-2.64583 1.5875,-0.52917 3.43958,-0.79375 5.55625,-0.79375 0.79375,0 1.5875,0 2.38125,0.26458 0.79375,0 1.85208,0.26459 3.175,0.79375 1.05833,0.52917 2.11666,1.05834 2.91041,1.85209 1.05834,0.79375 1.85209,2.11666 2.64584,3.43958 0.52916,1.5875 1.05833,3.175 1.32291,5.29167 0.26459,1.32291 0.26459,2.64583 0.52917,4.49791 0,1.5875 0.26458,2.64584 0.26458,3.43959 0.26459,0.79375 0.26459,1.85208 0.52917,3.175 0.26458,1.05833 0.52917,2.11666 1.05833,2.91041 0.52917,1.05834 1.05834,2.11667 1.85209,3.175 0.79375,1.32292 1.85208,2.64584 2.91041,4.233344 2.38125,2.64583 4.23334,5.556252 5.29167,8.466662 1.32291,2.64584 2.11666,6.08542 2.11666,9.76313 0,1.82562 -0.26458,3.59833 -0.79375,5.318122 0.52917,0 0.79375,0.211666 1.05834,0.582083 0.26458,0.370417 0.52916,1.164167 0.79375,2.407708 l 0.26458,1.957917 c 0.26458,0.582083 0.52917,1.137708 1.32292,1.613958 0.52916,0.47625 1.05833,0.873125 1.85208,1.190625 0.52917,0.264584 1.32292,0.635 1.85208,1.11125 0.52917,0.529167 0.79375,1.084792 0.79375,1.666875 0,0.899584 -0.26458,1.561042 -0.79375,2.037292 -0.52916,0.529167 -1.05833,0.899583 -1.85208,1.137708 -0.52917,0.264584 -1.5875,0.79375 -3.175,1.539875 -1.32292,0.783167 -2.64583,1.733021 -3.96875,2.8575 l -2.64583,2.251605 c -1.05833,1.031875 -2.11667,1.772708 -2.91042,2.2225 -0.79375,0.47625 -1.85208,0.714375 -2.91041,0.714375 l -1.85209,-0.211667 c -2.11666,-0.555625 -3.43958,-1.613958 -4.23333,-3.227917 -4.23333,-0.513291 -7.67292,-0.767291 -9.78958,-0.767291"
           id="path1281"
           style="stroke-width:0.264583" />
      </g>
    </g>
  </g>
</svg>
