<?xml version="1.0" encoding="UTF-8" standalone="no"?>
<!-- Created with Inkscape (http://www.inkscape.org/) -->

<svg
   xmlns:dc="http://purl.org/dc/elements/1.1/"
   xmlns:cc="http://creativecommons.org/ns#"
   xmlns:rdf="http://www.w3.org/1999/02/22-rdf-syntax-ns#"
   xmlns:svg="http://www.w3.org/2000/svg"
   xmlns="http://www.w3.org/2000/svg"
   xmlns:xlink="http://www.w3.org/1999/xlink"
   xmlns:sodipodi="http://sodipodi.sourceforge.net/DTD/sodipodi-0.dtd"
   xmlns:inkscape="http://www.inkscape.org/namespaces/inkscape"
   width="197.55556mm"
   height="141.11111mm"
   viewBox="0 0 197.55556 141.11111"
   version="1.1"
   id="svg900"
   inkscape:version="0.92.5 (0.92.5+69)"
   sodipodi:docname="featured_icon.svg">
  <defs
     id="defs894">
    <linearGradient
       y2="114.39767"
       x2="135.66525"
       y1="20.603781"
       x1="26.648937"
       gradientTransform="matrix(0.13243198,0,0,0.13371053,54.598627,-12.012028)"
       gradientUnits="userSpaceOnUse"
       id="linearGradient1478"
       xlink:href="#linearGradient4689"
       inkscape:collect="always" />
    <linearGradient
       id="linearGradient4689">
      <stop
         style="stop-color:#5a9fd4;stop-opacity:1;"
         offset="0"
         id="stop4691" />
      <stop
         style="stop-color:#306998;stop-opacity:1;"
         offset="1"
         id="stop4693" />
    </linearGradient>
    <linearGradient
       y2="137.27299"
       x2="112.03144"
       y1="192.35176"
       x1="150.96111"
       gradientTransform="matrix(0.13243198,0,0,0.13371053,54.598627,-12.012028)"
       gradientUnits="userSpaceOnUse"
       id="linearGradient1475"
       xlink:href="#linearGradient4671"
       inkscape:collect="always" />
    <linearGradient
       id="linearGradient4671">
      <stop
         style="stop-color:#ffd43b;stop-opacity:1;"
         offset="0"
         id="stop4673" />
      <stop
         style="stop-color:#ffe873;stop-opacity:1"
         offset="1"
         id="stop4675" />
    </linearGradient>
  </defs>
  <sodipodi:namedview
     id="base"
     pagecolor="#ffffff"
     bordercolor="#666666"
     borderopacity="1.0"
     inkscape:pageopacity="0.0"
     inkscape:pageshadow="2"
     inkscape:zoom="0.35"
     inkscape:cx="-126.66666"
     inkscape:cy="-276.19048"
     inkscape:document-units="mm"
     inkscape:current-layer="layer1"
     showgrid="false"
     fit-margin-top="0"
     fit-margin-left="0"
     fit-margin-right="0"
     fit-margin-bottom="0"
     inkscape:window-width="2560"
     inkscape:window-height="993"
     inkscape:window-x="0"
     inkscape:window-y="384"
     inkscape:window-maximized="1" />
  <metadata
     id="metadata897">
    <rdf:RDF>
      <cc:Work
         rdf:about="">
        <dc:format>image/svg+xml</dc:format>
        <dc:type
           rdf:resource="http://purl.org/dc/dcmitype/StillImage" />
        <dc:title></dc:title>
      </cc:Work>
    </rdf:RDF>
  </metadata>
  <g
     inkscape:label="Layer 1"
     inkscape:groupmode="layer"
     id="layer1"
     transform="translate(0.50396907,65.35318)">
    <path
       inkscape:export-ydpi="64.285713"
       inkscape:export-xdpi="64.285713"
       sodipodi:nodetypes="ccccc"
       inkscape:connector-curvature="0"
       id="path1968"
       d="M 15.783743,44.589954 H 180.76389 l -2.90385,1.67651 H 17.985674 Z"
       style="fill:#ffffff;fill-opacity:1;stroke:none;stroke-width:1.18518996;stroke-miterlimit:4;stroke-dasharray:none;stroke-opacity:1" />
    <path
       inkscape:export-ydpi="64.285713"
       inkscape:export-xdpi="64.285713"
       inkscape:connector-curvature="0"
       id="path1970"
       d="m 37.852841,-35.440882 c -2.362653,0 -4.264657,1.542312 -4.264657,3.458271 V 6.2772737 h -5.3e-4 V 39.613134 H 162.95986 v -33.3358603 0 -38.2598847 c 0,-1.915959 -1.90203,-3.458271 -4.26467,-3.458271 H 37.855108 Z"
       style="fill:#ffffff;fill-opacity:1;stroke:#4d4d4d;stroke-width:1.14963996;stroke-linecap:round;stroke-linejoin:round;stroke-miterlimit:4;stroke-dasharray:none;stroke-dashoffset:10.80000019;stroke-opacity:1" />
    <rect
       inkscape:export-ydpi="64.285713"
       inkscape:export-xdpi="64.285713"
       style="fill:#e6e6e6;fill-opacity:1;stroke:#4d4d4d;stroke-width:0.77601397;stroke-miterlimit:4;stroke-dasharray:none;stroke-opacity:1"
       id="rect1972"
       width="121.26316"
       height="71.09314"
       x="37.642239"
       y="-31.574497" />
    <path
       sodipodi:nodetypes="cccc"
       inkscape:export-ydpi="64.285713"
       inkscape:export-xdpi="64.285713"
       style="fill:#cccccc;fill-rule:evenodd;stroke:#4d4d4d;stroke-width:0.668796;stroke-linecap:round;stroke-linejoin:round;stroke-miterlimit:4;stroke-dasharray:none;stroke-opacity:1"
       d="m 181.02225,44.604534 -2.8072,1.48155 H 17.813055 l -2.287895,-1.47657"
       id="path1974"
       inkscape:connector-curvature="0" />
    <rect
       inkscape:export-ydpi="64.285713"
       inkscape:export-xdpi="64.285713"
       y="39.335873"
       x="15.783749"
       height="4.6918273"
       width="164.98013"
       id="rect1976"
       style="fill:#ffffff;fill-opacity:1;stroke:#4d4d4d;stroke-width:1.18997014;stroke-miterlimit:4;stroke-dasharray:none;stroke-opacity:1" />
    <rect
       rx="0"
       ry="0"
       y="39.754551"
       x="87.77523"
       height="1.8090562"
       width="20.997183"
       id="rect1978"
       style="fill:#e6e6e6;fill-opacity:1;stroke:#4d4d4d;stroke-width:0.36675799;stroke-linecap:round;stroke-linejoin:round;stroke-miterlimit:4;stroke-dasharray:none;stroke-dashoffset:10.80000019;stroke-opacity:1"
       inkscape:export-xdpi="64.285713"
       inkscape:export-ydpi="64.285713" />
    <rect
       ry="0"
       rx="0"
       y="-26.362843"
       x="41.560711"
       height="60.669838"
       width="113.42622"
       id="rect1980"
       style="fill:#ffffff;fill-opacity:1;stroke:#4d4d4d;stroke-width:1.18695998;stroke-linecap:round;stroke-linejoin:round;stroke-miterlimit:4;stroke-dasharray:none;stroke-dashoffset:0;stroke-opacity:1"
       inkscape:export-xdpi="64.285713"
       inkscape:export-ydpi="64.285713" />
    <rect
       style="opacity:1;fill:#efefef;fill-opacity:0;stroke:none;stroke-width:3.38667035;stroke-miterlimit:4;stroke-dasharray:none;stroke-opacity:0"
       id="rect4464"
       width="197.55556"
       height="141.11111"
       x="-0.50396907"
       y="-65.35318"
       ry="0"
       inkscape:export-xdpi="64.285713"
       inkscape:export-ydpi="64.285713" />
    <path
       inkscape:connector-curvature="0"
       style="fill:url(#linearGradient1478);fill-opacity:1;stroke-width:0.23541747"
       d="m 71.056638,-9.2568688 c -1.079083,0.00501 -2.109575,0.097043 -3.016286,0.2574878 -2.671117,0.4718953 -3.156077,1.4596124 -3.156077,3.281131 v 2.4056723 h 6.312131 v 0.8018908 h -6.312131 -2.368888 c -1.834491,0 -3.440815,1.1026288 -3.943243,3.20020621 -0.579551,2.40431059 -0.605258,3.90463959 0,6.41512609 0.448682,1.868709 1.520208,3.2002056 3.354699,3.2002066 H 64.09711 V 7.4209876 c 0,-2.0834215 1.802615,-3.9211718 3.943242,-3.9211722 h 6.304762 c 1.755038,0 3.156078,-1.4450311 3.156078,-3.20756307 V -5.71825 c 0,-1.7106231 -1.443109,-2.9956349 -3.156078,-3.281131 -1.084332,-0.1805005 -2.209416,-0.2625017 -3.288476,-0.2574878 z m -3.413553,1.9348373 c 0.651989,0 1.184433,0.5411415 1.184433,1.2065146 0,0.6630147 -0.532444,1.1991577 -1.184433,1.1991577 -0.654343,-2e-7 -1.184456,-0.5361433 -1.184456,-1.1991577 0,-0.6653729 0.530113,-1.2065146 1.184456,-1.2065146 z"
       id="path1948" />
    <path
       inkscape:connector-curvature="0"
       style="fill:url(#linearGradient1475);fill-opacity:1;stroke-width:0.23541747"
       d="m 78.288357,-2.5106869 v 2.80293923 c 0,2.17308097 -1.842353,4.00209677 -3.943243,4.00209697 h -6.304762 c -1.726999,0 -3.156077,1.4780646 -3.156077,3.207563 v 6.0105017 c 0,1.710623 1.487509,2.716793 3.156077,3.207563 1.998059,0.58751 3.914098,0.693688 6.304762,0 1.589116,-0.460098 3.156078,-1.386046 3.156078,-3.207563 v -2.405672 h -6.304786 v -0.80189 h 6.304786 3.156053 c 1.834491,0 2.518096,-1.2795904 3.156054,-3.2002066 0.659028,-1.9772445 0.63099,-3.8786855 0,-6.41512609 C 83.359956,-1.1367178 82.494067,-2.5106869 80.657245,-2.5106869 Z M 74.742381,12.710524 c 0.654343,1e-6 1.184456,0.536144 1.184456,1.199157 0,0.665372 -0.530113,1.206514 -1.184456,1.206514 -0.651988,0 -1.184432,-0.541142 -1.184432,-1.206514 0,-0.663013 0.532444,-1.199157 1.184432,-1.199157 z"
       id="path1950" />
    <path
       id="path10067"
       d="m 101.84431,3.4275154 h -2.178204 v -2.178208 c 0,-0.30059583 -0.24342,-0.54456566 -0.544565,-0.54456566 -0.301145,0 -0.544566,0.24396983 -0.544566,0.54456566 v 2.178208 h -2.178208 c -0.301145,0 -0.544566,0.2439698 -0.544566,0.5445657 0,0.3005958 0.243421,0.5445657 0.544566,0.5445657 h 2.178208 v 2.1782079 c 0,0.3005959 0.243421,0.5445657 0.544566,0.5445657 0.301145,0 0.544565,-0.2439698 0.544565,-0.5445657 V 4.5166468 h 2.178204 c 0.30115,0 0.54457,-0.2439699 0.54457,-0.5445657 0,-0.3005959 -0.24342,-0.5445657 -0.54457,-0.5445657 z"
       inkscape:connector-curvature="0"
       style="stroke-width:0.02746171" />
    <path
       inkscape:connector-curvature="0"
       style="fill:#e69629;fill-opacity:1;stroke:none;stroke-width:0.08762341px;stroke-linecap:butt;stroke-linejoin:miter;stroke-opacity:1"
       d="m 131.97244,9.4057642 -0.50631,-0.1466554 -0.49314,0.386191 -0.11151,2.5555412 -0.32784,3.491158 0.0111,0.407579 0.36091,0.46208 0.78225,0.399149 0.71736,0.123927 0.96428,-0.267063 2.76095,-2.239381 1.43783,-0.668039 0.52821,-0.378195 0.10865,-0.965483 -0.90441,-0.492889 -0.68275,-0.488184 -0.18299,-0.323511 -0.39683,-1.5100775 -0.22008,-0.1679921 -0.45949,0.1477937 z"
       id="path1307" />
    <path
       inkscape:connector-curvature="0"
       style="fill:#e69629;fill-opacity:1;stroke:none;stroke-width:0.08762341px;stroke-linecap:butt;stroke-linejoin:miter;stroke-opacity:1"
       d="m 123.99937,-2.1100316 0.73704,-0.6266801 1.01697,-0.6007888 0.90789,-0.199679 0.66855,0.4010734 1.90701,0.7268575 0.44415,0.3358417 -0.10364,0.332891 -0.41066,0.5751857 -1.91889,1.20048144 -1.16969,0.28475134 -0.57639,-0.093769 -0.73239,-0.52882107 -0.83291,-0.98240241 z"
       id="path1305" />
    <path
       inkscape:connector-curvature="0"
       style="fill:#e69629;fill-opacity:1;stroke:none;stroke-width:0.08762341px;stroke-linecap:butt;stroke-linejoin:miter;stroke-opacity:1"
       d="m 118.81605,9.9376285 0.284,-0.7941023 0.84943,-0.3331566 0.88038,0.311922 2.63133,3.8333184 1.17652,2.090367 -0.369,1.252032 -0.9315,0.643404 -0.75157,-0.0022 -1.7076,-0.475052 -2.18471,-0.742936 -2.16115,-0.386435 -0.47166,-0.514586 0.0984,-0.469725 0.52895,-1.114296 0.007,-0.691408 -0.13299,-0.992063 0.066,-0.782213 0.32608,-0.413141 0.47494,-0.125209 0.7185,-0.04781 0.45271,-0.05358 z"
       id="path1303" />
    <path
       inkscape:connector-curvature="0"
       d="m 126.7747,-2.7937699 c 0,0.087622 -0.0876,0.087622 -0.0876,0.087622 h -0.0876 c -0.0876,0 -0.0876,-0.087622 -0.17524,-0.1752448 0,0 -0.0876,-0.087626 -0.0876,-0.1752482 0,-0.087622 0,-0.087622 0.0876,-0.087622 l 0.17524,0.087622 c 0.0876,0.087622 0.17525,0.1752482 0.17525,0.2628706 m -1.57723,-0.8762341 c 0,-0.4381188 -0.17524,-0.7009893 -0.43811,-0.7009893 0,0 0,0.087622 -0.0876,0.087622 v 0.1752481 h 0.26287 c 0,0.1752482 0.0876,0.2628706 0.0876,0.4381188 h 0.17524 m 3.06683,-0.4381188 c 0.17524,0 0.26287,0.1752482 0.35049,0.4381188 h 0.17525 c -0.0876,-0.087626 -0.0876,-0.1752482 -0.0876,-0.2628706 0,-0.087626 0,-0.1752482 -0.0876,-0.2628706 -0.0876,-0.087626 -0.17525,-0.1752481 -0.26287,-0.1752481 0,0 -0.0876,0.087622 -0.17525,0.087622 0,0.087626 0.0876,0.087626 0.0876,0.1752481 m -2.62871,1.4019753 c -0.0876,0 -0.0876,0 -0.0876,-0.087622 0,-0.087622 0,-0.1752482 0.0876,-0.2628706 0.17525,0 0.26287,-0.087622 0.26287,-0.087622 0.0876,0 0.0876,0.087622 0.0876,0.087622 0,0.087622 -0.0876,0.1752482 -0.26287,0.350493 h -0.0876 m -0.96386,-0.087622 c -0.35049,-0.1752482 -0.43811,-0.4381187 -0.43811,-0.8762341 0,-0.2628706 0,-0.4381188 0.17524,-0.6133669 0.0876,-0.1752449 0.26287,-0.2628706 0.43812,-0.2628706 0.17525,0 0.26287,0.087626 0.43812,0.2628706 0.0876,0.2628706 0.17525,0.5257411 0.17525,0.7886117 v 0.087626 0.087622 h 0.0876 v -0.087622 c 0.0876,0 0.0876,-0.1752481 0.0876,-0.5257411 0,-0.2628706 0,-0.5257412 -0.17524,-0.7886117 -0.17525,-0.2628706 -0.3505,-0.4381187 -0.70099,-0.4381187 -0.26287,0 -0.52574,0.1752481 -0.61337,0.4381187 -0.17524,0.350493 -0.21029,0.6133635 -0.21029,1.0514823 0,0.3504929 0.12267,0.7009859 0.47316,1.0514822 0.0876,-0.087626 0.17525,-0.087626 0.26287,-0.1752481 m 10.95295,12.354919 c 0.0876,0 0.0876,-0.035049 0.0876,-0.1139104 0,-0.1927717 -0.0876,-0.4205929 -0.3505,-0.6747013 -0.26287,-0.2628705 -0.70098,-0.4293561 -1.22673,-0.4994527 -0.0876,-0.00878 -0.17524,-0.00878 -0.17524,-0.00878 -0.0876,-0.017519 -0.0876,-0.017519 -0.17525,-0.017519 -0.0876,-0.00878 -0.26287,-0.026295 -0.3505,-0.043811 0.26288,-0.8149004 0.3505,-1.5334122 0.3505,-2.1643015 0,-0.8762342 -0.17525,-1.489601 -0.52574,-2.0153422 -0.3505,-0.5257411 -0.70099,-0.7886117 -1.13911,-0.8762341 -0.0876,0.087622 -0.0876,0.087622 -0.0876,0.1752482 0.43812,0.1752448 0.87623,0.5257411 1.1391,1.0514822 0.26287,0.6133636 0.3505,1.1391047 0.3505,1.7524683 0,0.4906928 -0.0876,1.2179675 -0.43812,2.1467791 -0.35049,0.1401965 -0.70099,0.4644034 -0.96386,0.9726197 0,0.078861 0,0.1226731 0.0876,0.1226731 0,0 0.0876,-0.078861 0.17524,-0.2278213 0.17525,-0.1489598 0.26287,-0.2979199 0.43812,-0.44688 0.26287,-0.1489597 0.43812,-0.2278209 0.70099,-0.2278209 0.43812,0 0.87623,0.061336 1.13911,0.1840094 0.35049,0.1139105 0.52574,0.2365835 0.61336,0.376781 0.0876,0.1314353 0.17525,0.2541084 0.26287,0.3680188 0,0.1139105 0.0876,0.1664846 0.0876,0.1664846 m -8.06137,-12.7054054 c -0.0876,-0.087626 -0.0876,-0.2628706 -0.0876,-0.4381187 0,-0.350493 0,-0.5257412 0.17524,-0.7886117 0.17525,-0.1752482 0.3505,-0.2628706 0.52574,-0.2628706 0.26287,0 0.43812,0.1752481 0.61337,0.350493 0.0876,0.2628706 0.17525,0.4381187 0.17525,0.7009893 0,0.4381187 -0.17525,0.7009893 -0.52575,0.7886117 0,0 0.0876,0.087622 0.17525,0.087622 0.17525,0 0.26287,0.087626 0.43812,0.1752482 0.0876,-0.5257412 0.17525,-0.8762342 0.17525,-1.3143529 0,-0.5257411 -0.0876,-0.8762341 -0.26287,-1.1391047 -0.26288,-0.2628706 -0.52575,-0.3504963 -0.87624,-0.3504963 -0.26287,0 -0.52574,0.087626 -0.78861,0.2628706 -0.17525,0.2628705 -0.26287,0.4381187 -0.26287,0.7009893 0,0.4381187 0.0876,0.7886117 0.26287,1.1391047 0.0876,0 0.17525,0.087626 0.26287,0.087626 m 1.05148,1.4019753 c -1.1391,0.78861166 -2.01534,1.13910465 -2.71633,1.13910465 -0.61336,0 -1.22673,-0.26287057 -1.75247,-0.70098595 0.0876,0.1752448 0.17525,0.35049296 0.26287,0.43811538 l 0.52574,0.52574114 c 0.3505,0.3504963 0.78862,0.52574114 1.22673,0.52574114 0.61337,0 1.31436,-0.35049299 2.19059,-0.96385655 l 0.78861,-0.52574111 c 0.17525,-0.1752482 0.3505,-0.3504963 0.3505,-0.6133669 0,-0.087622 0,-0.1752448 -0.0876,-0.1752448 -0.0876,-0.1752482 -0.52574,-0.4381187 -1.40197,-0.7009893 -0.78861,-0.350493 -1.40198,-0.5257412 -1.75247,-0.5257412 -0.26287,0 -0.70099,0.1752482 -1.31436,0.5257412 -0.52574,0.350493 -0.87623,0.7009893 -0.87623,1.0514823 0,0 0.0876,0.087622 0.17525,0.2628705 0.52574,0.4381187 1.05148,0.70098931 1.57722,0.70098931 0.70099,0 1.57722,-0.35049631 2.71633,-1.22673041 v 0.1752481 c 0.0876,0 0.0876,0.087622 0.0876,0.087622 m 2.01534,17.6999547 c 0.3505,0.658928 0.96386,0.990145 1.66485,0.990145 0.17525,0 0.35049,-0.02628 0.52574,-0.07886 0.17525,-0.03505 0.35049,-0.09639 0.43812,-0.166485 0.0876,-0.06134 0.17524,-0.122673 0.26287,-0.192771 0.17525,-0.06134 0.17525,-0.105148 0.26287,-0.14896 l 1.4896,-1.288066 c 0.3505,-0.279519 0.70099,-0.523989 1.13911,-0.736038 0.35049,-0.210296 0.70099,-0.350494 0.87623,-0.429355 0.26287,-0.0701 0.43812,-0.175247 0.61337,-0.315445 0.0876,-0.131435 0.17524,-0.29792 0.17524,-0.508216 0,-0.254108 -0.17524,-0.44688 -0.35049,-0.587078 -0.17525,-0.140197 -0.35049,-0.236583 -0.52574,-0.29792 -0.17525,-0.06134 -0.35049,-0.201534 -0.61337,-0.438117 -0.17524,-0.227822 -0.35049,-0.543266 -0.43811,-0.955097 l -0.0876,-0.508216 c -0.0876,-0.236584 -0.0876,-0.4118307 -0.17524,-0.5082167 0,-0.026285 0,-0.035049 -0.0876,-0.035049 -0.0876,0 -0.26287,0.078861 -0.35049,0.227821 -0.17525,0.1489597 -0.3505,0.3154447 -0.52574,0.4906917 -0.0876,0.175247 -0.3505,0.332969 -0.52575,0.481929 -0.26287,0.14896 -0.52574,0.227821 -0.70098,0.227821 -0.70099,0 -1.05149,-0.192771 -1.31436,-0.569553 -0.17524,-0.280395 -0.26287,-0.604602 -0.35049,-0.9726205 -0.17525,-0.1489598 -0.26287,-0.2278209 -0.43812,-0.2278209 -0.43811,0 -0.61336,0.4556422 -0.61336,1.3756894 v 0.289157 1.016433 0.779849 0.376782 0.26287 c 0,0.07886 -0.0876,0.254108 -0.0876,0.525741 -0.0876,0.271633 -0.0876,0.580068 -0.0876,0.92881 l -0.17525,0.972621 v 0.0149 M 117.92472,15.49151 c 0.8149,0.119168 1.75247,0.374152 2.81272,0.7632 1.06024,0.385544 1.70866,0.587078 1.94524,0.587078 0.61336,0 1.12158,-0.271633 1.54218,-0.796498 0.0876,-0.169989 0.0876,-0.369771 0.0876,-0.599345 0,-0.828042 -0.49945,-1.875143 -1.49836,-3.145684 l -0.59584,-0.797374 c -0.12268,-0.166485 -0.27164,-0.420593 -0.46441,-0.762325 -0.18401,-0.341732 -0.35049,-0.604602 -0.48193,-0.7886115 -0.11391,-0.2015342 -0.29792,-0.4030681 -0.5345,-0.6046023 -0.22782,-0.2015342 -0.49069,-0.3329695 -0.77985,-0.4030681 -0.36802,0.070099 -0.62213,0.1927716 -0.7448,0.3592562 -0.12268,0.1664849 -0.19277,0.3504943 -0.2103,0.543266 -0.0263,0.1840097 -0.0789,0.3066827 -0.16648,0.3680187 -0.0876,0.05257 -0.23658,0.09639 -0.43812,0.140198 -0.0438,0 -0.12267,0 -0.23658,0.0088 h -0.23659 c -0.4644,0 -0.77985,0.05258 -0.94633,0.140198 -0.21906,0.254108 -0.33297,0.543266 -0.33297,0.849948 0,0.140198 0.035,0.376781 0.10515,0.709751 0.0701,0.324207 0.10515,0.587077 0.10515,0.771087 0,0.359256 -0.10515,0.718513 -0.32421,1.077769 -0.21906,0.376781 -0.33297,0.657177 -0.33297,0.856958 0.0876,0.339979 0.66594,0.579192 1.72618,0.719389 m 2.91787,-7.9649783 c 0,-0.6046039 0.15772,-1.2705416 0.48193,-2.0591533 0.31544,-0.7886117 0.63089,-1.3143529 0.93757,-1.6648458 -0.0175,-0.087626 -0.0613,-0.087626 -0.13144,-0.087626 l -0.0876,-0.087622 c -0.25411,0.2628706 -0.56079,0.8762341 -0.92881,1.7524716 -0.36802,0.7886117 -0.56079,1.5158864 -0.56079,2.0503904 0,0.3943042 0.0964,0.7360376 0.27163,1.0339565 0.19277,0.2891586 0.65718,0.7097515 1.39322,1.2442549 l 0.9288,0.604602 c 0.99015,0.858711 1.51589,1.45455 1.51589,1.805045 0,0.184009 -0.0876,0.368019 -0.35049,0.569552 -0.17525,0.210297 -0.41183,0.315445 -0.61337,0.315445 -0.0175,0 -0.0263,0.01753 -0.0263,0.06134 0,0.0088 0.0876,0.184009 0.27163,0.525741 0.36802,0.499454 1.15663,0.7448 2.20811,0.7448 1.92772,0 3.41732,-0.788612 4.55643,-2.365835 0,-0.438118 0,-0.709751 -0.0876,-0.823661 v -0.324208 c 0,-0.569552 0.0876,-0.9989075 0.26287,-1.2793026 0.17525,-0.2803954 0.3505,-0.4118307 0.61337,-0.4118307 0.17524,0 0.35049,0.061336 0.52574,0.1927717 0.0876,-0.6747009 0.0876,-1.2617784 0.0876,-1.7875196 0,-0.7973746 0,-1.4545527 -0.17525,-2.0679162 -0.0876,-0.5257412 -0.26287,-0.9638599 -0.43811,-1.3143529 -0.17525,-0.2628705 -0.3505,-0.5257411 -0.52574,-0.7886117 -0.17525,-0.2628705 -0.26287,-0.5257411 -0.43812,-0.7886123 -0.0876,-0.350493 -0.17525,-0.6133636 -0.17525,-1.0514823 -0.26287,-0.4381201 -0.43811,-0.87623546 -0.70099,-1.31435418 -0.17524,-0.43811872 -0.35049,-0.87623413 -0.52574,-1.22673042 l -0.78861,0.61336686 c -0.87624,0.61336356 -1.57722,0.87623413 -2.19059,0.87623413 -0.52574,0 -0.96385,-0.0876224 -1.22673,-0.43811872 l -0.52574,-0.43811541 c 0,0.26287057 -0.0876,0.61336356 -0.26287,0.96385655 l -0.55203,1.05148359 c -0.24534,0.6133669 -0.37678,0.9638599 -0.40306,1.2267311 -0.035,0.1752481 -0.0613,0.350493 -0.0789,0.350493 l -0.65718,1.3143528 c -0.70975,1.3143529 -1.06901,2.5323204 -1.06901,3.5399915 0,0.2015335 0.0175,0.41183 0.0526,0.6221277 -0.3943,-0.2716347 -0.58707,-0.6484131 -0.58707,-1.139106 m 6.27384,8.2891851 c -1.1391,0 -2.01534,0.154218 -2.6287,0.460024 v -0.02629 c -0.43812,0.525741 -0.92881,0.797374 -1.61228,0.797374 -0.42935,0 -1.10405,-0.166484 -2.01534,-0.499454 -0.92004,-0.315445 -1.73494,-0.557286 -2.44469,-0.71676 -0.0701,-0.02015 -0.22782,-0.04995 -0.48193,-0.09025 -0.24535,-0.03943 -0.47317,-0.07974 -0.6747,-0.120045 -0.18401,-0.03943 -0.39431,-0.09901 -0.62213,-0.179628 -0.21906,-0.06922 -0.39431,-0.159475 -0.52574,-0.269004 -0.12092,-0.110406 -0.18051,-0.234831 -0.18051,-0.374153 0,-0.140197 0.0298,-0.290034 0.0894,-0.449508 0.0561,-0.09639 0.11741,-0.192772 0.17875,-0.280396 0.0613,-0.09639 0.11391,-0.184009 0.14896,-0.271633 0.0526,-0.07886 0.0876,-0.157722 0.12268,-0.245345 0.035,-0.07886 0.0701,-0.157723 0.0876,-0.254109 0.0175,-0.08762 0.035,-0.175247 0.035,-0.26287 0,-0.08762 -0.035,-0.350494 -0.10515,-0.814899 -0.0701,-0.455642 -0.10515,-0.7448 -0.10515,-0.867473 0,-0.385543 0.0876,-0.692226 0.2804,-0.911284 0.19277,-0.219059 0.37678,-0.33297 0.56955,-0.33297 h 1.00767 c 0.0789,0 0.20153,-0.04381 0.38554,-0.1489598 0.0613,-0.1401975 0.11391,-0.254108 0.14896,-0.3592562 0.0438,-0.1051482 0.0613,-0.1840094 0.0789,-0.219059 0.0175,-0.052574 0.035,-0.1051483 0.0526,-0.1489598 0.035,-0.061337 0.0789,-0.1314353 0.1402,-0.2015342 -0.0701,-0.087623 -0.10515,-0.2015342 -0.10515,-0.3417318 0,-0.096386 0,-0.1840094 0.0175,-0.2365835 0,-0.3154447 0.14896,-0.762323 0.4644,-1.3494011 l 0.30668,-0.5520299 c 0.25411,-0.473167 0.44689,-0.82366 0.58708,-1.174153 0.14896,-0.3504963 0.30668,-0.8762374 0.48193,-1.5772234 0.1402,-0.6133669 0.47317,-1.2267311 0.99891,-1.8400946 l 0.65717,-0.7886131 c 0.45565,-0.52574111 0.75357,-0.96385983 0.92005,-1.31435282 0.16649,-0.3504963 0.25411,-0.78861171 0.25411,-1.13910798 0,-0.1752449 -0.0438,-0.700986 -0.1402,-1.5772234 -0.0876,-0.8762342 -0.13143,-1.7524683 -0.13143,-2.54108 0,-0.6133669 0.0526,-1.0514823 0.16648,-1.489601 0.11391,-0.4381187 0.31545,-0.8762341 0.61337,-1.2267304 0.26287,-0.350493 0.61336,-0.700986 1.1391,-0.8762341 0.52575,-0.1752482 1.13911,-0.2628706 1.8401,-0.2628706 0.26287,0 0.52574,0 0.78861,0.087622 0.26287,0 0.61336,0.087626 1.05148,0.2628706 0.3505,0.1752481 0.70099,0.3504963 0.96386,0.6133668 0.3505,0.2628706 0.61337,0.700986 0.87624,1.1391047 0.17524,0.5257412 0.35049,1.0514823 0.43811,1.7524716 0.0876,0.4381154 0.0876,0.8762341 0.17525,1.4895977 0,0.5257411 0.0876,0.8762374 0.0876,1.139108 0.0876,0.2628706 0.0876,0.6133635 0.17525,1.0514823 0.0876,0.350493 0.17525,0.7009859 0.35049,0.96385651 0.17525,0.3504963 0.3505,0.70098929 0.61337,1.05148228 0.26287,0.43811872 0.61336,0.87623741 0.96386,1.40197991 0.78861,0.8762341 1.40198,1.8400946 1.75247,2.8039512 0.43811,0.8762374 0.70098,2.0153421 0.70098,3.2333096 0,0.6046007 -0.0876,1.1916788 -0.26287,1.7612319 0.17525,0 0.26287,0.070099 0.3505,0.1927716 0.0876,0.122673 0.17524,0.385544 0.26287,0.797374 l 0.0876,0.648414 c 0.0876,0.192772 0.17525,0.376781 0.43812,0.534504 0.17525,0.157722 0.35049,0.289157 0.61337,0.394306 0.17524,0.08762 0.43811,0.210296 0.61336,0.368018 0.17525,0.175248 0.26287,0.359257 0.26287,0.552029 0,0.29792 -0.0876,0.516978 -0.26287,0.674701 -0.17525,0.175247 -0.35049,0.29792 -0.61336,0.376781 -0.17525,0.08762 -0.52575,0.26287 -1.05149,0.509969 -0.43812,0.259365 -0.87623,0.573934 -1.31435,0.946334 l -0.87623,0.745676 c -0.3505,0.341732 -0.70099,0.587078 -0.96386,0.736038 -0.26287,0.157722 -0.61337,0.236583 -0.96386,0.236583 l -0.61337,-0.0701 c -0.70098,-0.184009 -1.1391,-0.534503 -1.40197,-1.069007 -1.40198,-0.169989 -2.54109,-0.254108 -3.24207,-0.254108"
       id="path1281"
       style="stroke-width:0.08762341" />
  </g>
</svg>
