<?xml version="1.0" encoding="UTF-8" standalone="no"?>
<!-- Created with Inkscape (http://www.inkscape.org/) -->

<svg
   xmlns:dc="http://purl.org/dc/elements/1.1/"
   xmlns:cc="http://creativecommons.org/ns#"
   xmlns:rdf="http://www.w3.org/1999/02/22-rdf-syntax-ns#"
   xmlns:svg="http://www.w3.org/2000/svg"
   xmlns="http://www.w3.org/2000/svg"
   xmlns:xlink="http://www.w3.org/1999/xlink"
   xmlns:sodipodi="http://sodipodi.sourceforge.net/DTD/sodipodi-0.dtd"
   xmlns:inkscape="http://www.inkscape.org/namespaces/inkscape"
   width="197.55855mm"
   height="141.1089mm"
   viewBox="0 0 197.55855 141.1089"
   version="1.1"
   id="svg3608"
   inkscape:version="0.92.5 (0.92.5+69)"
   sodipodi:docname="featured_img.svg">
  <defs
     id="defs3602">
    <linearGradient
       inkscape:collect="always"
       id="linearGradient4364">
      <stop
         style="stop-color:#ffffff;stop-opacity:1"
         offset="0"
         id="stop4360" />
      <stop
         style="stop-color:#f2f2f2;stop-opacity:1"
         offset="1"
         id="stop4362" />
    </linearGradient>
    <linearGradient
       inkscape:collect="always"
       id="linearGradient4344">
      <stop
         style="stop-color:#ffffff;stop-opacity:1"
         offset="0"
         id="stop4340" />
      <stop
         style="stop-color:#b3b3b3;stop-opacity:1"
         offset="1"
         id="stop4342" />
    </linearGradient>
    <linearGradient
       id="d">
      <stop
         stop-color="#5a9fd4"
         offset="0"
         id="stop8" />
      <stop
         stop-color="#306998"
         offset="1"
         id="stop10" />
    </linearGradient>
    <linearGradient
       id="e">
      <stop
         stop-color="#ffd43b"
         offset="0"
         id="stop3" />
      <stop
         stop-color="#ffe873"
         offset="1"
         id="stop5" />
    </linearGradient>
    <radialGradient
       inkscape:collect="always"
       xlink:href="#linearGradient4344"
       id="radialGradient4346"
       cx="66.396378"
       cy="76.723297"
       fx="66.396378"
       fy="76.723297"
       r="80.629429"
       gradientTransform="matrix(0,0.76172086,-1.5310956,-7.1974431e-5,185.53489,25.468999)"
       gradientUnits="userSpaceOnUse" />
    <radialGradient
       inkscape:collect="always"
       xlink:href="#linearGradient4364"
       id="radialGradient4358"
       cx="66.20723"
       cy="78.764641"
       fx="66.20723"
       fy="78.764641"
       r="65.276665"
       gradientTransform="matrix(4.3972535e-8,-0.72958682,1.3975199,8.4229171e-8,-43.867825,125.76165)"
       gradientUnits="userSpaceOnUse" />
    <linearGradient
       inkscape:collect="always"
       xlink:href="#e"
       id="linearGradient1560"
       gradientUnits="userSpaceOnUse"
       gradientTransform="matrix(0.09073613,0,0,0.09179224,84.705612,65.002128)"
       x1="150.96001"
       y1="192.35001"
       x2="112.03"
       y2="137.27" />
    <linearGradient
       inkscape:collect="always"
       xlink:href="#d"
       id="linearGradient1558"
       gradientUnits="userSpaceOnUse"
       gradientTransform="matrix(0.09073613,0,0,0.09179224,84.705612,65.002128)"
       x1="26.649"
       y1="20.604"
       x2="135.67"
       y2="114.4" />
  </defs>
  <sodipodi:namedview
     id="base"
     pagecolor="#ffffff"
     bordercolor="#666666"
     borderopacity="1.0"
     inkscape:pageopacity="0.0"
     inkscape:pageshadow="2"
     inkscape:zoom="0.35"
     inkscape:cx="-686.02861"
     inkscape:cy="92.450952"
     inkscape:document-units="mm"
     inkscape:current-layer="layer1"
     showgrid="false"
     fit-margin-top="0"
     fit-margin-left="0"
     fit-margin-right="0"
     fit-margin-bottom="0"
     inkscape:window-width="2560"
     inkscape:window-height="993"
     inkscape:window-x="0"
     inkscape:window-y="384"
     inkscape:window-maximized="1" />
  <metadata
     id="metadata3605">
    <rdf:RDF>
      <cc:Work
         rdf:about="">
        <dc:format>image/svg+xml</dc:format>
        <dc:type
           rdf:resource="http://purl.org/dc/dcmitype/StillImage" />
        <dc:title />
      </cc:Work>
    </rdf:RDF>
  </metadata>
  <g
     inkscape:label="Layer 1"
     inkscape:groupmode="layer"
     id="layer1"
     transform="translate(31.499512,-5.7074537)">
    <rect
       style="opacity:1;fill:url(#radialGradient4358);fill-opacity:1;stroke:none;stroke-width:0.67570716;stroke-linecap:round;stroke-linejoin:round;stroke-miterlimit:4;stroke-dasharray:none;stroke-dashoffset:0;stroke-opacity:0.07373274"
       id="rect4320"
       width="130.55333"
       height="52.858994"
       x="1.8899021"
       y="50.13908"
       rx="22.318241"
       ry="22.318241"
       inkscape:export-xdpi="64.279999"
       inkscape:export-ydpi="64.279999" />
    <rect
       style="opacity:1;fill:none;fill-opacity:0.94009214;stroke:none;stroke-width:0.92225039;stroke-linecap:round;stroke-linejoin:round;stroke-miterlimit:4;stroke-dasharray:none;stroke-dashoffset:0;stroke-opacity:1"
       id="rect2509"
       width="197.55855"
       height="141.1089"
       x="-31.499512"
       y="5.7074537"
       inkscape:export-xdpi="64.279999"
       inkscape:export-ydpi="64.279999" />
    <path
       id="path4256"
       d="m -3.3510934,76.995785 v -2.07042 c 0,-17.042706 13.8665004,-30.904286 30.9058404,-30.904286 h 24.576498 c 0,0 -5.703173,3.86659 -4.463251,12.064885 H 27.554747 c -10.39017,0 -18.8425104,8.450785 -18.8425104,18.840955 v 2.07042 c 0,10.390947 8.4539004,18.842508 18.8425104,18.842508 l 27.670345,0 v 0 h 7.296581 l -1.668508,-5.083988 c -0.14994,-0.380419 -0.02745,-0.813666 0.298327,-1.059424 0.327849,-0.247829 0.77767,-0.246275 1.102153,0.0047 l 19.713146,11.445675 c 0.225817,0.17221 0.355818,0.4392 0.355818,0.72095 0,0.28227 -0.130001,0.5503 -0.355818,0.72251 l -19.713146,11.44726 c -0.163665,0.12845 -0.359701,0.18983 -0.555738,0.18983 -0.192928,0 -0.385598,-0.0598 -0.547968,-0.18309 -0.326037,-0.24654 -0.448268,-0.6803 -0.296774,-1.05994 l 1.66566,-5.08503 h -7.295028 v 0.002 H 27.555007 C 10.515407,107.9025 -3.3510934,94.036984 -3.3510934,76.995832 Z M 72.304571,62.825513 c 0.324483,0.249641 0.774562,0.251195 1.102152,0.0031 0.326037,-0.246275 0.448268,-0.681077 0.29755,-1.059165 l -1.667213,-5.083471 7.296064,0 v 0 h 27.671636 c 10.39017,0 18.84173,8.454152 18.84173,18.842768 v 2.070938 c 0,10.388874 -8.45311,18.84199 -18.84173,18.84199 H 86.891776 c 0.38575,2.549828 0.09954,4.680777 -0.477861,6.406687 -1.27855,3.82171 -3.984872,5.65743 -3.984872,5.65743 l 24.575717,0 c 17.04012,-2.5e-4 30.90585,-13.863653 30.90585,-30.906359 v -2.070938 c 0,-17.042705 -13.86573,-30.906114 -30.90585,-30.906114 H 79.336231 v 0.002 l -7.295804,0 1.667213,-5.08348 c 0.150718,-0.38119 0.02823,-0.81574 -0.297551,-1.06071 -0.163147,-0.12405 -0.356075,-0.18387 -0.548745,-0.18387 -0.194223,0 -0.391813,0.0611 -0.554961,0.18982 l -19.712369,11.44623 c -0.226594,0.17299 -0.356594,0.43921 -0.356594,0.72251 0,0.28486 0.13,0.54952 0.356594,0.72251 z"
       inkscape:connector-curvature="0"
       style="fill:url(#radialGradient4346);fill-opacity:1;stroke:#666666;stroke-width:1.023;stroke-miterlimit:4;stroke-dasharray:none;stroke-opacity:1"
       sodipodi:nodetypes="cssccsssscccccccsccsccccccsccccccssssccscssscccccsccsccc"
       inkscape:export-xdpi="64.279999"
       inkscape:export-ydpi="64.279999" />
    <rect
       ry="41.504452"
       rx="41.504452"
       y="31.521376"
       x="-12.603349"
       height="90.171814"
       width="159.51126"
       id="rect4348"
       style="opacity:1;fill:none;fill-opacity:0.9677419;stroke:#d7d7d7;stroke-width:0.97573817;stroke-linecap:round;stroke-linejoin:round;stroke-miterlimit:4;stroke-dasharray:none;stroke-dashoffset:0;stroke-opacity:0.20737329"
       inkscape:export-xdpi="64.279999"
       inkscape:export-ydpi="64.279999" />
    <rect
       style="opacity:1;fill:none;fill-opacity:0.9677419;stroke:#adadad;stroke-width:1.12527049;stroke-linecap:round;stroke-linejoin:round;stroke-miterlimit:4;stroke-dasharray:none;stroke-dashoffset:0;stroke-opacity:0.17050691"
       id="rect4350"
       width="178.98503"
       height="106.87908"
       x="-156.64481"
       y="-130.04683"
       rx="47.407955"
       ry="47.407955"
       transform="scale(-1)"
       inkscape:export-xdpi="64.279999"
       inkscape:export-ydpi="64.279999" />
    <text
       xml:space="preserve"
       style="font-style:normal;font-variant:normal;font-weight:bold;font-stretch:normal;font-size:18.66261864px;line-height:1.25;font-family:'DejaVu Sans Mono';-inkscape-font-specification:'DejaVu Sans Mono Bold';letter-spacing:0px;word-spacing:0px;fill:#666666;fill-opacity:1;stroke:#666666;stroke-width:0.77054679;stroke-miterlimit:4;stroke-dasharray:none"
       x="17.0609"
       y="81.990486"
       id="text4318"
       inkscape:export-xdpi="64.279999"
       inkscape:export-ydpi="64.279999"><tspan
         sodipodi:role="line"
         id="tspan4316"
         x="17.0609"
         y="81.990486"
         style="font-style:normal;font-variant:normal;font-weight:bold;font-stretch:normal;font-family:'DejaVu Sans Mono';-inkscape-font-specification:'DejaVu Sans Mono Bold';letter-spacing:0px;fill:#666666;stroke:#666666;stroke-width:0.77054679;stroke-miterlimit:4;stroke-dasharray:none">range(  )</tspan></text>
    <path
       style="fill:url(#linearGradient1558);stroke-width:0;stroke-miterlimit:7.69810009"
       inkscape:connector-curvature="0"
       d="m 95.983012,66.897695 c -0.739324,0.0035 -1.445381,0.06664 -2.066637,0.176756 -1.830108,0.323969 -2.162398,1.002017 -2.162398,2.2525 v 1.651507 h 4.324843 v 0.550478 h -5.947896 c -1.256904,0 -2.357492,0.756971 -2.701797,2.196962 -0.397087,1.650548 -0.414683,2.680628 0,4.404118 0.307427,1.28288 1.041575,2.196938 2.298486,2.196938 h 1.486965 v -1.97976 c 0,-1.430293 1.235096,-2.691952 2.701797,-2.691952 h 4.319679 c 1.202454,0 2.162396,-0.992022 2.162396,-2.20201 V 69.32705 c 0,-1.174341 -0.988743,-2.056494 -2.162396,-2.252501 -0.742941,-0.123901 -1.513794,-0.180202 -2.253143,-0.176755 z M 93.6442,68.225946 c 0.446713,0 0.811526,0.371507 0.811526,0.82829 0,0.455157 -0.364813,0.823217 -0.811526,0.823217 -0.448315,0 -0.811526,-0.36806 -0.811526,-0.823217 0,-0.456783 0.363211,-0.82829 0.811526,-0.82829 z"
       id="path63"
       inkscape:export-xdpi="64.279999"
       inkscape:export-ydpi="64.279999" />
    <path
       style="fill:url(#linearGradient1560);stroke-width:0;stroke-miterlimit:7.69810009"
       inkscape:connector-curvature="0"
       d="m 100.93611,71.525834 v 1.924223 c 0,1.491836 -1.262306,2.747341 -2.701807,2.747341 h -4.319674 c -1.183255,0 -2.162403,1.014695 -2.162403,2.201985 v 4.126183 c 0,1.174365 1.019177,1.865091 2.162403,2.202009 1.368993,0.403338 2.681854,0.476231 4.319674,0 1.088793,-0.315846 2.162407,-0.951526 2.162407,-2.202009 v -1.651482 h -4.319683 v -0.550503 h 6.482103 c 1.25691,0 1.72529,-0.878436 2.1624,-2.196938 0.45151,-1.357374 0.43231,-2.662657 0,-4.404117 -0.31063,-1.253709 -0.90389,-2.196963 -2.1624,-2.196963 z m -2.429555,10.4495 c 0.448315,0 0.81152,0.368061 0.81152,0.823218 0,0.456783 -0.363205,0.828265 -0.81152,0.828265 -0.446743,0 -0.811527,-0.371482 -0.811527,-0.828265 0,-0.455157 0.364784,-0.823218 0.811527,-0.823218 z"
       id="path65"
       inkscape:export-xdpi="64.279999"
       inkscape:export-ydpi="64.279999" />
  </g>
</svg>
