<?xml version="1.0" encoding="UTF-8" standalone="no"?>
<!-- Created with Inkscape (http://www.inkscape.org/) -->

<svg
   xmlns:dc="http://purl.org/dc/elements/1.1/"
   xmlns:cc="http://creativecommons.org/ns#"
   xmlns:rdf="http://www.w3.org/1999/02/22-rdf-syntax-ns#"
   xmlns:svg="http://www.w3.org/2000/svg"
   xmlns="http://www.w3.org/2000/svg"
   xmlns:xlink="http://www.w3.org/1999/xlink"
   xmlns:sodipodi="http://sodipodi.sourceforge.net/DTD/sodipodi-0.dtd"
   xmlns:inkscape="http://www.inkscape.org/namespaces/inkscape"
   width="197.556mm"
   height="141.11111mm"
   viewBox="0 0 197.556 141.11111"
   version="1.1"
   id="svg1014"
   inkscape:version="0.92.5 (0.92.5+69)"
   sodipodi:docname="featured_icon.svg">
  <defs
     id="defs1008">
    <linearGradient
       inkscape:collect="always"
       xlink:href="#linearGradient4689"
       id="linearGradient13202"
       gradientUnits="userSpaceOnUse"
       gradientTransform="matrix(0.13015068,0,0,0.13166525,136.37424,3.825953)"
       x1="26.648937"
       y1="20.603781"
       x2="135.66525"
       y2="114.39767" />
    <linearGradient
       id="linearGradient4689">
      <stop
         id="stop4691"
         offset="0"
         style="stop-color:#5a9fd4;stop-opacity:1;" />
      <stop
         id="stop4693"
         offset="1"
         style="stop-color:#306998;stop-opacity:1;" />
    </linearGradient>
    <linearGradient
       inkscape:collect="always"
       xlink:href="#linearGradient4671"
       id="linearGradient13204"
       gradientUnits="userSpaceOnUse"
       gradientTransform="matrix(0.13015068,0,0,0.13166525,136.37424,3.825953)"
       x1="150.96111"
       y1="192.35176"
       x2="112.03144"
       y2="137.27299" />
    <linearGradient
       id="linearGradient4671">
      <stop
         id="stop4673"
         offset="0"
         style="stop-color:#ffd43b;stop-opacity:1;" />
      <stop
         id="stop4675"
         offset="1"
         style="stop-color:#ffe873;stop-opacity:1" />
    </linearGradient>
  </defs>
  <sodipodi:namedview
     id="base"
     pagecolor="#ffffff"
     bordercolor="#666666"
     borderopacity="1.0"
     inkscape:pageopacity="0.0"
     inkscape:pageshadow="2"
     inkscape:zoom="0.35"
     inkscape:cx="-332.38011"
     inkscape:cy="-221.90476"
     inkscape:document-units="mm"
     inkscape:current-layer="layer1"
     showgrid="false"
     fit-margin-top="0"
     fit-margin-left="0"
     fit-margin-right="0"
     fit-margin-bottom="0"
     inkscape:window-width="2560"
     inkscape:window-height="993"
     inkscape:window-x="0"
     inkscape:window-y="384"
     inkscape:window-maximized="1" />
  <metadata
     id="metadata1011">
    <rdf:RDF>
      <cc:Work
         rdf:about="">
        <dc:format>image/svg+xml</dc:format>
        <dc:type
           rdf:resource="http://purl.org/dc/dcmitype/StillImage" />
        <dc:title></dc:title>
      </cc:Work>
    </rdf:RDF>
  </metadata>
  <g
     inkscape:label="Layer 1"
     inkscape:groupmode="layer"
     id="layer1"
     transform="translate(-53.924381,50.990082)">
    <rect
       style="fill:none;stroke:none;stroke-width:2.56402016"
       id="rect13299"
       width="197.556"
       height="141.11111"
       x="53.924381"
       y="-50.990082"
       inkscape:export-xdpi="64.290001"
       inkscape:export-ydpi="64.290001" />
    <path
       id="rect884"
       d="m 76.748092,-28.601543 v 16.092611 64.149228 16.0922 h 31.082578 v -16.0922 H 92.840277 V -12.508932 H 107.83067 V -28.601543 H 92.840277 Z"
       style="opacity:1;vector-effect:none;fill:#f9f9f9;fill-opacity:1;stroke:#4d4d4d;stroke-width:1.00213003;stroke-linecap:butt;stroke-linejoin:round;stroke-miterlimit:4;stroke-dasharray:none;stroke-dashoffset:0;stroke-opacity:1"
       inkscape:connector-curvature="0" />
    <path
       inkscape:connector-curvature="0"
       id="path932"
       d="m 78.511701,-26.837936 h 27.555359 v 12.565439 H 91.077135 v 67.675933 h 14.990095 v 12.56561 H 78.511522 Z"
       style="fill:none;stroke:#4d4d4d;stroke-width:0.44534099;stroke-linecap:butt;stroke-linejoin:miter;stroke-miterlimit:4;stroke-dasharray:none;stroke-opacity:1" />
    <path
       inkscape:connector-curvature="0"
       style="opacity:1;vector-effect:none;fill:#f9f9f9;fill-opacity:1;stroke:#4d4d4d;stroke-width:1.00182998;stroke-linecap:butt;stroke-linejoin:round;stroke-miterlimit:4;stroke-dasharray:none;stroke-dashoffset:0;stroke-opacity:1"
       d="m 228.65682,-28.601693 v 16.092662 64.149447 16.09222 h -31.06387 v -16.09222 h 14.98136 v -64.149447 h -14.98136 v -16.092662 h 14.98136 z"
       id="path944" />
    <path
       style="fill:none;stroke:#4d4d4d;stroke-width:0.44534099;stroke-linecap:butt;stroke-linejoin:miter;stroke-miterlimit:4;stroke-dasharray:none;stroke-opacity:1"
       d="m 226.89427,-26.83808 h -27.53879 v 12.565478 h 14.9809 V 53.403546 H 199.3553 v 12.56566 h 27.53915 z"
       id="path946"
       inkscape:connector-curvature="0" />
    <path
       style="fill:#ececec;stroke:#4d4d4d;stroke-width:0.29938662;stroke-miterlimit:4;stroke-dasharray:none"
       d="m 172.80412,50.393926 -3.40603,-3.424599 c -0.27112,-0.272581 -0.69072,-0.328018 -1.02235,-0.134691 -2.37691,1.384285 -4.92779,2.446978 -7.58178,3.158438 -0.004,0.0015 -0.01,0.0023 -0.0143,0.0038 -0.3993,0.114675 -0.64971,0.499723 -0.60971,0.901573 v 4.756466 l -14.93546,1.94e-4 v -1.854789 h 7.0752 c 0.46718,0 0.84598,-0.380838 0.84598,-0.850548 0,-0.469694 -0.3788,-0.850547 -0.84598,-0.850547 h -7.0752 V 50.88604 c 0.0344,-0.404655 -0.22374,-0.785894 -0.62503,-0.89357 -2.65021,-0.710656 -5.19791,-1.771541 -7.57284,-3.15323 -0.006,-0.0038 -0.0121,-0.0076 -0.0183,-0.01056 -0.012,-0.0068 -0.0262,-0.01435 -0.0385,-0.02061 -0.3579,-0.179715 -0.78369,-0.08125 -1.02951,0.217538 l -3.35009,3.367965 -10.56084,-10.618031 3.35426,-3.372167 c 0.30415,-0.256969 0.39452,-0.702259 0.19468,-1.063891 -0.003,-0.0044 -0.005,-0.0086 -0.008,-0.01324 -1.37707,-2.389935 -2.43424,-4.954979 -3.14248,-7.624092 -0.1067,-0.401873 -0.48151,-0.660634 -0.884,-0.62882 h -4.74843 V 12.057396 h 4.81553 c 0.38318,0 0.71859,-0.258977 0.81732,-0.631209 0.70783,-2.6673271 1.76442,-5.2305724 3.14008,-7.6189138 0.19209,-0.333404 0.13715,-0.7550843 -0.13376,-1.0276588 l -3.40582,-3.42440595 10.56063,-10.61823245 3.40622,3.4246146 c 0.27112,0.2723583 0.69054,0.3275949 1.02235,0.1344836 2.37652,-1.3840993 4.927,-2.4465762 7.58079,-3.1580432 0.39931,-0.107058 0.65669,-0.484913 0.62504,-0.887567 v -4.774877 h 14.93546 v 1.262618 h -7.86027 c -0.46718,0 -0.84598,0.380838 -0.84598,0.85054 0,0.469702 0.3788,0.850547 0.84598,0.850547 h 7.86027 v 1.817985 c -0.0268,0.386632 0.21439,0.754274 0.59716,0.87275 0.0143,0.0044 0.0285,0.0084 0.0428,0.01205 2.64802,0.711459 5.19333,1.7725376 7.56587,3.1542266 0.33162,0.1931275 0.75123,0.1378824 1.02214,-0.134475 l 3.40622,-3.4248156 10.56084,10.618248 -3.40602,3.4243905 c -0.27091,0.2725814 -0.32605,0.6942549 -0.13377,1.0276666 1.37607,2.388743 2.43265,4.952189 3.14029,7.6189129 0.0989,0.372225 0.43415,0.631202 0.81732,0.631202 h 4.81553 v 15.016056 h -4.74009 c -0.40268,-0.03585 -0.78467,0.223951 -0.89197,0.628227 -0.70744,2.667305 -1.76421,5.231754 -3.14108,7.622096 -0.19208,0.333613 -0.13714,0.755078 0.13377,1.027652 l 3.40622,3.424413 z"
       id="path4491-4"
       inkscape:connector-curvature="0" />
    <path
       style="fill:#ffffff;stroke:#808080;stroke-width:0.99795538;stroke-miterlimit:4;stroke-dasharray:none;stroke-opacity:1"
       d="m 152.70201,-7.8299568 c -15.0249,0 -27.24837,12.2894318 -27.24837,27.3954178 0,15.10574 12.22347,27.395416 27.24837,27.395662 15.02465,0 27.24812,-12.289692 27.24812,-27.395662 0,-15.105986 -12.22324,-27.3954178 -27.24812,-27.3954178 z"
       id="path4708-6"
       inkscape:connector-curvature="0" />
    <path
       style="fill:#ffffff;stroke:#808080;stroke-width:0.29938662;stroke-miterlimit:4;stroke-dasharray:none;stroke-opacity:1"
       d="M 152.70201,44.91648 C 138.7985,44.916234 127.4873,33.544003 127.4873,19.565461 c 0,-13.9785581 11.3112,-25.3507819 25.21471,-25.3507819 13.90327,0 25.21447,11.3722238 25.21447,25.3507819 0,13.978542 -11.31096,25.351019 -25.21447,25.351019 z"
       id="path4485-2"
       inkscape:connector-curvature="0" />
    <path
       style="fill:#ffffff;stroke:#4d4d4d;stroke-width:1.17122912;stroke-miterlimit:4;stroke-dasharray:none"
       d="m 152.70205,40.672852 c -11.5764,0 -20.9941,-9.46887 -20.9941,-21.107391 0,-11.6385273 9.41804,-21.1074068 20.9941,-21.1074068 11.57604,0 20.99409,9.4688795 20.99409,21.1074068 0,11.638879 -9.41805,21.107391 -20.99409,21.107391 z"
       id="path4489-6"
       inkscape:connector-curvature="0" />
    <path
       style="fill:none;stroke:#4d4d4d;stroke-width:0.99795538;stroke-miterlimit:4;stroke-dasharray:none"
       d="M 184.63154,38.643566 181.61028,35.606 c 1.19016,-2.164183 2.13506,-4.456661 2.81562,-6.831398 h 4.27153 c 0.87822,0 1.59284,-0.719664 1.59284,-1.604428 V 11.960783 c 0,-0.884577 -0.71442,-1.604442 -1.59265,-1.604442 h -4.27172 c -0.68076,-2.3753243 -1.62567,-4.6677944 -2.81562,-6.8313911 l 3.02126,-3.03755024 c 0.30137,-0.30300418 0.46678,-0.70605936 0.46598,-1.13473222 -7.4e-4,-0.42767664 -0.16701,-0.82974154 -0.46798,-1.13192724 L 173.93255,-12.534587 c -0.30097,-0.3022 -0.70067,-0.469501 -1.12585,-0.470303 -0.002,0 -0.003,0 -0.003,0 -0.42538,0 -0.82508,0.166504 -1.12547,0.468503 l -3.02124,3.037752 c -2.15217,-1.196566 -4.43215,-2.146584 -6.79472,-2.831021 v -4.294355 c 0,-0.882978 -0.71581,-1.60144 -1.59582,-1.60144 H 145.1387 c -0.87984,0 -1.59583,0.718265 -1.59583,1.60144 v 4.294756 c -2.36277,0.684437 -4.64295,1.634456 -6.79473,2.8308277 l -3.02144,-3.0379597 c -0.30057,-0.301999 -0.70008,-0.468304 -1.12546,-0.468304 -8.6e-4,0 -0.002,0 -0.003,0 -0.42538,6.03e-4 -0.82548,0.167703 -1.12625,0.470507 l -10.69664,10.7545218 c -0.30117,0.3025881 -0.46779,0.704653 -0.46857,1.13232964 -8.3e-4,0.42887364 0.16461,0.83172804 0.46598,1.13473222 l 3.02125,3.03774424 c -1.18974,2.163201 -2.13446,4.455672 -2.81542,6.8311971 h -4.27172 c -0.87823,0 -1.59283,0.719865 -1.59283,1.60465 v 15.209183 c 0,0.884764 0.7146,1.604428 1.59283,1.604428 h 4.27151 c 0.68097,2.375741 1.62589,4.668011 2.81563,6.831398 l -3.02085,3.037164 c -0.30157,0.302989 -0.46718,0.70606 -0.46619,1.135126 8.3e-4,0.427878 0.16721,0.829928 0.46818,1.132128 l 10.6968,10.754725 c 0.30096,0.302594 0.70087,0.46971 1.12605,0.470505 8.5e-4,0 0.002,0 0.003,0 0.42538,0 0.82509,-0.166303 1.12506,-0.468303 l 3.02145,-3.037559 c 2.15217,1.196373 4.43234,2.146191 6.79473,2.83082 v 4.294368 c 0,0.88317 0.716,1.601428 1.59581,1.601428 l 15.12775,-2e-4 c 0.87983,0 1.59583,-0.718251 1.59583,-1.601228 v -4.29456 c 2.36258,-0.684645 4.64294,-1.634656 6.79472,-2.83103 l 3.02105,3.037752 c 0.30157,0.303205 0.6951,0.466712 1.12905,0.468512 0.42517,-7.44e-4 0.82528,-0.168111 1.12585,-0.470713 l 10.69718,-10.75471 c 0.62185,-0.625614 0.62264,-1.642458 0.002,-2.266659 z"
       id="path4700-7"
       inkscape:connector-curvature="0" />
    <path
       inkscape:connector-curvature="0"
       style="fill:url(#linearGradient13202);fill-opacity:1;stroke:#000000;stroke-width:0;stroke-miterlimit:7.69810009;stroke-dasharray:none"
       d="m 152.54875,6.5389847 c -1.06048,0.00494 -2.07323,0.095587 -2.96433,0.2535345 -2.62508,0.4646957 -3.1017,1.4372726 -3.1017,3.2309418 v 2.368888 h 6.2034 v 0.789594 h -6.2034 -2.32808 c -1.80288,0 -3.38153,1.085785 -3.87532,3.151279 -0.56956,2.367512 -0.59483,3.844898 0,6.317001 0.44096,1.840138 1.49404,3.151244 3.29692,3.151244 h 2.13286 v -2.839728 c 0,-2.051582 1.77159,-3.861212 3.87532,-3.861212 h 6.19618 c 1.72478,0 3.10169,-1.422936 3.10169,-3.158518 v -5.918548 c 0,-1.6844516 -1.41825,-2.9497939 -3.10169,-3.2309418 -1.06566,-0.1777214 -2.17136,-0.2584781 -3.23185,-0.2535345 z M 149.194,8.4442015 c 0.64077,0 1.16404,0.5328816 1.16404,1.1880813 0,0.6528692 -0.52327,1.1808072 -1.16404,1.1808072 -0.64306,0 -1.16404,-0.527938 -1.16404,-1.1808072 0,-0.6551997 0.52098,-1.1880813 1.16404,-1.1880813 z"
       id="path4207" />
    <path
       inkscape:connector-curvature="0"
       style="fill:url(#linearGradient13204);fill-opacity:1;stroke:#000000;stroke-width:0;stroke-miterlimit:7.69810009;stroke-dasharray:none"
       d="m 159.6559,13.181943 v 2.760066 c 0,2.13986 -1.81061,3.940909 -3.8753,3.940909 h -6.19618 c -1.69722,0 -3.1017,1.455458 -3.1017,3.158483 v 5.918549 c 0,1.684486 1.46188,2.675248 3.1017,3.158518 1.96364,0.578539 3.84668,0.683095 6.19618,0 1.56173,-0.453043 3.10169,-1.36485 3.10169,-3.158518 v -2.368853 h -6.19617 v -0.78963 h 6.19617 3.10169 c 1.80289,0 2.47471,-1.26001 3.10171,-3.151244 0.64765,-1.94699 0.62009,-3.819367 0,-6.317001 -0.44555,-1.798294 -1.29652,-3.151279 -3.10171,-3.151279 z m -3.48488,14.988413 c 0.64306,0 1.16404,0.527938 1.16404,1.180807 0,0.655199 -0.52098,1.188046 -1.16404,1.188046 -0.64078,0 -1.16404,-0.532847 -1.16404,-1.188046 0,-0.652869 0.52326,-1.180807 1.16404,-1.180807 z"
       id="path4209" />
  </g>
</svg>
