<?xml version="1.0" encoding="UTF-8" standalone="no"?>
<!-- Created with Inkscape (http://www.inkscape.org/) -->

<svg
   xmlns:dc="http://purl.org/dc/elements/1.1/"
   xmlns:cc="http://creativecommons.org/ns#"
   xmlns:rdf="http://www.w3.org/1999/02/22-rdf-syntax-ns#"
   xmlns:svg="http://www.w3.org/2000/svg"
   xmlns="http://www.w3.org/2000/svg"
   xmlns:sodipodi="http://sodipodi.sourceforge.net/DTD/sodipodi-0.dtd"
   xmlns:inkscape="http://www.inkscape.org/namespaces/inkscape"
   width="197.55556mm"
   height="141.11111mm"
   viewBox="0 0 197.55556 141.11111"
   version="1.1"
   id="svg1343"
   sodipodi:docname="featured_img.svg"
   inkscape:version="0.92.5 (0.92.5+69)">
  <defs
     id="defs1337">
    <linearGradient
       id="SVGID_1_"
       gradientUnits="userSpaceOnUse"
       x1="88.737198"
       y1="39.496399"
       x2="83.923897"
       y2="37.744499">
      <stop
         offset="0"
         style="stop-color:#FFFFFF"
         id="stop2724" />
      <stop
         offset="0.1884"
         style="stop-color:#FCFCFC"
         id="stop2726" />
      <stop
         offset="0.3217"
         style="stop-color:#F3F3F3"
         id="stop2728" />
      <stop
         offset="0.4381"
         style="stop-color:#E3E3E3"
         id="stop2730" />
      <stop
         offset="0.5447"
         style="stop-color:#CDCDCD"
         id="stop2732" />
      <stop
         offset="0.6448"
         style="stop-color:#B1B1B1"
         id="stop2734" />
      <stop
         offset="0.7399"
         style="stop-color:#8E8E8E"
         id="stop2736" />
      <stop
         offset="0.8311"
         style="stop-color:#646464"
         id="stop2738" />
      <stop
         offset="0.917"
         style="stop-color:#353535"
         id="stop2740" />
      <stop
         offset="1"
         style="stop-color:#000000"
         id="stop2742" />
    </linearGradient>
    <linearGradient
       id="SVGID_2_"
       gradientUnits="userSpaceOnUse"
       x1="176.7438"
       y1="61.144798"
       x2="73.711502"
       y2="23.6441">
      <stop
         offset="0"
         style="stop-color:#FFFFFF"
         id="stop2747" />
      <stop
         offset="0.1884"
         style="stop-color:#FCFCFC"
         id="stop2749" />
      <stop
         offset="0.3217"
         style="stop-color:#F3F3F3"
         id="stop2751" />
      <stop
         offset="0.4381"
         style="stop-color:#E3E3E3"
         id="stop2753" />
      <stop
         offset="0.5447"
         style="stop-color:#CDCDCD"
         id="stop2755" />
      <stop
         offset="0.6448"
         style="stop-color:#B1B1B1"
         id="stop2757" />
      <stop
         offset="0.7399"
         style="stop-color:#8E8E8E"
         id="stop2759" />
      <stop
         offset="0.8311"
         style="stop-color:#646464"
         id="stop2761" />
      <stop
         offset="0.917"
         style="stop-color:#353535"
         id="stop2763" />
      <stop
         offset="1"
         style="stop-color:#000000"
         id="stop2765" />
    </linearGradient>
    <linearGradient
       id="SVGID_3_"
       gradientUnits="userSpaceOnUse"
       x1="8.7971001"
       y1="77.124603"
       x2="113.9849"
       y2="137.8548"
       gradientTransform="matrix(0.26458333,0,0,0.26458333,-39.638846,42.513661)">
      <stop
         offset="0"
         style="stop-color:#FFFFFF"
         id="stop2772" />
      <stop
         offset="0.1884"
         style="stop-color:#FCFCFC"
         id="stop2774" />
      <stop
         offset="0.3217"
         style="stop-color:#F3F3F3"
         id="stop2776" />
      <stop
         offset="0.4381"
         style="stop-color:#E3E3E3"
         id="stop2778" />
      <stop
         offset="0.5447"
         style="stop-color:#CDCDCD"
         id="stop2780" />
      <stop
         offset="0.6448"
         style="stop-color:#B1B1B1"
         id="stop2782" />
      <stop
         offset="0.7399"
         style="stop-color:#8E8E8E"
         id="stop2784" />
      <stop
         offset="0.8311"
         style="stop-color:#646464"
         id="stop2786" />
      <stop
         offset="0.917"
         style="stop-color:#353535"
         id="stop2788" />
      <stop
         offset="1"
         style="stop-color:#000000"
         id="stop2790" />
    </linearGradient>
    <linearGradient
       id="SVGID_4_"
       gradientUnits="userSpaceOnUse"
       x1="85.050102"
       y1="41.2733"
       x2="86.086998"
       y2="38.4245">
      <stop
         offset="0"
         style="stop-color:#FFFFFF"
         id="stop2797-7" />
      <stop
         offset="0.1884"
         style="stop-color:#FCFCFC"
         id="stop2799-5" />
      <stop
         offset="0.3217"
         style="stop-color:#F3F3F3"
         id="stop2801" />
      <stop
         offset="0.4381"
         style="stop-color:#E3E3E3"
         id="stop2803" />
      <stop
         offset="0.5447"
         style="stop-color:#CDCDCD"
         id="stop2805" />
      <stop
         offset="0.6448"
         style="stop-color:#B1B1B1"
         id="stop2807" />
      <stop
         offset="0.7399"
         style="stop-color:#8E8E8E"
         id="stop2809" />
      <stop
         offset="0.8311"
         style="stop-color:#646464"
         id="stop2811" />
      <stop
         offset="0.917"
         style="stop-color:#353535"
         id="stop2813" />
      <stop
         offset="1"
         style="stop-color:#000000"
         id="stop2815" />
    </linearGradient>
    <linearGradient
       id="SVGID_5_"
       gradientUnits="userSpaceOnUse"
       x1="93.949997"
       y1="174.59219"
       x2="138.1377"
       y2="53.187599">
      <stop
         offset="0"
         style="stop-color:#FFFFFF"
         id="stop2820" />
      <stop
         offset="0.1884"
         style="stop-color:#FCFCFC"
         id="stop2822" />
      <stop
         offset="0.3217"
         style="stop-color:#F3F3F3"
         id="stop2824" />
      <stop
         offset="0.4381"
         style="stop-color:#E3E3E3"
         id="stop2826" />
      <stop
         offset="0.5447"
         style="stop-color:#CDCDCD"
         id="stop2828" />
      <stop
         offset="0.6448"
         style="stop-color:#B1B1B1"
         id="stop2830" />
      <stop
         offset="0.7399"
         style="stop-color:#8E8E8E"
         id="stop2832" />
      <stop
         offset="0.8311"
         style="stop-color:#646464"
         id="stop2834" />
      <stop
         offset="0.917"
         style="stop-color:#353535"
         id="stop2836" />
      <stop
         offset="1"
         style="stop-color:#000000"
         id="stop2838" />
    </linearGradient>
    <linearGradient
       id="SVGID_6_"
       gradientUnits="userSpaceOnUse"
       x1="48.9086"
       y1="3.3283999"
       x2="48.9086"
       y2="134.1741"
       gradientTransform="matrix(0.26458333,0,0,0.26458333,-39.638846,42.513661)">
      <stop
         offset="0"
         style="stop-color:#FFFFFF"
         id="stop2859" />
      <stop
         offset="0.1884"
         style="stop-color:#FCFCFC"
         id="stop2861" />
      <stop
         offset="0.3217"
         style="stop-color:#F3F3F3"
         id="stop2863" />
      <stop
         offset="0.4381"
         style="stop-color:#E3E3E3"
         id="stop2865" />
      <stop
         offset="0.5447"
         style="stop-color:#CDCDCD"
         id="stop2867" />
      <stop
         offset="0.6448"
         style="stop-color:#B1B1B1"
         id="stop2869" />
      <stop
         offset="0.7399"
         style="stop-color:#8E8E8E"
         id="stop2871" />
      <stop
         offset="0.8311"
         style="stop-color:#646464"
         id="stop2873" />
      <stop
         offset="0.917"
         style="stop-color:#353535"
         id="stop2875" />
      <stop
         offset="1"
         style="stop-color:#000000"
         id="stop2877" />
    </linearGradient>
    <linearGradient
       id="SVGID_7_"
       gradientUnits="userSpaceOnUse"
       x1="35.290901"
       y1="43.2855"
       x2="124.4093"
       y2="43.2855"
       gradientTransform="matrix(0.26458333,0,0,0.26458333,-39.638846,42.513661)">
      <stop
         offset="0"
         style="stop-color:#FFFFFF"
         id="stop2884" />
      <stop
         offset="0.1884"
         style="stop-color:#FCFCFC"
         id="stop2886" />
      <stop
         offset="0.3217"
         style="stop-color:#F3F3F3"
         id="stop2888" />
      <stop
         offset="0.4381"
         style="stop-color:#E3E3E3"
         id="stop2890" />
      <stop
         offset="0.5447"
         style="stop-color:#CDCDCD"
         id="stop2892" />
      <stop
         offset="0.6448"
         style="stop-color:#B1B1B1"
         id="stop2894" />
      <stop
         offset="0.7399"
         style="stop-color:#8E8E8E"
         id="stop2896" />
      <stop
         offset="0.8311"
         style="stop-color:#646464"
         id="stop2898" />
      <stop
         offset="0.917"
         style="stop-color:#353535"
         id="stop2900" />
      <stop
         offset="1"
         style="stop-color:#000000"
         id="stop2902" />
    </linearGradient>
  </defs>
  <sodipodi:namedview
     id="base"
     pagecolor="#ffffff"
     bordercolor="#666666"
     borderopacity="1.0"
     inkscape:pageopacity="0.0"
     inkscape:pageshadow="2"
     inkscape:zoom="0.7"
     inkscape:cx="-350.28956"
     inkscape:cy="299.58086"
     inkscape:document-units="mm"
     inkscape:current-layer="layer1"
     showgrid="false"
     inkscape:window-width="2560"
     inkscape:window-height="993"
     inkscape:window-x="0"
     inkscape:window-y="384"
     inkscape:window-maximized="1"
     fit-margin-top="0"
     fit-margin-left="0"
     fit-margin-right="0"
     fit-margin-bottom="0" />
  <metadata
     id="metadata1340">
    <rdf:RDF>
      <cc:Work
         rdf:about="">
        <dc:format>image/svg+xml</dc:format>
        <dc:type
           rdf:resource="http://purl.org/dc/dcmitype/StillImage" />
        <dc:title></dc:title>
      </cc:Work>
    </rdf:RDF>
  </metadata>
  <g
     inkscape:label="Layer 1"
     inkscape:groupmode="layer"
     id="layer1"
     transform="translate(58.712303,4.1210337)">
    <rect
       style="fill:none;fill-opacity:1;stroke:none;stroke-width:3.38667035;stroke-miterlimit:4;stroke-dasharray:none;stroke-opacity:0"
       id="rect6192"
       width="197.55556"
       height="141.11111"
       x="-58.712303"
       y="-4.1210337"
       inkscape:export-xdpi="64.290001"
       inkscape:export-ydpi="64.290001" />
    <path
       inkscape:connector-curvature="0"
       d="M 22.274471,81.426381 35.977572,89.338013 32.987093,99.791897 14.716222,89.243213 Z"
       id="path3453"
       style="fill:#cccccc;stroke:#333333;stroke-width:2.22122002;stroke-miterlimit:4;stroke-dasharray:none"
       inkscape:export-xdpi="64.290001"
       inkscape:export-ydpi="64.290001" />
    <path
       inkscape:connector-curvature="0"
       d="M -0.79532844,82.528553 4.4662206,85.566163 14.48655,77.323522 26.643353,56.267607 11.355551,61.4826 Z"
       id="path3457"
       style="fill:#f25a74;stroke-width:0.18860599"
       inkscape:export-xdpi="64.290001"
       inkscape:export-ydpi="64.290001" />
    <path
       inkscape:connector-curvature="0"
       d="m 46.558108,109.86793 -5.26155,-3.03761 2.12816,-12.799178 12.15675,-21.056103 3.12754,15.846933 z"
       id="path3459"
       style="fill:#f25a74;stroke-width:0.18860599"
       inkscape:export-xdpi="64.290001"
       inkscape:export-ydpi="64.290001" />
    <path
       inkscape:connector-curvature="0"
       d="M -0.79532844,82.528553 4.4662206,85.566163 14.48655,77.323522 26.643353,56.267607 11.355551,61.4826 Z"
       id="path3461"
       style="fill:#b3b3b3;stroke:#333333;stroke-width:1.47232997;stroke-miterlimit:4;stroke-dasharray:none"
       inkscape:export-xdpi="64.290001"
       inkscape:export-ydpi="64.290001" />
    <path
       inkscape:connector-curvature="0"
       d="m 46.558108,109.86793 -5.26155,-3.03761 2.12816,-12.799178 12.15675,-21.056103 3.12754,15.846933 z"
       id="path3467"
       style="fill:#b3b3b3;stroke:#333333;stroke-width:1.47232997;stroke-miterlimit:4;stroke-dasharray:none"
       inkscape:export-xdpi="64.290001"
       inkscape:export-ydpi="64.290001" />
    <path
       inkscape:connector-curvature="0"
       d="m 75.270668,20.66085 c 1.27064,4.742138 1.39966,9.719884 0.3805,14.51519 -0.66822,3.139189 -1.82639,6.198777 -3.48145,9.065424 L 43.423208,94.034124 14.484161,77.326162 43.232618,27.534617 c 1.63772,-2.836617 3.68441,-5.349336 6.03941,-7.483857 5.96233,-5.403217 13.90631,-8.373369 22.20489,-8.023443 1.72236,2.711469 2.98694,5.623701 3.79336,8.633314 z"
       id="path3471"
       style="fill:#f9f9f9;stroke:#333333;stroke-width:2.68442011;stroke-miterlimit:4;stroke-dasharray:none"
       inkscape:export-xdpi="64.290001"
       inkscape:export-ydpi="64.290001" />
    <path
       inkscape:connector-curvature="0"
       d="m 75.270668,20.66085 c 1.27064,4.742138 1.39966,9.719884 0.3805,14.51519 l -0.1347,0.233304 -26.30801,-15.188933 0.064,-0.169433 c 5.96233,-5.403211 13.90631,-8.373369 22.2049,-8.023437 1.72236,2.711469 2.98693,5.623701 3.79336,8.633314 z"
       id="path3475"
       style="fill:none;stroke:#333333;stroke-width:2.68442011;stroke-miterlimit:4;stroke-dasharray:none"
       inkscape:export-xdpi="64.290001"
       inkscape:export-ydpi="64.290001" />
    <g
       id="g3590"
       transform="matrix(0.44595971,0.25747495,-0.25747495,0.44595971,-126.16711,-48.984926)"
       inkscape:export-xdpi="64.290001"
       inkscape:export-ydpi="64.290001">
      <path
         inkscape:connector-curvature="0"
         d="m 389.90476,119.54158 v 34.08424 c 1.9e-4,1.09593 0.8883,1.98404 1.98404,1.98404 1.20909,-0.11373 1.8705,-0.77513 1.98404,-1.98404 v -34.08424 c -1.9e-4,-1.09593 -0.8883,-1.98404 -1.98404,-1.98404 -1.09555,1.9e-4 -1.98366,0.8883 -1.98404,1.98404 z"
         id="path3495"
         style="fill:none;stroke:#333333;stroke-width:4.06500006;stroke-miterlimit:4;stroke-dasharray:none" />
      <path
         inkscape:connector-curvature="0"
         d="m 383.21457,145.10495 -1.9e-4,-17.04231 c -1.9e-4,-1.09593 -0.8883,-1.98404 -1.98404,-1.98404 -1.09611,3.8e-4 -1.98404,0.88868 -1.98404,1.98404 l 1.9e-4,17.04231 c 1.9e-4,1.09592 0.88961,2.03585 1.98404,1.98404 0.82283,-0.0387 1.97412,-0.52412 1.98404,-1.98404 z"
         id="path3497"
         style="fill:none;stroke:#333333;stroke-width:4.06500006;stroke-miterlimit:4;stroke-dasharray:none" />
      <path
         inkscape:connector-curvature="0"
         d="m 400.56318,128.06283 v 17.04212 c 1.8e-4,1.09592 0.8883,1.98404 1.98403,1.98404 1.2091,-0.11373 1.8705,-0.77514 1.98404,-1.98404 v -17.04212 c -1.8e-4,-1.09593 -0.8883,-1.98404 -1.98404,-1.98404 -1.09555,1.9e-4 -1.98366,0.8883 -1.98403,1.98404 z"
         id="path3499"
         style="fill:none;stroke:#333333;stroke-width:4.06500006;stroke-miterlimit:4;stroke-dasharray:none" />
    </g>
    <path
       inkscape:connector-curvature="0"
       style="fill:#333333;fill-opacity:1;stroke:#333333;stroke-width:1.86295998;stroke-linecap:butt;stroke-linejoin:miter;stroke-miterlimit:4;stroke-dasharray:none;stroke-opacity:1"
       d="M 24.000232,61.575951 52.462558,78.008682"
       id="path3571"
       inkscape:export-xdpi="64.290001"
       inkscape:export-ydpi="64.290001" />
    <path
       inkscape:connector-curvature="0"
       style="fill:#333333;fill-opacity:1;stroke:#333333;stroke-width:1.86295998;stroke-linecap:butt;stroke-linejoin:miter;stroke-miterlimit:4;stroke-dasharray:none;stroke-opacity:1"
       d="M 19.420313,69.508617 47.882628,85.941353"
       id="path3575"
       inkscape:export-xdpi="64.290001"
       inkscape:export-ydpi="64.290001" />
    <g
       id="g3598"
       transform="matrix(0.66339701,0.38301245,-0.38301245,0.66339701,56.406968,-3.1078866)"
       inkscape:export-xdpi="64.290001"
       inkscape:export-ydpi="64.290001"
       style="fill:#333333;fill-opacity:1">
      <g
         id="g2847"
         transform="matrix(0.1698892,0,0,0.1698892,-20.652673,54.114921)"
         style="fill:#333333;fill-opacity:1">
        <path
           inkscape:connector-curvature="0"
           class="st7"
           d="m 319.7,78.5 c 0,-0.9 0,-2.9 0.1,-5.7 0,-2.9 0.1,-5.7 0.1,-8.4 0,-4.3 -1.2,-7.6 -3.5,-10.1 -2.3,-2.4 -5.8,-3.7 -10.5,-3.7 -1,0 -2.4,0 -4.1,0.1 -1.7,0 -3,0.1 -3.9,0.1 -0.7,0 -2.2,0 -4.5,-0.1 -2.3,0 -3.8,-0.1 -4.5,-0.1 -2.9,0 -4.4,1.4 -4.4,4.3 0,1.2 0,5.6 0.1,13 0,7.4 0.1,12.9 0.1,16.4 0,7.8 0,19.6 -0.1,32.1 v 0 c 0,3.4 2.7,6.1 6.1,6.1 3.4,0 6.1,-2.7 6.1,-6.1 v -7 c 0,-0.6 0.3,-0.9 0.9,-0.9 h 8.2 c 4.5,0 8,-1.2 10.3,-3.7 2.3,-2.4 3.5,-6 3.5,-10.6 0,-2.4 0,-5.3 -0.1,-8.5 0.1,-3.2 0.1,-5.6 0.1,-7.2 z m -12.2,14.9 c 0,2.7 -1.3,4.1 -4,4.1 h -5.8 c -0.5,0 -0.8,-0.3 -0.8,-0.8 V 62.8 c 0,-0.5 0.3,-0.8 0.8,-0.8 h 5.7 c 2.7,0 4.1,1.4 4.1,4.1 z"
           id="path2845"
           style="fill:#333333;fill-opacity:1" />
      </g>
      <g
         id="g2851"
         transform="matrix(0.1698892,0,0,0.1698892,-20.652673,54.114921)"
         style="fill:#333333;fill-opacity:1">
        <path
           inkscape:connector-curvature="0"
           class="st7"
           d="m 235.7,78.5 c 0,-0.9 0,-2.9 0.1,-5.7 0,-2.9 0.1,-5.7 0.1,-8.4 0,-4.3 -1.2,-7.6 -3.5,-10.1 -2.3,-2.4 -5.8,-3.7 -10.5,-3.7 -1,0 -2.4,0 -4.1,0.1 -1.7,0 -3,0.1 -3.9,0.1 -0.7,0 -2.2,0 -4.5,-0.1 -2.3,0 -3.8,-0.1 -4.5,-0.1 -2.9,0 -4.4,1.4 -4.4,4.3 0,1.2 0,5.6 0.1,13 0,7.4 0.1,12.9 0.1,16.4 0,7.8 0,19.6 -0.1,32.1 v 0 c 0,3.4 2.7,6.1 6.1,6.1 3.4,0 6.1,-2.7 6.1,-6.1 v 0 -7 c 0,-0.6 0.3,-0.9 0.9,-0.9 h 8.2 c 4.5,0 8,-1.2 10.3,-3.7 2.3,-2.4 3.5,-6 3.5,-10.6 0,-2.4 0,-5.3 -0.1,-8.5 0.1,-3.2 0.1,-5.6 0.1,-7.2 z m -12.2,14.9 c 0,2.7 -1.3,4.1 -4,4.1 h -5.8 c -0.5,0 -0.8,-0.3 -0.8,-0.8 V 62.8 c 0,-0.5 0.3,-0.8 0.8,-0.8 h 5.7 c 2.7,0 4.1,1.4 4.1,4.1 z"
           id="path2849"
           style="fill:#333333;fill-opacity:1" />
      </g>
      <path
         inkscape:connector-curvature="0"
         class="st7"
         d="m 40.745284,70.152461 c 0,-0.237844 0,-0.696545 -0.01699,-1.41008 0,-0.713534 -0.01699,-1.223202 -0.01699,-1.529003 l 0.01699,-3.448751 c 0,-0.577623 -0.47569,-1.036324 -1.036324,-1.036324 -0.577624,0 -1.036324,0.458701 -1.036324,1.036324 v 0 6.183967 c 0,0.458701 -0.254834,0.696546 -0.764502,0.696546 h -0.135911 -0.135912 c -0.509667,0 -0.764501,-0.237845 -0.764501,-0.696546 v -6.183967 0 c 0,-0.577623 -0.458701,-1.036324 -1.036324,-1.036324 -0.577623,0 -1.036324,0.458701 -1.036324,1.036324 l 0.01699,3.448751 c 0,0.305801 0,0.815469 -0.01699,1.529003 0,0.713535 -0.01699,1.172236 -0.01699,1.41008 0,0.713535 0.203867,1.291158 0.594612,1.73287 0.390746,0.441712 0.968369,0.662568 1.73287,0.662568 h 0.64558 0.101933 c -0.1529,0.407734 -0.288812,0.730524 -0.390745,0.985358 -0.203867,0.526656 0.05096,1.121268 0.577623,1.325135 0.526657,0.203867 1.121268,-0.05096 1.325136,-0.577623 v 0 l 1.189224,-3.108973 c 0.135911,-0.3058 0.203867,-0.645578 0.203867,-1.019335 z"
         id="path2853"
         style="fill:#333333;fill-opacity:1;stroke-width:0.169889" />
      <path
         inkscape:connector-curvature="0"
         class="st7"
         d="m 26.474591,70.152461 c 0,-0.237844 0,-0.696545 -0.01699,-1.41008 0,-0.713534 -0.01699,-1.223202 -0.01699,-1.529003 l 0.01699,-3.448751 c 0,-0.577623 -0.475689,-1.036324 -1.036324,-1.036324 -0.577623,0 -1.036324,0.458701 -1.036324,1.036324 v 0 6.183967 c 0,0.458701 -0.254833,0.696546 -0.764501,0.696546 h -0.135911 -0.135912 c -0.509668,0 -0.764501,-0.237845 -0.764501,-0.696546 v -6.183967 0 c 0,-0.577623 -0.458701,-1.036324 -1.036324,-1.036324 -0.577623,0 -1.036324,0.458701 -1.036324,1.036324 l 0.01699,3.448751 c 0,0.305801 0,0.815469 -0.01699,1.529003 0,0.713535 -0.01699,1.172236 -0.01699,1.41008 0,0.713535 0.203867,1.291158 0.594611,1.73287 0.390746,0.441712 0.968369,0.662568 1.73287,0.662568 h 0.64558 0.101933 c -0.1529,0.407734 -0.288812,0.730524 -0.390745,0.985358 -0.203867,0.526656 0.05096,1.121268 0.577623,1.325135 0.526657,0.203867 1.121268,-0.05096 1.325136,-0.577623 v 0 l 1.189224,-3.108973 c 0.135911,-0.3058 0.203867,-0.645578 0.203867,-1.019335 z"
         id="path2855"
         style="fill:#333333;fill-opacity:1;stroke-width:0.169889" />
    </g>
    <path
       inkscape:connector-curvature="0"
       d="m 17.200382,12.688279 c -0.30928,1.680018 -0.560009,1.930732 -2.240021,2.240019 1.680019,0.309286 1.930741,0.560001 2.240021,2.240018 0.30929,-1.680017 0.560009,-1.930732 2.24002,-2.240018 -1.680011,-0.309287 -1.930741,-0.560001 -2.24002,-2.240019 z"
       id="path3799"
       style="fill:#ececec;stroke:#333333;stroke-width:0.38400701;stroke-miterlimit:4;stroke-dasharray:none"
       inkscape:export-xdpi="64.290001"
       inkscape:export-ydpi="64.290001" />
    <path
       inkscape:connector-curvature="0"
       d="m 107.70541,34.370863 c -0.65448,3.555187 -1.18507,4.085738 -4.74024,4.74024 3.55519,0.654497 4.08576,1.18505 4.74024,4.740235 0.65452,-3.555185 1.18507,-4.085738 4.74025,-4.740235 -3.55518,-0.654502 -4.08576,-1.185053 -4.74025,-4.74024 z"
       id="path3801"
       style="fill:#ececec;stroke:#333333;stroke-width:0.81261998;stroke-miterlimit:4;stroke-dasharray:none"
       inkscape:export-xdpi="64.290001"
       inkscape:export-ydpi="64.290001" />
    <path
       inkscape:connector-curvature="0"
       d="m 102.12664,83.939283 c -2.05081,11.14 -3.713352,12.802444 -14.853292,14.853294 11.14,2.050843 12.802482,3.713293 14.853292,14.853263 2.05087,-11.13997 3.71335,-12.80242 14.85329,-14.853263 -11.13994,-2.05085 -12.80247,-3.713294 -14.85329,-14.853294 z"
       id="path3803"
       style="fill:#ececec;stroke:#333333;stroke-width:2.54629993;stroke-miterlimit:4;stroke-dasharray:none"
       inkscape:export-xdpi="64.290001"
       inkscape:export-ydpi="64.290001" />
    <path
       inkscape:connector-curvature="0"
       style="fill:#f9f9f9;stroke:#333333;stroke-width:0.90899998;stroke-miterlimit:4;stroke-dasharray:none"
       d="m -27.219408,96.147117 c 0.0416,0.30545 0.265059,0.55465 0.564099,0.62939 l 3.413811,0.85347 c 0.15989,0.04 0.161689,0.26672 0.0021,0.30674 -0.90601,0.2265 -2.58564,0.64641 -3.417541,0.85436 -0.299079,0.0747 -0.520538,0.3236 -0.562221,0.62905 l -0.905018,6.636763 c -0.0249,0.18258 -0.288811,0.18258 -0.313711,0 l -0.904981,-6.636643 c -0.0417,-0.30544 -0.263178,-0.55429 -0.562308,-0.62904 -0.83194,-0.2079 -2.51161,-0.62776 -3.41762,-0.85428 -0.159901,-0.04 -0.159901,-0.2663 0,-0.30626 0.90609,-0.22652 2.585849,-0.64651 3.41775,-0.85454 0.29904,-0.0748 0.520499,-0.3236 0.562131,-0.62901 l 0.905028,-6.636844 c 0.0249,-0.182571 0.288761,-0.182999 0.313661,-5.3e-4 0.28171,2.065521 0.84936,6.228401 0.905111,6.637274 z"
       id="path3809"
       inkscape:export-xdpi="64.290001"
       inkscape:export-ydpi="64.290001" />
    <path
       inkscape:connector-curvature="0"
       d="m -6.3792804,28.897091 c 0,4.074904 -1.346657,7.83531 -3.619349,10.860336 -3.3019786,4.395166 -8.1375986,6.485091 -14.0581186,6.485091 -9.995509,0 -17.677471,-7.349916 -17.677471,-17.345427 0,-5.798875 1.885291,-10.960787 6.127191,-14.273099 3.069699,-2.397047 6.932679,-3.825339 11.129309,-3.825339 9.995511,0 18.0984386,8.102929 18.0984386,18.098438 z"
       id="path3902"
       style="fill:#ebe8eb;fill-opacity:1;stroke:#333333;stroke-width:1.92404997;stroke-miterlimit:4;stroke-dasharray:none"
       inkscape:export-xdpi="64.290001"
       inkscape:export-ydpi="64.290001" />
    <path
       inkscape:connector-curvature="0"
       d="m -9.5955794,37.44072 c -2.6726396,4.640813 -8.1593096,8.593045 -14.2751876,8.593045 -9.705572,0 -17.573908,-7.868338 -17.573908,-17.573911 0,-6.115886 3.640368,-11.968884 8.034956,-14.182051 -1.847932,2.781369 -3.096154,5.652737 -3.096154,9.243246 0,9.705575 7.868335,17.573911 17.573905,17.573911 3.590528,0 6.555021,-1.806303 9.3363886,-3.65424 z"
       id="path3904"
       style="fill:#dfdce0;fill-opacity:1;stroke-width:0.08231331"
       sodipodi:nodetypes="csscssc"
       inkscape:export-xdpi="64.290001"
       inkscape:export-ydpi="64.290001" />
    <path
       inkscape:connector-curvature="0"
       d="m -29.733468,26.184445 c 0,0.444789 -0.0901,0.868471 -0.25313,1.253837 -0.489032,1.156179 -1.619451,1.501193 -2.953731,1.501193 -1.77907,0 -2.60626,-0.848802 -2.60626,-2.627874 0,-1.329198 0.175562,-2.597443 1.32462,-3.089621 0.389012,-0.166574 0.81736,-0.258803 1.26723,-0.258803 1.77908,0 3.221271,1.442197 3.221271,3.221268 z"
       id="path3910"
       style="fill:#d4cfd5;stroke:#333333;stroke-width:1.10028994;stroke-miterlimit:4;stroke-dasharray:none"
       inkscape:export-xdpi="64.290001"
       inkscape:export-ydpi="64.290001" />
    <path
       inkscape:connector-curvature="0"
       d="m -21.722689,39.705291 c 0,0.736317 -0.247021,1.414902 -0.662729,1.95743 -0.588729,0.768358 -1.515771,0.698336 -2.558531,0.698336 -1.77908,0 -3.221271,-0.876776 -3.221271,-2.655851 0,-1.779071 1.442191,-3.221265 3.221271,-3.221265 1.779061,0 3.22126,1.442279 3.22126,3.22135 z"
       id="path3912"
       style="fill:#d4cfd5;stroke:#333333;stroke-width:1.10028994;stroke-miterlimit:4;stroke-dasharray:none"
       inkscape:export-xdpi="64.290001"
       inkscape:export-ydpi="64.290001" />
    <path
       inkscape:connector-curvature="0"
       d="m -14.093368,21.818779 c 0,0.375109 -0.105931,0.725465 -0.289491,1.022836 -0.3434,0.556262 -0.903478,0.790739 -1.605209,0.790739 -1.076841,0 -1.810861,-0.718939 -1.810861,-1.795773 0,-0.779207 0.26321,-1.469491 0.923912,-1.781616 0.252367,-0.119189 0.534318,-0.185901 0.83194,-0.185901 1.076827,0 1.949709,0.87288 1.949709,1.949715 z"
       id="path3916"
       style="fill:#d4cfd5;stroke:#333333;stroke-width:0.586725;stroke-miterlimit:4;stroke-dasharray:none"
       inkscape:export-xdpi="64.290001"
       inkscape:export-ydpi="64.290001" />
    <path
       inkscape:connector-curvature="0"
       d="m -12.652267,36.738336 c 0,0.257278 -0.0499,0.502941 -0.140462,0.727837 -0.288388,0.716306 -0.989849,0.854908 -1.80934,0.854908 -1.076839,0 -1.38607,-0.488106 -1.38607,-1.564859 0,-0.942219 0.104761,-1.746097 0.993171,-1.927929 0.12686,-0.02593 0.258289,-0.03959 0.392899,-0.03959 1.076841,-8.2e-5 1.94973,0.872794 1.94973,1.94963 z"
       id="path3918"
       style="fill:#d4cfd5;stroke:#333333;stroke-width:0.586725;stroke-miterlimit:4;stroke-dasharray:none"
       inkscape:export-xdpi="64.290001"
       inkscape:export-ydpi="64.290001" />
    <circle
       cx="-23.757168"
       cy="16.520645"
       r="1.3139383"
       id="circle3926"
       style="fill:#d4cfd5;stroke:#333333;stroke-width:0.586725;stroke-miterlimit:4;stroke-dasharray:none"
       inkscape:export-xdpi="64.290001"
       inkscape:export-ydpi="64.290001" />
    <circle
       cx="-24.647274"
       cy="27.795078"
       r="1.4834787"
       id="circle3928"
       style="fill:#d4cfd5;stroke:#333333;stroke-width:0.586725;stroke-miterlimit:4;stroke-dasharray:none"
       inkscape:export-xdpi="64.290001"
       inkscape:export-ydpi="64.290001" />
    <circle
       cx="-38.210487"
       cy="32.457439"
       r="1.2291679"
       id="circle3930"
       style="fill:#c5bec6;stroke:#333333;stroke-width:0.586725;stroke-miterlimit:4;stroke-dasharray:none"
       inkscape:export-xdpi="64.290001"
       inkscape:export-ydpi="64.290001" />
    <circle
       cx="-12.270797"
       cy="30.168648"
       r="1.2291679"
       id="circle3932"
       style="fill:#d4cfd5;stroke:#333333;stroke-width:0.50141299;stroke-miterlimit:4;stroke-dasharray:none"
       inkscape:export-xdpi="64.290001"
       inkscape:export-ydpi="64.290001" />
    <circle
       cx="-32.31897"
       cy="19.869064"
       r="0.62136561"
       id="circle3934"
       style="fill:#d4cfd5;stroke-width:0.08477011"
       inkscape:export-xdpi="64.290001"
       inkscape:export-ydpi="64.290001" />
    <circle
       cx="-33.251427"
       cy="36.992649"
       r="0.62136561"
       id="circle3936"
       style="fill:#c5bec6;stroke-width:0.08477011"
       inkscape:export-xdpi="64.290001"
       inkscape:export-ydpi="64.290001" />
    <circle
       cx="-16.8908"
       cy="41.061615"
       r="0.62136561"
       id="circle3938"
       style="fill:#d4cfd5;stroke-width:0.08477011"
       inkscape:export-xdpi="64.290001"
       inkscape:export-ydpi="64.290001" />
    <circle
       cx="-9.7701025"
       cy="25.718204"
       r="0.62136561"
       id="circle3940"
       style="fill:#d4cfd5;stroke-width:0.08477011"
       inkscape:export-xdpi="64.290001"
       inkscape:export-ydpi="64.290001" />
    <circle
       cx="-18.586174"
       cy="16.308716"
       r="0.62136561"
       id="circle3942"
       style="fill:#d4cfd5;stroke-width:0.08477011"
       inkscape:export-xdpi="64.290001"
       inkscape:export-ydpi="64.290001" />
    <circle
       cx="-32.31897"
       cy="19.869404"
       r="0.63543743"
       id="circle3976"
       style="fill:#dfdce0;fill-opacity:1;stroke-width:0.08477011"
       inkscape:export-xdpi="64.290001"
       inkscape:export-ydpi="64.290001" />
    <circle
       cx="-18.586174"
       cy="16.308716"
       r="0.63543743"
       id="circle3978"
       style="fill:#dfdce0;fill-opacity:1;stroke-width:0.08477011"
       inkscape:export-xdpi="64.290001"
       inkscape:export-ydpi="64.290001" />
    <circle
       cx="-9.7701025"
       cy="25.718464"
       r="0.63543743"
       id="circle3980"
       style="fill:#dfdce0;fill-opacity:1;stroke-width:0.08477011"
       inkscape:export-xdpi="64.290001"
       inkscape:export-ydpi="64.290001" />
    <circle
       cx="-16.8908"
       cy="41.061615"
       r="0.63543743"
       id="circle3982"
       style="fill:#dfdce0;fill-opacity:1;stroke-width:0.08477011"
       inkscape:export-xdpi="64.290001"
       inkscape:export-ydpi="64.290001" />
    <circle
       cx="-33.251427"
       cy="36.992649"
       r="0.63543743"
       id="circle3984"
       style="fill:#dfdce0;fill-opacity:1;stroke-width:0.08477011"
       inkscape:export-xdpi="64.290001"
       inkscape:export-ydpi="64.290001" />
    <circle
       style="opacity:1;fill:#cccccc;fill-opacity:1;stroke:#333333;stroke-width:1.365;stroke-linecap:round;stroke-linejoin:round;stroke-miterlimit:4;stroke-dasharray:none;stroke-dashoffset:0;stroke-opacity:1"
       id="path2719"
       cx="55.767235"
       cy="39.235992"
       r="6.6618304" />
  </g>
</svg>
