<?xml version="1.0" encoding="UTF-8" standalone="no"?>
<!-- Created with Inkscape (http://www.inkscape.org/) -->

<svg
   xmlns:dc="http://purl.org/dc/elements/1.1/"
   xmlns:cc="http://creativecommons.org/ns#"
   xmlns:rdf="http://www.w3.org/1999/02/22-rdf-syntax-ns#"
   xmlns:svg="http://www.w3.org/2000/svg"
   xmlns="http://www.w3.org/2000/svg"
   xmlns:xlink="http://www.w3.org/1999/xlink"
   xmlns:sodipodi="http://sodipodi.sourceforge.net/DTD/sodipodi-0.dtd"
   xmlns:inkscape="http://www.inkscape.org/namespaces/inkscape"
   width="197.55849mm"
   height="141.10893mm"
   viewBox="0 0 197.55849 141.10893"
   version="1.1"
   id="svg8"
   inkscape:version="0.92.5 (0.92.5+69)"
   sodipodi:docname="featured_img.svg">
  <defs
     id="defs2">
    <linearGradient
       id="linearGradient1448">
      <stop
         stop-color="#ffd43b"
         offset="0"
         id="stop1444" />
      <stop
         stop-color="#ffe873"
         offset="1"
         id="stop1446"
         style="stop-color:#7137c8;stop-opacity:1" />
    </linearGradient>
    <linearGradient
       xlink:href="#e"
       gradientUnits="userSpaceOnUse"
       gradientTransform="matrix(0.07204893,0,0,0.07288751,-186.20307,84.860013)"
       y2="137.27"
       y1="192.35001"
       x2="112.03"
       x1="150.96001"
       id="a" />
    <linearGradient
       id="e">
      <stop
         id="stop3"
         offset="0"
         stop-color="#ffd43b" />
      <stop
         id="stop5"
         offset="1"
         stop-color="#ffe873" />
    </linearGradient>
    <linearGradient
       xlink:href="#d"
       gradientUnits="userSpaceOnUse"
       gradientTransform="matrix(0.07204893,0,0,0.07288751,-186.20307,84.860013)"
       y2="114.4"
       y1="20.604"
       x2="135.67"
       x1="26.649"
       id="b" />
    <linearGradient
       id="d">
      <stop
         id="stop8"
         offset="0"
         stop-color="#5a9fd4" />
      <stop
         id="stop10"
         offset="1"
         stop-color="#306998" />
    </linearGradient>
    <clipPath
       clipPathUnits="userSpaceOnUse"
       id="clipPath901">
      <text
         id="text905"
         y="140.88287"
         x="-233.78812"
         style="font-style:normal;font-variant:normal;font-weight:normal;font-stretch:normal;font-size:42.21300888px;line-height:1.25;font-family:'MADE TOMMY';-inkscape-font-specification:'MADE TOMMY';text-align:center;letter-spacing:0px;word-spacing:0px;text-anchor:middle;fill:#2c190f;fill-opacity:1;stroke:none;stroke-width:1.05532527"
         xml:space="preserve"><tspan
           style="fill:#2c190f;fill-opacity:1;stroke-width:1.05532527"
           y="140.88287"
           x="-233.78812"
           id="tspan903"
           sodipodi:role="line">7</tspan></text>
    </clipPath>
  </defs>
  <sodipodi:namedview
     id="base"
     pagecolor="#ffffff"
     bordercolor="#666666"
     borderopacity="1.0"
     inkscape:pageopacity="0.0"
     inkscape:pageshadow="2"
     inkscape:zoom="0.7"
     inkscape:cx="113.98624"
     inkscape:cy="234.3129"
     inkscape:document-units="mm"
     inkscape:current-layer="layer1"
     showgrid="false"
     fit-margin-top="0"
     fit-margin-left="0"
     fit-margin-right="0"
     fit-margin-bottom="0"
     inkscape:window-width="2560"
     inkscape:window-height="1003"
     inkscape:window-x="0"
     inkscape:window-y="0"
     inkscape:window-maximized="1" />
  <metadata
     id="metadata5">
    <rdf:RDF>
      <cc:Work
         rdf:about="">
        <dc:format>image/svg+xml</dc:format>
        <dc:type
           rdf:resource="http://purl.org/dc/dcmitype/StillImage" />
        <dc:title />
      </cc:Work>
    </rdf:RDF>
  </metadata>
  <g
     inkscape:label="Layer 1"
     inkscape:groupmode="layer"
     id="layer1"
     transform="translate(276.42804,-13.266963)">
    <rect
       id="rect37"
       height="141.10893"
       width="197.55849"
       y="13.266963"
       x="-276.42804"
       style="fill:none;fill-opacity:0.97222218;stroke-width:0.99999231"
       inkscape:export-xdpi="64.279999"
       inkscape:export-ydpi="64.279999" />
    <g
       id="g1049"
       transform="matrix(1.3713002,0,0,1.3713002,65.98203,-6.4301983)"
       inkscape:export-xdpi="64.279999"
       inkscape:export-ydpi="64.279999">
      <circle
         id="circle1081"
         r="8.9837265"
         cy="35.774506"
         cx="-211.40018"
         style="fill:#ffc269;stroke:#333333;stroke-width:1.13254321;stroke-miterlimit:4;stroke-dasharray:none;stroke-opacity:1" />
      <path
         id="path1083"
         d="m -185.99658,47.752805 c 0,-9.096296 -5.82647,-16.470165 -14.92258,-16.470165 -4.44784,0 -8.4839,1.76314 -11.44752,4.628566 0,0 -1.63915,5.692899 -1.63915,10.341363 0,7.486438 3.99038,13.478537 13.08667,13.478537 9.0963,0 14.92258,-4.491864 14.92258,-11.978301 z"
         inkscape:connector-curvature="0"
         style="fill:#ffa95f;stroke:#333333;stroke-width:1.13254321;stroke-miterlimit:4;stroke-dasharray:none;stroke-opacity:1" />
      <path
         id="path1085"
         d="m -206.90832,41.763653 c -2.0113,-1.252437 -4.16649,-3.045977 -5.4578,-5.85171 -3.09904,2.99476 -5.02321,7.190923 -5.02321,11.840862 0,7.446275 7.29667,11.925794 16.32535,11.97388 z"
         inkscape:connector-curvature="0"
         style="fill:#ff8b5a;stroke:#333333;stroke-width:1.13254321;stroke-miterlimit:4;stroke-dasharray:none;stroke-opacity:1" />
      <path
         id="path1087"
         d="m -196.4273,68.714833 h -10.48249 c -6.61536,0 -11.97829,5.362931 -11.97829,11.978302 v 19.464745 h 29.94722 V 76.201271 c 0,-4.134629 -3.35181,-7.486438 -7.48644,-7.486438 z"
         inkscape:connector-curvature="0"
         style="fill:#95d6a4;stroke:#333333;stroke-width:0.75502872;stroke-miterlimit:4;stroke-dasharray:none" />
      <path
         id="path1089"
         d="m -206.90832,68.714833 h -1.49728 c -6.61538,0 -11.97831,5.362931 -11.97831,11.978302 v 19.464745 h 2.99458 V 80.693135 c 0,-4.961666 4.02206,-8.983727 8.98373,-8.983727 h 1.49728 z"
         inkscape:connector-curvature="0"
         style="fill:#78c2a4;stroke:#333333;stroke-width:0.75502872;stroke-miterlimit:4;stroke-dasharray:none" />
      <path
         sodipodi:nodetypes="ssccss"
         id="path1091"
         d="m -202.41646,74.703983 c -3.30777,0 -5.98914,-2.681374 -5.98914,-5.98915 V 62.98614 l 11.9783,1.286707 v 4.44217 c 0,3.307592 -2.68155,5.988966 -5.98916,5.988966 z"
         inkscape:connector-curvature="0"
         style="fill:#f7d291;stroke:#333333;stroke-width:0.37751436;stroke-miterlimit:4;stroke-dasharray:none" />
      <path
         id="path1093"
         d="m -208.20582,66.661074 c 2.12069,1.220101 4.57105,1.928903 7.18826,1.928903 1.53071,0 3.00476,-0.242916 4.39049,-0.685294 v -6.551434 h -11.57875 z"
         inkscape:connector-curvature="0"
         style="fill:#ecbd83;stroke:none;stroke-width:0.3649224;stroke-miterlimit:4;stroke-dasharray:none" />
      <path
         id="path1095"
         d="m -182.9517,97.408879 h -25.52704 c -1.65389,0 -2.99458,-1.34068 -2.99458,-2.994568 V 80.693135 l 1.57043,-2.994577 h 26.95119 c 1.65387,0 2.99456,1.340687 2.99456,2.994577 v 14.972874 z"
         inkscape:connector-curvature="0"
         style="fill:#eceaec;stroke:#333333;stroke-width:0.75502872;stroke-miterlimit:4;stroke-dasharray:none" />
      <path
         id="path1097"
         d="m -209.90289,77.698558 c -1.65389,0 -2.99457,1.340687 -2.99457,2.994577 v 14.972874 c 0,1.65389 1.34068,2.99458 2.99457,2.99458 h 26.95119 c 1.65387,0 2.99456,-1.34069 2.99456,-2.99458 h -25.45388 c -2.48075,0 -4.49187,-2.011121 -4.49187,-4.491859 z"
         inkscape:connector-curvature="0"
         style="fill:#dad8db;stroke:#333333;stroke-width:0.75502872;stroke-miterlimit:4;stroke-dasharray:none" />
      <path
         sodipodi:nodetypes="ccsscsssccc"
         id="path1099"
         d="m -206.42889,41.839326 c 4.75992,3.375209 11.0311,4.393714 14.75176,4.747263 1.52952,0.145363 2.68597,1.441464 2.68597,2.97781 v 4.177372 c 0,6.088271 -4.54215,11.116077 -10.42261,11.878629 -0.50922,0.06596 -1.26054,-0.01548 -1.78764,-0.01548 -6.61538,0 -10.54752,-5.247784 -10.54752,-11.863155 v -0.0028 c 0,-3.160757 -0.11478,-6.211893 1.84604,-8.669051 0.18018,-0.225874 0.35999,-0.452853 0.5551,-0.668225 z"
         inkscape:connector-curvature="0"
         style="fill:#ffe1a0;stroke:#333333;stroke-width:0.75502872;stroke-miterlimit:4;stroke-dasharray:none" />
      <circle
         id="circle1103"
         r="2.9945753"
         cy="88.179581"
         cx="-196.42729"
         style="fill:#ffffff;stroke:#333333;stroke-width:0.37751436;stroke-miterlimit:4;stroke-dasharray:none" />
      <path
         sodipodi:nodetypes="ccccccccc"
         id="path1105"
         d="m -199.82758,60.11915 c -0.84247,0 -1.66102,-0.167744 -2.36544,-0.485479 -0.49453,-0.222329 -0.71505,-0.803213 -0.49261,-1.297747 0.2233,-0.49357 0.80323,-0.715055 1.29775,-0.491638 0.90864,0.408309 3.00584,0.408792 3.91533,-4.84e-4 0.4926,-0.222814 1.07445,-0.002 1.29775,0.492602 0.22233,0.494536 0.002,1.07542 -0.49261,1.297748 -0.70648,0.317252 -2.31867,0.484996 -3.16017,0.484996 z"
         inkscape:connector-curvature="0"
         style="fill:none;stroke:#ffffff;stroke-width:2.23749256;stroke-miterlimit:4;stroke-dasharray:none" />
      <circle
         id="circle1107"
         r="0.78394783"
         cy="51.496109"
         cx="-203.64073"
         style="fill:none;stroke:#78c2a4;stroke-width:1.57586992;stroke-miterlimit:4;stroke-dasharray:none;stroke-opacity:1" />
      <circle
         id="circle1109"
         r="0.78394783"
         cy="51.496109"
         cx="-195.20302"
         style="fill:none;stroke:#78c2a4;stroke-width:1.57586992;stroke-miterlimit:4;stroke-dasharray:none;stroke-opacity:1" />
      <path
         id="path1111"
         d="m -170.9736,98.660589 h -52.40487 c -0.8276,0 -1.4973,0.67043 -1.4973,1.497291 0,0.82685 0.6697,1.49729 1.4973,1.49729 h 52.40487 z"
         inkscape:connector-curvature="0"
         style="fill:#ecbd83;stroke:#333333;stroke-width:1.32130039;stroke-miterlimit:4;stroke-dasharray:none" />
      <path
         id="path1113"
         d="m -138.34941,68.555468 -5.67043,-2.835211 -7.43779,-1.166768 -10.53223,1.166768 -8.66758,4.333789 c -0.83588,0.417847 -1.54501,1.015694 -2.08979,1.732741 l 1.77382,27.280222 h 35.93491 V 73.912321 c -1.8e-4,-2.268501 -1.28192,-4.342263 -3.31091,-5.356853 z"
         inkscape:connector-curvature="0"
         style="fill:#c3ddff;stroke:#333333;stroke-width:1.13254321;stroke-miterlimit:4;stroke-dasharray:none" />
      <path
         id="path1115"
         d="m -163.48716,82.79398 c 0,-2.274214 -1.03375,-4.425171 -2.80979,-5.846003 l -6.44991,-5.161005 c -0.77711,1.023431 -1.22149,2.29024 -1.22149,3.623741 v 26.244267 c 0,1.65389 1.34069,2.99458 2.99457,2.99458 h 7.48644 V 82.79398 Z"
         inkscape:connector-curvature="0"
         style="fill:#a4ccff;stroke:#333333;stroke-width:1.13254321;stroke-miterlimit:4;stroke-dasharray:none" />
      <path
         id="path1117"
         d="m -136.53598,83.687708 h -17.96746 c -3.30776,0 -7.70143,1.976121 -8.37684,6.16749 l 2.38771,14.794542 h 26.95117 c 1.65389,0 2.99458,-1.34069 2.99458,-2.99457 V 89.67686 c 0,-3.307773 -2.68139,-5.989152 -5.98916,-5.989152 z"
         inkscape:connector-curvature="0"
         style="fill:#9b959d;stroke:#333333;stroke-width:1.51005745;stroke-miterlimit:4;stroke-dasharray:none" />
      <path
         id="path1119"
         d="m -154.50344,83.687708 h -2.99456 c -3.30778,0 -5.98916,2.681379 -5.98916,5.989152 v 14.97288 h 2.99459 V 89.67686 c 0,-3.307773 2.68137,-5.989152 5.98913,-5.989152 z"
         inkscape:connector-curvature="0"
         style="fill:#857e87;stroke:#333333;stroke-width:1.51005745;stroke-miterlimit:4;stroke-dasharray:none" />
      <path
         id="path1121"
         d="m -160.49257,59.640462 v 4.405824 c 0,0.56708 -0.32039,1.08552 -0.82779,1.339214 l -0.6695,0.334757 h 17.97002 l -1.33977,-0.669883 c -1.01439,-0.507203 -1.65535,-1.544083 -1.65535,-2.678242 l -0.002,-25.100342 h -21.29825 v 11.978302 c 0,5.57941 2.65926,9.058711 7.82267,10.39037 z"
         inkscape:connector-curvature="0"
         style="fill:#f5b97d;stroke:#333333;stroke-width:1.13254321;stroke-miterlimit:4;stroke-dasharray:none" />
      <path
         sodipodi:nodetypes="sccscscs"
         id="path1123"
         d="M -165.32091,49.250092 V 37.27179 h -2.42382 v 11.978302 c 0,6.037789 3.14728,9.355441 9.45605,10.32443 0.8976,0.127677 1.70178,-0.588266 1.70178,-1.494892 0,-0.739524 -0.54238,-1.365374 -1.27454,-1.469468 -4.35793,-0.619033 -7.45947,-2.831175 -7.45947,-7.36007 z"
         inkscape:connector-curvature="0"
         style="fill:#e3aa75;stroke-width:0.18423621" />
      <path
         id="path1125"
         d="m -153.00614,28.288064 h -10.48102 c -4.13463,0 -6.7633,2.759674 -6.7633,6.894304 0,1.653888 1.34068,2.994575 2.99457,2.994575 2.48074,0 3.76873,2.603257 3.76873,5.083998 v 4.491864 c 0,4.134629 3.35182,7.486437 7.48645,7.486437 h 7.48643 c 3.30778,0 5.98916,-2.681557 5.98916,-5.98915 V 38.769078 c 0,-5.788517 -4.69251,-10.481014 -10.48102,-10.481014 z"
         inkscape:connector-curvature="0"
         style="fill:#9f6e50;stroke:#333333;stroke-width:0.75502872;stroke-miterlimit:4;stroke-dasharray:none" />
      <path
         id="path1127"
         d="m -164.98444,28.288064 c -4.13463,0 -7.48645,3.351809 -7.48645,7.486439 0,1.653889 1.34069,2.994575 2.99458,2.994575 h 1.49729 c 2.48075,0 4.49186,2.011122 4.49186,4.491863 V 28.288064 Z"
         inkscape:connector-curvature="0"
         style="fill:#785353;stroke:#333333;stroke-width:0.75502872;stroke-miterlimit:4;stroke-dasharray:none" />
      <circle
         style="fill:none;stroke:#ffa95f;stroke-width:0.40144321;stroke-miterlimit:4;stroke-dasharray:none;stroke-opacity:1"
         cx="-199.71097"
         cy="54.843613"
         r="0.19970593"
         id="circle844" />
      <circle
         id="circle846"
         r="0.19970593"
         cy="54.843613"
         cx="-198.67676"
         style="fill:none;stroke:#ffa95f;stroke-width:0.40144321;stroke-miterlimit:4;stroke-dasharray:none;stroke-opacity:1" />
      <path
         inkscape:connector-curvature="0"
         id="path848"
         d="m -199.21043,54.496102 -0.1804,-2.114856"
         style="fill:none;stroke:#ffa95f;stroke-width:0.26426005;stroke-linecap:round;stroke-linejoin:round;stroke-miterlimit:4;stroke-dasharray:none;stroke-opacity:1" />
    </g>
  </g>
</svg>
