<?xml version="1.0" encoding="UTF-8" standalone="no"?>
<!-- Created with Inkscape (http://www.inkscape.org/) -->

<svg
   xmlns:dc="http://purl.org/dc/elements/1.1/"
   xmlns:cc="http://creativecommons.org/ns#"
   xmlns:rdf="http://www.w3.org/1999/02/22-rdf-syntax-ns#"
   xmlns:svg="http://www.w3.org/2000/svg"
   xmlns="http://www.w3.org/2000/svg"
   xmlns:xlink="http://www.w3.org/1999/xlink"
   xmlns:sodipodi="http://sodipodi.sourceforge.net/DTD/sodipodi-0.dtd"
   xmlns:inkscape="http://www.inkscape.org/namespaces/inkscape"
   width="194.84673mm"
   height="139.17592mm"
   viewBox="0 0 194.84673 139.17592"
   version="1.1"
   id="svg1280"
   inkscape:version="0.92.5 (0.92.5+69)"
   sodipodi:docname="featured_img.svg">
  <defs
     id="defs1274">
    <linearGradient
       inkscape:collect="always"
       xlink:href="#linearGradient4689"
       id="linearGradient30167"
       gradientUnits="userSpaceOnUse"
       gradientTransform="matrix(0.07969589,0,0,0.0804653,214.52047,-14.815395)"
       x1="26.648937"
       y1="20.603781"
       x2="135.66525"
       y2="114.39767" />
    <linearGradient
       id="linearGradient4689">
      <stop
         id="stop4691"
         offset="0"
         style="stop-color:#5a9fd4;stop-opacity:1;" />
      <stop
         id="stop4693"
         offset="1"
         style="stop-color:#306998;stop-opacity:1;" />
    </linearGradient>
    <linearGradient
       inkscape:collect="always"
       xlink:href="#linearGradient4671"
       id="linearGradient30169"
       gradientUnits="userSpaceOnUse"
       gradientTransform="matrix(0.07969589,0,0,0.0804653,214.52047,-14.815395)"
       x1="150.96111"
       y1="192.35176"
       x2="112.03144"
       y2="137.27299" />
    <linearGradient
       id="linearGradient4671">
      <stop
         id="stop4673"
         offset="0"
         style="stop-color:#ffd43b;stop-opacity:1;" />
      <stop
         id="stop4675"
         offset="1"
         style="stop-color:#ffe873;stop-opacity:1" />
    </linearGradient>
  </defs>
  <sodipodi:namedview
     id="base"
     pagecolor="#ffffff"
     bordercolor="#666666"
     borderopacity="1.0"
     inkscape:pageopacity="0.0"
     inkscape:pageshadow="2"
     inkscape:zoom="0.35"
     inkscape:cx="-205.45702"
     inkscape:cy="-213.89445"
     inkscape:document-units="mm"
     inkscape:current-layer="layer1"
     showgrid="false"
     fit-margin-top="0"
     fit-margin-left="0"
     fit-margin-right="0"
     fit-margin-bottom="0"
     inkscape:window-width="2560"
     inkscape:window-height="993"
     inkscape:window-x="0"
     inkscape:window-y="384"
     inkscape:window-maximized="1" />
  <metadata
     id="metadata1277">
    <rdf:RDF>
      <cc:Work
         rdf:about="">
        <dc:format>image/svg+xml</dc:format>
        <dc:type
           rdf:resource="http://purl.org/dc/dcmitype/StillImage" />
        <dc:title></dc:title>
      </cc:Work>
    </rdf:RDF>
  </metadata>
  <g
     inkscape:label="Layer 1"
     inkscape:groupmode="layer"
     id="layer1"
     transform="translate(-126.71651,35.605244)">
    <rect
       style="fill:none;stroke:none;stroke-width:2.52885699"
       id="rect13299"
       width="194.84673"
       height="139.17592"
       x="126.71651"
       y="-35.605244"
       inkscape:export-xdpi="1920"
       inkscape:export-ydpi="1920" />
    <path
       style="fill:#ffd42f;fill-opacity:1;stroke:#666666;stroke-width:1.16985452;stroke-linecap:round;stroke-linejoin:round;stroke-miterlimit:4;stroke-dasharray:none;stroke-opacity:1"
       d="m 249.10282,71.328471 v 20.655526 l -13.07048,-7.585034 -13.07048,7.585034 V 71.328471 Z"
       id="path1263"
       inkscape:connector-curvature="0"
       sodipodi:nodetypes="cccccc" />
    <rect
       style="opacity:1;fill:#ffd42f;fill-opacity:1;stroke:none;stroke-width:0.83327037;stroke-linecap:square;stroke-linejoin:round;stroke-miterlimit:4;stroke-dasharray:none;stroke-dashoffset:0;stroke-opacity:1"
       id="rect1243"
       width="16.4849"
       height="7.595983"
       x="250.65561"
       y="26.317507" />
    <rect
       y="34.553455"
       x="256.1178"
       height="7.595983"
       width="16.4849"
       id="rect1245"
       style="opacity:1;fill:#ececec;fill-opacity:1;stroke:none;stroke-width:0.83327037;stroke-linecap:square;stroke-linejoin:round;stroke-miterlimit:4;stroke-dasharray:none;stroke-dashoffset:0;stroke-opacity:1" />
    <rect
       style="opacity:1;fill:#35709f;fill-opacity:1;stroke:none;stroke-width:0.83327037;stroke-linecap:square;stroke-linejoin:round;stroke-miterlimit:4;stroke-dasharray:none;stroke-dashoffset:0;stroke-opacity:1"
       id="rect1247"
       width="16.4849"
       height="7.595983"
       x="253.54649"
       y="42.789406" />
    <rect
       style="opacity:1;fill:#ffd42f;fill-opacity:1;stroke:none;stroke-width:0.83327037;stroke-linecap:square;stroke-linejoin:round;stroke-miterlimit:4;stroke-dasharray:none;stroke-dashoffset:0;stroke-opacity:1"
       id="rect1239"
       width="16.4849"
       height="7.595983"
       x="252.62779"
       y="-14.248279" />
    <rect
       y="-6.0123248"
       x="256.44104"
       height="7.595983"
       width="16.4849"
       id="rect1241"
       style="opacity:1;fill:#35709f;fill-opacity:1;stroke:none;stroke-width:0.83327037;stroke-linecap:square;stroke-linejoin:round;stroke-miterlimit:4;stroke-dasharray:none;stroke-dashoffset:0;stroke-opacity:1" />
    <path
       style="fill:#000000;fill-opacity:0.16019419;stroke:none;stroke-width:0.31273326px;stroke-linecap:butt;stroke-linejoin:miter;stroke-opacity:1"
       d="m 223.54755,81.230927 h 24.96959 v -3.908159 h -24.96959 z"
       id="path1265"
       inkscape:connector-curvature="0" />
    <path
       style="fill:#f9f9f9;fill-opacity:1;stroke:#666666;stroke-width:1.92414093;stroke-miterlimit:4;stroke-dasharray:none"
       inkscape:connector-curvature="0"
       d="m 185.69788,-20.950516 3.11614,-2.65449 h 66.47765 c 2.54969,0 4.6165,2.066808 4.6165,4.616503 v 92.560878 c 0,2.549698 -2.41305,3.808626 -4.96274,3.808626 l -69.47837,-0.692485 z"
       id="path29930" />
    <path
       style="fill:#cccccc;fill-opacity:1;stroke:none;stroke-width:0.9566282;stroke-miterlimit:4;stroke-dasharray:none"
       inkscape:connector-curvature="0"
       d="m 258.89806,73.572375 c 0,2.550629 -2.06666,2.815921 -4.6165,2.879136 l -70.08404,-0.686873 v -99.369644 h 4.6165 v 95.099962 c 0,1.147433 0.93,2.077419 2.07743,2.077419 z"
       id="path29932"
       sodipodi:nodetypes="cscccssc" />
    <rect
       style="opacity:1;fill:#f9f9f9;fill-opacity:1;stroke:#b3b3b3;stroke-width:0.83327037;stroke-linecap:square;stroke-linejoin:round;stroke-miterlimit:4;stroke-dasharray:none;stroke-dashoffset:0;stroke-opacity:1"
       id="rect1235"
       width="50.101162"
       height="32.323334"
       x="199.46788"
       y="19.523108"
       rx="3.1998467"
       ry="3.1998467" />
    <path
       style="fill:#ffd42f;fill-opacity:1;stroke-width:0.20503044"
       id="path29942"
       d="m 213.73469,27.99726 c -0.005,-0.01394 -0.0109,-0.02809 -0.0166,-0.04183 -0.28971,-0.704485 -0.96877,-1.159448 -1.73025,-1.159448 -4.1e-4,0 -0.001,0 -0.002,0 -0.76231,6.15e-4 -1.44137,0.457013 -1.73005,1.162522 -0.005,0.01169 -0.009,0.02317 -0.0137,0.03486 L 204.72178,42.4884 c -0.30221,0.793672 0.096,1.68207 0.88963,1.984284 0.79388,0.30242 1.68207,-0.09616 1.98428,-0.889627 l 0.99768,-2.619674 h 6.74735 l 0.98702,2.615163 c 0.2325,0.615707 0.81745,0.995219 1.4391,0.995219 0.18023,0 0.36393,-0.03199 0.54252,-0.09944 0.79449,-0.299754 1.19573,-1.187126 0.89577,-1.981619 z m -3.9698,9.890873 2.21781,-5.823069 2.19752,5.823069 z"
       inkscape:connector-curvature="0" />
    <path
       style="fill:#ffd42f;fill-opacity:1;stroke-width:0.20503044"
       id="path29944"
       d="m 242.87874,41.601644 h -7.78665 l 8.61969,-12.49845 c 0.32436,-0.47034 0.36126,-1.081945 0.0955,-1.58796 -0.26572,-0.506015 -0.78998,-0.822788 -1.3614,-0.822788 h -10.01164 c -0.84923,0 -1.53772,0.688493 -1.53772,1.537729 0,0.849236 0.68849,1.537728 1.53772,1.537728 h 7.08299 l -8.61969,12.498451 c -0.32436,0.470339 -0.36126,1.081945 -0.0955,1.587961 0.26572,0.506015 0.78998,0.822786 1.3614,0.822786 h 10.7151 c 0.84923,0 1.53772,-0.688492 1.53772,-1.537728 0,-0.849235 -0.68828,-1.537729 -1.53752,-1.537729 z"
       inkscape:connector-curvature="0" />
    <path
       style="fill:#ffd42f;fill-opacity:1;stroke-width:0.20503044"
       id="path29946"
       d="m 229.15974,34.147149 h -7.62118 c -0.84924,0 -1.53773,0.688492 -1.53773,1.537728 0,0.849235 0.68849,1.537727 1.53773,1.537727 h 7.62118 c 0.84924,0 1.53773,-0.688492 1.53773,-1.537727 0,-0.849236 -0.68849,-1.537728 -1.53773,-1.537728 z"
       inkscape:connector-curvature="0" />
    <path
       id="path30161"
       d="m 224.42469,-13.157376 c -0.64937,0.003 -1.26951,0.0584 -1.81516,0.154953 -1.60743,0.28398 -1.89928,0.878376 -1.89928,1.974543 v 1.4477031 h 3.79856 v 0.4825678 h -3.79856 -1.42557 c -1.10397,0 -2.07063,0.6635478 -2.37299,1.9258437 -0.34877,1.4468834 -0.36424,2.3497626 0,3.8605413 0.27001,1.1245658 0.91485,1.9258438 2.01881,1.9258438 h 1.30604 v -1.735473 c 0,-1.2537764 1.08479,-2.3597112 2.37299,-2.3597117 h 3.79413 c 1.05615,0 1.89928,-0.8696015 1.89928,-1.9302709 V -11.02788 c 0,-1.029431 -0.86844,-1.802735 -1.89928,-1.974543 -0.65253,-0.108623 -1.3296,-0.15797 -1.97897,-0.154953 z m -2.05423,1.164361 c 0.39236,0 0.71278,0.325652 0.71278,0.726065 0,0.398993 -0.32042,0.721638 -0.71278,0.721638 -0.39377,0 -0.71279,-0.322645 -0.71279,-0.721638 0,-0.400413 0.31902,-0.726065 0.71279,-0.726065 z"
       style="fill:url(#linearGradient30167);fill-opacity:1;stroke-width:0.14167124"
       inkscape:connector-curvature="0" />
    <path
       id="path30163"
       d="m 228.77665,-9.0976091 v 1.6867732 c 0,1.3077326 -1.1087,2.4084115 -2.37299,2.4084115 h -3.79413 c -1.03928,0 -1.89928,0.8894806 -1.89928,1.9302709 v 3.61704351 c 0,1.02943179 0.89516,1.63493139 1.89928,1.93027089 1.20241,0.3535563 2.35546,0.4174527 3.79413,0 0.9563,-0.2768809 1.89928,-0.8341048 1.89928,-1.93027089 v -1.44770263 h -3.79413 V -1.3853803 h 3.79413 1.89928 c 1.10397,0 1.51535,-0.7700409 1.89928,-1.9258438 0.39659,-1.1898806 0.37971,-2.3341435 0,-3.8605413 -0.27283,-1.0990066 -0.7939,-1.9258437 -1.89928,-1.9258437 z m -2.13392,9.15993193 c 0.39377,5.3e-7 0.71279,0.32264474 0.71279,0.72163776 0,0.40041251 -0.31902,0.72606491 -0.71279,0.72606491 -0.39236,0 -0.71278,-0.3256524 -0.71278,-0.72606491 0,-0.39899302 0.32042,-0.72163776 0.71278,-0.72163776 z"
       style="fill:url(#linearGradient30169);fill-opacity:1;stroke-width:0.14167124"
       inkscape:connector-curvature="0" />
    <rect
       style="opacity:1;fill:#ffea81;fill-opacity:1;stroke:#666666;stroke-width:1.70015311;stroke-linecap:square;stroke-linejoin:miter;stroke-miterlimit:4;stroke-dasharray:none;stroke-dashoffset:0;stroke-opacity:1"
       id="rect30171"
       width="13.08423"
       height="100.58754"
       x="176.20456"
       y="-23.753052" />
    <rect
       y="-23.320482"
       x="177.03935"
       height="99.727951"
       width="8.261838"
       id="rect30173"
       style="opacity:1;fill:#ffd42f;fill-opacity:1;stroke:#666666;stroke-width:0.81896716;stroke-linecap:square;stroke-linejoin:round;stroke-miterlimit:4;stroke-dasharray:none;stroke-dashoffset:0;stroke-opacity:1" />
    <rect
       style="opacity:1;fill:#000000;fill-opacity:0.1747573;stroke:none;stroke-width:1.09443665;stroke-linecap:square;stroke-linejoin:round;stroke-miterlimit:4;stroke-dasharray:none;stroke-dashoffset:0;stroke-opacity:1"
       id="rect1249"
       width="1.8374224"
       height="7.595983"
       x="260.87024"
       y="-14.248279" />
    <rect
       y="-6.0123248"
       x="260.87024"
       height="7.595983"
       width="1.8374224"
       id="rect1251"
       style="opacity:1;fill:#000000;fill-opacity:0.1747573;stroke:none;stroke-width:1.09443665;stroke-linecap:square;stroke-linejoin:round;stroke-miterlimit:4;stroke-dasharray:none;stroke-dashoffset:0;stroke-opacity:1" />
    <rect
       style="opacity:1;fill:#000000;fill-opacity:0.1747573;stroke:none;stroke-width:1.09443665;stroke-linecap:square;stroke-linejoin:round;stroke-miterlimit:4;stroke-dasharray:none;stroke-dashoffset:0;stroke-opacity:1"
       id="rect1253"
       width="1.8374224"
       height="7.595983"
       x="260.87024"
       y="26.317507" />
    <rect
       y="34.553455"
       x="260.87024"
       height="7.595983"
       width="1.8374224"
       id="rect1255"
       style="opacity:1;fill:#000000;fill-opacity:0.1747573;stroke:none;stroke-width:1.09443665;stroke-linecap:square;stroke-linejoin:round;stroke-miterlimit:4;stroke-dasharray:none;stroke-dashoffset:0;stroke-opacity:1" />
    <rect
       style="opacity:1;fill:#000000;fill-opacity:0.1747573;stroke:none;stroke-width:1.09443665;stroke-linecap:square;stroke-linejoin:round;stroke-miterlimit:4;stroke-dasharray:none;stroke-dashoffset:0;stroke-opacity:1"
       id="rect1257"
       width="1.8374224"
       height="7.595983"
       x="260.87024"
       y="42.789406" />
  </g>
</svg>
