<?xml version="1.0" encoding="UTF-8" standalone="no"?>
<!-- Created with Inkscape (http://www.inkscape.org/) -->

<svg
   xmlns:dc="http://purl.org/dc/elements/1.1/"
   xmlns:cc="http://creativecommons.org/ns#"
   xmlns:rdf="http://www.w3.org/1999/02/22-rdf-syntax-ns#"
   xmlns:svg="http://www.w3.org/2000/svg"
   xmlns="http://www.w3.org/2000/svg"
   xmlns:sodipodi="http://sodipodi.sourceforge.net/DTD/sodipodi-0.dtd"
   xmlns:inkscape="http://www.inkscape.org/namespaces/inkscape"
   width="197.55556mm"
   height="141.11111mm"
   viewBox="0 0 197.55556 141.11111"
   version="1.1"
   id="svg3278"
   inkscape:version="0.92.5 (0.92.5+69)"
   sodipodi:docname="featured_icon.svg">
  <defs
     id="defs3272" />
  <sodipodi:namedview
     id="base"
     pagecolor="#ffffff"
     bordercolor="#666666"
     borderopacity="1.0"
     inkscape:pageopacity="0.0"
     inkscape:pageshadow="2"
     inkscape:zoom="0.35"
     inkscape:cx="-66.666663"
     inkscape:cy="-79.047612"
     inkscape:document-units="mm"
     inkscape:current-layer="layer1"
     showgrid="false"
     fit-margin-top="0"
     fit-margin-left="0"
     fit-margin-right="0"
     fit-margin-bottom="0"
     inkscape:window-width="2560"
     inkscape:window-height="993"
     inkscape:window-x="0"
     inkscape:window-y="384"
     inkscape:window-maximized="1" />
  <metadata
     id="metadata3275">
    <rdf:RDF>
      <cc:Work
         rdf:about="">
        <dc:format>image/svg+xml</dc:format>
        <dc:type
           rdf:resource="http://purl.org/dc/dcmitype/StillImage" />
        <dc:title></dc:title>
      </cc:Work>
    </rdf:RDF>
  </metadata>
  <g
     inkscape:label="Layer 1"
     inkscape:groupmode="layer"
     id="layer1"
     transform="translate(16.378969,13.192462)">
    <circle
       style="fill:none;fill-opacity:0.17254902;stroke:#74cbae;stroke-width:24.34659958;stroke-miterlimit:4;stroke-dasharray:none;stroke-opacity:0.17254902"
       id="circle4603"
       cx="82.398804"
       cy="57.363079"
       r="48.62331"
       inkscape:export-xdpi="64.290001"
       inkscape:export-ydpi="64.290001" />
    <circle
       style="fill:none;fill-opacity:0.309739;stroke:#54c098;stroke-width:22.36700058;stroke-miterlimit:4;stroke-dasharray:none;stroke-opacity:0.42745104"
       id="circle4512"
       cx="82.398804"
       cy="57.363079"
       r="37.453056"
       inkscape:export-xdpi="64.290001"
       inkscape:export-ydpi="64.290001" />
    <circle
       style="fill:#3ca27c;fill-opacity:0.63935601;stroke:#40a881;stroke-width:20.74430084;stroke-miterlimit:4;stroke-dasharray:none;stroke-opacity:0.79215698"
       id="circle4510"
       cx="82.398804"
       cy="57.363079"
       r="27.656975"
       inkscape:export-xdpi="64.290001"
       inkscape:export-ydpi="64.290001" />
    <rect
       style="fill:none;fill-opacity:1;stroke:none;stroke-width:0.56444401;stroke-linecap:round;stroke-linejoin:round;stroke-miterlimit:4;stroke-dasharray:none;stroke-dashoffset:0;stroke-opacity:1"
       id="rect6917-1"
       width="197.55556"
       height="141.11111"
       x="-16.378969"
       y="-13.192462"
       inkscape:export-xdpi="64.290001"
       inkscape:export-ydpi="64.290001" />
    <g
       id="g7860"
       transform="matrix(0.26109936,0,0,0.26109936,52.549328,-5.3556087)"
       inkscape:export-xdpi="64.290001"
       inkscape:export-ydpi="64.290001">
      <path
         inkscape:connector-curvature="0"
         style="fill:#d1d1d1;fill-opacity:0.98039198;stroke:none;stroke-width:0.84918398px;stroke-linecap:butt;stroke-linejoin:miter;stroke-opacity:1"
         d="m 4.6659736,252.70813 220.6653964,-0.42333 0.70764,44.6267 -19.0277,15.79699 -30.24003,8.59705 -37.68279,3.99952 -34.92179,0.68328 -34.969428,-1.89562 -35.255579,-6.7899 L 11.62647,305.1158 2.6052749,294.46259 Z"
         id="path2262" />
      <path
         inkscape:connector-curvature="0"
         id="path2264"
         d="M 223.45659,252.02043 A 109.13445,33.961525 0 0 1 114.32214,285.98195 109.13445,33.961525 0 0 1 5.1876971,252.02043 109.13445,33.961525 0 0 1 114.32214,218.0589 109.13445,33.961525 0 0 1 223.45659,252.02043 Z"
         style="fill:#ececec;fill-opacity:1;stroke:none;stroke-width:2.95495009;stroke-linecap:round;stroke-linejoin:round;stroke-miterlimit:4;stroke-dasharray:none;stroke-dashoffset:0;stroke-opacity:1" />
      <path
         inkscape:connector-curvature="0"
         style="fill:none;fill-opacity:0.98000004;stroke:#4d4d4d;stroke-width:5.58158016;stroke-linecap:round;stroke-linejoin:round;stroke-miterlimit:4;stroke-dasharray:none;stroke-dashoffset:0;stroke-opacity:1"
         d="M 114.32215,219.80412 A 111.05762,33.961525 0 0 0 3.2641162,253.76467 V 292.9876 A 111.05762,33.961525 0 0 0 114.32215,326.94999 111.05762,33.961525 0 0 0 225.38017,292.9876 V 253.76467 A 111.05762,33.961525 0 0 0 114.32215,219.80412 Z"
         id="path2266" />
      <path
         inkscape:connector-curvature="0"
         style="fill:#d1d1d1;fill-opacity:0.98039198;stroke:none;stroke-width:0.84918398px;stroke-linecap:butt;stroke-linejoin:miter;stroke-opacity:1"
         d="m 4.6659736,178.74501 220.6653964,-0.42334 0.70764,44.62671 -19.0277,15.79699 -30.24003,8.59705 -37.68279,3.99952 -34.92179,0.68328 L 69.197272,250.1296 33.941693,243.3397 11.62647,231.15268 2.6052749,220.49947 Z"
         id="path2254" />
      <path
         inkscape:connector-curvature="0"
         id="path2256"
         d="M 223.45659,178.05731 A 109.13445,33.961525 0 0 1 114.32214,212.01883 109.13445,33.961525 0 0 1 5.1876971,178.05731 109.13445,33.961525 0 0 1 114.32214,144.09578 109.13445,33.961525 0 0 1 223.45659,178.05731 Z"
         style="fill:#ececec;fill-opacity:1;stroke:none;stroke-width:2.95495009;stroke-linecap:round;stroke-linejoin:round;stroke-miterlimit:4;stroke-dasharray:none;stroke-dashoffset:0;stroke-opacity:1" />
      <path
         inkscape:connector-curvature="0"
         style="fill:none;fill-opacity:0.98000004;stroke:#4d4d4d;stroke-width:5.58158016;stroke-linecap:round;stroke-linejoin:round;stroke-miterlimit:4;stroke-dasharray:none;stroke-dashoffset:0;stroke-opacity:1"
         d="M 114.32215,145.841 A 111.05762,33.961525 0 0 0 3.2641162,179.80155 v 39.22293 A 111.05762,33.961525 0 0 0 114.32215,252.98687 111.05762,33.961525 0 0 0 225.38017,219.02448 V 179.80155 A 111.05762,33.961525 0 0 0 114.32215,145.841 Z"
         id="path2258" />
      <path
         inkscape:connector-curvature="0"
         style="fill:#d1d1d1;fill-opacity:0.98039198;stroke:none;stroke-width:0.84918398px;stroke-linecap:butt;stroke-linejoin:miter;stroke-opacity:1"
         d="m 4.6659736,104.78189 220.6653964,-0.42333 0.70764,44.62671 -19.0277,15.79698 -30.24003,8.59706 -37.68279,3.99952 L 104.1667,178.0621 69.197272,176.16649 33.941693,169.37658 11.62647,157.18956 2.6052749,146.53635 Z"
         id="path2247" />
      <path
         inkscape:connector-curvature="0"
         id="path6945"
         d="M 223.45659,104.0942 A 109.13445,33.961525 0 0 1 114.32214,138.05572 109.13445,33.961525 0 0 1 5.1876971,104.0942 109.13445,33.961525 0 0 1 114.32214,70.132671 109.13445,33.961525 0 0 1 223.45659,104.0942 Z"
         style="fill:#ececec;fill-opacity:1;stroke:none;stroke-width:2.95495009;stroke-linecap:round;stroke-linejoin:round;stroke-miterlimit:4;stroke-dasharray:none;stroke-dashoffset:0;stroke-opacity:1" />
      <path
         inkscape:connector-curvature="0"
         style="fill:none;fill-opacity:0.98000004;stroke:#4d4d4d;stroke-width:5.58158016;stroke-linecap:round;stroke-linejoin:round;stroke-miterlimit:4;stroke-dasharray:none;stroke-dashoffset:0;stroke-opacity:1"
         d="M 114.32215,71.877887 A 111.05762,33.961525 0 0 0 3.2641162,105.83843 v 39.22294 A 111.05762,33.961525 0 0 0 114.32215,179.02376 111.05762,33.961525 0 0 0 225.38017,145.06137 V 105.83843 A 111.05762,33.961525 0 0 0 114.32215,71.877887 Z"
         id="ellipse6947" />
    </g>
    <ellipse
       style="fill:#000000;fill-opacity:0.17223301;stroke:none;stroke-width:0.177186;stroke-miterlimit:4;stroke-dasharray:none;stroke-opacity:0.67568102"
       id="ellipse6872"
       cx="82.474182"
       cy="20.94923"
       rx="12.674896"
       ry="2.9797101"
       inkscape:export-xdpi="64.290001"
       inkscape:export-ydpi="64.290001" />
    <rect
       ry="0"
       rx="0"
       y="74.754356"
       x="24.582182"
       height="26.481758"
       width="115.63322"
       id="rect2647-2"
       style="fill:#0f4c35;fill-opacity:1;stroke:#1a1a1a;stroke-width:1.61418998;stroke-linecap:round;stroke-linejoin:round;stroke-miterlimit:4;stroke-dasharray:none;stroke-dashoffset:0;stroke-opacity:1"
       inkscape:export-xdpi="64.290001"
       inkscape:export-ydpi="64.290001" />
    <rect
       ry="0"
       rx="0"
       y="77.200043"
       x="27.354948"
       height="21.590324"
       width="110.08767"
       id="rect19164"
       style="fill:none;fill-opacity:1;stroke:#1a1a1a;stroke-width:0.70590305;stroke-linecap:round;stroke-linejoin:round;stroke-miterlimit:4;stroke-dasharray:none;stroke-dashoffset:0;stroke-opacity:1"
       inkscape:export-xdpi="64.290001"
       inkscape:export-ydpi="64.290001" />
    <g
       aria-label="makemigrations"
       style="font-style:normal;font-variant:normal;font-weight:normal;font-stretch:normal;font-size:10.62119961px;line-height:1.25;font-family:'MADE TOMMY';-inkscape-font-specification:'MADE TOMMY';letter-spacing:0px;word-spacing:0px;fill:#ffffff;fill-opacity:1;stroke:none;stroke-width:0.99574202"
       id="text2651"
       transform="matrix(1.2855414,0,0,1.2855414,113.88739,425.85331)"
       inkscape:export-xdpi="64.290001"
       inkscape:export-ydpi="64.290001">
      <path
         inkscape:connector-curvature="0"
         d="m -63.449077,-260.1904 h 1.635672 v -3.88737 c 0.276152,-0.085 0.477956,-0.11684 0.722244,-0.11684 0.541684,0 0.76473,0.22305 0.76473,0.76473 v 3.23948 h 1.635672 v -3.29258 c 0,-0.27616 -0.02124,-0.40361 -0.06373,-0.56293 0.25491,-0.10621 0.477956,-0.1487 0.732866,-0.1487 0.50982,0 0.732866,0.22305 0.732866,0.74349 v 3.26072 h 1.635672 v -3.33507 c 0,-0.74349 -0.127455,-1.14709 -0.467335,-1.47635 -0.350501,-0.33988 -0.892185,-0.50982 -1.614429,-0.50982 -0.647896,0 -1.178958,0.10621 -1.837476,0.37174 -0.477956,-0.27615 -0.881563,-0.37174 -1.550701,-0.37174 -0.754109,0 -1.455111,0.10621 -2.326053,0.3505 z"
         style="font-style:normal;font-variant:normal;font-weight:normal;font-stretch:normal;font-family:DTLProkyonT;-inkscape-font-specification:DTLProkyonT;fill:#ffffff;fill-opacity:1;stroke-width:0.99574202"
         id="path3083" />
      <path
         inkscape:connector-curvature="0"
         d="m -54.162126,-263.75914 c 0.637275,-0.32926 1.317034,-0.4992 1.922445,-0.4992 0.414229,0 0.562926,0.10622 0.562926,0.40361 v 0.36112 c -2.007415,0.16994 -2.825251,0.70101 -2.825251,1.8481 0,1.06212 0.616032,1.54008 1.986173,1.54008 0.67976,0 1.603808,-0.0743 2.336674,-0.18056 v -3.32445 c 0,-0.67976 -0.04248,-0.9984 -0.180562,-1.24269 -0.244288,-0.43547 -0.796593,-0.65851 -1.635671,-0.65851 -0.754108,0 -1.444489,0.14869 -2.166734,0.48857 z m 2.55972,2.43227 c -0.318637,0.0531 -0.541684,0.0743 -0.785972,0.0743 -0.446092,0 -0.647896,-0.1487 -0.647896,-0.46734 0,-0.42485 0.350501,-0.59479 1.433868,-0.701 z"
         style="font-style:normal;font-variant:normal;font-weight:normal;font-stretch:normal;font-family:DTLProkyonT;-inkscape-font-specification:DTLProkyonT;fill:#ffffff;fill-opacity:1;stroke-width:0.99574202"
         id="path3085" />
      <path
         inkscape:connector-curvature="0"
         d="m -48.813001,-260.1904 h 1.635671 v -2.72966 l 0.138077,0.22305 c 0.732865,1.14709 1.28517,1.92244 1.752505,2.50661 h 1.96493 c -0.477956,-0.5523 -1.115231,-1.38076 -1.603808,-2.08176 l -0.42485,-0.61604 -0.116833,-0.16994 c 0.605411,-0.66913 1.2002,-1.39138 1.731263,-2.103 l 0.169939,-0.23367 h -1.816232 c -0.499199,0.701 -1.072746,1.41263 -1.667536,2.07114 l -0.127455,0.1487 v -4.98136 h -1.635671 z"
         style="font-style:normal;font-variant:normal;font-weight:normal;font-stretch:normal;font-family:DTLProkyonT;-inkscape-font-specification:DTLProkyonT;fill:#ffffff;fill-opacity:1;stroke-width:0.99574202"
         id="path3087" />
      <path
         inkscape:connector-curvature="0"
         d="m -38.164706,-262.32527 0.01062,-0.11683 c 0.01062,-0.18056 0.01062,-0.32926 0.01062,-0.41423 0,-1.6994 -0.870942,-2.66593 -2.38978,-2.66593 -1.582565,0 -2.623447,1.08336 -2.623447,2.7509 0,1.6994 1.019639,2.69779 2.761523,2.69779 0.701002,0 1.348898,-0.15931 1.975552,-0.48857 v -1.26393 c -0.499199,0.32926 -1.093988,0.4992 -1.741884,0.4992 -0.860321,0 -1.35952,-0.3505 -1.412626,-0.9984 z m -3.388177,-1.13647 c 0.08497,-0.56293 0.467334,-0.91343 1.019639,-0.91343 0.531062,0 0.839078,0.31864 0.892185,0.91343 z"
         style="font-style:normal;font-variant:normal;font-weight:normal;font-stretch:normal;font-family:DTLProkyonT;-inkscape-font-specification:DTLProkyonT;fill:#ffffff;fill-opacity:1;stroke-width:0.99574202"
         id="path3089" />
      <path
         inkscape:connector-curvature="0"
         d="m -36.978944,-260.1904 h 1.635672 v -3.88737 c 0.276152,-0.085 0.477956,-0.11684 0.722244,-0.11684 0.541684,0 0.76473,0.22305 0.76473,0.76473 v 3.23948 h 1.635672 v -3.29258 c 0,-0.27616 -0.02124,-0.40361 -0.06373,-0.56293 0.25491,-0.10621 0.477956,-0.1487 0.732866,-0.1487 0.50982,0 0.732866,0.22305 0.732866,0.74349 v 3.26072 h 1.635671 v -3.33507 c 0,-0.74349 -0.127455,-1.14709 -0.467334,-1.47635 -0.350501,-0.33988 -0.892185,-0.50982 -1.614429,-0.50982 -0.647896,0 -1.178959,0.10621 -1.837476,0.37174 -0.477956,-0.27615 -0.881563,-0.37174 -1.550701,-0.37174 -0.754109,0 -1.455111,0.10621 -2.326053,0.3505 z"
         style="font-style:normal;font-variant:normal;font-weight:normal;font-stretch:normal;font-family:DTLProkyonT;-inkscape-font-specification:DTLProkyonT;fill:#ffffff;fill-opacity:1;stroke-width:0.99574202"
         id="path3091" />
      <path
         inkscape:connector-curvature="0"
         d="m -27.840693,-260.1904 h 1.635672 v -5.20441 h -1.635672 z m 0,-6.04349 h 1.635672 v -1.67815 h -1.635672 z"
         style="font-style:normal;font-variant:normal;font-weight:normal;font-stretch:normal;font-family:DTLProkyonT;-inkscape-font-specification:DTLProkyonT;fill:#ffffff;fill-opacity:1;stroke-width:0.99574202"
         id="path3093" />
      <path
         inkscape:connector-curvature="0"
         d="m -24.98341,-257.79 c 0.573547,0.22305 1.125852,0.31864 1.763127,0.31864 1.253307,0 2.13487,-0.39299 2.64469,-1.18958 0.350501,-0.54168 0.467334,-1.2002 0.467334,-2.6022 0,-0.1487 0,-0.24429 0,-0.4461 -0.01062,-0.22304 -0.01062,-0.44609 -0.02124,-0.66914 l -0.01062,-0.89218 -0.02124,-0.69038 v -0.16994 c 0.329259,0.0319 0.488577,0.0637 0.924048,0.1487 v -1.28517 c -0.785972,-0.15932 -1.433868,-0.23367 -2.13487,-0.23367 -2.38978,0 -3.738678,1.0515 -3.738678,2.91022 0,1.4976 0.913427,2.44289 2.347295,2.44289 0.42485,0 0.743487,-0.0637 1.062125,-0.22305 0,0.0106 0,0.0212 0,0.0319 0,1.04089 -0.456714,1.47636 -1.52946,1.47636 -0.60541,0 -1.178958,-0.13808 -1.752505,-0.43547 z m 3.250101,-6.26653 0.01062,0.54168 0.01062,0.75411 c 0,0.22305 0.01062,0.43547 0.01062,0.62665 v 0.4461 0.11683 c -0.212425,0.0637 -0.403608,0.10621 -0.616033,0.10621 -0.722244,0 -1.136473,-0.46733 -1.136473,-1.28517 0,-0.57355 0.201804,-0.97715 0.59479,-1.2002 0.265531,-0.15932 0.626653,-0.24429 0.955912,-0.23367 h 0.116834 c 0.02124,0 0.03186,0 0.05311,0 z"
         style="font-style:normal;font-variant:normal;font-weight:normal;font-stretch:normal;font-family:DTLProkyonT;-inkscape-font-specification:DTLProkyonT;fill:#ffffff;fill-opacity:1;stroke-width:0.99574202"
         id="path3095" />
      <path
         inkscape:connector-curvature="0"
         d="m -18.453998,-260.1904 h 1.635672 v -3.75992 c 0.33988,-0.11683 0.658517,-0.16994 1.030261,-0.16994 0.361122,0 0.669138,0.0531 0.966533,0.16994 v -1.39138 c -0.371744,-0.11684 -0.690381,-0.16994 -1.147095,-0.16994 -0.796593,0 -1.656914,0.16994 -2.485371,0.4992 z"
         style="font-style:normal;font-variant:normal;font-weight:normal;font-stretch:normal;font-family:DTLProkyonT;-inkscape-font-specification:DTLProkyonT;fill:#ffffff;fill-opacity:1;stroke-width:0.99574202"
         id="path3097" />
      <path
         inkscape:connector-curvature="0"
         d="m -14.000543,-263.75914 c 0.637275,-0.32926 1.317034,-0.4992 1.922445,-0.4992 0.414229,0 0.562926,0.10622 0.562926,0.40361 v 0.36112 c -2.007415,0.16994 -2.825251,0.70101 -2.825251,1.8481 0,1.06212 0.616032,1.54008 1.986173,1.54008 0.679759,0 1.603808,-0.0743 2.336674,-0.18056 v -3.32445 c 0,-0.67976 -0.04248,-0.9984 -0.180562,-1.24269 -0.244288,-0.43547 -0.796593,-0.65851 -1.635671,-0.65851 -0.754109,0 -1.444489,0.14869 -2.166734,0.48857 z m 2.55972,2.43227 c -0.318637,0.0531 -0.541684,0.0743 -0.785972,0.0743 -0.446093,0 -0.647896,-0.1487 -0.647896,-0.46734 0,-0.42485 0.350501,-0.59479 1.433868,-0.701 z"
         style="font-style:normal;font-variant:normal;font-weight:normal;font-stretch:normal;font-family:DTLProkyonT;-inkscape-font-specification:DTLProkyonT;fill:#ffffff;fill-opacity:1;stroke-width:0.99574202"
         id="path3099" />
      <path
         inkscape:connector-curvature="0"
         d="m -9.2148444,-264.06715 h 0.8390784 v 1.97555 c 0,0.88156 0.053106,1.11523 0.2867736,1.41262 0.2867736,0.3505 0.7965933,0.53107 1.5188379,0.53107 0.2867736,0 0.562926,-0.0319 0.8815633,-0.085 v -1.23207 c -0.1593187,0.0425 -0.2442886,0.0637 -0.3505011,0.0637 -0.5523047,0 -0.7010021,-0.19118 -0.7010021,-0.90281 v -1.76312 H -5.593 v -1.22145 h -1.1470944 v -1.45511 h -1.5613229 v 1.45511 h -0.9134271 z"
         style="font-style:normal;font-variant:normal;font-weight:normal;font-stretch:normal;font-family:DTLProkyonT;-inkscape-font-specification:DTLProkyonT;fill:#ffffff;fill-opacity:1;stroke-width:0.99574202"
         id="path3101" />
      <path
         inkscape:connector-curvature="0"
         d="m -4.6067181,-260.1904 h 1.6356717 v -5.20441 h -1.6356717 z m 0,-6.04349 h 1.6356717 v -1.67815 h -1.6356717 z"
         style="font-style:normal;font-variant:normal;font-weight:normal;font-stretch:normal;font-family:DTLProkyonT;-inkscape-font-specification:DTLProkyonT;fill:#ffffff;fill-opacity:1;stroke-width:0.99574202"
         id="path3103" />
      <path
         inkscape:connector-curvature="0"
         d="m -1.8334129,-262.7395 c 0,1.65692 1.00901826,2.68718 2.64468991,2.68718 1.65691409,0 2.69779609,-1.07275 2.69779609,-2.78277 0,-1.66753 -0.998397,-2.6978 -2.63406863,-2.6978 -1.66753537,0 -2.70841737,1.07275 -2.70841737,2.79339 z m 1.65691417,-0.0531 c 0,-0.90281 0.37174356,-1.42325 1.03026071,-1.42325 0.63727462,0 0.99839702,0.53106 0.99839702,1.42325 0,0.9028 -0.3717436,1.42324 -1.00901826,1.42324 -0.64789591,0 -1.01963947,-0.52044 -1.01963947,-1.42324 z"
         style="font-style:normal;font-variant:normal;font-weight:normal;font-stretch:normal;font-family:DTLProkyonT;-inkscape-font-specification:DTLProkyonT;fill:#ffffff;fill-opacity:1;stroke-width:0.99574202"
         id="path3105" />
      <path
         inkscape:connector-curvature="0"
         d="m 4.6347626,-260.1904 h 1.6356716 v -3.88737 c 0.3292586,-0.0956 0.5310623,-0.11684 0.7541084,-0.11684 0.5841684,0 0.7965933,0.23367 0.7965933,0.86032 v 3.14389 h 1.6356717 v -3.20761 c 0,-0.81784 -0.1062125,-1.20021 -0.4460923,-1.55071 -0.3611223,-0.37174 -0.9665332,-0.56292 -1.8056115,-0.56292 -0.8072146,0 -1.603808,0.11683 -2.5703412,0.37174 z"
         style="font-style:normal;font-variant:normal;font-weight:normal;font-stretch:normal;font-family:DTLProkyonT;-inkscape-font-specification:DTLProkyonT;fill:#ffffff;fill-opacity:1;stroke-width:0.99574202"
         id="path3107" />
      <path
         inkscape:connector-curvature="0"
         d="m 10.61535,-260.3922 c 0.52044,0.22304 1.019639,0.31863 1.635671,0.31863 1.455111,0 2.209219,-0.56292 2.209219,-1.65691 0,-0.71162 -0.318637,-1.09399 -1.338277,-1.56132 -0.276152,-0.12746 -0.488577,-0.23367 -0.647896,-0.30802 -0.07435,-0.0319 -0.138076,-0.0743 -0.180561,-0.11683 -0.05311,-0.0531 -0.08497,-0.12746 -0.08497,-0.20181 0,-0.22304 0.25491,-0.3505 0.711624,-0.3505 0.467334,0 0.86032,0.10622 1.348898,0.33988 v -1.29579 c -0.50982,-0.21242 -0.945291,-0.29739 -1.465732,-0.29739 -1.359519,0 -2.187976,0.62665 -2.187976,1.64629 0,0.74349 0.318637,1.12585 1.327655,1.59319 l 0.658517,0.30801 c 0.180561,0.0743 0.265531,0.18056 0.265531,0.31864 0,0.21242 -0.233667,0.32926 -0.669138,0.32926 -0.541684,0 -0.998397,-0.12746 -1.582565,-0.41423 z"
         style="font-style:normal;font-variant:normal;font-weight:normal;font-stretch:normal;font-family:DTLProkyonT;-inkscape-font-specification:DTLProkyonT;fill:#ffffff;fill-opacity:1;stroke-width:0.99574202"
         id="path3109" />
    </g>
  </g>
</svg>
