<?xml version="1.0" encoding="UTF-8" standalone="no"?>
<!-- Created with Inkscape (http://www.inkscape.org/) -->

<svg
   xmlns:dc="http://purl.org/dc/elements/1.1/"
   xmlns:cc="http://creativecommons.org/ns#"
   xmlns:rdf="http://www.w3.org/1999/02/22-rdf-syntax-ns#"
   xmlns:svg="http://www.w3.org/2000/svg"
   xmlns="http://www.w3.org/2000/svg"
   xmlns:sodipodi="http://sodipodi.sourceforge.net/DTD/sodipodi-0.dtd"
   xmlns:inkscape="http://www.inkscape.org/namespaces/inkscape"
   width="197.55556mm"
   height="141.11111mm"
   viewBox="0 0 197.55556 141.11111"
   version="1.1"
   id="svg1062"
   inkscape:version="0.92.5 (0.92.5+69)"
   sodipodi:docname="featured_icon.svg">
  <defs
     id="defs1056" />
  <sodipodi:namedview
     id="base"
     pagecolor="#ffffff"
     bordercolor="#666666"
     borderopacity="1.0"
     inkscape:pageopacity="0.0"
     inkscape:pageshadow="2"
     inkscape:zoom="0.35"
     inkscape:cx="-460.95238"
     inkscape:cy="60.952389"
     inkscape:document-units="mm"
     inkscape:current-layer="layer1"
     showgrid="false"
     fit-margin-top="0"
     fit-margin-left="0"
     fit-margin-right="0"
     fit-margin-bottom="0"
     inkscape:window-width="2560"
     inkscape:window-height="993"
     inkscape:window-x="0"
     inkscape:window-y="384"
     inkscape:window-maximized="1" />
  <metadata
     id="metadata1059">
    <rdf:RDF>
      <cc:Work
         rdf:about="">
        <dc:format>image/svg+xml</dc:format>
        <dc:type
           rdf:resource="http://purl.org/dc/dcmitype/StillImage" />
        <dc:title></dc:title>
      </cc:Work>
    </rdf:RDF>
  </metadata>
  <g
     inkscape:label="Layer 1"
     inkscape:groupmode="layer"
     id="layer1"
     transform="translate(-87.942459,-23.849205)">
    <rect
       y="23.849205"
       x="87.942459"
       height="141.11111"
       width="197.55556"
       id="rect7646"
       style="opacity:1;vector-effect:none;fill:none;fill-opacity:1;stroke:none;stroke-width:3.27026176;stroke-linecap:butt;stroke-linejoin:round;stroke-miterlimit:4;stroke-dasharray:none;stroke-dashoffset:0;stroke-opacity:1"
       inkscape:export-xdpi="64.290001"
       inkscape:export-ydpi="64.290001" />
    <polygon
       style="fill:#cccccc;fill-opacity:1;stroke:#333333;stroke-width:5.05562925;stroke-miterlimit:4;stroke-dasharray:none"
       points="219.018,360.705 219.008,360.716 160.37,359.69 177.631,319.339 177.641,319.339 189.679,307.302 189.679,307.291 238.383,258.587 329.207,167.763 329.573,167.407 341.119,178.942 370.95,208.773 359.437,220.277 359.437,220.287 325.303,254.411 320.006,259.707 279.749,299.964 252.032,327.681 "
       id="polygon8977"
       transform="matrix(0.20927167,0,0,0.20927167,132.85768,38.529441)"
       inkscape:export-xdpi="64.290001"
       inkscape:export-ydpi="64.290001" />
    <path
       inkscape:connector-curvature="0"
       style="fill:#b3b3b3;stroke:#333333;stroke-width:0.68417001;stroke-linecap:butt;stroke-linejoin:miter;stroke-miterlimit:4;stroke-dasharray:none;stroke-opacity:1"
       d="m 173.18336,108.50926 13.29123,-13.291225 5.506,5.506005 3.3062,-3.306201 -5.12094,-5.120949 15.19916,-15.19917 -3.53672,-3.536725 -31.79622,31.796215 z"
       id="path10642"
       inkscape:export-xdpi="64.290001"
       inkscape:export-ydpi="64.290001" />
    <path
       inkscape:connector-curvature="0"
       style="fill:#ffd43b;fill-opacity:1;stroke:#333333;stroke-width:1.85208333;stroke-miterlimit:4;stroke-dasharray:none"
       d="m 140.81628,142.95475 c -3.04908,-3.1981 -2.88041,-8.28884 0.24318,-11.41473 l 3.15435,-3.15205 4.18167,-4.18376 19.26974,-19.26764 c 0.53657,-0.53657 1.40839,-0.53657 1.94517,0 l 0.42064,0.42064 3.15205,3.15205 5.50698,5.50698 0.42064,0.42064 c 0.53887,0.53888 0.53887,1.4084 0,1.94518 l -26.71102,26.7129 c -3.20039,3.20039 -8.43993,3.15435 -11.5834,-0.14021 z"
       id="path8979"
       inkscape:export-xdpi="64.290001"
       inkscape:export-ydpi="64.290001" />
    <path
       inkscape:connector-curvature="0"
       style="fill:#808080;stroke:#333333;stroke-width:1.56954002;stroke-miterlimit:4;stroke-dasharray:none"
       d="m 230.78636,76.656019 c 6.66196,6.661955 8.56696,17.210085 3.49589,25.843801 -3.51284,-7.914867 -11.64158,-16.843025 -17.32623,-20.129846 l -0.27645,-9.212347 10.0532,-0.55499 0.003,0.0032 c 2.24444,2.244022 3.8755,3.875085 4.05045,4.050245 z"
       id="path8983"
       inkscape:export-xdpi="64.290001"
       inkscape:export-ydpi="64.290001" />
    <path
       inkscape:connector-curvature="0"
       style="fill:#ebb700;fill-opacity:1;stroke:#333333;stroke-width:1.04636002;stroke-miterlimit:4;stroke-dasharray:none"
       d="m 140.81628,142.95475 c -3.04908,-3.1981 -2.88041,-8.28884 0.24318,-11.41473 l 3.15435,-3.15205 4.18167,-4.18376 19.26974,-19.26764 c 0.53657,-0.53657 1.40839,-0.53657 1.94517,0 l 0.42064,0.42064 h 0.002 l 3.14996,3.15205 c 0,0 -19.1515,13.13641 -32.3668,34.44549 z"
       id="path8985"
       inkscape:export-xdpi="64.290001"
       inkscape:export-ydpi="64.290001" />
    <path
       inkscape:connector-curvature="0"
       style="fill:#808080;stroke:#333333;stroke-width:1.56954002;stroke-miterlimit:4;stroke-dasharray:none"
       d="m 213.35789,58.010099 -3.12779,8.674362 -8.28402,2.737445 v 0 c 0.84194,-1.189799 0.99634,-2.751902 0.34921,-4.057803 -0.24085,-0.485725 -0.57277,-0.953119 -0.99217,-1.372672 -0.4112,-0.411205 -0.86832,-0.738052 -1.34391,-0.977561 -1.30962,-0.659659 -2.88395,-0.504656 -4.08582,0.33564 v 0 l 1.79789,-8.442902 9.61377,-2.968903 v 0 c -0.88039,1.274006 -0.99605,2.947292 -0.23668,4.296714 0.22669,0.40286 0.51717,0.789025 0.86995,1.141659 0.42045,0.420444 0.88903,0.752808 1.3764,0.993957 1.30918,0.647288 2.87441,0.488707 4.06317,-0.359936 z"
       id="path8987"
       inkscape:export-xdpi="64.290001"
       inkscape:export-ydpi="64.290001" />
    <path
       inkscape:connector-curvature="0"
       style="fill:#cccccc;fill-opacity:1;stroke:#333333;stroke-width:1.05833328;stroke-miterlimit:4;stroke-dasharray:none"
       d="m 193.93614,66.088011 -7.34963,-7.349623 16.02352,-16.023511 7.34961,7.34962 c 0,0 -15.72006,15.729278 -16.0235,16.023514 z"
       id="path8989"
       inkscape:export-xdpi="64.290001"
       inkscape:export-ydpi="64.290001" />
    <path
       inkscape:connector-curvature="0"
       style="fill:#cccccc;fill-opacity:1;stroke:#333333;stroke-width:1.05833328;stroke-miterlimit:4;stroke-dasharray:none"
       d="m 229.82769,69.513997 -3.09471,3.08864 -6.68519,6.675766 -3.09157,3.091571 -3.15979,3.159792 -3.31005,-3.310049 0.002,-0.0016 -8.65841,-8.658405 -0.002,0.0016 -3.13197,-3.131957 c 0.28646,-0.295913 15.72924,-15.735348 16.02348,-16.023513 0,-2.12e-4 9.47938,9.479168 15.10816,15.108158 z"
       id="path8999"
       inkscape:export-xdpi="64.290001"
       inkscape:export-ydpi="64.290001" />
    <polygon
       style="fill:#808080;stroke:#333333;stroke-width:4.82148409;stroke-miterlimit:4;stroke-dasharray:none"
       points="301.966,316.644 311.101,307.508 332.79,329.197 289.364,372.623 267.675,350.934 276.81,341.799 "
       id="polygon9001"
       transform="matrix(0.20927167,0,0,0.20927167,132.85768,38.529441)"
       inkscape:export-xdpi="64.290001"
       inkscape:export-ydpi="64.290001" />
    <path
       inkscape:connector-curvature="0"
       style="fill:#306998;fill-opacity:1;stroke:#333333;stroke-width:1.85208333;stroke-miterlimit:4;stroke-dasharray:none"
       d="m 231.66844,137.33663 c 0,2.13353 -0.81491,4.26936 -2.44241,5.89686 -3.25731,3.25732 -8.5385,3.25732 -11.79581,0 l -16.49437,-16.49228 c 1.53333,-1.53333 1.53333,-4.01738 0,-5.55071 -1.53334,-1.53334 -4.01739,-1.53334 -5.54863,0 l -3.32742,-3.32742 1.35378,-1.35378 3.9341,-3.93201 5.15415,-5.15645 1.35378,-1.35378 3.32742,3.32742 c -1.53333,1.53124 -1.53333,4.01739 0,5.54863 1.53333,1.53334 4.01738,1.53334 5.55072,0 l 16.49228,16.49436 c 1.6275,1.62772 2.44241,3.76355 2.44241,5.89916 z"
       id="path9003"
       inkscape:export-xdpi="64.290001"
       inkscape:export-ydpi="64.290001" />
    <polygon
       style="fill:#cccccc;stroke:#333333;stroke-width:5.05722237;stroke-miterlimit:4;stroke-dasharray:none"
       points="93.962,80.106 98.647,113.325 301.966,316.644 276.81,341.799 73.491,138.481 40.272,133.795 13.574,80.251 40.418,53.407 "
       id="polygon9005"
       transform="matrix(0.20927167,0,0,0.20927167,132.85768,38.529441)"
       inkscape:export-xdpi="64.290001"
       inkscape:export-ydpi="64.290001" />
    <path
       inkscape:connector-curvature="0"
       style="fill:#244f72;fill-opacity:1;stroke:#333333;stroke-width:1.05833328;stroke-miterlimit:4;stroke-dasharray:none"
       d="m 229.22603,143.23349 c -3.25731,3.25732 -8.5385,3.25732 -11.79581,0 l -16.49437,-16.49228 c 1.53333,-1.53333 1.53333,-4.01738 0,-5.55071 -1.53334,-1.53334 -4.01739,-1.53334 -5.54863,0 l -3.32742,-3.32742 1.35378,-1.35378 3.9341,-3.93201 c 0.26054,0.33316 19.2193,24.49859 31.87835,30.6562 z"
       id="path9007"
       inkscape:export-xdpi="64.290001"
       inkscape:export-ydpi="64.290001" />
    <path
       inkscape:connector-curvature="0"
       style="fill:#b3b3b3;stroke:#333333;stroke-width:0.65146297;stroke-linecap:butt;stroke-linejoin:miter;stroke-miterlimit:4;stroke-dasharray:none;stroke-opacity:1"
       d="m 148.23727,67.509593 5.26443,-5.264438 -0.98043,-6.951798 -11.2358,11.235587 z"
       id="path10626"
       inkscape:export-xdpi="64.290001"
       inkscape:export-ydpi="64.290001" />
  </g>
</svg>
