<?xml version="1.0" encoding="UTF-8" standalone="no"?>
<!-- Created with Inkscape (http://www.inkscape.org/) -->

<svg
   xmlns:dc="http://purl.org/dc/elements/1.1/"
   xmlns:cc="http://creativecommons.org/ns#"
   xmlns:rdf="http://www.w3.org/1999/02/22-rdf-syntax-ns#"
   xmlns:svg="http://www.w3.org/2000/svg"
   xmlns="http://www.w3.org/2000/svg"
   xmlns:xlink="http://www.w3.org/1999/xlink"
   xmlns:sodipodi="http://sodipodi.sourceforge.net/DTD/sodipodi-0.dtd"
   xmlns:inkscape="http://www.inkscape.org/namespaces/inkscape"
   width="197.556mm"
   height="141.11111mm"
   viewBox="0 0 197.556 141.11111"
   version="1.1"
   id="svg1372"
   inkscape:version="0.92.5 (0.92.5+69)"
   sodipodi:docname="featured_img.svg">
  <defs
     id="defs1366">
    <linearGradient
       inkscape:collect="always"
       xlink:href="#linearGradient4689"
       id="linearGradient2641"
       gradientUnits="userSpaceOnUse"
       gradientTransform="matrix(0.06461441,0,0,0.06523822,-13.887469,35.042993)"
       x1="26.648937"
       y1="20.603781"
       x2="135.66525"
       y2="114.39767" />
    <linearGradient
       id="linearGradient4689">
      <stop
         id="stop4691"
         offset="0"
         style="stop-color:#5a9fd4;stop-opacity:1;" />
      <stop
         id="stop4693"
         offset="1"
         style="stop-color:#306998;stop-opacity:1;" />
    </linearGradient>
    <linearGradient
       inkscape:collect="always"
       xlink:href="#linearGradient4671"
       id="linearGradient2643"
       gradientUnits="userSpaceOnUse"
       gradientTransform="matrix(0.06461441,0,0,0.06523822,-13.887469,35.042993)"
       x1="150.96111"
       y1="192.35176"
       x2="112.03144"
       y2="137.27299" />
    <linearGradient
       id="linearGradient4671">
      <stop
         id="stop4673"
         offset="0"
         style="stop-color:#ffd43b;stop-opacity:1;" />
      <stop
         id="stop4675"
         offset="1"
         style="stop-color:#ffe873;stop-opacity:1" />
    </linearGradient>
    <linearGradient
       inkscape:collect="always"
       xlink:href="#linearGradient3070"
       id="linearGradient3064"
       x1="-156.72177"
       y1="59.82272"
       x2="-178.01868"
       y2="81.119621"
       gradientUnits="userSpaceOnUse"
       gradientTransform="matrix(0.87462057,0,0,0.87462057,213.06425,20.558215)" />
    <linearGradient
       inkscape:collect="always"
       id="linearGradient3070">
      <stop
         style="stop-color:#f8c200;stop-opacity:0.87378639"
         offset="0"
         id="stop3066" />
      <stop
         style="stop-color:#f8c200;stop-opacity:0;"
         offset="1"
         id="stop3068" />
    </linearGradient>
  </defs>
  <sodipodi:namedview
     id="base"
     pagecolor="#ffffff"
     bordercolor="#666666"
     borderopacity="1.0"
     inkscape:pageopacity="0.0"
     inkscape:pageshadow="2"
     inkscape:zoom="0.35"
     inkscape:cx="59.048455"
     inkscape:cy="3.8095297"
     inkscape:document-units="mm"
     inkscape:current-layer="layer1"
     showgrid="false"
     fit-margin-top="0"
     fit-margin-left="0"
     fit-margin-right="0"
     fit-margin-bottom="0"
     inkscape:window-width="2560"
     inkscape:window-height="993"
     inkscape:window-x="0"
     inkscape:window-y="384"
     inkscape:window-maximized="1" />
  <metadata
     id="metadata1369">
    <rdf:RDF>
      <cc:Work
         rdf:about="">
        <dc:format>image/svg+xml</dc:format>
        <dc:type
           rdf:resource="http://purl.org/dc/dcmitype/StillImage" />
        <dc:title></dc:title>
      </cc:Work>
    </rdf:RDF>
  </metadata>
  <g
     inkscape:label="Layer 1"
     inkscape:groupmode="layer"
     id="layer1"
     transform="translate(49.641094,-8.7301569)">
    <path
       style="fill:#cccccc;stroke:#4d4d4d;stroke-width:0.72723418;stroke-miterlimit:4;stroke-dasharray:none"
       id="path840"
       d="m 74.354215,29.841096 h -3.71446 v 9.286178 h 3.71446 z"
       inkscape:connector-curvature="0"
       inkscape:export-xdpi="64.290001"
       inkscape:export-ydpi="64.290001" />
    <path
       style="fill:#cccccc;stroke:#4d4d4d;stroke-width:0.72723418;stroke-miterlimit:4;stroke-dasharray:none"
       id="path844"
       d="m 66.925295,33.555566 h -3.71447 v 5.571708 h 3.71447 z"
       inkscape:connector-curvature="0"
       inkscape:export-xdpi="64.290001"
       inkscape:export-ydpi="64.290001" />
    <path
       style="fill:#ffdc51;fill-opacity:1;stroke:#4d4d4d;stroke-width:0.72723418;stroke-miterlimit:4;stroke-dasharray:none"
       inkscape:connector-curvature="0"
       d="m 74.354215,29.841096 h -3.71446 v 3.71447 h 3.71446 z"
       id="path894"
       inkscape:export-xdpi="64.290001"
       inkscape:export-ydpi="64.290001" />
    <path
       style="fill:#cccccc;stroke:#4d4d4d;stroke-width:0.64197153;stroke-miterlimit:4;stroke-dasharray:none"
       id="path842"
       d="m 72.497665,60.336739 c 2.40256,0.0011 4.43092,-1.784932 4.73363,-4.168354 0.30271,-2.383422 -1.21474,-4.619908 -3.54132,-5.219348 v -4.522999 h -2.38462 v 5.564489 c 0,0.658495 0.5338,1.192313 1.19231,1.192316 2.12462,-3e-6 3.18825,2.568577 1.6861,4.070736 -1.50215,1.502156 -4.07073,0.438523 -4.07073,-1.686105 h -2.38463 c 0.003,2.632765 2.1365,4.766305 4.76926,4.769265 z"
       inkscape:connector-curvature="0"
       sodipodi:nodetypes="cscccscsccc"
       inkscape:export-xdpi="64.290001"
       inkscape:export-ydpi="64.290001" />
    <path
       style="fill:#cccccc;stroke:#4d4d4d;stroke-width:0.97459275;stroke-miterlimit:4;stroke-dasharray:none"
       inkscape:connector-curvature="0"
       d="m 46.357465,40.984509 v -3.714471 h 74.289225 c 1.02572,-2e-6 1.85723,0.831512 1.85723,1.857236 v 7.428942 c 0,1.025724 -0.83151,1.857237 -1.85723,1.857235 H 46.357465 V 44.69898 h 8.516807 l 3.714458,-3.714471 z m 41.946949,0 h -9.604663 l -3.714457,3.714471 h 9.604654 z m 1.538718,3.714471 h 9.604672 l 3.714456,-3.714471 h -9.604671 z m 28.946328,-3.714471 h -10.37403 l -3.71446,3.714471 h 14.08849 z M 60.127447,44.69898 h 9.604663 l 3.714457,-3.714471 h -9.604654 z"
       id="path876"
       sodipodi:nodetypes="cccsscccccccccccccccccccccccccc" />
    <path
       id="path2469"
       d="m 57.20104,44.698994 v 3.714471 h -74.289226 c -1.025721,2e-6 -1.857233,-0.831512 -1.857233,-1.857236 v -7.428942 c 0,-1.025724 0.831512,-1.857237 1.857233,-1.857235 H 57.20104 v 3.714471 h -8.516808 l -3.714457,3.714471 z m -41.94695,0 h 9.604664 l 3.714457,-3.714471 H 18.968557 Z M 13.715373,40.984523 H 4.1107004 L 0.39624328,44.698994 H 10.000916 Z m -28.946326,3.714471 h 10.3740312 l 3.7144571,-3.714471 H -15.230953 Z m 58.662011,-3.714471 h -9.604664 l -3.714457,3.714471 h 9.604654 z"
       inkscape:connector-curvature="0"
       style="fill:#cccccc;stroke:#4d4d4d;stroke-width:0.97459275;stroke-miterlimit:4;stroke-dasharray:none"
       sodipodi:nodetypes="cccsscccccccccccccccccccccccccc" />
    <rect
       style="opacity:1;fill:#cccccc;fill-opacity:1;stroke:none;stroke-width:0.88303053;stroke-linecap:butt;stroke-linejoin:miter;stroke-miterlimit:4;stroke-dasharray:none;stroke-opacity:0.96601939"
       id="rect2481"
       width="1.4241685"
       height="2.7342904"
       x="56.522762"
       y="37.756039"
       rx="0"
       ry="0" />
    <rect
       ry="0"
       rx="0"
       y="45.186531"
       x="56.522762"
       height="2.7342904"
       width="1.4241685"
       id="rect2483"
       style="opacity:1;fill:#cccccc;fill-opacity:1;stroke:none;stroke-width:0.88303053;stroke-linecap:butt;stroke-linejoin:miter;stroke-miterlimit:4;stroke-dasharray:none;stroke-opacity:0.96601939" />
    <path
       style="fill:#cccccc;fill-opacity:1;stroke:none;stroke-width:0.24788654px;stroke-linecap:butt;stroke-linejoin:miter;stroke-opacity:1"
       d="m 56.125323,44.171442 -1.141634,1.141633 h 3.105354 v -1.41857 z"
       id="path2489"
       inkscape:connector-curvature="0" />
    <path
       style="fill:url(#linearGradient3064);fill-opacity:1;stroke:none;stroke-width:0.23141001px;stroke-linecap:butt;stroke-linejoin:miter;stroke-opacity:1"
       d="m 56.329555,72.394828 -7.115983,8.842778 -0.280471,16.638571 27.293614,0.05786 13.14747,-6.541884 z"
       id="path3056"
       inkscape:connector-curvature="0"
       sodipodi:nodetypes="cccccc"
       inkscape:export-xdpi="64.290001"
       inkscape:export-ydpi="64.290001" />
    <rect
       style="fill:none;stroke:none;stroke-width:2.56402016"
       id="rect13299"
       width="197.556"
       height="141.11111"
       x="-49.641094"
       y="8.7301569"
       inkscape:export-xdpi="64.290001"
       inkscape:export-ydpi="64.290001" />
    <path
       style="fill:#4482b4;fill-opacity:1;stroke:#4d4d4d;stroke-width:0.98318273;stroke-miterlimit:4;stroke-dasharray:none"
       inkscape:connector-curvature="0"
       d="M 78.162505,98.100777 H 41.74017 v 18.027043 h 36.422335 z"
       id="path848"
       inkscape:export-xdpi="64.290001"
       inkscape:export-ydpi="64.290001" />
    <path
       style="fill:#4482b4;fill-opacity:1;stroke:#4d4d4d;stroke-width:0.98318273;stroke-miterlimit:4;stroke-dasharray:none"
       inkscape:connector-curvature="0"
       d="M 48.95096,80.073743 H 20.10781 v 18.027034 h 28.84315 z"
       id="path856"
       inkscape:export-xdpi="64.290001"
       inkscape:export-ydpi="64.290001" />
    <path
       style="fill:#ffe469;fill-opacity:1;stroke:#4d4d4d;stroke-width:0.98318273;stroke-miterlimit:4;stroke-dasharray:none"
       inkscape:connector-curvature="0"
       d="M 41.74017,98.100777 H 12.897002 V 116.12782 H 41.74017 Z"
       id="path864"
       inkscape:export-xdpi="64.290001"
       inkscape:export-ydpi="64.290001" />
    <path
       style="fill:#4482b4;fill-opacity:1;stroke:#4d4d4d;stroke-width:0.98318273;stroke-miterlimit:4;stroke-dasharray:none"
       inkscape:connector-curvature="0"
       d="M 48.125452,116.12782 H 18.305101 v 18.02702 h 29.820351 z"
       id="path878"
       inkscape:export-xdpi="64.290001"
       inkscape:export-ydpi="64.290001" />
    <path
       style="fill:#ffe469;fill-opacity:1;stroke:#4d4d4d;stroke-width:0.98318273;stroke-miterlimit:4;stroke-dasharray:none"
       inkscape:connector-curvature="0"
       d="M 83.433795,116.12782 H 48.125452 v 18.02702 h 35.308343 z"
       id="path886"
       inkscape:export-xdpi="64.290001"
       inkscape:export-ydpi="64.290001" />
    <rect
       style="opacity:1;fill:#366890;fill-opacity:1;stroke:none;stroke-width:1.12763333;stroke-linecap:butt;stroke-linejoin:miter;stroke-miterlimit:4;stroke-dasharray:none;stroke-opacity:0.96601939"
       id="rect2645"
       width="22.534292"
       height="11.569222"
       x="21.948139"
       y="119.35671"
       inkscape:export-xdpi="64.290001"
       inkscape:export-ydpi="64.290001" />
    <text
       xml:space="preserve"
       style="font-style:normal;font-variant:normal;font-weight:bold;font-stretch:normal;font-size:7.31401443px;line-height:1.25;font-family:'DejaVu Sans Mono';-inkscape-font-specification:'DejaVu Sans Mono Bold';letter-spacing:0.92522281px;word-spacing:0px;fill:#f2f2f2;fill-opacity:1;stroke:none;stroke-width:0.18285035"
       x="26.644108"
       y="128.11444"
       id="text2649"
       inkscape:export-xdpi="64.290001"
       inkscape:export-ydpi="64.290001"><tspan
         sodipodi:role="line"
         id="tspan2647"
         x="26.644108"
         y="128.11444"
         style="font-style:normal;font-variant:normal;font-weight:bold;font-stretch:normal;font-family:'DejaVu Sans Mono';-inkscape-font-specification:'DejaVu Sans Mono Bold';letter-spacing:0px;fill:#f2f2f2;fill-opacity:1;stroke-width:0.18285035">int</tspan></text>
    <rect
       y="119.35671"
       x="51.828129"
       height="11.569222"
       width="27.903006"
       id="rect2651"
       style="opacity:1;fill:#f8c200;fill-opacity:1;stroke:none;stroke-width:1.25479126;stroke-linecap:butt;stroke-linejoin:miter;stroke-miterlimit:4;stroke-dasharray:none;stroke-opacity:0.96601939"
       inkscape:export-xdpi="64.290001"
       inkscape:export-ydpi="64.290001" />
    <text
       id="text2655"
       y="127.86799"
       x="54.753254"
       style="font-style:normal;font-variant:normal;font-weight:bold;font-stretch:normal;font-size:7.31401443px;line-height:1.25;font-family:'DejaVu Sans Mono';-inkscape-font-specification:'DejaVu Sans Mono Bold';letter-spacing:0.92522281px;word-spacing:0px;fill:#f2f2f2;fill-opacity:1;stroke:none;stroke-width:0.18285035"
       xml:space="preserve"
       inkscape:export-xdpi="64.290001"
       inkscape:export-ydpi="64.290001"><tspan
         style="font-style:normal;font-variant:normal;font-weight:bold;font-stretch:normal;font-family:'DejaVu Sans Mono';-inkscape-font-specification:'DejaVu Sans Mono Bold';letter-spacing:0px;fill:#f2f2f2;fill-opacity:1;stroke-width:0.18285035"
         y="127.86799"
         x="54.753254"
         id="tspan2653"
         sodipodi:role="line">float</tspan></text>
    <rect
       y="83.30265"
       x="23.262257"
       height="11.569222"
       width="22.534292"
       id="rect2657"
       style="opacity:1;fill:#366890;fill-opacity:1;stroke:none;stroke-width:1.12763333;stroke-linecap:butt;stroke-linejoin:miter;stroke-miterlimit:4;stroke-dasharray:none;stroke-opacity:0.96601939"
       inkscape:export-xdpi="64.290001"
       inkscape:export-ydpi="64.290001" />
    <text
       id="text2661"
       y="91.603241"
       x="27.767139"
       style="font-style:normal;font-variant:normal;font-weight:bold;font-stretch:normal;font-size:7.31401443px;line-height:1.25;font-family:'DejaVu Sans Mono';-inkscape-font-specification:'DejaVu Sans Mono Bold';letter-spacing:0.92522281px;word-spacing:0px;fill:#f2f2f2;fill-opacity:1;stroke:none;stroke-width:0.18285035"
       xml:space="preserve"
       inkscape:export-xdpi="64.290001"
       inkscape:export-ydpi="64.290001"><tspan
         style="font-style:normal;font-variant:normal;font-weight:bold;font-stretch:normal;font-family:'DejaVu Sans Mono';-inkscape-font-specification:'DejaVu Sans Mono Bold';letter-spacing:0px;fill:#f2f2f2;fill-opacity:1;stroke-width:0.18285035"
         y="91.603241"
         x="27.767139"
         id="tspan2659"
         sodipodi:role="line">str</tspan></text>
    <rect
       style="opacity:1;fill:#f8c200;fill-opacity:1;stroke:none;stroke-width:1.11134017;stroke-linecap:butt;stroke-linejoin:miter;stroke-miterlimit:4;stroke-dasharray:none;stroke-opacity:0.96601939"
       id="rect2663"
       width="21.887804"
       height="11.569222"
       x="16.374699"
       y="101.32967"
       inkscape:export-xdpi="64.290001"
       inkscape:export-ydpi="64.290001" />
    <text
       xml:space="preserve"
       style="font-style:normal;font-variant:normal;font-weight:bold;font-stretch:normal;font-size:7.31401443px;line-height:1.25;font-family:'DejaVu Sans Mono';-inkscape-font-specification:'DejaVu Sans Mono Bold';letter-spacing:0.92522281px;word-spacing:0px;fill:#f2f2f2;fill-opacity:1;stroke:none;stroke-width:0.18285035"
       x="20.695652"
       y="109.63028"
       id="text2667"
       inkscape:export-xdpi="64.290001"
       inkscape:export-ydpi="64.290001"><tspan
         sodipodi:role="line"
         id="tspan2665"
         x="20.695652"
         y="109.63028"
         style="font-style:normal;font-variant:normal;font-weight:bold;font-stretch:normal;font-family:'DejaVu Sans Mono';-inkscape-font-specification:'DejaVu Sans Mono Bold';letter-spacing:0px;fill:#f2f2f2;fill-opacity:1;stroke-width:0.18285035">set</tspan></text>
    <rect
       y="101.32967"
       x="45.518635"
       height="11.569222"
       width="28.865438"
       id="rect2669"
       style="opacity:1;fill:#366890;fill-opacity:1;stroke:none;stroke-width:1.27624786;stroke-linecap:butt;stroke-linejoin:miter;stroke-miterlimit:4;stroke-dasharray:none;stroke-opacity:0.96601939"
       inkscape:export-xdpi="64.290001"
       inkscape:export-ydpi="64.290001" />
    <text
       id="text2673"
       y="110.03561"
       x="51.274899"
       style="font-style:normal;font-variant:normal;font-weight:bold;font-stretch:normal;font-size:7.31401443px;line-height:1.25;font-family:'DejaVu Sans Mono';-inkscape-font-specification:'DejaVu Sans Mono Bold';letter-spacing:0.92522281px;word-spacing:0px;fill:#f2f2f2;fill-opacity:1;stroke:none;stroke-width:0.18285035"
       xml:space="preserve"
       inkscape:export-xdpi="64.290001"
       inkscape:export-ydpi="64.290001"><tspan
         style="font-style:normal;font-variant:normal;font-weight:bold;font-stretch:normal;font-family:'DejaVu Sans Mono';-inkscape-font-specification:'DejaVu Sans Mono Bold';letter-spacing:0px;fill:#f2f2f2;fill-opacity:1;stroke-width:0.18285035"
         y="110.03561"
         x="51.274899"
         id="tspan2671"
         sodipodi:role="line">dict</tspan></text>
    <path
       style="fill:#cccccc;stroke:#4d4d4d;stroke-width:0.9745928;stroke-miterlimit:4;stroke-dasharray:none"
       inkscape:connector-curvature="0"
       d="m -13.21042,46.556215 h 3.7144509 v 15.945761 l 7.428928,-7.428942 v -8.516819 h 3.714473 v 79.861135 h -3.714473 v -6.6596 l -7.9728369,7.97288 -3.170542,0.54396 z m 11.1433789,43.485779 -7.428928,7.428942 v 9.604694 l 7.428928,-7.428941 z m 0,-5.253191 v -9.604692 l -7.428928,7.428942 v 9.604692 z m -7.428928,-17.033637 v 9.604696 l 7.428928,-7.428942 v -9.604695 z m 7.428928,37.144714 -7.428928,7.42894 v 9.60469 l 7.428928,-7.42894 z"
       id="path834"
       inkscape:export-xdpi="64.290001"
       inkscape:export-ydpi="64.290001" />
    <path
       style="fill:#cccccc;stroke:#4d4d4d;stroke-width:0.72723418;stroke-miterlimit:4;stroke-dasharray:none"
       id="path836"
       d="M -0.20980812,24.269389 H -3.9242811 v 13.00065 h 3.71447298 z"
       inkscape:connector-curvature="0"
       inkscape:export-xdpi="64.290001"
       inkscape:export-ydpi="64.290001" />
    <path
       style="fill:#cccccc;stroke:#4d4d4d;stroke-width:0.72723418;stroke-miterlimit:4;stroke-dasharray:none"
       id="path838"
       d="m -7.6387291,27.98386 h -3.7144619 v 7.428941 h 3.7144619 z"
       inkscape:connector-curvature="0"
       inkscape:export-xdpi="64.290001"
       inkscape:export-ydpi="64.290001" />
    <path
       style="fill:#ececec;stroke:#4d4d4d;stroke-width:1.37140512;stroke-miterlimit:4;stroke-dasharray:none"
       inkscape:connector-curvature="0"
       d="m 10.93359,126.41735 h -33.43016 v 7.42893 h 33.43016 z"
       id="path872"
       inkscape:export-xdpi="64.290001"
       inkscape:export-ydpi="64.290001" />
    <path
       style="fill:#e6e6e6;stroke:#4d4d4d;stroke-width:0.72723418;stroke-miterlimit:4;stroke-dasharray:none"
       inkscape:connector-curvature="0"
       d="M -11.353191,35.412801 H -24.3538 v 11.143414 l 9.28615,3.714473 h 3.714459 z"
       id="path874"
       inkscape:export-xdpi="64.290001"
       inkscape:export-ydpi="64.290001" />
    <path
       style="fill:#ececec;stroke:#4d4d4d;stroke-width:1.37140512;stroke-miterlimit:4;stroke-dasharray:none"
       inkscape:connector-curvature="0"
       d="M 3.5046609,33.555566 H -15.06765 V 52.127922 H 3.5046609 Z"
       id="path896"
       inkscape:export-xdpi="64.290001"
       inkscape:export-ydpi="64.290001" />
    <path
       style="fill:#356f9f;fill-opacity:1;stroke:#4d4d4d;stroke-width:0.72723418;stroke-miterlimit:4;stroke-dasharray:none"
       inkscape:connector-curvature="0"
       d="M -0.20980812,24.269389 H -3.9242811 v 3.714471 h 3.71447298 z"
       id="path898"
       inkscape:export-xdpi="64.290001"
       inkscape:export-ydpi="64.290001" />
    <path
       id="path2635"
       d="m -5.8574967,36.387252 c -0.526487,0.0024 -1.0292708,0.04735 -1.4716681,0.12563 -1.3032414,0.230241 -1.5398645,0.712155 -1.5398645,1.600885 v 1.173743 h 3.0797289 v 0.391248 h -3.0797289 -1.1557957 c -0.895053,0 -1.678788,0.537979 -1.923933,1.561401 -0.282766,1.173078 -0.295308,1.905098 0,3.129981 0.218919,0.911755 0.741725,1.561401 1.636782,1.561401 h 1.0588782 v -1.407056 c 0,-1.016514 0.8795157,-1.913164 1.923933,-1.913165 h 3.076143 c 0.8562858,0 1.5398645,-0.70504 1.5398645,-1.564991 v -2.932562 c 0,-0.834624 -0.7040997,-1.46159 -1.5398645,-1.600885 -0.5290526,-0.08807 -1.077988,-0.128076 -1.6044749,-0.12563 z m -1.6654953,0.94402 c 0.3181166,0 0.5779001,0.264026 0.5779001,0.588666 -4.4e-6,0.323489 -0.2597835,0.585077 -0.5779001,0.585077 -0.319254,0 -0.5778958,-0.261588 -0.5778958,-0.585077 0,-0.32464 0.2586418,-0.588666 0.5778958,-0.588666 z"
       style="fill:url(#linearGradient2641);fill-opacity:1;stroke-width:0.11486169"
       inkscape:connector-curvature="0" />
    <path
       id="path2637"
       d="m -2.3290887,39.678758 v 1.367571 c 0,1.060261 -0.898895,1.952649 -1.9239331,1.952649 h -3.076143 c -0.8426023,0 -1.5398645,0.721158 -1.5398645,1.564991 v 2.932562 c 0,0.834625 0.7257668,1.325541 1.5398645,1.564991 0.9748708,0.28665 1.9097198,0.338455 3.076143,0 0.7753349,-0.224485 1.5398645,-0.676261 1.5398645,-1.564991 v -1.173742 h -3.0761431 v -0.391248 h 3.0761431 1.5398645 c 0.89505293,0 1.22858958,-0.62432 1.53986441,-1.561401 0.32153316,-0.964711 0.30785394,-1.892436 0,-3.129981 -0.22119866,-0.891033 -0.64366974,-1.561401 -1.53986441,-1.561401 z m -1.7301058,7.426526 c 0.319254,0 0.5779001,0.261588 0.5779001,0.585077 0,0.324639 -0.2586461,0.588665 -0.5779001,0.588665 -0.3181167,0 -0.5778958,-0.264026 -0.5778958,-0.588665 0,-0.323489 0.2597791,-0.585077 0.5778958,-0.585077 z"
       style="fill:url(#linearGradient2643);fill-opacity:1;stroke-width:0.11486169"
       inkscape:connector-curvature="0" />
    <path
       style="fill:#999999;stroke-width:0.03089659"
       inkscape:connector-curvature="0"
       d="m 74.474766,70.691241 v -0.803365 c 0,-0.957824 -0.804498,-1.892359 -1.904983,-1.892359 -0.919655,0.138926 -1.626894,0.934557 -1.626894,1.892381 v 0.803365 c 0,0.957823 0.707239,1.753454 1.626917,1.892359 1.207967,0 1.904936,-0.934579 1.90496,-1.892381 z m -2.733566,0 v -0.803365 c 0,-0.771118 0.738115,-0.767601 0.828583,-0.767622 0.08943,-0.03354 0.186098,-0.052 0.287033,-0.052 0.451931,0 0.819616,0.367688 0.819616,0.819619 v 0.803365 c 0,0.45193 -0.367674,0.819597 -0.819605,0.819597 -0.100946,2.2e-5 -0.197647,-0.01846 -0.287021,-0.052 -0.101062,0.0063 -0.828606,0.0084 -0.828606,-0.767601 z"
       id="path2868" />
    <path
       style="fill:#666666;stroke-width:0.03089659"
       id="path2870"
       d="m 72.569783,69.120254 c -0.08932,-0.03354 -0.186099,-0.052 -0.287034,-0.052 -0.45193,0 -0.819592,0.367667 -0.819592,0.819597 v 0.803364 c 0,0.451931 0.367662,0.819598 0.819592,0.819598 0.100946,0 0.197659,-0.01846 0.287034,-0.052 -0.310758,-0.116576 -0.532572,-0.416647 -0.532572,-0.767601 v -0.803364 c 0,-0.350953 0.221814,-0.650981 0.532572,-0.7676 z"
       inkscape:connector-curvature="0" />
    <path
       style="fill:#666666;stroke-width:0.03089659"
       id="path2872"
       d="m 74.770754,69.887876 c 0,-1.05535 -0.858599,-1.913944 -1.913938,-1.913944 -0.09757,0 -0.193379,0.0074 -0.287033,0.02159 0.919678,0.138904 1.626893,0.934557 1.626893,1.892381 v 0.803365 c 0,0.957823 -0.707238,1.753454 -1.626893,1.892381 0.09362,0.01413 0.189506,0.02158 0.287044,0.02156 1.055351,0 1.91395,-0.858594 1.91395,-1.913945 z"
       inkscape:connector-curvature="0" />
    <path
       style="fill:#999999;stroke-width:0.03089659"
       inkscape:connector-curvature="0"
       d="m 74.474766,76.077009 v -0.803365 c 0,-0.957824 -0.804498,-1.89236 -1.904983,-1.89236 -0.919655,0.138927 -1.626894,0.934558 -1.626894,1.892381 v 0.803365 c 0,0.957825 0.707239,1.753456 1.626894,1.892382 1.207979,-4.4e-5 1.904959,-0.934601 1.904983,-1.892403 z m -2.733566,0 v -0.803365 c 0,-0.771119 0.738115,-0.767601 0.828583,-0.767623 0.08943,-0.03354 0.186098,-0.052 0.287033,-0.052 0.451931,0 0.819616,0.367689 0.819616,0.819619 v 0.803365 c 0,0.451931 -0.367674,0.819597 -0.819605,0.819597 -0.100946,2.2e-5 -0.197647,-0.01846 -0.287021,-0.052 -0.101062,0.0063 -0.828606,0.0084 -0.828606,-0.7676 z"
       id="path2878" />
    <path
       style="fill:#666666;stroke-width:0.03089659"
       id="path2880"
       d="m 72.569783,74.506021 c -0.08932,-0.03354 -0.186099,-0.052 -0.287034,-0.052 -0.45193,0 -0.819592,0.367666 -0.819592,0.819597 l -2.4e-5,0.803387 c 0,0.451931 0.367662,0.819597 0.819593,0.819597 0.100946,0 0.197659,-0.01846 0.287033,-0.052 -0.310757,-0.116576 -0.532571,-0.416647 -0.532571,-0.7676 v -0.803365 c 2.3e-5,-0.350975 0.221814,-0.651024 0.532595,-0.767623 z"
       inkscape:connector-curvature="0" />
    <path
       style="fill:#666666;stroke-width:0.03089659"
       id="path2882"
       d="m 74.770754,75.273644 c 0,-1.05535 -0.858599,-1.913944 -1.913938,-1.913944 -0.09757,0 -0.193379,0.0074 -0.287033,0.02158 0.919678,0.138905 1.626893,0.934558 1.626893,1.892381 v 0.803365 c 0,0.957825 -0.707238,1.753456 -1.626893,1.892382 0.09362,0.01413 0.189506,0.02158 0.287044,0.02156 1.055351,0 1.91395,-0.858594 1.91395,-1.913945 z"
       inkscape:connector-curvature="0" />
    <path
       style="fill:#999999;stroke-width:0.03089659"
       inkscape:connector-curvature="0"
       d="m 74.474766,65.305473 v -0.803365 c 0,-0.957825 -0.804475,-1.892381 -1.904983,-1.89236 -0.919655,0.138926 -1.626894,0.934557 -1.626894,1.892382 v 0.803365 c 0,0.957824 0.707239,1.753455 1.626917,1.892359 1.207956,-2.2e-5 1.904936,-0.934579 1.90496,-1.892381 z m -2.733566,0 v -0.803365 c 0,-0.771118 0.738115,-0.767601 0.828583,-0.767623 0.08943,-0.03354 0.186098,-0.052 0.287033,-0.052 0.451931,0 0.819616,0.367688 0.819616,0.819619 v 0.803365 c 0,0.451931 -0.367674,0.819596 -0.819605,0.819596 -0.100946,0 -0.197647,-0.01846 -0.287021,-0.052 -0.101062,0.0063 -0.828606,0.0084 -0.828606,-0.767601 z"
       id="path2888" />
    <path
       style="fill:#666666;stroke-width:0.03089659"
       id="path2890"
       d="m 72.569783,63.734485 c -0.08932,-0.03354 -0.186099,-0.052 -0.287034,-0.052 -0.45193,0 -0.819592,0.367666 -0.819592,0.819597 v 0.803365 c 0,0.451931 0.367662,0.819597 0.819592,0.819597 0.100946,0 0.197659,-0.01846 0.287034,-0.052 -0.310758,-0.116576 -0.532572,-0.416648 -0.532572,-0.767601 v -0.803365 c 0,-0.350953 0.221791,-0.651003 0.532572,-0.767601 z"
       inkscape:connector-curvature="0" />
    <path
       style="fill:#666666;stroke-width:0.03089659"
       id="path2892"
       d="m 74.770754,64.502108 c 0,-1.05535 -0.858599,-1.913945 -1.913938,-1.913945 -0.09757,0 -0.193379,0.0074 -0.287033,0.02159 0.919678,0.138905 1.626893,0.934557 1.626893,1.892382 V 65.3055 c 0,0.957824 -0.707238,1.753455 -1.626893,1.892381 0.09362,0.01413 0.189506,0.02159 0.287044,0.02156 1.055351,0 1.91395,-0.858595 1.91395,-1.913944 z"
       inkscape:connector-curvature="0" />
    <path
       id="path2898"
       d="m 72.570306,75.146625 c 0.287033,0 0.538188,-0.268415 0.5382,-0.465193 v -3.375433 c 0,-0.1968 -0.307583,-0.465192 -0.538177,-0.465214 -0.155919,0.09641 -0.26011,0.268414 -0.260133,0.465192 v 3.375433 c 0,0.1968 0.104202,0.368803 0.26011,0.465215 z"
       inkscape:connector-curvature="0"
       style="fill:#e6e6e6;stroke-width:0.03089659" />
    <path
       style="fill:#999999;stroke-width:0.03089659"
       inkscape:connector-curvature="0"
       d="m 74.474742,59.919726 v -0.803364 c 0,-0.957824 -0.804474,-1.892381 -1.904959,-1.892381 -0.919679,0.138904 -1.626894,0.934557 -1.626917,1.892359 v 0.803364 c 0,0.957825 0.707238,1.753456 1.626893,1.892383 1.208014,0 1.904983,-0.93458 1.904983,-1.892361 z M 71.7412,59.919704 V 59.11634 c 0,-0.771118 0.738115,-0.7676 0.828583,-0.767622 0.08943,-0.03354 0.186098,-0.052 0.287033,-0.052 0.451931,0 0.819616,0.367688 0.819616,0.819619 l -2.3e-5,0.803386 c 0,0.451931 -0.367662,0.819598 -0.819593,0.819598 -0.100946,0 -0.197659,-0.01846 -0.287033,-0.052 -0.100946,0.0063 -0.828583,0.0083 -0.828583,-0.767623 z"
       id="path2900" />
    <path
       style="fill:#666666;stroke-width:0.03089659"
       id="path2902"
       d="m 72.569759,58.34874 c -0.08943,-0.03354 -0.186098,-0.052 -0.287033,-0.052 -0.451931,0 -0.819593,0.367666 -0.819593,0.819597 v 0.803364 c 0,0.451931 0.367662,0.819598 0.819593,0.819598 0.100946,0 0.197659,-0.01846 0.287033,-0.052 -0.310757,-0.116576 -0.532571,-0.416647 -0.532571,-0.767601 V 59.11634 c 2.3e-5,-0.350975 0.221837,-0.651002 0.532571,-0.7676 z"
       inkscape:connector-curvature="0" />
    <path
       style="fill:#666666;stroke-width:0.03089659"
       id="path2904"
       d="m 74.770754,59.11634 c 0,-1.05535 -0.858599,-1.913944 -1.913938,-1.913944 -0.09757,0 -0.193379,0.0074 -0.287033,0.02159 0.919678,0.138904 1.626893,0.934557 1.626893,1.892381 v 0.803364 c 0,0.957825 -0.707238,1.753455 -1.626893,1.892381 0.09362,0.01413 0.189506,0.02159 0.287044,0.02156 1.055351,0 1.91395,-0.858594 1.91395,-1.913945 z"
       inkscape:connector-curvature="0" />
    <path
       id="path2910"
       d="m 72.857351,70.758858 c -0.105482,0 -0.20352,0.03032 -0.287022,0.08197 0.15592,0.09641 0.260134,0.268436 0.260134,0.465191 v 3.375435 c -2.4e-5,0.196777 -0.104203,0.368781 -0.260134,0.465192 0.0835,0.05165 0.181633,0.08197 0.287022,0.08197 0.302198,0 0.547166,-0.244972 0.547166,-0.547162 l 2.4e-5,-3.375412 c 0,-0.302234 -0.244969,-0.547206 -0.54719,-0.547184 z"
       inkscape:connector-curvature="0"
       style="fill:#b3b3b3;stroke-width:0.03089659" />
    <path
       id="path2912"
       d="m 72.570306,69.749583 c 0.287033,0 0.538188,-0.268414 0.5382,-0.465192 v -3.375433 c 2.3e-5,-0.196779 -0.307583,-0.465193 -0.538177,-0.465215 -0.155919,0.09641 -0.26011,0.268415 -0.260133,0.465193 v 3.375433 c 0,0.1968 0.104202,0.368803 0.26011,0.465214 z"
       inkscape:connector-curvature="0"
       style="fill:#e6e6e6;stroke-width:0.03089659" />
    <path
       id="path2914"
       d="m 72.857351,65.361772 c -0.105482,0 -0.20352,0.03032 -0.287022,0.08197 0.15592,0.09641 0.260134,0.268436 0.260134,0.465192 v 3.375433 c 0,0.196801 -0.104203,0.368781 -0.260134,0.465193 0.0835,0.05165 0.181633,0.08197 0.287022,0.08197 0.302198,0 0.547166,-0.244972 0.547166,-0.547163 v -3.375434 c 2.4e-5,-0.302168 -0.244945,-0.547141 -0.547166,-0.547163 z"
       inkscape:connector-curvature="0"
       style="fill:#b3b3b3;stroke-width:0.03089659" />
    <path
       id="path2916"
       d="m 72.570306,64.352542 c 0.287033,0 0.538188,-0.268414 0.5382,-0.465192 v -3.375434 c 0,-0.196799 -0.307606,-0.465214 -0.538177,-0.465214 -0.155919,0.09641 -0.26011,0.268415 -0.260133,0.465192 v 3.375435 c 0,0.196799 0.104202,0.368779 0.26011,0.465213 z"
       inkscape:connector-curvature="0"
       style="fill:#e6e6e6;stroke-width:0.03089659" />
    <path
       id="path2918"
       d="m 72.857351,59.964732 c -0.105482,0 -0.20352,0.03032 -0.287022,0.08197 0.15592,0.09641 0.260134,0.268437 0.26011,0.465214 v 3.375433 c 0,0.196801 -0.104202,0.368781 -0.260133,0.465192 0.0835,0.05165 0.181621,0.08199 0.287033,0.08197 0.302187,0 0.547155,-0.244972 0.547155,-0.547164 l 2.3e-5,-3.375411 c 0,-0.302234 -0.244945,-0.547185 -0.547166,-0.547206 z"
       inkscape:connector-curvature="0"
       style="fill:#b3b3b3;stroke-width:0.03089659" />
    <path
       id="path2805"
       d="M 88.859613,72.900398 H 56.843209 v 17.975836 h 32.016404 z"
       inkscape:connector-curvature="0"
       style="fill:#ffe469;fill-opacity:1;stroke:#4d4d4d;stroke-width:1.03438306;stroke-miterlimit:4;stroke-dasharray:none" />
    <rect
       y="76.120132"
       x="60.703495"
       height="11.536364"
       width="24.295832"
       id="rect2807"
       style="opacity:1;fill:#f8c200;fill-opacity:1;stroke:none;stroke-width:1.16921461;stroke-linecap:butt;stroke-linejoin:miter;stroke-miterlimit:4;stroke-dasharray:none;stroke-opacity:0.96601939" />
    <text
       id="text2811"
       y="84.615005"
       x="64.030312"
       style="font-style:normal;font-variant:normal;font-weight:bold;font-stretch:normal;font-size:7.31401396px;line-height:1.25;font-family:'DejaVu Sans Mono';-inkscape-font-specification:'DejaVu Sans Mono Bold';letter-spacing:0.92522275px;word-spacing:0px;fill:#f2f2f2;fill-opacity:1;stroke:none;stroke-width:0.18285035"
       xml:space="preserve"><tspan
         style="font-style:normal;font-variant:normal;font-weight:bold;font-stretch:normal;font-family:'DejaVu Sans Mono';-inkscape-font-specification:'DejaVu Sans Mono Bold';letter-spacing:0px;fill:#f2f2f2;fill-opacity:1;stroke-width:0.18285035"
         y="84.615005"
         x="64.030312"
         id="tspan2809"
         sodipodi:role="line">bool</tspan></text>
  </g>
</svg>
