<?xml version="1.0" encoding="UTF-8" standalone="no"?>
<!-- Created with Inkscape (http://www.inkscape.org/) -->

<svg
   xmlns:dc="http://purl.org/dc/elements/1.1/"
   xmlns:cc="http://creativecommons.org/ns#"
   xmlns:rdf="http://www.w3.org/1999/02/22-rdf-syntax-ns#"
   xmlns:svg="http://www.w3.org/2000/svg"
   xmlns="http://www.w3.org/2000/svg"
   xmlns:sodipodi="http://sodipodi.sourceforge.net/DTD/sodipodi-0.dtd"
   xmlns:inkscape="http://www.inkscape.org/namespaces/inkscape"
   width="197.55556mm"
   height="141.11111mm"
   viewBox="0 0 197.55556 141.11111"
   version="1.1"
   id="svg1125"
   inkscape:version="0.92.5 (0.92.5+69)"
   sodipodi:docname="featured_icon.svg">
  <defs
     id="defs1119" />
  <sodipodi:namedview
     id="base"
     pagecolor="#ffffff"
     bordercolor="#666666"
     borderopacity="1.0"
     inkscape:pageopacity="0.0"
     inkscape:pageshadow="2"
     inkscape:zoom="0.35"
     inkscape:cx="87.61905"
     inkscape:cy="-159.04761"
     inkscape:document-units="mm"
     inkscape:current-layer="layer1"
     showgrid="false"
     fit-margin-top="0"
     fit-margin-left="0"
     fit-margin-right="0"
     fit-margin-bottom="0"
     inkscape:window-width="2560"
     inkscape:window-height="993"
     inkscape:window-x="0"
     inkscape:window-y="384"
     inkscape:window-maximized="1" />
  <metadata
     id="metadata1122">
    <rdf:RDF>
      <cc:Work
         rdf:about="">
        <dc:format>image/svg+xml</dc:format>
        <dc:type
           rdf:resource="http://purl.org/dc/dcmitype/StillImage" />
        <dc:title></dc:title>
      </cc:Work>
    </rdf:RDF>
  </metadata>
  <g
     inkscape:label="Layer 1"
     inkscape:groupmode="layer"
     id="layer1"
     transform="translate(57.200397,34.359127)">
    <rect
       style="opacity:1;fill:#cccccc;fill-opacity:0;stroke:none;stroke-width:0.1163131;stroke-linecap:round;stroke-linejoin:round;stroke-miterlimit:4;stroke-dasharray:none;stroke-dashoffset:0;stroke-opacity:1"
       id="rect4136"
       width="197.55556"
       height="141.11111"
       x="-57.200397"
       y="-34.359127"
       inkscape:export-xdpi="64.290001"
       inkscape:export-ydpi="64.290001" />
    <rect
       ry="0"
       rx="0"
       y="-7.8134465"
       x="-27.501253"
       height="94.10878"
       width="132.56529"
       id="rect4777"
       style="fill:#000000;fill-opacity:1;stroke:none;stroke-width:1.24266088;stroke-miterlimit:4;stroke-dasharray:none;stroke-opacity:1" />
    <rect
       y="-13.28115"
       x="-22.530611"
       height="8.9785089"
       width="132.56529"
       id="rect4654"
       style="fill:#e4e4e4;fill-opacity:1;stroke:none;stroke-width:1.72036576;stroke-miterlimit:4;stroke-dasharray:none;stroke-opacity:1" />
    <rect
       y="-4.1172781"
       x="-22.530613"
       height="84.944901"
       width="132.56529"
       id="rect4775"
       style="fill:#ffffff;fill-opacity:1;stroke:none;stroke-width:1.24266088;stroke-miterlimit:4;stroke-dasharray:none;stroke-opacity:1" />
    <rect
       ry="0"
       rx="0"
       y="-13.28115"
       x="-22.530611"
       height="94.10878"
       width="132.56529"
       id="rect4619"
       style="fill:none;fill-opacity:1;stroke:#333333;stroke-width:1.24266088;stroke-miterlimit:4;stroke-dasharray:none;stroke-opacity:1" />
    <path
       id="path4621"
       d="M -22.530614,-4.1172747 H 110.03468"
       style="fill:none;stroke:#333333;stroke-width:0.68346083;stroke-linecap:butt;stroke-linejoin:miter;stroke-miterlimit:4;stroke-dasharray:none;stroke-opacity:1"
       inkscape:connector-curvature="0" />
    <rect
       y="-10.627579"
       x="-4.5225658"
       height="4.2626467"
       width="108.21515"
       id="rect4623"
       style="fill:#ffffff;fill-opacity:1;stroke:#4d4d4d;stroke-width:0.37073007;stroke-miterlimit:4;stroke-dasharray:none;stroke-opacity:1" />
    <path
       inkscape:connector-curvature="0"
       style="fill:none;stroke:#333333;stroke-width:0.41497701px;stroke-linecap:butt;stroke-linejoin:miter;stroke-opacity:1"
       d="m 105.2724,-9.7498157 h 2.58301"
       id="path4625" />
    <path
       inkscape:connector-curvature="0"
       style="fill:none;stroke:#333333;stroke-width:0.41497701px;stroke-linecap:butt;stroke-linejoin:miter;stroke-opacity:1"
       d="m 105.2724,-8.9755839 h 2.58301"
       id="path4627" />
    <path
       inkscape:connector-curvature="0"
       style="fill:none;stroke:#333333;stroke-width:0.41497701px;stroke-linecap:butt;stroke-linejoin:miter;stroke-opacity:1"
       d="m 105.2724,-8.2093283 h 2.58301"
       id="path4629" />
    <path
       inkscape:connector-curvature="0"
       style="fill:none;stroke:#333333;stroke-width:0.41497701px;stroke-linecap:butt;stroke-linejoin:miter;stroke-opacity:1"
       d="m 105.2724,-7.4815021 h 2.58301"
       id="path4631" />
    <path
       d="m -7.1791518,-8.3023897 a 1.2058022,1.2058022 0 0 1 -1.1647155,0.8937176 1.2058022,1.2058022 0 0 1 -1.1647155,-0.8937176 1.2058022,1.2058022 0 0 1 0.5618144,-1.3563399 1.2058022,1.2058022 0 0 1 1.455532,0.1916244"
       sodipodi:arc-type="arc"
       sodipodi:open="true"
       sodipodi:end="5.4977871"
       sodipodi:start="0.26179939"
       sodipodi:ry="1.2058022"
       sodipodi:rx="1.2058022"
       sodipodi:cy="-8.6144743"
       sodipodi:cx="-8.3438673"
       sodipodi:type="arc"
       id="path4633"
       style="fill:none;fill-opacity:0.586411;stroke:#333333;stroke-width:0.40179765;stroke-miterlimit:4;stroke-dasharray:none;stroke-opacity:1" />
    <path
       sodipodi:nodetypes="cccc"
       id="path4635"
       d="m -8.0226626,-9.0793862 0.853068,-0.8722665 0.095904,0.9449507 z"
       style="fill:#333333;fill-opacity:1;stroke:#333333;stroke-width:0.29851177px;stroke-linecap:butt;stroke-linejoin:miter;stroke-opacity:1"
       inkscape:connector-curvature="0" />
    <path
       inkscape:connector-curvature="0"
       style="fill:none;stroke:#333333;stroke-width:0.37073058px;stroke-linecap:butt;stroke-linejoin:miter;stroke-opacity:1"
       d="m -19.428542,-8.4929975 h 2.869803"
       id="path4637" />
    <path
       inkscape:connector-curvature="0"
       style="fill:none;stroke:#333333;stroke-width:0.37073058px;stroke-linecap:butt;stroke-linejoin:miter;stroke-opacity:1"
       d="m -18.261703,-9.7428835 -1.166843,1.249886 1.182139,1.1930051"
       id="path4641"
       sodipodi:nodetypes="ccc" />
    <path
       style="fill:#ffc107;stroke:#ffc107;stroke-width:0.22614568;stroke-miterlimit:4;stroke-dasharray:none;stroke-opacity:1"
       id="path4643"
       d="m 102.10255,-8.7900329 c -0.0136,-0.042208 -0.0511,-0.072223 -0.0954,-0.076217 l -0.60191,-0.054627 -0.23801,-0.5570883 c -0.0175,-0.040834 -0.0575,-0.067252 -0.10193,-0.067252 -0.0444,0 -0.0844,0.026404 -0.10192,0.067387 l -0.23802,0.5569985 -0.602,0.054622 c -0.0443,0.00411 -0.0816,0.033969 -0.0953,0.076212 -0.0137,0.042205 -9.5e-4,0.088556 0.0324,0.1177461 l 0.45497,0.3990168 -0.13416,0.590977 c -0.01,0.04344 0.007,0.088374 0.0431,0.1144402 0.0194,0.013999 0.0421,0.021117 0.0649,0.021117 0.0197,0 0.0393,-0.00549 0.0568,-0.015773 l 0.51921,-0.3103187 0.51902,0.3103187 c 0.038,0.022843 0.0859,0.020739 0.12183,-0.00549 0.0361,-0.02614 0.0529,-0.071074 0.0431,-0.1144331 l -0.13416,-0.5909794 0.45498,-0.3989363 c 0.0335,-0.029303 0.0463,-0.075515 0.0325,-0.1178265 z m 0,0"
       inkscape:connector-curvature="0" />
    <path
       inkscape:connector-curvature="0"
       style="fill:none;stroke:#b6b6b6;stroke-width:0.37073058px;stroke-linecap:butt;stroke-linejoin:miter;stroke-opacity:1"
       d="m -11.849038,-8.5458905 h -2.869803"
       id="path4666" />
    <path
       inkscape:connector-curvature="0"
       style="fill:none;stroke:#b6b6b6;stroke-width:0.37073058px;stroke-linecap:butt;stroke-linejoin:miter;stroke-opacity:1"
       d="m -13.015877,-7.2960045 1.166843,-1.249886 -1.182139,-1.1930051"
       id="path4668"
       sodipodi:nodetypes="ccc" />
    <path
       style="fill:#092e20;stroke-width:0.18616518"
       inkscape:connector-curvature="0"
       d="m 90.674039,53.247829 c 0,2.878858 -2.333767,5.212625 -5.212625,5.212625 H 2.0426582 c -2.8788583,0 -5.212625,-2.333767 -5.212625,-5.212625 V 23.462517 c 0,-2.878858 2.3337667,-5.212625 5.212625,-5.212625 H 85.461414 c 2.878858,0 5.212625,2.333767 5.212625,5.212625 z"
       id="path4697" />
    <path
       style="fill:#ffffff;stroke-width:0.18616518"
       inkscape:connector-curvature="0"
       d="M 13.016165,24.564429 H 17.4603 v 20.570507 c -2.279779,0.432835 -3.95359,0.605968 -5.771493,0.605968 -5.4252256,0 -8.2532609,-2.45254 -8.2532609,-7.156748 0,-4.530516 3.001355,-7.473973 7.6472929,-7.473973 0.72139,0 1.269647,0.0579 1.933512,0.230658 v -6.776412 z m 0,10.354507 c -0.519401,-0.172947 -0.952235,-0.230659 -1.500492,-0.230659 -2.2509228,0 -3.5496111,1.385255 -3.5496111,3.80894 0,2.366718 1.2409771,3.66522 3.5207561,3.66522 0.490359,0 0.894524,-0.02886 1.529347,-0.11505 z"
       id="path4699" />
    <path
       style="fill:#ffffff;stroke-width:0.18616518"
       inkscape:connector-curvature="0"
       d="m 24.530109,31.427222 v 10.302567 c 0,3.549239 -0.259701,5.25172 -1.038802,6.723728 -0.721576,1.414111 -1.673997,2.308262 -3.636178,3.289539 l -4.126724,-1.962367 c 1.962367,-0.92338 2.914602,-1.730778 3.52057,-2.972314 0.635009,-1.26946 0.837185,-2.741654 0.837185,-6.608491 v -8.772662 z m -4.443949,-6.83915 h 4.443949 v 4.559743 H 20.08616 Z"
       id="path4701" />
    <path
       style="fill:#ffffff;stroke-width:0.18616518"
       inkscape:connector-curvature="0"
       d="m 27.214425,32.437354 c 1.962553,-0.923565 3.838167,-1.327358 5.887101,-1.327358 2.279779,0 3.78027,0.605968 4.444135,1.789234 0.374937,0.663493 0.490359,1.529161 0.490359,3.376478 v 9.032176 c -1.991409,0.288928 -4.501846,0.490731 -6.348605,0.490731 -3.722559,0 -5.396556,-1.298874 -5.396556,-4.184248 0,-3.11715 2.222068,-4.559744 7.676335,-5.021806 v -0.981277 c 0,-0.80777 -0.403978,-1.09614 -1.529533,-1.09614 -1.644769,0 -3.491714,0.461503 -5.223423,1.356213 v -3.434003 z m 6.954758,7.070181 c -2.943643,0.288929 -3.895878,0.750432 -3.895878,1.904656 0,0.865668 0.548442,1.269833 1.760378,1.269833 0.663865,0 1.269646,-0.0579 2.1355,-0.201803 z"
       id="path4703" />
    <path
       style="fill:#ffffff;stroke-width:0.18616518"
       inkscape:connector-curvature="0"
       d="m 40.200563,32.120129 c 2.62586,-0.692907 4.790216,-1.010133 6.983428,-1.010133 2.279779,0 3.924734,0.519029 4.906197,1.529534 0.92338,0.951862 1.211749,1.990664 1.211749,4.21329 v 8.714951 h -4.443949 v -8.542004 c 0,-1.70248 -0.577112,-2.337676 -2.16417,-2.337676 -0.605967,0 -1.154224,0.0579 -2.04912,0.317598 V 45.567584 H 40.200749 V 32.120129 Z"
       id="path4705" />
    <path
       style="fill:#ffffff;stroke-width:0.18616518"
       inkscape:connector-curvature="0"
       d="m 55.02955,47.991827 c 1.558575,0.807771 3.116778,1.182894 4.761547,1.182894 2.914416,0 4.155393,-1.182894 4.155393,-4.011115 0,-0.02867 0,-0.05771 0,-0.08694 -0.865668,0.43302 -1.731522,0.60634 -2.88556,0.60634 -3.895879,0 -6.378019,-2.568521 -6.378019,-6.637161 0,-5.050289 3.66522,-7.906994 10.157917,-7.906994 1.904842,0 3.66522,0.201803 5.80072,0.634265 l -1.521714,3.206137 c -1.183266,-0.231031 -0.09476,-0.03109 -0.988909,-0.117657 v 0.46169 l 0.05752,1.875428 0.02867,2.424243 c 0.02886,0.605595 0.02886,1.211935 0.0579,1.817717 0,0.548256 0,0.808329 0,1.212307 0,3.809312 -0.317412,5.598546 -1.269647,7.069995 -1.385255,2.164543 -3.780456,3.2322 -7.185603,3.2322 -1.731523,0 -3.231828,-0.259886 -4.790403,-0.865854 v -4.097496 z m 8.830559,-13.274694 c -0.05771,0 -0.115236,0 -0.144091,0 H 63.39842 c -0.865482,-0.02886 -1.875428,0.201803 -2.568335,0.634637 -1.067471,0.60634 -1.6161,1.702667 -1.6161,3.261242 0,2.222253 1.096885,3.491714 3.059066,3.491714 0.605968,0 1.096699,-0.115423 1.673625,-0.288556 v -0.317412 -1.211935 c 0,-0.519401 -0.02867,-1.096885 -0.02867,-1.702667 l -0.02867,-2.048934 -0.02904,-1.471636 v -0.346453 z"
       id="path4707" />
    <path
       style="fill:#ffffff;stroke-width:0.18616518"
       inkscape:connector-curvature="0"
       d="m 77.540644,31.052471 c 4.443949,0 7.156748,2.799366 7.156748,7.32951 0,4.646124 -2.827849,7.560726 -7.329882,7.560726 -4.444321,0 -7.18579,-2.799179 -7.18579,-7.300654 1.87e-4,-4.675352 2.828408,-7.589582 7.358924,-7.589582 z m -0.08694,11.311955 c 1.702853,0 2.712985,-1.41411 2.712985,-3.867209 0,-2.423685 -0.981277,-3.866837 -2.683571,-3.866837 -1.760564,0 -2.770883,1.414483 -2.770883,3.866837 1.86e-4,2.453285 1.010319,3.867209 2.741469,3.867209 z"
       id="path4709" />
  </g>
</svg>
