<?xml version="1.0" encoding="UTF-8" standalone="no"?>
<!-- Created with Inkscape (http://www.inkscape.org/) -->

<svg
   xmlns:dc="http://purl.org/dc/elements/1.1/"
   xmlns:cc="http://creativecommons.org/ns#"
   xmlns:rdf="http://www.w3.org/1999/02/22-rdf-syntax-ns#"
   xmlns:svg="http://www.w3.org/2000/svg"
   xmlns="http://www.w3.org/2000/svg"
   xmlns:xlink="http://www.w3.org/1999/xlink"
   xmlns:sodipodi="http://sodipodi.sourceforge.net/DTD/sodipodi-0.dtd"
   xmlns:inkscape="http://www.inkscape.org/namespaces/inkscape"
   width="197.55855mm"
   height="141.1089mm"
   viewBox="0 0 197.55855 141.1089"
   version="1.1"
   id="svg2938"
   inkscape:version="0.92.5 (0.92.5+69)"
   sodipodi:docname="featured_img.svg">
  <defs
     id="defs2932">
    <linearGradient
       inkscape:collect="always"
       xlink:href="#d"
       id="linearGradient1558"
       gradientUnits="userSpaceOnUse"
       gradientTransform="matrix(0.17457004,0,0,0.17660191,-56.674346,42.29426)"
       x1="26.649"
       y1="20.604"
       x2="135.67"
       y2="114.4" />
    <linearGradient
       id="d">
      <stop
         stop-color="#5a9fd4"
         offset="0"
         id="stop8" />
      <stop
         stop-color="#306998"
         offset="1"
         id="stop10" />
    </linearGradient>
    <linearGradient
       inkscape:collect="always"
       xlink:href="#e"
       id="linearGradient1560"
       gradientUnits="userSpaceOnUse"
       gradientTransform="matrix(0.17457004,0,0,0.17660191,-56.674346,42.29426)"
       x1="150.96001"
       y1="192.35001"
       x2="112.03"
       y2="137.27" />
    <linearGradient
       id="e">
      <stop
         stop-color="#ffd43b"
         offset="0"
         id="stop3" />
      <stop
         stop-color="#ffe873"
         offset="1"
         id="stop5" />
    </linearGradient>
  </defs>
  <sodipodi:namedview
     id="base"
     pagecolor="#ffffff"
     bordercolor="#666666"
     borderopacity="1.0"
     inkscape:pageopacity="0.0"
     inkscape:pageshadow="2"
     inkscape:zoom="0.7"
     inkscape:cx="44.67026"
     inkscape:cy="310.31078"
     inkscape:document-units="mm"
     inkscape:current-layer="layer1"
     showgrid="false"
     fit-margin-top="0"
     fit-margin-left="0"
     fit-margin-right="0"
     fit-margin-bottom="0"
     inkscape:window-width="2560"
     inkscape:window-height="993"
     inkscape:window-x="0"
     inkscape:window-y="384"
     inkscape:window-maximized="1" />
  <metadata
     id="metadata2935">
    <rdf:RDF>
      <cc:Work
         rdf:about="">
        <dc:format>image/svg+xml</dc:format>
        <dc:type
           rdf:resource="http://purl.org/dc/dcmitype/StillImage" />
        <dc:title />
      </cc:Work>
    </rdf:RDF>
  </metadata>
  <g
     inkscape:label="Layer 1"
     inkscape:groupmode="layer"
     id="layer1"
     transform="translate(133.55309,7.1437368)">
    <rect
       style="opacity:1;fill:none;fill-opacity:0.94009214;stroke:none;stroke-width:0.92225039;stroke-linecap:round;stroke-linejoin:round;stroke-miterlimit:4;stroke-dasharray:none;stroke-dashoffset:0;stroke-opacity:1"
       id="rect2509"
       width="197.55855"
       height="141.1089"
       x="-133.55309"
       y="-7.1437368"
       inkscape:export-xdpi="64.279999"
       inkscape:export-ydpi="64.279999" />
    <circle
       r="60.518181"
       cy="63.410706"
       cx="-34.773811"
       id="circle2898"
       style="opacity:1;fill:#f9f9f9;fill-opacity:0.9677419;stroke:#999999;stroke-width:1.31851375;stroke-linecap:round;stroke-linejoin:round;stroke-miterlimit:4;stroke-dasharray:none;stroke-dashoffset:0;stroke-opacity:0.0921659"
       inkscape:export-xdpi="64.279999"
       inkscape:export-ydpi="64.279999" />
    <path
       id="path2511"
       d="M -18.856959,19.762643 -29.706078,12.967506 -32.82844,9.9606272 c -0.710149,-0.6840234 -1.893601,-0.1805936 -1.893601,0.8054028 v 1.955978 c -26.335534,0.03034 -47.982984,20.072268 -50.554291,45.737681 l 12.972207,-0.607318 c 1.422207,-17.439222 15.814713,-33.146047 40.525318,-33.803309 0,0 6.836446,-0.818257 6.836446,-0.818257 l 6.012701,-1.793295 c 0.523027,-0.422721 0.55716,-1.208315 0.07273,-1.674867 z m -15.805029,-7.041478 c -2.08e-4,0 -4.17e-4,0 -6.26e-4,0 l 6.26e-4,-2.11e-4 z"
       inkscape:connector-curvature="0"
       style="fill:#f9f9f9;stroke:#4d4d4d;stroke-width:1.77604997;stroke-miterlimit:4;stroke-dasharray:none" />
    <path
       id="path2513"
       d="m -32.90135,29.661383 4.011838,-3.24142 3.74949,-1.497011 0.197452,-1.691936 c -3.118783,-0.837433 -6.396441,-1.286495 -9.779471,-1.286495 -20.20355,0 -36.685439,15.925562 -37.582084,35.90785 l 0.457912,-0.0215 c 2.798677,-18.013454 18.386229,-31.861448 37.184225,-31.861448 l -0.06,0.02107 v 2.80142 c 0,0.939846 1.089463,1.460134 1.820691,0.869464 z"
       inkscape:connector-curvature="0"
       style="fill:#f2f2f2;fill-opacity:1;stroke:#4d4d4d;stroke-width:0.828;stroke-miterlimit:4;stroke-dasharray:none" />
    <path
       id="path2515"
       d="m 18.05227,63.64381 h -1.90414 c 0,-0.01728 6.36e-4,-0.03456 6.36e-4,-0.05184 0,-26.402539 -20.1144122,-48.105 -45.854844,-50.624675 l 7.056011,6.795137 c 0.484469,0.466552 0.450325,1.252146 -0.07294,1.675078 l -2.219593,1.793295 5.231531,4.210979 c 13.002971,5.923357 22.6117559,16.904396 22.6117559,32.125283 0,0.678545 -0.018992,1.352663 -0.054367,2.022357 0.034749,0.663372 0.054367,1.330537 0.054367,2.002549 0,0.01728 -6.365e-4,0.03456 -6.365e-4,0.05184 H 2.827943 0.02652165 c -0.94005426,0 -1.46034715,1.089464 -0.86966967,1.82069 l 3.27744872,4.056305 4.9464242,8.018624 c 0.4227145,0.523237 1.2083088,0.557376 1.6750697,0.07291 l 6.8471944,-9.006728 2.954827,-3.0682 c 0.683602,-0.710154 0.180381,-1.893602 -0.805619,-1.893602 z"
       inkscape:connector-curvature="0"
       style="fill:#f2f2f2;stroke:#4d4d4d;stroke-width:1.77604997;stroke-miterlimit:4;stroke-dasharray:none" />
    <path
       style="fill:#ececec;fill-opacity:1;stroke:#4d4d4d;stroke-width:0.828;stroke-miterlimit:4;stroke-dasharray:none"
       inkscape:connector-curvature="0"
       d="m -24.94257,23.230805 -3.946942,3.189158 C -11.524888,29.122762 1.9077572,43.700717 2.8461314,61.589422 2.8815063,60.919728 2.9004981,60.24561 2.9004981,59.567065 2.9007068,42.171675 -8.9061747,27.536401 -24.94257,23.230805 Z"
       id="path2517" />
    <path
       style="fill:#8bcaff;stroke:#4d4d4d;stroke-width:1.35864699;stroke-miterlimit:4;stroke-dasharray:none"
       inkscape:connector-curvature="0"
       d="m -85.592213,63.540131 c 0,0.01728 -6.36e-4,0.03456 -6.36e-4,0.05184 0.0094,-0.01454 6.36e-4,-0.03456 6.36e-4,-0.05184 z"
       id="path2521" />
    <path
       style="fill:#e6e6e6;stroke:#4d4d4d;stroke-width:1.77604997;stroke-miterlimit:4;stroke-dasharray:none"
       inkscape:connector-curvature="0"
       d="m -87.600036,63.540131 h 1.976216 0.03162 0.155305 c 1.447063,25.333095 16.440577,40.858269 36.287789,46.717569 l 4.343945,-0.821 3.819655,-4.01163 0.344754,-4.67542 c -17.966039,-2.839142 -31.703817,-18.393189 -31.703817,-37.157679 0,-0.01728 6.26e-4,-0.03456 6.26e-4,-0.05184 h 2.769814 c 0.940054,0 1.460556,-1.089464 0.869669,-1.82069 l -8.223872,-10.178375 c -0.422715,-0.523238 -1.208309,-0.557376 -1.674861,-0.07291 l -9.802022,10.178375 c -0.684019,0.710154 -0.180589,1.893602 0.805191,1.893602 z"
       id="path2523" />
    <path
       id="path2527"
       d="M -44.804954,109.4367 C -66.807281,105.01226 -83.670802,86.392535 -85.436699,63.540131 h -0.155305 c 0,0.01728 -6.36e-4,0.03456 -6.36e-4,0.05184 0,26.363554 20.054786,48.042209 45.740632,50.614349 l -0.477927,-2.28661 z"
       inkscape:connector-curvature="0"
       style="fill:#cccccc;stroke:#4d4d4d;stroke-width:1.04559457;stroke-miterlimit:4;stroke-dasharray:none" />
    <path
       id="path2533"
       d="m -34.722041,110.43787 c -3.452362,0 -6.823591,-0.34559 -10.082913,-1.00095 l 8.085629,7.78661 c 0.710159,0.68381 1.893601,0.18059 1.893601,-0.80541 v -1.95661 c 0.03475,0 0.06908,10e-4 0.103724,10e-4 26.403174,0 48.106264,-20.115464 50.624895,-45.857157 l -0.692879,0.719426 C 10.65808,92.75125 -9.9648236,110.43787 -34.722,110.43787 Z"
       inkscape:connector-curvature="0"
       style="fill:#e6e6e6;fill-opacity:1;stroke:#4d4d4d;stroke-width:1.04559457;stroke-miterlimit:4;stroke-dasharray:none" />
    <path
       id="path2535"
       d="M 9.055659,75.715788 C 8.5891067,76.200251 7.8033038,76.166114 7.3805789,75.642878 L 2.434165,69.520807 c -2.84356865,17.961194 -18.395296,31.693913 -37.156206,31.693913 -0.03454,0 -0.06887,-0.001 -0.103725,-0.001 v -0.0196 -2.80142 c 0,-0.940054 -1.089464,-1.460347 -1.820691,-0.86967 l -10.178373,8.22387 c -0.523236,0.42272 -0.55738,1.20831 -0.07294,1.67508 l 2.092734,2.0154 c 3.083586,1.53979 7.208592,3.26966 10.660943,3.26966 24.7571763,0 45.086958,-19.735529 49.638895,-43.161741 l 0.07054,-0.588774 z"
       inkscape:connector-curvature="0"
       style="fill:#ececec;stroke:#4d4d4d;stroke-width:1.77604997;stroke-miterlimit:4;stroke-dasharray:none" />
    <path
       style="fill:url(#linearGradient1558);stroke-width:0;stroke-miterlimit:7.69810009"
       inkscape:connector-curvature="0"
       d="m -34.97742,45.941198 c -1.422398,0.0066 -2.780814,0.128212 -3.976068,0.340066 -3.521001,0.623295 -4.160304,1.927811 -4.160304,4.333655 v 3.177385 h 8.320711 v 1.059081 h -11.44334 c -2.418208,0 -4.535664,1.456361 -5.198082,4.226803 -0.763956,3.175539 -0.797822,5.157343 0,8.473218 0.591467,2.468173 2.00393,4.226756 4.422127,4.226756 h 2.860817 v -3.808921 c 0,-2.751783 2.376241,-5.179129 5.198071,-5.179129 h 8.310763 c 2.313439,0 4.160304,-1.908582 4.160304,-4.236514 v -7.93849 c 0,-2.25935 -1.902276,-3.956552 -4.160304,-4.333655 -1.429366,-0.238377 -2.912435,-0.346695 -4.334879,-0.340064 z m -4.499713,2.555463 c 0.859455,0 1.56132,0.714754 1.56132,1.593572 0,0.875692 -0.701865,1.583814 -1.56132,1.583814 -0.862516,0 -1.561309,-0.708122 -1.561309,-1.583814 0,-0.878818 0.698793,-1.593572 1.561309,-1.593572 z"
       id="path63" />
    <path
       style="fill:url(#linearGradient1560);stroke-width:0;stroke-miterlimit:7.69810009"
       inkscape:connector-curvature="0"
       d="m -25.448012,54.845417 v 3.702071 c 0,2.870189 -2.42858,5.285695 -5.19807,5.285695 h -8.310764 c -2.276502,0 -4.160304,1.952203 -4.160304,4.236467 v 7.93849 c 0,2.259397 1.960816,3.588306 4.160304,4.236514 2.633846,0.775994 5.159713,0.916234 8.310764,0 2.094763,-0.607668 4.160303,-1.83067 4.160303,-4.236514 v -3.177338 h -8.310763 v -1.059129 h 12.471113 c 2.418209,0 3.319334,-1.690049 4.160316,-4.226757 0.868681,-2.611493 0.831733,-5.122767 0,-8.473215 -0.597633,-2.412049 -1.739024,-4.226805 -4.160316,-4.226805 z M -30.1223,74.949533 c 0.862527,0 1.56132,0.708123 1.56132,1.583813 0,0.87882 -0.698793,1.593524 -1.56132,1.593524 -0.85949,0 -1.56132,-0.714704 -1.56132,-1.593524 0,-0.87569 0.70183,-1.583813 1.56132,-1.583813 z"
       id="path65" />
    <circle
       style="opacity:1;fill:none;fill-opacity:0.02745098;stroke:#5895c7;stroke-width:0.55744988;stroke-linecap:round;stroke-linejoin:round;stroke-miterlimit:4;stroke-dasharray:none;stroke-dashoffset:0;stroke-opacity:0.07373274"
       id="path2896"
       cx="-34.773811"
       cy="63.410713"
       r="25.5863"
       inkscape:export-xdpi="64.279999"
       inkscape:export-ydpi="64.279999" />
  </g>
</svg>
