<?xml version="1.0" encoding="UTF-8" standalone="no"?>
<!-- Created with Inkscape (http://www.inkscape.org/) -->

<svg
   xmlns:dc="http://purl.org/dc/elements/1.1/"
   xmlns:cc="http://creativecommons.org/ns#"
   xmlns:rdf="http://www.w3.org/1999/02/22-rdf-syntax-ns#"
   xmlns:svg="http://www.w3.org/2000/svg"
   xmlns="http://www.w3.org/2000/svg"
   xmlns:sodipodi="http://sodipodi.sourceforge.net/DTD/sodipodi-0.dtd"
   xmlns:inkscape="http://www.inkscape.org/namespaces/inkscape"
   width="194.84673mm"
   height="139.17592mm"
   viewBox="0 0 194.84673 139.17592"
   version="1.1"
   id="svg1333"
   inkscape:version="0.92.5 (0.92.5+69)"
   sodipodi:docname="featured_img.svg">
  <defs
     id="defs1327" />
  <sodipodi:namedview
     id="base"
     pagecolor="#ffffff"
     bordercolor="#666666"
     borderopacity="1.0"
     inkscape:pageopacity="0.0"
     inkscape:pageshadow="2"
     inkscape:zoom="0.35"
     inkscape:cx="25.357139"
     inkscape:cy="28.723896"
     inkscape:document-units="mm"
     inkscape:current-layer="layer1"
     showgrid="false"
     fit-margin-top="0"
     fit-margin-left="0"
     fit-margin-right="0"
     fit-margin-bottom="0"
     inkscape:window-width="2560"
     inkscape:window-height="993"
     inkscape:window-x="0"
     inkscape:window-y="384"
     inkscape:window-maximized="1" />
  <metadata
     id="metadata1330">
    <rdf:RDF>
      <cc:Work
         rdf:about="">
        <dc:format>image/svg+xml</dc:format>
        <dc:type
           rdf:resource="http://purl.org/dc/dcmitype/StillImage" />
        <dc:title></dc:title>
      </cc:Work>
    </rdf:RDF>
  </metadata>
  <g
     inkscape:label="Layer 1"
     inkscape:groupmode="layer"
     id="layer1"
     transform="translate(39.970982,-17.257278)">
    <rect
       style="fill:none;stroke:none;stroke-width:2.52885723"
       id="rect13299"
       width="194.84673"
       height="139.17592"
       x="-39.970982"
       y="17.257278"
       inkscape:export-xdpi="1920"
       inkscape:export-ydpi="1920" />
    <g
       id="g1283"
       transform="matrix(1.3448818,0,0,1.3448818,-59.585881,-128.48705)">
      <g
         transform="translate(0,-5.0781137)"
         id="g1227">
        <path
           inkscape:connector-curvature="0"
           id="path1164"
           style="font-style:normal;font-variant:normal;font-weight:300;font-stretch:normal;font-size:16.0678463px;line-height:1.25;font-family:'MADE TOMMY';-inkscape-font-specification:'MADE TOMMY Light';letter-spacing:0px;word-spacing:0px;fill:#4d4d4d;fill-opacity:1;stroke:#333333;stroke-width:0.92267233;stroke-miterlimit:4;stroke-dasharray:none"
           d="m 40.160631,136.80868 v 9.78531 l -6.844902,-9.78531 h -0.851596 v 11.24749 h 0.851596 v -9.78532 l 6.844902,9.78532 h 0.851596 v -11.24749 z" />
        <path
           inkscape:connector-curvature="0"
           id="path1166"
           style="font-style:normal;font-variant:normal;font-weight:300;font-stretch:normal;font-size:16.0678463px;line-height:1.25;font-family:'MADE TOMMY';-inkscape-font-specification:'MADE TOMMY Light';letter-spacing:0px;word-spacing:0px;fill:#4d4d4d;fill-opacity:1;stroke:#333333;stroke-width:0.92267233;stroke-miterlimit:4;stroke-dasharray:none"
           d="m 48.763457,136.61586 c -3.21357,0 -5.67195,2.60299 -5.67195,5.81656 0,3.21357 2.45838,5.83263 5.67195,5.83263 3.213569,0 5.688017,-2.61906 5.688017,-5.83263 0,-3.21357 -2.474448,-5.81656 -5.688017,-5.81656 z m 0,10.78153 c -2.731534,0 -4.820354,-2.21737 -4.820354,-4.96497 0,-2.73153 2.08882,-4.96496 4.820354,-4.96496 2.747601,0 4.836421,2.23343 4.836421,4.96496 0,2.7476 -2.08882,4.96497 -4.836421,4.96497 z" />
        <path
           inkscape:connector-curvature="0"
           id="path1168"
           style="font-style:normal;font-variant:normal;font-weight:300;font-stretch:normal;font-size:16.0678463px;line-height:1.25;font-family:'MADE TOMMY';-inkscape-font-specification:'MADE TOMMY Light';letter-spacing:0px;word-spacing:0px;fill:#4d4d4d;fill-opacity:1;stroke:#333333;stroke-width:0.92267233;stroke-miterlimit:4;stroke-dasharray:none"
           d="m 63.647806,136.80868 -3.743808,10.02633 -3.727741,-10.02633 H 55.26039 l 4.193708,11.24749 h 0.915867 l 4.193708,-11.24749 z" />
        <path
           inkscape:connector-curvature="0"
           id="path1170"
           style="font-style:normal;font-variant:normal;font-weight:300;font-stretch:normal;font-size:16.0678463px;line-height:1.25;font-family:'MADE TOMMY';-inkscape-font-specification:'MADE TOMMY Light';letter-spacing:0px;word-spacing:0px;fill:#4d4d4d;fill-opacity:1;stroke:#333333;stroke-width:0.92267233;stroke-miterlimit:4;stroke-dasharray:none"
           d="m 66.325865,136.80868 v 11.24749 h 0.867664 v -11.24749 z" />
        <path
           inkscape:connector-curvature="0"
           id="path1172"
           style="font-style:normal;font-variant:normal;font-weight:300;font-stretch:normal;font-size:16.0678463px;line-height:1.25;font-family:'MADE TOMMY';-inkscape-font-specification:'MADE TOMMY Light';letter-spacing:0px;word-spacing:0px;fill:#4d4d4d;fill-opacity:1;stroke:#333333;stroke-width:0.92267233;stroke-miterlimit:4;stroke-dasharray:none"
           d="m 73.136121,136.80868 h -3.35818 v 11.24749 h 3.35818 c 3.213569,0 5.543407,-2.41018 5.543407,-5.62375 0,-3.21357 -2.329838,-5.62374 -5.543407,-5.62374 z m 0,10.39589 h -2.506584 v -9.52823 h 2.506584 c 2.747602,0 4.691811,2.02455 4.691811,4.75608 0,2.7476 -1.944209,4.77215 -4.691811,4.77215 z" />
        <path
           inkscape:connector-curvature="0"
           id="path1174"
           style="font-style:normal;font-variant:normal;font-weight:300;font-stretch:normal;font-size:16.0678463px;line-height:1.25;font-family:'MADE TOMMY';-inkscape-font-specification:'MADE TOMMY Light';letter-spacing:0px;word-spacing:0px;fill:#4d4d4d;fill-opacity:1;stroke:#333333;stroke-width:0.92267233;stroke-miterlimit:4;stroke-dasharray:none"
           d="m 87.875106,148.05617 h 0.915868 l -4.193708,-11.24749 h -0.915867 l -4.193708,11.24749 h 0.915867 l 1.172953,-3.1493 h 5.125643 z m -5.977238,-4.01696 2.249498,-5.99331 2.233431,5.99331 z" />
        <path
           inkscape:connector-curvature="0"
           id="path1176"
           style="font-style:normal;font-variant:normal;font-weight:300;font-stretch:normal;font-size:16.0678463px;line-height:1.25;font-family:'MADE TOMMY';-inkscape-font-specification:'MADE TOMMY Light';letter-spacing:0px;word-spacing:0px;fill:#4d4d4d;fill-opacity:1;stroke:#333333;stroke-width:0.92267233;stroke-miterlimit:4;stroke-dasharray:none"
           d="m 93.911344,136.80868 h -3.35818 v 11.24749 h 3.35818 c 3.213569,0 5.543407,-2.41018 5.543407,-5.62375 0,-3.21357 -2.329838,-5.62374 -5.543407,-5.62374 z m 0,10.39589 H 91.40476 v -9.52823 h 2.506584 c 2.747602,0 4.691811,2.02455 4.691811,4.75608 0,2.7476 -1.944209,4.77215 -4.691811,4.77215 z" />
        <path
           inkscape:connector-curvature="0"
           id="path1178"
           style="font-style:normal;font-variant:normal;font-weight:300;font-stretch:normal;font-size:16.0678463px;line-height:1.25;font-family:'MADE TOMMY';-inkscape-font-specification:'MADE TOMMY Light';letter-spacing:0px;word-spacing:0px;fill:#4d4d4d;fill-opacity:1;stroke:#333333;stroke-width:0.92267233;stroke-miterlimit:4;stroke-dasharray:none"
           d="m 102.38864,147.20457 v -4.5472 h 4.83642 v -0.85159 h -4.83642 v -4.12944 h 5.20598 v -0.86766 h -6.05758 v 11.24749 h 6.20219 v -0.8516 z" />
        <path
           inkscape:connector-curvature="0"
           id="path1180"
           style="font-style:normal;font-variant:normal;font-weight:300;font-stretch:normal;font-size:16.0678463px;line-height:1.25;font-family:'MADE TOMMY';-inkscape-font-specification:'MADE TOMMY Light';letter-spacing:0px;word-spacing:0px;fill:#4d4d4d;fill-opacity:1;stroke:#333333;stroke-width:0.92267233;stroke-miterlimit:4;stroke-dasharray:none"
           d="m 113.27661,142.01466 c -1.70319,-0.4499 -2.77973,-0.8998 -2.77973,-2.26557 0,-1.36577 1.09261,-2.28163 2.36197,-2.28163 1.20509,0 2.04062,0.56237 2.41018,1.70319 l 0.83553,-0.20888 c -0.48204,-1.51038 -1.67106,-2.34591 -3.24571,-2.34591 -1.73533,0 -3.22964,1.3015 -3.22964,3.13323 0,2.13702 1.92815,2.6994 3.42245,3.1011 1.62286,0.43383 2.68334,0.83552 2.68334,2.18522 0,1.44611 -1.10869,2.36198 -2.79581,2.36198 -1.68712,0 -2.68333,-1.04441 -2.94042,-1.96028 l -0.81946,0.25708 c 0.36956,1.28543 1.73533,2.57086 3.75988,2.57086 2.60299,0 3.66347,-1.73533 3.66347,-3.22964 0,-2.07275 -1.7996,-2.60299 -3.32605,-3.02075 z" />
        <path
           inkscape:connector-curvature="0"
           id="path1182"
           style="font-style:normal;font-variant:normal;font-weight:300;font-stretch:normal;font-size:16.0678463px;line-height:1.25;font-family:'MADE TOMMY';-inkscape-font-specification:'MADE TOMMY Light';letter-spacing:0px;word-spacing:0px;fill:#4d4d4d;fill-opacity:1;stroke:none;stroke-width:0.92267233;stroke-miterlimit:4;stroke-dasharray:none"
           d="m 126.39224,136.80868 h -3.35818 v 11.24749 h 3.35818 c 3.21357,0 5.54341,-2.41018 5.54341,-5.62375 0,-3.21357 -2.32984,-5.62374 -5.54341,-5.62374 z m 0,10.39589 h -2.50658 v -9.52823 h 2.50658 c 2.74761,0 4.69181,2.02455 4.69181,4.75608 0,2.7476 -1.9442,4.77215 -4.69181,4.77215 z" />
        <path
           inkscape:connector-curvature="0"
           id="path1184"
           style="font-style:normal;font-variant:normal;font-weight:300;font-stretch:normal;font-size:16.0678463px;line-height:1.25;font-family:'MADE TOMMY';-inkscape-font-specification:'MADE TOMMY Light';letter-spacing:0px;word-spacing:0px;fill:#4d4d4d;fill-opacity:1;stroke:none;stroke-width:0.92267233;stroke-miterlimit:4;stroke-dasharray:none"
           d="m 141.13123,148.05617 h 0.91586 l -4.19371,-11.24749 h -0.91586 l -4.19371,11.24749 h 0.91587 l 1.17295,-3.1493 h 5.12564 z m -5.97724,-4.01696 2.24949,-5.99331 2.23344,5.99331 z" />
      </g>
      <g
         transform="translate(0,-3.0540708)"
         id="g1241">
        <path
           inkscape:connector-curvature="0"
           id="path1139"
           style="font-style:normal;font-variant:normal;font-weight:300;font-stretch:normal;font-size:14.90138054px;line-height:1.25;font-family:'MADE TOMMY';-inkscape-font-specification:'MADE TOMMY Light';letter-spacing:0px;word-spacing:0px;fill:#666666;fill-opacity:1;stroke:none;stroke-width:1.27451324;stroke-miterlimit:4;stroke-dasharray:none"
           d="m 39.828597,154.84003 -3.472022,9.29846 -3.45712,-9.29846 h -0.849379 l 3.889261,10.43097 h 0.849378 l 3.889261,-10.43097 z" />
        <path
           inkscape:connector-curvature="0"
           id="path1141"
           style="font-style:normal;font-variant:normal;font-weight:300;font-stretch:normal;font-size:14.90138054px;line-height:1.25;font-family:'MADE TOMMY';-inkscape-font-specification:'MADE TOMMY Light';letter-spacing:0px;word-spacing:0px;fill:#666666;fill-opacity:1;stroke:none;stroke-width:1.27451324;stroke-miterlimit:4;stroke-dasharray:none"
           d="m 43.102011,164.48122 v -4.21709 h 4.485316 v -0.78977 h -4.485316 v -3.82966 h 4.828048 v -0.80467 H 42.312238 V 165.271 h 5.751933 v -0.78978 z" />
        <path
           inkscape:connector-curvature="0"
           id="path1143"
           style="font-style:normal;font-variant:normal;font-weight:300;font-stretch:normal;font-size:14.90138054px;line-height:1.25;font-family:'MADE TOMMY';-inkscape-font-specification:'MADE TOMMY Light';letter-spacing:0px;word-spacing:0px;fill:#666666;fill-opacity:1;stroke:none;stroke-width:1.27451324;stroke-miterlimit:4;stroke-dasharray:none"
           d="m 57.163326,165.271 -2.816361,-4.54492 c 1.40073,-0.38744 2.205405,-1.38583 2.205405,-2.84617 0,-1.92228 -1.370927,-3.03988 -3.650839,-3.03988 H 49.995762 V 165.271 h 0.789773 v -4.36611 h 2.115996 c 0.20862,0 0.417239,-0.0149 0.610957,-0.0298 l 2.726953,4.39591 z m -6.377791,-5.15588 v -4.47042 h 2.115996 c 1.83287,0 2.861066,0.74507 2.861066,2.23521 0,1.47524 -1.028196,2.23521 -2.861066,2.23521 z" />
        <path
           inkscape:connector-curvature="0"
           id="path1145"
           style="font-style:normal;font-variant:normal;font-weight:300;font-stretch:normal;font-size:14.90138054px;line-height:1.25;font-family:'MADE TOMMY';-inkscape-font-specification:'MADE TOMMY Light';letter-spacing:0px;word-spacing:0px;fill:#666666;fill-opacity:1;stroke:none;stroke-width:1.27451324;stroke-miterlimit:4;stroke-dasharray:none"
           d="m 62.018149,159.66808 c -1.579546,-0.41724 -2.577939,-0.83448 -2.577939,-2.1011 0,-1.26661 1.013294,-2.11599 2.190503,-2.11599 1.117604,0 1.892476,0.52154 2.235207,1.57954 l 0.774872,-0.19372 c -0.447041,-1.40073 -1.549743,-2.1756 -3.010079,-2.1756 -1.609349,0 -2.995177,1.20701 -2.995177,2.90577 0,1.98189 1.788166,2.50343 3.173994,2.87597 1.505039,0.40234 2.48853,0.77487 2.48853,2.02659 0,1.34112 -1.028195,2.1905 -2.59284,2.1905 -1.564645,0 -2.48853,-0.96859 -2.726952,-1.81797 l -0.759971,0.23842 c 0.342732,1.19211 1.609349,2.38422 3.486923,2.38422 2.414024,0 3.397515,-1.60935 3.397515,-2.99517 0,-1.92228 -1.668955,-2.41403 -3.084586,-2.80146 z" />
        <path
           inkscape:connector-curvature="0"
           id="path1147"
           style="font-style:normal;font-variant:normal;font-weight:300;font-stretch:normal;font-size:14.90138054px;line-height:1.25;font-family:'MADE TOMMY';-inkscape-font-specification:'MADE TOMMY Light';letter-spacing:0px;word-spacing:0px;fill:#666666;fill-opacity:1;stroke:none;stroke-width:1.27451324;stroke-miterlimit:4;stroke-dasharray:none"
           d="m 73.938788,165.271 h 0.849379 l -3.88926,-10.43097 h -0.849379 l -3.88926,10.43097 h 0.849378 l 1.087801,-2.92067 h 4.753541 z m -5.543313,-3.72535 2.086193,-5.55821 2.071292,5.55821 z m 3.472021,-9.31336 c -0.05961,0.40234 -0.22352,0.61095 -0.536449,0.61095 -0.476844,0 -1.147407,-0.58115 -1.758363,-0.58115 -0.640759,0 -1.043097,0.44704 -1.147406,1.20701 l 0.65566,0.10431 c 0.05961,-0.43214 0.223521,-0.65566 0.521549,-0.65566 0.491745,0 1.132505,0.59606 1.758363,0.59606 0.65566,0 1.043096,-0.44704 1.162307,-1.19211 z" />
        <path
           inkscape:connector-curvature="0"
           id="path1149"
           style="font-style:normal;font-variant:normal;font-weight:300;font-stretch:normal;font-size:14.90138054px;line-height:1.25;font-family:'MADE TOMMY';-inkscape-font-specification:'MADE TOMMY Light';letter-spacing:0px;word-spacing:0px;fill:#666666;fill-opacity:1;stroke:none;stroke-width:1.27451324;stroke-miterlimit:4;stroke-dasharray:none"
           d="m 80.799011,154.66121 c -2.980276,0 -5.260187,2.41403 -5.260187,5.3943 0,2.98028 2.279911,5.4092 5.260187,5.4092 2.980276,0 5.275089,-2.42892 5.275089,-5.4092 0,-2.98027 -2.294813,-5.3943 -5.275089,-5.3943 z m 0,9.99883 c -2.533235,0 -4.470414,-2.05639 -4.470414,-4.60453 0,-2.53323 1.937179,-4.60452 4.470414,-4.60452 2.548136,0 4.485315,2.07129 4.485315,4.60452 0,2.54814 -1.937179,4.60453 -4.485315,4.60453 z" />
        <path
           inkscape:connector-curvature="0"
           id="path1151"
           style="font-style:normal;font-variant:normal;font-weight:300;font-stretch:normal;font-size:14.90138054px;line-height:1.25;font-family:'MADE TOMMY';-inkscape-font-specification:'MADE TOMMY Light';letter-spacing:0px;word-spacing:0px;fill:none;fill-opacity:1;stroke:#3771c8;stroke-width:1.27451324;stroke-miterlimit:4;stroke-dasharray:none"
           d="m 96.504135,159.75749 c 0.938787,-0.40234 1.564645,-1.20702 1.564645,-2.29482 0,-1.54974 -1.221913,-2.80146 -2.846163,-2.80146 -1.519941,0 -2.682249,0.93879 -3.010079,2.23521 l 0.774872,0.14901 c 0.253323,-0.90898 1.102702,-1.59444 2.235207,-1.59444 1.19211,0 2.041489,0.89408 2.041489,2.01168 0,1.57955 -1.266617,2.01169 -2.1607,2.01169 H 94.28383 v 0.71527 h 0.774872 c 0.879181,0 2.682248,0.19371 2.682248,2.1607 0,1.59444 -1.281519,2.30971 -2.548136,2.30971 -1.445434,0 -2.518333,-0.80468 -2.69715,-1.71366 l -0.774872,0.16392 c 0.253324,1.28151 1.639152,2.35441 3.472022,2.35441 1.683856,0 3.352811,-1.0729 3.352811,-3.11438 0,-1.44544 -0.908985,-2.25011 -2.04149,-2.59284 z" />
        <path
           inkscape:connector-curvature="0"
           id="path1153"
           style="font-style:normal;font-variant:normal;font-weight:300;font-stretch:normal;font-size:14.90138054px;line-height:1.25;font-family:'MADE TOMMY';-inkscape-font-specification:'MADE TOMMY Light';letter-spacing:0px;word-spacing:0px;fill:none;fill-opacity:1;stroke:#3771c8;stroke-width:1.27451324;stroke-miterlimit:4;stroke-dasharray:none"
           d="m 100.67046,164.213 c -0.34273,0 -0.62585,0.28312 -0.62585,0.62586 0,0.34273 0.28312,0.62585 0.62585,0.62585 0.34274,0 0.62586,-0.28312 0.62586,-0.62585 0,-0.34274 -0.28312,-0.62586 -0.62586,-0.62586 z" />
        <path
           inkscape:connector-curvature="0"
           id="path1155"
           style="font-style:normal;font-variant:normal;font-weight:300;font-stretch:normal;font-size:14.90138054px;line-height:1.25;font-family:'MADE TOMMY';-inkscape-font-specification:'MADE TOMMY Light';letter-spacing:0px;word-spacing:0px;fill:none;fill-opacity:1;stroke:#3771c8;stroke-width:1.27451324;stroke-miterlimit:4;stroke-dasharray:none"
           d="m 104.68313,154.84003 -3.09949,2.08619 0.41724,0.68547 2.56304,-1.71366 v 9.37297 h 0.78977 v -10.43097 z" />
        <path
           inkscape:connector-curvature="0"
           id="path1157"
           style="font-style:normal;font-variant:normal;font-weight:300;font-stretch:normal;font-size:14.90138054px;line-height:1.25;font-family:'MADE TOMMY';-inkscape-font-specification:'MADE TOMMY Light';letter-spacing:0px;word-spacing:0px;fill:none;fill-opacity:1;stroke:#3771c8;stroke-width:1.27451324;stroke-miterlimit:4;stroke-dasharray:none"
           d="m 111.48607,154.66121 c -2.71205,0 -3.87436,2.78656 -3.87436,5.3943 0,2.62265 1.16231,5.4092 3.87436,5.4092 2.69715,0 3.85946,-2.78655 3.85946,-5.4092 0,-2.60774 -1.16231,-5.3943 -3.85946,-5.3943 z m 0,9.99883 c -2.30971,0 -3.08458,-2.54814 -3.08458,-4.60453 0,-2.05639 0.77487,-4.60452 3.08458,-4.60452 2.29482,0 3.06969,2.54813 3.06969,4.60452 0,2.05639 -0.77487,4.60453 -3.06969,4.60453 z" />
        <path
           inkscape:connector-curvature="0"
           id="path1159"
           style="font-style:normal;font-variant:normal;font-weight:300;font-stretch:normal;font-size:14.90138054px;line-height:1.25;font-family:'MADE TOMMY';-inkscape-font-specification:'MADE TOMMY Light';letter-spacing:0px;word-spacing:0px;fill:#666666;fill-opacity:1;stroke:none;stroke-width:1.27451324;stroke-miterlimit:4;stroke-dasharray:none"
           d="m 124.56111,154.84003 h -3.11439 V 165.271 h 3.11439 c 2.98027,0 5.14097,-2.23521 5.14097,-5.21549 0,-2.98027 -2.1607,-5.21548 -5.14097,-5.21548 z m 0,9.64119 h -2.32462 v -8.83652 h 2.32462 c 2.54813,0 4.3512,1.87758 4.3512,4.41081 0,2.54814 -1.80307,4.42571 -4.3512,4.42571 z" />
        <path
           inkscape:connector-curvature="0"
           id="path1161"
           style="font-style:normal;font-variant:normal;font-weight:300;font-stretch:normal;font-size:14.90138054px;line-height:1.25;font-family:'MADE TOMMY';-inkscape-font-specification:'MADE TOMMY Light';letter-spacing:0px;word-spacing:0px;fill:#666666;fill-opacity:1;stroke:none;stroke-width:1.27451324;stroke-miterlimit:4;stroke-dasharray:none"
           d="m 136.44636,154.66121 c -2.98028,0 -5.26019,2.41403 -5.26019,5.3943 0,2.98028 2.27991,5.4092 5.26019,5.4092 2.98027,0 5.27509,-2.42892 5.27509,-5.4092 0,-2.98027 -2.29482,-5.3943 -5.27509,-5.3943 z m 0,9.99883 c -2.53324,0 -4.47042,-2.05639 -4.47042,-4.60453 0,-2.53323 1.93718,-4.60452 4.47042,-4.60452 2.54813,0 4.48531,2.07129 4.48531,4.60452 0,2.54814 -1.93718,4.60453 -4.48531,4.60453 z" />
      </g>
      <g
         id="g1249">
        <path
           inkscape:connector-curvature="0"
           id="path1126"
           style="font-style:normal;font-variant:normal;font-weight:normal;font-stretch:normal;font-size:24.80048561px;line-height:1.25;font-family:'MADE TOMMY';-inkscape-font-specification:'MADE TOMMY';letter-spacing:2.52271795px;word-spacing:0px;fill:none;fill-opacity:1;stroke:#ffcc00;stroke-width:2.59025526;stroke-miterlimit:4;stroke-dasharray:none"
           d="m 39.673258,170.17057 h -5.530509 v 17.36034 h 2.480049 v -6.02651 h 3.05046 c 3.918476,0 6.274523,-2.48005 6.274523,-5.65451 0,-3.17447 -2.356047,-5.67932 -6.274523,-5.67932 z m 0,9.07698 h -3.05046 v -6.82013 h 3.05046 c 2.331245,0 3.720073,1.38883 3.720073,3.42247 0,2.03364 -1.388828,3.39766 -3.720073,3.39766 z" />
        <path
           inkscape:connector-curvature="0"
           id="path1128"
           style="font-style:normal;font-variant:normal;font-weight:normal;font-stretch:normal;font-size:24.80048561px;line-height:1.25;font-family:'MADE TOMMY';-inkscape-font-specification:'MADE TOMMY';letter-spacing:2.52271795px;word-spacing:0px;fill:none;fill-opacity:1;stroke:#ffcc00;stroke-width:2.59025526;stroke-miterlimit:4;stroke-dasharray:none"
           d="m 64.656302,170.17057 h -2.802455 l -4.910496,8.63057 -4.935297,-8.63057 H 49.2304 l 6.472927,10.86262 v 6.49772 h 2.480048 v -6.49772 z" />
        <path
           inkscape:connector-curvature="0"
           id="path1130"
           style="font-style:normal;font-variant:normal;font-weight:normal;font-stretch:normal;font-size:24.80048561px;line-height:1.25;font-family:'MADE TOMMY';-inkscape-font-specification:'MADE TOMMY';letter-spacing:2.52271795px;word-spacing:0px;fill:none;fill-opacity:1;stroke:#ffcc00;stroke-width:2.59025526;stroke-miterlimit:4;stroke-dasharray:none"
           d="M 79.929182,170.17057 H 68.669761 v 2.25685 h 4.389686 v 15.10349 h 2.480049 v -15.10349 h 4.389686 z" />
        <path
           inkscape:connector-curvature="0"
           id="path1132"
           style="font-style:normal;font-variant:normal;font-weight:normal;font-stretch:normal;font-size:24.80048561px;line-height:1.25;font-family:'MADE TOMMY';-inkscape-font-specification:'MADE TOMMY';letter-spacing:2.52271795px;word-spacing:0px;fill:none;fill-opacity:1;stroke:#ffcc00;stroke-width:2.59025526;stroke-miterlimit:4;stroke-dasharray:none"
           d="m 95.874,170.17057 v 7.46495 h -8.233761 v -7.46495 H 85.16019 v 17.36034 h 2.480049 v -7.61374 H 95.874 v 7.61374 h 2.480049 v -17.36034 z" />
        <path
           inkscape:connector-curvature="0"
           id="path1134"
           style="font-style:normal;font-variant:normal;font-weight:normal;font-stretch:normal;font-size:24.80048561px;line-height:1.25;font-family:'MADE TOMMY';-inkscape-font-specification:'MADE TOMMY';letter-spacing:2.52271795px;word-spacing:0px;fill:none;fill-opacity:1;stroke:#ffcc00;stroke-width:2.59025526;stroke-miterlimit:4;stroke-dasharray:none"
           d="m 112.5547,169.87297 c -5.1585,0 -8.82898,3.89367 -8.82898,8.97777 0,5.0841 3.67048,9.00258 8.82898,9.00258 5.1337,0 8.80417,-3.91848 8.80417,-9.00258 0,-5.0841 -3.67047,-8.97777 -8.80417,-8.97777 z m 0,15.6491 c -4.04248,0 -6.29933,-3.29846 -6.29933,-6.67133 0,-3.37286 2.25685,-6.67133 6.29933,-6.67133 4.04248,0 6.29932,3.29847 6.29932,6.67133 0,3.37287 -2.25684,6.67133 -6.29932,6.67133 z" />
        <path
           inkscape:connector-curvature="0"
           id="path1136"
           style="font-style:normal;font-variant:normal;font-weight:normal;font-stretch:normal;font-size:24.80048561px;line-height:1.25;font-family:'MADE TOMMY';-inkscape-font-specification:'MADE TOMMY';letter-spacing:2.52271795px;word-spacing:0px;fill:none;fill-opacity:1;stroke:#ffcc00;stroke-width:2.59025526;stroke-miterlimit:4;stroke-dasharray:none"
           d="m 137.88843,170.17057 v 12.79705 l -9.00257,-12.79705 h -2.15765 v 17.36034 h 2.48005 v -12.79705 l 9.00258,12.79705 h 2.15764 v -17.36034 z" />
      </g>
    </g>
  </g>
</svg>
