<?xml version="1.0" encoding="UTF-8" standalone="no"?>
<!-- Created with Inkscape (http://www.inkscape.org/) -->

<svg
   xmlns:dc="http://purl.org/dc/elements/1.1/"
   xmlns:cc="http://creativecommons.org/ns#"
   xmlns:rdf="http://www.w3.org/1999/02/22-rdf-syntax-ns#"
   xmlns:svg="http://www.w3.org/2000/svg"
   xmlns="http://www.w3.org/2000/svg"
   xmlns:sodipodi="http://sodipodi.sourceforge.net/DTD/sodipodi-0.dtd"
   xmlns:inkscape="http://www.inkscape.org/namespaces/inkscape"
   width="197.55855mm"
   height="141.0089mm"
   viewBox="0 0 197.55855 141.0089"
   version="1.1"
   id="svg8"
   inkscape:version="0.92.5 (0.92.5+69)"
   sodipodi:docname="featured_img.svg">
  <defs
     id="defs2">
    <filter
       inkscape:collect="always"
       style="color-interpolation-filters:sRGB"
       id="filter1729"
       x="-0.1974138"
       width="1.3948276"
       y="-0.21104083"
       height="1.4220817">
      <feGaussianBlur
         inkscape:collect="always"
         stdDeviation="1.9801805"
         id="feGaussianBlur1731" />
    </filter>
    <filter
       inkscape:collect="always"
       style="color-interpolation-filters:sRGB"
       id="filter1757"
       x="-0.048"
       width="1.096"
       y="-0.048"
       height="1.096">
      <feGaussianBlur
         inkscape:collect="always"
         stdDeviation="0.30616072"
         id="feGaussianBlur1759" />
    </filter>
    <filter
       inkscape:collect="always"
       style="color-interpolation-filters:sRGB"
       id="filter1797"
       x="-0.039330946"
       width="1.0786619"
       y="-0.05096899"
       height="1.101938">
      <feGaussianBlur
         inkscape:collect="always"
         stdDeviation="0.14768606"
         id="feGaussianBlur1799" />
    </filter>
    <filter
       inkscape:collect="always"
       style="color-interpolation-filters:sRGB"
       id="filter1827"
       x="-0.021341351"
       width="1.0426827"
       y="-0.02741533"
       height="1.0548307">
      <feGaussianBlur
         inkscape:collect="always"
         stdDeviation="0.058136565"
         id="feGaussianBlur1829" />
    </filter>
    <filter
       inkscape:collect="always"
       style="color-interpolation-filters:sRGB"
       id="filter1858"
       x="-0.021345228"
       width="1.0426905"
       y="-0.027408934"
       height="1.0548179">
      <feGaussianBlur
         inkscape:collect="always"
         stdDeviation="0.061495186"
         id="feGaussianBlur1860" />
    </filter>
  </defs>
  <sodipodi:namedview
     id="base"
     pagecolor="#ffffff"
     bordercolor="#666666"
     borderopacity="1.0"
     inkscape:pageopacity="0.0"
     inkscape:pageshadow="2"
     inkscape:zoom="0.7"
     inkscape:cx="290.43186"
     inkscape:cy="245.37856"
     inkscape:document-units="mm"
     inkscape:current-layer="layer1"
     showgrid="false"
     fit-margin-top="0"
     fit-margin-left="0"
     fit-margin-right="0"
     fit-margin-bottom="0"
     inkscape:object-paths="true"
     inkscape:snap-intersection-paths="true"
     inkscape:snap-smooth-nodes="true"
     inkscape:window-width="2560"
     inkscape:window-height="1003"
     inkscape:window-x="0"
     inkscape:window-y="0"
     inkscape:window-maximized="1" />
  <metadata
     id="metadata5">
    <rdf:RDF>
      <cc:Work
         rdf:about="">
        <dc:format>image/svg+xml</dc:format>
        <dc:type
           rdf:resource="http://purl.org/dc/dcmitype/StillImage" />
        <dc:title></dc:title>
      </cc:Work>
    </rdf:RDF>
  </metadata>
  <g
     inkscape:label="Layer 1"
     inkscape:groupmode="layer"
     id="layer1"
     transform="translate(291.54713,12.3854)">
    <rect
       style="opacity:1;fill:none;fill-opacity:1;stroke:none;stroke-width:2.74599504;stroke-linecap:round;stroke-linejoin:round;stroke-miterlimit:4;stroke-dasharray:none;stroke-dashoffset:0;stroke-opacity:1"
       id="rect6274"
       width="197.55855"
       height="141.0089"
       x="-291.54712"
       y="-12.385401"
       inkscape:export-xdpi="64.279999"
       inkscape:export-ydpi="64.279999" />
    <g
       id="g1951"
       inkscape:export-xdpi="64.279999"
       inkscape:export-ydpi="64.279999">
      <g
         transform="matrix(1.0456297,0,0,1.0456297,-235.26036,-2.3901344)"
         id="g1437">
        <path
           inkscape:export-ydpi="64.279999"
           inkscape:export-xdpi="64.279999"
           id="path1422"
           d="m 116.06014,91.804572 -0.65761,-2.48094 c 1.26575,-0.76632 2.44268,-1.67265 3.50708,-2.70086 l 2.21616,1.27949 c 0.45564,0.26307 1.04196,0.10373 1.30698,-0.35527 l 4.55579,-7.89087 c 0.26495,-0.45892 0.11007,-1.04638 -0.34569,-1.30943 l -2.21624,-1.27954 c 0.3583,-1.43629 0.55475,-2.9087 0.58549,-4.38766 l 2.47737,-0.67096 c 0.24711,-0.0669 0.45366,-0.226503 0.58165,-0.449143 0.12775,-0.22211 0.1618,-0.48053 0.0963,-0.72744 l -2.32826,-8.78426 c -0.0657,-0.24694 -0.22288,-0.45347 -0.44323,-0.58124 l -0.001,-10e-4 c -0.2207,-0.12742 -0.47794,-0.16079 -0.72424,-0.094 l -2.47741,0.67105 c -0.75815,-1.26548 -1.65649,-2.4413 -2.67725,-3.50407 l 1.28632,-2.227971 c 0.26449,-0.458092 0.10828,-1.04526 -0.34827,-1.308872 l -7.84834,-4.531241 c -0.45648,-0.263557 -1.04312,-0.105395 -1.30766,0.352819 l -1.28644,2.228191 c -1.43088,-0.352639 -2.89844,-0.542735 -4.37321,-0.566605 l -0.65758,-2.481183 c -0.0656,-0.246716 -0.22294,-0.452663 -0.44363,-0.580073 l -0.001,-5.29e-4 c -0.22086,-0.127101 -0.47849,-0.160253 -0.72527,-0.09328 l -8.770798,2.375631 c -0.24689,0.06677 -0.45378,0.225459 -0.58228,0.447119 -0.12895,0.222261 -0.16385,0.480825 -0.0982,0.728303 l 0.65756,2.481037 c -1.26524,0.765916 -2.44205,1.672302 -3.50693,2.700833 l -2.21622,-1.279541 c -0.45567,-0.263075 -1.04205,-0.103659 -1.3071,0.355399 l -4.55579,7.890853 c -0.26499,0.45902 -0.10982,1.04644 0.34583,1.30952 l 2.21617,1.27949 c -0.35835,1.43656 -0.55478,2.90888 -0.58551,4.387653 l -2.47701,0.67087 c -0.24722,0.0669 -0.45388,0.22639 -0.5819,0.4493 -0.12774,0.22224 -0.1618,0.4807 -0.0962,0.72759 l 2.32852,8.78382 c 0.0654,0.24715 0.22293,0.45363 0.44325,0.58139 l 10e-4,0.001 c 0.2207,0.12742 0.47787,0.16089 0.724,0.094 l 2.47744,-0.67091 c 0.75825,1.26534 1.65671,2.44113 2.67732,3.50398 l -1.28635,2.22798 c -0.26453,0.45821 -0.10828,1.04532 0.3483,1.30886 l 7.84878,4.53137 c 0.4565,0.26356 1.04313,0.10539 1.30761,-0.35272 l 1.286418,-2.22812 c 1.43084,0.35249 2.89847,0.54267 4.37323,0.56653 l 0.65742,2.48097 c 0.0657,0.24764 0.22083,0.45034 0.44541,0.58125 0.22082,0.12696 0.47851,0.15998 0.72512,0.093 l 8.77124,-2.37537 c 0.51004,-0.13829 0.81502,-0.6656 0.67984,-1.17546 z"
           inkscape:connector-curvature="0"
           style="fill:#ffffff;stroke:#4d4d4d;stroke-width:0.59784985" />
        <path
           inkscape:export-ydpi="64.279999"
           inkscape:export-xdpi="64.279999"
           id="path1424"
           d="m 106.4055,94.358722 -0.74128,-2.797 c -0.0589,-0.22262 -0.26009,-0.37706 -0.49006,-0.37615 -1.64784,0.006 -3.28962,-0.20652 -4.87961,-0.63241 -0.001,-2.7e-4 -0.006,-0.002 -0.009,-0.002 -0.24152,-0.0601 -0.486768,0.0647 -0.586388,0.28512 l -1.42475,2.46775 -7.74906,-4.47379 0.5556,-0.96231 3.6707,2.11928 c 0.24239,0.13995 0.55299,0.0558 0.69369,-0.18788 0.14064,-0.24367 0.0583,-0.55473 -0.18413,-0.69468 l -3.67077,-2.11931 0.36339,-0.62942 c 0.13909,-0.19963 0.11926,-0.47475 -0.0565,-0.65081 -1.16211,-1.16254 -2.16613,-2.47606 -2.98442,-3.90435 -0.001,-0.004 -0.004,-0.008 -0.006,-0.011 -0.005,-0.007 -0.009,-0.0155 -0.0138,-0.0223 -0.13187,-0.2005 -0.38229,-0.27685 -0.59927,-0.1955 l -2.74696,0.74387 -2.29853,-8.67195 2.75034,-0.74482 c 0.23476,-0.0422 0.41502,-0.24616 0.41963,-0.49367 1.9e-4,-0.003 2.7e-4,-0.006 -5.3e-4,-0.009 10e-4,-1.652423 0.22131,-3.299873 0.65335,-4.896843 0.065,-0.24048 -0.0519,-0.48698 -0.27026,-0.59103 l -2.46359,-1.42234 4.49796,-7.790681 2.49838,1.442441 c 0.19879,0.11478 0.45039,0.0809 0.61311,-0.0827 1.1662,-1.171825 2.4822,-2.185211 3.91131,-3.012254 0.19953,-0.11543 0.29729,-0.350697 0.23847,-0.573228 l -0.74128,-2.79682 8.659628,-2.345825 0.74138,2.797051 c 0.0592,0.222517 0.26013,0.376811 0.49011,0.376049 1.64761,-0.0063 3.28911,0.206497 4.87905,0.632288 0.23924,0.06409 0.48596,-0.05488 0.59014,-0.273259 l 1.43027,-2.477267 7.74857,4.473639 -0.37823,0.655074 -4.07805,-2.354472 c -0.24238,-0.13993 -0.55298,-0.05583 -0.69369,0.187881 -0.14064,0.243686 -0.0583,0.554744 0.18412,0.694679 l 4.07808,2.354472 -0.54456,0.943218 c -0.12981,0.192534 -0.11467,0.455544 0.0483,0.631684 0.006,0.007 0.0115,0.0129 0.0186,0.0193 1.16076,1.1623 2.16346,2.47523 2.9805,3.90274 0.11416,0.19954 0.34845,0.29655 0.5706,0.23635 l 2.79307,-0.75656 2.29827,8.67239 -2.79286,0.7564 c -0.22218,0.0603 -0.37709,0.262523 -0.37718,0.493123 -0.001,1.65153 -0.22127,3.29799 -0.65293,4.89348 -0.0602,0.22273 0.0361,0.45752 0.23495,0.57229 l 2.49839,1.44245 -4.49795,7.79068 -2.45923,-1.41984 c -0.19817,-0.13923 -0.47417,-0.11885 -0.65094,0.0588 -1.166,1.17193 -2.48242,2.18591 -3.91277,3.0136 -0.1996,0.11553 -0.29728,0.35069 -0.23846,0.57323 l 0.74146,2.79691 z"
           inkscape:connector-curvature="0"
           style="fill:#ececec;stroke:#4d4d4d;stroke-width:0.17935494" />
        <path
           inkscape:export-ydpi="64.279999"
           inkscape:export-xdpi="64.279999"
           id="path1426"
           d="m 113.41561,58.129204 c -7.79511,-4.500507 -17.818428,-1.785903 -22.343238,6.051305 -4.52483,7.837233 -1.86451,17.874713 5.93103,22.375473 7.795118,4.50052 17.817988,1.78567 22.342808,-6.05156 4.52481,-7.83721 1.86452,-17.874713 -5.9306,-22.375218 z"
           inkscape:connector-curvature="0"
           style="fill:#ffffff;stroke:#808080;stroke-width:0.59784985" />
        <path
           inkscape:export-ydpi="64.279999"
           inkscape:export-xdpi="64.279999"
           id="path1428"
           d="m 97.615632,85.495092 c -7.21344,-4.16486 -9.67526,-13.4528 -5.48802,-20.705343 4.18724,-7.252527 13.462278,-9.764364 20.675368,-5.5999 7.21306,4.16448 9.67526,13.452803 5.48799,20.705343 -4.18724,7.25253 -13.46181,9.76463 -20.675338,5.5999 z"
           inkscape:connector-curvature="0"
           style="fill:#ffffff;stroke:#808080;stroke-width:0.17935494" />
        <path
           inkscape:export-ydpi="64.279999"
           inkscape:export-xdpi="64.279999"
           id="path1430"
           d="m 98.886832,83.293302 c -6.00603,-3.46757 -8.05611,-11.20113 -4.56986,-17.239513 3.48627,-6.03839 11.208758,-8.129727 17.214788,-4.66215 6.00602,3.46757 8.05612,11.201133 4.56985,17.239513 -3.48627,6.03838 -11.20876,8.12973 -17.214778,4.66215 z"
           inkscape:connector-curvature="0"
           style="fill:#ffffff;stroke:#4d4d4d;stroke-width:0.70165461" />
      </g>
      <g
         transform="matrix(1.0456297,0,0,1.0456297,-236.86572,9.9112956)"
         id="g1420">
        <path
           inkscape:export-ydpi="64.279999"
           inkscape:export-xdpi="64.279999"
           style="fill:#ffffff;stroke:#4d4d4d;stroke-width:1.77449548"
           inkscape:connector-curvature="0"
           d="m 19.314264,45.332341 -2.80682,-1.114183 c 0.1302,-1.740476 0.10179,-3.489597 -0.0845,-5.224743 l 2.76717,-1.206362 c 1.0799,-0.470808 1.57714,-1.738032 1.10858,-2.825224 l -5.0792,-11.776691 c -0.46898,-1.085718 -1.72831,-1.587775 -2.80849,-1.116682 l -2.76749,1.206714 c -1.13154,-1.321659 -2.38205,-2.537928 -3.73525,-3.632245 l 1.10893,-2.822032 c 0.43216,-1.099222 -0.1068,-2.348609 -1.20305,-2.785703 L -6.060546,9.318942 c -1.09653,-0.434512 -2.3389,0.107111 -2.77113,1.207064 l -1.10892,2.821561 c -1.73074,-0.130506 -3.47044,-0.102542 -5.19632,0.08508 l -1.2006,-2.783578 c -0.46899,-1.085734 -1.73044,-1.585357 -2.80956,-1.112793 l -11.71214,5.106546 c -0.52277,0.227753 -0.92662,0.646239 -1.13686,1.177893 -0.21133,0.534509 -0.20247,1.118804 0.0246,1.645507 l 1.20023,2.782528 c -1.31526,1.138375 -2.525,2.395559 -3.6131,3.755763 l -2.80607,-1.11492 c -0.53198,-0.211026 -1.11283,-0.20071 -1.63671,0.02887 -0.5224,0.228819 -0.9252,0.6487 -1.13404,1.181097 l -4.69118,11.938344 c -0.43181,1.102096 0.10696,2.351498 1.20061,2.78601 l 2.80682,1.114568 c -0.13035,1.739095 -0.10194,3.48852 0.0846,5.223969 l -2.76747,1.20674 c -1.0799,0.47042 -1.57714,1.73759 -1.10857,2.82507 l 5.07951,11.776083 c 0.46862,1.08681 1.72861,1.58778 2.80819,1.11741 l 2.76794,-1.20674 c 1.13227,1.32239 2.38281,2.53869 3.73525,3.63255 l -1.1075,2.81945 c -0.21095,0.53449 -0.20138,1.11988 0.0277,1.64763 0.22759,0.5242 0.64382,0.92882 1.1744,1.14017 l 11.8721,4.71518 c 0.25521,0.10179 0.52208,0.15237 0.78861,0.15237 0.2881,0 0.57621,-0.0594 0.8484,-0.17827 0.5235,-0.22812 0.92699,-0.64697 1.13619,-1.18004 l 1.10857,-2.82157 c 1.7315,0.13096 3.4712,0.10239 5.19632,-0.0854 l 1.20062,2.78282 c 0.46827,1.08501 1.72755,1.58505 2.80955,1.11382 l 11.71243,-5.10653 c 1.08098,-0.47116 1.58005,-1.73759 1.11209,-2.8237 v -2.7e-4 l -1.2002,-2.78251 c 1.31526,-1.13804 2.52499,-2.39527 3.61279,-3.75531 l 2.80607,1.11455 c 0.53127,0.21103 1.11282,0.20106 1.6373,-0.0289 0.52172,-0.22884 0.92417,-0.64802 1.13371,-1.18077 l 4.69087,-11.937583 c 0.43254,-1.10102 -0.10513,-2.35121 -1.20025,-2.78631 z"
           id="path1408" />
        <path
           inkscape:export-ydpi="64.279999"
           inkscape:export-xdpi="64.279999"
           style="fill:#ececec;stroke:#808080;stroke-width:0.53200001;stroke-miterlimit:4;stroke-dasharray:none"
           inkscape:connector-curvature="0"
           d="m 13.345884,58.132471 -3.04565,-1.20957 c -0.63355,-0.25194 -1.35704,-0.0435 -1.76234,0.50744 -1.33615,1.817033 -2.90665,3.449323 -4.66793,4.851743 -0.53408,0.42523 -0.71708,1.15868 -0.44631,1.78712 l 1.30253,3.01983 -10.1137,4.4095 -1.26539,-2.93339 c -0.24102,-0.67151 -0.92168,-1.08821 -1.637,-0.98076 -2.22389,0.33417 -4.48349,0.37151 -6.7165,0.1106 -0.67746,-0.0779 -1.32236,0.30923 -1.57258,0.94658 l -1.20305,3.06176 -10.25243,-4.07177 1.20307,-3.06221 c 0.2506,-0.63736 0.0435,-1.36437 -0.50472,-1.77177 -1.80792,-1.34372 -3.43232,-2.92366 -4.82791,-4.695873 -0.008,-0.009 -0.0159,-0.0199 -0.0237,-0.0293 -0.46049,-0.55549 -1.23421,-0.69571 -1.84863,-0.37438 l -2.90665,1.267223 -4.38579,-10.168253 2.91895,-1.27289 c 0.63005,-0.22955 1.03992,-0.85835 0.98613,-1.53977 -0.005,-0.0456 -0.009,-0.0907 -0.0163,-0.13567 -0.32884,-2.228298 -0.36423,-4.490935 -0.10514,-6.725008 0.0843,-0.725924 -0.35856,-1.394251 -1.02824,-1.612691 l -2.95966,-1.17575 4.05019,-10.307725 2.96468,1.177875 c 0.59642,0.278635 1.31918,0.134152 1.76234,-0.374682 0.0343,-0.03919 0.0666,-0.07976 0.0963,-0.121999 1.33263,-1.807766 2.89708,-3.432323 4.65015,-4.828974 0.0471,-0.03737 0.0916,-0.07718 0.1337,-0.119113 0.46863,-0.471156 0.56562,-1.179652 0.28034,-1.749425 l -1.26787,-2.939777 10.11372,-4.409488 1.30218,3.019372 c 0.27113,0.62846 0.92911,0.996032 1.60236,0.893922 2.22314,-0.333812 4.48167,-0.370809 6.7133,-0.109691 0.67818,0.07794 1.32237,-0.309248 1.5729,-0.946582 l 1.20341,-3.062517 10.25243,4.072072 -1.20342,3.062518 c -0.25022,0.637365 -0.0433,1.364366 0.50472,1.771758 1.80898,1.344785 3.43338,2.924432 4.8276,4.695278 0.44526,0.565459 1.21439,0.726638 1.838,0.419912 l 2.94204,-1.282875 4.3855,10.168258 -2.91332,1.270066 c -0.67286,0.242718 -1.08628,0.931283 -0.97972,1.64733 0.33272,2.235441 0.36952,4.507648 0.10969,6.752796 -0.079,0.68074 0.30761,1.32983 0.94189,1.58186 l 3.04565,1.20919 z"
           id="path1410" />
        <path
           inkscape:export-ydpi="64.279999"
           inkscape:export-xdpi="64.279999"
           style="fill:#ffffff;stroke:#4d4d4d;stroke-width:1.0148654"
           inkscape:connector-curvature="0"
           d="m -4.217516,22.119224 c -5.30434,-2.107065 -11.1073,-2.01059 -16.33964,0.270476 -5.23278,2.281457 -9.26855,6.474465 -11.36421,11.807685 -2.09537,5.332902 -1.99981,11.167616 0.26898,16.429266 3.48822,8.087173 11.36345,12.926933 19.61972,12.926173 2.83054,0 5.7074,-0.56939 8.46502,-1.77145 10.80147,-4.709113 15.77903,-17.375793 11.09484,-28.235452 -2.26886,-5.261041 -6.43969,-9.318831 -11.74403,-11.425589 z"
           id="path1412" />
        <path
           inkscape:export-ydpi="64.279999"
           inkscape:export-xdpi="64.279999"
           style="fill:#ffffff;stroke:#4d4d4d;stroke-width:0.56393409"
           inkscape:connector-curvature="0"
           d="m -12.068626,59.984344 c -9.82003,0 -17.80876,-8.032183 -17.80876,-17.904479 0,-9.872758 7.98918,-17.904479 17.80876,-17.904479 9.81974,0 17.80877,8.032329 17.80877,17.904479 0,9.873056 -7.98918,17.904479 -17.80877,17.904479 z"
           id="path1414" />
      </g>
      <rect
         ry="0.79044622"
         rx="0.79044622"
         y="50.683968"
         x="-260.29272"
         height="23.318163"
         width="148.20868"
         id="rect1254"
         style="opacity:1;vector-effect:none;fill:#ffffff;fill-opacity:1;stroke:#4d4d4d;stroke-width:1.85494709;stroke-linecap:round;stroke-linejoin:round;stroke-miterlimit:4;stroke-dasharray:none;stroke-dashoffset:0;stroke-opacity:1;paint-order:normal" />
      <g
         transform="matrix(1.0456297,0,0,1.0456297,-234.69756,-1.6021717)"
         id="g1355">
        <g
           id="g1289">
          <path
             inkscape:connector-curvature="0"
             id="path1256"
             d="M -5.2014317,50.004452 V 72.305046"
             style="fill:none;stroke:#4d4d4d;stroke-width:1;stroke-linecap:butt;stroke-linejoin:miter;stroke-miterlimit:4;stroke-dasharray:none;stroke-opacity:1" />
          <path
             style="fill:none;stroke:#4d4d4d;stroke-width:0.34999999;stroke-linecap:butt;stroke-linejoin:miter;stroke-miterlimit:4;stroke-dasharray:none;stroke-opacity:1"
             d="M -6.28811,50.004452 V 72.305046"
             id="path1282"
             inkscape:connector-curvature="0" />
          <path
             inkscape:connector-curvature="0"
             id="path1284"
             d="M -4.1147608,50.004452 V 72.305046"
             style="fill:none;stroke:#4d4d4d;stroke-width:0.34999999;stroke-linecap:butt;stroke-linejoin:miter;stroke-miterlimit:4;stroke-dasharray:none;stroke-opacity:1" />
        </g>
        <g
           id="g1297"
           transform="translate(20.6375)">
          <path
             style="fill:none;stroke:#4d4d4d;stroke-width:1;stroke-linecap:butt;stroke-linejoin:miter;stroke-miterlimit:4;stroke-dasharray:none;stroke-opacity:1"
             d="M -5.2014317,50.004452 V 72.305046"
             id="path1291"
             inkscape:connector-curvature="0" />
          <path
             inkscape:connector-curvature="0"
             id="path1293"
             d="M -6.28811,50.004452 V 72.305046"
             style="fill:none;stroke:#4d4d4d;stroke-width:0.34999999;stroke-linecap:butt;stroke-linejoin:miter;stroke-miterlimit:4;stroke-dasharray:none;stroke-opacity:1" />
          <path
             style="fill:none;stroke:#4d4d4d;stroke-width:0.34999999;stroke-linecap:butt;stroke-linejoin:miter;stroke-miterlimit:4;stroke-dasharray:none;stroke-opacity:1"
             d="M -4.1147608,50.004452 V 72.305046"
             id="path1295"
             inkscape:connector-curvature="0" />
        </g>
        <g
           transform="translate(41.275)"
           id="g1305">
          <path
             inkscape:connector-curvature="0"
             id="path1299"
             d="M -5.2014317,50.004452 V 72.305046"
             style="fill:none;stroke:#4d4d4d;stroke-width:1;stroke-linecap:butt;stroke-linejoin:miter;stroke-miterlimit:4;stroke-dasharray:none;stroke-opacity:1" />
          <path
             style="fill:none;stroke:#4d4d4d;stroke-width:0.34999999;stroke-linecap:butt;stroke-linejoin:miter;stroke-miterlimit:4;stroke-dasharray:none;stroke-opacity:1"
             d="M -6.28811,50.004452 V 72.305046"
             id="path1301"
             inkscape:connector-curvature="0" />
          <path
             inkscape:connector-curvature="0"
             id="path1303"
             d="M -4.1147608,50.004452 V 72.305046"
             style="fill:none;stroke:#4d4d4d;stroke-width:0.34999999;stroke-linecap:butt;stroke-linejoin:miter;stroke-miterlimit:4;stroke-dasharray:none;stroke-opacity:1" />
        </g>
        <g
           id="g1313"
           transform="translate(61.9125)">
          <path
             style="fill:none;stroke:#4d4d4d;stroke-width:1;stroke-linecap:butt;stroke-linejoin:miter;stroke-miterlimit:4;stroke-dasharray:none;stroke-opacity:1"
             d="M -5.2014317,50.004452 V 72.305046"
             id="path1307"
             inkscape:connector-curvature="0" />
          <path
             inkscape:connector-curvature="0"
             id="path1309"
             d="M -6.28811,50.004452 V 72.305046"
             style="fill:none;stroke:#4d4d4d;stroke-width:0.34999999;stroke-linecap:butt;stroke-linejoin:miter;stroke-miterlimit:4;stroke-dasharray:none;stroke-opacity:1" />
          <path
             style="fill:none;stroke:#4d4d4d;stroke-width:0.34999999;stroke-linecap:butt;stroke-linejoin:miter;stroke-miterlimit:4;stroke-dasharray:none;stroke-opacity:1"
             d="M -4.1147608,50.004452 V 72.305046"
             id="path1311"
             inkscape:connector-curvature="0" />
        </g>
        <g
           transform="translate(82.55)"
           id="g1321">
          <path
             inkscape:connector-curvature="0"
             id="path1315"
             d="M -5.2014317,50.004452 V 72.305046"
             style="fill:none;stroke:#4d4d4d;stroke-width:1;stroke-linecap:butt;stroke-linejoin:miter;stroke-miterlimit:4;stroke-dasharray:none;stroke-opacity:1" />
          <path
             style="fill:none;stroke:#4d4d4d;stroke-width:0.34999999;stroke-linecap:butt;stroke-linejoin:miter;stroke-miterlimit:4;stroke-dasharray:none;stroke-opacity:1"
             d="M -6.28811,50.004452 V 72.305046"
             id="path1317"
             inkscape:connector-curvature="0" />
          <path
             inkscape:connector-curvature="0"
             id="path1319"
             d="M -4.1147608,50.004452 V 72.305046"
             style="fill:none;stroke:#4d4d4d;stroke-width:0.34999999;stroke-linecap:butt;stroke-linejoin:miter;stroke-miterlimit:4;stroke-dasharray:none;stroke-opacity:1" />
        </g>
        <g
           id="g1329"
           transform="translate(103.1875)">
          <path
             style="fill:none;stroke:#4d4d4d;stroke-width:1;stroke-linecap:butt;stroke-linejoin:miter;stroke-miterlimit:4;stroke-dasharray:none;stroke-opacity:1"
             d="M -5.2014317,50.004452 V 72.305046"
             id="path1323"
             inkscape:connector-curvature="0" />
          <path
             inkscape:connector-curvature="0"
             id="path1325"
             d="M -6.28811,50.004452 V 72.305046"
             style="fill:none;stroke:#4d4d4d;stroke-width:0.34999999;stroke-linecap:butt;stroke-linejoin:miter;stroke-miterlimit:4;stroke-dasharray:none;stroke-opacity:1" />
          <path
             style="fill:none;stroke:#4d4d4d;stroke-width:0.34999999;stroke-linecap:butt;stroke-linejoin:miter;stroke-miterlimit:4;stroke-dasharray:none;stroke-opacity:1"
             d="M -4.1147608,50.004452 V 72.305046"
             id="path1327"
             inkscape:connector-curvature="0" />
        </g>
      </g>
      <g
         style="fill:#808080;stroke:#808080"
         transform="matrix(1.0456297,0,0,1.0456297,-235.26036,-1.6021717)"
         id="g1406">
        <path
           inkscape:connector-curvature="0"
           id="path1361"
           style="font-style:normal;font-variant:normal;font-weight:normal;font-stretch:normal;font-size:10.58333302px;line-height:1.25;font-family:'MADE TOMMY';-inkscape-font-specification:'MADE TOMMY';text-align:center;letter-spacing:0px;word-spacing:0px;text-anchor:middle;fill:#808080;fill-opacity:1;stroke:#808080;stroke-width:0.26458332"
           d="m -13.870713,60.727051 c -0.941916,-0.21167 -1.841499,-0.35984 -1.841499,-1.30175 0,-0.70909 0.5715,-1.143 1.280583,-1.143 0.783166,0 1.164166,0.42333 1.312333,0.86783 l 1.037167,-0.254 c -0.306917,-1.02658 -1.185334,-1.59808 -2.243667,-1.59808 -1.375833,0 -2.44475,0.87841 -2.44475,2.12725 0,0.96308 0.338667,1.74625 1.830917,2.10608 1.17475,0.28575 2.074333,0.32808 2.074333,1.3335 0,0.762 -0.709083,1.11125 -1.513416,1.11125 -0.98425,0 -1.534584,-0.51858 -1.640417,-1.00542 l -1.04775,0.32809 c 0.359833,1.16416 1.534583,1.67216 2.667,1.67216 1.905,0 2.614083,-1.15358 2.614083,-2.19075 0,-1.19591 -0.645583,-1.7145 -2.084917,-2.05316 z" />
        <path
           inkscape:connector-curvature="0"
           id="path1363"
           style="font-style:normal;font-variant:normal;font-weight:normal;font-stretch:normal;font-size:10.58333302px;line-height:1.25;font-family:'MADE TOMMY';-inkscape-font-specification:'MADE TOMMY';text-align:center;letter-spacing:0px;word-spacing:0px;text-anchor:middle;fill:#808080;fill-opacity:1;stroke:#808080;stroke-width:0.26458332"
           d="M 8.5378965,57.430341 H 3.7330633 v 0.96308 h 1.87325 v 6.44525 h 1.0583333 v -6.44525 h 1.8732499 z" />
        <path
           inkscape:connector-curvature="0"
           id="path1365"
           style="font-style:normal;font-variant:normal;font-weight:normal;font-stretch:normal;font-size:10.58333302px;line-height:1.25;font-family:'MADE TOMMY';-inkscape-font-specification:'MADE TOMMY';text-align:center;letter-spacing:0px;word-spacing:0px;text-anchor:middle;fill:#808080;fill-opacity:1;stroke:#808080;stroke-width:0.26458332"
           d="m 29.433092,64.838669 -1.756833,-3.1115 c 0.85725,-0.37042 1.3335,-1.12183 1.3335,-2.02142 0,-1.28058 -0.973667,-2.27541 -2.667,-2.27541 h -2.286 v 7.40833 h 1.058334 v -2.8575 h 1.227666 c 0.105833,0 0.201083,0 0.28575,-0.0106 l 1.534583,2.86808 z m -4.317999,-3.82058 v -2.62467 h 1.227666 c 1.026583,0 1.576916,0.51858 1.576916,1.31233 0,0.79375 -0.550333,1.31234 -1.576916,1.31234 z" />
        <path
           inkscape:connector-curvature="0"
           id="path1367"
           style="font-style:normal;font-variant:normal;font-weight:normal;font-stretch:normal;font-size:10.58333302px;line-height:1.25;font-family:'MADE TOMMY';-inkscape-font-specification:'MADE TOMMY';text-align:center;letter-spacing:0px;word-spacing:0px;text-anchor:middle;fill:#808080;fill-opacity:1;stroke:#808080;stroke-width:0.26458332"
           d="m 45.806204,57.430341 v 7.40833 h 1.058333 v -7.40833 z" />
        <path
           inkscape:connector-curvature="0"
           id="path1369"
           style="font-style:normal;font-variant:normal;font-weight:normal;font-stretch:normal;font-size:10.58333302px;line-height:1.25;font-family:'MADE TOMMY';-inkscape-font-specification:'MADE TOMMY';text-align:center;letter-spacing:0px;word-spacing:0px;text-anchor:middle;fill:#808080;fill-opacity:1;stroke:#808080;stroke-width:0.26458332"
           d="m 69.368085,57.430341 v 5.461 l -3.84175,-5.461 h -0.92075 v 7.40833 h 1.058333 v -5.461 l 3.84175,5.461 h 0.92075 v -7.40833 z" />
        <path
           inkscape:connector-curvature="0"
           id="path1371"
           style="font-style:normal;font-variant:normal;font-weight:normal;font-stretch:normal;font-size:10.58333302px;line-height:1.25;font-family:'MADE TOMMY';-inkscape-font-specification:'MADE TOMMY';text-align:center;letter-spacing:0px;word-spacing:0px;text-anchor:middle;fill:#808080;fill-opacity:1;stroke:#808080;stroke-width:0.26458332"
           d="m 88.162409,60.832881 v 0.96308 h 2.465916 c -0.169333,1.21709 -1.016,2.18017 -2.561166,2.18017 -1.735667,0 -2.688167,-1.40758 -2.688167,-2.84692 0,-1.43933 0.9525,-2.84691 2.688167,-2.84691 0.899583,0 1.598083,0.39158 2.053166,0.96308 l 0.889,-0.58208 c -0.677333,-0.84667 -1.7145,-1.36525 -2.942166,-1.36525 -2.201334,0 -3.767667,1.66158 -3.767667,3.83116 0,2.16959 1.566333,3.84175 3.767667,3.84175 1.259416,0 2.116666,-0.508 2.624666,-1.34408 l 0.09525,1.2065 h 0.677334 v -4.0005 z" />
        <path
           inkscape:connector-curvature="0"
           id="path1373"
           style="font-style:normal;font-variant:normal;font-weight:normal;font-stretch:normal;font-size:10.58333302px;line-height:1.25;font-family:'MADE TOMMY';-inkscape-font-specification:'MADE TOMMY';text-align:center;letter-spacing:0px;word-spacing:0px;text-anchor:middle;fill:#808080;fill-opacity:1;stroke:#808080;stroke-width:0.26458332"
           d="m 108.8761,60.727051 c -0.94192,-0.21167 -1.8415,-0.35984 -1.8415,-1.30175 0,-0.70909 0.5715,-1.143 1.28058,-1.143 0.78317,0 1.16417,0.42333 1.31233,0.86783 l 1.03717,-0.254 c -0.30692,-1.02658 -1.18533,-1.59808 -2.24367,-1.59808 -1.37583,0 -2.44475,0.87841 -2.44475,2.12725 0,0.96308 0.33867,1.74625 1.83092,2.10608 1.17475,0.28575 2.07433,0.32808 2.07433,1.3335 0,0.762 -0.70908,1.11125 -1.51341,1.11125 -0.98425,0 -1.53459,-0.51858 -1.64042,-1.00542 l -1.04775,0.32809 c 0.35983,1.16416 1.53458,1.67216 2.667,1.67216 1.905,0 2.61408,-1.15358 2.61408,-2.19075 0,-1.19591 -0.64558,-1.7145 -2.08491,-2.05316 z" />
      </g>
      <g
         transform="matrix(1.9159862,0,0,1.9159862,102.3796,-1.0168361)"
         id="g1879">
        <path
           style="opacity:0.594;fill:#ffcc00;fill-opacity:1;stroke:none;stroke-width:0.26458332px;stroke-linecap:butt;stroke-linejoin:miter;stroke-opacity:1;filter:url(#filter1729)"
           d="m -142.1431,1.0675519 -4.39525,18.6174971 17.64393,-4.31842 z"
           id="path1643"
           inkscape:connector-curvature="0"
           sodipodi:nodetypes="cccc"
           transform="matrix(0.49812361,-0.10585459,0.10585459,0.49812361,-51.799161,-10.739881)" />
        <rect
           style="opacity:1;vector-effect:none;fill:#ffcc00;fill-opacity:1;stroke:none;stroke-width:0.34999999;stroke-linecap:round;stroke-linejoin:round;stroke-miterlimit:4;stroke-dasharray:none;stroke-dashoffset:0;stroke-opacity:1;paint-order:normal;filter:url(#filter1757)"
           id="rect1550"
           width="15.308036"
           height="15.308036"
           x="-142.81349"
           y="0.30058262"
           ry="2.4568453"
           transform="matrix(0.49812361,-0.10585459,0.10585459,0.49812361,-51.799161,-10.739881)" />
        <g
           aria-label="\n"
           style="font-style:normal;font-variant:normal;font-weight:normal;font-stretch:normal;font-size:8.46234226px;line-height:1.25;font-family:'MADE TOMMY';-inkscape-font-specification:'MADE TOMMY';text-align:center;letter-spacing:0px;word-spacing:0px;text-anchor:middle;fill:#4d4d4d;fill-opacity:1;stroke:#4d4d4d;stroke-width:0.21155855;filter:url(#filter1797)"
           id="text1554"
           transform="matrix(0.49812361,-0.10585459,0.10585459,0.49812361,-51.799161,-10.739881)">
          <path
             d="m -138.87621,4.4775202 3.24775,6.9541608 h -0.78508 l -3.25189,-6.9541608 z"
             style="font-style:normal;font-variant:normal;font-weight:normal;font-stretch:normal;font-family:'DejaVu Sans Mono';-inkscape-font-specification:'DejaVu Sans Mono';fill:#4d4d4d;stroke:#4d4d4d;stroke-width:0.21155855"
             id="path1556"
             inkscape:connector-curvature="0" />
          <path
             d="m -130.65353,7.7789906 v 2.8676104 h -0.76442 V 7.7789906 q 0,-0.6239325 -0.21899,-0.9173047 -0.219,-0.2933722 -0.68592,-0.2933722 -0.53302,0 -0.82226,0.3801443 -0.28511,0.3760123 -0.28511,1.0825848 v 2.6155582 h -0.76029 V 6.0187573 h 0.76029 v 0.6941765 q 0.20247,-0.3966723 0.54955,-0.5991404 0.34709,-0.2066002 0.82227,-0.2066002 0.70658,0 1.05366,0.4669164 0.35122,0.4627843 0.35122,1.404881 z"
             style="font-style:normal;font-variant:normal;font-weight:normal;font-stretch:normal;font-family:'DejaVu Sans Mono';-inkscape-font-specification:'DejaVu Sans Mono';fill:#4d4d4d;stroke:#4d4d4d;stroke-width:0.21155855"
             id="path1558"
             inkscape:connector-curvature="0" />
        </g>
      </g>
      <g
         transform="matrix(1.5021071,0,0,1.5021071,70.755327,-61.413176)"
         id="g1886">
        <path
           transform="matrix(-0.12226783,0.69668629,-0.69668629,-0.12226783,-161.25317,209.33334)"
           sodipodi:nodetypes="cccc"
           inkscape:connector-curvature="0"
           id="path1801"
           d="m -142.1431,1.0675519 -4.39525,18.6174971 17.64393,-4.31842 z"
           style="opacity:0.594;fill:#3771c8;fill-opacity:1;stroke:none;stroke-width:0.26458332px;stroke-linecap:butt;stroke-linejoin:miter;stroke-opacity:1;filter:url(#filter1729)" />
        <rect
           transform="matrix(-0.12226783,0.69668629,-0.69668629,-0.12226783,-161.25317,209.33334)"
           ry="2.4568453"
           y="0.30058262"
           x="-142.81349"
           height="15.308036"
           width="15.308036"
           id="rect1803"
           style="opacity:1;vector-effect:none;fill:#3771c8;fill-opacity:1;stroke:none;stroke-width:0.34999999;stroke-linecap:round;stroke-linejoin:round;stroke-miterlimit:4;stroke-dasharray:none;stroke-dashoffset:0;stroke-opacity:1;paint-order:normal;filter:url(#filter1757)" />
        <g
           aria-label="\t"
           style="font-style:normal;font-variant:normal;font-weight:normal;font-stretch:normal;font-size:6.19316959px;line-height:1.25;font-family:'DejaVu Sans Mono';-inkscape-font-specification:'DejaVu Sans Mono';text-align:center;letter-spacing:0px;word-spacing:0px;text-anchor:middle;fill:#000000;fill-opacity:1;stroke:none;stroke-width:0.15482923;filter:url(#filter1827)"
           id="text1813"
           transform="translate(-33.764236,84.6204)">
          <path
             d="m -118.95493,27.568796 2.37687,5.089407 h -0.57456 l -2.3799,-5.089407 z"
             style="font-style:normal;font-variant:normal;font-weight:normal;font-stretch:normal;font-family:'DejaVu Sans Mono';-inkscape-font-specification:'DejaVu Sans Mono';fill:#ffffff;stroke-width:0.15482923"
             id="path1831"
             inkscape:connector-curvature="0" />
          <path
             d="m -114.25865,27.735117 v 0.961634 h 1.26404 v 0.432434 h -1.26404 v 1.838597 q 0,0.374977 0.14213,0.523153 0.14213,0.148177 0.49594,0.148177 h 0.62597 v 0.444529 h -0.6804 q -0.62597,0 -0.88301,-0.250993 -0.25704,-0.250992 -0.25704,-0.864866 v -1.838597 h -0.90418 v -0.432434 h 0.90418 v -0.961634 z"
             style="font-style:normal;font-variant:normal;font-weight:normal;font-stretch:normal;font-family:'DejaVu Sans Mono';-inkscape-font-specification:'DejaVu Sans Mono';fill:#ffffff;stroke-width:0.15482923"
             id="path1833"
             inkscape:connector-curvature="0" />
        </g>
      </g>
      <g
         transform="matrix(1.4041617,0,0,1.4041617,64.595065,-8.3827664)"
         id="g1872">
        <path
           style="opacity:0.594;fill:#8d5fd3;fill-opacity:1;stroke:none;stroke-width:0.26458332px;stroke-linecap:butt;stroke-linejoin:miter;stroke-opacity:1;filter:url(#filter1729)"
           d="m -142.1431,1.0675519 -8.51918,14.2209241 19.16569,1.829992 z"
           id="path1836"
           inkscape:connector-curvature="0"
           sodipodi:nodetypes="cccc"
           transform="matrix(-0.18307148,-0.68323205,0.68323205,-0.18307148,-237.77627,-80.709889)" />
        <rect
           style="opacity:1;vector-effect:none;fill:#7137c8;fill-opacity:1;stroke:none;stroke-width:0.34999999;stroke-linecap:round;stroke-linejoin:round;stroke-miterlimit:4;stroke-dasharray:none;stroke-dashoffset:0;stroke-opacity:1;paint-order:normal;filter:url(#filter1757)"
           id="rect1838"
           width="15.308036"
           height="15.308036"
           x="-142.81349"
           y="0.30058262"
           ry="2.4568453"
           transform="matrix(0.70733387,0,0,0.70733387,-111.37496,5.2101565)" />
        <g
           aria-label="\b"
           style="font-style:normal;font-variant:normal;font-weight:normal;font-stretch:normal;font-size:6.3160553px;line-height:1.25;font-family:'MADE TOMMY';-inkscape-font-specification:'MADE TOMMY';text-align:center;letter-spacing:0px;word-spacing:0px;text-anchor:middle;fill:#e3d7f4;fill-opacity:1;stroke:none;stroke-width:0.15790138;filter:url(#filter1858)"
           id="text1848">
          <path
             d="m -209.84596,8.3386653 2.42403,5.1903907 h -0.58596 l -2.42712,-5.1903907 z"
             style="font-style:normal;font-variant:normal;font-weight:normal;font-stretch:normal;font-family:'DejaVu Sans Mono';-inkscape-font-specification:'DejaVu Sans Mono';fill:#e3d7f4;stroke-width:0.15790138"
             id="path1862"
             inkscape:connector-curvature="0" />
          <path
             d="m -204.11895,11.219132 q 0,-0.659979 -0.20971,-0.996136 -0.20972,-0.336157 -0.61989,-0.336157 -0.41326,0 -0.62605,0.339241 -0.2128,0.336157 -0.2128,0.993052 0,0.65381 0.2128,0.993052 0.21279,0.339241 0.62605,0.339241 0.41017,0 0.61989,-0.336157 0.20971,-0.336158 0.20971,-0.996136 z m -1.66845,-1.2891169 q 0.1357,-0.2528889 0.37316,-0.3885854 0.24056,-0.1356965 0.55513,-0.1356965 0.62297,0 0.98071,0.4811058 0.35775,0.478022 0.35775,1.319957 0,0.854271 -0.36083,1.341545 -0.35775,0.48419 -0.9838,0.48419 -0.3084,0 -0.54587,-0.132613 -0.23439,-0.135696 -0.37625,-0.391669 v 0.434845 h -0.56746 V 8.1443726 h 0.56746 z"
             style="font-style:normal;font-variant:normal;font-weight:normal;font-stretch:normal;font-family:'DejaVu Sans Mono';-inkscape-font-specification:'DejaVu Sans Mono';fill:#e3d7f4;stroke-width:0.15790138"
             id="path1864"
             inkscape:connector-curvature="0" />
        </g>
      </g>
    </g>
  </g>
</svg>
