<?xml version="1.0" encoding="UTF-8" standalone="no"?>
<!-- Created with Inkscape (http://www.inkscape.org/) -->

<svg
   xmlns:dc="http://purl.org/dc/elements/1.1/"
   xmlns:cc="http://creativecommons.org/ns#"
   xmlns:rdf="http://www.w3.org/1999/02/22-rdf-syntax-ns#"
   xmlns:svg="http://www.w3.org/2000/svg"
   xmlns="http://www.w3.org/2000/svg"
   xmlns:xlink="http://www.w3.org/1999/xlink"
   xmlns:sodipodi="http://sodipodi.sourceforge.net/DTD/sodipodi-0.dtd"
   xmlns:inkscape="http://www.inkscape.org/namespaces/inkscape"
   width="197.556mm"
   height="141.11111mm"
   viewBox="0 0 197.556 141.11111"
   version="1.1"
   id="svg8"
   inkscape:version="0.92.5 (0.92.5+69)"
   sodipodi:docname="featured_img.svg">
  <defs
     id="defs2">
    <clipPath
       id="clipPath4510"
       clipPathUnits="userSpaceOnUse">
      <path
         style="fill:#ececec;stroke:#000000;stroke-width:0.529167;stroke-miterlimit:4;stroke-dasharray:none"
         d="m 77.343267,258.28386 -4.52729,-4.52755 c -0.36036,-0.36037 -0.918099,-0.43366 -1.3589,-0.17807 -3.15939,1.83012 -6.550023,3.23506 -10.077715,4.17566 -0.0063,0.002 -0.01297,0.003 -0.01905,0.005 -0.530754,0.1516 -0.8636,0.66066 -0.810416,1.19194 v 6.28836 l -19.852217,2.6e-4 v -2.45216 h 9.40435 c 0.620977,0 1.124477,-0.5035 1.124477,-1.12448 0,-0.62097 -0.5035,-1.12448 -1.124477,-1.12448 h -9.40435 v -1.6039 c 0.04577,-0.53499 -0.297392,-1.03902 -0.830792,-1.18136 -3.522662,-0.93954 -6.909064,-2.3421 -10.065808,-4.16878 -0.0079,-0.005 -0.01614,-0.01 -0.02434,-0.014 -0.01588,-0.009 -0.03493,-0.019 -0.05107,-0.0272 -0.475721,-0.23759 -1.041665,-0.10741 -1.368425,0.2876 l -4.452937,4.45267 -14.0374688,-14.03772 4.4584938,-4.45824 c 0.404283,-0.33973 0.524404,-0.92842 0.258762,-1.40653 -0.0032,-0.006 -0.0064,-0.0114 -0.01005,-0.0175 -1.830387,-3.15965 -3.235589,-6.55081 -4.176977,-10.07956 -0.141816,-0.53129 -0.6400266,-0.87339 -1.1750136,-0.83132 h -6.311637 v -19.852 h 6.4008 c 0.5093229,0 0.9551456,-0.34237 1.0863786,-0.83451 0.940859,-3.52636 2.345267,-6.91515 4.173802,-10.07269 0.255323,-0.44078 0.182298,-0.99826 -0.1778,-1.35863 l -4.5270197,-4.5273 14.0372037,-14.03799 4.52755,4.52755 c 0.360363,0.36009 0.91784,0.43312 1.3589,0.1778 3.158861,-1.82986 6.548967,-3.23454 10.076392,-4.17513 0.530754,-0.14155 0.872858,-0.64109 0.830792,-1.17343 v -6.31269 h 19.852216 v 1.66926 H 50.101765 c -0.620978,0 -1.124482,0.5035 -1.124482,1.12447 0,0.62098 0.503504,1.12448 1.124482,1.12448 h 10.447866 v 2.40348 c -0.03572,0.51117 0.284954,0.99721 0.79375,1.15385 0.01905,0.006 0.03784,0.0111 0.05689,0.0159 3.519752,0.94059 6.902977,2.34341 10.056548,4.17009 0.440791,0.25533 0.99853,0.1823 1.35863,-0.1778 l 4.52755,-4.52781 14.037469,14.038 -4.527288,4.52728 c -0.36009,0.36037 -0.433382,0.91784 -0.1778,1.35864 1.82907,3.15807 3.233478,6.54711 4.174069,10.07269 0.131501,0.49212 0.577059,0.83449 1.08638,0.83449 h 6.4008 v 19.85222 h -6.300521 c -0.535249,-0.0474 -1.04299,0.29607 -1.1856,0.83053 -0.940329,3.52636 -2.345,6.91673 -4.175128,10.07692 -0.25532,0.44106 -0.18229,0.99827 0.1778,1.35863 l 4.52755,4.52729 z"
         id="path4512"
         inkscape:connector-curvature="0" />
    </clipPath>
    <clipPath
       id="clipPath4510-4"
       clipPathUnits="userSpaceOnUse">
      <path
         style="fill:#ececec;stroke:#000000;stroke-width:0.529167;stroke-miterlimit:4;stroke-dasharray:none"
         d="m 77.343267,258.28386 -4.52729,-4.52755 c -0.36036,-0.36037 -0.918099,-0.43366 -1.3589,-0.17807 -3.15939,1.83012 -6.550023,3.23506 -10.077715,4.17566 -0.0063,0.002 -0.01297,0.003 -0.01905,0.005 -0.530754,0.1516 -0.8636,0.66066 -0.810416,1.19194 v 6.28836 l -19.852217,2.6e-4 v -2.45216 h 9.40435 c 0.620977,0 1.124477,-0.5035 1.124477,-1.12448 0,-0.62097 -0.5035,-1.12448 -1.124477,-1.12448 h -9.40435 v -1.6039 c 0.04577,-0.53499 -0.297392,-1.03902 -0.830792,-1.18136 -3.522662,-0.93954 -6.909064,-2.3421 -10.065808,-4.16878 -0.0079,-0.005 -0.01614,-0.01 -0.02434,-0.014 -0.01588,-0.009 -0.03493,-0.019 -0.05107,-0.0272 -0.475721,-0.23759 -1.041665,-0.10741 -1.368425,0.2876 l -4.452937,4.45267 -14.0374688,-14.03772 4.4584938,-4.45824 c 0.404283,-0.33973 0.524404,-0.92842 0.258762,-1.40653 -0.0032,-0.006 -0.0064,-0.0114 -0.01005,-0.0175 -1.830387,-3.15965 -3.235589,-6.55081 -4.176977,-10.07956 -0.141816,-0.53129 -0.6400266,-0.87339 -1.1750136,-0.83132 h -6.311637 v -19.852 h 6.4008 c 0.5093229,0 0.9551456,-0.34237 1.0863786,-0.83451 0.940859,-3.52636 2.345267,-6.91515 4.173802,-10.07269 0.255323,-0.44078 0.182298,-0.99826 -0.1778,-1.35863 l -4.5270197,-4.5273 14.0372037,-14.03799 4.52755,4.52755 c 0.360363,0.36009 0.91784,0.43312 1.3589,0.1778 3.158861,-1.82986 6.548967,-3.23454 10.076392,-4.17513 0.530754,-0.14155 0.872858,-0.64109 0.830792,-1.17343 v -6.31269 h 19.852216 v 1.66926 H 50.101765 c -0.620978,0 -1.124482,0.5035 -1.124482,1.12447 0,0.62098 0.503504,1.12448 1.124482,1.12448 h 10.447866 v 2.40348 c -0.03572,0.51117 0.284954,0.99721 0.79375,1.15385 0.01905,0.006 0.03784,0.0111 0.05689,0.0159 3.519752,0.94059 6.902977,2.34341 10.056548,4.17009 0.440791,0.25533 0.99853,0.1823 1.35863,-0.1778 l 4.52755,-4.52781 14.037469,14.038 -4.527288,4.52728 c -0.36009,0.36037 -0.433382,0.91784 -0.1778,1.35864 1.82907,3.15807 3.233478,6.54711 4.174069,10.07269 0.131501,0.49212 0.577059,0.83449 1.08638,0.83449 h 6.4008 v 19.85222 h -6.300521 c -0.535249,-0.0474 -1.04299,0.29607 -1.1856,0.83053 -0.940329,3.52636 -2.345,6.91673 -4.175128,10.07692 -0.25532,0.44106 -0.18229,0.99827 0.1778,1.35863 l 4.52755,4.52729 z"
         id="path4512-5"
         inkscape:connector-curvature="0" />
    </clipPath>
    <clipPath
       id="clipPath4510-5"
       clipPathUnits="userSpaceOnUse">
      <path
         style="fill:#ececec;stroke:#000000;stroke-width:0.529167;stroke-miterlimit:4;stroke-dasharray:none"
         d="m 77.343267,258.28386 -4.52729,-4.52755 c -0.36036,-0.36037 -0.918099,-0.43366 -1.3589,-0.17807 -3.15939,1.83012 -6.550023,3.23506 -10.077715,4.17566 -0.0063,0.002 -0.01297,0.003 -0.01905,0.005 -0.530754,0.1516 -0.8636,0.66066 -0.810416,1.19194 v 6.28836 l -19.852217,2.6e-4 v -2.45216 h 9.40435 c 0.620977,0 1.124477,-0.5035 1.124477,-1.12448 0,-0.62097 -0.5035,-1.12448 -1.124477,-1.12448 h -9.40435 v -1.6039 c 0.04577,-0.53499 -0.297392,-1.03902 -0.830792,-1.18136 -3.522662,-0.93954 -6.909064,-2.3421 -10.065808,-4.16878 -0.0079,-0.005 -0.01614,-0.01 -0.02434,-0.014 -0.01588,-0.009 -0.03493,-0.019 -0.05107,-0.0272 -0.475721,-0.23759 -1.041665,-0.10741 -1.368425,0.2876 l -4.452937,4.45267 -14.0374688,-14.03772 4.4584938,-4.45824 c 0.404283,-0.33973 0.524404,-0.92842 0.258762,-1.40653 -0.0032,-0.006 -0.0064,-0.0114 -0.01005,-0.0175 -1.830387,-3.15965 -3.235589,-6.55081 -4.176977,-10.07956 -0.141816,-0.53129 -0.6400266,-0.87339 -1.1750136,-0.83132 h -6.311637 v -19.852 h 6.4008 c 0.5093229,0 0.9551456,-0.34237 1.0863786,-0.83451 0.940859,-3.52636 2.345267,-6.91515 4.173802,-10.07269 0.255323,-0.44078 0.182298,-0.99826 -0.1778,-1.35863 l -4.5270197,-4.5273 14.0372037,-14.03799 4.52755,4.52755 c 0.360363,0.36009 0.91784,0.43312 1.3589,0.1778 3.158861,-1.82986 6.548967,-3.23454 10.076392,-4.17513 0.530754,-0.14155 0.872858,-0.64109 0.830792,-1.17343 v -6.31269 h 19.852216 v 1.66926 H 50.101765 c -0.620978,0 -1.124482,0.5035 -1.124482,1.12447 0,0.62098 0.503504,1.12448 1.124482,1.12448 h 10.447866 v 2.40348 c -0.03572,0.51117 0.284954,0.99721 0.79375,1.15385 0.01905,0.006 0.03784,0.0111 0.05689,0.0159 3.519752,0.94059 6.902977,2.34341 10.056548,4.17009 0.440791,0.25533 0.99853,0.1823 1.35863,-0.1778 l 4.52755,-4.52781 14.037469,14.038 -4.527288,4.52728 c -0.36009,0.36037 -0.433382,0.91784 -0.1778,1.35864 1.82907,3.15807 3.233478,6.54711 4.174069,10.07269 0.131501,0.49212 0.577059,0.83449 1.08638,0.83449 h 6.4008 v 19.85222 h -6.300521 c -0.535249,-0.0474 -1.04299,0.29607 -1.1856,0.83053 -0.940329,3.52636 -2.345,6.91673 -4.175128,10.07692 -0.25532,0.44106 -0.18229,0.99827 0.1778,1.35863 l 4.52755,4.52729 z"
         id="path4512-7"
         inkscape:connector-curvature="0" />
    </clipPath>
    <clipPath
       clipPathUnits="userSpaceOnUse"
       id="clipPath4510-6">
      <path
         inkscape:connector-curvature="0"
         id="path4512-4"
         d="m 77.343267,258.28386 -4.52729,-4.52755 c -0.36036,-0.36037 -0.918099,-0.43366 -1.3589,-0.17807 -3.15939,1.83012 -6.550023,3.23506 -10.077715,4.17566 -0.0063,0.002 -0.01297,0.003 -0.01905,0.005 -0.530754,0.1516 -0.8636,0.66066 -0.810416,1.19194 v 6.28836 l -19.852217,2.6e-4 v -2.45216 h 9.40435 c 0.620977,0 1.124477,-0.5035 1.124477,-1.12448 0,-0.62097 -0.5035,-1.12448 -1.124477,-1.12448 h -9.40435 v -1.6039 c 0.04577,-0.53499 -0.297392,-1.03902 -0.830792,-1.18136 -3.522662,-0.93954 -6.909064,-2.3421 -10.065808,-4.16878 -0.0079,-0.005 -0.01614,-0.01 -0.02434,-0.014 -0.01588,-0.009 -0.03493,-0.019 -0.05107,-0.0272 -0.475721,-0.23759 -1.041665,-0.10741 -1.368425,0.2876 l -4.452937,4.45267 -14.0374688,-14.03772 4.4584938,-4.45824 c 0.404283,-0.33973 0.524404,-0.92842 0.258762,-1.40653 -0.0032,-0.006 -0.0064,-0.0114 -0.01005,-0.0175 -1.830387,-3.15965 -3.235589,-6.55081 -4.176977,-10.07956 -0.141816,-0.53129 -0.6400266,-0.87339 -1.1750136,-0.83132 h -6.311637 v -19.852 h 6.4008 c 0.5093229,0 0.9551456,-0.34237 1.0863786,-0.83451 0.940859,-3.52636 2.345267,-6.91515 4.173802,-10.07269 0.255323,-0.44078 0.182298,-0.99826 -0.1778,-1.35863 l -4.5270197,-4.5273 14.0372037,-14.03799 4.52755,4.52755 c 0.360363,0.36009 0.91784,0.43312 1.3589,0.1778 3.158861,-1.82986 6.548967,-3.23454 10.076392,-4.17513 0.530754,-0.14155 0.872858,-0.64109 0.830792,-1.17343 v -6.31269 h 19.852216 v 1.66926 H 50.101765 c -0.620978,0 -1.124482,0.5035 -1.124482,1.12447 0,0.62098 0.503504,1.12448 1.124482,1.12448 h 10.447866 v 2.40348 c -0.03572,0.51117 0.284954,0.99721 0.79375,1.15385 0.01905,0.006 0.03784,0.0111 0.05689,0.0159 3.519752,0.94059 6.902977,2.34341 10.056548,4.17009 0.440791,0.25533 0.99853,0.1823 1.35863,-0.1778 l 4.52755,-4.52781 14.037469,14.038 -4.527288,4.52728 c -0.36009,0.36037 -0.433382,0.91784 -0.1778,1.35864 1.82907,3.15807 3.233478,6.54711 4.174069,10.07269 0.131501,0.49212 0.577059,0.83449 1.08638,0.83449 h 6.4008 v 19.85222 h -6.300521 c -0.535249,-0.0474 -1.04299,0.29607 -1.1856,0.83053 -0.940329,3.52636 -2.345,6.91673 -4.175128,10.07692 -0.25532,0.44106 -0.18229,0.99827 0.1778,1.35863 l 4.52755,4.52729 z"
         style="fill:#ececec;stroke:#000000;stroke-width:0.529167;stroke-miterlimit:4;stroke-dasharray:none" />
    </clipPath>
    <filter
       id="filter7670"
       inkscape:label="Blur"
       style="color-interpolation-filters:sRGB">
      <feGaussianBlur
         id="feGaussianBlur7672"
         result="blur"
         stdDeviation="2 2" />
    </filter>
    <linearGradient
       id="linearGradient7886"
       gradientUnits="userSpaceOnUse"
       x1="130.7226"
       y1="120.2719"
       x2="132.9639"
       y2="121.4787">
      <stop
         offset="0"
         style="stop-color:#000000;stop-opacity:3.000000e-002"
         id="stop7888" />
      <stop
         offset="8.489490e-002"
         style="stop-color:#090909;stop-opacity:2.745315e-002"
         id="stop7890" />
      <stop
         offset="0.2235"
         style="stop-color:#212121;stop-opacity:2.329644e-002"
         id="stop7892" />
      <stop
         offset="0.3985"
         style="stop-color:#494949;stop-opacity:1.804541e-002"
         id="stop7894" />
      <stop
         offset="0.6031"
         style="stop-color:#808080;stop-opacity:1.190651e-002"
         id="stop7896" />
      <stop
         offset="0.8298"
         style="stop-color:#C6C6C6;stop-opacity:5.105171e-003"
         id="stop7898" />
      <stop
         offset="1"
         style="stop-color:#FFFFFF;stop-opacity:0"
         id="stop7900" />
    </linearGradient>
    <filter
       id="filter8389"
       inkscape:label="Blur"
       style="color-interpolation-filters:sRGB">
      <feGaussianBlur
         id="feGaussianBlur8391"
         result="blur"
         stdDeviation="7 7" />
    </filter>
    <filter
       id="filter16455"
       inkscape:label="Blur"
       style="color-interpolation-filters:sRGB">
      <feGaussianBlur
         id="feGaussianBlur16457"
         result="blur"
         stdDeviation="7 7" />
    </filter>
    <filter
       style="color-interpolation-filters:sRGB"
       inkscape:label="Blur"
       id="filter9420">
      <feGaussianBlur
         stdDeviation="7 7"
         result="blur"
         id="feGaussianBlur9422" />
    </filter>
    <filter
       style="color-interpolation-filters:sRGB"
       inkscape:label="Blur"
       id="filter10263">
      <feGaussianBlur
         stdDeviation="7 7"
         result="blur"
         id="feGaussianBlur10265" />
    </filter>
    <filter
       style="color-interpolation-filters:sRGB"
       inkscape:label="Blur"
       id="filter7670-4">
      <feGaussianBlur
         stdDeviation="2 2"
         result="blur"
         id="feGaussianBlur7672-2" />
    </filter>
    <filter
       style="color-interpolation-filters:sRGB"
       inkscape:label="Blur"
       id="filter8389-4">
      <feGaussianBlur
         stdDeviation="7 7"
         result="blur"
         id="feGaussianBlur8391-3" />
    </filter>
    <filter
       style="color-interpolation-filters:sRGB"
       inkscape:label="Blur"
       id="filter16455-4">
      <feGaussianBlur
         stdDeviation="7 7"
         result="blur"
         id="feGaussianBlur16457-9" />
    </filter>
    <filter
       id="filter9420-0"
       inkscape:label="Blur"
       style="color-interpolation-filters:sRGB">
      <feGaussianBlur
         id="feGaussianBlur9422-2"
         result="blur"
         stdDeviation="7 7" />
    </filter>
    <filter
       id="filter10263-0"
       inkscape:label="Blur"
       style="color-interpolation-filters:sRGB">
      <feGaussianBlur
         id="feGaussianBlur10265-7"
         result="blur"
         stdDeviation="7 7" />
    </filter>
    <clipPath
       id="clipPath4510-1"
       clipPathUnits="userSpaceOnUse">
      <path
         style="fill:#ececec;stroke:#000000;stroke-width:0.529167;stroke-miterlimit:4;stroke-dasharray:none"
         d="m 77.343267,258.28386 -4.52729,-4.52755 c -0.36036,-0.36037 -0.918099,-0.43366 -1.3589,-0.17807 -3.15939,1.83012 -6.550023,3.23506 -10.077715,4.17566 -0.0063,0.002 -0.01297,0.003 -0.01905,0.005 -0.530754,0.1516 -0.8636,0.66066 -0.810416,1.19194 v 6.28836 l -19.852217,2.6e-4 v -2.45216 h 9.40435 c 0.620977,0 1.124477,-0.5035 1.124477,-1.12448 0,-0.62097 -0.5035,-1.12448 -1.124477,-1.12448 h -9.40435 v -1.6039 c 0.04577,-0.53499 -0.297392,-1.03902 -0.830792,-1.18136 -3.522662,-0.93954 -6.909064,-2.3421 -10.065808,-4.16878 -0.0079,-0.005 -0.01614,-0.01 -0.02434,-0.014 -0.01588,-0.009 -0.03493,-0.019 -0.05107,-0.0272 -0.475721,-0.23759 -1.041665,-0.10741 -1.368425,0.2876 l -4.452937,4.45267 -14.0374688,-14.03772 4.4584938,-4.45824 c 0.404283,-0.33973 0.524404,-0.92842 0.258762,-1.40653 -0.0032,-0.006 -0.0064,-0.0114 -0.01005,-0.0175 -1.830387,-3.15965 -3.235589,-6.55081 -4.176977,-10.07956 -0.141816,-0.53129 -0.6400266,-0.87339 -1.1750136,-0.83132 h -6.311637 v -19.852 h 6.4008 c 0.5093229,0 0.9551456,-0.34237 1.0863786,-0.83451 0.940859,-3.52636 2.345267,-6.91515 4.173802,-10.07269 0.255323,-0.44078 0.182298,-0.99826 -0.1778,-1.35863 l -4.5270197,-4.5273 14.0372037,-14.03799 4.52755,4.52755 c 0.360363,0.36009 0.91784,0.43312 1.3589,0.1778 3.158861,-1.82986 6.548967,-3.23454 10.076392,-4.17513 0.530754,-0.14155 0.872858,-0.64109 0.830792,-1.17343 v -6.31269 h 19.852216 v 1.66926 H 50.101765 c -0.620978,0 -1.124482,0.5035 -1.124482,1.12447 0,0.62098 0.503504,1.12448 1.124482,1.12448 h 10.447866 v 2.40348 c -0.03572,0.51117 0.284954,0.99721 0.79375,1.15385 0.01905,0.006 0.03784,0.0111 0.05689,0.0159 3.519752,0.94059 6.902977,2.34341 10.056548,4.17009 0.440791,0.25533 0.99853,0.1823 1.35863,-0.1778 l 4.52755,-4.52781 14.037469,14.038 -4.527288,4.52728 c -0.36009,0.36037 -0.433382,0.91784 -0.1778,1.35864 1.82907,3.15807 3.233478,6.54711 4.174069,10.07269 0.131501,0.49212 0.577059,0.83449 1.08638,0.83449 h 6.4008 v 19.85222 h -6.300521 c -0.535249,-0.0474 -1.04299,0.29607 -1.1856,0.83053 -0.940329,3.52636 -2.345,6.91673 -4.175128,10.07692 -0.25532,0.44106 -0.18229,0.99827 0.1778,1.35863 l 4.52755,4.52729 z"
         id="path4512-1"
         inkscape:connector-curvature="0" />
    </clipPath>
    <inkscape:perspective
       id="perspective6677"
       inkscape:persp3d-origin="105.00001 : 98.999989 : 1"
       inkscape:vp_z="210.00002 : 148.49998 : 1"
       inkscape:vp_y="0 : 999.99988 : 0"
       inkscape:vp_x="0 : 148.49998 : 1"
       sodipodi:type="inkscape:persp3d" />
    <linearGradient
       id="linearGradient5390"
       inkscape:collect="always">
      <stop
         id="stop5386"
         offset="0"
         style="stop-color:#4c98ff;stop-opacity:1" />
      <stop
         id="stop5388"
         offset="1"
         style="stop-color:#14559b;stop-opacity:1" />
    </linearGradient>
    <clipPath
       id="clipPath5452"
       clipPathUnits="userSpaceOnUse">
      <rect
         transform="rotate(30)"
         y="-45.135017"
         x="-3.3352184"
         height="211.66667"
         width="476.25"
         id="rect5454"
         style="opacity:1;fill:url(#linearGradient5456);fill-opacity:1;stroke:none;stroke-width:1.96045005;stroke-linecap:round;stroke-linejoin:round;stroke-miterlimit:39.29999924;stroke-dasharray:none;stroke-opacity:1" />
    </clipPath>
    <linearGradient
       y2="166.9762"
       x2="236.6131"
       y1="-43.17857"
       x1="236.6131"
       gradientTransform="matrix(1.0041059,0,0,1.0092858,0.01369393,-1.5463813)"
       gradientUnits="userSpaceOnUse"
       id="linearGradient5456"
       xlink:href="#linearGradient5390"
       inkscape:collect="always" />
    <clipPath
       id="clipPath5458"
       clipPathUnits="userSpaceOnUse">
      <rect
         transform="rotate(30)"
         y="-45.135017"
         x="-3.3352184"
         height="211.66667"
         width="476.25"
         id="rect5460"
         style="opacity:1;fill:url(#linearGradient5456);fill-opacity:1;stroke:none;stroke-width:1.96045005;stroke-linecap:round;stroke-linejoin:round;stroke-miterlimit:39.29999924;stroke-dasharray:none;stroke-opacity:1" />
    </clipPath>
    <clipPath
       id="clipPath5464"
       clipPathUnits="userSpaceOnUse">
      <rect
         transform="rotate(30)"
         y="-45.135017"
         x="-3.3352184"
         height="211.66667"
         width="476.25"
         id="rect5466"
         style="opacity:1;fill:url(#linearGradient5456);fill-opacity:1;stroke:none;stroke-width:1.96045005;stroke-linecap:round;stroke-linejoin:round;stroke-miterlimit:39.29999924;stroke-dasharray:none;stroke-opacity:1" />
    </clipPath>
    <clipPath
       id="clipPath5470"
       clipPathUnits="userSpaceOnUse">
      <rect
         transform="rotate(30)"
         y="-45.135017"
         x="-3.3352184"
         height="211.66667"
         width="476.25"
         id="rect5472"
         style="opacity:1;fill:url(#linearGradient5456);fill-opacity:1;stroke:none;stroke-width:1.96045005;stroke-linecap:round;stroke-linejoin:round;stroke-miterlimit:39.29999924;stroke-dasharray:none;stroke-opacity:1" />
    </clipPath>
    <clipPath
       id="clipPath5476"
       clipPathUnits="userSpaceOnUse">
      <rect
         transform="rotate(30)"
         y="-45.135017"
         x="-3.3352184"
         height="211.66667"
         width="476.25"
         id="rect5478"
         style="opacity:1;fill:url(#linearGradient5456);fill-opacity:1;stroke:none;stroke-width:1.96045005;stroke-linecap:round;stroke-linejoin:round;stroke-miterlimit:39.29999924;stroke-dasharray:none;stroke-opacity:1" />
    </clipPath>
    <clipPath
       id="clipPath5482"
       clipPathUnits="userSpaceOnUse">
      <rect
         transform="rotate(30)"
         y="-45.135017"
         x="-3.3352184"
         height="211.66667"
         width="476.25"
         id="rect5484"
         style="opacity:1;fill:url(#linearGradient5456);fill-opacity:1;stroke:none;stroke-width:1.96045005;stroke-linecap:round;stroke-linejoin:round;stroke-miterlimit:39.29999924;stroke-dasharray:none;stroke-opacity:1" />
    </clipPath>
    <linearGradient
       id="linearGradient2795">
      <stop
         style="stop-color:#b8b8b8;stop-opacity:0.49803922;"
         offset="0"
         id="stop2797" />
      <stop
         style="stop-color:#7f7f7f;stop-opacity:0;"
         offset="1"
         id="stop2799" />
    </linearGradient>
    <linearGradient
       id="linearGradient2787">
      <stop
         style="stop-color:#7f7f7f;stop-opacity:0.5;"
         offset="0"
         id="stop2789" />
      <stop
         style="stop-color:#7f7f7f;stop-opacity:0;"
         offset="1"
         id="stop2791" />
    </linearGradient>
    <linearGradient
       id="linearGradient3676">
      <stop
         style="stop-color:#b2b2b2;stop-opacity:0.5;"
         offset="0"
         id="stop3678" />
      <stop
         style="stop-color:#b3b3b3;stop-opacity:0;"
         offset="1"
         id="stop3680" />
    </linearGradient>
    <linearGradient
       id="linearGradient3236">
      <stop
         style="stop-color:#f4f4f4;stop-opacity:1"
         offset="0"
         id="stop3244" />
      <stop
         style="stop-color:white;stop-opacity:1"
         offset="1"
         id="stop3240" />
    </linearGradient>
    <linearGradient
       id="linearGradient4671">
      <stop
         style="stop-color:#ffd43b;stop-opacity:1;"
         offset="0"
         id="stop4673" />
      <stop
         style="stop-color:#ffe873;stop-opacity:1"
         offset="1"
         id="stop4675" />
    </linearGradient>
    <linearGradient
       id="linearGradient4689">
      <stop
         style="stop-color:#5a9fd4;stop-opacity:1;"
         offset="0"
         id="stop4691" />
      <stop
         style="stop-color:#306998;stop-opacity:1;"
         offset="1"
         id="stop4693" />
    </linearGradient>
    <linearGradient
       x1="224.23996"
       y1="144.75717"
       x2="-65.308502"
       y2="144.75717"
       id="linearGradient2987"
       xlink:href="#linearGradient4671"
       gradientUnits="userSpaceOnUse"
       gradientTransform="translate(100.2702,99.61116)" />
    <linearGradient
       x1="172.94208"
       y1="77.475983"
       x2="26.670298"
       y2="76.313133"
       id="linearGradient2990"
       xlink:href="#linearGradient4689"
       gradientUnits="userSpaceOnUse"
       gradientTransform="translate(100.2702,99.61116)" />
    <linearGradient
       inkscape:collect="always"
       xlink:href="#linearGradient4671"
       id="linearGradient2255"
       gradientUnits="userSpaceOnUse"
       gradientTransform="matrix(0.562541,0,0,0.567972,-11.5974,-7.60954)"
       x1="224.23996"
       y1="144.75717"
       x2="-65.308502"
       y2="144.75717" />
    <linearGradient
       inkscape:collect="always"
       xlink:href="#linearGradient4689"
       id="linearGradient2258"
       gradientUnits="userSpaceOnUse"
       gradientTransform="matrix(0.562541,0,0,0.567972,-11.5974,-7.60954)"
       x1="172.94208"
       y1="76.176224"
       x2="26.670298"
       y2="76.313133" />
    <radialGradient
       inkscape:collect="always"
       xlink:href="#linearGradient2795"
       id="radialGradient2801"
       cx="61.518883"
       cy="132.28575"
       fx="61.518883"
       fy="132.28575"
       r="29.036913"
       gradientTransform="matrix(1,0,0,0.177966,0,108.7434)"
       gradientUnits="userSpaceOnUse" />
    <linearGradient
       inkscape:collect="always"
       xlink:href="#linearGradient4689"
       id="linearGradient1478"
       gradientUnits="userSpaceOnUse"
       gradientTransform="matrix(0.12960545,0,0,0.13085671,-688.70938,120.6951)"
       x1="26.648937"
       y1="20.603781"
       x2="135.66525"
       y2="114.39767" />
    <linearGradient
       inkscape:collect="always"
       xlink:href="#linearGradient4671"
       id="linearGradient1475"
       gradientUnits="userSpaceOnUse"
       gradientTransform="matrix(0.12960545,0,0,0.13085671,-688.70938,120.6951)"
       x1="150.96111"
       y1="192.35176"
       x2="112.03144"
       y2="137.27299" />
    <linearGradient
       inkscape:collect="always"
       xlink:href="#linearGradient4689"
       id="linearGradient6809"
       gradientUnits="userSpaceOnUse"
       gradientTransform="matrix(0.12960545,0,0,0.13085671,-688.70938,120.6951)"
       x1="26.648937"
       y1="20.603781"
       x2="135.66525"
       y2="114.39767" />
    <linearGradient
       inkscape:collect="always"
       xlink:href="#linearGradient4671"
       id="linearGradient6811"
       gradientUnits="userSpaceOnUse"
       gradientTransform="matrix(0.12960545,0,0,0.13085671,-688.70938,120.6951)"
       x1="150.96111"
       y1="192.35176"
       x2="112.03144"
       y2="137.27299" />
    <linearGradient
       inkscape:collect="always"
       xlink:href="#linearGradient4689"
       id="linearGradient6813"
       gradientUnits="userSpaceOnUse"
       gradientTransform="matrix(0.12960545,0,0,0.13085671,-688.70938,120.6951)"
       x1="26.648937"
       y1="20.603781"
       x2="135.66525"
       y2="114.39767" />
    <linearGradient
       inkscape:collect="always"
       xlink:href="#linearGradient4671"
       id="linearGradient6815"
       gradientUnits="userSpaceOnUse"
       gradientTransform="matrix(0.12960545,0,0,0.13085671,-688.70938,120.6951)"
       x1="150.96111"
       y1="192.35176"
       x2="112.03144"
       y2="137.27299" />
    <filter
       inkscape:collect="always"
       style="color-interpolation-filters:sRGB"
       id="filter7329"
       x="-0.072201342"
       width="1.1444027"
       y="-0.76842857"
       height="2.5368571">
      <feGaussianBlur
         inkscape:collect="always"
         stdDeviation="0.84713911"
         id="feGaussianBlur7331" />
    </filter>
  </defs>
  <sodipodi:namedview
     id="base"
     pagecolor="#ffffff"
     bordercolor="#666666"
     borderopacity="1.0"
     inkscape:pageopacity="0.0"
     inkscape:pageshadow="2"
     inkscape:zoom="0.49497474"
     inkscape:cx="-180.876"
     inkscape:cy="357.8452"
     inkscape:document-units="mm"
     inkscape:current-layer="layer1"
     showgrid="false"
     fit-margin-top="0"
     fit-margin-left="0"
     fit-margin-right="0"
     fit-margin-bottom="0"
     inkscape:window-width="2560"
     inkscape:window-height="993"
     inkscape:window-x="0"
     inkscape:window-y="0"
     inkscape:window-maximized="1"
     inkscape:snap-bbox="true"
     inkscape:bbox-paths="true"
     inkscape:bbox-nodes="true"
     inkscape:snap-bbox-edge-midpoints="true"
     inkscape:snap-bbox-midpoints="true" />
  <metadata
     id="metadata5">
    <rdf:RDF>
      <cc:Work
         rdf:about="">
        <dc:format>image/svg+xml</dc:format>
        <dc:type
           rdf:resource="http://purl.org/dc/dcmitype/StillImage" />
        <dc:title />
      </cc:Work>
    </rdf:RDF>
  </metadata>
  <g
     inkscape:label="Layer 1"
     inkscape:groupmode="layer"
     id="layer1"
     transform="translate(-20.662478,-18.557538)">
    <rect
       style="fill:none;stroke:none;stroke-width:2.56401992"
       id="rect13299"
       width="197.556"
       height="141.11111"
       x="20.662477"
       y="18.557537" />
    <g
       id="g1116"
       transform="translate(1.2958774e-6,-12.290238)">
      <g
         id="g7045"
         transform="matrix(0.70497731,0.70497731,-0.70497731,0.70497731,153.00298,-17.178385)">
        <g
           transform="matrix(0.15826302,0.04240645,-0.04240645,0.15826302,101.69629,95.404704)"
           style="fill:#b3b3b3;stroke:#4d4d4d;stroke-width:2;stroke-miterlimit:4;stroke-dasharray:none"
           id="g7021">
          <path
             id="path7013"
             d="m -100.71807,-34.21203 4.792666,-7.389018 c 4.624388,-7.129198 14.188811,-9.167813 21.318273,-4.543425 7.129198,4.624387 9.167812,14.18881 4.543425,21.318273 l -4.792663,7.389018 c -4.624387,7.129198 -14.18881,9.1678126 -21.318272,4.543425 -7.129459,-4.624387 -9.167809,-14.18881 -4.543429,-21.318273 z m 23.265345,4.593167 c 1.982259,-3.055937 1.108604,-7.154069 -1.947068,-9.136327 -3.055938,-1.982258 -7.154069,-1.108604 -9.136327,1.947069 l -4.792663,7.389018 c -1.982258,3.055938 -1.108604,7.154069 1.947069,9.136327 3.055937,1.982259 7.154069,1.108605 9.136327,-1.947068 z"
             style="fill:#b3b3b3;stroke:#4d4d4d;stroke-width:2;stroke-miterlimit:4;stroke-dasharray:none"
             inkscape:connector-curvature="0" />
          <path
             id="path7015"
             d="m -46.491713,-52.2963 -8.613775,1.835944 c -8.311091,1.771385 -16.515556,-3.550444 -18.286941,-11.861536 -1.771385,-8.311091 3.550444,-16.515556 11.861535,-18.286941 l 8.613775,-1.835944 c 8.311092,-1.771385 16.515556,3.550444 18.286942,11.861535 1.77112,8.310827 -3.550444,16.515556 -11.861536,18.286942 z m -13.203502,-19.698758 c -3.56235,0.759354 -5.842793,4.274873 -5.083439,7.837223 0.759354,3.56235 4.274873,5.842793 7.837223,5.083439 l 8.613775,-1.835944 c 3.56235,-0.759354 5.842793,-4.274872 5.083439,-7.837222 -0.759354,-3.56235 -4.274608,-5.842794 -7.836958,-5.08344 z"
             style="fill:#b3b3b3;stroke:#4d4d4d;stroke-width:2;stroke-miterlimit:4;stroke-dasharray:none"
             inkscape:connector-curvature="0" />
          <path
             inkscape:connector-curvature="0"
             style="fill:#b3b3b3;stroke:#4d4d4d;stroke-width:2;stroke-miterlimit:4;stroke-dasharray:none"
             d="m -94.714406,27.770584 -1.835944,-8.613775 c -1.771385,-8.311091 3.550444,-16.5155557 11.861536,-18.28694105 8.311091,-1.7713854 16.515556,3.55044375 18.286941,11.86153505 l 1.835944,8.613775 c 1.771385,8.311092 -3.550444,16.515556 -11.861535,18.286942 -8.311092,1.77112 -16.515821,-3.550709 -18.286942,-11.861536 z m 19.698758,-13.203502 c -0.759354,-3.56235 -4.274873,-5.8427933 -7.837223,-5.0834392 -3.562349,0.7593542 -5.842793,4.2748732 -5.083439,7.8372232 l 1.835944,8.613775 c 0.759354,3.56235 4.274873,5.842793 7.837223,5.083439 3.562349,-0.759354 5.842793,-4.274873 5.083439,-7.837223 z"
             id="path7017" />
          <path
             inkscape:connector-curvature="0"
             style="fill:#b3b3b3;stroke:#4d4d4d;stroke-width:2;stroke-miterlimit:4;stroke-dasharray:none"
             d="m -116.88437,50.505701 -8.61378,1.835943 c -8.31109,1.771386 -16.51555,-3.550443 -18.28694,-11.861535 -1.77138,-8.311091 3.55045,-16.515556 11.86154,-18.286941 l 8.61377,-1.835944 c 8.31109,-1.771385 16.51556,3.550444 18.28694,11.861535 1.77139,8.311092 -3.55044,16.515556 -11.86153,18.286942 z m -13.20324,-19.698758 c -3.56235,0.759354 -5.84279,4.274872 -5.08344,7.837222 0.75936,3.56235 4.27487,5.842794 7.83722,5.08344 l 8.61378,-1.835944 c 3.56235,-0.759354 5.84279,-4.274873 5.08344,-7.837223 -0.75936,-3.56235 -4.27487,-5.842793 -7.83722,-5.083439 z"
             id="path7019" />
        </g>
        <g
           transform="matrix(0.15826302,0.04240645,-0.04240645,0.15826302,101.69629,95.404704)"
           style="fill:#000000;fill-opacity:0.29411765"
           id="g7035">
          <path
             id="path7023"
             d="m -74.607131,-46.144473 c -2.747169,-1.781969 -5.855229,-2.564871 -8.903494,-2.457979 l -3.278452,5.054335 c -1.192741,1.838854 -1.617662,4.007115 -1.278466,6.155267 2.10476,-2.554288 5.825595,-3.205692 8.667485,-1.362604 2.841625,1.843352 3.763698,5.506508 2.289704,8.469841 2.099998,-0.566208 3.906573,-1.838325 5.09905,-3.676914 l 3.278452,-5.054336 c -1.145117,-2.826808 -3.12711,-5.345641 -5.874279,-7.12761 z"
             style="fill:#000000;fill-opacity:0.29411765;stroke-width:0.26458332"
             inkscape:connector-curvature="0" />
          <path
             id="path7025"
             d="m -56.941431,-59.074396 c -3.56235,0.759354 -7.077869,-1.521089 -7.837223,-5.083439 -0.759354,-3.56235 1.521089,-7.077869 5.083439,-7.837223 l 1.334559,-0.284427 c -1.861344,-1.037961 -3.996002,-1.399646 -6.100233,-0.951177 -2.300817,0.490273 -4.273021,1.847585 -5.553075,3.821112 l -3.620294,5.581385 c 0.05609,0.500592 0.134937,1.003036 0.242094,1.506009 1.320006,6.193102 6.213475,10.721181 12.059972,11.896725 l 5.805488,-8.950325 z"
             style="fill:#000000;fill-opacity:0.29411765;stroke-width:0.26458332"
             inkscape:connector-curvature="0" />
          <path
             id="path7027"
             d="m -84.688814,0.86986795 c -3.202517,0.68262495 -5.953654,2.32648125 -8.033808,4.55771245 l 1.255712,5.8920066 c 0.470429,2.206625 1.753394,4.018227 3.44805,5.251979 -0.315383,-3.29274 1.854465,-6.382279 5.165725,-7.0879232 3.31126,-0.7056437 6.552141,1.2305772 7.606771,4.3658892 1.04431,-1.817687 1.477433,-3.9949433 1.007004,-6.2015683 l -1.255713,-5.8920062 c -2.808552,-1.18930205 -5.991225,-1.56871455 -9.193741,-0.88608955 z"
             style="fill:#000000;fill-opacity:0.29411765;stroke-width:0.26458332"
             inkscape:connector-curvature="0" />
          <path
             id="path7029"
             d="m -91.381979,-20.282776 c -2.626518,-1.703652 -3.626908,-4.967816 -2.601648,-7.792508 -3.013868,1.919023 -4.696089,5.551752 -3.908689,9.246394 l 1.182423,5.548312 c 0.179652,0.127794 0.348191,0.265642 0.534987,0.386821 5.500423,3.5676417 12.441502,3.1551563 17.453769,-0.487098 l -1.943629,-9.119658 c -0.108215,-0.507206 -0.278077,-0.983721 -0.465402,-1.449123 l -1.115484,1.719792 c -1.981993,3.055673 -6.080389,3.929327 -9.136327,1.947068 z"
             style="fill:#000000;fill-opacity:0.29411765;stroke-width:0.26458332"
             inkscape:connector-curvature="0" />
          <path
             id="path7031"
             d="m -120.72453,28.888713 c 3.29273,-0.315383 6.38227,1.854465 7.08792,5.165725 0.70564,3.311261 -1.23058,6.552142 -4.36589,7.606771 1.81769,1.044311 3.99494,1.477433 6.20157,1.007004 l 5.892,-1.255712 c 1.18904,-2.808817 1.56845,-5.991225 0.88609,-9.194006 -0.68262,-3.202517 -2.32674,-5.953654 -4.55771,-8.033809 l -5.89201,1.255713 c -2.20662,0.470694 -4.01822,1.753923 -5.25197,3.448314 z"
             style="fill:#000000;fill-opacity:0.29411765;stroke-width:0.26458332"
             inkscape:connector-curvature="0" />
          <path
             id="path7033"
             d="m -74.816946,29.05302 c -0.892439,0.960437 -2.06957,1.671637 -3.446462,1.96506 -3.56235,0.759354 -7.077869,-1.521089 -7.837223,-5.083439 l -1.376892,-6.460332 -8.613774,1.835944 1.376891,6.460331 c 0.898525,4.216136 3.456252,7.656777 6.840008,9.798579 l 6.221942,-1.326091 c 3.643048,-0.776552 6.2611,-3.719513 6.83551,-7.190052 z"
             style="fill:#000000;fill-opacity:0.29411765;stroke-width:0.26458332"
             inkscape:connector-curvature="0" />
        </g>
        <g
           transform="matrix(0.15826302,0.04240645,-0.04240645,0.15826302,101.69629,95.404704)"
           style="fill:#b3b3b3;stroke:#4d4d4d;stroke-width:2;stroke-miterlimit:4;stroke-dasharray:none"
           id="g7043">
          <path
             id="path7037"
             d="m -117.9435,34.972543 v 0 c -0.50694,-2.378605 1.01044,-4.717786 3.38905,-5.224728 l 30.148475,-6.425406 c 2.378604,-0.506941 4.717786,1.010444 5.224727,3.389048 v 0 c 0.506942,2.378604 -1.010443,4.717786 -3.389048,5.224727 l -30.148474,6.425406 c -2.37861,0.506942 -4.71779,-1.010443 -5.22473,-3.389047 z"
             style="fill:#b3b3b3;stroke:#4d4d4d;stroke-width:2;stroke-miterlimit:4;stroke-dasharray:none"
             inkscape:connector-curvature="0" />
          <path
             id="path7039"
             d="m -90.196116,-24.971721 v 0 c 2.378604,-0.506942 4.717785,1.010443 5.224727,3.389048 l 6.425406,30.1484763 c 0.506942,2.3786037 -1.010444,4.7177857 -3.389048,5.2247267 v 0 c -2.378604,0.506942 -4.717785,-1.010443 -5.224727,-3.389048 l -6.425406,-30.148476 c -0.506942,-2.378604 1.010444,-4.717786 3.389048,-5.224727 z"
             style="fill:#b3b3b3;stroke:#4d4d4d;stroke-width:2;stroke-miterlimit:4;stroke-dasharray:none"
             inkscape:connector-curvature="0" />
          <path
             id="path7041"
             d="m -60.228879,-68.311529 v 0 c 2.040467,1.323446 2.621491,4.050506 1.298046,6.090973 l -16.774848,25.861697 c -1.323446,2.040467 -4.050506,2.621492 -6.090973,1.298046 v 0 c -2.040467,-1.323446 -2.621491,-4.050506 -1.298046,-6.090973 l 16.774848,-25.861697 c 1.32371,-2.040202 4.050771,-2.621492 6.090973,-1.298046 z"
             style="fill:#b3b3b3;stroke:#4d4d4d;stroke-width:2;stroke-miterlimit:4;stroke-dasharray:none"
             inkscape:connector-curvature="0" />
        </g>
      </g>
      <g
         transform="matrix(0.70497731,0.70497731,-0.70497731,0.70497731,87.320796,-17.178385)"
         id="g7011">
        <g
           id="g3256"
           style="fill:#b3b3b3;stroke:#4d4d4d;stroke-width:2;stroke-miterlimit:4;stroke-dasharray:none"
           transform="matrix(0.15826302,0.04240645,-0.04240645,0.15826302,101.69629,95.404704)">
          <path
             inkscape:connector-curvature="0"
             style="fill:#b3b3b3;stroke:#4d4d4d;stroke-width:2;stroke-miterlimit:4;stroke-dasharray:none"
             d="m -100.71807,-34.21203 4.792666,-7.389018 c 4.624388,-7.129198 14.188811,-9.167813 21.318273,-4.543425 7.129198,4.624387 9.167812,14.18881 4.543425,21.318273 l -4.792663,7.389018 c -4.624387,7.129198 -14.18881,9.1678126 -21.318272,4.543425 -7.129459,-4.624387 -9.167809,-14.18881 -4.543429,-21.318273 z m 23.265345,4.593167 c 1.982259,-3.055937 1.108604,-7.154069 -1.947068,-9.136327 -3.055938,-1.982258 -7.154069,-1.108604 -9.136327,1.947069 l -4.792663,7.389018 c -1.982258,3.055938 -1.108604,7.154069 1.947069,9.136327 3.055937,1.982259 7.154069,1.108605 9.136327,-1.947068 z"
             id="path2513" />
          <path
             inkscape:connector-curvature="0"
             style="fill:#b3b3b3;stroke:#4d4d4d;stroke-width:2;stroke-miterlimit:4;stroke-dasharray:none"
             d="m -46.491713,-52.2963 -8.613775,1.835944 c -8.311091,1.771385 -16.515556,-3.550444 -18.286941,-11.861536 -1.771385,-8.311091 3.550444,-16.515556 11.861535,-18.286941 l 8.613775,-1.835944 c 8.311092,-1.771385 16.515556,3.550444 18.286942,11.861535 1.77112,8.310827 -3.550444,16.515556 -11.861536,18.286942 z m -13.203502,-19.698758 c -3.56235,0.759354 -5.842793,4.274873 -5.083439,7.837223 0.759354,3.56235 4.274873,5.842793 7.837223,5.083439 l 8.613775,-1.835944 c 3.56235,-0.759354 5.842793,-4.274872 5.083439,-7.837222 -0.759354,-3.56235 -4.274608,-5.842794 -7.836958,-5.08344 z"
             id="path2515" />
          <path
             id="path2525"
             d="m -94.714406,27.770584 -1.835944,-8.613775 c -1.771385,-8.311091 3.550444,-16.5155557 11.861536,-18.28694105 8.311091,-1.7713854 16.515556,3.55044375 18.286941,11.86153505 l 1.835944,8.613775 c 1.771385,8.311092 -3.550444,16.515556 -11.861535,18.286942 -8.311092,1.77112 -16.515821,-3.550709 -18.286942,-11.861536 z m 19.698758,-13.203502 c -0.759354,-3.56235 -4.274873,-5.8427933 -7.837223,-5.0834392 -3.562349,0.7593542 -5.842793,4.2748732 -5.083439,7.8372232 l 1.835944,8.613775 c 0.759354,3.56235 4.274873,5.842793 7.837223,5.083439 3.562349,-0.759354 5.842793,-4.274873 5.083439,-7.837223 z"
             style="fill:#b3b3b3;stroke:#4d4d4d;stroke-width:2;stroke-miterlimit:4;stroke-dasharray:none"
             inkscape:connector-curvature="0" />
          <path
             id="path2533"
             d="m -116.88437,50.505701 -8.61378,1.835943 c -8.31109,1.771386 -16.51555,-3.550443 -18.28694,-11.861535 -1.77138,-8.311091 3.55045,-16.515556 11.86154,-18.286941 l 8.61377,-1.835944 c 8.31109,-1.771385 16.51556,3.550444 18.28694,11.861535 1.77139,8.311092 -3.55044,16.515556 -11.86153,18.286942 z m -13.20324,-19.698758 c -3.56235,0.759354 -5.84279,4.274872 -5.08344,7.837222 0.75936,3.56235 4.27487,5.842794 7.83722,5.08344 l 8.61378,-1.835944 c 3.56235,-0.759354 5.84279,-4.274873 5.08344,-7.837223 -0.75936,-3.56235 -4.27487,-5.842793 -7.83722,-5.083439 z"
             style="fill:#b3b3b3;stroke:#4d4d4d;stroke-width:2;stroke-miterlimit:4;stroke-dasharray:none"
             inkscape:connector-curvature="0" />
        </g>
        <g
           id="g3227"
           style="fill:#000000;fill-opacity:0.29411765"
           transform="matrix(0.15826302,0.04240645,-0.04240645,0.15826302,101.69629,95.404704)">
          <path
             inkscape:connector-curvature="0"
             style="fill:#000000;fill-opacity:0.29411765;stroke-width:0.26458332"
             d="m -74.607131,-46.144473 c -2.747169,-1.781969 -5.855229,-2.564871 -8.903494,-2.457979 l -3.278452,5.054335 c -1.192741,1.838854 -1.617662,4.007115 -1.278466,6.155267 2.10476,-2.554288 5.825595,-3.205692 8.667485,-1.362604 2.841625,1.843352 3.763698,5.506508 2.289704,8.469841 2.099998,-0.566208 3.906573,-1.838325 5.09905,-3.676914 l 3.278452,-5.054336 c -1.145117,-2.826808 -3.12711,-5.345641 -5.874279,-7.12761 z"
             id="path2519" />
          <path
             inkscape:connector-curvature="0"
             style="fill:#000000;fill-opacity:0.29411765;stroke-width:0.26458332"
             d="m -56.941431,-59.074396 c -3.56235,0.759354 -7.077869,-1.521089 -7.837223,-5.083439 -0.759354,-3.56235 1.521089,-7.077869 5.083439,-7.837223 l 1.334559,-0.284427 c -1.861344,-1.037961 -3.996002,-1.399646 -6.100233,-0.951177 -2.300817,0.490273 -4.273021,1.847585 -5.553075,3.821112 l -3.620294,5.581385 c 0.05609,0.500592 0.134937,1.003036 0.242094,1.506009 1.320006,6.193102 6.213475,10.721181 12.059972,11.896725 l 5.805488,-8.950325 z"
             id="path2521" />
          <path
             inkscape:connector-curvature="0"
             style="fill:#000000;fill-opacity:0.29411765;stroke-width:0.26458332"
             d="m -84.688814,0.86986795 c -3.202517,0.68262495 -5.953654,2.32648125 -8.033808,4.55771245 l 1.255712,5.8920066 c 0.470429,2.206625 1.753394,4.018227 3.44805,5.251979 -0.315383,-3.29274 1.854465,-6.382279 5.165725,-7.0879232 3.31126,-0.7056437 6.552141,1.2305772 7.606771,4.3658892 1.04431,-1.817687 1.477433,-3.9949433 1.007004,-6.2015683 l -1.255713,-5.8920062 c -2.808552,-1.18930205 -5.991225,-1.56871455 -9.193741,-0.88608955 z"
             id="path2527" />
          <path
             inkscape:connector-curvature="0"
             style="fill:#000000;fill-opacity:0.29411765;stroke-width:0.26458332"
             d="m -91.381979,-20.282776 c -2.626518,-1.703652 -3.626908,-4.967816 -2.601648,-7.792508 -3.013868,1.919023 -4.696089,5.551752 -3.908689,9.246394 l 1.182423,5.548312 c 0.179652,0.127794 0.348191,0.265642 0.534987,0.386821 5.500423,3.5676417 12.441502,3.1551563 17.453769,-0.487098 l -1.943629,-9.119658 c -0.108215,-0.507206 -0.278077,-0.983721 -0.465402,-1.449123 l -1.115484,1.719792 c -1.981993,3.055673 -6.080389,3.929327 -9.136327,1.947068 z"
             id="path2529" />
          <path
             inkscape:connector-curvature="0"
             style="fill:#000000;fill-opacity:0.29411765;stroke-width:0.26458332"
             d="m -120.72453,28.888713 c 3.29273,-0.315383 6.38227,1.854465 7.08792,5.165725 0.70564,3.311261 -1.23058,6.552142 -4.36589,7.606771 1.81769,1.044311 3.99494,1.477433 6.20157,1.007004 l 5.892,-1.255712 c 1.18904,-2.808817 1.56845,-5.991225 0.88609,-9.194006 -0.68262,-3.202517 -2.32674,-5.953654 -4.55771,-8.033809 l -5.89201,1.255713 c -2.20662,0.470694 -4.01822,1.753923 -5.25197,3.448314 z"
             id="path2535" />
          <path
             inkscape:connector-curvature="0"
             style="fill:#000000;fill-opacity:0.29411765;stroke-width:0.26458332"
             d="m -74.816946,29.05302 c -0.892439,0.960437 -2.06957,1.671637 -3.446462,1.96506 -3.56235,0.759354 -7.077869,-1.521089 -7.837223,-5.083439 l -1.376892,-6.460332 -8.613774,1.835944 1.376891,6.460331 c 0.898525,4.216136 3.456252,7.656777 6.840008,9.798579 l 6.221942,-1.326091 c 3.643048,-0.776552 6.2611,-3.719513 6.83551,-7.190052 z"
             id="path2537" />
        </g>
        <g
           id="g3250"
           style="fill:#b3b3b3;stroke:#4d4d4d;stroke-width:2;stroke-miterlimit:4;stroke-dasharray:none"
           transform="matrix(0.15826302,0.04240645,-0.04240645,0.15826302,101.69629,95.404704)">
          <path
             inkscape:connector-curvature="0"
             style="fill:#b3b3b3;stroke:#4d4d4d;stroke-width:2;stroke-miterlimit:4;stroke-dasharray:none"
             d="m -117.9435,34.972543 v 0 c -0.50694,-2.378605 1.01044,-4.717786 3.38905,-5.224728 l 30.148475,-6.425406 c 2.378604,-0.506941 4.717786,1.010444 5.224727,3.389048 v 0 c 0.506942,2.378604 -1.010443,4.717786 -3.389048,5.224727 l -30.148474,6.425406 c -2.37861,0.506942 -4.71779,-1.010443 -5.22473,-3.389047 z"
             id="path2541" />
          <path
             inkscape:connector-curvature="0"
             style="fill:#b3b3b3;stroke:#4d4d4d;stroke-width:2;stroke-miterlimit:4;stroke-dasharray:none"
             d="m -90.196116,-24.971721 v 0 c 2.378604,-0.506942 4.717785,1.010443 5.224727,3.389048 l 6.425406,30.1484763 c 0.506942,2.3786037 -1.010444,4.7177857 -3.389048,5.2247267 v 0 c -2.378604,0.506942 -4.717785,-1.010443 -5.224727,-3.389048 l -6.425406,-30.148476 c -0.506942,-2.378604 1.010444,-4.717786 3.389048,-5.224727 z"
             id="path2543" />
          <path
             inkscape:connector-curvature="0"
             style="fill:#b3b3b3;stroke:#4d4d4d;stroke-width:2;stroke-miterlimit:4;stroke-dasharray:none"
             d="m -60.228879,-68.311529 v 0 c 2.040467,1.323446 2.621491,4.050506 1.298046,6.090973 l -16.774848,25.861697 c -1.323446,2.040467 -4.050506,2.621492 -6.090973,1.298046 v 0 c -2.040467,-1.323446 -2.621491,-4.050506 -1.298046,-6.090973 l 16.774848,-25.861697 c 1.32371,-2.040202 4.050771,-2.621492 6.090973,-1.298046 z"
             id="path2545" />
        </g>
      </g>
      <g
         transform="matrix(1.2502945,0,0,1.2502945,-22.648723,1.1948165)"
         id="g6942">
        <path
           inkscape:connector-curvature="0"
           id="path3796"
           d="m 95.376557,100.79705 8.978393,-7.609841"
           style="fill:#4d4d4d;fill-opacity:1;fill-rule:evenodd;stroke:#1a1a1a;stroke-width:0.2855545;stroke-linecap:butt;stroke-linejoin:miter;stroke-miterlimit:4;stroke-dasharray:none;stroke-opacity:1" />
        <path
           inkscape:connector-curvature="0"
           id="path3798"
           d="m 131.91267,100.79705 -9.29039,-7.874292"
           style="fill:#4d4d4d;fill-opacity:1;fill-rule:evenodd;stroke:#1a1a1a;stroke-width:0.2855545;stroke-linecap:butt;stroke-linejoin:miter;stroke-miterlimit:4;stroke-dasharray:none;stroke-opacity:1" />
        <path
           inkscape:connector-curvature="0"
           id="path3800"
           d="m 131.91267,69.82998 -8.8323,7.486018"
           style="fill:#4d4d4d;fill-opacity:1;fill-rule:evenodd;stroke:#1a1a1a;stroke-width:0.2855545;stroke-linecap:butt;stroke-linejoin:miter;stroke-miterlimit:4;stroke-dasharray:none;stroke-opacity:1" />
        <path
           inkscape:connector-curvature="0"
           id="path3802"
           d="m 95.376557,69.82998 7.398063,6.270405"
           style="fill:#4d4d4d;fill-opacity:1;fill-rule:evenodd;stroke:#1a1a1a;stroke-width:0.2855545;stroke-linecap:butt;stroke-linejoin:miter;stroke-miterlimit:4;stroke-dasharray:none;stroke-opacity:1" />
        <rect
           y="74.719124"
           x="100.92125"
           height="21.188766"
           width="25.446815"
           id="rect3806"
           style="opacity:1;fill:#ffffff;fill-opacity:1;stroke:#4d4d4d;stroke-width:0.29573518;stroke-linecap:round;stroke-linejoin:round;stroke-miterlimit:4;stroke-dasharray:none;stroke-dashoffset:10.79999924;stroke-opacity:1" />
        <g
           transform="matrix(0.58176349,0,0,0.58176349,504.85159,5.9970025)"
           id="g3812">
          <path
             inkscape:connector-curvature="0"
             style="fill:url(#linearGradient6813);fill-opacity:1;stroke-width:0.23039289"
             d="m -672.60263,123.39146 c -1.05605,0.005 -2.06455,0.095 -2.95191,0.25199 -2.61411,0.46182 -3.08872,1.42846 -3.08872,3.2111 v 2.35433 h 6.17741 v 0.78477 h -6.17741 -2.31833 c -1.79533,0 -3.36737,1.0791 -3.85908,3.13191 -0.56718,2.35299 -0.59234,3.8213 0,6.2782 0.43911,1.82883 1.48777,3.1319 3.2831,3.13191 h 2.12395 v -2.82232 c 0,-2.03895 1.76414,-3.83748 3.85908,-3.83748 h 6.1702 c 1.71758,0 3.08871,-1.41419 3.08871,-3.1391 v -5.88222 c 0,-1.67411 -1.41231,-2.9317 -3.08871,-3.2111 -1.06119,-0.17665 -2.16226,-0.2569 -3.21829,-0.25199 z m -3.3407,1.89354 c 0.63807,0 1.15915,0.52959 1.15915,1.18076 0,0.64886 -0.52108,1.17356 -1.15915,1.17356 -0.64038,0 -1.15917,-0.5247 -1.15917,-1.17356 0,-0.65117 0.51879,-1.18076 1.15917,-1.18076 z"
             id="path3808" />
          <path
             inkscape:connector-curvature="0"
             style="fill:url(#linearGradient6815);fill-opacity:1;stroke-width:0.23039289"
             d="m -665.52526,129.99365 v 2.74312 c 0,2.1267 -1.80303,3.91668 -3.85908,3.91668 h -6.1702 c -1.69014,0 -3.08872,1.44651 -3.08872,3.1391 v 5.88222 c 0,1.67411 1.45576,2.65881 3.08872,3.1391 1.95541,0.57497 3.83056,0.67888 6.1702,0 1.5552,-0.45028 3.08871,-1.35646 3.08871,-3.1391 v -2.35433 h -6.17022 v -0.78477 h 6.17022 3.0887 c 1.79533,0 2.46435,-1.25228 3.08869,-3.13191 0.64496,-1.93504 0.61752,-3.7959 0,-6.2782 -0.44367,-1.78726 -1.29108,-3.13191 -3.08869,-3.13191 z m -3.47029,14.89634 c 0.64037,0 1.15917,0.5247 1.15917,1.17357 0,0.65117 -0.5188,1.18076 -1.15917,1.18076 -0.63808,0 -1.15916,-0.52959 -1.15916,-1.18076 0,-0.64887 0.52108,-1.17357 1.15916,-1.17357 z"
             id="path3810" />
        </g>
        <rect
           y="59.544773"
           x="107.11076"
           height="10.038871"
           width="13.067698"
           id="rect3944"
           style="opacity:1;fill:#ececec;fill-opacity:1;stroke:#4d4d4d;stroke-width:1.07906544;stroke-linecap:round;stroke-linejoin:round;stroke-miterlimit:4;stroke-dasharray:none;stroke-opacity:1" />
        <text
           id="text3954"
           y="67.256317"
           x="111.25583"
           style="font-style:normal;font-variant:normal;font-weight:bold;font-stretch:normal;font-size:7.39565945px;line-height:1.25;font-family:'DejaVu Sans Mono';-inkscape-font-specification:'DejaVu Sans Mono Bold';letter-spacing:0px;word-spacing:0px;fill:#666666;fill-opacity:1;stroke:none;stroke-width:0.18489151"
           xml:space="preserve"><tspan
             style="font-style:normal;font-variant:normal;font-weight:bold;font-stretch:normal;font-family:'DejaVu Sans Mono';-inkscape-font-specification:'DejaVu Sans Mono Bold';letter-spacing:0px;fill:#666666;stroke-width:0.18489151"
             y="67.256317"
             x="111.25583"
             sodipodi:role="line"
             id="tspan3956">1</tspan></text>
        <g
           style="fill:#000000;fill-opacity:0.05882353"
           id="g4053"
           transform="matrix(0.36065265,0,0,0.36065265,442.14675,43.938617)">
          <path
             style="fill:#000000;fill-opacity:0.05882353;stroke:none;stroke-width:0.26458332px;stroke-linecap:butt;stroke-linejoin:miter;stroke-opacity:1"
             d="m -961.50212,91.469733 19.64431,-19.64431 h 2.53907 l -22.18338,22.18337 z"
             id="path4033"
             inkscape:connector-curvature="0" />
          <path
             style="fill:#000000;fill-opacity:0.05882353;stroke:none;stroke-width:0.26458332px;stroke-linecap:butt;stroke-linejoin:miter;stroke-opacity:1"
             d="m -937.98241,71.825423 -23.38607,23.386082 v 11.759855 l 34.54458,-34.544581 z"
             id="path4035"
             inkscape:connector-curvature="0" />
          <path
             style="fill:#000000;fill-opacity:0.05882353;stroke:none;stroke-width:0.26458332px;stroke-linecap:butt;stroke-linejoin:miter;stroke-opacity:1"
             d="m -915.66538,71.558152 h 5.47901 l -51.91709,51.917108 v -5.27858 l 45.84911,-45.849112 z"
             id="path4037"
             inkscape:connector-curvature="0" />
          <path
             style="fill:#000000;fill-opacity:0.05882353;stroke:none;stroke-width:0.26458332px;stroke-linecap:butt;stroke-linejoin:miter;stroke-opacity:1"
             d="m -961.76937,139.17734 67.35191,-67.351917 h 3.4745 l -70.29188,70.291887 z"
             id="path4039"
             inkscape:connector-curvature="0" />
          <path
             style="fill:#000000;fill-opacity:0.05882353;stroke:none;stroke-width:0.26458332px;stroke-linecap:butt;stroke-linejoin:miter;stroke-opacity:1"
             d="m -961.23484,146.66089 v 3.34087 l 78.10953,-78.109522 h -4.47678 l -73.06482,73.064812 z"
             id="path4041"
             inkscape:connector-curvature="0" />
          <path
             style="fill:#000000;fill-opacity:0.05882353;stroke:none;stroke-width:0.26458332px;stroke-linecap:butt;stroke-linejoin:miter;stroke-opacity:1"
             d="m -961.36848,155.34715 83.3881,-83.388094 h 15.7689 l -85.65989,85.659884 h -13.49711 z"
             id="path4043"
             inkscape:connector-curvature="0" />
          <path
             style="fill:#000000;fill-opacity:0.05882353;stroke:none;stroke-width:0.26458332px;stroke-linecap:butt;stroke-linejoin:miter;stroke-opacity:1"
             d="m -924.61891,157.48531 64.27832,-64.278326 v 4.276312 l -60.33611,60.336094 z"
             id="path4045"
             inkscape:connector-curvature="0" />
          <path
             style="fill:#000000;fill-opacity:0.05882353;stroke:none;stroke-width:0.26458332px;stroke-linecap:butt;stroke-linejoin:miter;stroke-opacity:1"
             d="m -917.66992,157.35167 57.59659,-57.596582 v 4.009042 8.55263 l -45.03492,45.03491 z"
             id="path4047"
             inkscape:connector-curvature="0" />
          <path
             style="fill:#000000;fill-opacity:0.05882353;stroke:none;stroke-width:0.26458332px;stroke-linecap:butt;stroke-linejoin:miter;stroke-opacity:1"
             d="m -883.86033,157.35167 23.25246,-23.25245 v 2.80633 l -20.71338,20.71339 z"
             id="path4049"
             inkscape:connector-curvature="0" />
          <path
             style="fill:#000000;fill-opacity:0.05882353;stroke:none;stroke-width:0.26458332px;stroke-linecap:butt;stroke-linejoin:miter;stroke-opacity:1"
             d="m -878.38128,157.61894 18.24114,-18.24115 v 10.49033 l -8.3856,8.38558 z"
             id="path4051"
             inkscape:connector-curvature="0" />
        </g>
        <rect
           y="69.829987"
           x="95.376534"
           height="30.967079"
           width="36.536102"
           id="rect4055"
           style="opacity:1;fill:#f2f2f2;fill-opacity:0.50970878;stroke:#4d4d4d;stroke-width:0.98710626;stroke-linecap:round;stroke-linejoin:round;stroke-miterlimit:4;stroke-dasharray:none;stroke-dashoffset:10.79999924;stroke-opacity:1" />
      </g>
      <g
         transform="matrix(1.2502945,0,0,1.2502945,-22.648768,-12.401872)"
         id="g6967">
        <path
           style="fill:#4d4d4d;fill-opacity:1;fill-rule:evenodd;stroke:#1a1a1a;stroke-width:0.2855545;stroke-linecap:butt;stroke-linejoin:miter;stroke-miterlimit:4;stroke-dasharray:none;stroke-opacity:1"
           d="m 147.90993,111.67185 8.97839,-7.60984"
           id="path3854"
           inkscape:connector-curvature="0" />
        <path
           style="fill:#4d4d4d;fill-opacity:1;fill-rule:evenodd;stroke:#1a1a1a;stroke-width:0.2855545;stroke-linecap:butt;stroke-linejoin:miter;stroke-miterlimit:4;stroke-dasharray:none;stroke-opacity:1"
           d="m 184.44604,111.67185 -9.29038,-7.87429"
           id="path3856"
           inkscape:connector-curvature="0" />
        <path
           style="fill:#4d4d4d;fill-opacity:1;fill-rule:evenodd;stroke:#1a1a1a;stroke-width:0.2855545;stroke-linecap:butt;stroke-linejoin:miter;stroke-miterlimit:4;stroke-dasharray:none;stroke-opacity:1"
           d="m 184.44604,80.704778 -8.8323,7.486019"
           id="path3858"
           inkscape:connector-curvature="0" />
        <path
           style="fill:#4d4d4d;fill-opacity:1;fill-rule:evenodd;stroke:#1a1a1a;stroke-width:0.2855545;stroke-linecap:butt;stroke-linejoin:miter;stroke-miterlimit:4;stroke-dasharray:none;stroke-opacity:1"
           d="m 147.90993,80.704778 7.39807,6.270406"
           id="path3860"
           inkscape:connector-curvature="0" />
        <rect
           style="opacity:1;fill:#ffffff;fill-opacity:1;stroke:#4d4d4d;stroke-width:0.29573518;stroke-linecap:round;stroke-linejoin:round;stroke-miterlimit:4;stroke-dasharray:none;stroke-dashoffset:10.79999924;stroke-opacity:1"
           id="rect3864"
           width="25.446815"
           height="21.188766"
           x="153.45459"
           y="85.593918" />
        <g
           id="g3870"
           transform="matrix(0.58176349,0,0,0.58176349,557.38496,16.871801)">
          <path
             id="path3866"
             d="m -672.60263,123.39146 c -1.05605,0.005 -2.06455,0.095 -2.95191,0.25199 -2.61411,0.46182 -3.08872,1.42846 -3.08872,3.2111 v 2.35433 h 6.17741 v 0.78477 h -6.17741 -2.31833 c -1.79533,0 -3.36737,1.0791 -3.85908,3.13191 -0.56718,2.35299 -0.59234,3.8213 0,6.2782 0.43911,1.82883 1.48777,3.1319 3.2831,3.13191 h 2.12395 v -2.82232 c 0,-2.03895 1.76414,-3.83748 3.85908,-3.83748 h 6.1702 c 1.71758,0 3.08871,-1.41419 3.08871,-3.1391 v -5.88222 c 0,-1.67411 -1.41231,-2.9317 -3.08871,-3.2111 -1.06119,-0.17665 -2.16226,-0.2569 -3.21829,-0.25199 z m -3.3407,1.89354 c 0.63807,0 1.15915,0.52959 1.15915,1.18076 0,0.64886 -0.52108,1.17356 -1.15915,1.17356 -0.64038,0 -1.15917,-0.5247 -1.15917,-1.17356 0,-0.65117 0.51879,-1.18076 1.15917,-1.18076 z"
             style="fill:url(#linearGradient1478);fill-opacity:1;stroke-width:0.23039289"
             inkscape:connector-curvature="0" />
          <path
             id="path3868"
             d="m -665.52526,129.99365 v 2.74312 c 0,2.1267 -1.80303,3.91668 -3.85908,3.91668 h -6.1702 c -1.69014,0 -3.08872,1.44651 -3.08872,3.1391 v 5.88222 c 0,1.67411 1.45576,2.65881 3.08872,3.1391 1.95541,0.57497 3.83056,0.67888 6.1702,0 1.5552,-0.45028 3.08871,-1.35646 3.08871,-3.1391 v -2.35433 h -6.17022 v -0.78477 h 6.17022 3.0887 c 1.79533,0 2.46435,-1.25228 3.08869,-3.13191 0.64496,-1.93504 0.61752,-3.7959 0,-6.2782 -0.44367,-1.78726 -1.29108,-3.13191 -3.08869,-3.13191 z m -3.47029,14.89634 c 0.64037,0 1.15917,0.5247 1.15917,1.17357 0,0.65117 -0.5188,1.18076 -1.15917,1.18076 -0.63808,0 -1.15916,-0.52959 -1.15916,-1.18076 0,-0.64887 0.52108,-1.17357 1.15916,-1.17357 z"
             style="fill:url(#linearGradient1475);fill-opacity:1;stroke-width:0.23039289"
             inkscape:connector-curvature="0" />
        </g>
        <rect
           style="opacity:1;fill:#ececec;fill-opacity:1;stroke:#4d4d4d;stroke-width:1.07906544;stroke-linecap:round;stroke-linejoin:round;stroke-miterlimit:4;stroke-dasharray:none;stroke-opacity:1"
           id="rect3946"
           width="13.067698"
           height="10.038871"
           x="159.64417"
           y="70.419571" />
        <text
           xml:space="preserve"
           style="font-style:normal;font-variant:normal;font-weight:bold;font-stretch:normal;font-size:7.39565945px;line-height:1.25;font-family:'DejaVu Sans Mono';-inkscape-font-specification:'DejaVu Sans Mono Bold';letter-spacing:0px;word-spacing:0px;fill:#666666;fill-opacity:1;stroke:none;stroke-width:0.18489151"
           x="164.05103"
           y="78.131111"
           id="text3962"><tspan
             id="tspan3960"
             sodipodi:role="line"
             x="164.05103"
             y="78.131111"
             style="font-style:normal;font-variant:normal;font-weight:bold;font-stretch:normal;font-family:'DejaVu Sans Mono';-inkscape-font-specification:'DejaVu Sans Mono Bold';letter-spacing:0px;fill:#666666;stroke-width:0.18489151">2</tspan></text>
        <g
           id="g4079"
           style="fill:#000000;fill-opacity:0.05882353"
           transform="matrix(0.36065265,0,0,0.36065265,494.68012,54.813416)">
          <path
             inkscape:connector-curvature="0"
             id="path4059"
             d="m -961.50212,91.469733 19.64431,-19.64431 h 2.53907 l -22.18338,22.18337 z"
             style="fill:#000000;fill-opacity:0.05882353;stroke:none;stroke-width:0.26458332px;stroke-linecap:butt;stroke-linejoin:miter;stroke-opacity:1" />
          <path
             inkscape:connector-curvature="0"
             id="path4061"
             d="m -937.98241,71.825423 -23.38607,23.386082 v 11.759855 l 34.54458,-34.544581 z"
             style="fill:#000000;fill-opacity:0.05882353;stroke:none;stroke-width:0.26458332px;stroke-linecap:butt;stroke-linejoin:miter;stroke-opacity:1" />
          <path
             inkscape:connector-curvature="0"
             id="path4063"
             d="m -915.66538,71.558152 h 5.47901 l -51.91709,51.917108 v -5.27858 l 45.84911,-45.849112 z"
             style="fill:#000000;fill-opacity:0.05882353;stroke:none;stroke-width:0.26458332px;stroke-linecap:butt;stroke-linejoin:miter;stroke-opacity:1" />
          <path
             inkscape:connector-curvature="0"
             id="path4065"
             d="m -961.76937,139.17734 67.35191,-67.351917 h 3.4745 l -70.29188,70.291887 z"
             style="fill:#000000;fill-opacity:0.05882353;stroke:none;stroke-width:0.26458332px;stroke-linecap:butt;stroke-linejoin:miter;stroke-opacity:1" />
          <path
             inkscape:connector-curvature="0"
             id="path4067"
             d="m -961.23484,146.66089 v 3.34087 l 78.10953,-78.109522 h -4.47678 l -73.06482,73.064812 z"
             style="fill:#000000;fill-opacity:0.05882353;stroke:none;stroke-width:0.26458332px;stroke-linecap:butt;stroke-linejoin:miter;stroke-opacity:1" />
          <path
             inkscape:connector-curvature="0"
             id="path4069"
             d="m -961.36848,155.34715 83.3881,-83.388094 h 15.7689 l -85.65989,85.659884 h -13.49711 z"
             style="fill:#000000;fill-opacity:0.05882353;stroke:none;stroke-width:0.26458332px;stroke-linecap:butt;stroke-linejoin:miter;stroke-opacity:1" />
          <path
             inkscape:connector-curvature="0"
             id="path4071"
             d="m -924.61891,157.48531 64.27832,-64.278326 v 4.276312 l -60.33611,60.336094 z"
             style="fill:#000000;fill-opacity:0.05882353;stroke:none;stroke-width:0.26458332px;stroke-linecap:butt;stroke-linejoin:miter;stroke-opacity:1" />
          <path
             inkscape:connector-curvature="0"
             id="path4073"
             d="m -917.66992,157.35167 57.59659,-57.596582 v 4.009042 8.55263 l -45.03492,45.03491 z"
             style="fill:#000000;fill-opacity:0.05882353;stroke:none;stroke-width:0.26458332px;stroke-linecap:butt;stroke-linejoin:miter;stroke-opacity:1" />
          <path
             inkscape:connector-curvature="0"
             id="path4075"
             d="m -883.86033,157.35167 23.25246,-23.25245 v 2.80633 l -20.71338,20.71339 z"
             style="fill:#000000;fill-opacity:0.05882353;stroke:none;stroke-width:0.26458332px;stroke-linecap:butt;stroke-linejoin:miter;stroke-opacity:1" />
          <path
             inkscape:connector-curvature="0"
             id="path4077"
             d="m -878.38128,157.61894 18.24114,-18.24115 v 10.49033 l -8.3856,8.38558 z"
             style="fill:#000000;fill-opacity:0.05882353;stroke:none;stroke-width:0.26458332px;stroke-linecap:butt;stroke-linejoin:miter;stroke-opacity:1" />
        </g>
        <rect
           style="opacity:1;fill:#f2f2f2;fill-opacity:0.50970878;stroke:#4d4d4d;stroke-width:0.98710626;stroke-linecap:round;stroke-linejoin:round;stroke-miterlimit:4;stroke-dasharray:none;stroke-dashoffset:10.79999924;stroke-opacity:1"
           id="rect4081"
           width="36.536102"
           height="30.967079"
           x="147.90994"
           y="80.704765" />
      </g>
      <g
         transform="matrix(1.2502945,0,0,1.2502945,-22.648764,-12.401872)"
         id="g6993">
        <path
           style="fill:#4d4d4d;fill-opacity:1;fill-rule:evenodd;stroke:#1a1a1a;stroke-width:0.2855545;stroke-linecap:butt;stroke-linejoin:miter;stroke-miterlimit:4;stroke-dasharray:none;stroke-opacity:1"
           d="m 42.843182,111.67185 8.978379,-7.60984"
           id="path4502"
           inkscape:connector-curvature="0" />
        <path
           style="fill:#4d4d4d;fill-opacity:1;fill-rule:evenodd;stroke:#1a1a1a;stroke-width:0.2855545;stroke-linecap:butt;stroke-linejoin:miter;stroke-miterlimit:4;stroke-dasharray:none;stroke-opacity:1"
           d="m 79.379291,111.67185 -9.290382,-7.87429"
           id="path4504"
           inkscape:connector-curvature="0" />
        <path
           style="fill:#4d4d4d;fill-opacity:1;fill-rule:evenodd;stroke:#1a1a1a;stroke-width:0.2855545;stroke-linecap:butt;stroke-linejoin:miter;stroke-miterlimit:4;stroke-dasharray:none;stroke-opacity:1"
           d="M 79.379291,80.704778 70.54699,88.190797"
           id="path4506"
           inkscape:connector-curvature="0" />
        <path
           style="fill:#4d4d4d;fill-opacity:1;fill-rule:evenodd;stroke:#1a1a1a;stroke-width:0.2855545;stroke-linecap:butt;stroke-linejoin:miter;stroke-miterlimit:4;stroke-dasharray:none;stroke-opacity:1"
           d="m 42.843182,80.704778 7.398064,6.270406"
           id="path4508"
           inkscape:connector-curvature="0" />
        <rect
           style="opacity:1;fill:#ffffff;fill-opacity:1;stroke:#4d4d4d;stroke-width:0.29573518;stroke-linecap:round;stroke-linejoin:round;stroke-miterlimit:4;stroke-dasharray:none;stroke-dashoffset:10.79999924;stroke-opacity:1"
           id="rect4162"
           width="25.446815"
           height="21.188766"
           x="48.387844"
           y="85.593918" />
        <g
           id="g3644"
           transform="matrix(0.58176349,0,0,0.58176349,452.3182,16.871801)">
          <path
             id="path1948"
             d="m -672.60263,123.39146 c -1.05605,0.005 -2.06455,0.095 -2.95191,0.25199 -2.61411,0.46182 -3.08872,1.42846 -3.08872,3.2111 v 2.35433 h 6.17741 v 0.78477 h -6.17741 -2.31833 c -1.79533,0 -3.36737,1.0791 -3.85908,3.13191 -0.56718,2.35299 -0.59234,3.8213 0,6.2782 0.43911,1.82883 1.48777,3.1319 3.2831,3.13191 h 2.12395 v -2.82232 c 0,-2.03895 1.76414,-3.83748 3.85908,-3.83748 h 6.1702 c 1.71758,0 3.08871,-1.41419 3.08871,-3.1391 v -5.88222 c 0,-1.67411 -1.41231,-2.9317 -3.08871,-3.2111 -1.06119,-0.17665 -2.16226,-0.2569 -3.21829,-0.25199 z m -3.3407,1.89354 c 0.63807,0 1.15915,0.52959 1.15915,1.18076 0,0.64886 -0.52108,1.17356 -1.15915,1.17356 -0.64038,0 -1.15917,-0.5247 -1.15917,-1.17356 0,-0.65117 0.51879,-1.18076 1.15917,-1.18076 z"
             style="fill:url(#linearGradient6809);fill-opacity:1;stroke-width:0.23039289"
             inkscape:connector-curvature="0" />
          <path
             id="path1950"
             d="m -665.52526,129.99365 v 2.74312 c 0,2.1267 -1.80303,3.91668 -3.85908,3.91668 h -6.1702 c -1.69014,0 -3.08872,1.44651 -3.08872,3.1391 v 5.88222 c 0,1.67411 1.45576,2.65881 3.08872,3.1391 1.95541,0.57497 3.83056,0.67888 6.1702,0 1.5552,-0.45028 3.08871,-1.35646 3.08871,-3.1391 v -2.35433 h -6.17022 v -0.78477 h 6.17022 3.0887 c 1.79533,0 2.46435,-1.25228 3.08869,-3.13191 0.64496,-1.93504 0.61752,-3.7959 0,-6.2782 -0.44367,-1.78726 -1.29108,-3.13191 -3.08869,-3.13191 z m -3.47029,14.89634 c 0.64037,0 1.15917,0.5247 1.15917,1.17357 0,0.65117 -0.5188,1.18076 -1.15917,1.18076 -0.63808,0 -1.15916,-0.52959 -1.15916,-1.18076 0,-0.64887 0.52108,-1.17357 1.15916,-1.17357 z"
             style="fill:url(#linearGradient6811);fill-opacity:1;stroke-width:0.23039289"
             inkscape:connector-curvature="0" />
        </g>
        <g
           id="g5277"
           transform="matrix(1.1117937,0,0,1.1117937,842.24874,-84.803647)">
          <rect
             y="139.61513"
             x="-708.46899"
             height="9.0294371"
             width="11.753707"
             id="rect3782"
             style="opacity:1;fill:#ececec;fill-opacity:1;stroke:#4d4d4d;stroke-width:0.9705627;stroke-linecap:round;stroke-linejoin:round;stroke-miterlimit:4;stroke-dasharray:none;stroke-opacity:1" />
          <text
             id="text3950"
             y="146.55125"
             x="-704.59448"
             style="font-style:normal;font-variant:normal;font-weight:bold;font-stretch:normal;font-size:6.6520071px;line-height:1.25;font-family:'DejaVu Sans Mono';-inkscape-font-specification:'DejaVu Sans Mono Bold';letter-spacing:0px;word-spacing:0px;fill:#666666;fill-opacity:1;stroke:none;stroke-width:0.16630019"
             xml:space="preserve"><tspan
               style="font-style:normal;font-variant:normal;font-weight:bold;font-stretch:normal;font-family:'DejaVu Sans Mono';-inkscape-font-specification:'DejaVu Sans Mono Bold';letter-spacing:0px;fill:#666666;stroke-width:0.16630019"
               y="146.55125"
               x="-704.59448"
               id="tspan3948"
               sodipodi:role="line">0</tspan></text>
        </g>
        <g
           id="g4017"
           style="fill:#000000;fill-opacity:0.05882353"
           transform="matrix(0.36065265,0,0,0.36065265,389.61336,54.813416)">
          <path
             inkscape:connector-curvature="0"
             id="path3987"
             d="m -961.50212,91.469733 19.64431,-19.64431 h 2.53907 l -22.18338,22.18337 z"
             style="fill:#000000;fill-opacity:0.05882353;stroke:none;stroke-width:0.26458332px;stroke-linecap:butt;stroke-linejoin:miter;stroke-opacity:1" />
          <path
             inkscape:connector-curvature="0"
             id="path3989"
             d="m -937.98241,71.825423 -23.38607,23.386082 v 11.759855 l 34.54458,-34.544581 z"
             style="fill:#000000;fill-opacity:0.05882353;stroke:none;stroke-width:0.26458332px;stroke-linecap:butt;stroke-linejoin:miter;stroke-opacity:1" />
          <path
             inkscape:connector-curvature="0"
             id="path3991"
             d="m -915.66538,71.558152 h 5.47901 l -51.91709,51.917108 v -5.27858 l 45.84911,-45.849112 z"
             style="fill:#000000;fill-opacity:0.05882353;stroke:none;stroke-width:0.26458332px;stroke-linecap:butt;stroke-linejoin:miter;stroke-opacity:1" />
          <path
             inkscape:connector-curvature="0"
             id="path3993"
             d="m -961.76937,139.17734 67.35191,-67.351917 h 3.4745 l -70.29188,70.291887 z"
             style="fill:#000000;fill-opacity:0.05882353;stroke:none;stroke-width:0.26458332px;stroke-linecap:butt;stroke-linejoin:miter;stroke-opacity:1" />
          <path
             inkscape:connector-curvature="0"
             id="path3995"
             d="m -961.23484,146.66089 v 3.34087 l 78.10953,-78.109522 h -4.47678 l -73.06482,73.064812 z"
             style="fill:#000000;fill-opacity:0.05882353;stroke:none;stroke-width:0.26458332px;stroke-linecap:butt;stroke-linejoin:miter;stroke-opacity:1" />
          <path
             inkscape:connector-curvature="0"
             id="path3997"
             d="m -961.36848,155.34715 83.3881,-83.388094 h 15.7689 l -85.65989,85.659884 h -13.49711 z"
             style="fill:#000000;fill-opacity:0.05882353;stroke:none;stroke-width:0.26458332px;stroke-linecap:butt;stroke-linejoin:miter;stroke-opacity:1" />
          <path
             inkscape:connector-curvature="0"
             id="path3999"
             d="m -924.61891,157.48531 64.27832,-64.278326 v 4.276312 l -60.33611,60.336094 z"
             style="fill:#000000;fill-opacity:0.05882353;stroke:none;stroke-width:0.26458332px;stroke-linecap:butt;stroke-linejoin:miter;stroke-opacity:1" />
          <path
             inkscape:connector-curvature="0"
             id="path4001"
             d="m -917.66992,157.35167 57.59659,-57.596582 v 4.009042 8.55263 l -45.03492,45.03491 z"
             style="fill:#000000;fill-opacity:0.05882353;stroke:none;stroke-width:0.26458332px;stroke-linecap:butt;stroke-linejoin:miter;stroke-opacity:1" />
          <path
             inkscape:connector-curvature="0"
             id="path4003"
             d="m -883.86033,157.35167 23.25246,-23.25245 v 2.80633 l -20.71338,20.71339 z"
             style="fill:#000000;fill-opacity:0.05882353;stroke:none;stroke-width:0.26458332px;stroke-linecap:butt;stroke-linejoin:miter;stroke-opacity:1" />
          <path
             inkscape:connector-curvature="0"
             id="path4005"
             d="m -878.38128,157.61894 18.24114,-18.24115 v 10.49033 l -8.3856,8.38558 z"
             style="fill:#000000;fill-opacity:0.05882353;stroke:none;stroke-width:0.26458332px;stroke-linecap:butt;stroke-linejoin:miter;stroke-opacity:1" />
        </g>
        <rect
           style="opacity:1;fill:#f2f2f2;fill-opacity:0.50970878;stroke:#4d4d4d;stroke-width:0.98710626;stroke-linecap:round;stroke-linejoin:round;stroke-miterlimit:4;stroke-dasharray:none;stroke-dashoffset:10.79999924;stroke-opacity:1"
           id="rect4138"
           width="36.536102"
           height="30.967079"
           x="42.843193"
           y="80.704765" />
      </g>
    </g>
    <ellipse
       style="opacity:1;fill:#808080;fill-opacity:0.50196078;stroke:none;stroke-width:1.74499989;stroke-linecap:round;stroke-linejoin:round;stroke-miterlimit:4;stroke-dasharray:none;stroke-opacity:1;filter:url(#filter7329)"
       id="path7156"
       cx="58.365604"
       cy="120.73711"
       rx="14.079613"
       ry="1.3229166"
       transform="matrix(1.3805691,0,0,0.9298552,-26.819464,21.199558)" />
    <ellipse
       transform="matrix(1.3805691,0,0,0.9298552,38.862722,21.199558)"
       ry="1.3229166"
       rx="14.079613"
       cy="120.73711"
       cx="58.365604"
       id="ellipse7333"
       style="opacity:1;fill:#808080;fill-opacity:0.50196078;stroke:none;stroke-width:1.74499989;stroke-linecap:round;stroke-linejoin:round;stroke-miterlimit:4;stroke-dasharray:none;stroke-opacity:1;filter:url(#filter7329)" />
    <ellipse
       style="opacity:1;fill:#808080;fill-opacity:0.50196078;stroke:none;stroke-width:1.74499989;stroke-linecap:round;stroke-linejoin:round;stroke-miterlimit:4;stroke-dasharray:none;stroke-opacity:1;filter:url(#filter7329)"
       id="ellipse7335"
       cx="58.365604"
       cy="120.73711"
       rx="14.079613"
       ry="1.3229166"
       transform="matrix(1.3805691,0,0,0.9298552,104.5449,21.199558)" />
  </g>
</svg>
