<?xml version="1.0" encoding="UTF-8" standalone="no"?>
<!-- Created with Inkscape (http://www.inkscape.org/) -->

<svg
   xmlns:dc="http://purl.org/dc/elements/1.1/"
   xmlns:cc="http://creativecommons.org/ns#"
   xmlns:rdf="http://www.w3.org/1999/02/22-rdf-syntax-ns#"
   xmlns:svg="http://www.w3.org/2000/svg"
   xmlns="http://www.w3.org/2000/svg"
   xmlns:xlink="http://www.w3.org/1999/xlink"
   xmlns:sodipodi="http://sodipodi.sourceforge.net/DTD/sodipodi-0.dtd"
   xmlns:inkscape="http://www.inkscape.org/namespaces/inkscape"
   width="197.556mm"
   height="141.11111mm"
   viewBox="0 0 197.556 141.11111"
   version="1.1"
   id="svg1182"
   inkscape:version="0.92.5 (0.92.5+69)"
   sodipodi:docname="featured_img.svg">
  <defs
     id="defs1176">
    <filter
       inkscape:collect="always"
       style="color-interpolation-filters:sRGB"
       id="filter7329"
       x="-0.072201341"
       width="1.1444027"
       y="-0.76842856"
       height="2.5368571">
      <feGaussianBlur
         inkscape:collect="always"
         stdDeviation="0.84713911"
         id="feGaussianBlur7331" />
    </filter>
    <linearGradient
       inkscape:collect="always"
       xlink:href="#linearGradient4689"
       id="linearGradient6813"
       gradientUnits="userSpaceOnUse"
       gradientTransform="matrix(0.09427185,0,0,0.09518199,-26.10398,38.080197)"
       x1="26.648937"
       y1="20.603781"
       x2="135.66525"
       y2="114.39767" />
    <linearGradient
       id="linearGradient4689">
      <stop
         style="stop-color:#5a9fd4;stop-opacity:1;"
         offset="0"
         id="stop4691" />
      <stop
         style="stop-color:#306998;stop-opacity:1;"
         offset="1"
         id="stop4693" />
    </linearGradient>
    <linearGradient
       inkscape:collect="always"
       xlink:href="#linearGradient4671"
       id="linearGradient6815"
       gradientUnits="userSpaceOnUse"
       gradientTransform="matrix(0.09427185,0,0,0.09518199,-26.10398,38.080197)"
       x1="150.96111"
       y1="192.35176"
       x2="112.03144"
       y2="137.27299" />
    <linearGradient
       id="linearGradient4671">
      <stop
         style="stop-color:#ffd43b;stop-opacity:1;"
         offset="0"
         id="stop4673" />
      <stop
         style="stop-color:#ffe873;stop-opacity:1"
         offset="1"
         id="stop4675" />
    </linearGradient>
    <linearGradient
       inkscape:collect="always"
       xlink:href="#linearGradient4689"
       id="linearGradient1999"
       gradientUnits="userSpaceOnUse"
       gradientTransform="matrix(0.09427185,0,0,0.09518199,39.57827,38.080184)"
       x1="26.648937"
       y1="20.603781"
       x2="135.66525"
       y2="114.39767" />
    <linearGradient
       inkscape:collect="always"
       xlink:href="#linearGradient4671"
       id="linearGradient2001"
       gradientUnits="userSpaceOnUse"
       gradientTransform="matrix(0.09427185,0,0,0.09518199,39.57827,38.080184)"
       x1="150.96111"
       y1="192.35176"
       x2="112.03144"
       y2="137.27299" />
    <linearGradient
       inkscape:collect="always"
       xlink:href="#linearGradient4689"
       id="linearGradient2003"
       gradientUnits="userSpaceOnUse"
       gradientTransform="matrix(0.09427185,0,0,0.09518199,105.26041,38.080197)"
       x1="26.648937"
       y1="20.603781"
       x2="135.66525"
       y2="114.39767" />
    <linearGradient
       inkscape:collect="always"
       xlink:href="#linearGradient4671"
       id="linearGradient2005"
       gradientUnits="userSpaceOnUse"
       gradientTransform="matrix(0.09427185,0,0,0.09518199,105.26041,38.080197)"
       x1="150.96111"
       y1="192.35176"
       x2="112.03144"
       y2="137.27299" />
  </defs>
  <sodipodi:namedview
     id="base"
     pagecolor="#ffffff"
     bordercolor="#666666"
     borderopacity="1.0"
     inkscape:pageopacity="0.0"
     inkscape:pageshadow="2"
     inkscape:zoom="0.98994949"
     inkscape:cx="-74.854454"
     inkscape:cy="207.83018"
     inkscape:document-units="mm"
     inkscape:current-layer="layer1"
     showgrid="false"
     fit-margin-top="0"
     fit-margin-left="0"
     fit-margin-right="0"
     fit-margin-bottom="0"
     inkscape:window-width="2560"
     inkscape:window-height="993"
     inkscape:window-x="0"
     inkscape:window-y="384"
     inkscape:window-maximized="1" />
  <metadata
     id="metadata1179">
    <rdf:RDF>
      <cc:Work
         rdf:about="">
        <dc:format>image/svg+xml</dc:format>
        <dc:type
           rdf:resource="http://purl.org/dc/dcmitype/StillImage" />
        <dc:title></dc:title>
      </cc:Work>
    </rdf:RDF>
  </metadata>
  <g
     inkscape:label="Layer 1"
     inkscape:groupmode="layer"
     id="layer1"
     transform="translate(47.373238,27.555557)">
    <rect
       style="fill:none;stroke:none;stroke-width:2.56402016"
       id="rect13299"
       width="197.556"
       height="141.11111"
       x="-47.373238"
       y="-27.555557"
       inkscape:export-xdpi="64.290001"
       inkscape:export-ydpi="64.290001" />
    <path
       inkscape:connector-curvature="0"
       style="fill:#b3b3b3;stroke:#4d4d4d;stroke-width:0.32670501;stroke-miterlimit:4;stroke-dasharray:none"
       d="m 86.016304,46.327375 1.436753,0.0745 c 1.386252,0.07191 2.455835,1.258462 2.383943,2.644751 -0.07191,1.386252 -1.258462,2.455836 -2.644751,2.383943 l -1.436752,-0.0745 c -1.386252,-0.07191 -2.455836,-1.258462 -2.383943,-2.644751 0.07189,-1.386289 1.258462,-2.455835 2.64475,-2.383943 z m 1.250443,3.666441 c 0.594219,0.03083 1.102614,-0.427486 1.133463,-1.021667 0.03083,-0.59422 -0.427486,-1.102615 -1.021667,-1.133464 l -1.436752,-0.0745 c -0.594219,-0.03083 -1.102615,0.427486 -1.133464,1.021668 -0.03083,0.594219 0.427486,1.102614 1.021668,1.133463 z"
       id="path7013" />
    <path
       inkscape:connector-curvature="0"
       style="fill:#b3b3b3;stroke:#4d4d4d;stroke-width:0.32670501;stroke-miterlimit:4;stroke-dasharray:none"
       d="m 93.003645,52.521583 -0.963267,-1.068616 c -0.929412,-1.031068 -0.846657,-2.6264 0.184412,-3.555812 1.031068,-0.929412 2.6264,-0.846657 3.555812,0.184412 l 0.963267,1.068615 c 0.929412,1.031069 0.846657,2.626401 -0.184412,3.555813 -1.031053,0.929353 -2.6264,0.846656 -3.555812,-0.184412 z m 1.70832,-3.476786 c -0.398383,-0.441936 -1.081973,-0.47741 -1.523908,-0.07903 -0.441935,0.398383 -0.477409,1.081972 -0.07903,1.523908 l 0.963267,1.068615 c 0.398383,0.441935 1.081972,0.477409 1.523908,0.07903 0.441935,-0.398383 0.477431,-1.081935 0.07905,-1.52387 z"
       id="path7015" />
    <path
       id="path7017"
       d="m 77.738141,52.239206 1.068615,-0.963268 c 1.031069,-0.929412 2.6264,-0.846656 3.555812,0.184413 0.929412,1.031068 0.846657,2.6264 -0.184412,3.555812 l -1.068615,0.963267 c -1.031069,0.929412 -2.6264,0.846656 -3.555812,-0.184412 -0.929375,-1.031091 -0.846641,-2.626459 0.184412,-3.555812 z m 3.476786,1.708319 c 0.441935,-0.398383 0.477409,-1.081972 0.07903,-1.523908 -0.398383,-0.441935 -1.081973,-0.477409 -1.523908,-0.07903 l -1.068616,0.963268 c -0.441935,0.398383 -0.477409,1.081972 -0.07903,1.523908 0.398383,0.441935 1.081973,0.477409 1.523908,0.07903 z"
       style="fill:#b3b3b3;stroke:#4d4d4d;stroke-width:0.32670501;stroke-miterlimit:4;stroke-dasharray:none"
       inkscape:connector-curvature="0" />
    <path
       id="path7019"
       d="m 72.711103,50.959797 -0.963268,-1.068616 c -0.929412,-1.031069 -0.846656,-2.626399 0.184412,-3.555812 1.031069,-0.929412 2.626401,-0.846656 3.555813,0.184412 l 0.963267,1.068615 c 0.929412,1.031069 0.846656,2.626401 -0.184412,3.555812 -1.031069,0.929413 -2.6264,0.846657 -3.555812,-0.184411 z m 1.708341,-3.476749 c -0.398383,-0.441935 -1.081972,-0.477409 -1.523908,-0.07903 -0.441935,0.398384 -0.477409,1.081972 -0.07903,1.523907 l 0.963267,1.068617 c 0.398384,0.441935 1.081973,0.477408 1.523908,0.07903 0.441935,-0.398384 0.47741,-1.081972 0.07903,-1.523908 z"
       style="fill:#b3b3b3;stroke:#4d4d4d;stroke-width:0.32670501;stroke-miterlimit:4;stroke-dasharray:none"
       inkscape:connector-curvature="0" />
    <path
       inkscape:connector-curvature="0"
       style="fill:#000000;fill-opacity:0.29411765;stroke-width:0.04322035"
       d="m 89.837,49.046625 c 0.02771,-0.534179 -0.115388,-1.037813 -0.37948,-1.460313 l -0.982796,-0.05098 c -0.357556,-0.01854 -0.699,0.09844 -0.97519,0.321878 0.533258,0.08913 0.929314,0.562303 0.900692,1.114874 -0.02868,0.552556 -0.471587,0.982192 -1.011192,1.015704 0.25162,0.250835 0.579137,0.402505 0.936635,0.421033 l 0.982795,0.05098 c 0.306373,-0.39288 0.500824,-0.878996 0.528536,-1.413176 z"
       id="path7023" />
    <path
       inkscape:connector-curvature="0"
       style="fill:#000000;fill-opacity:0.29411765;stroke-width:0.04322035"
       d="m 93.109031,50.489679 c -0.398383,-0.441936 -0.362909,-1.125525 0.07903,-1.523908 0.441935,-0.398384 1.125525,-0.36291 1.523908,0.07903 l 0.149239,0.165565 C 94.856014,48.862266 94.73283,48.53074 94.49752,48.269689 94.24024,47.984243 93.887143,47.8161 93.503403,47.796204 l -1.085276,-0.05629 c -0.06624,0.04882 -0.130876,0.101014 -0.193278,0.157254 -0.768309,0.692567 -1.009205,1.75467 -0.697986,2.677773 l 1.74035,0.09026 z"
       id="path7025" />
    <path
       inkscape:connector-curvature="0"
       style="fill:#000000;fill-opacity:0.29411765;stroke-width:0.04322035"
       d="m 82.362568,51.460351 c -0.358138,-0.397298 -0.815393,-0.65223 -1.300939,-0.764266 l -0.730965,0.65888 c -0.273743,0.246779 -0.425238,0.576241 -0.46136,0.916748 0.440056,-0.313555 1.05435,-0.258934 1.424627,0.151867 0.370277,0.410801 0.361068,1.027424 0.0037,1.4327 0.342438,-7.26e-4 0.685825,-0.117283 0.959568,-0.364063 l 0.730965,-0.658879 c -0.06114,-0.494457 -0.267419,-0.97569 -0.625558,-1.372987 z"
       id="path7027" />
    <path
       inkscape:connector-curvature="0"
       style="fill:#000000;fill-opacity:0.29411765;stroke-width:0.04322035"
       d="m 84.808306,48.785817 c 0.02649,-0.510715 0.406551,-0.918842 0.889893,-1.004511 -0.517641,-0.269626 -1.168951,-0.210897 -1.627311,0.202258 l -0.688329,0.62044 c -0.0034,0.03585 -0.0091,0.07095 -0.01103,0.107277 -0.05545,1.069523 0.569823,2.017769 1.494467,2.429356 l 1.131386,-1.01982 c 0.06291,-0.05674 0.116452,-0.119685 0.166991,-0.184198 l -0.334403,-0.01734 c -0.59416,-0.03081 -1.052495,-0.539245 -1.021667,-1.133464 z"
       id="path7029" />
    <path
       inkscape:connector-curvature="0"
       style="fill:#000000;fill-opacity:0.29411765;stroke-width:0.04322035"
       d="m 75.455552,48.650945 c 0.313555,0.440055 0.258934,1.054349 -0.151867,1.424627 -0.410801,0.370276 -1.027423,0.361067 -1.432699,0.0037 7.26e-4,0.342439 0.117283,0.685825 0.364062,0.959569 l 0.658879,0.730964 c 0.494473,-0.0612 0.975668,-0.267457 1.373025,-0.625579 0.397298,-0.358138 0.652209,-0.81543 0.764265,-1.300939 l -0.658879,-0.730966 c -0.246817,-0.27372 -0.576316,-0.425193 -0.916786,-0.461337 z"
       id="path7031" />
    <path
       inkscape:connector-curvature="0"
       style="fill:#000000;fill-opacity:0.29411765;stroke-width:0.04322035"
       d="m 79.181868,55.158792 c -0.208762,-0.04781 -0.405517,-0.156243 -0.559486,-0.327063 -0.398384,-0.441935 -0.36291,-1.125525 0.07903,-1.523908 l 0.801467,-0.722441 -0.963267,-1.068615 -0.801467,0.722441 c -0.523058,0.47147 -0.800891,1.114323 -0.827514,1.767949 l 0.695784,0.771892 c 0.407407,0.451947 1.037573,0.581946 1.575457,0.379745 z"
       id="path7033" />
    <path
       inkscape:connector-curvature="0"
       style="fill:#b3b3b3;stroke:#4d4d4d;stroke-width:0.32670501;stroke-miterlimit:4;stroke-dasharray:none"
       d="m 74.822033,49.541275 v 0 c 0.29509,-0.265992 0.749942,-0.242387 1.015933,0.0527 l 3.3714,3.740224 c 0.265992,0.29509 0.242387,0.749943 -0.0527,1.015934 v 0 c -0.29509,0.265991 -0.749943,0.242386 -1.015934,-0.0527 l -3.3714,-3.740224 c -0.265991,-0.29509 -0.242386,-0.749943 0.0527,-1.015933 z"
       id="path7037" />
    <path
       inkscape:connector-curvature="0"
       style="fill:#b3b3b3;stroke:#4d4d4d;stroke-width:0.32670501;stroke-miterlimit:4;stroke-dasharray:none"
       d="m 85.568495,48.570603 v 0 c 0.265992,0.295089 0.242387,0.749942 -0.0527,1.015933 l -3.740224,3.3714 c -0.29509,0.265991 -0.749943,0.242386 -1.015934,-0.0527 v 0 c -0.265991,-0.29509 -0.242386,-0.749942 0.0527,-1.015933 l 3.740224,-3.3714 c 0.29509,-0.265991 0.749942,-0.242386 1.015934,0.0527 z"
       id="path7039" />
    <path
       inkscape:connector-curvature="0"
       style="fill:#b3b3b3;stroke:#4d4d4d;stroke-width:0.32670501;stroke-miterlimit:4;stroke-dasharray:none"
       d="m 94.147278,49.270157 v 0 c -0.02057,0.396754 -0.358901,0.701686 -0.755655,0.681119 l -5.028694,-0.260808 c -0.396754,-0.02057 -0.701686,-0.358901 -0.681119,-0.755654 v 0 c 0.02057,-0.396754 0.358901,-0.701686 0.755655,-0.681119 l 5.028694,0.260808 c 0.396738,0.02063 0.701707,0.358938 0.681119,0.755654 z"
       id="path7041" />
    <path
       id="path2513"
       d="m 20.33412,46.327375 1.436753,0.0745 c 1.386252,0.07191 2.455835,1.258462 2.383943,2.644751 -0.07191,1.386252 -1.258462,2.455836 -2.644751,2.383943 l -1.436752,-0.0745 c -1.386252,-0.07191 -2.455836,-1.258462 -2.383943,-2.644751 0.07189,-1.386289 1.258462,-2.455835 2.64475,-2.383943 z m 1.250443,3.666441 c 0.594219,0.03083 1.102614,-0.427486 1.133463,-1.021667 0.03083,-0.59422 -0.427486,-1.102615 -1.021667,-1.133464 l -1.436752,-0.0745 c -0.594219,-0.03083 -1.102615,0.427486 -1.133464,1.021668 -0.03083,0.594219 0.427486,1.102614 1.021668,1.133463 z"
       style="fill:#b3b3b3;stroke:#4d4d4d;stroke-width:0.32670501;stroke-miterlimit:4;stroke-dasharray:none"
       inkscape:connector-curvature="0" />
    <path
       id="path2515"
       d="m 27.321461,52.521583 -0.963267,-1.068616 c -0.929412,-1.031068 -0.846657,-2.6264 0.184412,-3.555812 1.031068,-0.929412 2.6264,-0.846657 3.555812,0.184412 l 0.963267,1.068615 c 0.929412,1.031069 0.846657,2.626401 -0.184412,3.555813 -1.031053,0.929353 -2.6264,0.846656 -3.555812,-0.184412 z m 1.70832,-3.476786 c -0.398383,-0.441936 -1.081973,-0.47741 -1.523908,-0.07903 -0.441935,0.398383 -0.477409,1.081972 -0.07903,1.523908 l 0.963267,1.068615 c 0.398383,0.441935 1.081972,0.477409 1.523908,0.07903 0.441935,-0.398383 0.477431,-1.081935 0.07905,-1.52387 z"
       style="fill:#b3b3b3;stroke:#4d4d4d;stroke-width:0.32670501;stroke-miterlimit:4;stroke-dasharray:none"
       inkscape:connector-curvature="0" />
    <path
       inkscape:connector-curvature="0"
       style="fill:#b3b3b3;stroke:#4d4d4d;stroke-width:0.32670501;stroke-miterlimit:4;stroke-dasharray:none"
       d="m 12.055957,52.239206 1.068615,-0.963268 c 1.031069,-0.929412 2.6264,-0.846656 3.555812,0.184413 0.929412,1.031068 0.846657,2.6264 -0.184412,3.555812 l -1.068615,0.963267 c -1.031069,0.929412 -2.6264,0.846656 -3.555812,-0.184412 -0.929375,-1.031091 -0.846641,-2.626459 0.184412,-3.555812 z m 3.476786,1.708319 c 0.441935,-0.398383 0.477409,-1.081972 0.07903,-1.523908 -0.398383,-0.441935 -1.081973,-0.477409 -1.523908,-0.07903 l -1.068616,0.963268 c -0.441935,0.398383 -0.477409,1.081972 -0.07903,1.523908 0.398383,0.441935 1.081973,0.477409 1.523908,0.07903 z"
       id="path2525" />
    <path
       inkscape:connector-curvature="0"
       style="fill:#b3b3b3;stroke:#4d4d4d;stroke-width:0.32670501;stroke-miterlimit:4;stroke-dasharray:none"
       d="M 7.0289188,50.959797 6.0656514,49.891181 C 5.1362393,48.860112 5.2189952,47.264782 6.2500635,46.335369 7.2811324,45.405957 8.876464,45.488713 9.8058759,46.519781 l 0.9632671,1.068615 c 0.929412,1.031069 0.846656,2.626401 -0.184412,3.555812 -1.0310687,0.929413 -2.6264002,0.846657 -3.5558122,-0.184411 z M 8.7372601,47.483048 C 8.3388769,47.041113 7.6552878,47.005639 7.2133522,47.404022 6.7714174,47.802406 6.7359426,48.485994 7.1343258,48.927929 l 0.9632675,1.068617 c 0.3983833,0.441935 1.0819724,0.477408 1.523908,0.07903 0.4419347,-0.398384 0.4774097,-1.081972 0.079026,-1.523908 z"
       id="path2533" />
    <path
       id="path2519"
       d="m 24.154816,49.046625 c 0.02771,-0.534179 -0.115388,-1.037813 -0.37948,-1.460313 l -0.982796,-0.05098 c -0.357556,-0.01854 -0.699,0.09844 -0.97519,0.321878 0.533258,0.08913 0.929314,0.562303 0.900692,1.114874 -0.02868,0.552556 -0.471587,0.982192 -1.011192,1.015704 0.25162,0.250835 0.579137,0.402505 0.936635,0.421033 l 0.982795,0.05098 c 0.306373,-0.39288 0.500824,-0.878996 0.528536,-1.413176 z"
       style="fill:#000000;fill-opacity:0.29411765;stroke-width:0.04322035"
       inkscape:connector-curvature="0" />
    <path
       id="path2521"
       d="m 27.426847,50.489679 c -0.398383,-0.441936 -0.362909,-1.125525 0.07903,-1.523908 0.441935,-0.398384 1.125525,-0.36291 1.523908,0.07903 l 0.149239,0.165565 c -0.0052,-0.3481 -0.128378,-0.679626 -0.363688,-0.940677 -0.25728,-0.285446 -0.610377,-0.453589 -0.994117,-0.473485 l -1.085276,-0.05629 c -0.06624,0.04882 -0.130876,0.101014 -0.193278,0.157254 -0.768309,0.692567 -1.009205,1.75467 -0.697986,2.677773 l 1.74035,0.09026 z"
       style="fill:#000000;fill-opacity:0.29411765;stroke-width:0.04322035"
       inkscape:connector-curvature="0" />
    <path
       id="path2527"
       d="m 16.680384,51.460351 c -0.358138,-0.397298 -0.815393,-0.65223 -1.300939,-0.764266 l -0.730965,0.65888 c -0.273743,0.246779 -0.425238,0.576241 -0.46136,0.916748 0.440056,-0.313555 1.05435,-0.258934 1.424627,0.151867 0.370277,0.410801 0.361068,1.027424 0.0037,1.4327 0.342438,-7.26e-4 0.685825,-0.117283 0.959568,-0.364063 l 0.730965,-0.658879 c -0.06115,-0.494457 -0.267419,-0.97569 -0.625558,-1.372987 z"
       style="fill:#000000;fill-opacity:0.29411765;stroke-width:0.04322035"
       inkscape:connector-curvature="0" />
    <path
       id="path2529"
       d="m 19.126122,48.785817 c 0.02649,-0.510715 0.406551,-0.918842 0.889893,-1.004511 -0.517641,-0.269626 -1.168951,-0.210897 -1.627311,0.202258 l -0.688329,0.62044 c -0.0034,0.03585 -0.0091,0.07095 -0.01103,0.107277 -0.05545,1.069523 0.569823,2.017769 1.494467,2.429356 l 1.131386,-1.01982 c 0.06291,-0.05674 0.116452,-0.119685 0.166991,-0.184198 l -0.334403,-0.01734 c -0.59416,-0.03081 -1.052495,-0.539245 -1.021667,-1.133464 z"
       style="fill:#000000;fill-opacity:0.29411765;stroke-width:0.04322035"
       inkscape:connector-curvature="0" />
    <path
       id="path2535"
       d="m 9.7733684,48.650945 c 0.3135546,0.440055 0.2589336,1.054349 -0.1518671,1.424627 -0.4108015,0.370276 -1.0274237,0.361067 -1.4326997,0.0037 7.261e-4,0.342439 0.117283,0.685825 0.3640627,0.959569 l 0.6588788,0.730964 c 0.4944724,-0.0612 0.9756679,-0.267457 1.3730249,-0.625579 0.397298,-0.358138 0.652209,-0.81543 0.764265,-1.300939 l -0.658879,-0.730966 c -0.246817,-0.27372 -0.576316,-0.425193 -0.9167856,-0.461337 z"
       style="fill:#000000;fill-opacity:0.29411765;stroke-width:0.04322035"
       inkscape:connector-curvature="0" />
    <path
       id="path2537"
       d="m 13.499684,55.158792 c -0.208762,-0.04781 -0.405517,-0.156243 -0.559486,-0.327063 -0.398384,-0.441935 -0.36291,-1.125525 0.07903,-1.523908 l 0.801467,-0.722441 -0.963267,-1.068615 -0.801467,0.722441 c -0.523058,0.47147 -0.800891,1.114323 -0.827514,1.767949 l 0.695784,0.771892 c 0.407407,0.451947 1.037573,0.581946 1.575457,0.379745 z"
       style="fill:#000000;fill-opacity:0.29411765;stroke-width:0.04322035"
       inkscape:connector-curvature="0" />
    <path
       id="path2541"
       d="m 9.1398488,49.541275 v 0 c 0.2950901,-0.265992 0.7499419,-0.242387 1.0159332,0.0527 l 3.3714,3.740224 c 0.265992,0.29509 0.242387,0.749943 -0.0527,1.015934 v 0 c -0.29509,0.265991 -0.749943,0.242386 -1.015934,-0.0527 L 9.0871454,50.557208 c -0.2659917,-0.29509 -0.2423866,-0.749943 0.052703,-1.015933 z"
       style="fill:#b3b3b3;stroke:#4d4d4d;stroke-width:0.32670501;stroke-miterlimit:4;stroke-dasharray:none"
       inkscape:connector-curvature="0" />
    <path
       id="path2543"
       d="m 19.886311,48.570603 v 0 c 0.265992,0.295089 0.242387,0.749942 -0.0527,1.015933 l -3.740224,3.3714 c -0.29509,0.265991 -0.749943,0.242386 -1.015934,-0.0527 v 0 c -0.265991,-0.29509 -0.242386,-0.749942 0.0527,-1.015933 l 3.740224,-3.3714 c 0.29509,-0.265991 0.749942,-0.242386 1.015933,0.0527 z"
       style="fill:#b3b3b3;stroke:#4d4d4d;stroke-width:0.32670501;stroke-miterlimit:4;stroke-dasharray:none"
       inkscape:connector-curvature="0" />
    <path
       id="path2545"
       d="m 28.465094,49.270157 v 0 c -0.02057,0.396754 -0.358901,0.701686 -0.755655,0.681119 l -5.028694,-0.260808 c -0.396754,-0.02057 -0.701686,-0.358901 -0.681119,-0.755654 v 0 c 0.02057,-0.396754 0.358901,-0.701686 0.755655,-0.681119 l 5.028694,0.260808 c 0.396738,0.02063 0.701707,0.358938 0.681119,0.755654 z"
       style="fill:#b3b3b3;stroke:#4d4d4d;stroke-width:0.32670501;stroke-miterlimit:4;stroke-dasharray:none"
       inkscape:connector-curvature="0" />
    <path
       inkscape:connector-curvature="0"
       id="path3796"
       d="M 28.564348,68.81748 39.789983,59.302938"
       style="fill:#4d4d4d;fill-opacity:1;fill-rule:evenodd;stroke:#1a1a1a;stroke-width:0.35702723;stroke-linecap:butt;stroke-linejoin:miter;stroke-miterlimit:4;stroke-dasharray:none;stroke-opacity:1" />
    <path
       inkscape:connector-curvature="0"
       id="path3798"
       d="M 74.245249,68.81748 62.629525,58.972296"
       style="fill:#4d4d4d;fill-opacity:1;fill-rule:evenodd;stroke:#1a1a1a;stroke-width:0.35702723;stroke-linecap:butt;stroke-linejoin:miter;stroke-miterlimit:4;stroke-dasharray:none;stroke-opacity:1" />
    <path
       inkscape:connector-curvature="0"
       id="path3800"
       d="M 74.245249,30.099523 63.202273,39.45925"
       style="fill:#4d4d4d;fill-opacity:1;fill-rule:evenodd;stroke:#1a1a1a;stroke-width:0.35702723;stroke-linecap:butt;stroke-linejoin:miter;stroke-miterlimit:4;stroke-dasharray:none;stroke-opacity:1" />
    <path
       inkscape:connector-curvature="0"
       id="path3802"
       d="m 28.564348,30.099523 9.249757,7.839853"
       style="fill:#4d4d4d;fill-opacity:1;fill-rule:evenodd;stroke:#1a1a1a;stroke-width:0.35702723;stroke-linecap:butt;stroke-linejoin:miter;stroke-miterlimit:4;stroke-dasharray:none;stroke-opacity:1" />
    <rect
       y="36.212391"
       x="35.496845"
       height="26.492199"
       width="31.816013"
       id="rect3806"
       style="opacity:1;fill:#ffffff;fill-opacity:1;stroke:#4d4d4d;stroke-width:0.36975607;stroke-linecap:round;stroke-linejoin:round;stroke-miterlimit:4;stroke-dasharray:none;stroke-dashoffset:10.79999924;stroke-opacity:1" />
    <path
       id="path3808"
       d="m 51.293928,40.04145 c -0.768145,0.0036 -1.501704,0.0691 -2.147148,0.183292 -1.90144,0.335916 -2.24666,1.039027 -2.24666,2.335676 V 44.2729 h 4.493298 v 0.570823 H 46.90012 45.213824 c -1.30588,0 -2.449343,0.784911 -2.807001,2.278075 -0.412553,1.711508 -0.430854,2.779521 0,4.56661 0.319398,1.330247 1.082167,2.278068 2.388047,2.278075 h 1.544909 v -2.052887 c 0,-1.483082 1.283193,-2.791289 2.807001,-2.791289 h 4.488054 c 1.249326,0 2.246652,-1.028648 2.246652,-2.283305 v -4.278584 c 0,-1.217707 -1.02728,-2.132447 -2.246652,-2.335676 -0.771884,-0.128491 -1.572776,-0.186863 -2.340906,-0.183292 z m -2.429944,1.377315 c 0.464117,0 0.843137,0.385211 0.843137,0.858856 0,0.471965 -0.37902,0.853619 -0.843137,0.853619 -0.465797,0 -0.843152,-0.381654 -0.843152,-0.853619 0,-0.473645 0.377355,-0.858856 0.843152,-0.858856 z"
       style="fill:url(#linearGradient1999);fill-opacity:1;stroke-width:0.16758218"
       inkscape:connector-curvature="0" />
    <path
       id="path3810"
       d="m 56.441835,44.843723 v 1.995279 c 0,1.54691 -1.31148,2.848897 -2.807001,2.848897 H 49.14678 c -1.229366,0 -2.24666,1.052157 -2.24666,2.283306 v 4.278583 c 0,1.217707 1.058885,1.933954 2.24666,2.283305 1.422318,0.41822 2.786257,0.493801 4.488054,0 1.131214,-0.327522 2.246652,-0.986656 2.246652,-2.283305 v -1.712482 h -4.488068 v -0.570823 h 4.488068 2.246646 c 1.305879,0 1.792508,-0.910878 2.246638,-2.278075 0.469128,-1.407501 0.449169,-2.761045 0,-4.56661 -0.322715,-1.300009 -0.939101,-2.278075 -2.246638,-2.278075 z M 53.91763,55.678958 c 0.46579,0 0.843152,0.381654 0.843152,0.853627 0,0.473645 -0.377362,0.858856 -0.843152,0.858856 -0.464124,0 -0.843145,-0.385211 -0.843145,-0.858856 0,-0.471973 0.379021,-0.853627 0.843145,-0.853627 z"
       style="fill:url(#linearGradient2001);fill-opacity:1;stroke-width:0.16758218"
       inkscape:connector-curvature="0" />
    <rect
       y="17.239985"
       x="43.235561"
       height="12.551545"
       width="16.33847"
       id="rect3944"
       style="opacity:1;fill:#ececec;fill-opacity:1;stroke:#4d4d4d;stroke-width:1.34914958;stroke-linecap:round;stroke-linejoin:round;stroke-miterlimit:4;stroke-dasharray:none;stroke-opacity:1" />
    <text
       id="text3954"
       y="26.881687"
       x="48.418114"
       style="font-style:normal;font-variant:normal;font-weight:bold;font-stretch:normal;font-size:9.24675274px;line-height:1.25;font-family:'DejaVu Sans Mono';-inkscape-font-specification:'DejaVu Sans Mono Bold';letter-spacing:0px;word-spacing:0px;fill:#666666;fill-opacity:1;stroke:none;stroke-width:0.23116884"
       xml:space="preserve"><tspan
         style="font-style:normal;font-variant:normal;font-weight:bold;font-stretch:normal;font-family:'DejaVu Sans Mono';-inkscape-font-specification:'DejaVu Sans Mono Bold';letter-spacing:0px;fill:#666666;stroke-width:0.23116884"
         y="26.881687"
         x="48.418114"
         sodipodi:role="line"
         id="tspan3956">1</tspan></text>
    <path
       inkscape:connector-curvature="0"
       id="path4033"
       d="m 28.566732,38.973411 8.858052,-8.858052 h 1.144922 l -10.002974,10.00297 z"
       style="fill:#000000;fill-opacity:0.05882353;stroke:none;stroke-width:0.11930645px;stroke-linecap:butt;stroke-linejoin:miter;stroke-opacity:1" />
    <path
       inkscape:connector-curvature="0"
       id="path4035"
       d="M 39.172287,30.115359 28.626993,40.660658 v 5.302778 L 44.203905,30.386524 Z"
       style="fill:#000000;fill-opacity:0.05882353;stroke:none;stroke-width:0.11930645px;stroke-linecap:butt;stroke-linejoin:miter;stroke-opacity:1" />
    <path
       inkscape:connector-curvature="0"
       id="path4037"
       d="m 49.235527,29.994841 h 2.470606 L 28.295574,53.405408 V 51.02518 L 48.969948,30.350806 Z"
       style="fill:#000000;fill-opacity:0.05882353;stroke:none;stroke-width:0.11930645px;stroke-linecap:butt;stroke-linejoin:miter;stroke-opacity:1" />
    <path
       inkscape:connector-curvature="0"
       id="path4039"
       d="M 28.446223,60.485821 58.816682,30.115359 h 1.566729 l -31.696157,31.69616 z"
       style="fill:#000000;fill-opacity:0.05882353;stroke:none;stroke-width:0.11930645px;stroke-linecap:butt;stroke-linejoin:miter;stroke-opacity:1" />
    <path
       inkscape:connector-curvature="0"
       id="path4041"
       d="m 28.687254,63.860319 v 1.506472 L 63.908561,30.145487 H 61.889883 L 28.943346,63.09202 Z"
       style="fill:#000000;fill-opacity:0.05882353;stroke:none;stroke-width:0.11930645px;stroke-linecap:butt;stroke-linejoin:miter;stroke-opacity:1" />
    <path
       inkscape:connector-curvature="0"
       id="path4043"
       d="M 28.626993,67.777145 66.228524,30.175617 h 7.110544 L 34.713137,68.801545 h -6.086144 z"
       style="fill:#000000;fill-opacity:0.05882353;stroke:none;stroke-width:0.11930645px;stroke-linecap:butt;stroke-linejoin:miter;stroke-opacity:1" />
    <path
       inkscape:connector-curvature="0"
       id="path4045"
       d="m 45.198183,68.741288 28.98451,-28.984512 v 1.928283 l -27.20688,27.206873 z"
       style="fill:#000000;fill-opacity:0.05882353;stroke:none;stroke-width:0.11930645px;stroke-linecap:butt;stroke-linejoin:miter;stroke-opacity:1" />
    <path
       inkscape:connector-curvature="0"
       id="path4047"
       d="M 48.331636,68.681027 74.303207,42.70946 v 1.807765 3.856569 L 53.99597,68.681027 Z"
       style="fill:#000000;fill-opacity:0.05882353;stroke:none;stroke-width:0.11930645px;stroke-linecap:butt;stroke-linejoin:miter;stroke-opacity:1" />
    <path
       inkscape:connector-curvature="0"
       id="path4049"
       d="M 63.577125,68.681027 74.062171,58.195985 v 1.265436 l -9.340119,9.340124 z"
       style="fill:#000000;fill-opacity:0.05882353;stroke:none;stroke-width:0.11930645px;stroke-linecap:butt;stroke-linejoin:miter;stroke-opacity:1" />
    <path
       inkscape:connector-curvature="0"
       id="path4051"
       d="m 66.047749,68.801545 8.225332,-8.225336 v 4.730321 l -3.781252,3.781242 z"
       style="fill:#000000;fill-opacity:0.05882353;stroke:none;stroke-width:0.11930645px;stroke-linecap:butt;stroke-linejoin:miter;stroke-opacity:1" />
    <rect
       y="30.099531"
       x="28.564318"
       height="38.717968"
       width="45.680889"
       id="rect4055"
       style="opacity:1;fill:#f2f2f2;fill-opacity:0.50970878;stroke:#4d4d4d;stroke-width:1.23417354;stroke-linecap:round;stroke-linejoin:round;stroke-miterlimit:4;stroke-dasharray:none;stroke-dashoffset:10.79999924;stroke-opacity:1" />
    <path
       style="fill:#4d4d4d;fill-opacity:1;fill-rule:evenodd;stroke:#1a1a1a;stroke-width:0.35702723;stroke-linecap:butt;stroke-linejoin:miter;stroke-miterlimit:4;stroke-dasharray:none;stroke-opacity:1"
       d="m 94.24649,68.817495 11.22563,-9.514541"
       id="path3854"
       inkscape:connector-curvature="0" />
    <path
       style="fill:#4d4d4d;fill-opacity:1;fill-rule:evenodd;stroke:#1a1a1a;stroke-width:0.35702723;stroke-linecap:butt;stroke-linejoin:miter;stroke-miterlimit:4;stroke-dasharray:none;stroke-opacity:1"
       d="M 139.92739,68.817495 128.31168,58.972313"
       id="path3856"
       inkscape:connector-curvature="0" />
    <path
       style="fill:#4d4d4d;fill-opacity:1;fill-rule:evenodd;stroke:#1a1a1a;stroke-width:0.35702723;stroke-linecap:butt;stroke-linejoin:miter;stroke-miterlimit:4;stroke-dasharray:none;stroke-opacity:1"
       d="m 139.92739,30.099535 -11.04298,9.359728"
       id="path3858"
       inkscape:connector-curvature="0" />
    <path
       style="fill:#4d4d4d;fill-opacity:1;fill-rule:evenodd;stroke:#1a1a1a;stroke-width:0.35702723;stroke-linecap:butt;stroke-linejoin:miter;stroke-miterlimit:4;stroke-dasharray:none;stroke-opacity:1"
       d="m 94.24649,30.099535 9.24977,7.839854"
       id="path3860"
       inkscape:connector-curvature="0" />
    <rect
       style="opacity:1;fill:#ffffff;fill-opacity:1;stroke:#4d4d4d;stroke-width:0.36975607;stroke-linecap:round;stroke-linejoin:round;stroke-miterlimit:4;stroke-dasharray:none;stroke-dashoffset:10.79999924;stroke-opacity:1"
       id="rect3864"
       width="31.816013"
       height="26.492199"
       x="101.17895"
       y="36.212399" />
    <path
       inkscape:connector-curvature="0"
       style="fill:url(#linearGradient2003);fill-opacity:1;stroke-width:0.16758218"
       d="m 116.97607,40.041463 c -0.76815,0.0036 -1.50171,0.0691 -2.14715,0.183292 -1.90144,0.335916 -2.24666,1.039027 -2.24666,2.335676 v 1.712482 h 4.4933 v 0.570823 h -4.4933 -1.6863 c -1.30588,0 -2.44934,0.784911 -2.807,2.278075 -0.41255,1.711508 -0.43085,2.779521 0,4.56661 0.3194,1.330247 1.08217,2.278068 2.38805,2.278075 h 1.54491 v -2.052887 c 0,-1.483082 1.28319,-2.791289 2.807,-2.791289 h 4.48805 c 1.24933,0 2.24666,-1.028648 2.24666,-2.283305 v -4.278584 c 0,-1.217707 -1.02728,-2.132447 -2.24666,-2.335676 -0.77188,-0.128491 -1.57277,-0.186863 -2.3409,-0.183292 z m -2.42995,1.377315 c 0.46412,0 0.84314,0.385211 0.84314,0.858856 0,0.471965 -0.37902,0.853619 -0.84314,0.853619 -0.46579,0 -0.84315,-0.381654 -0.84315,-0.853619 0,-0.473645 0.37736,-0.858856 0.84315,-0.858856 z"
       id="path3866" />
    <path
       inkscape:connector-curvature="0"
       style="fill:url(#linearGradient2005);fill-opacity:1;stroke-width:0.16758218"
       d="m 122.12397,44.843736 v 1.995279 c 0,1.54691 -1.31148,2.848897 -2.807,2.848897 h -4.48805 c -1.22937,0 -2.24666,1.052157 -2.24666,2.283306 v 4.278583 c 0,1.217707 1.05888,1.933954 2.24666,2.283305 1.42232,0.41822 2.78626,0.493801 4.48805,0 1.13122,-0.327522 2.24666,-0.986656 2.24666,-2.283305 v -1.712482 h -4.48807 v -0.570823 h 4.48807 2.24664 c 1.30588,0 1.79251,-0.910878 2.24664,-2.278075 0.46913,-1.407501 0.44917,-2.761045 0,-4.56661 -0.32272,-1.300009 -0.9391,-2.278075 -2.24664,-2.278075 z m -2.5242,10.835235 c 0.46579,0 0.84315,0.381654 0.84315,0.853627 0,0.473645 -0.37736,0.858856 -0.84315,0.858856 -0.46412,0 -0.84314,-0.385211 -0.84314,-0.858856 0,-0.471973 0.37902,-0.853627 0.84314,-0.853627 z"
       id="path3868" />
    <rect
       style="opacity:1;fill:#ececec;fill-opacity:1;stroke:#4d4d4d;stroke-width:1.34914958;stroke-linecap:round;stroke-linejoin:round;stroke-miterlimit:4;stroke-dasharray:none;stroke-opacity:1"
       id="rect3946"
       width="16.33847"
       height="12.551545"
       x="108.91774"
       y="17.239998" />
    <text
       xml:space="preserve"
       style="font-style:normal;font-variant:normal;font-weight:bold;font-stretch:normal;font-size:9.24675274px;line-height:1.25;font-family:'DejaVu Sans Mono';-inkscape-font-specification:'DejaVu Sans Mono Bold';letter-spacing:0px;word-spacing:0px;fill:#666666;fill-opacity:1;stroke:none;stroke-width:0.23116884"
       x="114.42761"
       y="26.881693"
       id="text3962"><tspan
         id="tspan3960"
         sodipodi:role="line"
         x="114.42761"
         y="26.881693"
         style="font-style:normal;font-variant:normal;font-weight:bold;font-stretch:normal;font-family:'DejaVu Sans Mono';-inkscape-font-specification:'DejaVu Sans Mono Bold';letter-spacing:0px;fill:#666666;stroke-width:0.23116884">2</tspan></text>
    <path
       style="fill:#000000;fill-opacity:0.05882353;stroke:none;stroke-width:0.11930645px;stroke-linecap:butt;stroke-linejoin:miter;stroke-opacity:1"
       d="m 94.248872,38.973424 8.858048,-8.858052 h 1.14493 l -10.002978,10.00297 z"
       id="path4059"
       inkscape:connector-curvature="0" />
    <path
       style="fill:#000000;fill-opacity:0.05882353;stroke:none;stroke-width:0.11930645px;stroke-linecap:butt;stroke-linejoin:miter;stroke-opacity:1"
       d="m 104.85443,30.115372 -10.545297,10.5453 v 5.302777 L 109.88604,30.386537 Z"
       id="path4061"
       inkscape:connector-curvature="0" />
    <path
       style="fill:#000000;fill-opacity:0.05882353;stroke:none;stroke-width:0.11930645px;stroke-linecap:butt;stroke-linejoin:miter;stroke-opacity:1"
       d="m 114.91767,29.994854 h 2.4706 L 93.977714,53.405421 V 51.025193 L 114.65209,30.350819 Z"
       id="path4063"
       inkscape:connector-curvature="0" />
    <path
       style="fill:#000000;fill-opacity:0.05882353;stroke:none;stroke-width:0.11930645px;stroke-linecap:butt;stroke-linejoin:miter;stroke-opacity:1"
       d="M 94.128363,60.485835 124.49882,30.115372 h 1.56673 l -31.696156,31.69616 z"
       id="path4065"
       inkscape:connector-curvature="0" />
    <path
       style="fill:#000000;fill-opacity:0.05882353;stroke:none;stroke-width:0.11930645px;stroke-linecap:butt;stroke-linejoin:miter;stroke-opacity:1"
       d="m 94.369394,63.860332 v 1.506472 L 129.5907,30.145501 h -2.01868 L 94.625486,63.092033 Z"
       id="path4067"
       inkscape:connector-curvature="0" />
    <path
       style="fill:#000000;fill-opacity:0.05882353;stroke:none;stroke-width:0.11930645px;stroke-linecap:butt;stroke-linejoin:miter;stroke-opacity:1"
       d="M 94.309133,67.777158 131.91066,30.17563 h 7.11055 l -38.62593,38.625928 h -6.086147 z"
       id="path4069"
       inkscape:connector-curvature="0" />
    <path
       style="fill:#000000;fill-opacity:0.05882353;stroke:none;stroke-width:0.11930645px;stroke-linecap:butt;stroke-linejoin:miter;stroke-opacity:1"
       d="m 110.88032,68.741302 28.98451,-28.984513 v 1.928283 l -27.20688,27.206874 z"
       id="path4071"
       inkscape:connector-curvature="0" />
    <path
       style="fill:#000000;fill-opacity:0.05882353;stroke:none;stroke-width:0.11930645px;stroke-linecap:butt;stroke-linejoin:miter;stroke-opacity:1"
       d="m 114.01378,68.68104 25.97157,-25.971567 v 1.807766 3.856569 L 119.67811,68.68104 Z"
       id="path4073"
       inkscape:connector-curvature="0" />
    <path
       style="fill:#000000;fill-opacity:0.05882353;stroke:none;stroke-width:0.11930645px;stroke-linecap:butt;stroke-linejoin:miter;stroke-opacity:1"
       d="m 129.25926,68.68104 10.48505,-10.485041 v 1.265436 l -9.34012,9.340123 z"
       id="path4075"
       inkscape:connector-curvature="0" />
    <path
       style="fill:#000000;fill-opacity:0.05882353;stroke:none;stroke-width:0.11930645px;stroke-linecap:butt;stroke-linejoin:miter;stroke-opacity:1"
       d="m 131.72989,68.801558 8.22533,-8.225336 v 4.730321 l -3.78125,3.781243 z"
       id="path4077"
       inkscape:connector-curvature="0" />
    <rect
       style="opacity:1;fill:#f2f2f2;fill-opacity:0.50970878;stroke:#4d4d4d;stroke-width:1.23417354;stroke-linecap:round;stroke-linejoin:round;stroke-miterlimit:4;stroke-dasharray:none;stroke-dashoffset:10.79999924;stroke-opacity:1"
       id="rect4081"
       width="45.680889"
       height="38.717968"
       x="94.246506"
       y="30.09952" />
    <path
       style="fill:#4d4d4d;fill-opacity:1;fill-rule:evenodd;stroke:#1a1a1a;stroke-width:0.35702723;stroke-linecap:butt;stroke-linejoin:miter;stroke-miterlimit:4;stroke-dasharray:none;stroke-opacity:1"
       d="m -37.117883,68.817495 11.225618,-9.514541"
       id="path4502"
       inkscape:connector-curvature="0" />
    <path
       style="fill:#4d4d4d;fill-opacity:1;fill-rule:evenodd;stroke:#1a1a1a;stroke-width:0.35702723;stroke-linecap:butt;stroke-linejoin:miter;stroke-miterlimit:4;stroke-dasharray:none;stroke-opacity:1"
       d="M 8.563013,68.817495 -3.0527006,58.972313"
       id="path4504"
       inkscape:connector-curvature="0" />
    <path
       style="fill:#4d4d4d;fill-opacity:1;fill-rule:evenodd;stroke:#1a1a1a;stroke-width:0.35702723;stroke-linecap:butt;stroke-linejoin:miter;stroke-miterlimit:4;stroke-dasharray:none;stroke-opacity:1"
       d="M 8.563013,30.099535 -2.4799644,39.459263"
       id="path4506"
       inkscape:connector-curvature="0" />
    <path
       style="fill:#4d4d4d;fill-opacity:1;fill-rule:evenodd;stroke:#1a1a1a;stroke-width:0.35702723;stroke-linecap:butt;stroke-linejoin:miter;stroke-miterlimit:4;stroke-dasharray:none;stroke-opacity:1"
       d="m -37.117883,30.099535 9.249759,7.839854"
       id="path4508"
       inkscape:connector-curvature="0" />
    <rect
       style="opacity:1;fill:#ffffff;fill-opacity:1;stroke:#4d4d4d;stroke-width:0.36975607;stroke-linecap:round;stroke-linejoin:round;stroke-miterlimit:4;stroke-dasharray:none;stroke-dashoffset:10.79999924;stroke-opacity:1"
       id="rect4162"
       width="31.816013"
       height="26.492199"
       x="-30.185423"
       y="36.212399" />
    <path
       inkscape:connector-curvature="0"
       style="fill:url(#linearGradient6813);fill-opacity:1;stroke-width:0.16758218"
       d="m -14.388322,40.041463 c -0.768145,0.0036 -1.501704,0.0691 -2.147148,0.183292 -1.90144,0.335916 -2.24666,1.039027 -2.24666,2.335676 v 1.712482 h 4.493298 v 0.570823 h -4.493298 -1.686296 c -1.30588,0 -2.449343,0.784911 -2.807001,2.278075 -0.412553,1.711508 -0.430854,2.779521 0,4.56661 0.319398,1.330247 1.082167,2.278068 2.388047,2.278075 h 1.544909 v -2.052887 c 0,-1.483082 1.283193,-2.791289 2.807001,-2.791289 h 4.488054 c 1.249326,0 2.2466524,-1.028648 2.2466524,-2.283305 v -4.278584 c 0,-1.217707 -1.0272804,-2.132447 -2.2466524,-2.335676 -0.771884,-0.128491 -1.572776,-0.186863 -2.340906,-0.183292 z m -2.429944,1.377315 c 0.464117,0 0.843137,0.385211 0.843137,0.858856 0,0.471965 -0.37902,0.853619 -0.843137,0.853619 -0.465797,0 -0.843152,-0.381654 -0.843152,-0.853619 0,-0.473645 0.377355,-0.858856 0.843152,-0.858856 z"
       id="path1948" />
    <path
       inkscape:connector-curvature="0"
       style="fill:url(#linearGradient6815);fill-opacity:1;stroke-width:0.16758218"
       d="m -9.2404152,44.843736 v 1.995279 c 0,1.54691 -1.3114798,2.848897 -2.8070008,2.848897 h -4.488054 c -1.229366,0 -2.24666,1.052157 -2.24666,2.283306 v 4.278583 c 0,1.217707 1.058885,1.933954 2.24666,2.283305 1.422318,0.41822 2.786257,0.493801 4.488054,0 1.131214,-0.327522 2.2466524,-0.986656 2.2466524,-2.283305 v -1.712482 h -4.4880684 v -0.570823 h 4.4880684 2.2466453 c 1.3058794,0 1.7925083,-0.910878 2.246638,-2.278075 0.4691282,-1.407501 0.449169,-2.761045 0,-4.56661 -0.3227148,-1.300009 -0.9391002,-2.278075 -2.246638,-2.278075 z M -11.76462,55.678971 c 0.46579,0 0.843152,0.381654 0.843152,0.853627 0,0.473645 -0.377362,0.858856 -0.843152,0.858856 -0.464124,0 -0.843145,-0.385211 -0.843145,-0.858856 0,-0.471973 0.379021,-0.853627 0.843145,-0.853627 z"
       id="path1950" />
    <rect
       style="opacity:1;fill:#ececec;fill-opacity:1;stroke:#4d4d4d;stroke-width:1.34914958;stroke-linecap:round;stroke-linejoin:round;stroke-miterlimit:4;stroke-dasharray:none;stroke-opacity:1"
       id="rect3782"
       width="16.33847"
       height="12.551545"
       x="-22.44665"
       y="17.23999" />
    <text
       xml:space="preserve"
       style="font-style:normal;font-variant:normal;font-weight:bold;font-stretch:normal;font-size:9.24675179px;line-height:1.25;font-family:'DejaVu Sans Mono';-inkscape-font-specification:'DejaVu Sans Mono Bold';letter-spacing:0px;word-spacing:0px;fill:#666666;fill-opacity:1;stroke:none;stroke-width:0.23116882"
       x="-17.06081"
       y="26.881689"
       id="text3950"><tspan
         sodipodi:role="line"
         id="tspan3948"
         x="-17.06081"
         y="26.881689"
         style="font-style:normal;font-variant:normal;font-weight:bold;font-stretch:normal;font-family:'DejaVu Sans Mono';-inkscape-font-specification:'DejaVu Sans Mono Bold';letter-spacing:0px;fill:#666666;stroke-width:0.23116882">0</tspan></text>
    <path
       style="fill:#000000;fill-opacity:0.05882353;stroke:none;stroke-width:0.11930645px;stroke-linecap:butt;stroke-linejoin:miter;stroke-opacity:1"
       d="m -37.115518,38.973424 8.858052,-8.858052 h 1.144922 l -10.002974,10.00297 z"
       id="path3987"
       inkscape:connector-curvature="0" />
    <path
       style="fill:#000000;fill-opacity:0.05882353;stroke:none;stroke-width:0.11930645px;stroke-linecap:butt;stroke-linejoin:miter;stroke-opacity:1"
       d="m -26.509963,30.115372 -10.545294,10.5453 v 5.302777 l 15.576912,-15.576912 z"
       id="path3989"
       inkscape:connector-curvature="0" />
    <path
       style="fill:#000000;fill-opacity:0.05882353;stroke:none;stroke-width:0.11930645px;stroke-linecap:butt;stroke-linejoin:miter;stroke-opacity:1"
       d="m -16.446723,29.994854 h 2.470606 l -23.410559,23.410567 v -2.380228 l 20.674374,-20.674374 z"
       id="path3991"
       inkscape:connector-curvature="0" />
    <path
       style="fill:#000000;fill-opacity:0.05882353;stroke:none;stroke-width:0.11930645px;stroke-linecap:butt;stroke-linejoin:miter;stroke-opacity:1"
       d="M -37.236027,60.485835 -6.8655678,30.115372 h 1.5667286 l -31.6961568,31.69616 z"
       id="path3993"
       inkscape:connector-curvature="0" />
    <path
       style="fill:#000000;fill-opacity:0.05882353;stroke:none;stroke-width:0.11930645px;stroke-linecap:butt;stroke-linejoin:miter;stroke-opacity:1"
       d="m -36.994996,63.860332 v 1.506472 L -1.7736887,30.145501 H -3.7923674 L -36.738904,63.092033 Z"
       id="path3995"
       inkscape:connector-curvature="0" />
    <path
       style="fill:#000000;fill-opacity:0.05882353;stroke:none;stroke-width:0.11930645px;stroke-linecap:butt;stroke-linejoin:miter;stroke-opacity:1"
       d="M -37.055257,67.777158 0.54627353,30.17563 H 7.6568178 L -30.969113,68.801558 h -6.086144 z"
       id="path3997"
       inkscape:connector-curvature="0" />
    <path
       style="fill:#000000;fill-opacity:0.05882353;stroke:none;stroke-width:0.11930645px;stroke-linecap:butt;stroke-linejoin:miter;stroke-opacity:1"
       d="M -20.484067,68.741302 8.5004433,39.756789 v 1.928283 L -18.706437,68.891946 Z"
       id="path3999"
       inkscape:connector-curvature="0" />
    <path
       style="fill:#000000;fill-opacity:0.05882353;stroke:none;stroke-width:0.11930645px;stroke-linecap:butt;stroke-linejoin:miter;stroke-opacity:1"
       d="M -17.350614,68.68104 8.6209567,42.709473 v 1.807766 3.856569 L -11.68628,68.68104 Z"
       id="path4001"
       inkscape:connector-curvature="0" />
    <path
       style="fill:#000000;fill-opacity:0.05882353;stroke:none;stroke-width:0.11930645px;stroke-linecap:butt;stroke-linejoin:miter;stroke-opacity:1"
       d="M -2.1051254,68.68104 8.3799208,58.195999 v 1.265436 l -9.34011912,9.340123 z"
       id="path4003"
       inkscape:connector-curvature="0" />
    <path
       style="fill:#000000;fill-opacity:0.05882353;stroke:none;stroke-width:0.11930645px;stroke-linecap:butt;stroke-linejoin:miter;stroke-opacity:1"
       d="M 0.36549889,68.801558 8.5908306,60.576222 v 4.730321 l -3.7812517,3.781243 z"
       id="path4005"
       inkscape:connector-curvature="0" />
    <rect
       style="opacity:1;fill:#f2f2f2;fill-opacity:0.50970878;stroke:#4d4d4d;stroke-width:1.23417354;stroke-linecap:round;stroke-linejoin:round;stroke-miterlimit:4;stroke-dasharray:none;stroke-dashoffset:10.79999924;stroke-opacity:1"
       id="rect4138"
       width="45.680889"
       height="38.717968"
       x="-37.11787"
       y="30.09952" />
    <ellipse
       style="opacity:1;fill:#808080;fill-opacity:0.50196078;stroke:none;stroke-width:1.74499989;stroke-linecap:round;stroke-linejoin:round;stroke-miterlimit:4;stroke-dasharray:none;stroke-opacity:1;filter:url(#filter7329)"
       id="path7156"
       cx="58.365604"
       cy="120.73711"
       rx="14.079613"
       ry="1.3229166"
       transform="matrix(1.3805691,0,0,0.92985521,-94.85518,-24.913537)"
       inkscape:export-xdpi="64.290001"
       inkscape:export-ydpi="64.290001" />
    <ellipse
       transform="matrix(1.3805691,0,0,0.92985521,-29.172994,-24.913537)"
       ry="1.3229166"
       rx="14.079613"
       cy="120.73711"
       cx="58.365604"
       id="ellipse7333"
       style="opacity:1;fill:#808080;fill-opacity:0.50196078;stroke:none;stroke-width:1.74499989;stroke-linecap:round;stroke-linejoin:round;stroke-miterlimit:4;stroke-dasharray:none;stroke-opacity:1;filter:url(#filter7329)"
       inkscape:export-xdpi="64.290001"
       inkscape:export-ydpi="64.290001" />
    <ellipse
       style="opacity:1;fill:#808080;fill-opacity:0.50196078;stroke:none;stroke-width:1.74499989;stroke-linecap:round;stroke-linejoin:round;stroke-miterlimit:4;stroke-dasharray:none;stroke-opacity:1;filter:url(#filter7329)"
       id="ellipse7335"
       cx="58.365604"
       cy="120.73711"
       rx="14.079613"
       ry="1.3229166"
       transform="matrix(1.3805691,0,0,0.92985521,36.509185,-24.913537)"
       inkscape:export-xdpi="64.290001"
       inkscape:export-ydpi="64.290001" />
  </g>
</svg>
