<?xml version="1.0" encoding="UTF-8" standalone="no"?>
<!-- Created with Inkscape (http://www.inkscape.org/) -->

<svg
   xmlns:dc="http://purl.org/dc/elements/1.1/"
   xmlns:cc="http://creativecommons.org/ns#"
   xmlns:rdf="http://www.w3.org/1999/02/22-rdf-syntax-ns#"
   xmlns:svg="http://www.w3.org/2000/svg"
   xmlns="http://www.w3.org/2000/svg"
   xmlns:xlink="http://www.w3.org/1999/xlink"
   xmlns:sodipodi="http://sodipodi.sourceforge.net/DTD/sodipodi-0.dtd"
   xmlns:inkscape="http://www.inkscape.org/namespaces/inkscape"
   width="197.55849mm"
   height="141.10893mm"
   viewBox="0 0 197.55849 141.10893"
   version="1.1"
   id="svg2807"
   inkscape:version="0.92.5 (0.92.5+69)"
   sodipodi:docname="featured_img.svg">
  <defs
     id="defs2801">
    <radialGradient
       inkscape:collect="always"
       xlink:href="#linearGradient2500"
       id="radialGradient2494"
       cx="51.939945"
       cy="36.859119"
       fx="51.939945"
       fy="36.859119"
       r="25.011189"
       gradientTransform="matrix(1.0965356,0.87850897,-0.62200376,0.77637184,-24.243141,-16.191088)"
       gradientUnits="userSpaceOnUse" />
    <linearGradient
       inkscape:collect="always"
       id="linearGradient2500">
      <stop
         style="stop-color:#999999;stop-opacity:1;"
         offset="0"
         id="stop2496" />
      <stop
         style="stop-color:#999999;stop-opacity:0;"
         offset="1"
         id="stop2498" />
    </linearGradient>
    <radialGradient
       inkscape:collect="always"
       xlink:href="#linearGradient2500"
       id="radialGradient2686"
       gradientUnits="userSpaceOnUse"
       gradientTransform="matrix(-0.62198149,0.44118887,-0.24249943,-0.34187201,144.20584,69.528151)"
       cx="57.205471"
       cy="37.864307"
       fx="57.205471"
       fy="37.864307"
       r="25.011189" />
    <linearGradient
       id="a"
       x1="150.96001"
       x2="112.03"
       y1="192.35001"
       y2="137.27"
       gradientTransform="matrix(0.07204893,0,0,0.07288751,48.142172,85.615965)"
       gradientUnits="userSpaceOnUse"
       xlink:href="#e" />
    <linearGradient
       id="e">
      <stop
         stop-color="#ffd43b"
         offset="0"
         id="stop3" />
      <stop
         stop-color="#ffe873"
         offset="1"
         id="stop5" />
    </linearGradient>
    <linearGradient
       id="b"
       x1="26.649"
       x2="135.67"
       y1="20.604"
       y2="114.4"
       gradientTransform="matrix(0.07204893,0,0,0.07288751,48.142172,85.615965)"
       gradientUnits="userSpaceOnUse"
       xlink:href="#d" />
    <linearGradient
       id="d">
      <stop
         stop-color="#5a9fd4"
         offset="0"
         id="stop8" />
      <stop
         stop-color="#306998"
         offset="1"
         id="stop10" />
    </linearGradient>
  </defs>
  <sodipodi:namedview
     id="base"
     pagecolor="#ffffff"
     bordercolor="#666666"
     borderopacity="1.0"
     inkscape:pageopacity="0.0"
     inkscape:pageshadow="2"
     inkscape:zoom="0.35"
     inkscape:cx="-483.80399"
     inkscape:cy="23.805407"
     inkscape:document-units="mm"
     inkscape:current-layer="layer1"
     showgrid="false"
     fit-margin-top="0"
     fit-margin-left="0"
     fit-margin-right="0"
     fit-margin-bottom="0"
     inkscape:window-width="2560"
     inkscape:window-height="993"
     inkscape:window-x="0"
     inkscape:window-y="384"
     inkscape:window-maximized="1" />
  <metadata
     id="metadata2804">
    <rdf:RDF>
      <cc:Work
         rdf:about="">
        <dc:format>image/svg+xml</dc:format>
        <dc:type
           rdf:resource="http://purl.org/dc/dcmitype/StillImage" />
        <dc:title />
      </cc:Work>
    </rdf:RDF>
  </metadata>
  <g
     inkscape:label="Layer 1"
     inkscape:groupmode="layer"
     id="layer1"
     transform="translate(42.082813,-14.022915)">
    <rect
       id="rect37"
       height="141.10893"
       width="197.55849"
       y="14.022915"
       x="-42.082813"
       style="fill-opacity:0;stroke-width:0.99999231"
       inkscape:export-xdpi="64.279999"
       inkscape:export-ydpi="64.279999" />
    <path
       id="path29"
       d="m 80.614785,96.760449 -2.09541,-0.831784 c 0.0972,-1.299334 0.076,-2.605122 -0.0631,-3.900474 l 2.06581,-0.900597 c 0.80619,-0.351475 1.17739,-1.297509 0.8276,-2.109139 L 77.557865,80.2267 c -0.35012,-0.810535 -1.29026,-1.185336 -2.09666,-0.833649 l -2.06603,0.900861 c -0.84473,-0.986673 -1.77829,-1.894657 -2.78851,-2.711614 l 0.82786,-2.10675 c 0.32263,-0.820618 -0.0798,-1.753338 -0.89812,-2.079644 l -8.86491,-3.520855 c -0.81861,-0.324376 -1.74609,0.07999 -2.06877,0.90111 l -0.82785,2.106411 c -1.292063,-0.09745 -2.590818,-0.07653 -3.879252,0.0635 L 53.99936,70.868007 C 53.649245,70.057471 52.707524,69.684483 51.901916,70.03727 l -8.743567,3.812228 c -0.390265,0.17004 -0.691758,0.482449 -0.848706,0.879348 -0.157766,0.399029 -0.151154,0.835237 0.01836,1.228437 l 0.896014,2.077262 c -0.981895,0.849847 -1.885008,1.788385 -2.697319,2.803824 l -2.094836,-0.832326 c -0.397147,-0.157538 -0.830773,-0.149836 -1.221867,0.02151 -0.389993,0.170821 -0.690702,0.484278 -0.846608,0.88173 l -3.502147,8.912439 c -0.32236,0.822756 0.07985,1.755484 0.896298,2.079866 l 2.095404,0.832067 c -0.09731,1.298302 -0.07611,2.604317 0.06318,3.899895 l -2.066028,0.900879 c -0.806185,0.351192 -1.177396,1.297181 -0.827588,2.109026 l 3.792046,8.791305 c 0.349843,0.81135 1.290476,1.18534 2.096423,0.83419 l 2.066378,-0.90088 c 0.845282,0.98721 1.778859,1.89523 2.788509,2.71183 l -0.826793,2.10483 c -0.157483,0.39902 -0.150339,0.83604 0.02066,1.23002 0.169902,0.39133 0.480636,0.6934 0.876731,0.85118 l 8.862986,3.52007 c 0.190521,0.076 0.389755,0.11374 0.588727,0.11374 0.215077,0 0.430167,-0.0443 0.633367,-0.13309 0.390811,-0.1703 0.692031,-0.48298 0.84821,-0.88094 l 0.827587,-2.10641 c 1.292633,0.0978 2.591388,0.0764 3.879248,-0.0637 l 0.89631,2.07748 c 0.34958,0.81001 1.28968,1.18331 2.09745,0.83151 l 8.74378,-3.81222 c 0.80698,-0.35174 1.17955,-1.29718 0.83021,-2.108 v -2.6e-4 l -0.896,-2.07726 c 0.9819,-0.84959 1.88501,-1.78816 2.69709,-2.80348 l 2.09485,0.83206 c 0.39661,0.15754 0.83075,0.1501 1.22231,-0.0216 0.38947,-0.17083 0.68992,-0.48377 0.84635,-0.88149 l 3.50191,-8.911866 c 0.32291,-0.821952 -0.0785,-1.755267 -0.89604,-2.080091 z"
       inkscape:connector-curvature="0"
       style="fill:none;stroke:#4d4d4d;stroke-width:1.3247298"
       inkscape:export-xdpi="64.279999"
       inkscape:export-ydpi="64.279999" />
    <path
       id="path31"
       d="m 76.157435,106.31608 -2.27371,-0.90299 c -0.47297,-0.18809 -1.01308,-0.0324 -1.31565,0.37882 -0.99748,1.35648 -2.16993,2.57505 -3.48479,3.62202 -0.39871,0.31744 -0.53533,0.86499 -0.33319,1.33415 l 0.97238,2.25441 -7.55026,3.29187 -0.94466,-2.1899 c -0.17993,-0.5013 -0.68807,-0.81238 -1.22209,-0.73216 -1.66022,0.24947 -3.347098,0.27734 -5.014126,0.0826 -0.505751,-0.0582 -0.987192,0.23086 -1.173996,0.70666 l -0.898123,2.28573 -7.653829,-3.03974 0.898133,-2.28606 c 0.187087,-0.47582 0.03243,-1.01855 -0.376791,-1.3227 -1.349679,-1.00314 -2.562362,-2.18262 -3.60422,-3.50565 -0.0057,-0.007 -0.01185,-0.0149 -0.0177,-0.0219 -0.343774,-0.41469 -0.921385,-0.51937 -1.380078,-0.27949 l -2.16993,0.94604 -3.27416,-7.591 2.179105,-0.950262 c 0.470364,-0.171365 0.776346,-0.640787 0.736185,-1.149496 -0.0033,-0.03402 -0.0068,-0.06771 -0.01214,-0.101287 -0.245486,-1.663513 -0.271913,-3.352655 -0.07849,-5.02048 0.06295,-0.541927 -0.267682,-1.04086 -0.767625,-1.203936 l -2.209501,-0.877742 3.023627,-7.695118 2.213244,0.879338 c 0.445252,0.20801 0.984822,0.100211 1.315654,-0.279726 0.02564,-0.02922 0.04967,-0.05955 0.07191,-0.09113 0.99486,-1.349568 2.162787,-2.562354 3.471522,-3.605011 0.03517,-0.02795 0.06839,-0.05768 0.09981,-0.08897 0.349853,-0.351735 0.422259,-0.880661 0.20928,-1.306015 l -0.946507,-2.19465 7.55028,-3.291862 0.972129,2.254081 c 0.202409,0.469167 0.693618,0.743572 1.196224,0.667343 1.659657,-0.249203 3.345738,-0.276821 5.011733,-0.08185 0.5063,0.05817 0.98721,-0.230862 1.17423,-0.706655 l 0.89841,-2.286293 7.65382,3.039959 -0.8984,2.286294 c -0.1868,0.475813 -0.0324,1.018556 0.37681,1.322686 1.35046,1.003938 2.56314,2.183196 3.60399,3.505203 0.33239,0.422145 0.90658,0.54247 1.37212,0.313478 l 2.19636,-0.957704 3.27393,7.590994 -2.17491,0.948152 c -0.5023,0.1812 -0.81095,0.695241 -0.7314,1.229797 0.24841,1.668844 0.27586,3.365135 0.0819,5.041225 -0.059,0.508199 0.22965,0.992773 0.70314,1.180923 l 2.27371,0.902705 z"
       inkscape:connector-curvature="0"
       style="fill:#ececec;stroke:#808080;stroke-width:0.39741889"
       inkscape:export-xdpi="64.279999"
       inkscape:export-ydpi="64.279999" />
    <path
       id="path33"
       d="m 63.046235,79.431101 c -3.9599,-1.573001 -8.292034,-1.500982 -12.198178,0.201922 -3.906476,1.703205 -6.919328,4.833445 -8.483825,8.814895 -1.56427,3.981222 -1.49293,8.337063 0.20081,12.265082 2.604088,6.03739 8.483256,9.65046 14.646881,9.64989 2.113112,0 4.260802,-0.42507 6.319462,-1.32245 8.06372,-3.51553 11.77967,-12.971702 8.28273,-21.078863 -1.69379,-3.927573 -4.80747,-6.956872 -8.76737,-8.529648 z"
       inkscape:connector-curvature="0"
       style="fill:#ffffff;stroke:#4d4d4d;stroke-width:0.75763643"
       inkscape:export-xdpi="64.279999"
       inkscape:export-ydpi="64.279999" />
    <path
       id="path35"
       d="m 57.182488,107.69911 c -7.331038,0 -13.294931,-5.99633 -13.294931,-13.366385 0,-7.3704 5.964235,-13.366388 13.294931,-13.366388 7.330817,0 13.294937,5.996443 13.294937,13.366388 0,7.370625 -5.96423,13.366385 -13.294937,13.366385 z"
       inkscape:connector-curvature="0"
       style="fill:#ffffff;stroke:#4d4d4d;stroke-width:0.42099866"
       inkscape:export-xdpi="64.279999"
       inkscape:export-ydpi="64.279999" />
    <path
       style="fill:url(#b);stroke-width:0;stroke-miterlimit:7.69810009"
       inkscape:connector-curvature="0"
       d="m 57.096972,87.121138 c -0.58706,0.0028 -1.147704,0.05291 -1.641012,0.140354 -1.453197,0.257246 -1.717045,0.79565 -1.717045,1.788597 v 1.311378 h 3.434138 v 0.437097 H 52.45013 c -0.998046,0 -1.871967,0.601077 -2.145353,1.744506 -0.315307,1.310608 -0.329293,2.128544 0,3.497075 0.244099,1.018677 0.827056,1.744482 1.825101,1.744482 h 1.180719 v -1.57203 c 0,-1.135726 0.980728,-2.137537 2.145363,-2.137537 h 3.430035 c 0.95481,0 1.71706,-0.78772 1.71706,-1.748509 v -3.276383 c 0,-0.932487 -0.78512,-1.632961 -1.71706,-1.788599 -0.58993,-0.09838 -1.202021,-0.14309 -1.789102,-0.140354 z m -1.857131,1.054696 c 0.354721,0 0.644393,0.294994 0.644393,0.657704 0,0.36142 -0.289672,0.653669 -0.644393,0.653669 -0.355978,0 -0.644393,-0.292249 -0.644393,-0.653669 0,-0.36271 0.288415,-0.657704 0.644393,-0.657704 z"
       id="path69"
       inkscape:export-xdpi="64.279999"
       inkscape:export-ydpi="64.279999" />
    <path
       style="fill:url(#a);stroke-width:0;stroke-miterlimit:7.69810009"
       inkscape:connector-curvature="0"
       d="m 61.029975,90.796103 v 1.527929 c 0,1.18459 -1.00233,2.181524 -2.14536,2.181524 h -3.430036 c -0.939567,0 -1.717058,0.80572 -1.717058,1.748486 v 3.276383 c 0,0.932515 0.809281,1.480975 1.717058,1.748505 1.087046,0.32027 2.12952,0.37816 3.430036,0 0.86455,-0.25079 1.71704,-0.75555 1.71704,-1.748505 v -1.311357 h -3.43003 v -0.437116 h 5.1471 c 0.99805,0 1.36996,-0.697521 1.71706,-1.744485 0.35852,-1.077814 0.34328,-2.114275 0,-3.497085 -0.24665,-0.995505 -0.71774,-1.744496 -1.71706,-1.744496 z m -1.92919,8.297421 c 0.35598,0 0.64439,0.292258 0.64439,0.653669 0,0.362707 -0.28841,0.657687 -0.64439,0.657687 -0.35473,0 -0.64439,-0.29498 -0.64439,-0.657687 0,-0.361411 0.28966,-0.653669 0.64439,-0.653669 z"
       id="path71"
       inkscape:export-xdpi="64.279999"
       inkscape:export-ydpi="64.279999" />
    <path
       style="fill:#e6e6e6;stroke:#4d4d4d;stroke-width:0.74087477;stroke-linecap:round;stroke-linejoin:round;stroke-miterlimit:4;stroke-dasharray:none;stroke-opacity:1"
       d="M 52.837633,45.267315 H 46.286539 L 57.186248,64.146177 68.085945,45.267315 h -6.55108 V 18.379283 h -8.697232 z"
       id="path854"
       inkscape:connector-curvature="0"
       inkscape:export-xdpi="64.279999"
       inkscape:export-ydpi="64.279999" />
    <path
       inkscape:connector-curvature="0"
       id="path2502"
       d="m 90.910035,79.347548 -11.88167,9.97041 2.48249,9.522518 19.618595,-6.565775 z"
       style="fill:url(#radialGradient2686);fill-opacity:1;stroke:none;stroke-width:0.28958035px;stroke-linecap:butt;stroke-linejoin:miter;stroke-opacity:1"
       sodipodi:nodetypes="ccccc"
       inkscape:export-xdpi="64.279999"
       inkscape:export-ydpi="64.279999" />
    <path
       style="fill:#ececec;stroke:#4d4d4d;stroke-width:0.61756915;stroke-miterlimit:4;stroke-dasharray:none"
       inkscape:connector-curvature="0"
       id="XMLID_1735_"
       d="m 102.99639,85.015518 c 0.39918,-0.313071 0.70331,-0.753967 0.84214,-1.282456 0.33806,-1.287005 -0.43122,-2.604405 -1.71822,-2.942471 -0.30308,-0.07961 -0.60768,-0.09712 -0.90097,-0.06161 -0.35019,-1.376532 -1.417345,-2.526596 -2.888435,-2.913015 -1.33895,-0.351711 -2.6974,0.01198 -3.67067,0.854292 -0.20766,-0.111048 -0.43143,-0.199933 -0.66915,-0.262377 -1.63758,-0.430154 -3.31381,0.548685 -3.74396,2.186263 -0.12574,0.478692 -0.13089,0.96062 -0.0346,1.413838 -1.04229,0.547518 -1.85985,1.51421 -2.18252,2.742612 -0.60954,2.320502 0.77745,4.695741 3.09795,5.305283 0.14069,0.03696 0.28158,0.06642 0.42224,0.08891 -0.28476,1.055566 -1.0017,1.880436 -1.90996,2.334017 1.24475,0.442986 2.61487,0.174204 3.59729,-0.65042 0.37856,0.248237 0.80304,0.440478 1.26504,0.561832 1.04957,0.275701 2.11035,0.138052 3.01025,-0.311859 0.2752,0.136983 0.56837,0.248094 0.8774,0.329269 2.435235,0.639677 4.927915,-0.815917 5.567595,-3.25115 0.39671,-1.510133 -0.0126,-3.042211 -0.9614,-4.140975 z"
       inkscape:export-xdpi="64.279999"
       inkscape:export-ydpi="64.279999" />
    <path
       d="m 96.613675,87.519445 -1.42932,-0.375449 0.27446,-1.044864 c 0.20533,-0.781674 0.86247,-1.350078 1.67411,-1.448128 0.59033,-0.07135 1.07085,-0.510984 1.19569,-1.094126 0.14873,-0.694862 -0.26604,-1.405162 -0.94429,-1.617112 -0.36831,-0.115255 -0.75601,-0.07604 -1.09194,0.109916 -0.33616,0.186068 -0.57507,0.493143 -0.67265,0.864603 l -1.42931,-0.375447 c 0.20114,-0.765725 0.69345,-1.398603 1.38631,-1.782119 0.69249,-0.383334 1.491,-0.464341 2.24829,-0.227534 0.68084,0.212733 1.25543,0.671788 1.61799,1.292635 0.36253,0.620874 0.47994,1.346893 0.33062,2.044383 -0.25689,1.199946 -1.24691,2.104911 -2.46348,2.251855 -0.20603,0.02487 -0.3717,0.164822 -0.42203,0.356449 l -0.27448,1.04493 z"
       id="XMLID_1573_"
       inkscape:connector-curvature="0"
       style="fill:#999999;fill-opacity:1;stroke:#4d4d4d;stroke-width:0.27482781;stroke-miterlimit:4;stroke-dasharray:none"
       inkscape:export-xdpi="64.279999"
       inkscape:export-ydpi="64.279999" />
    <circle
       style="fill:#999999;fill-opacity:1;stroke:#4d4d4d;stroke-width:0.27482781;stroke-miterlimit:4;stroke-dasharray:none"
       id="XMLID_1571_"
       cx="114.93976"
       cy="62.319084"
       r="0.73890376"
       transform="rotate(14.717773)"
       inkscape:export-xdpi="64.279999"
       inkscape:export-ydpi="64.279999" />
    <path
       style="fill:url(#radialGradient2494);fill-opacity:1;stroke:none;stroke-width:0.28958035px;stroke-linecap:butt;stroke-linejoin:miter;stroke-opacity:1"
       d="M -6.8749599,71.132098 36.882382,96.395409 47.873378,75.999349 24.335476,46.632774 Z"
       id="path2478"
       inkscape:connector-curvature="0"
       inkscape:export-xdpi="64.279999"
       inkscape:export-ydpi="64.279999" />
    <path
       d="m -5.4147209,53.241092 c -0.676477,-1.025496 -1.041678,-2.273567 -0.965489,-3.598016 0.185539,-3.225361 2.914817,-5.679133 6.09595,-5.480614 0.749144,0.04675 1.455637,0.237903 2.097024,0.542724 1.819,-2.90871 5.102259,-4.750116 8.7384169,-4.5232 3.30952,0.206533 6.13246,2.077926 7.723217,4.760444 0.555218,-0.09828 1.130647,-0.133204 1.718236,-0.09654 4.047665,0.252598 7.137551,3.784328 6.901471,7.888256 -0.06901,1.19965 -0.41498,2.315101 -0.970587,3.287239 1.966672,2.055058 3.110579,4.906097 2.933488,7.984596 -0.334533,5.815401 -5.255344,10.239499 -10.991016,9.88156 -0.347753,-0.0217 -0.690391,-0.06083 -1.027348,-0.115885 -0.135118,2.651046 0.88496,5.098508 2.61621,6.835029 -3.162823,0.07559 -6.082781,-1.585767 -7.707471,-4.23445 -1.046141,0.284806 -2.1552799,0.405546 -3.2972029,0.334283 -2.594287,-0.161899 -4.907275,-1.285674 -6.622201,-3.007371 -0.728236,0.106762 -1.4782,0.140195 -2.242026,0.09253 -6.019255,-0.375635 -10.6141681,-5.627556 -10.2630921,-11.730496 0.217636,-3.784565 2.2866801,-7.007092 5.2624221,-8.820139 z"
       id="path2470"
       inkscape:connector-curvature="0"
       style="fill:#ececec;stroke:#4d4d4d;stroke-width:1.48927653;stroke-miterlimit:4;stroke-dasharray:none"
       inkscape:export-xdpi="64.279999"
       inkscape:export-ydpi="64.279999" />
    <path
       style="fill:#999999;fill-opacity:1;stroke:#4d4d4d;stroke-width:0.66275108;stroke-miterlimit:4;stroke-dasharray:none"
       inkscape:connector-curvature="0"
       id="path2472"
       d="m 7.2588071,63.867729 3.5328939,0.220472 0.150632,-2.618533 c 0.112692,-1.958957 -0.9615829,-3.769429 -2.7367169,-4.6125 -1.291106,-0.613267 -2.058829,-1.992506 -1.91025,-3.432379 0.177115,-1.715711 1.648646,-3.038707 3.3502,-3.012014 0.9240969,0.01413 1.7776979,0.399262 2.4045059,1.083496 0.627272,0.68467 0.943296,1.574514 0.889744,2.505432 l 3.532894,0.220472 c 0.110392,-1.918984 -0.540774,-3.75289 -1.833586,-5.16408 -1.292135,-1.410496 -3.050043,-2.204288 -4.9499869,-2.233718 -1.708002,-0.02685 -3.356941,0.595188 -4.64322,1.751552 -1.286211,1.156454 -2.092402,2.741729 -2.27012,4.463939 -0.305745,2.962868 1.276622,5.802625 3.937413,7.066254 0.45063,0.213995 0.723937,0.66268 0.696312,1.142912 l -0.150644,2.618698 z"
       inkscape:export-xdpi="64.279999"
       inkscape:export-ydpi="64.279999" />
    <ellipse
       cy="68.674271"
       cx="-12.684866"
       id="circle2474"
       style="fill:#999999;fill-opacity:1;stroke:#4d4d4d;stroke-width:0.66275495;stroke-miterlimit:4;stroke-dasharray:none"
       transform="matrix(-0.99805844,-0.06228443,-0.05743047,0.99834951,0,0)"
       rx="1.7698878"
       ry="1.7939682"
       inkscape:export-xdpi="64.279999"
       inkscape:export-ydpi="64.279999" />
    <path
       inkscape:connector-curvature="0"
       id="path2650"
       d="m 10.55791,134.35117 -4.6323229,-4.63232 -5.64211,21.05663 21.0566079,-5.64213 -4.632298,-4.6323 19.012702,-19.0127 -6.149872,-6.14988 z"
       style="fill:#4280b1;fill-opacity:1;stroke:#4d4d4d;stroke-width:0.74087477;stroke-linecap:round;stroke-linejoin:round;stroke-miterlimit:4;stroke-dasharray:none;stroke-opacity:1"
       inkscape:export-xdpi="64.279999"
       inkscape:export-ydpi="64.279999" />
    <path
       style="fill:#ffd641;fill-opacity:1;stroke:#4d4d4d;stroke-width:0.74087477;stroke-linecap:round;stroke-linejoin:round;stroke-miterlimit:4;stroke-dasharray:none;stroke-opacity:1"
       d="m 97.664685,140.50106 -4.63232,4.63232 21.056635,5.6421 -5.64214,-21.0566 -4.6323,4.63229 -19.012705,-19.0127 -6.14987,6.14988 z"
       id="path2652"
       inkscape:connector-curvature="0"
       inkscape:export-xdpi="64.279999"
       inkscape:export-ydpi="64.279999" />
  </g>
</svg>
