<?xml version="1.0" encoding="UTF-8" standalone="no"?>
<!-- Created with Inkscape (http://www.inkscape.org/) -->

<svg
   xmlns:dc="http://purl.org/dc/elements/1.1/"
   xmlns:cc="http://creativecommons.org/ns#"
   xmlns:rdf="http://www.w3.org/1999/02/22-rdf-syntax-ns#"
   xmlns:svg="http://www.w3.org/2000/svg"
   xmlns="http://www.w3.org/2000/svg"
   xmlns:sodipodi="http://sodipodi.sourceforge.net/DTD/sodipodi-0.dtd"
   xmlns:inkscape="http://www.inkscape.org/namespaces/inkscape"
   width="197.55556mm"
   height="141.11111mm"
   viewBox="0 0 197.55556 141.11111"
   version="1.1"
   id="svg1430"
   inkscape:version="0.92.5 (0.92.5+69)"
   sodipodi:docname="featured_icon.svg">
  <defs
     id="defs1424">
    <clipPath
       clipPathUnits="userSpaceOnUse"
       id="clipPath2154">
      <rect
         style="fill:#ffffff;fill-opacity:1;stroke-width:4.4117198;stroke-miterlimit:4;stroke-dasharray:none"
         id="rect2156"
         width="197.55556"
         height="141.11111"
         x="48.495216"
         y="55.798443" />
    </clipPath>
    <clipPath
       clipPathUnits="userSpaceOnUse"
       id="clipPath2150">
      <rect
         style="fill:#ffffff;fill-opacity:1;stroke:none;stroke-width:0.116313;stroke-linecap:round;stroke-linejoin:round;stroke-miterlimit:4;stroke-dasharray:none;stroke-dashoffset:0;stroke-opacity:1"
         id="rect2152"
         width="197.55556"
         height="141.11111"
         x="48.495216"
         y="55.798443" />
    </clipPath>
    <clipPath
       clipPathUnits="userSpaceOnUse"
       id="clipPath2146">
      <rect
         style="fill:#ffffff;fill-opacity:1;stroke-width:4.4117198;stroke-miterlimit:4;stroke-dasharray:none"
         id="rect2148"
         width="197.55556"
         height="141.11111"
         x="48.495216"
         y="55.798443" />
    </clipPath>
    <clipPath
       clipPathUnits="userSpaceOnUse"
       id="clipPath2142">
      <rect
         style="fill:#ffffff;fill-opacity:1;stroke:none;stroke-width:0.116313;stroke-linecap:round;stroke-linejoin:round;stroke-miterlimit:4;stroke-dasharray:none;stroke-dashoffset:0;stroke-opacity:1"
         id="rect2144"
         width="197.55556"
         height="141.11111"
         x="48.495216"
         y="55.798443" />
    </clipPath>
  </defs>
  <sodipodi:namedview
     id="base"
     pagecolor="#ffffff"
     bordercolor="#666666"
     borderopacity="1.0"
     inkscape:pageopacity="0.0"
     inkscape:pageshadow="2"
     inkscape:zoom="0.35"
     inkscape:cx="-898.92681"
     inkscape:cy="-114.99125"
     inkscape:document-units="mm"
     inkscape:current-layer="layer1"
     showgrid="false"
     fit-margin-top="0"
     fit-margin-left="0"
     fit-margin-right="0"
     fit-margin-bottom="0"
     inkscape:window-width="2560"
     inkscape:window-height="993"
     inkscape:window-x="0"
     inkscape:window-y="384"
     inkscape:window-maximized="1" />
  <metadata
     id="metadata1427">
    <rdf:RDF>
      <cc:Work
         rdf:about="">
        <dc:format>image/svg+xml</dc:format>
        <dc:type
           rdf:resource="http://purl.org/dc/dcmitype/StillImage" />
        <dc:title></dc:title>
      </cc:Work>
    </rdf:RDF>
  </metadata>
  <g
     inkscape:label="Layer 1"
     inkscape:groupmode="layer"
     id="layer1"
     transform="translate(69.295639,33.603176)">
    <rect
       style="fill:none;fill-opacity:1;stroke-width:4.4117198;stroke-miterlimit:4;stroke-dasharray:none"
       id="rect2005"
       width="197.55556"
       height="141.11111"
       x="-69.295639"
       y="-33.603176"
       inkscape:export-xdpi="64.290001"
       inkscape:export-ydpi="64.290001" />
    <path
       inkscape:connector-curvature="0"
       style="fill:none;stroke:#199b69;stroke-width:6.56573009;stroke-linecap:butt;stroke-linejoin:miter;stroke-miterlimit:4;stroke-dasharray:none;stroke-opacity:0.1"
       d="M 17.36769,167.80385 250.80924,33.026312"
       id="path2110"
       clip-path="url(#clipPath2142)"
       transform="matrix(0.84686643,0,0,0.84686643,-95.238412,-70.052581)"
       inkscape:export-xdpi="64.290001"
       inkscape:export-ydpi="64.290001" />
    <path
       inkscape:connector-curvature="0"
       style="fill:none;stroke:#158157;stroke-width:13.13150024;stroke-linecap:butt;stroke-linejoin:miter;stroke-miterlimit:4;stroke-dasharray:none;stroke-opacity:0.1"
       d="M 17.36769,196.97609 276.78686,47.200353"
       id="path2112"
       clip-path="url(#clipPath2146)"
       transform="matrix(0.84686643,0,0,0.84686643,-95.238412,-70.052581)"
       inkscape:export-xdpi="64.290001"
       inkscape:export-ydpi="64.290001" />
    <path
       inkscape:connector-curvature="0"
       style="fill:none;stroke:#106444;stroke-width:17.07089996;stroke-linecap:butt;stroke-linejoin:miter;stroke-miterlimit:4;stroke-dasharray:none;stroke-opacity:0.1"
       d="M 37.745995,218.32573 276.78686,80.315415"
       id="path2114"
       clip-path="url(#clipPath2150)"
       transform="matrix(0.84686643,0,0,0.84686643,-95.238412,-70.052581)"
       inkscape:export-xdpi="64.290001"
       inkscape:export-ydpi="64.290001" />
    <path
       inkscape:connector-curvature="0"
       style="fill:none;stroke:#0c4b33;stroke-width:19.69720078;stroke-linecap:butt;stroke-linejoin:miter;stroke-miterlimit:4;stroke-dasharray:none;stroke-opacity:0.1"
       d="M 127.54169,218.32573 276.78686,132.15898"
       id="path2116"
       clip-path="url(#clipPath2154)"
       transform="matrix(0.84686643,0,0,0.84686643,-95.238412,-70.052581)"
       inkscape:export-xdpi="64.290001"
       inkscape:export-ydpi="64.290001" />
    <rect
       ry="0"
       rx="0"
       y="-14.096188"
       x="-36.661419"
       height="97.096886"
       width="136.77448"
       id="rect4619-5"
       style="fill:none;fill-opacity:1;stroke:#333333;stroke-width:1.28210998;stroke-miterlimit:4;stroke-dasharray:none;stroke-opacity:1" />
    <rect
       style="fill:#000000;fill-opacity:1;stroke:none;stroke-width:1.28210998;stroke-miterlimit:4;stroke-dasharray:none;stroke-opacity:1"
       id="rect4777"
       width="136.77448"
       height="97.096886"
       x="-41.789867"
       y="-8.4548798"
       rx="0"
       ry="0" />
    <rect
       style="fill:#e4e4e4;fill-opacity:1;stroke:none;stroke-width:1.77498996;stroke-miterlimit:4;stroke-dasharray:none;stroke-opacity:1"
       id="rect4654-4"
       width="136.77448"
       height="9.2635927"
       x="-36.661419"
       y="-14.096188" />
    <rect
       style="fill:#f2f2f2;fill-opacity:1;stroke:none;stroke-width:1.28210998;stroke-miterlimit:4;stroke-dasharray:none;stroke-opacity:1"
       id="rect4775-0"
       width="136.77448"
       height="87.642044"
       x="-36.661419"
       y="-4.6413503" />
    <path
       inkscape:connector-curvature="0"
       style="fill:none;stroke:#333333;stroke-width:0.70516199;stroke-linecap:butt;stroke-linejoin:miter;stroke-miterlimit:4;stroke-dasharray:none;stroke-opacity:1"
       d="M -36.66141,-4.641343 H 100.11305"
       id="path4621-9" />
    <rect
       style="fill:#ffffff;fill-opacity:1;stroke:#4d4d4d;stroke-width:0.38250199;stroke-miterlimit:4;stroke-dasharray:none;stroke-opacity:1"
       id="rect4623-4"
       width="111.65117"
       height="4.3979926"
       x="-18.081585"
       y="-11.358353" />
    <path
       id="path4625-9"
       d="m 95.199564,-10.452721 h 2.66502"
       style="fill:none;stroke:#333333;stroke-width:0.42815322px;stroke-linecap:butt;stroke-linejoin:miter;stroke-opacity:1"
       inkscape:connector-curvature="0" />
    <path
       id="path4627-2"
       d="m 95.199564,-9.6539065 h 2.66502"
       style="fill:none;stroke:#333333;stroke-width:0.42815322px;stroke-linecap:butt;stroke-linejoin:miter;stroke-opacity:1"
       inkscape:connector-curvature="0" />
    <path
       id="path4629-2"
       d="m 95.199564,-8.863321 h 2.66502"
       style="fill:none;stroke:#333333;stroke-width:0.42815322px;stroke-linecap:butt;stroke-linejoin:miter;stroke-opacity:1"
       inkscape:connector-curvature="0" />
    <path
       id="path4631-4"
       d="m 95.199564,-8.1123851 h 2.66502"
       style="fill:none;stroke:#333333;stroke-width:0.42815322px;stroke-linecap:butt;stroke-linejoin:miter;stroke-opacity:1"
       inkscape:connector-curvature="0" />
    <path
       style="fill:none;fill-opacity:0.586411;stroke:#333333;stroke-width:0.41455501;stroke-miterlimit:4;stroke-dasharray:none;stroke-opacity:1"
       id="path4633-7"
       sodipodi:type="arc"
       sodipodi:cx="-22.024212"
       sodipodi:cy="-9.2813339"
       sodipodi:rx="1.2440885"
       sodipodi:ry="1.2440885"
       sodipodi:start="0.26179939"
       sodipodi:end="5.4977871"
       sodipodi:open="true"
       sodipodi:arc-type="arc"
       d="m -20.822515,-8.9593401 a 1.2440885,1.2440885 0 0 1 -1.201697,0.9220947 1.2440885,1.2440885 0 0 1 -1.201697,-0.9220947 1.2440885,1.2440885 0 0 1 0.579653,-1.3994059 1.2440885,1.2440885 0 0 1 1.501748,0.197709" />
    <path
       inkscape:connector-curvature="0"
       style="fill:#333333;fill-opacity:1;stroke:#333333;stroke-width:0.30799001px;stroke-linecap:butt;stroke-linejoin:miter;stroke-opacity:1"
       d="m -21.69281,-9.761009 0.88015,-0.899965 0.099,0.974951 z"
       id="path4635-7"
       sodipodi:nodetypes="cccc" />
    <path
       id="path4637-4"
       d="m -33.460845,-9.1559972 h 2.960923"
       style="fill:none;stroke:#333333;stroke-width:0.3825019px;stroke-linecap:butt;stroke-linejoin:miter;stroke-opacity:1"
       inkscape:connector-curvature="0" />
    <path
       sodipodi:nodetypes="ccc"
       id="path4641-8"
       d="m -32.256958,-10.445569 -1.203892,1.2895718 1.219674,1.230885"
       style="fill:none;stroke:#333333;stroke-width:0.3825019px;stroke-linecap:butt;stroke-linejoin:miter;stroke-opacity:1"
       inkscape:connector-curvature="0" />
    <path
       inkscape:connector-curvature="0"
       d="m 91.92906,-9.462473 c -0.0141,-0.04357 -0.0527,-0.07452 -0.0985,-0.07867 l -0.62103,-0.05636 -0.24557,-0.574777 c -0.0181,-0.0421 -0.0593,-0.06942 -0.10516,-0.06942 -0.0458,0 -0.0871,0.02723 -0.10516,0.06951 l -0.24557,0.57469 -0.62112,0.05636 c -0.0457,0.0043 -0.0842,0.03501 -0.0984,0.07867 -0.0142,0.04357 -8.7e-4,0.09136 0.0335,0.121478 l 0.46942,0.41169 -0.13842,0.609737 c -0.0101,0.04487 0.007,0.09119 0.0444,0.118081 0.0201,0.01444 0.0434,0.02178 0.067,0.02178 0.0203,0 0.0405,-0.0061 0.0586,-0.01625 l 0.53569,-0.320166 0.53549,0.320166 c 0.0392,0.0236 0.0886,0.02144 0.12571,-0.0061 0.0373,-0.02697 0.0546,-0.07331 0.0444,-0.118072 l -0.13842,-0.609746 0.46943,-0.411603 c 0.0346,-0.03026 0.0477,-0.07789 0.0335,-0.121565 z m 0,0"
       id="path4643-1"
       style="fill:#ffc107;stroke:#ffc107;stroke-width:0.233326;stroke-miterlimit:4;stroke-dasharray:none;stroke-opacity:1" />
    <path
       id="path4666-8"
       d="m -25.640685,-9.2105728 h -2.960923"
       style="fill:none;stroke:#b6b6b6;stroke-width:0.3825019px;stroke-linecap:butt;stroke-linejoin:miter;stroke-opacity:1"
       inkscape:connector-curvature="0" />
    <path
       sodipodi:nodetypes="ccc"
       id="path4668-9"
       d="m -26.844572,-7.9210008 1.203892,-1.289572 -1.219674,-1.2308852"
       style="fill:none;stroke:#b6b6b6;stroke-width:0.3825019px;stroke-linecap:butt;stroke-linejoin:miter;stroke-opacity:1"
       inkscape:connector-curvature="0" />
    <rect
       style="fill:#ffffff;fill-opacity:1;stroke:#333333;stroke-width:1.00919998;stroke-miterlimit:4;stroke-dasharray:none"
       id="rect7263"
       width="114.6163"
       height="73.696991"
       x="-27.574123"
       y="2.2205503"
       rx="0"
       ry="0"
       inkscape:export-xdpi="64.290001"
       inkscape:export-ydpi="64.290001" />
    <rect
       style="fill:#0c4b33;fill-opacity:1;stroke:#333333;stroke-width:1.09300005;stroke-miterlimit:4;stroke-dasharray:none;stroke-opacity:1"
       id="rect5164"
       width="39.05875"
       height="12.682739"
       x="41.963161"
       y="57.711735"
       inkscape:export-xdpi="64.290001"
       inkscape:export-ydpi="64.290001" />
    <path
       inkscape:connector-curvature="0"
       style="fill:#ececec;stroke-width:0.2740314"
       d="m -14.906515,22.305236 -2.166752,1.181889 c -0.12715,0.0693 -0.241421,0.154552 -0.347741,0.247447 1.263275,1.065151 2.894022,1.70775 4.675764,1.70775 1.768587,0 3.3889233,-0.633006 4.6486394,-1.683639 -0.1161881,-0.0981 -0.2422422,-0.186334 -0.3819992,-0.25594 L -10.79881,22.342775 c -0.299787,-0.149895 -0.489147,-0.456256 -0.489147,-0.791394 V 20.64105 c 0.06522,-0.07426 0.139757,-0.169625 0.2195,-0.28225 0.316231,-0.446672 0.555458,-0.937999 0.721247,-1.453455 0.297594,-0.0918 0.5168204,-0.366651 0.5168204,-0.693288 v -0.971712 c 0,-0.213743 -0.095089,-0.404744 -0.2427934,-0.538467 v -1.404679 c 0,0 0.2885534,-2.185935 -2.671786,-2.185935 -2.96034,0 -2.671787,2.185935 -2.671787,2.185935 v 1.404679 c -0.147978,0.133723 -0.242792,0.324724 -0.242792,0.538467 v 0.971712 c 0,0.25594 0.134546,0.481198 0.335959,0.611354 0.242792,1.056936 0.87854,1.817639 0.87854,1.817639 v 0.887856 c -2.09e-4,0.323356 -0.177297,0.621224 -0.461466,0.77633 z"
       id="path5236" />
    <path
       inkscape:connector-curvature="0"
       style="fill:#666666;stroke:#333333;stroke-width:0.78003764;stroke-miterlimit:4;stroke-dasharray:none"
       d="m -12.621109,10.919856 c -4.009874,-0.06848 -7.316313,3.126672 -7.384823,7.136549 -0.03891,2.273626 0.974449,4.317061 2.587937,5.675976 0.105499,-0.09207 0.218674,-0.176473 0.344455,-0.244979 l 2.166752,-1.181897 c 0.284168,-0.155098 0.461192,-0.452966 0.461192,-0.776868 v -0.887855 c 0,0 -0.636024,-0.760712 -0.878541,-1.817639 -0.201139,-0.130165 -0.335957,-0.355146 -0.335957,-0.611363 v -0.971711 c 0,-0.213744 0.09509,-0.404736 0.242789,-0.538468 v -1.404679 c 0,0 -0.288554,-2.185927 2.671788,-2.185927 2.9603402,0 2.671789,2.185927 2.671789,2.185927 v 1.404679 c 0.1479734,0.133732 0.2427896,0.324724 0.2427896,0.538468 v 0.971711 c 0,0.326645 -0.2192246,0.601502 -0.5168206,0.693297 -0.165789,0.515447 -0.405018,1.006783 -0.721245,1.453447 -0.07974,0.112633 -0.154279,0.207994 -0.219498,0.282258 v 0.910322 c 0,0.335138 0.189354,0.641776 0.489145,0.791394 l 2.320206,1.159968 c 0.1392057,0.06962 0.2649838,0.157566 0.3809007,0.255395 1.5647102,-1.304928 2.5756022,-3.256014 2.6131443,-5.453187 0.06906,-4.009877 -3.1258537,-7.316311 -7.136003,-7.384818 z"
       id="path5238" />
    <path
       id="path7569"
       d="M 30.0113,10.86518 V 49.576075"
       style="fill:none;stroke:#cccccc;stroke-width:0.46403599;stroke-linecap:butt;stroke-linejoin:miter;stroke-miterlimit:4;stroke-dasharray:none;stroke-opacity:1"
       inkscape:connector-curvature="0" />
    <path
       id="path5318"
       d="M -22.033832,35.519145 H 24.13496"
       style="fill:none;stroke:#cccccc;stroke-width:6.5;stroke-linecap:butt;stroke-linejoin:miter;stroke-miterlimit:4;stroke-dasharray:none;stroke-opacity:1"
       inkscape:connector-curvature="0" />
    <path
       id="path7567"
       d="M 0.98733,14.163765 H 24.44439"
       style="fill:none;stroke:#cccccc;stroke-width:6.5;stroke-linecap:butt;stroke-linejoin:miter;stroke-miterlimit:4;stroke-dasharray:none;stroke-opacity:1"
       inkscape:connector-curvature="0" />
    <path
       id="path7571"
       d="M 0.98733,24.841455 H 24.44439"
       style="fill:none;stroke:#cccccc;stroke-width:6.5;stroke-linecap:butt;stroke-linejoin:miter;stroke-miterlimit:4;stroke-dasharray:none;stroke-opacity:1"
       inkscape:connector-curvature="0" />
    <path
       inkscape:connector-curvature="0"
       style="fill:none;stroke:#cccccc;stroke-width:6.5;stroke-linecap:butt;stroke-linejoin:miter;stroke-miterlimit:4;stroke-dasharray:none;stroke-opacity:1"
       d="M -22.033829,46.196845 H -0.55282"
       id="path7573" />
    <path
       inkscape:connector-curvature="0"
       style="fill:none;stroke:#cccccc;stroke-width:6.5;stroke-linecap:butt;stroke-linejoin:miter;stroke-miterlimit:4;stroke-dasharray:none;stroke-opacity:1"
       d="M 4.01611,46.196845 H 24.02913"
       id="path7575" />
    <path
       inkscape:connector-curvature="0"
       style="fill:none;stroke:#cccccc;stroke-width:6.5;stroke-linecap:butt;stroke-linejoin:miter;stroke-miterlimit:4;stroke-dasharray:none;stroke-opacity:1"
       d="M 35.73678,24.841455 H 68.95812"
       id="path7579" />
    <path
       inkscape:connector-curvature="0"
       style="fill:none;stroke:#cccccc;stroke-width:6.5;stroke-linecap:butt;stroke-linejoin:miter;stroke-miterlimit:4;stroke-dasharray:none;stroke-opacity:1"
       d="m 73.49336,24.841455 h 8.27581"
       id="path7581" />
    <path
       id="path7605"
       d="M 35.66858,14.163765 H 81.83737"
       style="fill:none;stroke:#cccccc;stroke-width:6.5;stroke-linecap:butt;stroke-linejoin:miter;stroke-miterlimit:4;stroke-dasharray:none;stroke-opacity:1"
       inkscape:connector-curvature="0" />
    <path
       id="path7611"
       d="M 35.71307,40.769145 H 81.88186"
       style="fill:none;stroke:#cccccc;stroke-width:17;stroke-linecap:butt;stroke-linejoin:miter;stroke-miterlimit:4;stroke-dasharray:none;stroke-opacity:1"
       inkscape:connector-curvature="0" />
    <rect
       style="fill:#16895d;fill-opacity:1;stroke-width:1.01102996;stroke-miterlimit:4;stroke-dasharray:none"
       id="rect2003"
       width="34.704254"
       height="8.6441154"
       x="44.140408"
       y="59.731045"
       inkscape:export-xdpi="64.290001"
       inkscape:export-ydpi="64.290001" />
  </g>
</svg>
