<?xml version="1.0" encoding="UTF-8" standalone="no"?>
<!-- Created with Inkscape (http://www.inkscape.org/) -->

<svg
   xmlns:dc="http://purl.org/dc/elements/1.1/"
   xmlns:cc="http://creativecommons.org/ns#"
   xmlns:rdf="http://www.w3.org/1999/02/22-rdf-syntax-ns#"
   xmlns:svg="http://www.w3.org/2000/svg"
   xmlns="http://www.w3.org/2000/svg"
   xmlns:xlink="http://www.w3.org/1999/xlink"
   xmlns:sodipodi="http://sodipodi.sourceforge.net/DTD/sodipodi-0.dtd"
   xmlns:inkscape="http://www.inkscape.org/namespaces/inkscape"
   width="204.21521mm"
   height="136.28239mm"
   viewBox="0 0 204.21521 136.28239"
   version="1.1"
   id="svg11916"
   inkscape:version="0.92.5 (0.92.5+69)"
   sodipodi:docname="feature-1.svg">
  <defs
     id="defs11910">
    <linearGradient
       y2="1374.3113"
       x2="-5223.2158"
       y1="1406.4207"
       x1="-5222.7773"
       gradientUnits="userSpaceOnUse"
       id="linearGradient1659"
       xlink:href="#linearGradient6191"
       inkscape:collect="always" />
    <linearGradient
       id="linearGradient6191"
       inkscape:collect="always">
      <stop
         id="stop6187"
         offset="0"
         style="stop-color:#fbfbfb;stop-opacity:1" />
      <stop
         style="stop-color:#7f7f7f;stop-opacity:0.99215686"
         offset="0.48438144"
         id="stop6195" />
      <stop
         id="stop6189"
         offset="1"
         style="stop-color:#ffffff;stop-opacity:0.98156685" />
    </linearGradient>
    <linearGradient
       y2="1323.7513"
       x2="-3402.9792"
       y1="1309.8986"
       x1="-3403.2139"
       gradientUnits="userSpaceOnUse"
       id="linearGradient1613"
       xlink:href="#linearGradient6000"
       inkscape:collect="always" />
    <linearGradient
       inkscape:collect="always"
       id="linearGradient6000">
      <stop
         style="stop-color:#ffe873;stop-opacity:1"
         offset="0"
         id="stop5996" />
      <stop
         style="stop-color:#e4b200;stop-opacity:1"
         offset="1"
         id="stop5998" />
    </linearGradient>
    <linearGradient
       y2="1323.7513"
       x2="-3399.749"
       y1="1309.8986"
       x1="-3399.9836"
       gradientUnits="userSpaceOnUse"
       id="linearGradient1617"
       xlink:href="#linearGradient6000"
       inkscape:collect="always" />
    <linearGradient
       y2="1300.0887"
       x2="-3384.9512"
       y1="1286.236"
       x1="-3385.1858"
       gradientTransform="matrix(1.1306682,0,-0.14749805,1.1306682,-1390.5119,-120.03266)"
       gradientUnits="userSpaceOnUse"
       id="linearGradient1619"
       xlink:href="#linearGradient6000"
       inkscape:collect="always" />
    <linearGradient
       y2="1323.7513"
       x2="-3428.4358"
       y1="1309.8986"
       x1="-3428.6704"
       gradientUnits="userSpaceOnUse"
       id="linearGradient1627"
       xlink:href="#linearGradient6000"
       inkscape:collect="always" />
    <linearGradient
       y2="1322.5796"
       x2="-3381.3435"
       y1="1308.7268"
       x1="-3381.5781"
       gradientUnits="userSpaceOnUse"
       id="linearGradient1631"
       xlink:href="#linearGradient6000"
       inkscape:collect="always" />
    <linearGradient
       y2="1366.5588"
       x2="-3498.8015"
       y1="1335.281"
       x1="-3486.8977"
       gradientTransform="matrix(0.28222223,0,-0.05283947,0.28222223,959.00005,-326.36366)"
       gradientUnits="userSpaceOnUse"
       id="linearGradient1902"
       xlink:href="#linearGradient5044"
       inkscape:collect="always" />
    <linearGradient
       id="linearGradient5044"
       inkscape:collect="always">
      <stop
         id="stop5040"
         offset="0"
         style="stop-color:#ffe873;stop-opacity:1" />
      <stop
         id="stop5042"
         offset="1"
         style="stop-color:#ffd43b;stop-opacity:1" />
    </linearGradient>
    <linearGradient
       y2="1430.4198"
       x2="-3547.573"
       y1="1370.1543"
       x1="-3504.7263"
       gradientTransform="matrix(0.28222223,0,-0.05283947,0.28222223,959.00005,-326.36366)"
       gradientUnits="userSpaceOnUse"
       id="linearGradient1904"
       xlink:href="#linearGradient5038"
       inkscape:collect="always" />
    <linearGradient
       id="linearGradient5038"
       inkscape:collect="always">
      <stop
         id="stop5034"
         offset="0"
         style="stop-color:#508ec1;stop-opacity:1" />
      <stop
         id="stop5036"
         offset="1"
         style="stop-color:#2f618a;stop-opacity:1" />
    </linearGradient>
    <linearGradient
       inkscape:collect="always"
       xlink:href="#linearGradient6000"
       id="linearGradient15337"
       gradientUnits="userSpaceOnUse"
       x1="-3403.2139"
       y1="1309.8986"
       x2="-3402.9792"
       y2="1323.7513" />
    <linearGradient
       inkscape:collect="always"
       xlink:href="#linearGradient6000"
       id="linearGradient15339"
       gradientUnits="userSpaceOnUse"
       x1="-3399.9836"
       y1="1309.8986"
       x2="-3399.749"
       y2="1323.7513" />
    <linearGradient
       inkscape:collect="always"
       xlink:href="#linearGradient6000"
       id="linearGradient15341"
       gradientUnits="userSpaceOnUse"
       gradientTransform="matrix(1.1306682,0,-0.14749805,1.1306682,-1390.5119,-120.03266)"
       x1="-3385.1858"
       y1="1286.236"
       x2="-3384.9512"
       y2="1300.0887" />
    <linearGradient
       inkscape:collect="always"
       xlink:href="#linearGradient6000"
       id="linearGradient15343"
       gradientUnits="userSpaceOnUse"
       gradientTransform="matrix(1.1306682,0,-0.14749805,1.1306682,-1390.5119,-120.03266)"
       x1="-3385.1858"
       y1="1286.236"
       x2="-3384.9512"
       y2="1300.0887" />
    <linearGradient
       inkscape:collect="always"
       xlink:href="#linearGradient6000"
       id="linearGradient15345"
       gradientUnits="userSpaceOnUse"
       x1="-3428.6704"
       y1="1309.8986"
       x2="-3428.4358"
       y2="1323.7513" />
    <linearGradient
       inkscape:collect="always"
       xlink:href="#linearGradient6000"
       id="linearGradient15347"
       gradientUnits="userSpaceOnUse"
       x1="-3381.5781"
       y1="1308.7268"
       x2="-3381.3435"
       y2="1322.5796" />
    <linearGradient
       inkscape:collect="always"
       xlink:href="#linearGradient6191"
       id="linearGradient15349"
       gradientUnits="userSpaceOnUse"
       x1="-5222.7773"
       y1="1406.4207"
       x2="-5223.2158"
       y2="1374.3113" />
    <linearGradient
       inkscape:collect="always"
       xlink:href="#linearGradient6191"
       id="linearGradient15351"
       gradientUnits="userSpaceOnUse"
       x1="-5222.7773"
       y1="1406.4207"
       x2="-5223.2158"
       y2="1374.3113" />
    <linearGradient
       inkscape:collect="always"
       xlink:href="#linearGradient6191"
       id="linearGradient15353"
       gradientUnits="userSpaceOnUse"
       x1="-5222.7773"
       y1="1406.4207"
       x2="-5223.2158"
       y2="1374.3113" />
    <linearGradient
       inkscape:collect="always"
       xlink:href="#linearGradient6191"
       id="linearGradient15355"
       gradientUnits="userSpaceOnUse"
       x1="-5222.7773"
       y1="1406.4207"
       x2="-5223.2158"
       y2="1374.3113" />
    <linearGradient
       inkscape:collect="always"
       xlink:href="#linearGradient6191"
       id="linearGradient15357"
       gradientUnits="userSpaceOnUse"
       x1="-5222.7773"
       y1="1406.4207"
       x2="-5223.2158"
       y2="1374.3113" />
    <linearGradient
       inkscape:collect="always"
       xlink:href="#linearGradient6191"
       id="linearGradient15359"
       gradientUnits="userSpaceOnUse"
       x1="-5222.7773"
       y1="1406.4207"
       x2="-5223.2158"
       y2="1374.3113" />
  </defs>
  <sodipodi:namedview
     id="base"
     pagecolor="#ffffff"
     bordercolor="#666666"
     borderopacity="1.0"
     inkscape:pageopacity="0.0"
     inkscape:pageshadow="2"
     inkscape:zoom="0.7"
     inkscape:cx="27.098251"
     inkscape:cy="277.09556"
     inkscape:document-units="mm"
     inkscape:current-layer="layer1"
     showgrid="false"
     fit-margin-top="0"
     fit-margin-left="0"
     fit-margin-right="0"
     fit-margin-bottom="0"
     inkscape:window-width="2560"
     inkscape:window-height="1003"
     inkscape:window-x="0"
     inkscape:window-y="384"
     inkscape:window-maximized="1"
     inkscape:object-paths="true"
     inkscape:snap-intersection-paths="true"
     inkscape:snap-smooth-nodes="true" />
  <metadata
     id="metadata11913">
    <rdf:RDF>
      <cc:Work
         rdf:about="">
        <dc:format>image/svg+xml</dc:format>
        <dc:type
           rdf:resource="http://purl.org/dc/dcmitype/StillImage" />
        <dc:title />
      </cc:Work>
    </rdf:RDF>
  </metadata>
  <g
     inkscape:label="Layer 1"
     inkscape:groupmode="layer"
     id="layer1"
     transform="translate(50.702843,-14.168326)">
    <rect
       style="opacity:1;vector-effect:none;fill:none;fill-opacity:0.99074073;stroke:none;stroke-width:1.62415504;stroke-linecap:round;stroke-linejoin:round;stroke-miterlimit:4;stroke-dasharray:none;stroke-dashoffset:0;stroke-opacity:1"
       id="rect11299"
       width="204.21521"
       height="136.28239"
       x="-50.702843"
       y="14.168326" />
    <rect
       y="61.690769"
       x="-10.890802"
       height="56.307861"
       width="124.75919"
       id="rect15423"
       style="opacity:1;vector-effect:none;fill:#f2f2f2;fill-opacity:1;stroke:none;stroke-width:2.97506833;stroke-linecap:round;stroke-linejoin:round;stroke-miterlimit:4;stroke-dasharray:none;stroke-dashoffset:0;stroke-opacity:1" />
    <path
       style="fill:#ffcc00;stroke:none;stroke-width:0.26458332px;stroke-linecap:butt;stroke-linejoin:miter;stroke-opacity:1"
       d="m 47.783559,76.858755 0.02362,14.882811 10.582875,-7.353619 z"
       id="path15437"
       inkscape:connector-curvature="0"
       sodipodi:nodetypes="cccc" />
    <path
       inkscape:connector-curvature="0"
       d="M 73.036951,93.274672 V 75.317877 c 0,-3.411791 -2.873086,-6.284879 -6.284878,-6.284879 H 36.225518 c -3.411792,0 -6.284881,2.873088 -6.284881,6.284879 v 17.956795 c 0,3.4118 2.873089,6.284885 6.284881,6.284885 h 30.526555 c 3.411792,0 6.284878,-2.873085 6.284878,-6.284885 z m -16.340684,-7.362285 -6.284881,4.848334 c -1.436543,1.077408 -3.411789,0 -3.411789,-1.795677 V 79.44794 c 0,-1.795679 1.975246,-2.693519 3.411789,-1.795679 l 6.284881,4.848335 c 1.077408,0.89784 1.077408,2.69352 0,3.411791 z"
       id="path15405"
       style="fill:none;stroke:#333333;stroke-width:2;stroke-miterlimit:4;stroke-dasharray:none" />
    <rect
       style="opacity:1;vector-effect:none;fill:#333333;fill-opacity:1;stroke:none;stroke-width:1.92658103;stroke-linecap:round;stroke-linejoin:round;stroke-miterlimit:4;stroke-dasharray:none;stroke-dashoffset:0;stroke-opacity:1"
       id="rect15093"
       width="124.75919"
       height="23.612921"
       x="-10.890802"
       y="40.156715" />
    <g
       transform="matrix(0.61473493,0,0,0.61473493,5.9014364,3.1590195)"
       id="layer1-5"
       inkscape:label="Layer 1">
      <g
         inkscape:export-ydpi="67.110001"
         inkscape:export-xdpi="67.110001"
         inkscape:export-filename="/home/viniciusramos/Development/pythonacademy/pythonacademy.github.io/assets/img/jornada-python-300.png"
         id="g1232"
         transform="translate(136.25754,14.622299)">
        <path
           inkscape:connector-curvature="0"
           id="path1483"
           d="m -100.84525,60.367945 0.894249,-4.791286 h 5.507454 l -0.435328,2.340214 h -3.853801 l -0.949847,5.094338 h 7.978253 l 1.778565,-1.499052 2.056892,-11.029838 h -16.754457 l -1.84435,9.885624 z"
           style="fill:url(#linearGradient1902);fill-opacity:1;stroke:none;stroke-width:0.42333335;stroke-linecap:butt;stroke-linejoin:miter;stroke-miterlimit:4;stroke-dasharray:none;stroke-opacity:1"
           sodipodi:nodetypes="cccccccccccc" />
        <path
           style="fill:url(#linearGradient1904);fill-opacity:1;stroke:none;stroke-width:0.42333335;stroke-linecap:butt;stroke-linejoin:miter;stroke-miterlimit:4;stroke-dasharray:none;stroke-opacity:1"
           d="m -106.46062,60.324342 -2.06026,11.052302 h -3.8538 l 0.57125,-3.06609 h -5.6235 l -1.44936,7.682428 1.08978,1.339624 h 13.77789 l 3.17082,-17.008264 z"
           id="path1485"
           inkscape:connector-curvature="0"
           sodipodi:nodetypes="cccccccccc" />
        <path
           style="fill:#000000;fill-opacity:0.25490196;stroke:none;stroke-width:0.26458335px;stroke-linecap:butt;stroke-linejoin:miter;stroke-opacity:1"
           d="m -106.46062,60.324342 0.1901,-1.015294 h 5.6235 l -0.1901,1.015294 z"
           id="path1487"
           inkscape:connector-curvature="0"
           sodipodi:nodetypes="ccccc" />
      </g>
      <g
         inkscape:export-ydpi="67.110001"
         inkscape:export-xdpi="67.110001"
         inkscape:export-filename="/home/viniciusramos/Development/pythonacademy/pythonacademy.github.io/assets/img/jornada-python-300.png"
         transform="matrix(0.32725889,0,0,0.32725889,1841.0055,-369.02128)"
         id="g1545">
        <g
           id="g1227">
          <g
             transform="matrix(1.1306682,0,-0.14749805,1.1306682,-1366.6379,-146.78721)"
             id="g1525"
             style="font-style:normal;font-variant:normal;font-weight:bold;font-stretch:normal;font-size:20.34288216px;line-height:1.25;font-family:'Creato Display';-inkscape-font-specification:'Creato Display Bold';text-align:center;letter-spacing:0px;word-spacing:0px;text-anchor:middle;fill:url(#linearGradient1613);fill-opacity:1;stroke:none;stroke-width:0.5085721"
             aria-label="R">
            <path
               sodipodi:nodetypes="ccsscccccccccssscc"
               inkscape:connector-curvature="0"
               id="path1523"
               style="font-style:normal;font-variant:normal;font-weight:bold;font-stretch:normal;font-family:'MADE TOMMY';-inkscape-font-specification:'MADE TOMMY Bold';letter-spacing:0px;fill:url(#linearGradient15337);fill-opacity:1;stroke-width:0.5085721"
               d="m -3408.9922,1323.7274 -3.0311,-5.5536 c 1.363,-0.773 2.197,-2.0546 2.197,-3.7634 0,-2.848 -1.8512,-4.923 -5.4722,-4.923 h -5.4722 v 14.24 h 3.4786 v -4.7602 h 1.9936 0.2034 l 2.4005,4.7602 z m -11.7785,-10.9445 h 5.4722 c 1.1596,0 1.9529,0.5696 1.9529,1.6275 0,1.2205 -0.9357,1.6274 -1.9529,1.6274 h -5.4722 z" />
          </g>
          <g
             transform="matrix(1.1306682,0,-0.14749805,1.1306682,-1370.2901,-146.78721)"
             id="g1529"
             style="font-style:normal;font-variant:normal;font-weight:bold;font-stretch:normal;font-size:20.34288216px;line-height:1.25;font-family:'Creato Display';-inkscape-font-specification:'Creato Display Bold';text-align:center;letter-spacing:0px;word-spacing:0px;text-anchor:middle;fill:url(#linearGradient1617);fill-opacity:1;stroke:none;stroke-width:0.5085721"
             aria-label="A">
            <path
               sodipodi:nodetypes="ccccccccccccc"
               inkscape:connector-curvature="0"
               id="path1527"
               style="font-style:normal;font-variant:normal;font-weight:bold;font-stretch:normal;font-family:'MADE TOMMY';-inkscape-font-specification:'MADE TOMMY Bold';letter-spacing:0px;fill:url(#linearGradient15339);fill-opacity:1;stroke-width:0.5085721"
               d="m -3380.754,1323.7274 h 4.2914 l -5.1264,-14.24 h -4.1093 l -5.1264,14.24 h 4.2892 l 1.3646,-5.2891 h 3.0533 z m -4.4169,-5.2891 1.5272,-5.9198 1.5261,5.9198 z" />
          </g>
          <path
             inkscape:connector-curvature="0"
             d="m -5452.1986,1333.8086 -1.3532,10.3734 c -0.123,0.9431 -0.6591,2.2311 -2.3152,2.2311 -1.449,0 -1.895,-0.989 -1.847,-1.886 l -3.9802,0.713 c -0.214,2.8751 1.882,4.9682 5.3552,4.9682 4.0252,0 6.2222,-2.2081 6.7203,-6.0263 l 1.3533,-10.3734 z"
             style="font-style:normal;font-variant:normal;font-weight:bold;font-stretch:normal;font-size:20.34288216px;line-height:1.25;font-family:'MADE TOMMY';-inkscape-font-specification:'MADE TOMMY Bold';text-align:center;letter-spacing:0px;word-spacing:0px;text-anchor:middle;fill:url(#linearGradient15341);fill-opacity:1;stroke:none;stroke-width:0.57502627"
             id="path1531" />
          <path
             inkscape:connector-curvature="0"
             d="m -5437.8616,1333.5326 c -4.7613,0 -8.6535,3.5651 -9.2746,8.3263 -0.6242,4.7842 2.3379,8.3494 7.0992,8.3494 4.7612,0 8.6535,-3.5652 9.2776,-8.3494 0.6211,-4.7612 -2.341,-8.3263 -7.1022,-8.3263 z m -1.6803,12.8805 c -2.8061,0 -3.9352,-2.277 -3.6381,-4.5542 0.297,-2.277 2.0172,-4.5311 4.8233,-4.5311 2.8061,0 3.9381,2.2541 3.6411,4.5311 -0.2971,2.2772 -2.0202,4.5542 -4.8263,4.5542 z"
             style="font-style:normal;font-variant:normal;font-weight:bold;font-stretch:normal;font-size:20.34288216px;line-height:1.25;font-family:'MADE TOMMY';-inkscape-font-specification:'MADE TOMMY Bold';text-align:center;letter-spacing:0px;word-spacing:0px;text-anchor:middle;fill:url(#linearGradient15343);fill-opacity:1;stroke:none;stroke-width:0.57502627"
             id="path1533" />
          <path
             inkscape:connector-curvature="0"
             d="m -5402.8972,1333.8086 -1.2243,9.3844 -5.055,-9.3844 h -3.4501 l -2.1004,16.1007 h 3.9561 l 1.2242,-9.3845 5.0552,9.3845 h 3.4501 l 2.1004,-16.1007 z"
             style="font-style:normal;font-variant:normal;font-weight:bold;font-stretch:normal;font-size:20.34288216px;line-height:1.25;font-family:'MADE TOMMY';-inkscape-font-specification:'MADE TOMMY Bold';text-align:center;letter-spacing:0px;word-spacing:0px;text-anchor:middle;fill:url(#linearGradient1619);fill-opacity:1;stroke:none;stroke-width:0.57502627"
             id="path1535" />
          <g
             aria-label="A"
             style="font-style:normal;font-variant:normal;font-weight:bold;font-stretch:normal;font-size:20.34288216px;line-height:1.25;font-family:'Creato Display';-inkscape-font-specification:'Creato Display Bold';text-align:center;letter-spacing:0px;word-spacing:0px;text-anchor:middle;fill:url(#linearGradient1627);fill-opacity:1;stroke:none;stroke-width:0.5085721"
             id="g1539"
             transform="matrix(1.1306682,0,-0.14749805,1.1306682,-1337.855,-146.78721)">
            <path
               d="m -3380.754,1323.7274 h 4.2914 l -5.1264,-14.24 h -4.1093 l -5.1264,14.24 h 4.2892 l 1.3646,-5.2891 h 3.0533 z m -4.4169,-5.2891 1.5272,-5.9198 1.5261,5.9198 z"
               style="font-style:normal;font-variant:normal;font-weight:bold;font-stretch:normal;font-family:'MADE TOMMY';-inkscape-font-specification:'MADE TOMMY Bold';letter-spacing:0px;fill:url(#linearGradient15345);fill-opacity:1;stroke-width:0.5085721"
               id="path1537"
               inkscape:connector-curvature="0"
               sodipodi:nodetypes="ccccccccccccc" />
          </g>
          <g
             transform="matrix(1.1306682,0,-0.14749805,1.1306682,-1391.2735,-145.46229)"
             id="g1543"
             style="font-style:normal;font-variant:normal;font-weight:bold;font-stretch:normal;font-size:20.34288216px;line-height:1.25;font-family:'Creato Display';-inkscape-font-specification:'Creato Display Bold';text-align:center;letter-spacing:0px;word-spacing:0px;text-anchor:middle;fill:url(#linearGradient1631);fill-opacity:1;stroke:none;stroke-width:0.5085721"
             aria-label="D">
            <path
               sodipodi:nodetypes="sccssssccccsss"
               inkscape:connector-curvature="0"
               id="path1541"
               style="font-style:normal;font-variant:normal;font-weight:bold;font-stretch:normal;font-family:'MADE TOMMY';-inkscape-font-specification:'MADE TOMMY Bold';letter-spacing:0px;fill:url(#linearGradient15347);fill-opacity:1;stroke-width:0.5085721"
               d="m -3351.6376,1308.3155 h -4.984 v 14.24 h 4.984 c 4.7602,0 7.5675,-2.7666 7.5675,-7.12 0,-4.333 -2.8073,-7.12 -7.5675,-7.12 z m 0,10.9648 h -1.485 -3.499 v -7.6692 h 3.499 1.485 c 2.3394,0 4.0889,1.3019 4.0889,3.8244 0,2.5226 -1.7495,3.8448 -4.0889,3.8448 z" />
          </g>
        </g>
      </g>
      <g
         inkscape:export-ydpi="67.110001"
         inkscape:export-xdpi="67.110001"
         inkscape:export-filename="/home/viniciusramos/Development/pythonacademy/pythonacademy.github.io/assets/img/jornada-python-300.png"
         aria-label="PYTHON"
         transform="matrix(0.27203281,0,-0.03548726,0.27203281,1539.6451,-295.30907)"
         style="font-style:normal;font-variant:normal;font-weight:normal;font-stretch:normal;font-size:72.60617828px;line-height:1.25;font-family:'Super Mario Bros. 2';-inkscape-font-specification:'Super Mario Bros. 2, ';text-align:center;letter-spacing:-29.80483627px;word-spacing:0px;text-anchor:middle;fill:url(#linearGradient1659);fill-opacity:1;stroke:#b3b3b3;stroke-width:0.69;stroke-miterlimit:4;stroke-dasharray:none"
         id="g1575">
        <path
           d="m -5268.5363,1363.7782 h -18.9502 v 50.8243 h 12.4157 v -15.0294 h 6.5345 c 11.0362,0 20.1846,-5.5907 20.1846,-17.5707 0,-10.9636 -7.5511,-18.2242 -20.1846,-18.2242 z m 0,24.6861 h -6.5345 l -10e-5,-3.9162 10e-5,-5.3581 v -3.6496 h 6.5345 c 4.7921,0 7.5511,2.5412 7.5511,6.462 0,4.4289 -3.0495,6.4619 -7.5511,6.4619 z"
           style="font-style:normal;font-variant:normal;font-weight:bold;font-stretch:normal;font-family:'MADE TOMMY';-inkscape-font-specification:'MADE TOMMY Bold';letter-spacing:0px;fill:url(#linearGradient15349);fill-opacity:1;stroke:#b3b3b3;stroke-width:0.69;stroke-miterlimit:4;stroke-dasharray:none"
           id="path1563"
           inkscape:connector-curvature="0"
           sodipodi:nodetypes="sccccssssccccsss" />
        <path
           d="m -5198.4996,1363.7782 h -13.3596 l -11.1813,21.6367 -11.1814,-21.6367 h -13.3595 l 18.2967,31.7289 v 19.0954 h 12.4883 v -19.0954 z"
           style="font-style:normal;font-variant:normal;font-weight:bold;font-stretch:normal;font-family:'MADE TOMMY';-inkscape-font-specification:'MADE TOMMY Bold';letter-spacing:0px;fill:url(#linearGradient15351);fill-opacity:1;stroke:#b3b3b3;stroke-width:0.69;stroke-miterlimit:4;stroke-dasharray:none"
           id="path1565"
           inkscape:connector-curvature="0" />
        <path
           d="m -5159.4148,1363.7782 h -36.2305 v 11.7622 h 11.9074 v 39.0621 h 12.4157 v -39.0621 h 11.9074 z"
           style="font-style:normal;font-variant:normal;font-weight:bold;font-stretch:normal;font-family:'MADE TOMMY';-inkscape-font-specification:'MADE TOMMY Bold';letter-spacing:0px;fill:url(#linearGradient15353);fill-opacity:1;stroke:#b3b3b3;stroke-width:0.69;stroke-miterlimit:4;stroke-dasharray:none"
           id="path1567"
           inkscape:connector-curvature="0" />
        <path
           d="m -5122.0521,1363.7782 v 19.3133 h -18.442 v -19.3133 h -12.4157 v 50.8243 h 12.4157 v -19.7488 h 18.442 v 19.7488 h 12.4156 v -50.8243 z"
           style="font-style:normal;font-variant:normal;font-weight:bold;font-stretch:normal;font-family:'MADE TOMMY';-inkscape-font-specification:'MADE TOMMY Bold';letter-spacing:0px;fill:url(#linearGradient15355);fill-opacity:1;stroke:#b3b3b3;stroke-width:0.69;stroke-miterlimit:4;stroke-dasharray:none"
           id="path1569"
           inkscape:connector-curvature="0" />
        <path
           d="m -5076.8332,1362.9069 c -15.0295,0 -25.8478,11.254 -25.8478,26.2835 0,15.1021 10.8183,26.356 25.8478,26.356 15.0294,0 25.8478,-11.2539 25.8478,-26.356 0,-15.0295 -10.8184,-26.2835 -25.8478,-26.2835 z m 0,40.6595 c -8.858,0 -13.3596,-7.188 -13.3596,-14.376 0,-7.188 4.5016,-14.3034 13.3596,-14.3034 8.8579,0 13.3595,7.1154 13.3595,14.3034 0,7.188 -4.5016,14.376 -13.3595,14.376 z"
           style="font-style:normal;font-variant:normal;font-weight:bold;font-stretch:normal;font-family:'MADE TOMMY';-inkscape-font-specification:'MADE TOMMY Bold';letter-spacing:0px;fill:url(#linearGradient15357);fill-opacity:1;stroke:#b3b3b3;stroke-width:0.69;stroke-miterlimit:4;stroke-dasharray:none"
           id="path1571"
           inkscape:connector-curvature="0" />
        <path
           d="m -5013.4299,1363.7782 v 29.6233 l -19.8215,-29.6233 h -10.8909 v 50.8243 h 12.4882 v -29.6233 l 19.8215,29.6233 h 10.891 v -50.8243 z"
           style="font-style:normal;font-variant:normal;font-weight:bold;font-stretch:normal;font-family:'MADE TOMMY';-inkscape-font-specification:'MADE TOMMY Bold';letter-spacing:0px;fill:url(#linearGradient15359);fill-opacity:1;stroke:#b3b3b3;stroke-width:0.69;stroke-miterlimit:4;stroke-dasharray:none"
           id="path1573"
           inkscape:connector-curvature="0" />
      </g>
    </g>
    <path
       style="fill:none;stroke:#333333;stroke-width:2;stroke-linecap:round;stroke-linejoin:round;stroke-miterlimit:4;stroke-dasharray:none;stroke-opacity:1"
       d="M 29.940637,108.6158 H 73.036949"
       id="path15433"
       inkscape:connector-curvature="0" />
    <path
       inkscape:connector-curvature="0"
       id="path15435"
       d="m 41.944894,111.78998 v -6.34836"
       style="fill:none;stroke:#3771c8;stroke-width:2.5;stroke-linecap:round;stroke-linejoin:round;stroke-miterlimit:4;stroke-dasharray:none;stroke-opacity:1" />
    <path
       id="path11086"
       d="M -13.626153,125.26558 H 116.42901 c 1.1951,0 2.39355,-0.51219 3.2472,-1.36584 0.85364,-0.85365 1.36583,-2.05209 1.36583,-3.2472 V 37.592433 c 0,-1.19511 -0.51219,-2.393553 -1.36583,-3.247203 -0.85365,-0.853649 -2.0521,-1.365839 -3.2472,-1.365839 H -13.626153 c -1.195101,0 -2.393554,0.51219 -3.2472,1.365839 -0.853645,0.85365 -1.365834,2.052093 -1.365834,3.247203 V 120.6492 c 0,1.19511 0.512189,2.39356 1.365834,3.2472 1.02438,1.02772 2.052099,1.36918 3.2472,1.36918 z m 2.73535,-85.108864 H 113.86839 V 118.08792 H -10.890803 Z"
       inkscape:connector-curvature="0"
       style="fill:#cccccc;stroke:#333333;stroke-width:2.5;stroke-miterlimit:4;stroke-dasharray:none"
       sodipodi:nodetypes="ssssssssssscsccccc" />
    <path
       id="path11084"
       d="m 67.723302,123.26389 v 2.90575 H 35.250616 v -2.90575 h -69.213963 v 1.19511 c 0,1.88137 0.682924,3.7594 2.052099,5.12857 1.365834,1.36584 3.247199,2.05209 5.128563,2.05209 H 129.59221 c 1.88136,0 3.7594,-0.68292 5.12857,-2.05209 1.36584,-1.36584 2.05209,-3.2472 2.05209,-5.12857 v -1.19511 z"
       inkscape:connector-curvature="0"
       style="fill:#cccccc;stroke:#333333;stroke-width:2.5;stroke-miterlimit:4;stroke-dasharray:none"
       sodipodi:nodetypes="cccccscsscscc" />
  </g>
</svg>
