<?xml version="1.0" encoding="UTF-8" standalone="no"?>
<!-- Created with Inkscape (http://www.inkscape.org/) -->

<svg
   xmlns:dc="http://purl.org/dc/elements/1.1/"
   xmlns:cc="http://creativecommons.org/ns#"
   xmlns:rdf="http://www.w3.org/1999/02/22-rdf-syntax-ns#"
   xmlns:svg="http://www.w3.org/2000/svg"
   xmlns="http://www.w3.org/2000/svg"
   xmlns:xlink="http://www.w3.org/1999/xlink"
   xmlns:sodipodi="http://sodipodi.sourceforge.net/DTD/sodipodi-0.dtd"
   xmlns:inkscape="http://www.inkscape.org/namespaces/inkscape"
   width="149.20901mm"
   height="74.040054mm"
   viewBox="0 0 149.20901 74.040054"
   version="1.1"
   id="svg5662"
   inkscape:version="0.92.5 (0.92.5+69)"
   sodipodi:docname="headline-img-mac.svg">
  <defs
     id="defs5656">
    <linearGradient
       id="linearGradient4671">
      <stop
         style="stop-color:#ffd43b;stop-opacity:1;"
         offset="0"
         id="stop4673" />
      <stop
         style="stop-color:#ffe873;stop-opacity:1"
         offset="1"
         id="stop4675" />
    </linearGradient>
    <linearGradient
       id="linearGradient4689">
      <stop
         style="stop-color:#5a9fd4;stop-opacity:1;"
         offset="0"
         id="stop4691" />
      <stop
         style="stop-color:#306998;stop-opacity:1;"
         offset="1"
         id="stop4693" />
    </linearGradient>
    <linearGradient
       inkscape:collect="always"
       xlink:href="#linearGradient4671"
       id="linearGradient1475-2"
       gradientUnits="userSpaceOnUse"
       gradientTransform="matrix(0.18727982,0,0,0.18908789,-142.54606,92.379747)"
       x1="150.96111"
       y1="192.35176"
       x2="112.03144"
       y2="137.27299" />
    <linearGradient
       inkscape:collect="always"
       xlink:href="#linearGradient4689"
       id="linearGradient1478-7"
       gradientUnits="userSpaceOnUse"
       gradientTransform="matrix(0.18727982,0,0,0.18908789,-142.10019,93.592537)"
       x1="26.648937"
       y1="20.603781"
       x2="135.66525"
       y2="114.39767" />
  </defs>
  <sodipodi:namedview
     id="base"
     pagecolor="#ffffff"
     bordercolor="#666666"
     borderopacity="1.0"
     inkscape:pageopacity="0.0"
     inkscape:pageshadow="2"
     inkscape:zoom="0.7"
     inkscape:cx="522.53141"
     inkscape:cy="50.843205"
     inkscape:document-units="mm"
     inkscape:current-layer="layer1"
     showgrid="false"
     fit-margin-top="0"
     fit-margin-left="0"
     fit-margin-right="0"
     fit-margin-bottom="0"
     inkscape:window-width="2560"
     inkscape:window-height="993"
     inkscape:window-x="0"
     inkscape:window-y="384"
     inkscape:window-maximized="1" />
  <metadata
     id="metadata5659">
    <rdf:RDF>
      <cc:Work
         rdf:about="">
        <dc:format>image/svg+xml</dc:format>
        <dc:type
           rdf:resource="http://purl.org/dc/dcmitype/StillImage" />
        <dc:title></dc:title>
      </cc:Work>
    </rdf:RDF>
  </metadata>
  <g
     inkscape:label="Layer 1"
     inkscape:groupmode="layer"
     id="layer1"
     transform="translate(193.43223,-79.663687)">
    <path
       inkscape:export-ydpi="128.25133"
       inkscape:export-xdpi="128.25133"
       sodipodi:nodetypes="ccccc"
       inkscape:connector-curvature="0"
       id="path1968-7-1"
       d="m -192.89619,152.06009 h 148.136942 l -2.60739,1.50534 H -190.91906 Z"
       style="fill:none;fill-opacity:1;stroke:none;stroke-width:1.06419003;stroke-miterlimit:4;stroke-dasharray:none;stroke-opacity:1" />
    <path
       inkscape:export-ydpi="128.25133"
       inkscape:export-xdpi="128.25133"
       inkscape:connector-curvature="0"
       id="path1970-0-2"
       d="m -173.0811,80.198797 c -2.12148,0 -3.82934,1.37929 -3.82934,3.09275 v 34.215903 h -4.3e-4 v 29.81236 h 116.166292 v -29.81236 0 -34.215903 c 0,-1.71346 -1.70788,-3.09275 -3.82934,-3.09275 H -173.07906 Z"
       style="fill:none;fill-opacity:1;stroke:#677279;stroke-width:1.07021999;stroke-linecap:round;stroke-linejoin:round;stroke-miterlimit:4;stroke-dasharray:none;stroke-dashoffset:10.80000019;stroke-opacity:1" />
    <rect
       inkscape:export-ydpi="128.25133"
       inkscape:export-xdpi="128.25133"
       style="fill:#2d3336;fill-opacity:1;stroke:#859197;stroke-width:0.69679004;stroke-miterlimit:4;stroke-dasharray:none;stroke-opacity:1"
       id="rect1972-9-9"
       width="108.88313"
       height="63.835083"
       x="-173.26929"
       y="83.671448" />
    <path
       sodipodi:nodetypes="cccc"
       inkscape:export-ydpi="128.25133"
       inkscape:export-xdpi="128.25133"
       style="fill:none;fill-rule:evenodd;stroke:#4f585d;stroke-width:0.60051602;stroke-linecap:round;stroke-linejoin:round;stroke-miterlimit:4;stroke-dasharray:none;stroke-opacity:1"
       d="m -44.527258,152.07317 -2.5206,1.33031 H -191.07406 l -2.05431,-1.32583"
       id="path1974-3-3"
       inkscape:connector-curvature="0" />
    <rect
       rx="0"
       ry="0"
       y="147.71834"
       x="-128.25446"
       height="1.6243657"
       width="18.853533"
       id="rect1978-0-1"
       style="fill:#4f5a5f;fill-opacity:1;stroke:#cccccc;stroke-width:0.32931399;stroke-linecap:round;stroke-linejoin:round;stroke-miterlimit:4;stroke-dasharray:none;stroke-dashoffset:10.80000019;stroke-opacity:1" />
    <rect
       ry="0"
       rx="0"
       y="88.351028"
       x="-169.75085"
       height="54.475918"
       width="101.84628"
       id="rect1980-6-9"
       style="fill:#191c1d;fill-opacity:1;stroke:#191c1d;stroke-width:0.76599997;stroke-linecap:round;stroke-linejoin:round;stroke-miterlimit:4;stroke-dasharray:none;stroke-dashoffset:0;stroke-opacity:1" />
    <circle
       style="fill:none;fill-opacity:1;stroke:#00f572;stroke-width:0.87900001;stroke-miterlimit:4;stroke-dasharray:none;stroke-opacity:1"
       id="path1258-4"
       cx="-187.92175"
       cy="149.44882"
       r="0.53339988" />
    <path
       inkscape:connector-curvature="0"
       style="fill:url(#linearGradient1478-7);fill-opacity:1;stroke:none;stroke-width:0.66583568;stroke-miterlimit:4;stroke-dasharray:none;stroke-opacity:1"
       d="m -118.82594,97.488764 c -1.526,0.008 -2.98327,0.13724 -4.26552,0.36414 -3.77735,0.66733 -4.46317,2.06411 -4.46318,4.640036 v 3.402 h 8.92636 v 1.134 h -8.92636 -3.34998 c -2.59425,0 -4.86584,1.55929 -5.57637,4.5256 -0.81958,3.40008 -0.85594,5.52177 0,9.072 0.63452,2.64265 2.14983,4.5256 4.74408,4.5256 h 3.06908 v -4.07825 c 0,-2.94628 2.5492,-5.54515 5.57637,-5.54515 h 8.91596 c 2.48188,0 4.46318,-2.04351 4.46318,-4.53601 v -8.49979 c 0,-2.41909 -2.04078,-4.236316 -4.46318,-4.640036 -1.53341,-0.25527 -3.12446,-0.37123 -4.65044,-0.36414 z m -4.82732,2.736166 c 0.92203,0 1.675,0.76526 1.675,1.7062 0,0.93761 -0.75297,1.6958 -1.675,1.6958 -0.92533,0 -1.67499,-0.75819 -1.67499,-1.6958 0,-0.94094 0.74966,-1.7062 1.67499,-1.7062 z"
       id="path1948-7" />
    <path
       inkscape:connector-curvature="0"
       style="fill:url(#linearGradient1475-2);fill-opacity:1;stroke:none;stroke-width:0.66583568;stroke-miterlimit:4;stroke-dasharray:none;stroke-opacity:1"
       d="m -109.045,105.81616 v 3.96379 c 0,3.07308 -2.60539,5.6596 -5.57637,5.6596 h -8.91596 c -2.44223,0 -4.46318,2.09022 -4.46318,4.53601 v 8.4998 c 0,2.41909 2.10357,3.84197 4.46318,4.53599 2.82558,0.83084 5.53518,0.98099 8.91596,0 2.24724,-0.65065 4.46318,-1.96008 4.46318,-4.53599 v -3.402 h -8.91596 v -1.13401 h 8.91596 4.46318 c 2.59424,0 3.56097,-1.80954 4.46316,-4.5256 0.93195,-2.79613 0.89231,-5.48507 0,-9.07199 -0.64111,-2.58259 -1.86562,-4.5256 -4.46316,-4.5256 z m -5.01457,21.52519 c 0.92533,0 1.67498,0.7582 1.67498,1.6958 0,0.94094 -0.74965,1.70621 -1.67498,1.70621 -0.92204,0 -1.675,-0.76527 -1.675,-1.70621 1e-5,-0.9376 0.75296,-1.6958 1.675,-1.6958 z"
       id="path1950-8" />
    <path
       inkscape:connector-curvature="0"
       style="fill:none;stroke:#4f585d;stroke-width:1.06799996;stroke-linecap:butt;stroke-linejoin:miter;stroke-miterlimit:4;stroke-dasharray:none;stroke-opacity:1"
       d="m -118.82995,147.50652 -74.06621,-0.16412 v 4.21283 h 148.136932 v -4.21283 z"
       id="path1290-4" />
  </g>
</svg>
