<?xml version="1.0" encoding="UTF-8" standalone="no"?>
<!-- Created with Inkscape (http://www.inkscape.org/) -->

<svg
   xmlns:dc="http://purl.org/dc/elements/1.1/"
   xmlns:cc="http://creativecommons.org/ns#"
   xmlns:rdf="http://www.w3.org/1999/02/22-rdf-syntax-ns#"
   xmlns:svg="http://www.w3.org/2000/svg"
   xmlns="http://www.w3.org/2000/svg"
   xmlns:xlink="http://www.w3.org/1999/xlink"
   xmlns:sodipodi="http://sodipodi.sourceforge.net/DTD/sodipodi-0.dtd"
   xmlns:inkscape="http://www.inkscape.org/namespaces/inkscape"
   width="320.93958mm"
   height="121.06882mm"
   viewBox="0 0 320.93958 121.06882"
   version="1.1"
   id="svg8"
   inkscape:version="0.92.5 (0.92.5+69)"
   sodipodi:docname="python-bground.svg">
  <defs
     id="defs2">
    <linearGradient
       id="linearGradient2795">
      <stop
         id="stop2797"
         offset="0"
         style="stop-color:#b8b8b8;stop-opacity:0.49803922;" />
      <stop
         id="stop2799"
         offset="1"
         style="stop-color:#7f7f7f;stop-opacity:0;" />
    </linearGradient>
    <linearGradient
       id="linearGradient2787">
      <stop
         id="stop2789"
         offset="0"
         style="stop-color:#7f7f7f;stop-opacity:0.5;" />
      <stop
         id="stop2791"
         offset="1"
         style="stop-color:#7f7f7f;stop-opacity:0;" />
    </linearGradient>
    <linearGradient
       id="linearGradient3676">
      <stop
         id="stop3678"
         offset="0"
         style="stop-color:#b2b2b2;stop-opacity:0.5;" />
      <stop
         id="stop3680"
         offset="1"
         style="stop-color:#b3b3b3;stop-opacity:0;" />
    </linearGradient>
    <linearGradient
       id="linearGradient3236">
      <stop
         id="stop3244"
         offset="0"
         style="stop-color:#f4f4f4;stop-opacity:1" />
      <stop
         id="stop3240"
         offset="1"
         style="stop-color:white;stop-opacity:1" />
    </linearGradient>
    <linearGradient
       id="linearGradient4671">
      <stop
         id="stop4673"
         offset="0"
         style="stop-color:#ffd43b;stop-opacity:1;" />
      <stop
         id="stop4675"
         offset="1"
         style="stop-color:#ffe873;stop-opacity:1" />
    </linearGradient>
    <linearGradient
       id="linearGradient4689">
      <stop
         id="stop4691"
         offset="0"
         style="stop-color:#5a9fd4;stop-opacity:1;" />
      <stop
         id="stop4693"
         offset="1"
         style="stop-color:#306998;stop-opacity:1;" />
    </linearGradient>
    <linearGradient
       gradientTransform="translate(100.2702,99.61116)"
       gradientUnits="userSpaceOnUse"
       xlink:href="#linearGradient4671"
       id="linearGradient2987"
       y2="144.75717"
       x2="-65.308502"
       y1="144.75717"
       x1="224.23996" />
    <linearGradient
       gradientTransform="translate(100.2702,99.61116)"
       gradientUnits="userSpaceOnUse"
       xlink:href="#linearGradient4689"
       id="linearGradient2990"
       y2="76.313133"
       x2="26.670298"
       y1="77.475983"
       x1="172.94208" />
    <linearGradient
       y2="144.75717"
       x2="-65.308502"
       y1="144.75717"
       x1="224.23996"
       gradientTransform="matrix(0.562541,0,0,0.567972,-11.5974,-7.60954)"
       gradientUnits="userSpaceOnUse"
       id="linearGradient2255"
       xlink:href="#linearGradient4671"
       inkscape:collect="always" />
    <linearGradient
       y2="76.313133"
       x2="26.670298"
       y1="76.176224"
       x1="172.94208"
       gradientTransform="matrix(0.562541,0,0,0.567972,-11.5974,-7.60954)"
       gradientUnits="userSpaceOnUse"
       id="linearGradient2258"
       xlink:href="#linearGradient4689"
       inkscape:collect="always" />
    <radialGradient
       gradientUnits="userSpaceOnUse"
       gradientTransform="matrix(1,0,0,0.177966,0,108.7434)"
       r="29.036913"
       fy="132.28575"
       fx="61.518883"
       cy="132.28575"
       cx="61.518883"
       id="radialGradient2801"
       xlink:href="#linearGradient2795"
       inkscape:collect="always" />
    <linearGradient
       y2="137.27299"
       x2="112.03144"
       y1="192.35176"
       x1="150.96111"
       gradientTransform="matrix(0.14883897,0,0,0.15027592,-89.229199,-37.53862)"
       gradientUnits="userSpaceOnUse"
       id="linearGradient1475"
       xlink:href="#linearGradient4671"
       inkscape:collect="always" />
    <linearGradient
       y2="114.39767"
       x2="135.66525"
       y1="20.603781"
       x1="26.648937"
       gradientTransform="matrix(0.14883897,0,0,0.15027592,-89.229199,-37.53862)"
       gradientUnits="userSpaceOnUse"
       id="linearGradient1478"
       xlink:href="#linearGradient4689"
       inkscape:collect="always" />
    <linearGradient
       inkscape:collect="always"
       xlink:href="#linearGradient4689"
       id="linearGradient1346"
       gradientUnits="userSpaceOnUse"
       gradientTransform="matrix(0.14883897,0,0,0.15027592,-89.229199,-37.53862)"
       x1="26.648937"
       y1="20.603781"
       x2="135.66525"
       y2="114.39767" />
    <linearGradient
       inkscape:collect="always"
       xlink:href="#linearGradient4671"
       id="linearGradient1348"
       gradientUnits="userSpaceOnUse"
       gradientTransform="matrix(0.14883897,0,0,0.15027592,-89.229199,-37.53862)"
       x1="150.96111"
       y1="192.35176"
       x2="112.03144"
       y2="137.27299" />
    <linearGradient
       inkscape:collect="always"
       xlink:href="#linearGradient4689"
       id="linearGradient1356"
       gradientUnits="userSpaceOnUse"
       gradientTransform="matrix(0.14883897,0,0,0.15027592,-89.229199,-37.53862)"
       x1="26.648937"
       y1="20.603781"
       x2="135.66525"
       y2="114.39767" />
    <linearGradient
       inkscape:collect="always"
       xlink:href="#linearGradient4671"
       id="linearGradient1358"
       gradientUnits="userSpaceOnUse"
       gradientTransform="matrix(0.14883897,0,0,0.15027592,-89.229199,-37.53862)"
       x1="150.96111"
       y1="192.35176"
       x2="112.03144"
       y2="137.27299" />
    <linearGradient
       inkscape:collect="always"
       xlink:href="#linearGradient4689"
       id="linearGradient1366"
       gradientUnits="userSpaceOnUse"
       gradientTransform="matrix(0.14883897,0,0,0.15027592,-89.229199,-37.53862)"
       x1="26.648937"
       y1="20.603781"
       x2="135.66525"
       y2="114.39767" />
    <linearGradient
       inkscape:collect="always"
       xlink:href="#linearGradient4671"
       id="linearGradient1368"
       gradientUnits="userSpaceOnUse"
       gradientTransform="matrix(0.14883897,0,0,0.15027592,-89.229199,-37.53862)"
       x1="150.96111"
       y1="192.35176"
       x2="112.03144"
       y2="137.27299" />
    <linearGradient
       inkscape:collect="always"
       xlink:href="#linearGradient4689"
       id="linearGradient1376"
       gradientUnits="userSpaceOnUse"
       gradientTransform="matrix(0.14883897,0,0,0.15027592,-89.229199,-37.53862)"
       x1="26.648937"
       y1="20.603781"
       x2="135.66525"
       y2="114.39767" />
    <linearGradient
       inkscape:collect="always"
       xlink:href="#linearGradient4671"
       id="linearGradient1378"
       gradientUnits="userSpaceOnUse"
       gradientTransform="matrix(0.14883897,0,0,0.15027592,-89.229199,-37.53862)"
       x1="150.96111"
       y1="192.35176"
       x2="112.03144"
       y2="137.27299" />
    <linearGradient
       inkscape:collect="always"
       xlink:href="#linearGradient4689"
       id="linearGradient1386"
       gradientUnits="userSpaceOnUse"
       gradientTransform="matrix(0.14883897,0,0,0.15027592,-89.229199,-37.53862)"
       x1="26.648937"
       y1="20.603781"
       x2="135.66525"
       y2="114.39767" />
    <linearGradient
       inkscape:collect="always"
       xlink:href="#linearGradient4671"
       id="linearGradient1388"
       gradientUnits="userSpaceOnUse"
       gradientTransform="matrix(0.14883897,0,0,0.15027592,-89.229199,-37.53862)"
       x1="150.96111"
       y1="192.35176"
       x2="112.03144"
       y2="137.27299" />
    <linearGradient
       inkscape:collect="always"
       xlink:href="#linearGradient4689"
       id="linearGradient1396"
       gradientUnits="userSpaceOnUse"
       gradientTransform="matrix(0.14883897,0,0,0.15027592,-89.229199,-37.53862)"
       x1="26.648937"
       y1="20.603781"
       x2="135.66525"
       y2="114.39767" />
    <linearGradient
       inkscape:collect="always"
       xlink:href="#linearGradient4671"
       id="linearGradient1398"
       gradientUnits="userSpaceOnUse"
       gradientTransform="matrix(0.14883897,0,0,0.15027592,-89.229199,-37.53862)"
       x1="150.96111"
       y1="192.35176"
       x2="112.03144"
       y2="137.27299" />
    <linearGradient
       inkscape:collect="always"
       xlink:href="#linearGradient4689"
       id="linearGradient1406"
       gradientUnits="userSpaceOnUse"
       gradientTransform="matrix(0.14883897,0,0,0.15027592,-89.229199,-37.53862)"
       x1="26.648937"
       y1="20.603781"
       x2="135.66525"
       y2="114.39767" />
    <linearGradient
       inkscape:collect="always"
       xlink:href="#linearGradient4671"
       id="linearGradient1408"
       gradientUnits="userSpaceOnUse"
       gradientTransform="matrix(0.14883897,0,0,0.15027592,-89.229199,-37.53862)"
       x1="150.96111"
       y1="192.35176"
       x2="112.03144"
       y2="137.27299" />
  </defs>
  <sodipodi:namedview
     id="base"
     pagecolor="#ffffff"
     bordercolor="#666666"
     borderopacity="1.0"
     inkscape:pageopacity="0.0"
     inkscape:pageshadow="2"
     inkscape:zoom="0.98994949"
     inkscape:cx="399.49528"
     inkscape:cy="182.9075"
     inkscape:document-units="mm"
     inkscape:current-layer="layer1"
     showgrid="false"
     fit-margin-top="0"
     fit-margin-left="0"
     fit-margin-right="0"
     fit-margin-bottom="0"
     inkscape:window-width="2560"
     inkscape:window-height="993"
     inkscape:window-x="0"
     inkscape:window-y="384"
     inkscape:window-maximized="1" />
  <metadata
     id="metadata5">
    <rdf:RDF>
      <cc:Work
         rdf:about="">
        <dc:format>image/svg+xml</dc:format>
        <dc:type
           rdf:resource="http://purl.org/dc/dcmitype/StillImage" />
        <dc:title></dc:title>
      </cc:Work>
    </rdf:RDF>
  </metadata>
  <g
     inkscape:label="Layer 1"
     inkscape:groupmode="layer"
     id="layer1"
     transform="translate(177.10075,-98.882257)">
    <circle
       id="circle2"
       r="0.26458332"
       cy="189.23746"
       cx="-176.70387"
       style="opacity:0.15;fill:#ffd42a;fill-rule:evenodd;stroke:#ffd42a;stroke-width:0.26458332" />
    <circle
       id="circle4"
       r="0.26458332"
       cy="101.92496"
       cx="40.254456"
       style="opacity:0.15;fill:#3771c8;fill-rule:evenodd;stroke:#3771c8;stroke-width:0.26458332" />
    <circle
       id="circle6"
       r="0.26458332"
       cy="101.92496"
       cx="5.8586259"
       style="opacity:0.15;fill:#3771c8;fill-rule:evenodd;stroke:#3771c8;stroke-width:0.26458332" />
    <circle
       id="circle8"
       r="0.26458332"
       cy="136.3208"
       cx="124.92113"
       style="opacity:0.15;fill:#ffcc00;fill-rule:evenodd;stroke:#ffcc00;stroke-width:0.26458332" />
    <circle
       id="circle10"
       r="0.26458332"
       cy="160.1333"
       cx="143.44197"
       style="opacity:0.15;fill:#ffcc00;fill-rule:evenodd;stroke:#ffcc00;stroke-width:0.26458332" />
    <circle
       id="ellipse20"
       cy="149.41768"
       cx="-180.80492"
       r="0"
       style="fill:#d8d8d8;fill-rule:evenodd;stroke-width:0.26458332" />
    <g
       id="g1316"
       transform="matrix(0.14590934,0,0,0.14590934,-76.789758,109.58583)">
      <path
         id="path1948"
         d="m -70.732203,-34.442125 c -1.212759,0.0056 -2.370916,0.109066 -3.389974,0.289388 -3.00202,0.530358 -3.54707,1.640444 -3.547071,3.68763 v 2.703711 h 7.094141 v 0.901237 h -7.094141 -2.662369 c -2.061755,0 -3.867087,1.239233 -4.431771,3.59668 -0.651357,2.70218 -0.680248,4.388385 0,7.209895 0.504277,2.100224 1.708558,3.59668 3.770312,3.59668 h 2.439128 v -3.241146 c 0,-2.341536 2.025953,-4.406965 4.431771,-4.406966 h 7.085872 c 1.972456,0 3.547071,-1.624056 3.54707,-3.604948 v -6.755143 c 0,-1.922552 -1.62189,-3.366764 -3.54707,-3.68763 -1.218667,-0.202863 -2.48314,-0.295023 -3.695898,-0.289388 z m -3.836459,2.174544 c 0.732776,0 1.331185,0.608184 1.331185,1.35599 0,0.745155 -0.598409,1.347721 -1.331185,1.347721 -0.735403,0 -1.331185,-0.602566 -1.331185,-1.347721 0,-0.747806 0.595782,-1.35599 1.331185,-1.35599 z"
         style="fill:url(#linearGradient1478);fill-opacity:1;stroke-width:0.26458332"
         inkscape:connector-curvature="0" />
      <path
         id="path1950"
         d="m -62.604534,-26.860159 v 3.150195 c 0,2.442304 -2.070602,4.497917 -4.431771,4.497917 h -7.085872 c -1.940939,0 -3.54707,1.661182 -3.547071,3.604948 v 6.7551422 c 0,1.9225524 1.671793,3.0533763 3.547071,3.6049478 2.245606,0.6602968 4.399025,0.7796292 7.085872,0 1.785978,-0.517099 3.547071,-1.5577634 3.54707,-3.6049478 v -2.7037102 h -7.085872 v -0.901237 h 7.085872 3.547072 c 2.061755,0 2.830049,-1.438118 3.547067,-3.59668 0.740656,-2.222205 0.709142,-4.359215 0,-7.209895 -0.509529,-2.05249 -1.48269,-3.59668 -3.547067,-3.59668 z m -3.985287,17.106966 c 0.735404,8e-7 1.331185,0.6025666 1.331185,1.3477205 0,0.7478051 -0.595782,1.3559896 -1.331185,1.3559896 -0.732776,0 -1.331185,-0.6081845 -1.331185,-1.3559896 1e-6,-0.7451539 0.598408,-1.3477205 1.331185,-1.3477205 z"
         style="fill:url(#linearGradient1475);fill-opacity:1;stroke-width:0.26458332"
         inkscape:connector-curvature="0" />
    </g>
    <g
       transform="matrix(0.05265882,0,0,0.05265882,-56.503866,100.78827)"
       id="g1344">
      <path
         inkscape:connector-curvature="0"
         style="fill:url(#linearGradient1346);fill-opacity:1;stroke-width:0.26458332"
         d="m -70.732203,-34.442125 c -1.212759,0.0056 -2.370916,0.109066 -3.389974,0.289388 -3.00202,0.530358 -3.54707,1.640444 -3.547071,3.68763 v 2.703711 h 7.094141 v 0.901237 h -7.094141 -2.662369 c -2.061755,0 -3.867087,1.239233 -4.431771,3.59668 -0.651357,2.70218 -0.680248,4.388385 0,7.209895 0.504277,2.100224 1.708558,3.59668 3.770312,3.59668 h 2.439128 v -3.241146 c 0,-2.341536 2.025953,-4.406965 4.431771,-4.406966 h 7.085872 c 1.972456,0 3.547071,-1.624056 3.54707,-3.604948 v -6.755143 c 0,-1.922552 -1.62189,-3.366764 -3.54707,-3.68763 -1.218667,-0.202863 -2.48314,-0.295023 -3.695898,-0.289388 z m -3.836459,2.174544 c 0.732776,0 1.331185,0.608184 1.331185,1.35599 0,0.745155 -0.598409,1.347721 -1.331185,1.347721 -0.735403,0 -1.331185,-0.602566 -1.331185,-1.347721 0,-0.747806 0.595782,-1.35599 1.331185,-1.35599 z"
         id="path1340" />
      <path
         inkscape:connector-curvature="0"
         style="fill:url(#linearGradient1348);fill-opacity:1;stroke-width:0.26458332"
         d="m -62.604534,-26.860159 v 3.150195 c 0,2.442304 -2.070602,4.497917 -4.431771,4.497917 h -7.085872 c -1.940939,0 -3.54707,1.661182 -3.547071,3.604948 v 6.7551422 c 0,1.9225524 1.671793,3.0533763 3.547071,3.6049478 2.245606,0.6602968 4.399025,0.7796292 7.085872,0 1.785978,-0.517099 3.547071,-1.5577634 3.54707,-3.6049478 v -2.7037102 h -7.085872 v -0.901237 h 7.085872 3.547072 c 2.061755,0 2.830049,-1.438118 3.547067,-3.59668 0.740656,-2.222205 0.709142,-4.359215 0,-7.209895 -0.509529,-2.05249 -1.48269,-3.59668 -3.547067,-3.59668 z m -3.985287,17.106966 c 0.735404,8e-7 1.331185,0.6025666 1.331185,1.3477205 0,0.7478051 -0.595782,1.3559896 -1.331185,1.3559896 -0.732776,0 -1.331185,-0.6081845 -1.331185,-1.3559896 1e-6,-0.7451539 0.598408,-1.3477205 1.331185,-1.3477205 z"
         id="path1342" />
    </g>
    <g
       id="g1354"
       transform="matrix(0.07251969,0,0,0.07251969,-30.974349,111.37058)">
      <path
         id="path1350"
         d="m -70.732203,-34.442125 c -1.212759,0.0056 -2.370916,0.109066 -3.389974,0.289388 -3.00202,0.530358 -3.54707,1.640444 -3.547071,3.68763 v 2.703711 h 7.094141 v 0.901237 h -7.094141 -2.662369 c -2.061755,0 -3.867087,1.239233 -4.431771,3.59668 -0.651357,2.70218 -0.680248,4.388385 0,7.209895 0.504277,2.100224 1.708558,3.59668 3.770312,3.59668 h 2.439128 v -3.241146 c 0,-2.341536 2.025953,-4.406965 4.431771,-4.406966 h 7.085872 c 1.972456,0 3.547071,-1.624056 3.54707,-3.604948 v -6.755143 c 0,-1.922552 -1.62189,-3.366764 -3.54707,-3.68763 -1.218667,-0.202863 -2.48314,-0.295023 -3.695898,-0.289388 z m -3.836459,2.174544 c 0.732776,0 1.331185,0.608184 1.331185,1.35599 0,0.745155 -0.598409,1.347721 -1.331185,1.347721 -0.735403,0 -1.331185,-0.602566 -1.331185,-1.347721 0,-0.747806 0.595782,-1.35599 1.331185,-1.35599 z"
         style="fill:url(#linearGradient1356);fill-opacity:1;stroke-width:0.26458332"
         inkscape:connector-curvature="0" />
      <path
         id="path1352"
         d="m -62.604534,-26.860159 v 3.150195 c 0,2.442304 -2.070602,4.497917 -4.431771,4.497917 h -7.085872 c -1.940939,0 -3.54707,1.661182 -3.547071,3.604948 v 6.7551422 c 0,1.9225524 1.671793,3.0533763 3.547071,3.6049478 2.245606,0.6602968 4.399025,0.7796292 7.085872,0 1.785978,-0.517099 3.547071,-1.5577634 3.54707,-3.6049478 v -2.7037102 h -7.085872 v -0.901237 h 7.085872 3.547072 c 2.061755,0 2.830049,-1.438118 3.547067,-3.59668 0.740656,-2.222205 0.709142,-4.359215 0,-7.209895 -0.509529,-2.05249 -1.48269,-3.59668 -3.547067,-3.59668 z m -3.985287,17.106966 c 0.735404,8e-7 1.331185,0.6025666 1.331185,1.3477205 0,0.7478051 -0.595782,1.3559896 -1.331185,1.3559896 -0.732776,0 -1.331185,-0.6081845 -1.331185,-1.3559896 1e-6,-0.7451539 0.598408,-1.3477205 1.331185,-1.3477205 z"
         style="fill:url(#linearGradient1358);fill-opacity:1;stroke-width:0.26458332"
         inkscape:connector-curvature="0" />
    </g>
    <g
       transform="matrix(0.17964409,0,0,0.17964409,-129.57043,220.6806)"
       id="g1364">
      <path
         inkscape:connector-curvature="0"
         style="fill:url(#linearGradient1366);fill-opacity:1;stroke-width:0.26458332"
         d="m -70.732203,-34.442125 c -1.212759,0.0056 -2.370916,0.109066 -3.389974,0.289388 -3.00202,0.530358 -3.54707,1.640444 -3.547071,3.68763 v 2.703711 h 7.094141 v 0.901237 h -7.094141 -2.662369 c -2.061755,0 -3.867087,1.239233 -4.431771,3.59668 -0.651357,2.70218 -0.680248,4.388385 0,7.209895 0.504277,2.100224 1.708558,3.59668 3.770312,3.59668 h 2.439128 v -3.241146 c 0,-2.341536 2.025953,-4.406965 4.431771,-4.406966 h 7.085872 c 1.972456,0 3.547071,-1.624056 3.54707,-3.604948 v -6.755143 c 0,-1.922552 -1.62189,-3.366764 -3.54707,-3.68763 -1.218667,-0.202863 -2.48314,-0.295023 -3.695898,-0.289388 z m -3.836459,2.174544 c 0.732776,0 1.331185,0.608184 1.331185,1.35599 0,0.745155 -0.598409,1.347721 -1.331185,1.347721 -0.735403,0 -1.331185,-0.602566 -1.331185,-1.347721 0,-0.747806 0.595782,-1.35599 1.331185,-1.35599 z"
         id="path1360" />
      <path
         inkscape:connector-curvature="0"
         style="fill:url(#linearGradient1368);fill-opacity:1;stroke-width:0.26458332"
         d="m -62.604534,-26.860159 v 3.150195 c 0,2.442304 -2.070602,4.497917 -4.431771,4.497917 h -7.085872 c -1.940939,0 -3.54707,1.661182 -3.547071,3.604948 v 6.7551422 c 0,1.9225524 1.671793,3.0533763 3.547071,3.6049478 2.245606,0.6602968 4.399025,0.7796292 7.085872,0 1.785978,-0.517099 3.547071,-1.5577634 3.54707,-3.6049478 v -2.7037102 h -7.085872 v -0.901237 h 7.085872 3.547072 c 2.061755,0 2.830049,-1.438118 3.547067,-3.59668 0.740656,-2.222205 0.709142,-4.359215 0,-7.209895 -0.509529,-2.05249 -1.48269,-3.59668 -3.547067,-3.59668 z m -3.985287,17.106966 c 0.735404,8e-7 1.331185,0.6025666 1.331185,1.3477205 0,0.7478051 -0.595782,1.3559896 -1.331185,1.3559896 -0.732776,0 -1.331185,-0.6081845 -1.331185,-1.3559896 1e-6,-0.7451539 0.598408,-1.3477205 1.331185,-1.3477205 z"
         id="path1362" />
    </g>
    <g
       id="g1374"
       transform="matrix(0.10212257,0,0,0.10212257,38.979577,220.37917)">
      <path
         id="path1370"
         d="m -70.732203,-34.442125 c -1.212759,0.0056 -2.370916,0.109066 -3.389974,0.289388 -3.00202,0.530358 -3.54707,1.640444 -3.547071,3.68763 v 2.703711 h 7.094141 v 0.901237 h -7.094141 -2.662369 c -2.061755,0 -3.867087,1.239233 -4.431771,3.59668 -0.651357,2.70218 -0.680248,4.388385 0,7.209895 0.504277,2.100224 1.708558,3.59668 3.770312,3.59668 h 2.439128 v -3.241146 c 0,-2.341536 2.025953,-4.406965 4.431771,-4.406966 h 7.085872 c 1.972456,0 3.547071,-1.624056 3.54707,-3.604948 v -6.755143 c 0,-1.922552 -1.62189,-3.366764 -3.54707,-3.68763 -1.218667,-0.202863 -2.48314,-0.295023 -3.695898,-0.289388 z m -3.836459,2.174544 c 0.732776,0 1.331185,0.608184 1.331185,1.35599 0,0.745155 -0.598409,1.347721 -1.331185,1.347721 -0.735403,0 -1.331185,-0.602566 -1.331185,-1.347721 0,-0.747806 0.595782,-1.35599 1.331185,-1.35599 z"
         style="fill:url(#linearGradient1376);fill-opacity:1;stroke-width:0.26458332"
         inkscape:connector-curvature="0" />
      <path
         id="path1372"
         d="m -62.604534,-26.860159 v 3.150195 c 0,2.442304 -2.070602,4.497917 -4.431771,4.497917 h -7.085872 c -1.940939,0 -3.54707,1.661182 -3.547071,3.604948 v 6.7551422 c 0,1.9225524 1.671793,3.0533763 3.547071,3.6049478 2.245606,0.6602968 4.399025,0.7796292 7.085872,0 1.785978,-0.517099 3.547071,-1.5577634 3.54707,-3.6049478 v -2.7037102 h -7.085872 v -0.901237 h 7.085872 3.547072 c 2.061755,0 2.830049,-1.438118 3.547067,-3.59668 0.740656,-2.222205 0.709142,-4.359215 0,-7.209895 -0.509529,-2.05249 -1.48269,-3.59668 -3.547067,-3.59668 z m -3.985287,17.106966 c 0.735404,8e-7 1.331185,0.6025666 1.331185,1.3477205 0,0.7478051 -0.595782,1.3559896 -1.331185,1.3559896 -0.732776,0 -1.331185,-0.6081845 -1.331185,-1.3559896 1e-6,-0.7451539 0.598408,-1.3477205 1.331185,-1.3477205 z"
         style="fill:url(#linearGradient1378);fill-opacity:1;stroke-width:0.26458332"
         inkscape:connector-curvature="0" />
    </g>
    <g
       transform="matrix(0.10212257,0,0,0.10212257,82.344058,193.71903)"
       id="g1384">
      <path
         inkscape:connector-curvature="0"
         style="fill:url(#linearGradient1386);fill-opacity:1;stroke-width:0.26458332"
         d="m -70.732203,-34.442125 c -1.212759,0.0056 -2.370916,0.109066 -3.389974,0.289388 -3.00202,0.530358 -3.54707,1.640444 -3.547071,3.68763 v 2.703711 h 7.094141 v 0.901237 h -7.094141 -2.662369 c -2.061755,0 -3.867087,1.239233 -4.431771,3.59668 -0.651357,2.70218 -0.680248,4.388385 0,7.209895 0.504277,2.100224 1.708558,3.59668 3.770312,3.59668 h 2.439128 v -3.241146 c 0,-2.341536 2.025953,-4.406965 4.431771,-4.406966 h 7.085872 c 1.972456,0 3.547071,-1.624056 3.54707,-3.604948 v -6.755143 c 0,-1.922552 -1.62189,-3.366764 -3.54707,-3.68763 -1.218667,-0.202863 -2.48314,-0.295023 -3.695898,-0.289388 z m -3.836459,2.174544 c 0.732776,0 1.331185,0.608184 1.331185,1.35599 0,0.745155 -0.598409,1.347721 -1.331185,1.347721 -0.735403,0 -1.331185,-0.602566 -1.331185,-1.347721 0,-0.747806 0.595782,-1.35599 1.331185,-1.35599 z"
         id="path1380" />
      <path
         inkscape:connector-curvature="0"
         style="fill:url(#linearGradient1388);fill-opacity:1;stroke-width:0.26458332"
         d="m -62.604534,-26.860159 v 3.150195 c 0,2.442304 -2.070602,4.497917 -4.431771,4.497917 h -7.085872 c -1.940939,0 -3.54707,1.661182 -3.547071,3.604948 v 6.7551422 c 0,1.9225524 1.671793,3.0533763 3.547071,3.6049478 2.245606,0.6602968 4.399025,0.7796292 7.085872,0 1.785978,-0.517099 3.547071,-1.5577634 3.54707,-3.6049478 v -2.7037102 h -7.085872 v -0.901237 h 7.085872 3.547072 c 2.061755,0 2.830049,-1.438118 3.547067,-3.59668 0.740656,-2.222205 0.709142,-4.359215 0,-7.209895 -0.509529,-2.05249 -1.48269,-3.59668 -3.547067,-3.59668 z m -3.985287,17.106966 c 0.735404,8e-7 1.331185,0.6025666 1.331185,1.3477205 0,0.7478051 -0.595782,1.3559896 -1.331185,1.3559896 -0.732776,0 -1.331185,-0.6081845 -1.331185,-1.3559896 1e-6,-0.7451539 0.598408,-1.3477205 1.331185,-1.3477205 z"
         id="path1382" />
    </g>
    <g
       id="g1394"
       transform="matrix(0.10212257,0,0,0.10212257,109.08587,132.01442)">
      <path
         id="path1390"
         d="m -70.732203,-34.442125 c -1.212759,0.0056 -2.370916,0.109066 -3.389974,0.289388 -3.00202,0.530358 -3.54707,1.640444 -3.547071,3.68763 v 2.703711 h 7.094141 v 0.901237 h -7.094141 -2.662369 c -2.061755,0 -3.867087,1.239233 -4.431771,3.59668 -0.651357,2.70218 -0.680248,4.388385 0,7.209895 0.504277,2.100224 1.708558,3.59668 3.770312,3.59668 h 2.439128 v -3.241146 c 0,-2.341536 2.025953,-4.406965 4.431771,-4.406966 h 7.085872 c 1.972456,0 3.547071,-1.624056 3.54707,-3.604948 v -6.755143 c 0,-1.922552 -1.62189,-3.366764 -3.54707,-3.68763 -1.218667,-0.202863 -2.48314,-0.295023 -3.695898,-0.289388 z m -3.836459,2.174544 c 0.732776,0 1.331185,0.608184 1.331185,1.35599 0,0.745155 -0.598409,1.347721 -1.331185,1.347721 -0.735403,0 -1.331185,-0.602566 -1.331185,-1.347721 0,-0.747806 0.595782,-1.35599 1.331185,-1.35599 z"
         style="fill:url(#linearGradient1396);fill-opacity:1;stroke-width:0.26458332"
         inkscape:connector-curvature="0" />
      <path
         id="path1392"
         d="m -62.604534,-26.860159 v 3.150195 c 0,2.442304 -2.070602,4.497917 -4.431771,4.497917 h -7.085872 c -1.940939,0 -3.54707,1.661182 -3.547071,3.604948 v 6.7551422 c 0,1.9225524 1.671793,3.0533763 3.547071,3.6049478 2.245606,0.6602968 4.399025,0.7796292 7.085872,0 1.785978,-0.517099 3.547071,-1.5577634 3.54707,-3.6049478 v -2.7037102 h -7.085872 v -0.901237 h 7.085872 3.547072 c 2.061755,0 2.830049,-1.438118 3.547067,-3.59668 0.740656,-2.222205 0.709142,-4.359215 0,-7.209895 -0.509529,-2.05249 -1.48269,-3.59668 -3.547067,-3.59668 z m -3.985287,17.106966 c 0.735404,8e-7 1.331185,0.6025666 1.331185,1.3477205 0,0.7478051 -0.595782,1.3559896 -1.331185,1.3559896 -0.732776,0 -1.331185,-0.6081845 -1.331185,-1.3559896 1e-6,-0.7451539 0.598408,-1.3477205 1.331185,-1.3477205 z"
         style="fill:url(#linearGradient1398);fill-opacity:1;stroke-width:0.26458332"
         inkscape:connector-curvature="0" />
    </g>
    <g
       transform="matrix(0.17852059,0,0,0.17852059,152.07448,120.09367)"
       id="g1404">
      <path
         inkscape:connector-curvature="0"
         style="fill:url(#linearGradient1406);fill-opacity:1;stroke-width:0.26458332"
         d="m -70.732203,-34.442125 c -1.212759,0.0056 -2.370916,0.109066 -3.389974,0.289388 -3.00202,0.530358 -3.54707,1.640444 -3.547071,3.68763 v 2.703711 h 7.094141 v 0.901237 h -7.094141 -2.662369 c -2.061755,0 -3.867087,1.239233 -4.431771,3.59668 -0.651357,2.70218 -0.680248,4.388385 0,7.209895 0.504277,2.100224 1.708558,3.59668 3.770312,3.59668 h 2.439128 v -3.241146 c 0,-2.341536 2.025953,-4.406965 4.431771,-4.406966 h 7.085872 c 1.972456,0 3.547071,-1.624056 3.54707,-3.604948 v -6.755143 c 0,-1.922552 -1.62189,-3.366764 -3.54707,-3.68763 -1.218667,-0.202863 -2.48314,-0.295023 -3.695898,-0.289388 z m -3.836459,2.174544 c 0.732776,0 1.331185,0.608184 1.331185,1.35599 0,0.745155 -0.598409,1.347721 -1.331185,1.347721 -0.735403,0 -1.331185,-0.602566 -1.331185,-1.347721 0,-0.747806 0.595782,-1.35599 1.331185,-1.35599 z"
         id="path1400" />
      <path
         inkscape:connector-curvature="0"
         style="fill:url(#linearGradient1408);fill-opacity:1;stroke-width:0.26458332"
         d="m -62.604534,-26.860159 v 3.150195 c 0,2.442304 -2.070602,4.497917 -4.431771,4.497917 h -7.085872 c -1.940939,0 -3.54707,1.661182 -3.547071,3.604948 v 6.7551422 c 0,1.9225524 1.671793,3.0533763 3.547071,3.6049478 2.245606,0.6602968 4.399025,0.7796292 7.085872,0 1.785978,-0.517099 3.547071,-1.5577634 3.54707,-3.6049478 v -2.7037102 h -7.085872 v -0.901237 h 7.085872 3.547072 c 2.061755,0 2.830049,-1.438118 3.547067,-3.59668 0.740656,-2.222205 0.709142,-4.359215 0,-7.209895 -0.509529,-2.05249 -1.48269,-3.59668 -3.547067,-3.59668 z m -3.985287,17.106966 c 0.735404,8e-7 1.331185,0.6025666 1.331185,1.3477205 0,0.7478051 -0.595782,1.3559896 -1.331185,1.3559896 -0.732776,0 -1.331185,-0.6081845 -1.331185,-1.3559896 1e-6,-0.7451539 0.598408,-1.3477205 1.331185,-1.3477205 z"
         id="path1402" />
    </g>
  </g>
</svg>
