<?xml version="1.0" encoding="UTF-8" standalone="no"?>
<!-- Created with Inkscape (http://www.inkscape.org/) -->

<svg
   xmlns:dc="http://purl.org/dc/elements/1.1/"
   xmlns:cc="http://creativecommons.org/ns#"
   xmlns:rdf="http://www.w3.org/1999/02/22-rdf-syntax-ns#"
   xmlns:svg="http://www.w3.org/2000/svg"
   xmlns="http://www.w3.org/2000/svg"
   xmlns:xlink="http://www.w3.org/1999/xlink"
   xmlns:sodipodi="http://sodipodi.sourceforge.net/DTD/sodipodi-0.dtd"
   xmlns:inkscape="http://www.inkscape.org/namespaces/inkscape"
   width="197.55849mm"
   height="141.10895mm"
   viewBox="0 0 197.55849 141.10895"
   version="1.1"
   id="svg978"
   inkscape:version="0.92.5 (0.92.5+69)"
   sodipodi:docname="featured_img.svg">
  <defs
     id="defs972">
    <marker
       inkscape:stockid="TriangleOutS"
       orient="auto"
       refY="0"
       refX="0"
       id="marker4839"
       style="overflow:visible"
       inkscape:isstock="true">
      <path
         inkscape:connector-curvature="0"
         id="path4837"
         d="M 5.77,0 -2.88,5 V -5 Z"
         style="fill:#3771c8;fill-opacity:1;fill-rule:evenodd;stroke:#3771c8;stroke-width:1.00000003pt;stroke-opacity:1"
         transform="scale(0.2)" />
    </marker>
    <marker
       inkscape:stockid="TriangleOutS"
       orient="auto"
       refY="0"
       refX="0"
       id="TriangleOutS"
       style="overflow:visible"
       inkscape:isstock="true">
      <path
         inkscape:connector-curvature="0"
         id="path4377"
         d="M 5.77,0 -2.88,5 V -5 Z"
         style="fill:#ffcc00;fill-opacity:1;fill-rule:evenodd;stroke:#ffcc00;stroke-width:1.00000003pt;stroke-opacity:1"
         transform="scale(0.2)" />
    </marker>
    <linearGradient
       xlink:href="#e"
       gradientUnits="userSpaceOnUse"
       gradientTransform="matrix(0.07204893,0,0,0.07288751,-193.94727,63.967619)"
       y2="137.27"
       y1="192.35001"
       x2="112.03"
       x1="150.96001"
       id="a" />
    <linearGradient
       id="e">
      <stop
         id="stop3"
         offset="0"
         stop-color="#ffd43b" />
      <stop
         id="stop5"
         offset="1"
         stop-color="#ffe873" />
    </linearGradient>
    <linearGradient
       xlink:href="#d"
       gradientUnits="userSpaceOnUse"
       gradientTransform="matrix(0.07204893,0,0,0.07288751,-193.94727,63.967619)"
       y2="114.4"
       y1="20.604"
       x2="135.67"
       x1="26.649"
       id="b" />
    <linearGradient
       id="d">
      <stop
         id="stop8"
         offset="0"
         stop-color="#5a9fd4" />
      <stop
         id="stop10"
         offset="1"
         stop-color="#306998" />
    </linearGradient>
  </defs>
  <sodipodi:namedview
     id="base"
     pagecolor="#ffffff"
     bordercolor="#666666"
     borderopacity="1.0"
     inkscape:pageopacity="0.0"
     inkscape:pageshadow="2"
     inkscape:zoom="0.49497475"
     inkscape:cx="-225.56383"
     inkscape:cy="412.23268"
     inkscape:document-units="mm"
     inkscape:current-layer="layer1"
     showgrid="false"
     fit-margin-top="0"
     fit-margin-left="0"
     fit-margin-right="0"
     fit-margin-bottom="0"
     inkscape:window-width="2560"
     inkscape:window-height="1003"
     inkscape:window-x="0"
     inkscape:window-y="384"
     inkscape:window-maximized="1"
     inkscape:snap-bbox="true"
     inkscape:bbox-paths="true"
     inkscape:bbox-nodes="true"
     inkscape:snap-bbox-edge-midpoints="true"
     inkscape:snap-bbox-midpoints="true"
     inkscape:object-paths="true"
     inkscape:snap-intersection-paths="true"
     inkscape:object-nodes="true"
     inkscape:snap-smooth-nodes="true" />
  <metadata
     id="metadata975">
    <rdf:RDF>
      <cc:Work
         rdf:about="">
        <dc:format>image/svg+xml</dc:format>
        <dc:type
           rdf:resource="http://purl.org/dc/dcmitype/StillImage" />
        <dc:title />
      </cc:Work>
    </rdf:RDF>
  </metadata>
  <g
     inkscape:label="Layer 1"
     inkscape:groupmode="layer"
     id="layer1"
     transform="translate(36.791149,-62.403858)">
    <rect
       id="rect37"
       height="141.10895"
       width="197.55849"
       y="62.403858"
       x="-36.791149"
       style="fill:none;fill-opacity:1;stroke-width:0.99999231"
       inkscape:export-xdpi="64.279999"
       inkscape:export-ydpi="64.279999" />
    <rect
       id="rect37-7"
       height="141.10893"
       width="197.55849"
       y="-7.6254311"
       x="-284.17224"
       style="fill-opacity:0;stroke-width:0.99999231"
       inkscape:export-xdpi="64.279999"
       inkscape:export-ydpi="64.279999" />
    <g
       id="g1284"
       transform="matrix(1.1133025,0,0,1.1133025,-7.0234057,-15.064511)"
       inkscape:export-xdpi="64.279999"
       inkscape:export-ydpi="64.279999">
      <path
         style="fill:none;stroke:#333333;stroke-width:1.25;stroke-linecap:butt;stroke-linejoin:miter;stroke-miterlimit:4;stroke-dasharray:none;stroke-opacity:1"
         d="m 86.68335,132.95841 h 45.68188"
         id="path1226"
         inkscape:connector-curvature="0"
         sodipodi:nodetypes="cc" />
      <path
         inkscape:connector-curvature="0"
         id="path924"
         d="m -3.1776895,132.95841 c 31.9389905,0 13.04153,43.408 34.9576305,43.408 h 73.226479"
         style="fill:none;stroke:#333333;stroke-width:1.25;stroke-linecap:butt;stroke-linejoin:miter;stroke-miterlimit:4;stroke-dasharray:none;stroke-opacity:1"
         sodipodi:nodetypes="csc" />
      <path
         sodipodi:nodetypes="cc"
         inkscape:connector-curvature="0"
         id="path912"
         d="M -10.606559,132.95841 H 35.191375"
         style="fill:none;stroke:#333333;stroke-width:1.25;stroke-linecap:butt;stroke-linejoin:miter;stroke-miterlimit:4;stroke-dasharray:none;stroke-opacity:1" />
      <circle
         transform="rotate(90)"
         r="6.9490075"
         cy="10.126701"
         cx="132.95842"
         id="path910"
         style="opacity:1;vector-effect:none;fill:#37c8ab;fill-opacity:1;stroke:#333333;stroke-width:2;stroke-linecap:square;stroke-linejoin:bevel;stroke-miterlimit:4;stroke-dasharray:none;stroke-dashoffset:0;stroke-opacity:1" />
      <circle
         transform="rotate(90)"
         r="6.9490075"
         cy="-69.459557"
         cx="176.36642"
         id="circle920"
         style="opacity:1;vector-effect:none;fill:#5f8dd3;fill-opacity:1;stroke:#333333;stroke-width:2;stroke-linecap:square;stroke-linejoin:bevel;stroke-miterlimit:4;stroke-dasharray:none;stroke-dashoffset:0;stroke-opacity:1" />
      <path
         sodipodi:nodetypes="csc"
         style="fill:none;stroke:#333333;stroke-width:1.25;stroke-linecap:butt;stroke-linejoin:miter;stroke-miterlimit:4;stroke-dasharray:none;stroke-opacity:1"
         d="m -3.1776895,132.95841 c 31.9389905,0 13.04153,-43.408167 34.9576305,-43.408167 h 14.96709"
         id="path922"
         inkscape:connector-curvature="0" />
      <circle
         transform="rotate(90)"
         style="opacity:1;vector-effect:none;fill:#ffdd55;fill-opacity:1;stroke:#333333;stroke-width:2;stroke-linecap:square;stroke-linejoin:bevel;stroke-miterlimit:4;stroke-dasharray:none;stroke-dashoffset:0;stroke-opacity:1"
         id="circle926"
         cx="89.55024"
         cy="-38.798023"
         r="6.9490075" />
      <circle
         transform="rotate(90)"
         style="opacity:1;vector-effect:none;fill:#5f8dd3;fill-opacity:1;stroke:#333333;stroke-width:2;stroke-linecap:square;stroke-linejoin:bevel;stroke-miterlimit:4;stroke-dasharray:none;stroke-dashoffset:0;stroke-opacity:1"
         id="circle932"
         cx="176.36642"
         cy="-100.09273"
         r="6.9490075" />
      <g
         transform="matrix(0,1.1970128,-1.1970128,0,147.93941,354.28984)"
         id="g1178">
        <path
           id="path29"
           d="m -161.47465,75.112103 -2.09541,-0.831784 c 0.0972,-1.299334 0.076,-2.605122 -0.0631,-3.900474 l 2.06581,-0.900597 c 0.8062,-0.351475 1.17739,-1.297509 0.82761,-2.109139 l -3.79182,-8.791755 c -0.35012,-0.810535 -1.29026,-1.185336 -2.09666,-0.833649 l -2.06603,0.900861 c -0.84473,-0.986673 -1.77829,-1.894657 -2.78851,-2.711614 l 0.82786,-2.10675 c 0.32263,-0.820618 -0.0798,-1.753338 -0.89812,-2.079644 l -8.86491,-3.520855 c -0.81861,-0.324376 -1.74609,0.07999 -2.06877,0.90111 l -0.82785,2.106411 c -1.29207,-0.09745 -2.59082,-0.07653 -3.87926,0.0635 l -0.89626,-2.078063 c -0.35011,-0.810536 -1.29184,-1.183524 -2.09744,-0.830737 l -8.74357,3.812228 c -0.39027,0.17004 -0.69176,0.482449 -0.84871,0.879348 -0.15776,0.399029 -0.15115,0.835237 0.0184,1.228437 l 0.89602,2.077262 c -0.9819,0.849847 -1.88501,1.788385 -2.69732,2.803824 l -2.09484,-0.832326 c -0.39714,-0.157538 -0.83077,-0.149836 -1.22186,0.02151 -0.39,0.170821 -0.69071,0.484278 -0.84661,0.88173 l -3.50215,8.912439 c -0.32236,0.822756 0.0798,1.755484 0.8963,2.079866 l 2.0954,0.832067 c -0.0973,1.298302 -0.0761,2.604317 0.0632,3.899895 l -2.06603,0.900879 c -0.80618,0.351192 -1.17739,1.297181 -0.82758,2.109026 l 3.79204,8.791305 c 0.34985,0.81135 1.29048,1.18534 2.09643,0.83419 l 2.06637,-0.90088 c 0.84529,0.98721 1.77886,1.89523 2.78851,2.71183 l -0.82679,2.10483 c -0.15748,0.39902 -0.15034,0.83604 0.0207,1.23002 0.1699,0.39133 0.48064,0.6934 0.87673,0.85118 l 8.86299,3.52007 c 0.19052,0.076 0.38975,0.11374 0.58872,0.11374 0.21508,0 0.43017,-0.0443 0.63337,-0.13309 0.39081,-0.1703 0.69203,-0.48298 0.84821,-0.88094 l 0.82759,-2.10641 c 1.29263,0.0978 2.59139,0.0764 3.87925,-0.0637 l 0.89631,2.07748 c 0.34958,0.81001 1.28967,1.18331 2.09744,0.83151 l 8.74379,-3.81222 c 0.80698,-0.35174 1.17955,-1.29718 0.83021,-2.108 v -2.6e-4 l -0.896,-2.07726 c 0.9819,-0.84959 1.885,-1.78816 2.69709,-2.80348 l 2.09485,0.83206 c 0.3966,0.15754 0.83074,0.1501 1.2223,-0.0216 0.38947,-0.17083 0.68992,-0.48377 0.84635,-0.88149 l 3.50192,-8.911866 c 0.3229,-0.821952 -0.0785,-1.755267 -0.89605,-2.080091 z"
           inkscape:connector-curvature="0"
           style="fill:none;stroke:#4d4d4d;stroke-width:1.3247298"
           inkscape:export-xdpi="64.279999"
           inkscape:export-ydpi="64.279999" />
        <path
           id="path31"
           d="m -165.932,84.667734 -2.27371,-0.90299 c -0.47297,-0.18809 -1.01308,-0.0324 -1.31565,0.37882 -0.99748,1.35648 -2.16993,2.57505 -3.48479,3.62202 -0.39871,0.31744 -0.53533,0.86499 -0.33319,1.33415 l 0.97238,2.25441 -7.55026,3.29187 -0.94466,-2.1899 c -0.17993,-0.5013 -0.68807,-0.81238 -1.22209,-0.73216 -1.66022,0.24947 -3.3471,0.27734 -5.01413,0.0826 -0.50575,-0.0582 -0.98719,0.23086 -1.174,0.70666 l -0.89812,2.28573 -7.65383,-3.03974 0.89813,-2.28606 c 0.18709,-0.47582 0.0324,-1.01855 -0.37679,-1.3227 -1.34968,-1.00314 -2.56236,-2.18262 -3.60422,-3.50565 -0.006,-0.007 -0.0119,-0.0149 -0.0177,-0.0219 -0.34377,-0.41469 -0.92138,-0.51937 -1.38007,-0.27949 l -2.16993,0.94604 -3.27416,-7.591 2.1791,-0.950262 c 0.47036,-0.171365 0.77635,-0.640787 0.73619,-1.149496 -0.003,-0.03402 -0.007,-0.06771 -0.0121,-0.101287 -0.24549,-1.663513 -0.27192,-3.352655 -0.0785,-5.02048 0.063,-0.541927 -0.26769,-1.04086 -0.76763,-1.203936 l -2.2095,-0.877742 3.02363,-7.695118 2.21324,0.879338 c 0.44525,0.20801 0.98482,0.100211 1.31565,-0.279726 0.0256,-0.02922 0.0497,-0.05955 0.0719,-0.09113 0.99486,-1.349568 2.16279,-2.562354 3.47153,-3.605011 0.0352,-0.02795 0.0684,-0.05768 0.0998,-0.08897 0.34985,-0.351735 0.42226,-0.880661 0.20928,-1.306015 l -0.94651,-2.19465 7.55028,-3.291862 0.97213,2.254081 c 0.20241,0.469167 0.69362,0.743572 1.19622,0.667343 1.65966,-0.249203 3.34574,-0.276821 5.01174,-0.08185 0.5063,0.05817 0.98721,-0.230862 1.17423,-0.706655 l 0.89841,-2.286293 7.65382,3.039959 -0.8984,2.286294 c -0.1868,0.475813 -0.0324,1.018556 0.37681,1.322686 1.35046,1.003938 2.56314,2.183196 3.60399,3.505203 0.33239,0.422145 0.90658,0.54247 1.37212,0.313478 l 2.19636,-0.957704 3.27393,7.590994 -2.17491,0.948152 c -0.5023,0.1812 -0.81095,0.695241 -0.7314,1.229797 0.24841,1.668844 0.27586,3.365135 0.0819,5.041225 -0.059,0.508199 0.22965,0.992773 0.70314,1.180923 l 2.27371,0.902705 z"
           inkscape:connector-curvature="0"
           style="fill:#ececec;stroke:#808080;stroke-width:0.39741889"
           inkscape:export-xdpi="64.279999"
           inkscape:export-ydpi="64.279999" />
        <path
           id="path33"
           d="m -179.0432,57.782755 c -3.9599,-1.573001 -8.29204,-1.500982 -12.19818,0.201922 -3.90648,1.703205 -6.91933,4.833445 -8.48383,8.814895 -1.56427,3.981222 -1.49293,8.337063 0.20081,12.265082 2.60409,6.03739 8.48326,9.65046 14.64688,9.64989 2.11312,0 4.26081,-0.42507 6.31947,-1.32245 8.06372,-3.51553 11.77966,-12.971702 8.28273,-21.078863 -1.69379,-3.927573 -4.80747,-6.956872 -8.76737,-8.529648 z"
           inkscape:connector-curvature="0"
           style="fill:#ffffff;stroke:#4d4d4d;stroke-width:0.75763643"
           inkscape:export-xdpi="64.279999"
           inkscape:export-ydpi="64.279999" />
        <path
           id="path35"
           d="m -184.90695,86.050764 c -7.33104,0 -13.29493,-5.99633 -13.29493,-13.366385 0,-7.3704 5.96423,-13.366388 13.29493,-13.366388 7.33082,0 13.29494,5.996443 13.29494,13.366388 0,7.370625 -5.96423,13.366385 -13.29494,13.366385 z"
           inkscape:connector-curvature="0"
           style="fill:#ffffff;stroke:#4d4d4d;stroke-width:0.42099866"
           inkscape:export-xdpi="64.279999"
           inkscape:export-ydpi="64.279999" />
      </g>
      <path
         inkscape:export-ydpi="96"
         inkscape:export-xdpi="96"
         inkscape:export-filename="/home/viniciusramos/Documents/Python Academy/Redes Sociais/git-vs-github/1.png"
         id="path2113-3"
         d="M 74.018768,131.74274 62.145646,119.87106 c -0.683159,-0.68376 -1.792072,-0.68376 -2.476069,0 l -2.46532,2.46557 3.127172,3.12717 c 0.726994,-0.24546 1.560271,-0.0809 2.139505,0.49848 0.582239,0.58294 0.745643,1.42333 0.494007,2.15276 l 3.014067,3.01406 c 0.729196,-0.25128 1.570516,-0.0888 2.152767,0.49436 0.814053,0.81379 0.814053,2.13248 0,2.94649 -0.81416,0.81428 -2.132837,0.81428 -2.947464,0 -0.612081,-0.61257 -0.763479,-1.5119 -0.453465,-2.26608 l -2.810933,-2.81092 -2.63e-4,7.39694 c 0.198453,0.0983 0.385749,0.22937 0.55114,0.39402 0.81379,0.81373 0.81379,2.13217 0,2.9472 -0.814052,0.81371 -2.133328,0.81371 -2.946506,0 -0.813933,-0.81495 -0.813933,-2.13342 0,-2.9472 0.201134,-0.20077 0.433893,-0.35276 0.682237,-0.45464 v -7.46565 c -0.248464,-0.10138 -0.480948,-0.2523 -0.682381,-0.45467 -0.616522,-0.61607 -0.764999,-1.52091 -0.448832,-2.27796 l -3.082787,-3.08329 -8.140405,8.14019 c -0.683997,0.68431 -0.683997,1.7932 0,2.47701 l 11.872416,11.87171 c 0.683518,0.68377 1.792048,0.68377 2.476547,0 l 11.817522,-11.81562 c 0.683757,-0.68409 0.683757,-1.79334 0,-2.47725"
         inkscape:connector-curvature="0"
         style="fill:#f05133;stroke-width:0.2386799" />
      <path
         inkscape:connector-curvature="0"
         id="path1222"
         d="m 127.15389,132.95841 c -31.93917,0 -13.04161,-43.709075 -34.957828,-43.709075 H 45.740513"
         style="fill:none;stroke:#333333;stroke-width:1.25;stroke-linecap:butt;stroke-linejoin:miter;stroke-miterlimit:4;stroke-dasharray:none;stroke-opacity:1"
         sodipodi:nodetypes="csc" />
      <circle
         r="6.9490075"
         cy="-134.10289"
         cx="133.25932"
         id="circle1224"
         style="opacity:1;vector-effect:none;fill:#aa87de;fill-opacity:1;stroke:#333333;stroke-width:2;stroke-linecap:square;stroke-linejoin:bevel;stroke-miterlimit:4;stroke-dasharray:none;stroke-dashoffset:0;stroke-opacity:1"
         transform="rotate(90)" />
      <circle
         r="6.9490075"
         cy="-61.749802"
         cx="89.55024"
         id="circle1262"
         style="opacity:1;vector-effect:none;fill:#ffdd55;fill-opacity:1;stroke:#333333;stroke-width:2;stroke-linecap:square;stroke-linejoin:bevel;stroke-miterlimit:4;stroke-dasharray:none;stroke-dashoffset:0;stroke-opacity:1"
         transform="rotate(90)" />
      <circle
         transform="rotate(90)"
         style="opacity:1;vector-effect:none;fill:#ffdd55;fill-opacity:1;stroke:#333333;stroke-width:2;stroke-linecap:square;stroke-linejoin:bevel;stroke-miterlimit:4;stroke-dasharray:none;stroke-dashoffset:0;stroke-opacity:1"
         id="circle1264"
         cx="89.55024"
         cy="-84.701576"
         r="6.9490075" />
    </g>
  </g>
</svg>
