<?xml version="1.0" encoding="UTF-8" standalone="no"?>
<!-- Created with Inkscape (http://www.inkscape.org/) -->

<svg
   xmlns:dc="http://purl.org/dc/elements/1.1/"
   xmlns:cc="http://creativecommons.org/ns#"
   xmlns:rdf="http://www.w3.org/1999/02/22-rdf-syntax-ns#"
   xmlns:svg="http://www.w3.org/2000/svg"
   xmlns="http://www.w3.org/2000/svg"
   xmlns:xlink="http://www.w3.org/1999/xlink"
   xmlns:sodipodi="http://sodipodi.sourceforge.net/DTD/sodipodi-0.dtd"
   xmlns:inkscape="http://www.inkscape.org/namespaces/inkscape"
   width="197.556mm"
   height="141.11111mm"
   viewBox="0 0 197.556 141.11111"
   version="1.1"
   id="svg1702"
   inkscape:version="0.92.5 (0.92.5+69)"
   sodipodi:docname="featured_img.svg">
  <defs
     id="defs1696">
    <linearGradient
       y2="114.39767"
       x2="135.66525"
       y1="20.603781"
       x1="26.648937"
       gradientTransform="matrix(0.13823253,0,0,0.13984116,2.316027,42.158018)"
       gradientUnits="userSpaceOnUse"
       id="linearGradient956"
       xlink:href="#linearGradient4689"
       inkscape:collect="always" />
    <linearGradient
       id="linearGradient4689">
      <stop
         id="stop4691"
         offset="0"
         style="stop-color:#5a9fd4;stop-opacity:1;" />
      <stop
         id="stop4693"
         offset="1"
         style="stop-color:#306998;stop-opacity:1;" />
    </linearGradient>
    <linearGradient
       y2="137.27299"
       x2="112.03144"
       y1="192.35176"
       x1="150.96111"
       gradientTransform="matrix(0.13823253,0,0,0.13984116,2.316027,42.158018)"
       gradientUnits="userSpaceOnUse"
       id="linearGradient958"
       xlink:href="#linearGradient4671"
       inkscape:collect="always" />
    <linearGradient
       id="linearGradient4671">
      <stop
         id="stop4673"
         offset="0"
         style="stop-color:#ffd43b;stop-opacity:1;" />
      <stop
         id="stop4675"
         offset="1"
         style="stop-color:#ffe873;stop-opacity:1" />
    </linearGradient>
  </defs>
  <sodipodi:namedview
     id="base"
     pagecolor="#ffffff"
     bordercolor="#666666"
     borderopacity="1.0"
     inkscape:pageopacity="0.0"
     inkscape:pageshadow="2"
     inkscape:zoom="0.35"
     inkscape:cx="-463.80869"
     inkscape:cy="-141.90476"
     inkscape:document-units="mm"
     inkscape:current-layer="layer1"
     showgrid="false"
     fit-margin-top="0"
     fit-margin-left="0"
     fit-margin-right="0"
     fit-margin-bottom="0"
     inkscape:window-width="2560"
     inkscape:window-height="993"
     inkscape:window-x="0"
     inkscape:window-y="384"
     inkscape:window-maximized="1" />
  <metadata
     id="metadata1699">
    <rdf:RDF>
      <cc:Work
         rdf:about="">
        <dc:format>image/svg+xml</dc:format>
        <dc:type
           rdf:resource="http://purl.org/dc/dcmitype/StillImage" />
        <dc:title />
      </cc:Work>
    </rdf:RDF>
  </metadata>
  <g
     inkscape:label="Layer 1"
     inkscape:groupmode="layer"
     id="layer1"
     transform="translate(47.373238,28.31151)">
    <g
       id="g1657"
       transform="matrix(0.57324808,0,0,0.57324808,40.13771,8.4940614)"
       inkscape:export-xdpi="64.290001"
       inkscape:export-ydpi="64.290001">
      <circle
         r="46.939537"
         cy="58.875"
         cx="-5.6631479"
         id="path1105"
         style="opacity:1;fill:#27678d;fill-opacity:0.09803922;stroke:#306998;stroke-width:1.77703476;stroke-linecap:round;stroke-linejoin:round;stroke-miterlimit:4;stroke-dasharray:none;stroke-dashoffset:0;stroke-opacity:1" />
      <circle
         transform="rotate(-135)"
         r="46.939537"
         cy="-9.8264751"
         cx="-73.435356"
         id="circle1119"
         style="opacity:1;fill:#ffdb4e;fill-opacity:0.09803922;stroke:#ffda4d;stroke-width:1.77703476;stroke-linecap:round;stroke-linejoin:round;stroke-miterlimit:4;stroke-dasharray:none;stroke-dashoffset:0;stroke-opacity:1" />
      <path
         inkscape:connector-curvature="0"
         style="fill:url(#linearGradient956);fill-opacity:1;stroke:#000000;stroke-width:0;stroke-miterlimit:7.69810009;stroke-dasharray:none"
         d="m 19.494907,45.039511 c -1.12633,0.0063 -2.20197,0.101443 -3.1484,0.269265 -2.78809,0.493572 -3.2943,1.526533 -3.2943,3.431593 v 2.515983 h 6.5886 v 0.838626 h -6.5886 -2.47265 c -1.91483,0 -3.59151,1.153205 -4.11596,3.346958 -0.60493,2.514516 -0.63177,4.08366 0,6.70926 0.46834,1.954398 1.58681,3.346917 3.50165,3.346917 h 2.2653 v -3.016052 c 0,-2.178978 1.8816,-4.100993 4.11596,-4.100993 h 6.58094 c 1.83188,0 3.29428,-1.511275 3.29428,-3.354651 v -6.286048 c 0,-1.789071 -1.50631,-3.132985 -3.29428,-3.431593 -1.13183,-0.188634 -2.30619,-0.274505 -3.43254,-0.269265 z m -3.56306,2.023522 c 0.68056,0 1.23632,0.565965 1.23632,1.261858 0,0.69342 -0.55576,1.254146 -1.23632,1.254146 -0.68299,0 -1.23632,-0.560726 -1.23632,-1.254146 0,-0.695893 0.55333,-1.261858 1.23632,-1.261858 z"
         id="path952" />
      <path
         inkscape:connector-curvature="0"
         style="fill:url(#linearGradient958);fill-opacity:1;stroke:#000000;stroke-width:0;stroke-miterlimit:7.69810009;stroke-dasharray:none"
         d="m 27.043397,52.094978 v 2.931439 c 0,2.272749 -1.92305,4.185627 -4.11595,4.185627 h -6.58094 c -1.80261,0 -3.2943,1.545837 -3.2943,3.35463 v 6.286069 c 0,1.78907 1.55265,2.841356 3.2943,3.35463 2.08558,0.614465 4.08555,0.725529 6.58094,0 1.65871,-0.481164 3.29428,-1.449592 3.29428,-3.35463 v -2.515962 h -6.58092 v -0.838668 h 6.58092 3.2943 c 1.91485,0 2.62839,-1.338255 3.29431,-3.346917 0.68787,-2.067893 0.65861,-4.056538 0,-6.70926 -0.47322,-1.909964 -1.37703,-3.346958 -3.29431,-3.346958 z m -3.70129,15.919118 c 0.68298,0 1.23633,0.560726 1.23633,1.254145 0,0.695893 -0.55335,1.261817 -1.23633,1.261817 -0.68057,0 -1.23632,-0.565924 -1.23632,-1.261817 0,-0.693419 0.55575,-1.254145 1.23632,-1.254145 z"
         id="path954" />
    </g>
    <rect
       style="fill:none;stroke:none;stroke-width:2.5640204"
       id="rect13299"
       width="197.556"
       height="141.11111"
       x="-47.373238"
       y="-28.31151"
       inkscape:export-xdpi="64.290001"
       inkscape:export-ydpi="64.290001" />
    <g
       id="g1665"
       transform="translate(-63.615983,-133.04762)"
       inkscape:export-xdpi="64.290001"
       inkscape:export-ydpi="64.290001">
      <g
         inkscape:export-ydpi="64.290001"
         inkscape:export-xdpi="64.290001"
         transform="translate(326.06915,33.514969)"
         id="g2622">
        <path
           sodipodi:nodetypes="sssccsssccsssccsssccs"
           id="path2186"
           style="font-style:normal;font-variant:normal;font-weight:bold;font-stretch:normal;font-size:112.41600037px;line-height:1.25;font-family:'MADE TOMMY';-inkscape-font-specification:'MADE TOMMY Bold';fill:#f9f9f9;fill-opacity:1;stroke:#4d4d4d;stroke-width:1.35997999;stroke-miterlimit:4;stroke-dasharray:none;stroke-opacity:0.94902003"
           d="m -268.53851,129.57956 v -13.60234 c 0,-5.05872 1.12416,-8.76845 8.31878,-8.76845 h 2.58557 V 91.582952 h -6.74496 c -13.82717,0 -21.24662,5.28355 -21.24662,19.335548 v 16.63757 c 0,6.29529 -2.69799,7.64429 -7.64429,7.64429 v 13.04025 c 4.9463,0 7.64429,1.34899 7.64429,7.75671 v 16.63757 c 0,13.93958 7.41945,19.33555 21.24662,19.33555 h 6.74496 V 176.2322 h -2.58557 c -7.19462,0 -8.31878,-3.59731 -8.31878,-8.76845 v -13.48992 c 0,-5.6208 -1.79866,-10.64739 -8.31879,-12.22121 v -0.0439 c 6.52013,-1.46141 8.31879,-6.5084 8.31879,-12.1292 z"
           inkscape:connector-curvature="0" />
        <path
           sodipodi:nodetypes="sssccsssccsssccsssccss"
           id="path2192"
           style="font-style:normal;font-variant:normal;font-weight:bold;font-stretch:normal;font-size:112.41600037px;line-height:1.25;font-family:'MADE TOMMY';-inkscape-font-specification:'MADE TOMMY Bold';fill:none;fill-opacity:1;stroke:#4d4d4d;stroke-width:0.56;stroke-miterlimit:4;stroke-dasharray:none;stroke-opacity:0.94902003"
           d="m -271.25663,129.57956 v -12.40575 c 0,-8.11856 2.30202,-12.35432 8.88159,-12.35432 h 2.59773 l -0.0523,-11.134508 h -7.03844 c -9.74469,0 -16.50629,5.57829 -16.50629,16.221308 v 17.64978 c 0,6.29529 -2.9557,9.81097 -7.902,9.81097 v 8.45608 c 4.9463,0 7.902,3.76648 7.902,10.1742 v 16.63757 c 0,9.00435 5.12555,17.07033 17.23584,17.07033 h 6.23686 l 0.0902,-11.18736 h -3.12645 c -7.19463,0 -8.31879,-5.88297 -8.31879,-11.05411 v -13.48992 c 0,-5.6208 -3.02201,-9.88422 -9.54214,-11.45804 V 140.876 c 6.52013,-1.46141 9.54214,-5.67564 9.54214,-11.29644 z"
           inkscape:connector-curvature="0" />
      </g>
      <g
         inkscape:export-ydpi="64.290001"
         inkscape:export-xdpi="64.290001"
         id="g2626"
         transform="translate(326.06915,33.514977)">
        <path
           sodipodi:nodetypes="sssccsssccsssccsssccs"
           id="path2199"
           style="font-style:normal;font-variant:normal;font-weight:bold;font-stretch:normal;font-size:112.41600037px;line-height:1.25;font-family:'MADE TOMMY';-inkscape-font-specification:'MADE TOMMY Bold';fill:#f9f9f9;fill-opacity:1;stroke:#4d4d4d;stroke-width:1.35997999;stroke-miterlimit:4;stroke-dasharray:none;stroke-opacity:0.94902003"
           d="m -153.5583,153.97382 v 13.60234 c 0,5.05872 -1.12416,8.76845 -8.31878,8.76845 h -2.58557 v 15.62582 h 6.74496 c 13.82717,0 21.24662,-5.28355 21.24662,-19.33555 v -16.63757 c 0,-6.29529 2.69799,-7.64429 7.64429,-7.64429 v -13.04025 c -4.9463,0 -7.64429,-1.34899 -7.64429,-7.7567 V 110.9185 c 0,-13.939586 -7.41945,-19.335554 -21.24662,-19.335554 h -6.74496 v 15.738244 h 2.58557 c 7.19462,0 8.31878,3.59731 8.31878,8.76844 v 13.48992 c 0,5.6208 1.79866,10.64739 8.31878,12.22121 v 0.0439 c -6.52012,1.46141 -8.31878,6.5084 -8.31878,12.1292 z"
           inkscape:connector-curvature="0" />
        <path
           sodipodi:nodetypes="sssccsssccsssccsssccss"
           id="path2201"
           style="font-style:normal;font-variant:normal;font-weight:bold;font-stretch:normal;font-size:112.41600037px;line-height:1.25;font-family:'MADE TOMMY';-inkscape-font-specification:'MADE TOMMY Bold';fill:none;fill-opacity:1;stroke:#4d4d4d;stroke-width:0.56;stroke-miterlimit:4;stroke-dasharray:none;stroke-opacity:0.94902003"
           d="m -150.84018,153.97382 v 12.40575 c 0,8.11856 -2.30202,12.35432 -8.88159,12.35432 h -2.59773 l 0.0523,11.13451 h 7.03844 c 9.74469,0 16.50629,-5.57829 16.50629,-16.22131 v -17.64978 c 0,-6.29529 2.9557,-9.81097 7.902,-9.81097 v -8.45608 c -4.9463,0 -7.902,-3.76648 -7.902,-10.17419 V 110.9185 c 0,-9.00436 -5.12555,-17.070337 -17.23584,-17.070337 h -6.23686 l -0.0902,11.187357 h 3.12645 c 7.19463,0 8.31879,5.88298 8.31879,11.05411 v 13.48992 c 0,5.6208 3.02201,9.88422 9.54214,11.45804 v 1.63979 c -6.52013,1.46141 -9.54214,5.67564 -9.54214,11.29644 z"
           inkscape:connector-curvature="0" />
      </g>
    </g>
  </g>
</svg>
