<?xml version="1.0" encoding="UTF-8" standalone="no"?>
<!-- Created with Inkscape (http://www.inkscape.org/) -->

<svg
   xmlns:dc="http://purl.org/dc/elements/1.1/"
   xmlns:cc="http://creativecommons.org/ns#"
   xmlns:rdf="http://www.w3.org/1999/02/22-rdf-syntax-ns#"
   xmlns:svg="http://www.w3.org/2000/svg"
   xmlns="http://www.w3.org/2000/svg"
   xmlns:sodipodi="http://sodipodi.sourceforge.net/DTD/sodipodi-0.dtd"
   xmlns:inkscape="http://www.inkscape.org/namespaces/inkscape"
   width="500"
   height="500"
   viewBox="0 0 132.29167 132.29167"
   version="1.1"
   id="svg8"
   inkscape:version="0.92.1 r15371"
   sodipodi:docname="featured_icon.svg">
  <defs
     id="defs2">
    <clipPath
       id="clipPath4510"
       clipPathUnits="userSpaceOnUse">
      <path
         style="fill:#ececec;stroke:#000000;stroke-width:0.52916676;stroke-miterlimit:4;stroke-dasharray:none"
         d="m 77.343267,258.28386 -4.52729,-4.52755 c -0.36036,-0.36037 -0.918099,-0.43366 -1.3589,-0.17807 -3.15939,1.83012 -6.550023,3.23506 -10.077715,4.17566 -0.0063,0.002 -0.01297,0.003 -0.01905,0.005 -0.530754,0.1516 -0.8636,0.66066 -0.810416,1.19194 v 6.28836 l -19.852217,2.6e-4 v -2.45216 h 9.40435 c 0.620977,0 1.124477,-0.5035 1.124477,-1.12448 0,-0.62097 -0.5035,-1.12448 -1.124477,-1.12448 h -9.40435 v -1.6039 c 0.04577,-0.53499 -0.297392,-1.03902 -0.830792,-1.18136 -3.522662,-0.93954 -6.909064,-2.3421 -10.065808,-4.16878 -0.0079,-0.005 -0.01614,-0.01 -0.02434,-0.014 -0.01588,-0.009 -0.03493,-0.019 -0.05107,-0.0272 -0.475721,-0.23759 -1.041665,-0.10741 -1.368425,0.2876 l -4.452937,4.45267 -14.0374688,-14.03772 4.4584938,-4.45824 c 0.404283,-0.33973 0.524404,-0.92842 0.258762,-1.40653 -0.0032,-0.006 -0.0064,-0.0114 -0.01005,-0.0175 -1.830387,-3.15965 -3.235589,-6.55081 -4.176977,-10.07956 -0.141816,-0.53129 -0.6400266,-0.87339 -1.1750136,-0.83132 h -6.311637 v -19.852 h 6.4008 c 0.5093229,0 0.9551456,-0.34237 1.0863786,-0.83451 0.940859,-3.52636 2.345267,-6.91515 4.173802,-10.07269 0.255323,-0.44078 0.182298,-0.99826 -0.1778,-1.35863 l -4.5270197,-4.5273 14.0372037,-14.03799 4.52755,4.52755 c 0.360363,0.36009 0.91784,0.43312 1.3589,0.1778 3.158861,-1.82986 6.548967,-3.23454 10.076392,-4.17513 0.530754,-0.14155 0.872858,-0.64109 0.830792,-1.17343 v -6.31269 h 19.852216 v 1.66926 H 50.101765 c -0.620978,0 -1.124482,0.5035 -1.124482,1.12447 0,0.62098 0.503504,1.12448 1.124482,1.12448 h 10.447866 v 2.40348 c -0.03572,0.51117 0.284954,0.99721 0.79375,1.15385 0.01905,0.006 0.03784,0.0111 0.05689,0.0159 3.519752,0.94059 6.902977,2.34341 10.056548,4.17009 0.440791,0.25533 0.99853,0.1823 1.35863,-0.1778 l 4.52755,-4.52781 14.037469,14.038 -4.527288,4.52728 c -0.36009,0.36037 -0.433382,0.91784 -0.1778,1.35864 1.82907,3.15807 3.233478,6.54711 4.174069,10.07269 0.131501,0.49212 0.577059,0.83449 1.08638,0.83449 h 6.4008 v 19.85222 h -6.300521 c -0.535249,-0.0474 -1.04299,0.29607 -1.1856,0.83053 -0.940329,3.52636 -2.345,6.91673 -4.175128,10.07692 -0.25532,0.44106 -0.18229,0.99827 0.1778,1.35863 l 4.52755,4.52729 z"
         id="path4512"
         inkscape:connector-curvature="0" />
    </clipPath>
    <linearGradient
       y2="121.4787"
       x2="132.9639"
       y1="120.2719"
       x1="130.7226"
       gradientUnits="userSpaceOnUse"
       id="shadow_1_">
      <stop
         id="stop4499"
         style="stop-color:#000000;stop-opacity:3.000000e-002"
         offset="0" />
      <stop
         id="stop4501"
         style="stop-color:#090909;stop-opacity:2.745315e-002"
         offset="8.489490e-002" />
      <stop
         id="stop4503"
         style="stop-color:#212121;stop-opacity:2.329644e-002"
         offset="0.2235" />
      <stop
         id="stop4505"
         style="stop-color:#494949;stop-opacity:1.804541e-002"
         offset="0.3985" />
      <stop
         id="stop4507"
         style="stop-color:#808080;stop-opacity:1.190651e-002"
         offset="0.6031" />
      <stop
         id="stop4509"
         style="stop-color:#C6C6C6;stop-opacity:5.105171e-003"
         offset="0.8298" />
      <stop
         id="stop4511"
         style="stop-color:#FFFFFF;stop-opacity:0"
         offset="1" />
    </linearGradient>
  </defs>
  <sodipodi:namedview
     id="base"
     pagecolor="#ffffff"
     bordercolor="#666666"
     borderopacity="1.0"
     inkscape:pageopacity="0.0"
     inkscape:pageshadow="2"
     inkscape:zoom="0.98994949"
     inkscape:cx="233.39274"
     inkscape:cy="98.74044"
     inkscape:document-units="mm"
     inkscape:current-layer="layer1"
     showgrid="false"
     units="px"
     fit-margin-top="0"
     fit-margin-left="0"
     fit-margin-right="0"
     fit-margin-bottom="0"
     inkscape:window-width="2560"
     inkscape:window-height="1017"
     inkscape:window-x="-8"
     inkscape:window-y="-8"
     inkscape:window-maximized="1" />
  <metadata
     id="metadata5">
    <rdf:RDF>
      <cc:Work
         rdf:about="">
        <dc:format>image/svg+xml</dc:format>
        <dc:type
           rdf:resource="http://purl.org/dc/dcmitype/StillImage" />
        <dc:title></dc:title>
      </cc:Work>
    </rdf:RDF>
  </metadata>
  <g
     inkscape:label="Camada 1"
     inkscape:groupmode="layer"
     id="layer1"
     transform="translate(-8.0748482,36.6945)">
    <path
       style="fill:#8f9d9e;stroke:#000000;stroke-width:0.40175757"
       inkscape:connector-curvature="0"
       id="_x35__3_"
       d="M 138.12378,7.2341432 78.181548,14.023849 105.82247,41.624603 138.80678,8.6804706 c 0.96421,-0.9642183 0.6428,-1.6070254 -0.683,-1.4463274 z" />
    <path
       style="fill:#97a4a5;stroke:#000000;stroke-width:0.40175757"
       inkscape:connector-curvature="0"
       id="_x32__3_"
       d="m 14.382445,50.182033 21.77526,21.775266 V 20.291268 l -21.77526,21.775266 c -2.209667,2.249848 -2.209667,5.865666 0,8.115499 z" />
    <path
       style="fill:#97a4a5;stroke:#000000;stroke-width:0.40175757"
       inkscape:connector-curvature="0"
       id="_x31__3_"
       d="M 30.854505,8.8010054 9.0792445,-12.974261 V 38.651592 L 30.854505,16.876325 c 2.209667,-2.209654 2.209667,-5.825472 0,-8.0753196 z" />
    <path
       style="fill:#f9f9f9;fill-opacity:1;stroke:#4d4d4d;stroke-width:2.00878787;stroke-miterlimit:4;stroke-dasharray:none"
       inkscape:connector-curvature="0"
       id="_x35__2_"
       d="M 138.12378,7.2341432 78.181548,14.023849 105.82247,41.624603 138.80678,8.6804706 c 0.96421,-0.9642183 0.6428,-1.6070254 -0.683,-1.4463274 z" />
    <path
       style="fill:#f9f9f9;fill-opacity:1;stroke:#4d4d4d;stroke-width:2.00878787;stroke-miterlimit:4;stroke-dasharray:none"
       d="m 42.344484,-13.054648 v 49.376157 c 0,4.49968 2.772437,11.208574 5.946326,14.382447 l 3.254081,3.254866 16.271182,16.27119 c 1.245453,1.245451 2.933296,1.927966 4.701033,1.927966 1.767725,0 3.454799,-0.682515 4.700251,-1.927966 L 96.782639,50.784783 c 1.245451,-1.245451 1.928749,-2.892488 1.928749,-4.660226 0.04024,-1.767739 -0.642494,-3.455607 -1.887947,-4.701042 L 71.59275,16.193613 Z"
       id="_x34__2_"
       inkscape:connector-curvature="0" />
    <path
       style="fill:#f9f9f9;stroke:#4d4d4d;stroke-width:2.00878787;stroke-miterlimit:4;stroke-dasharray:none"
       inkscape:connector-curvature="0"
       id="_x32__2_"
       d="m 14.382445,50.182033 21.77526,21.775266 V 20.291268 l -21.77526,21.775266 c -2.209667,2.249848 -2.209667,5.865666 0,8.115499 z" />
    <path
       style="fill:#f9f9f9;stroke:#4d4d4d;stroke-width:2.00878787;stroke-miterlimit:4;stroke-dasharray:none"
       inkscape:connector-curvature="0"
       id="_x31__2_"
       d="M 30.854505,8.8010054 9.0792445,-12.974261 V 38.651592 L 30.854505,16.876325 c 2.209667,-2.209654 2.209667,-5.825472 0,-8.0753196 z" />
    <path
       style="fill:none;stroke:#4d4d4d;stroke-width:0.6026364;stroke-linecap:butt;stroke-linejoin:miter;stroke-miterlimit:4;stroke-dasharray:none;stroke-opacity:1"
       d="M 71.592719,16.19334 51.545027,53.958564"
       id="path4692"
       inkscape:connector-curvature="0" />
    <path
       style="fill:none;stroke:#4d4d4d;stroke-width:0.6026364;stroke-linecap:butt;stroke-linejoin:miter;stroke-miterlimit:4;stroke-dasharray:none;stroke-opacity:1"
       d="M 53.111874,55.525411 73.159581,17.760202"
       id="path4694"
       inkscape:connector-curvature="0" />
    <path
       style="fill:#efefef;fill-opacity:1;stroke:#4d4d4d;stroke-width:0.382875;stroke-miterlimit:4;stroke-dasharray:none;stroke-opacity:1"
       inkscape:connector-curvature="0"
       id="_x33__3_"
       d="m 43.321916,-10.774082 v 47.037966 c 0,4.286611 2.64085,10.678269 5.664456,13.70186 l 3.100136,3.100151 19.098399,-35.976971 z" />
  </g>
</svg>
