<?xml version="1.0" encoding="UTF-8" standalone="no"?>
<!-- Created with Inkscape (http://www.inkscape.org/) -->

<svg
   width="197.55855mm"
   height="141.11111mm"
   viewBox="0 0 197.55855 141.11112"
   version="1.1"
   id="svg5"
   xml:space="preserve"
   inkscape:version="1.2 (1:1.2.1+202207142221+cd75a1ee6d)"
   sodipodi:docname="featured_img.svg"
   xmlns:inkscape="http://www.inkscape.org/namespaces/inkscape"
   xmlns:sodipodi="http://sodipodi.sourceforge.net/DTD/sodipodi-0.dtd"
   xmlns:xlink="http://www.w3.org/1999/xlink"
   xmlns="http://www.w3.org/2000/svg"
   xmlns:svg="http://www.w3.org/2000/svg"><sodipodi:namedview
     id="namedview7"
     pagecolor="#ffffff"
     bordercolor="#999999"
     borderopacity="1"
     inkscape:showpageshadow="0"
     inkscape:pageopacity="0"
     inkscape:pagecheckerboard="0"
     inkscape:deskcolor="#d1d1d1"
     inkscape:document-units="mm"
     showgrid="false"
     inkscape:zoom="0.77446053"
     inkscape:cx="206.59542"
     inkscape:cy="180.12538"
     inkscape:window-width="1920"
     inkscape:window-height="1004"
     inkscape:window-x="0"
     inkscape:window-y="0"
     inkscape:window-maximized="1"
     inkscape:current-layer="layer1" /><defs
     id="defs2"><linearGradient
       inkscape:collect="always"
       id="linearGradient6471"><stop
         style="stop-color:#ffcc00;stop-opacity:1;"
         offset="0"
         id="stop6467" /><stop
         style="stop-color:#d4a800;stop-opacity:1;"
         offset="1"
         id="stop6469" /></linearGradient><linearGradient
       inkscape:collect="always"
       id="linearGradient6337"><stop
         style="stop-color:#ffcc00;stop-opacity:1;"
         offset="0"
         id="stop6333" /><stop
         style="stop-color:#ffcc00;stop-opacity:0;"
         offset="1"
         id="stop6335" /></linearGradient><linearGradient
       inkscape:collect="always"
       xlink:href="#linearGradient4689"
       id="linearGradient4213"
       gradientUnits="userSpaceOnUse"
       gradientTransform="matrix(0.07665756,0,0,0.07754963,69.238795,107.62978)"
       x1="26.648937"
       y1="20.603781"
       x2="135.66525"
       y2="114.39767" /><linearGradient
       id="linearGradient4689"><stop
         id="stop4691"
         offset="0"
         style="stop-color:#5a9fd4;stop-opacity:1;" /><stop
         id="stop4693"
         offset="1"
         style="stop-color:#306998;stop-opacity:1;" /></linearGradient><linearGradient
       inkscape:collect="always"
       xlink:href="#linearGradient4671"
       id="linearGradient4215"
       gradientUnits="userSpaceOnUse"
       gradientTransform="matrix(0.07665756,0,0,0.07754963,69.238795,107.62978)"
       x1="150.96111"
       y1="192.35176"
       x2="112.03144"
       y2="137.27299" /><linearGradient
       id="linearGradient4671"><stop
         id="stop4673"
         offset="0"
         style="stop-color:#ffd43b;stop-opacity:1;" /><stop
         id="stop4675"
         offset="1"
         style="stop-color:#ffe873;stop-opacity:1" /></linearGradient><filter
       inkscape:collect="always"
       style="color-interpolation-filters:sRGB"
       id="filter6199"
       x="-0.032538207"
       y="-0.094977717"
       width="1.0650764"
       height="1.1899554"><feGaussianBlur
         inkscape:collect="always"
         stdDeviation="9.6712153"
         id="feGaussianBlur6201" /></filter><linearGradient
       inkscape:collect="always"
       xlink:href="#linearGradient6337"
       id="linearGradient6339"
       x1="-2.2092516"
       y1="313.79732"
       x2="715.55268"
       y2="313.79732"
       gradientUnits="userSpaceOnUse" /><linearGradient
       inkscape:collect="always"
       xlink:href="#linearGradient6471"
       id="linearGradient6465"
       gradientUnits="userSpaceOnUse"
       x1="741.9986"
       y1="193.32294"
       x2="-33.331535"
       y2="382.49844" /><linearGradient
       inkscape:collect="always"
       xlink:href="#linearGradient6337"
       id="linearGradient8741"
       gradientUnits="userSpaceOnUse"
       x1="-2.2092516"
       y1="313.79732"
       x2="715.55268"
       y2="313.79732" /></defs><g
     inkscape:label="Camada 1"
     inkscape:groupmode="layer"
     id="layer1"
     transform="translate(-7.3346353,-32.681786)"><rect
       style="fill:none;fill-opacity:1;stroke:none;stroke-width:2.746;stroke-linecap:round;stroke-linejoin:round;stroke-miterlimit:4;stroke-dasharray:none;stroke-dashoffset:0;stroke-opacity:1"
       id="rect6274"
       width="197.55855"
       height="141.0089"
       x="7.3346353"
       y="32.732895"
       inkscape:export-xdpi="64.279999"
       inkscape:export-ydpi="64.279999"
       inkscape:export-filename="feature_image.png" /><rect
       style="fill:#ebebeb;fill-opacity:0;stroke:none;stroke-width:3.38667;stroke-miterlimit:4;stroke-dasharray:none;stroke-opacity:0"
       id="rect6192"
       width="197.55556"
       height="141.11111"
       x="7.3361306"
       y="32.681786"
       inkscape:export-xdpi="64.285706"
       inkscape:export-ydpi="64.285706" /><rect
       style="fill:none;fill-opacity:1;stroke:none;stroke-width:0.782897;stroke-linecap:round;stroke-linejoin:round;stroke-miterlimit:4;stroke-dasharray:none;stroke-dashoffset:0;stroke-opacity:1"
       id="rect2403"
       width="197.55855"
       height="141.1089"
       x="-67.357391"
       y="-44.647202"
       inkscape:export-xdpi="64.279999"
       inkscape:export-ydpi="64.279999" /><g
       id="g2000"
       transform="matrix(0.1128617,0,0,0.1128617,120.95833,54.97461)">
</g><g
       id="g2002"
       transform="matrix(0.1128617,0,0,0.1128617,120.95833,54.97461)">
</g><g
       id="g2004"
       transform="matrix(0.1128617,0,0,0.1128617,120.95833,54.97461)">
</g><g
       id="g2006"
       transform="matrix(0.1128617,0,0,0.1128617,120.95833,54.97461)">
</g><g
       id="g2008"
       transform="matrix(0.1128617,0,0,0.1128617,120.95833,54.97461)">
</g><g
       id="g2010"
       transform="matrix(0.1128617,0,0,0.1128617,120.95833,54.97461)">
</g><g
       id="g2012"
       transform="matrix(0.1128617,0,0,0.1128617,120.95833,54.97461)">
</g><g
       id="g2014"
       transform="matrix(0.1128617,0,0,0.1128617,120.95833,54.97461)">
</g><g
       id="g2016"
       transform="matrix(0.1128617,0,0,0.1128617,120.95833,54.97461)">
</g><g
       id="g2018"
       transform="matrix(0.1128617,0,0,0.1128617,120.95833,54.97461)">
</g><g
       id="g2020"
       transform="matrix(0.1128617,0,0,0.1128617,120.95833,54.97461)">
</g><g
       id="g2022"
       transform="matrix(0.1128617,0,0,0.1128617,120.95833,54.97461)">
</g><g
       id="g2024"
       transform="matrix(0.1128617,0,0,0.1128617,120.95833,54.97461)">
</g><g
       id="g2026"
       transform="matrix(0.1128617,0,0,0.1128617,120.95833,54.97461)">
</g><g
       id="g2028"
       transform="matrix(0.1128617,0,0,0.1128617,120.95833,54.97461)">
</g><g
       id="g8845"
       transform="translate(-0.9153485,3.2688011)"><g
         id="g1986"
         transform="matrix(1.1725345,0,0,1.1725345,-11.357584,-14.824642)"><path
           style="fill:#ffffff;fill-opacity:1;stroke:none;stroke-width:0.839325;stroke-miterlimit:4;stroke-dasharray:none;stroke-opacity:1"
           d="M 20.438491,144.65352 H 137.27275 l -2.05642,1.18725 H 21.99784 Z"
           id="path12833"
           inkscape:connector-curvature="0"
           sodipodi:nodetypes="ccccc"
           inkscape:export-xdpi="64.285706"
           inkscape:export-ydpi="64.285706" /><path
           style="fill:#ffffff;fill-opacity:1;stroke:#4d4d4d;stroke-width:0.814149;stroke-linecap:round;stroke-linejoin:round;stroke-miterlimit:4;stroke-dasharray:none;stroke-dashoffset:10.8;stroke-opacity:1"
           d="m 36.06745,87.977943 c -1.673165,0 -3.020111,1.092232 -3.020111,2.449063 v 27.094544 h -3.61e-4 v 23.60752 h 91.617782 v -23.60752 h -3.6e-4 V 90.427006 c 0,-1.356831 -1.34697,-2.449063 -3.02011,-2.449063 H 36.068699 Z"
           id="rect12959"
           inkscape:connector-curvature="0"
           inkscape:export-xdpi="64.285706"
           inkscape:export-ydpi="64.285706" /><rect
           y="90.716003"
           x="35.918049"
           height="50.346138"
           width="85.875122"
           id="rect12843"
           style="fill:#ffffff;fill-opacity:1;stroke:#4d4d4d;stroke-width:0.54955;stroke-miterlimit:4;stroke-dasharray:none;stroke-opacity:1"
           inkscape:export-xdpi="64.285706"
           inkscape:export-ydpi="64.285706" /><path
           inkscape:connector-curvature="0"
           id="path12853"
           d="m 137.45537,144.66384 -1.98798,1.04921 H 21.875246 l -1.620219,-1.04568"
           style="fill:#e6e6e6;fill-rule:evenodd;stroke:#4d4d4d;stroke-width:0.473623;stroke-linecap:round;stroke-linejoin:round;stroke-miterlimit:4;stroke-dasharray:none;stroke-opacity:1"
           inkscape:export-xdpi="64.285706"
           inkscape:export-ydpi="64.285706"
           sodipodi:nodetypes="cccc" /><rect
           style="fill:#ffffff;fill-opacity:1;stroke:#4d4d4d;stroke-width:0.842701;stroke-miterlimit:4;stroke-dasharray:none;stroke-opacity:1"
           id="rect12855"
           width="116.83423"
           height="3.3226192"
           x="20.438503"
           y="140.93271"
           inkscape:export-xdpi="64.285706"
           inkscape:export-ydpi="64.285706" /><rect
           style="fill:none;fill-opacity:1;stroke:#4d4d4d;stroke-width:0.290877;stroke-linecap:round;stroke-linejoin:round;stroke-miterlimit:4;stroke-dasharray:none;stroke-dashoffset:10.8;stroke-opacity:1"
           id="rect6624"
           width="14.838458"
           height="1.6102167"
           x="71.436371"
           y="140.95883"
           ry="0.44151083"
           inkscape:export-xdpi="64.285706"
           inkscape:export-ydpi="64.285706" /><rect
           style="fill:#e6e6e6;fill-opacity:1;stroke:#4d4d4d;stroke-width:0.275384;stroke-linecap:round;stroke-linejoin:round;stroke-miterlimit:4;stroke-dasharray:none;stroke-dashoffset:10.8;stroke-opacity:1"
           id="rect7394"
           width="85.691437"
           height="2.2251203"
           x="36.061668"
           y="90.885445"
           inkscape:export-xdpi="64.285706"
           inkscape:export-ydpi="64.285706" /><circle
           style="fill:#ffffff;fill-opacity:1;stroke:#808080;stroke-width:0.842701;stroke-linecap:round;stroke-linejoin:round;stroke-miterlimit:4;stroke-dasharray:none;stroke-dashoffset:10.8;stroke-opacity:1"
           id="circle4476"
           cx="78.855614"
           cy="116.9003"
           r="13.194756" /><circle
           r="17.263361"
           cy="116.9003"
           cx="78.855614"
           id="path4464"
           style="fill:none;fill-opacity:1;stroke:#808080;stroke-width:0.198875;stroke-linecap:round;stroke-linejoin:round;stroke-miterlimit:4;stroke-dasharray:none;stroke-dashoffset:10.8;stroke-opacity:1" /><circle
           style="fill:none;fill-opacity:1;stroke:#808080;stroke-width:0.168539;stroke-linecap:round;stroke-linejoin:round;stroke-miterlimit:4;stroke-dasharray:0.168539, 0.33708;stroke-dashoffset:0;stroke-opacity:1"
           id="circle4478"
           cx="78.855614"
           cy="116.9003"
           r="12.354407" /><circle
           style="fill:none;fill-opacity:1;stroke:#808080;stroke-width:0.0506023;stroke-linecap:round;stroke-linejoin:round;stroke-miterlimit:4;stroke-dasharray:none;stroke-dashoffset:10.8;stroke-opacity:1"
           id="circle4480"
           cx="78.855614"
           cy="116.9003"
           r="21.213335" /><path
           id="path4207"
           d="m 78.765433,109.22773 c -0.624616,0.003 -1.22111,0.0563 -1.745964,0.14933 -1.546146,0.2737 -1.826871,0.84654 -1.826871,1.903 v 1.39525 h 3.653742 v 0.46507 h -3.653742 -1.371221 c -1.061878,0 -1.991689,0.63951 -2.282524,1.85607 -0.33547,1.39444 -0.350351,2.26461 0,3.72065 0.25972,1.08383 0.879971,1.85606 1.941853,1.85606 h 1.256232 v -1.67257 c 0,-1.20837 1.043454,-2.27422 2.282531,-2.27422 h 3.649491 c 1.01588,0 1.826865,-0.8381 1.826865,-1.86034 v -3.48597 c 0,-0.99213 -0.835327,-1.7374 -1.826865,-1.903 -0.627663,-0.10467 -1.278904,-0.15224 -1.903527,-0.14933 z m -1.97592,1.12216 c 0.377405,0 0.685609,0.31386 0.685609,0.69977 0,0.38453 -0.308204,0.69548 -0.685609,0.69548 -0.378757,0 -0.685608,-0.31095 -0.685608,-0.69548 0,-0.38591 0.306851,-0.69977 0.685608,-0.69977 z"
           style="fill:url(#linearGradient4213);fill-opacity:1;stroke:#000000;stroke-width:0;stroke-miterlimit:7.6981;stroke-dasharray:none"
           inkscape:connector-curvature="0" /><path
           id="path4209"
           d="m 82.951485,113.14038 v 1.62565 c 0,1.26036 -1.066437,2.32116 -2.282525,2.32116 h -3.649491 c -0.999649,0 -1.826871,0.85725 -1.826871,1.86032 v 3.48597 c 0,0.99214 0.861036,1.57569 1.826871,1.86034 1.15657,0.34075 2.265658,0.40233 3.649491,0 0.919843,-0.26684 1.826865,-0.80389 1.826865,-1.86034 v -1.39523 H 78.84634 v -0.46509 h 3.649485 1.826878 c 1.061879,0 1.457578,-0.74214 1.826871,-1.85606 0.381457,-1.14675 0.365233,-2.24957 0,-3.72065 -0.262424,-1.05918 -0.763639,-1.85607 -1.826871,-1.85607 z m -2.052569,8.82803 c 0.378751,0 0.685609,0.31096 0.685609,0.69549 0,0.3859 -0.306858,0.69975 -0.685609,0.69975 -0.377412,0 -0.685609,-0.31385 -0.685609,-0.69975 0,-0.38453 0.308197,-0.69549 0.685609,-0.69549 z"
           style="fill:url(#linearGradient4215);fill-opacity:1;stroke:#000000;stroke-width:0;stroke-miterlimit:7.6981;stroke-dasharray:none"
           inkscape:connector-curvature="0" /></g><g
         id="g1992"
         transform="matrix(0.18715365,0.02514036,-0.02514036,0.18715365,68.330173,12.696848)"
         style="opacity:0.65;fill:#333333;stroke:#808080;stroke-width:10.7477;stroke-dasharray:none;stroke-opacity:1;filter:url(#filter6199)">
	<g
   id="g1990"
   style="fill:#333333;stroke:#808080;stroke-width:10.7477;stroke-dasharray:none;stroke-opacity:1">
		<path
   d="M 668.34443,191.61351 H 45 c -24.82,0 -45,20.19 -45,45 V 300.99 c 0,24.82 20.18,45 45,45 H 80.72 90 v 75.001 c 0,13.38 16.22,19.99 25.6,10.61 41.88,-41.89 12.47,-12.47 81.211,-81.211 2.82,-2.82 6.62,-4.4 10.61,-4.4 h 460.92243 c 24.81,0 45,-20.18 45,-45 v -64.37649 c 10e-4,-24.81 -20.189,-45 -44.999,-45 z"
   id="path1988"
   sodipodi:nodetypes="sssssccscsssscs"
   style="fill:#333333;stroke:none;stroke-width:10.7477;stroke-dasharray:none;stroke-opacity:1" />
	</g>
</g><g
         id="g8724"
         transform="matrix(1.1953675,0,0,1.1953675,-37.265195,-21.192443)"><g
           id="g6197"
           transform="matrix(0.15656578,0.02103149,-0.02103149,0.15656578,88.337158,24.290156)"
           style="fill:#333333;stroke:url(#linearGradient6339);stroke-width:4.4185;stroke-dasharray:none;stroke-opacity:1">
	<g
   id="g6195"
   style="fill:#333333;stroke:url(#linearGradient8741);stroke-width:4.4185;stroke-dasharray:none;stroke-opacity:1">
		<path
   d="M 668.34443,191.61351 H 45 c -24.82,0 -45,20.19 -45,45 V 300.99 c 0,24.82 20.18,45 45,45 H 80.72 90 v 75.001 c 0,13.38 16.22,19.99 25.6,10.61 41.88,-41.89 12.47,-12.47 81.211,-81.211 2.82,-2.82 6.62,-4.4 10.61,-4.4 h 460.92243 c 24.81,0 45,-20.18 45,-45 v -64.37649 c 10e-4,-24.81 -20.189,-45 -44.999,-45 z"
   id="path6193"
   sodipodi:nodetypes="sssssccscsssscs"
   style="fill:#333333;stroke:url(#linearGradient6465);stroke-width:4.4185;stroke-dasharray:none;stroke-opacity:1" />
	</g>
</g><text
           xml:space="preserve"
           style="font-style:normal;font-variant:normal;font-weight:normal;font-stretch:normal;font-size:8.33681px;line-height:1.25;font-family:'DejaVu Sans Mono';-inkscape-font-specification:'DejaVu Sans Mono';letter-spacing:0px;word-spacing:0px;fill:#808080;fill-opacity:1;stroke:none;stroke-width:0.408;stroke-dasharray:none"
           x="97.411179"
           y="56.554958"
           id="text3816"
           inkscape:export-xdpi="64.279999"
           inkscape:export-ydpi="64.279999"
           transform="rotate(7.6507487)"><tspan
             sodipodi:role="line"
             id="tspan3814"
             x="97.411179"
             y="56.554958"
             style="font-style:normal;font-variant:normal;font-weight:bold;font-stretch:normal;font-family:'DejaVu Sans Mono';-inkscape-font-specification:'DejaVu Sans Mono';letter-spacing:0px;fill:#808080;stroke-width:0.408;stroke-dasharray:none"><tspan
   id="tspan3818"
   style="font-weight:bold;fill:#8d5fd3;stroke-width:0.408;stroke-dasharray:none">print</tspan>(<tspan
   id="tspan3824"
   style="font-weight:bold;fill:#ffcc00;stroke-width:0.408;stroke-dasharray:none">&quot;Olá, Mundo!&quot;</tspan>)</tspan></text></g></g></g></svg>
