<?xml version="1.0" encoding="UTF-8" standalone="no"?>
<!-- Created with Inkscape (http://www.inkscape.org/) -->

<svg
   xmlns:dc="http://purl.org/dc/elements/1.1/"
   xmlns:cc="http://creativecommons.org/ns#"
   xmlns:rdf="http://www.w3.org/1999/02/22-rdf-syntax-ns#"
   xmlns:svg="http://www.w3.org/2000/svg"
   xmlns="http://www.w3.org/2000/svg"
   xmlns:xlink="http://www.w3.org/1999/xlink"
   xmlns:sodipodi="http://sodipodi.sourceforge.net/DTD/sodipodi-0.dtd"
   xmlns:inkscape="http://www.inkscape.org/namespaces/inkscape"
   width="5.2917299mm"
   height="5.2917299mm"
   viewBox="0 0 5.2917299 5.2917299"
   version="1.1"
   id="svg1966"
   inkscape:version="0.92.5 (0.92.5+69)"
   sodipodi:docname="featured_image.svg">
  <defs
     id="defs1960">
    <linearGradient
       id="linearGradient3399"
       inkscape:collect="always">
      <stop
         id="stop3395"
         offset="0"
         style="stop-color:#000000;stop-opacity:0.37254903" />
      <stop
         id="stop3397"
         offset="1"
         style="stop-color:#000000;stop-opacity:0.13725491" />
    </linearGradient>
    <linearGradient
       id="linearGradient3393"
       inkscape:collect="always">
      <stop
         id="stop3389"
         offset="0"
         style="stop-color:#000000;stop-opacity:0.37254903" />
      <stop
         id="stop3391"
         offset="1"
         style="stop-color:#000000;stop-opacity:0.13725491" />
    </linearGradient>
    <linearGradient
       id="linearGradient3387"
       inkscape:collect="always">
      <stop
         id="stop3383"
         offset="0"
         style="stop-color:#000000;stop-opacity:0.37254903" />
      <stop
         id="stop3385"
         offset="1"
         style="stop-color:#000000;stop-opacity:0.13725491" />
    </linearGradient>
    <linearGradient
       inkscape:collect="always"
       id="linearGradient3373">
      <stop
         style="stop-color:#000000;stop-opacity:0.37254903"
         offset="0"
         id="stop3369" />
      <stop
         style="stop-color:#000000;stop-opacity:0.13725491"
         offset="1"
         id="stop3371" />
    </linearGradient>
    <linearGradient
       inkscape:collect="always"
       xlink:href="#linearGradient3373"
       id="linearGradient3375"
       x1="126.62061"
       y1="91.004387"
       x2="131.88866"
       y2="96.27243"
       gradientUnits="userSpaceOnUse" />
    <linearGradient
       inkscape:collect="always"
       xlink:href="#linearGradient3399"
       id="linearGradient3377"
       x1="126.62061"
       y1="91.004387"
       x2="131.88866"
       y2="96.27243"
       gradientUnits="userSpaceOnUse" />
    <linearGradient
       inkscape:collect="always"
       xlink:href="#linearGradient3393"
       id="linearGradient3379"
       x1="126.62061"
       y1="91.004387"
       x2="131.88866"
       y2="96.27243"
       gradientUnits="userSpaceOnUse" />
    <linearGradient
       inkscape:collect="always"
       xlink:href="#linearGradient3387"
       id="linearGradient3381"
       x1="7.9958234"
       y1="8.0043526"
       x2="23.924206"
       y2="23.932734"
       gradientUnits="userSpaceOnUse" />
    <linearGradient
       inkscape:collect="always"
       xlink:href="#linearGradient3387"
       id="linearGradient3401"
       gradientUnits="userSpaceOnUse"
       x1="7.9958234"
       y1="8.0043526"
       x2="23.924206"
       y2="23.932734" />
    <linearGradient
       inkscape:collect="always"
       xlink:href="#linearGradient3387"
       id="linearGradient3403"
       gradientUnits="userSpaceOnUse"
       x1="7.9958234"
       y1="8.0043526"
       x2="23.924206"
       y2="23.932734" />
    <linearGradient
       inkscape:collect="always"
       xlink:href="#linearGradient3387"
       id="linearGradient3405"
       gradientUnits="userSpaceOnUse"
       x1="7.9958234"
       y1="8.0043526"
       x2="23.924206"
       y2="23.932734" />
    <linearGradient
       inkscape:collect="always"
       xlink:href="#linearGradient3387"
       id="linearGradient3407"
       gradientUnits="userSpaceOnUse"
       x1="7.9958234"
       y1="8.0043526"
       x2="23.924206"
       y2="23.932734" />
    <linearGradient
       inkscape:collect="always"
       xlink:href="#linearGradient3387"
       id="linearGradient3409"
       gradientUnits="userSpaceOnUse"
       x1="7.9958234"
       y1="8.0043526"
       x2="23.924206"
       y2="23.932734" />
  </defs>
  <sodipodi:namedview
     id="base"
     pagecolor="#ffffff"
     bordercolor="#666666"
     borderopacity="1.0"
     inkscape:pageopacity="0.0"
     inkscape:pageshadow="2"
     inkscape:zoom="22.4"
     inkscape:cx="-3.9577838"
     inkscape:cy="8.0359824"
     inkscape:document-units="mm"
     inkscape:current-layer="layer1"
     showgrid="false"
     fit-margin-top="0"
     fit-margin-left="0"
     fit-margin-right="0"
     fit-margin-bottom="0"
     inkscape:window-width="2560"
     inkscape:window-height="1003"
     inkscape:window-x="0"
     inkscape:window-y="0"
     inkscape:window-maximized="1" />
  <metadata
     id="metadata1963">
    <rdf:RDF>
      <cc:Work
         rdf:about="">
        <dc:format>image/svg+xml</dc:format>
        <dc:type
           rdf:resource="http://purl.org/dc/dcmitype/StillImage" />
        <dc:title></dc:title>
      </cc:Work>
    </rdf:RDF>
  </metadata>
  <g
     inkscape:label="Layer 1"
     inkscape:groupmode="layer"
     id="layer1"
     transform="translate(-126.62199,-91.002945)">
    <g
       style="fill:url(#linearGradient3381);fill-opacity:1;stroke:none;stroke-width:0.1511793;stroke-miterlimit:4;stroke-dasharray:none;stroke-opacity:0.11764706"
       id="g1958"
       transform="matrix(0.33073311,0,0,0.33073311,123.97613,88.35708)">
      <path
         inkscape:connector-curvature="0"
         d="m 20.333,15.667 c -1.1,0 -2,0.9 -2,2 0,1.1 0.9,2 2,2 1.1,0 2,-0.9 2,-2 0,-1.1 -0.9,-2 -2,-2 z"
         id="path1948"
         style="fill:url(#linearGradient3401);fill-opacity:1;stroke:none;stroke-width:0.1511793;stroke-miterlimit:4;stroke-dasharray:none;stroke-opacity:0.11764706" />
      <path
         inkscape:connector-curvature="0"
         d="M 22.167,20.667 H 18.5 c -1.013,0 -1.833,0.82 -1.833,1.833 v 1 c 0,0.273 0.227,0.5 0.5,0.5 H 23.5 c 0.273,0 0.5,-0.227 0.5,-0.5 v -1 c 0,-1.013 -0.82,-1.833 -1.833,-1.833 z"
         id="path1950"
         style="fill:url(#linearGradient3403);fill-opacity:1;stroke:none;stroke-width:0.1511793;stroke-miterlimit:4;stroke-dasharray:none;stroke-opacity:0.11764706" />
      <path
         inkscape:connector-curvature="0"
         d="m 10.667,18 c -0.733,0 -1.333,0.6 -1.333,1.333 0,0.733 0.6,1.333 1.333,1.333 C 11.4,20.666 12,20.066 12,19.333 12,18.6 11.4,18 10.667,18 Z"
         id="path1952"
         style="fill:url(#linearGradient3405);fill-opacity:1;stroke:none;stroke-width:0.1511793;stroke-miterlimit:4;stroke-dasharray:none;stroke-opacity:0.11764706" />
      <path
         inkscape:connector-curvature="0"
         d="M 11.5,21.333 H 9.833 C 8.82,21.333 8,22.153 8,23.167 V 23.5 C 8,23.773 8.227,24 8.5,24 h 4.333 c 0.273,0 0.5,-0.227 0.5,-0.5 v -0.333 c 0,-1.014 -0.82,-1.834 -1.833,-1.834 z"
         id="path1954"
         style="fill:url(#linearGradient3407);fill-opacity:1;stroke:none;stroke-width:0.1511793;stroke-miterlimit:4;stroke-dasharray:none;stroke-opacity:0.11764706" />
      <path
         inkscape:connector-curvature="0"
         d="m 15.5,18 c -0.164,0 -0.327,-0.061 -0.452,-0.177 L 13.073,16 H 9.333 C 8.598,16 8,15.402 8,14.667 V 9.333 C 8,8.598 8.598,8 9.333,8 h 8 c 0.735,0 1.333,0.598 1.333,1.333 v 5.333 c 0,0.735 -0.598,1.333 -1.333,1.333 h -1.167 v 1.333 c 0,0.265 -0.157,0.505 -0.399,0.611 C 15.682,17.982 15.59,18 15.5,18 Z M 9.333,9.333 v 5.333 h 4 c 0.167,0 0.329,0.063 0.452,0.177 l 1.048,0.967 v -0.477 c 0,-0.368 0.298,-0.667 0.667,-0.667 h 1.833 V 9.333 Z"
         id="path1956"
         style="fill:url(#linearGradient3409);fill-opacity:1;stroke:none;stroke-width:0.1511793;stroke-miterlimit:4;stroke-dasharray:none;stroke-opacity:0.11764706" />
    </g>
    <path
       style="fill:url(#linearGradient3379);fill-opacity:1;stroke:none;stroke-width:0.05;stroke-miterlimit:4;stroke-dasharray:none;stroke-opacity:0.11764706"
       inkscape:connector-curvature="0"
       d="m 129.10249,92.877209 c -0.038,0 -0.0764,-0.0129 -0.10782,-0.03969 -0.0695,-0.05953 -0.0774,-0.163712 -0.0179,-0.233166 l 0.23846,-0.278478 -0.23846,-0.278146 c -0.0595,-0.06945 -0.0516,-0.173635 0.0179,-0.233167 0.0695,-0.0592 0.17364,-0.05159 0.23317,0.01786 l 0.33073,0.385965 c 0.0532,0.06218 0.0532,0.15346 0,0.215307 l -0.33073,0.385966 c -0.0324,0.0377 -0.0787,0.05755 -0.12535,0.05755 z"
       id="path1960" />
    <path
       style="fill:url(#linearGradient3377);fill-opacity:1;stroke:none;stroke-width:0.05;stroke-miterlimit:4;stroke-dasharray:none;stroke-opacity:0.11764706"
       inkscape:connector-curvature="0"
       d="m 127.66943,92.877209 c -0.0466,0 -0.0929,-0.01951 -0.12568,-0.05755 l -0.33074,-0.385966 c -0.0532,-0.06218 -0.0532,-0.15346 0,-0.215307 l 0.33074,-0.385965 c 0.0595,-0.06945 0.16371,-0.07739 0.23316,-0.01786 0.0695,0.05953 0.0774,0.163713 0.0179,0.233167 l -0.23845,0.278146 0.23845,0.278147 c 0.0595,0.06945 0.0516,0.173635 -0.0179,0.233167 -0.0311,0.02679 -0.0695,0.04002 -0.10748,0.04002 z"
       id="path1962" />
    <path
       style="fill:url(#linearGradient3375);fill-opacity:1;stroke:none;stroke-width:0.05;stroke-miterlimit:4;stroke-dasharray:none;stroke-opacity:0.11764706"
       inkscape:connector-curvature="0"
       d="m 128.31237,92.986351 c -0.0906,-0.01025 -0.1561,-0.09194 -0.14585,-0.182564 l 0.11013,-0.9922 c 0.01,-0.09062 0.0913,-0.155775 0.18257,-0.146184 0.0906,0.01025 0.1561,0.09194 0.14585,0.182565 l -0.11013,0.992199 c -0.01,0.08798 -0.0883,0.156106 -0.18257,0.146184 z"
       id="path1964" />
  </g>
</svg>
