<?xml version="1.0" encoding="UTF-8" standalone="no"?>
<!-- Created with Inkscape (http://www.inkscape.org/) -->

<svg
   xmlns:dc="http://purl.org/dc/elements/1.1/"
   xmlns:cc="http://creativecommons.org/ns#"
   xmlns:rdf="http://www.w3.org/1999/02/22-rdf-syntax-ns#"
   xmlns:svg="http://www.w3.org/2000/svg"
   xmlns="http://www.w3.org/2000/svg"
   xmlns:xlink="http://www.w3.org/1999/xlink"
   xmlns:sodipodi="http://sodipodi.sourceforge.net/DTD/sodipodi-0.dtd"
   xmlns:inkscape="http://www.inkscape.org/namespaces/inkscape"
   width="197.55849mm"
   height="141.10895mm"
   viewBox="0 0 197.55849 141.10895"
   version="1.1"
   id="svg978"
   inkscape:version="0.92.5 (0.92.5+69)"
   sodipodi:docname="featured_img.svg">
  <defs
     id="defs972">
    <marker
       inkscape:stockid="TriangleOutS"
       orient="auto"
       refY="0"
       refX="0"
       id="marker4839"
       style="overflow:visible"
       inkscape:isstock="true">
      <path
         inkscape:connector-curvature="0"
         id="path4837"
         d="M 5.77,0 -2.88,5 V -5 Z"
         style="fill:#3771c8;fill-opacity:1;fill-rule:evenodd;stroke:#3771c8;stroke-width:1.00000003pt;stroke-opacity:1"
         transform="scale(0.2)" />
    </marker>
    <marker
       inkscape:stockid="TriangleOutS"
       orient="auto"
       refY="0"
       refX="0"
       id="TriangleOutS"
       style="overflow:visible"
       inkscape:isstock="true">
      <path
         inkscape:connector-curvature="0"
         id="path4377"
         d="M 5.77,0 -2.88,5 V -5 Z"
         style="fill:#ffcc00;fill-opacity:1;fill-rule:evenodd;stroke:#ffcc00;stroke-width:1.00000003pt;stroke-opacity:1"
         transform="scale(0.2)" />
    </marker>
    <linearGradient
       xlink:href="#e"
       gradientUnits="userSpaceOnUse"
       gradientTransform="matrix(0.07204893,0,0,0.07288751,-193.94727,63.967619)"
       y2="137.27"
       y1="192.35001"
       x2="112.03"
       x1="150.96001"
       id="a" />
    <linearGradient
       id="e">
      <stop
         id="stop3"
         offset="0"
         stop-color="#ffd43b" />
      <stop
         id="stop5"
         offset="1"
         stop-color="#ffe873" />
    </linearGradient>
    <linearGradient
       xlink:href="#d"
       gradientUnits="userSpaceOnUse"
       gradientTransform="matrix(0.07204893,0,0,0.07288751,-193.94727,63.967619)"
       y2="114.4"
       y1="20.604"
       x2="135.67"
       x1="26.649"
       id="b" />
    <linearGradient
       id="d">
      <stop
         id="stop8"
         offset="0"
         stop-color="#5a9fd4" />
      <stop
         id="stop10"
         offset="1"
         stop-color="#306998" />
    </linearGradient>
    <filter
       inkscape:collect="always"
       style="color-interpolation-filters:sRGB"
       id="filter1828"
       x="-0.73003286"
       width="2.4600656"
       y="-0.73397779"
       height="2.4679556">
      <feGaussianBlur
         inkscape:collect="always"
         stdDeviation="15.866359"
         id="feGaussianBlur1830" />
    </filter>
  </defs>
  <sodipodi:namedview
     id="base"
     pagecolor="#ffffff"
     bordercolor="#666666"
     borderopacity="1.0"
     inkscape:pageopacity="0.0"
     inkscape:pageshadow="2"
     inkscape:zoom="0.9899495"
     inkscape:cx="73.296486"
     inkscape:cy="242.95533"
     inkscape:document-units="mm"
     inkscape:current-layer="layer1"
     showgrid="false"
     fit-margin-top="0"
     fit-margin-left="0"
     fit-margin-right="0"
     fit-margin-bottom="0"
     inkscape:window-width="2560"
     inkscape:window-height="1003"
     inkscape:window-x="0"
     inkscape:window-y="0"
     inkscape:window-maximized="1"
     inkscape:snap-bbox="true"
     inkscape:bbox-paths="true"
     inkscape:bbox-nodes="true"
     inkscape:snap-bbox-edge-midpoints="true"
     inkscape:snap-bbox-midpoints="true"
     inkscape:object-paths="true"
     inkscape:snap-intersection-paths="true"
     inkscape:object-nodes="true"
     inkscape:snap-smooth-nodes="true"
     inkscape:snap-global="false" />
  <metadata
     id="metadata975">
    <rdf:RDF>
      <cc:Work
         rdf:about="">
        <dc:format>image/svg+xml</dc:format>
        <dc:type
           rdf:resource="http://purl.org/dc/dcmitype/StillImage" />
        <dc:title></dc:title>
      </cc:Work>
    </rdf:RDF>
  </metadata>
  <g
     inkscape:label="Layer 1"
     inkscape:groupmode="layer"
     id="layer1"
     transform="translate(39.753429,-62.403858)">
    <rect
       id="rect37"
       height="141.10895"
       width="197.55849"
       y="62.403858"
       x="-39.753429"
       style="fill:none;fill-opacity:1;stroke-width:0.99999231"
       inkscape:export-xdpi="64.279999"
       inkscape:export-ydpi="64.279999" />
    <g
       id="g2013"
       transform="translate(-4.6252318,-0.03968243)"
       inkscape:export-xdpi="64.279999"
       inkscape:export-ydpi="64.279999">
      <g
         id="g1921">
        <path
           style="fill:none;stroke:#8f8f8f;stroke-width:1.44993341;stroke-linecap:butt;stroke-linejoin:miter;stroke-miterlimit:4;stroke-dasharray:none;stroke-opacity:1"
           d="M 13.063008,109.41393 59.180192,132.95965 47.191105,80.624146 59.180192,132.95965 102.01349,102.76674 59.180192,132.95965 102.5456,139.23063 59.180192,132.95965 94.711197,175.01057 59.180192,132.95965 37.994793,182.54681 59.180192,132.95965 24.532375,153.5159 59.180192,132.95965"
           id="path1288"
           inkscape:connector-curvature="0"
           sodipodi:nodetypes="cccccccccccccc" />
        <g
           id="g1191"
           transform="matrix(0.6679069,0,0,0.6679069,178.75982,13.847839)">
          <rect
             ry="2.6458297"
             rx="2.6458297"
             y="87.51783"
             x="-251.14131"
             height="23.519718"
             width="108.40096"
             id="rect987"
             style="opacity:1;vector-effect:none;fill:#37c8ab;fill-opacity:1;stroke:#333333;stroke-width:2.5;stroke-linecap:round;stroke-linejoin:round;stroke-miterlimit:4;stroke-dasharray:none;stroke-dashoffset:0;stroke-opacity:1" />
          <g
             id="text991"
             style="font-style:normal;font-variant:normal;font-weight:bold;font-stretch:normal;font-size:11.87027836px;line-height:1.25;font-family:'DejaVu Sans Mono';-inkscape-font-specification:'DejaVu Sans Mono Bold';text-align:center;letter-spacing:0px;word-spacing:0px;text-anchor:middle;fill:#333333;fill-opacity:1;stroke:none;stroke-width:0.29675695"
             aria-label="git checkout">
            <path
               inkscape:connector-curvature="0"
               id="path1155"
               style="font-style:normal;font-variant:normal;font-weight:bold;font-stretch:normal;font-family:'DejaVu Sans Mono';-inkscape-font-specification:'DejaVu Sans Mono Bold';fill:#333333;fill-opacity:1;stroke-width:0.29675695"
               d="m -234.90775,99.161763 q 0,-0.869405 -0.33038,-1.391048 -0.33037,-0.527439 -0.8694,-0.527439 -0.53324,0 -0.86361,0.521643 -0.32458,0.521643 -0.32458,1.396844 0,0.880997 0.32458,1.402637 0.33037,0.52165 0.86361,0.52165 0.53903,0 0.8694,-0.52165 0.33038,-0.52744 0.33038,-1.402637 z m 1.69824,2.863237 q 0,1.55914 -0.70712,2.24887 -0.70132,0.69552 -2.28364,0.69552 -0.53323,0 -1.05488,-0.0811 -0.52164,-0.0754 -1.06067,-0.23764 v -1.55914 q 0.48107,0.26662 0.97953,0.39414 0.49846,0.12751 1.0259,0.12751 0.71871,0 1.06067,-0.34197 0.34197,-0.33617 0.34197,-1.05488 v -0.70132 q -0.24923,0.46369 -0.66075,0.68973 -0.41152,0.22605 -1.00271,0.22605 -1.11284,0 -1.76779,-0.86941 -0.65496,-0.8694 -0.65496,-2.358984 0,-1.541745 0.65496,-2.445927 0.65495,-0.904181 1.75619,-0.904181 0.55642,0 0.99113,0.260821 0.4347,0.260822 0.68393,0.736097 v -0.828833 h 1.69824 z" />
            <path
               inkscape:connector-curvature="0"
               id="path1157"
               style="font-style:normal;font-variant:normal;font-weight:bold;font-stretch:normal;font-family:'DejaVu Sans Mono';-inkscape-font-specification:'DejaVu Sans Mono Bold';fill:#333333;fill-opacity:1;stroke-width:0.29675695"
               d="m -231.14033,96.020313 h 3.3617 v 5.187447 h 2.10976 v 1.30411 h -5.92355 v -1.30411 h 2.11555 v -3.883339 h -1.66346 z m 1.66346,-3.158839 h 1.69824 v 1.982244 h -1.69824 z" />
            <path
               inkscape:connector-curvature="0"
               id="path1159"
               style="font-style:normal;font-variant:normal;font-weight:bold;font-stretch:normal;font-family:'DejaVu Sans Mono';-inkscape-font-specification:'DejaVu Sans Mono Bold';fill:#333333;fill-opacity:1;stroke-width:0.29675695"
               d="m -221.28128,94.177174 v 1.843139 h 2.21989 v 1.304108 h -2.21989 v 3.071899 q 0,0.4347 0.20866,0.62597 0.21445,0.18547 0.70712,0.18547 h 1.30411 v 1.30411 h -1.42583 q -1.4606,0 -1.97645,-0.46368 -0.51584,-0.46948 -0.51584,-1.73302 v -2.990749 h -1.65767 v -1.304108 h 1.65767 v -1.843139 z" />
            <path
               inkscape:connector-curvature="0"
               id="path1161"
               style="font-style:normal;font-variant:normal;font-weight:bold;font-stretch:normal;font-family:'DejaVu Sans Mono';-inkscape-font-specification:'DejaVu Sans Mono Bold';fill:#333333;fill-opacity:1;stroke-width:0.29675695"
               d="m -204.84952,102.1815 q -0.42891,0.24923 -0.92157,0.37094 -0.49266,0.12752 -1.06067,0.12752 -1.50118,0 -2.3474,-0.90419 -0.84622,-0.90418 -0.84622,-2.503882 0,-1.605501 0.85202,-2.509683 0.85202,-0.909977 2.35319,-0.909977 0.52164,0 1.00271,0.121717 0.48687,0.121716 0.96794,0.376742 v 1.553337 q -0.37094,-0.318782 -0.81724,-0.486867 -0.4405,-0.173881 -0.91577,-0.173881 -0.82884,0 -1.27513,0.527439 -0.4463,0.527439 -0.4463,1.501173 0,0.973732 0.4463,1.495372 0.44629,0.52165 1.27513,0.52165 0.49266,0 0.92157,-0.16229 0.4289,-0.16809 0.81144,-0.50426 z" />
            <path
               inkscape:connector-curvature="0"
               id="path1163"
               style="font-style:normal;font-variant:normal;font-weight:bold;font-stretch:normal;font-family:'DejaVu Sans Mono';-inkscape-font-specification:'DejaVu Sans Mono Bold';fill:#333333;fill-opacity:1;stroke-width:0.29675695"
               d="m -197.65084,98.298154 v 4.213716 h -1.68665 v -3.952894 q 0,-0.70132 -0.20286,-1.002714 -0.19707,-0.301394 -0.64916,-0.301394 -0.46368,0 -0.7245,0.411519 -0.26082,0.405722 -0.26082,1.130226 v 3.715257 h -1.68665 v -9.018628 h 1.68665 v 3.500805 q 0.17967,-0.539032 0.61438,-0.834629 0.4347,-0.295598 1.04908,-0.295598 0.92157,0 1.39105,0.61438 0.46948,0.608583 0.46948,1.819954 z" />
            <path
               inkscape:connector-curvature="0"
               id="path1165"
               style="font-style:normal;font-variant:normal;font-weight:bold;font-stretch:normal;font-family:'DejaVu Sans Mono';-inkscape-font-specification:'DejaVu Sans Mono Bold';fill:#333333;fill-opacity:1;stroke-width:0.29675695"
               d="m -190.33045,102.19309 q -0.5912,0.24343 -1.20558,0.36515 -0.61438,0.12172 -1.29831,0.12172 -1.62869,0 -2.4923,-0.86941 -0.85781,-0.8752 -0.85781,-2.515478 0,-1.588113 0.82883,-2.509683 0.82884,-0.921569 2.26046,-0.921569 1.44321,0 2.23727,0.857813 0.79985,0.852017 0.79985,2.405354 v 0.689728 h -4.39919 q 0.006,0.765075 0.45209,1.141815 0.44629,0.37675 1.33309,0.37675 0.5854,0 1.15341,-0.16809 0.56801,-0.16808 1.18819,-0.53323 z m -1.43742,-3.651502 q -0.0116,-0.67234 -0.34776,-1.014306 -0.33038,-0.347762 -0.97953,-0.347762 -0.5854,0 -0.93316,0.359354 -0.34777,0.353558 -0.41152,1.00851 z" />
            <path
               inkscape:connector-curvature="0"
               id="path1167"
               style="font-style:normal;font-variant:normal;font-weight:bold;font-stretch:normal;font-family:'DejaVu Sans Mono';-inkscape-font-specification:'DejaVu Sans Mono Bold';fill:#333333;fill-opacity:1;stroke-width:0.29675695"
               d="m -183.42737,102.1815 q -0.42891,0.24923 -0.92157,0.37094 -0.49267,0.12752 -1.06068,0.12752 -1.50117,0 -2.34739,-0.90419 -0.84622,-0.90418 -0.84622,-2.503882 0,-1.605501 0.85201,-2.509683 0.85202,-0.909977 2.35319,-0.909977 0.52165,0 1.00272,0.121717 0.48686,0.121716 0.96794,0.376742 v 1.553337 q -0.37095,-0.318782 -0.81725,-0.486867 -0.44049,-0.173881 -0.91577,-0.173881 -0.82883,0 -1.27513,0.527439 -0.44629,0.527439 -0.44629,1.501173 0,0.973732 0.44629,1.495372 0.4463,0.52165 1.27513,0.52165 0.49266,0 0.92157,-0.16229 0.42891,-0.16809 0.81145,-0.50426 z" />
            <path
               inkscape:connector-curvature="0"
               id="path1169"
               style="font-style:normal;font-variant:normal;font-weight:bold;font-stretch:normal;font-family:'DejaVu Sans Mono';-inkscape-font-specification:'DejaVu Sans Mono Bold';fill:#333333;fill-opacity:1;stroke-width:0.29675695"
               d="m -181.42774,93.493242 h 1.69823 v 4.73536 l 2.04021,-2.208289 h 2.05759 l -2.45752,2.422742 2.59662,4.068815 h -1.87791 l -1.77938,-3.037121 -0.57961,0.556421 v 2.4807 h -1.69823 z" />
            <path
               inkscape:connector-curvature="0"
               id="path1171"
               style="font-style:normal;font-variant:normal;font-weight:bold;font-stretch:normal;font-family:'DejaVu Sans Mono';-inkscape-font-specification:'DejaVu Sans Mono Bold';fill:#333333;fill-opacity:1;stroke-width:0.29675695"
               d="m -171.72518,97.243276 q -0.60859,0 -0.95635,0.539031 -0.34776,0.533235 -0.34776,1.489581 0,0.956342 0.34776,1.495372 0.34776,0.53324 0.95635,0.53324 0.61438,0 0.96214,-0.53324 0.34776,-0.53903 0.34776,-1.495372 0,-0.956346 -0.34776,-1.489581 -0.34776,-0.539031 -0.96214,-0.539031 z m -3.00235,2.028612 q 0,-1.570725 0.81144,-2.486499 0.81725,-0.921569 2.19091,-0.921569 1.37945,0 2.1909,0.921569 0.81724,0.915774 0.81724,2.486499 0,1.570722 -0.81724,2.492292 -0.81145,0.91578 -2.1909,0.91578 -1.37366,0 -2.19091,-0.91578 -0.81144,-0.92157 -0.81144,-2.492292 z" />
            <path
               inkscape:connector-curvature="0"
               id="path1173"
               style="font-style:normal;font-variant:normal;font-weight:bold;font-stretch:normal;font-family:'DejaVu Sans Mono';-inkscape-font-specification:'DejaVu Sans Mono Bold';fill:#333333;fill-opacity:1;stroke-width:0.29675695"
               d="m -167.22746,100.24562 v -4.225307 h 1.69824 V 99.9848 q 0,0.70132 0.19706,1.00271 0.19707,0.3014 0.65496,0.3014 0.45788,0 0.71291,-0.40572 0.26082,-0.40573 0.26082,-1.136027 v -3.72685 h 1.69824 v 6.491557 h -1.69824 v -0.96214 q -0.17968,0.53903 -0.61438,0.83463 -0.42891,0.2956 -1.03749,0.2956 -0.92737,0 -1.40264,-0.61438 -0.46948,-0.61438 -0.46948,-1.81996 z" />
            <path
               inkscape:connector-curvature="0"
               id="path1175"
               style="font-style:normal;font-variant:normal;font-weight:bold;font-stretch:normal;font-family:'DejaVu Sans Mono';-inkscape-font-specification:'DejaVu Sans Mono Bold';fill:#333333;fill-opacity:1;stroke-width:0.29675695"
               d="m -157.01484,94.177174 v 1.843139 h 2.21988 v 1.304108 h -2.21988 v 3.071899 q 0,0.4347 0.20865,0.62597 0.21446,0.18547 0.70712,0.18547 h 1.30411 v 1.30411 h -1.42583 q -1.4606,0 -1.97645,-0.46368 -0.51584,-0.46948 -0.51584,-1.73302 v -2.990749 h -1.65767 v -1.304108 h 1.65767 v -1.843139 z" />
          </g>
        </g>
        <g
           id="g1435"
           transform="matrix(0.91773331,0,0,0.91773331,5.2363608,10.951165)">
          <rect
             style="opacity:1;vector-effect:none;fill:#ffdd55;fill-opacity:1;stroke:#333333;stroke-width:1.81944716;stroke-linecap:round;stroke-linejoin:round;stroke-miterlimit:4;stroke-dasharray:none;stroke-dashoffset:0;stroke-opacity:1"
             id="rect993"
             width="68.07988"
             height="17.117153"
             x="-2.7073917"
             y="182.43224"
             rx="2.5286703"
             ry="2.5286703" />
          <g
             transform="matrix(0.72777886,0,0,0.72777886,174.66192,91.117744)"
             id="text997"
             style="font-style:normal;font-variant:normal;font-weight:bold;font-stretch:normal;font-size:11.87027836px;line-height:1.25;font-family:'DejaVu Sans Mono';-inkscape-font-specification:'DejaVu Sans Mono Bold';text-align:center;letter-spacing:0px;word-spacing:0px;text-anchor:middle;fill:#333333;fill-opacity:1;stroke:none;stroke-width:0.29675695"
             aria-label="git status">
            <path
               inkscape:connector-curvature="0"
               id="path1136"
               style="font-style:normal;font-variant:normal;font-weight:bold;font-stretch:normal;font-family:'DejaVu Sans Mono';-inkscape-font-specification:'DejaVu Sans Mono Bold';fill:#333333;fill-opacity:1;stroke-width:0.29675695"
               d="m -227.76124,137.11403 q 0,-0.8694 -0.33037,-1.39104 -0.33038,-0.52744 -0.86941,-0.52744 -0.53323,0 -0.86361,0.52164 -0.32458,0.52164 -0.32458,1.39684 0,0.881 0.32458,1.40264 0.33038,0.52165 0.86361,0.52165 0.53903,0 0.86941,-0.52165 0.33037,-0.52743 0.33037,-1.40264 z m 1.69824,2.86324 q 0,1.55914 -0.70712,2.24887 -0.70132,0.69552 -2.28364,0.69552 -0.53323,0 -1.05487,-0.0811 -0.52165,-0.0753 -1.06068,-0.23764 v -1.55913 q 0.48107,0.26661 0.97953,0.39413 0.49846,0.12751 1.0259,0.12751 0.71871,0 1.06067,-0.34197 0.34197,-0.33617 0.34197,-1.05488 v -0.70132 q -0.24923,0.46369 -0.66075,0.68973 -0.41152,0.22605 -1.00271,0.22605 -1.11284,0 -1.76779,-0.86941 -0.65495,-0.8694 -0.65495,-2.35898 0,-1.54175 0.65495,-2.44593 0.65495,-0.90418 1.7562,-0.90418 0.55642,0 0.99112,0.26082 0.4347,0.26082 0.68393,0.7361 v -0.82884 h 1.69824 z" />
            <path
               inkscape:connector-curvature="0"
               id="path1138"
               style="font-style:normal;font-variant:normal;font-weight:bold;font-stretch:normal;font-family:'DejaVu Sans Mono';-inkscape-font-specification:'DejaVu Sans Mono Bold';fill:#333333;fill-opacity:1;stroke-width:0.29675695"
               d="m -223.99382,133.97258 h 3.3617 v 5.18745 h 2.10976 v 1.30411 h -5.92355 v -1.30411 h 2.11555 v -3.88334 h -1.66346 z m 1.66346,-3.15884 h 1.69824 v 1.98225 h -1.69824 z" />
            <path
               inkscape:connector-curvature="0"
               id="path1140"
               style="font-style:normal;font-variant:normal;font-weight:bold;font-stretch:normal;font-family:'DejaVu Sans Mono';-inkscape-font-specification:'DejaVu Sans Mono Bold';fill:#333333;fill-opacity:1;stroke-width:0.29675695"
               d="m -214.13476,132.12944 v 1.84314 h 2.21988 v 1.30411 h -2.21988 v 3.0719 q 0,0.4347 0.20865,0.62597 0.21446,0.18547 0.70712,0.18547 h 1.30411 v 1.30411 h -1.42583 q -1.4606,0 -1.97644,-0.46368 -0.51585,-0.46948 -0.51585,-1.73302 v -2.99075 h -1.65767 v -1.30411 h 1.65767 v -1.84314 z" />
            <path
               inkscape:connector-curvature="0"
               id="path1142"
               style="font-style:normal;font-variant:normal;font-weight:bold;font-stretch:normal;font-family:'DejaVu Sans Mono';-inkscape-font-specification:'DejaVu Sans Mono Bold';fill:#333333;fill-opacity:1;stroke-width:0.29675695"
               d="m -198.10873,134.17544 v 1.48379 q -0.46948,-0.30139 -0.97953,-0.45209 -0.50425,-0.15649 -1.0143,-0.15649 -0.56802,0 -0.85782,0.16808 -0.2898,0.16229 -0.2898,0.48687 0,0.46368 1.24035,0.75348 l 0.0638,0.0174 0.48687,0.11592 q 0.92736,0.22025 1.35627,0.71291 0.4347,0.48687 0.4347,1.3215 0,1.00271 -0.66075,1.50697 -0.65495,0.49846 -1.97645,0.49846 -0.58539,0 -1.19977,-0.10433 -0.61438,-0.0985 -1.24615,-0.3014 v -1.48378 q 0.56221,0.31878 1.14182,0.48687 0.5854,0.16808 1.13022,0.16808 0.597,0 0.90418,-0.17388 0.30719,-0.17388 0.30719,-0.50425 0,-0.32458 -0.22024,-0.49846 -0.21446,-0.17388 -1.0317,-0.37095 l -0.46948,-0.10433 q -0.97373,-0.22025 -1.42003,-0.68973 -0.44629,-0.46948 -0.44629,-1.25774 0,-0.93895 0.67814,-1.4606 0.67813,-0.52164 1.90689,-0.52164 0.55062,0 1.09545,0.0927 0.55062,0.0869 1.06647,0.26661 z" />
            <path
               inkscape:connector-curvature="0"
               id="path1144"
               style="font-style:normal;font-variant:normal;font-weight:bold;font-stretch:normal;font-family:'DejaVu Sans Mono';-inkscape-font-specification:'DejaVu Sans Mono Bold';fill:#333333;fill-opacity:1;stroke-width:0.29675695"
               d="m -192.71262,132.12944 v 1.84314 h 2.21988 v 1.30411 h -2.21988 v 3.0719 q 0,0.4347 0.20866,0.62597 0.21445,0.18547 0.70711,0.18547 h 1.30411 v 1.30411 h -1.42582 q -1.4606,0 -1.97645,-0.46368 -0.51585,-0.46948 -0.51585,-1.73302 v -2.99075 h -1.65766 v -1.30411 h 1.65766 v -1.84314 z" />
            <path
               inkscape:connector-curvature="0"
               id="path1146"
               style="font-style:normal;font-variant:normal;font-weight:bold;font-stretch:normal;font-family:'DejaVu Sans Mono';-inkscape-font-specification:'DejaVu Sans Mono Bold';fill:#333333;fill-opacity:1;stroke-width:0.29675695"
               d="m -185.51395,137.41543 q -0.95055,0 -1.32729,0.24343 -0.37674,0.24343 -0.37674,0.83463 0,0.4405 0.26082,0.70132 0.26082,0.26082 0.70712,0.26082 0.67234,0 1.04328,-0.50425 0.37095,-0.51005 0.37095,-1.42003 v -0.11592 z m 2.36478,-0.65495 v 3.70366 h -1.68664 v -0.7245 q -0.30719,0.4289 -0.78826,0.66075 -0.48107,0.23184 -1.06068,0.23184 -1.10704,0 -1.72721,-0.5854 -0.61438,-0.5854 -0.61438,-1.63448 0,-1.13603 0.73609,-1.67506 0.7361,-0.54483 2.27784,-0.54483 h 1.1766 v -0.284 q 0,-0.41152 -0.30139,-0.62018 -0.2956,-0.21445 -0.87521,-0.21445 -0.60858,0 -1.18239,0.15649 -0.56801,0.1507 -1.18818,0.48687 v -1.44901 q 0.56221,-0.23184 1.14181,-0.34196 0.57961,-0.11013 1.22876,-0.11013 1.58232,0 2.21989,0.64336 0.64335,0.64336 0.64335,2.30103 z" />
            <path
               inkscape:connector-curvature="0"
               id="path1148"
               style="font-style:normal;font-variant:normal;font-weight:bold;font-stretch:normal;font-family:'DejaVu Sans Mono';-inkscape-font-specification:'DejaVu Sans Mono Bold';fill:#333333;fill-opacity:1;stroke-width:0.29675695"
               d="m -178.43119,132.12944 v 1.84314 h 2.21988 v 1.30411 h -2.21988 v 3.0719 q 0,0.4347 0.20866,0.62597 0.21445,0.18547 0.70711,0.18547 h 1.30411 v 1.30411 h -1.42582 q -1.4606,0 -1.97645,-0.46368 -0.51585,-0.46948 -0.51585,-1.73302 v -2.99075 h -1.65766 v -1.30411 h 1.65766 v -1.84314 z" />
            <path
               inkscape:connector-curvature="0"
               id="path1150"
               style="font-style:normal;font-variant:normal;font-weight:bold;font-stretch:normal;font-family:'DejaVu Sans Mono';-inkscape-font-specification:'DejaVu Sans Mono Bold';fill:#333333;fill-opacity:1;stroke-width:0.29675695"
               d="m -174.36238,138.19789 v -4.22531 h 1.69824 v 3.96449 q 0,0.70132 0.19707,1.00271 0.19706,0.3014 0.65495,0.3014 0.45789,0 0.71291,-0.40572 0.26082,-0.40573 0.26082,-1.13603 v -3.72685 h 1.69824 v 6.49156 h -1.69824 V 139.502 q -0.17967,0.53903 -0.61438,0.83463 -0.4289,0.2956 -1.03749,0.2956 -0.92736,0 -1.40264,-0.61438 -0.46948,-0.61438 -0.46948,-1.81996 z" />
            <path
               inkscape:connector-curvature="0"
               id="path1152"
               style="font-style:normal;font-variant:normal;font-weight:bold;font-stretch:normal;font-family:'DejaVu Sans Mono';-inkscape-font-specification:'DejaVu Sans Mono Bold';fill:#333333;fill-opacity:1;stroke-width:0.29675695"
               d="m -162.40516,134.17544 v 1.48379 q -0.46948,-0.30139 -0.97953,-0.45209 -0.50425,-0.15649 -1.0143,-0.15649 -0.56802,0 -0.85782,0.16808 -0.2898,0.16229 -0.2898,0.48687 0,0.46368 1.24035,0.75348 l 0.0638,0.0174 0.48686,0.11592 q 0.92737,0.22025 1.35628,0.71291 0.4347,0.48687 0.4347,1.3215 0,1.00271 -0.66075,1.50697 -0.65495,0.49846 -1.97645,0.49846 -0.5854,0 -1.19978,-0.10433 -0.61437,-0.0985 -1.24614,-0.3014 v -1.48378 q 0.56221,0.31878 1.14182,0.48687 0.5854,0.16808 1.13022,0.16808 0.59699,0 0.90418,-0.17388 0.30719,-0.17388 0.30719,-0.50425 0,-0.32458 -0.22025,-0.49846 -0.21445,-0.17388 -1.03169,-0.37095 l -0.46948,-0.10433 q -0.97373,-0.22025 -1.42003,-0.68973 -0.44629,-0.46948 -0.44629,-1.25774 0,-0.93895 0.67813,-1.4606 0.67814,-0.52164 1.9069,-0.52164 0.55062,0 1.09545,0.0927 0.55062,0.0869 1.06647,0.26661 z" />
          </g>
        </g>
        <g
           id="g1217"
           transform="matrix(0.6679069,0,0,0.6679069,248.99846,-16.645699)">
          <rect
             ry="2.9399648"
             rx="2.9399648"
             y="162.3533"
             x="-243.11787"
             height="23.519718"
             width="92.354088"
             id="rect999"
             style="opacity:1;vector-effect:none;fill:#ffdd55;fill-opacity:1;stroke:#333333;stroke-width:2.5;stroke-linecap:round;stroke-linejoin:round;stroke-miterlimit:4;stroke-dasharray:none;stroke-dashoffset:0;stroke-opacity:1" />
          <g
             id="text1003"
             style="font-style:normal;font-variant:normal;font-weight:bold;font-stretch:normal;font-size:11.87027836px;line-height:1.25;font-family:'DejaVu Sans Mono';-inkscape-font-specification:'DejaVu Sans Mono Bold';text-align:center;letter-spacing:0px;word-spacing:0px;text-anchor:middle;fill:#333333;fill-opacity:1;stroke:none;stroke-width:0.29675695"
             aria-label="git branch">
            <path
               inkscape:connector-curvature="0"
               id="path1117"
               style="font-style:normal;font-variant:normal;font-weight:bold;font-stretch:normal;font-family:'DejaVu Sans Mono';-inkscape-font-specification:'DejaVu Sans Mono Bold';fill:#333333;fill-opacity:1;stroke-width:0.29675695"
               d="m -227.82211,173.99723 q 0,-0.86941 -0.33037,-1.39105 -0.33037,-0.52744 -0.86941,-0.52744 -0.53323,0 -0.86361,0.52164 -0.32457,0.52165 -0.32457,1.39685 0,0.881 0.32457,1.40264 0.33038,0.52164 0.86361,0.52164 0.53904,0 0.86941,-0.52164 0.33037,-0.52744 0.33037,-1.40264 z m 1.69824,2.86324 q 0,1.55913 -0.70712,2.24886 -0.70132,0.69552 -2.28363,0.69552 -0.53324,0 -1.05488,-0.0811 -0.52164,-0.0754 -1.06068,-0.23764 v -1.55913 q 0.48108,0.26662 0.97953,0.39413 0.49846,0.12751 1.0259,0.12751 0.71871,0 1.06068,-0.34196 0.34196,-0.33617 0.34196,-1.05488 v -0.70132 q -0.24923,0.46368 -0.66074,0.68973 -0.41152,0.22604 -1.00272,0.22604 -1.11284,0 -1.76779,-0.8694 -0.65495,-0.86941 -0.65495,-2.35899 0,-1.54174 0.65495,-2.44593 0.65495,-0.90418 1.7562,-0.90418 0.55642,0 0.99112,0.26082 0.4347,0.26083 0.68393,0.7361 v -0.82883 h 1.69824 z" />
            <path
               inkscape:connector-curvature="0"
               id="path1119"
               style="font-style:normal;font-variant:normal;font-weight:bold;font-stretch:normal;font-family:'DejaVu Sans Mono';-inkscape-font-specification:'DejaVu Sans Mono Bold';fill:#333333;fill-opacity:1;stroke-width:0.29675695"
               d="m -224.05468,170.85578 h 3.3617 v 5.18745 h 2.10975 v 1.30411 h -5.92355 v -1.30411 h 2.11556 v -3.88334 h -1.66346 z m 1.66346,-3.15884 h 1.69824 v 1.98224 h -1.69824 z" />
            <path
               inkscape:connector-curvature="0"
               id="path1121"
               style="font-style:normal;font-variant:normal;font-weight:bold;font-stretch:normal;font-family:'DejaVu Sans Mono';-inkscape-font-specification:'DejaVu Sans Mono Bold';fill:#333333;fill-opacity:1;stroke-width:0.29675695"
               d="m -214.19563,169.01264 v 1.84314 h 2.21988 v 1.30411 h -2.21988 v 3.07189 q 0,0.43471 0.20866,0.62597 0.21445,0.18548 0.70711,0.18548 h 1.30411 v 1.30411 h -1.42582 q -1.4606,0 -1.97645,-0.46369 -0.51585,-0.46948 -0.51585,-1.73301 v -2.99075 h -1.65766 v -1.30411 h 1.65766 v -1.84314 z" />
            <path
               inkscape:connector-curvature="0"
               id="path1123"
               style="font-style:normal;font-variant:normal;font-weight:bold;font-stretch:normal;font-family:'DejaVu Sans Mono';-inkscape-font-specification:'DejaVu Sans Mono Bold';fill:#333333;fill-opacity:1;stroke-width:0.29675695"
               d="m -198.98684,174.11894 q 0,-0.93895 -0.31298,-1.47219 -0.31299,-0.53323 -0.86361,-0.53323 -0.55062,0 -0.86941,0.53323 -0.31878,0.53324 -0.31878,1.47219 0,0.93896 0.31878,1.4722 0.31879,0.53323 0.86941,0.53323 0.55062,0 0.86361,-0.53323 0.31298,-0.53324 0.31298,-1.4722 z m -2.36478,-2.34159 q 0.31299,-0.53903 0.72451,-0.80565 0.41731,-0.27242 0.93895,-0.27242 1.15341,0 1.77359,0.881 0.62597,0.881 0.62597,2.52707 0,1.62289 -0.61438,2.51548 -0.61438,0.89259 -1.72722,0.89259 -0.5854,0 -1.0201,-0.284 -0.4347,-0.28401 -0.70132,-0.84623 v 0.96215 h -1.69244 v -9.01863 h 1.69244 z" />
            <path
               inkscape:connector-curvature="0"
               id="path1125"
               style="font-style:normal;font-variant:normal;font-weight:bold;font-stretch:normal;font-family:'DejaVu Sans Mono';-inkscape-font-specification:'DejaVu Sans Mono Bold';fill:#333333;fill-opacity:1;stroke-width:0.29675695"
               d="m -190.10152,172.64675 q -0.27821,-0.25502 -0.65495,-0.38254 -0.37094,-0.12751 -0.81724,-0.12751 -0.53903,0 -0.94475,0.19127 -0.39993,0.18547 -0.62018,0.54483 -0.1391,0.22025 -0.19706,0.53323 -0.0522,0.31299 -0.0522,0.95055 v 2.99076 h -1.69824 v -6.49156 h 1.69824 v 1.00851 q 0.24923,-0.55642 0.76508,-0.85782 0.51585,-0.30719 1.20557,-0.30719 0.34777,0 0.67814,0.0869 0.33617,0.0812 0.63756,0.24344 z" />
            <path
               inkscape:connector-curvature="0"
               id="path1127"
               style="font-style:normal;font-variant:normal;font-weight:bold;font-stretch:normal;font-family:'DejaVu Sans Mono';-inkscape-font-specification:'DejaVu Sans Mono Bold';fill:#333333;fill-opacity:1;stroke-width:0.29675695"
               d="m -185.57481,174.29862 q -0.95055,0 -1.3273,0.24344 -0.37674,0.24343 -0.37674,0.83462 0,0.4405 0.26082,0.70132 0.26082,0.26083 0.70712,0.26083 0.67234,0 1.04329,-0.50426 0.37094,-0.51005 0.37094,-1.42003 v -0.11592 z m 2.36478,-0.65495 v 3.70367 h -1.68665 v -0.72451 q -0.30719,0.42891 -0.78826,0.66075 -0.48107,0.23184 -1.06067,0.23184 -1.10705,0 -1.72722,-0.5854 -0.61438,-0.5854 -0.61438,-1.63448 0,-1.13602 0.7361,-1.67505 0.73609,-0.54483 2.27784,-0.54483 h 1.17659 v -0.28401 q 0,-0.41152 -0.30139,-0.62017 -0.2956,-0.21446 -0.8752,-0.21446 -0.60859,0 -1.18239,0.1565 -0.56802,0.15069 -1.18819,0.48686 v -1.449 q 0.56221,-0.23185 1.14182,-0.34197 0.5796,-0.11013 1.22876,-0.11013 1.58231,0 2.21988,0.64336 0.64336,0.64336 0.64336,2.30103 z" />
            <path
               inkscape:connector-curvature="0"
               id="path1129"
               style="font-style:normal;font-variant:normal;font-weight:bold;font-stretch:normal;font-family:'DejaVu Sans Mono';-inkscape-font-specification:'DejaVu Sans Mono Bold';fill:#333333;fill-opacity:1;stroke-width:0.29675695"
               d="m -176.28377,173.13362 v 4.21372 h -1.68665 v -3.9529 q 0,-0.70712 -0.20286,-1.00851 -0.19706,-0.30719 -0.64915,-0.30719 -0.45789,0 -0.72451,0.41152 -0.26082,0.41152 -0.26082,1.14182 v 3.71526 h -1.68664 v -6.49156 h 1.68664 v 0.97373 q 0.17968,-0.53903 0.61438,-0.83463 0.4347,-0.2956 1.04908,-0.2956 0.92157,0 1.39105,0.61438 0.46948,0.60859 0.46948,1.81996 z" />
            <path
               inkscape:connector-curvature="0"
               id="path1131"
               style="font-style:normal;font-variant:normal;font-weight:bold;font-stretch:normal;font-family:'DejaVu Sans Mono';-inkscape-font-specification:'DejaVu Sans Mono Bold';fill:#333333;fill-opacity:1;stroke-width:0.29675695"
               d="m -169.20102,177.01696 q -0.4289,0.24923 -0.92157,0.37095 -0.49266,0.12751 -1.06067,0.12751 -1.50117,0 -2.34739,-0.90418 -0.84623,-0.90418 -0.84623,-2.50389 0,-1.6055 0.85202,-2.50968 0.85202,-0.90998 2.35319,-0.90998 0.52164,0 1.00272,0.12172 0.48686,0.12172 0.96793,0.37674 v 1.55334 q -0.37094,-0.31878 -0.81724,-0.48687 -0.4405,-0.17388 -0.91577,-0.17388 -0.82883,0 -1.27513,0.52744 -0.44629,0.52744 -0.44629,1.50117 0,0.97374 0.44629,1.49538 0.4463,0.52164 1.27513,0.52164 0.49266,0 0.92157,-0.16229 0.42891,-0.16808 0.81144,-0.50425 z" />
            <path
               inkscape:connector-curvature="0"
               id="path1133"
               style="font-style:normal;font-variant:normal;font-weight:bold;font-stretch:normal;font-family:'DejaVu Sans Mono';-inkscape-font-specification:'DejaVu Sans Mono Bold';fill:#333333;fill-opacity:1;stroke-width:0.29675695"
               d="m -162.00234,173.13362 v 4.21372 h -1.68665 v -3.9529 q 0,-0.70132 -0.20286,-1.00271 -0.19707,-0.3014 -0.64916,-0.3014 -0.46368,0 -0.7245,0.41152 -0.26082,0.40572 -0.26082,1.13023 v 3.71526 h -1.68665 v -9.01863 h 1.68665 v 3.5008 q 0.17967,-0.53903 0.61438,-0.83463 0.4347,-0.2956 1.04908,-0.2956 0.92157,0 1.39105,0.61438 0.46948,0.60859 0.46948,1.81996 z" />
          </g>
        </g>
        <g
           id="g1228"
           transform="matrix(0.6679069,0,0,0.6679069,132.20206,-37.344975)">
          <rect
             style="opacity:1;vector-effect:none;fill:#aa87de;fill-opacity:1;stroke:#333333;stroke-width:2.5;stroke-linecap:round;stroke-linejoin:round;stroke-miterlimit:4;stroke-dasharray:none;stroke-dashoffset:0;stroke-opacity:1"
             id="rect1005"
             width="76.881218"
             height="23.519718"
             x="-235.38144"
             y="205.11642"
             rx="2.9399648"
             ry="2.9399648" />
          <g
             id="text1009"
             style="font-style:normal;font-variant:normal;font-weight:bold;font-stretch:normal;font-size:11.87027836px;line-height:1.25;font-family:'DejaVu Sans Mono';-inkscape-font-specification:'DejaVu Sans Mono Bold';text-align:center;letter-spacing:0px;word-spacing:0px;text-anchor:middle;fill:#333333;fill-opacity:1;stroke:none;stroke-width:0.29675695"
             aria-label="git init">
            <path
               inkscape:connector-curvature="0"
               id="path1102"
               style="font-style:normal;font-variant:normal;font-weight:bold;font-stretch:normal;font-family:'DejaVu Sans Mono';-inkscape-font-specification:'DejaVu Sans Mono Bold';fill:#333333;fill-opacity:1;stroke-width:0.29675695"
               d="m -220.62632,216.76035 q 0,-0.8694 -0.33038,-1.39105 -0.33037,-0.52744 -0.8694,-0.52744 -0.53324,0 -0.86361,0.52165 -0.32458,0.52164 -0.32458,1.39684 0,0.881 0.32458,1.40264 0.33037,0.52164 0.86361,0.52164 0.53903,0 0.8694,-0.52164 0.33038,-0.52744 0.33038,-1.40264 z m 1.69823,2.86324 q 0,1.55913 -0.70711,2.24886 -0.70132,0.69553 -2.28364,0.69553 -0.53323,0 -1.05488,-0.0812 -0.52164,-0.0753 -1.06067,-0.23763 v -1.55914 q 0.48107,0.26662 0.97953,0.39413 0.49846,0.12751 1.0259,0.12751 0.7187,0 1.06067,-0.34196 0.34197,-0.33617 0.34197,-1.05488 v -0.70132 q -0.24923,0.46368 -0.66075,0.68973 -0.41152,0.22604 -1.00272,0.22604 -1.11283,0 -1.76779,-0.8694 -0.65495,-0.86941 -0.65495,-2.35899 0,-1.54174 0.65495,-2.44592 0.65496,-0.90419 1.7562,-0.90419 0.55642,0 0.99112,0.26083 0.43471,0.26082 0.68394,0.73609 v -0.82883 h 1.69823 z" />
            <path
               inkscape:connector-curvature="0"
               id="path1104"
               style="font-style:normal;font-variant:normal;font-weight:bold;font-stretch:normal;font-family:'DejaVu Sans Mono';-inkscape-font-specification:'DejaVu Sans Mono Bold';fill:#333333;fill-opacity:1;stroke-width:0.29675695"
               d="m -216.8589,213.6189 h 3.3617 v 5.18745 h 2.10976 v 1.30411 h -5.92355 v -1.30411 h 2.11555 v -3.88334 h -1.66346 z m 1.66346,-3.15884 h 1.69824 v 1.98224 h -1.69824 z" />
            <path
               inkscape:connector-curvature="0"
               id="path1106"
               style="font-style:normal;font-variant:normal;font-weight:bold;font-stretch:normal;font-family:'DejaVu Sans Mono';-inkscape-font-specification:'DejaVu Sans Mono Bold';fill:#333333;fill-opacity:1;stroke-width:0.29675695"
               d="m -206.99985,211.77576 v 1.84314 h 2.21988 v 1.30411 h -2.21988 v 3.0719 q 0,0.4347 0.20866,0.62597 0.21445,0.18547 0.70712,0.18547 h 1.3041 v 1.30411 h -1.42582 q -1.4606,0 -1.97645,-0.46368 -0.51585,-0.46948 -0.51585,-1.73302 v -2.99075 h -1.65766 v -1.30411 h 1.65766 v -1.84314 z" />
            <path
               inkscape:connector-curvature="0"
               id="path1108"
               style="font-style:normal;font-variant:normal;font-weight:bold;font-stretch:normal;font-family:'DejaVu Sans Mono';-inkscape-font-specification:'DejaVu Sans Mono Bold';fill:#333333;fill-opacity:1;stroke-width:0.29675695"
               d="m -195.43676,213.6189 h 3.3617 v 5.18745 h 2.10976 v 1.30411 h -5.92355 v -1.30411 h 2.11555 v -3.88334 h -1.66346 z m 1.66346,-3.15884 h 1.69824 v 1.98224 h -1.69824 z" />
            <path
               inkscape:connector-curvature="0"
               id="path1110"
               style="font-style:normal;font-variant:normal;font-weight:bold;font-stretch:normal;font-family:'DejaVu Sans Mono';-inkscape-font-specification:'DejaVu Sans Mono Bold';fill:#333333;fill-opacity:1;stroke-width:0.29675695"
               d="m -183.36942,215.89674 v 4.21372 h -1.68664 v -3.9529 q 0,-0.70711 -0.20286,-1.00851 -0.19707,-0.30719 -0.64916,-0.30719 -0.45788,0 -0.7245,0.41152 -0.26082,0.41152 -0.26082,1.14182 v 3.71526 h -1.68665 v -6.49156 h 1.68665 v 0.97373 q 0.17967,-0.53903 0.61438,-0.83463 0.4347,-0.29559 1.04908,-0.29559 0.92157,0 1.39105,0.61438 0.46947,0.60858 0.46947,1.81995 z" />
            <path
               inkscape:connector-curvature="0"
               id="path1112"
               style="font-style:normal;font-variant:normal;font-weight:bold;font-stretch:normal;font-family:'DejaVu Sans Mono';-inkscape-font-specification:'DejaVu Sans Mono Bold';fill:#333333;fill-opacity:1;stroke-width:0.29675695"
               d="m -181.15533,213.6189 h 3.3617 v 5.18745 h 2.10975 v 1.30411 h -5.92354 v -1.30411 h 2.11555 v -3.88334 h -1.66346 z m 1.66346,-3.15884 h 1.69824 v 1.98224 h -1.69824 z" />
            <path
               inkscape:connector-curvature="0"
               id="path1114"
               style="font-style:normal;font-variant:normal;font-weight:bold;font-stretch:normal;font-family:'DejaVu Sans Mono';-inkscape-font-specification:'DejaVu Sans Mono Bold';fill:#333333;fill-opacity:1;stroke-width:0.29675695"
               d="m -171.29627,211.77576 v 1.84314 h 2.21988 v 1.30411 h -2.21988 v 3.0719 q 0,0.4347 0.20865,0.62597 0.21446,0.18547 0.70712,0.18547 h 1.30411 v 1.30411 h -1.42583 q -1.4606,0 -1.97645,-0.46368 -0.51584,-0.46948 -0.51584,-1.73302 v -2.99075 h -1.65767 v -1.30411 h 1.65767 v -1.84314 z" />
          </g>
        </g>
        <g
           id="g1241"
           transform="matrix(0.6679069,0,0,0.6679069,243.20538,3.6448485)">
          <rect
             ry="2.9399648"
             rx="2.9399648"
             y="252.15587"
             x="-246.17958"
             height="23.519718"
             width="98.477493"
             id="rect1011"
             style="opacity:1;vector-effect:none;fill:#37c8ab;fill-opacity:1;stroke:#333333;stroke-width:2.5;stroke-linecap:round;stroke-linejoin:round;stroke-miterlimit:4;stroke-dasharray:none;stroke-dashoffset:0;stroke-opacity:1" />
          <g
             id="text1015"
             style="font-style:normal;font-variant:normal;font-weight:bold;font-stretch:normal;font-size:11.87027836px;line-height:1.25;font-family:'DejaVu Sans Mono';-inkscape-font-specification:'DejaVu Sans Mono Bold';text-align:center;letter-spacing:0px;word-spacing:0px;text-anchor:middle;fill:#333333;fill-opacity:1;stroke:none;stroke-width:0.29675695"
             aria-label="git commit">
            <path
               inkscape:connector-curvature="0"
               id="path1083"
               style="font-style:normal;font-variant:normal;font-weight:bold;font-stretch:normal;font-family:'DejaVu Sans Mono';-inkscape-font-specification:'DejaVu Sans Mono Bold';fill:#333333;fill-opacity:1;stroke-width:0.29675695"
               d="m -227.76704,263.79979 q 0,-0.8694 -0.33037,-1.39104 -0.33038,-0.52744 -0.86941,-0.52744 -0.53323,0 -0.86361,0.52164 -0.32457,0.52164 -0.32457,1.39684 0,0.881 0.32457,1.40264 0.33038,0.52165 0.86361,0.52165 0.53903,0 0.86941,-0.52165 0.33037,-0.52743 0.33037,-1.40264 z m 1.69824,2.86325 q 0,1.55913 -0.70712,2.24886 -0.70132,0.69552 -2.28363,0.69552 -0.53324,0 -1.05488,-0.0811 -0.52164,-0.0753 -1.06068,-0.23764 v -1.55913 q 0.48107,0.26661 0.97953,0.39413 0.49846,0.12751 1.0259,0.12751 0.71871,0 1.06068,-0.34197 0.34196,-0.33617 0.34196,-1.05488 v -0.70132 q -0.24923,0.46369 -0.66075,0.68973 -0.41151,0.22605 -1.00271,0.22605 -1.11284,0 -1.76779,-0.86941 -0.65495,-0.8694 -0.65495,-2.35898 0,-1.54175 0.65495,-2.44593 0.65495,-0.90418 1.7562,-0.90418 0.55642,0 0.99112,0.26082 0.4347,0.26082 0.68393,0.7361 v -0.82884 h 1.69824 z" />
            <path
               inkscape:connector-curvature="0"
               id="path1085"
               style="font-style:normal;font-variant:normal;font-weight:bold;font-stretch:normal;font-family:'DejaVu Sans Mono';-inkscape-font-specification:'DejaVu Sans Mono Bold';fill:#333333;fill-opacity:1;stroke-width:0.29675695"
               d="m -223.99962,260.65834 h 3.3617 v 5.18745 h 2.10976 v 1.30411 h -5.92355 v -1.30411 h 2.11556 v -3.88334 h -1.66347 z m 1.66347,-3.15883 h 1.69823 v 1.98224 h -1.69823 z" />
            <path
               inkscape:connector-curvature="0"
               id="path1087"
               style="font-style:normal;font-variant:normal;font-weight:bold;font-stretch:normal;font-family:'DejaVu Sans Mono';-inkscape-font-specification:'DejaVu Sans Mono Bold';fill:#333333;fill-opacity:1;stroke-width:0.29675695"
               d="m -214.14056,258.8152 v 1.84314 h 2.21988 v 1.30411 h -2.21988 v 3.0719 q 0,0.4347 0.20866,0.62597 0.21445,0.18547 0.70711,0.18547 h 1.30411 v 1.30411 h -1.42582 q -1.46061,0 -1.97645,-0.46368 -0.51585,-0.46948 -0.51585,-1.73301 v -2.99076 h -1.65767 v -1.30411 h 1.65767 v -1.84314 z" />
            <path
               inkscape:connector-curvature="0"
               id="path1089"
               style="font-style:normal;font-variant:normal;font-weight:bold;font-stretch:normal;font-family:'DejaVu Sans Mono';-inkscape-font-specification:'DejaVu Sans Mono Bold';fill:#333333;fill-opacity:1;stroke-width:0.29675695"
               d="m -197.7088,266.81953 q -0.42891,0.24923 -0.92157,0.37094 -0.49267,0.12752 -1.06068,0.12752 -1.50117,0 -2.34739,-0.90418 -0.84622,-0.90419 -0.84622,-2.50389 0,-1.6055 0.85201,-2.50968 0.85202,-0.90998 2.35319,-0.90998 0.52165,0 1.00272,0.12172 0.48686,0.12171 0.96794,0.37674 v 1.55334 q -0.37095,-0.31879 -0.81725,-0.48687 -0.44049,-0.17388 -0.91577,-0.17388 -0.82883,0 -1.27513,0.52744 -0.44629,0.52744 -0.44629,1.50117 0,0.97373 0.44629,1.49538 0.4463,0.52164 1.27513,0.52164 0.49266,0 0.92157,-0.16229 0.42891,-0.16808 0.81145,-0.50425 z" />
            <path
               inkscape:connector-curvature="0"
               id="path1091"
               style="font-style:normal;font-variant:normal;font-weight:bold;font-stretch:normal;font-family:'DejaVu Sans Mono';-inkscape-font-specification:'DejaVu Sans Mono Bold';fill:#333333;fill-opacity:1;stroke-width:0.29675695"
               d="m -193.14733,261.88131 q -0.60858,0 -0.95634,0.53903 -0.34776,0.53323 -0.34776,1.48958 0,0.95634 0.34776,1.49538 0.34776,0.53323 0.95634,0.53323 0.61438,0 0.96215,-0.53323 0.34776,-0.53904 0.34776,-1.49538 0,-0.95635 -0.34776,-1.48958 -0.34777,-0.53903 -0.96215,-0.53903 z m -3.00234,2.02861 q 0,-1.57073 0.81144,-2.4865 0.81724,-0.92157 2.1909,-0.92157 1.37946,0 2.19091,0.92157 0.81724,0.91577 0.81724,2.4865 0,1.57072 -0.81724,2.49229 -0.81145,0.91578 -2.19091,0.91578 -1.37366,0 -2.1909,-0.91578 -0.81144,-0.92157 -0.81144,-2.49229 z" />
            <path
               inkscape:connector-curvature="0"
               id="path1093"
               style="font-style:normal;font-variant:normal;font-weight:bold;font-stretch:normal;font-family:'DejaVu Sans Mono';-inkscape-font-specification:'DejaVu Sans Mono Bold';fill:#333333;fill-opacity:1;stroke-width:0.29675695"
               d="m -185.57771,261.3075 q 0.19127,-0.41152 0.48687,-0.60858 0.2956,-0.19707 0.72451,-0.19707 0.84042,0 1.1592,0.5796 0.32458,0.57961 0.32458,2.41115 v 3.6573 h -1.39105 v -4.16735 q 0,-0.7245 -0.11012,-0.96793 -0.11013,-0.24344 -0.39993,-0.24344 -0.2898,0 -0.40572,0.24923 -0.11592,0.24923 -0.11592,0.96214 v 4.16735 h -1.37366 v -4.16735 q 0,-0.71291 -0.11592,-0.96214 -0.11592,-0.24923 -0.40573,-0.24923 -0.2898,0 -0.39992,0.24344 -0.11013,0.24343 -0.11013,0.96793 v 4.16735 h -1.39104 v -6.49156 h 1.23455 v 0.67234 q 0.1449,-0.38253 0.46368,-0.60278 0.31879,-0.22605 0.71292,-0.22605 0.39413,0 0.7187,0.23764 0.32458,0.23184 0.39413,0.56801 z" />
            <path
               inkscape:connector-curvature="0"
               id="path1095"
               style="font-style:normal;font-variant:normal;font-weight:bold;font-stretch:normal;font-family:'DejaVu Sans Mono';-inkscape-font-specification:'DejaVu Sans Mono Bold';fill:#333333;fill-opacity:1;stroke-width:0.29675695"
               d="m -178.43699,261.3075 q 0.19127,-0.41152 0.48687,-0.60858 0.2956,-0.19707 0.7245,-0.19707 0.84043,0 1.15921,0.5796 0.32458,0.57961 0.32458,2.41115 v 3.6573 h -1.39105 v -4.16735 q 0,-0.7245 -0.11013,-0.96793 -0.11012,-0.24344 -0.39992,-0.24344 -0.2898,0 -0.40572,0.24923 -0.11593,0.24923 -0.11593,0.96214 v 4.16735 h -1.37366 v -4.16735 q 0,-0.71291 -0.11592,-0.96214 -0.11592,-0.24923 -0.40572,-0.24923 -0.2898,0 -0.39993,0.24344 -0.11012,0.24343 -0.11012,0.96793 v 4.16735 h -1.39105 v -6.49156 h 1.23456 v 0.67234 q 0.1449,-0.38253 0.46368,-0.60278 0.31878,-0.22605 0.71291,-0.22605 0.39413,0 0.71871,0.23764 0.32458,0.23184 0.39413,0.56801 z" />
            <path
               inkscape:connector-curvature="0"
               id="path1097"
               style="font-style:normal;font-variant:normal;font-weight:bold;font-stretch:normal;font-family:'DejaVu Sans Mono';-inkscape-font-specification:'DejaVu Sans Mono Bold';fill:#333333;fill-opacity:1;stroke-width:0.29675695"
               d="m -174.01462,260.65834 h 3.3617 v 5.18745 h 2.10976 v 1.30411 h -5.92355 v -1.30411 h 2.11556 v -3.88334 h -1.66347 z m 1.66347,-3.15883 h 1.69823 v 1.98224 h -1.69823 z" />
            <path
               inkscape:connector-curvature="0"
               id="path1099"
               style="font-style:normal;font-variant:normal;font-weight:bold;font-stretch:normal;font-family:'DejaVu Sans Mono';-inkscape-font-specification:'DejaVu Sans Mono Bold';fill:#333333;fill-opacity:1;stroke-width:0.29675695"
               d="m -164.15556,258.8152 v 1.84314 h 2.21988 v 1.30411 h -2.21988 v 3.0719 q 0,0.4347 0.20865,0.62597 0.21446,0.18547 0.70712,0.18547 h 1.30411 v 1.30411 h -1.42583 q -1.4606,0 -1.97644,-0.46368 -0.51585,-0.46948 -0.51585,-1.73301 v -2.99076 h -1.65767 v -1.30411 h 1.65767 v -1.84314 z" />
          </g>
        </g>
        <g
           id="g1447"
           transform="matrix(0.91773331,0,0,0.91773331,5.2363608,10.951165)">
          <rect
             style="opacity:1;vector-effect:none;fill:#5f8dd3;fill-opacity:1;stroke:#333333;stroke-width:1.81944716;stroke-linecap:round;stroke-linejoin:round;stroke-miterlimit:4;stroke-dasharray:none;stroke-dashoffset:0;stroke-opacity:1"
             id="rect1017"
             width="65.748314"
             height="17.117153"
             x="94.51236"
             y="132.2357"
             rx="0"
             ry="2.5286703" />
          <g
             transform="matrix(0.72777886,0,0,0.72777886,270.71589,-80.844018)"
             id="text1021"
             style="font-style:normal;font-variant:normal;font-weight:bold;font-stretch:normal;font-size:11.87027836px;line-height:1.25;font-family:'DejaVu Sans Mono';-inkscape-font-specification:'DejaVu Sans Mono Bold';text-align:center;letter-spacing:0px;word-spacing:0px;text-anchor:middle;fill:#333333;fill-opacity:1;stroke:none;stroke-width:0.29675695"
             aria-label="git merge">
            <path
               inkscape:connector-curvature="0"
               id="path1066"
               style="font-style:normal;font-variant:normal;font-weight:bold;font-stretch:normal;font-family:'DejaVu Sans Mono';-inkscape-font-specification:'DejaVu Sans Mono Bold';fill:#333333;fill-opacity:1;stroke-width:0.29675695"
               d="m -224.42852,304.42476 q 0,-0.8694 -0.33038,-1.39104 -0.33037,-0.52744 -0.8694,-0.52744 -0.53324,0 -0.86361,0.52164 -0.32458,0.52164 -0.32458,1.39684 0,0.881 0.32458,1.40264 0.33037,0.52165 0.86361,0.52165 0.53903,0 0.8694,-0.52165 0.33038,-0.52743 0.33038,-1.40264 z m 1.69824,2.86324 q 0,1.55914 -0.70712,2.24887 -0.70132,0.69552 -2.28364,0.69552 -0.53323,0 -1.05488,-0.0811 -0.52164,-0.0754 -1.06067,-0.23764 v -1.55913 q 0.48107,0.26661 0.97953,0.39413 0.49846,0.12751 1.0259,0.12751 0.71871,0 1.06067,-0.34197 0.34197,-0.33617 0.34197,-1.05488 v -0.70132 q -0.24923,0.46369 -0.66075,0.68973 -0.41152,0.22605 -1.00271,0.22605 -1.11284,0 -1.7678,-0.86941 -0.65495,-0.8694 -0.65495,-2.35898 0,-1.54175 0.65495,-2.44593 0.65496,-0.90418 1.7562,-0.90418 0.55642,0 0.99113,0.26082 0.4347,0.26082 0.68393,0.7361 v -0.82884 h 1.69824 z" />
            <path
               inkscape:connector-curvature="0"
               id="path1068"
               style="font-style:normal;font-variant:normal;font-weight:bold;font-stretch:normal;font-family:'DejaVu Sans Mono';-inkscape-font-specification:'DejaVu Sans Mono Bold';fill:#333333;fill-opacity:1;stroke-width:0.29675695"
               d="m -220.6611,301.28331 h 3.3617 v 5.18745 h 2.10976 v 1.30411 h -5.92355 v -1.30411 h 2.11555 v -3.88334 h -1.66346 z m 1.66346,-3.15884 h 1.69824 v 1.98225 h -1.69824 z" />
            <path
               inkscape:connector-curvature="0"
               id="path1070"
               style="font-style:normal;font-variant:normal;font-weight:bold;font-stretch:normal;font-family:'DejaVu Sans Mono';-inkscape-font-specification:'DejaVu Sans Mono Bold';fill:#333333;fill-opacity:1;stroke-width:0.29675695"
               d="m -210.80205,299.44017 v 1.84314 h 2.21988 v 1.30411 h -2.21988 v 3.0719 q 0,0.4347 0.20866,0.62597 0.21445,0.18547 0.70712,0.18547 h 1.3041 v 1.30411 h -1.42582 q -1.4606,0 -1.97645,-0.46368 -0.51584,-0.46948 -0.51584,-1.73302 v -2.99075 h -1.65767 v -1.30411 h 1.65767 v -1.84314 z" />
            <path
               inkscape:connector-curvature="0"
               id="path1072"
               style="font-style:normal;font-variant:normal;font-weight:bold;font-stretch:normal;font-family:'DejaVu Sans Mono';-inkscape-font-specification:'DejaVu Sans Mono Bold';fill:#333333;fill-opacity:1;stroke-width:0.29675695"
               d="m -196.52062,301.93247 q 0.19127,-0.41152 0.48687,-0.60858 0.2956,-0.19707 0.7245,-0.19707 0.84043,0 1.15921,0.5796 0.32458,0.57961 0.32458,2.41115 v 3.6573 h -1.39105 v -4.16735 q 0,-0.7245 -0.11012,-0.96793 -0.11013,-0.24344 -0.39993,-0.24344 -0.2898,0 -0.40572,0.24923 -0.11592,0.24923 -0.11592,0.96214 v 4.16735 h -1.37366 v -4.16735 q 0,-0.71291 -0.11593,-0.96214 -0.11592,-0.24923 -0.40572,-0.24923 -0.2898,0 -0.39992,0.24344 -0.11013,0.24343 -0.11013,0.96793 v 4.16735 h -1.39105 v -6.49156 h 1.23456 v 0.67234 q 0.1449,-0.38253 0.46368,-0.60278 0.31878,-0.22605 0.71291,-0.22605 0.39413,0 0.71871,0.23764 0.32458,0.23184 0.39413,0.56801 z" />
            <path
               inkscape:connector-curvature="0"
               id="path1074"
               style="font-style:normal;font-variant:normal;font-weight:bold;font-stretch:normal;font-family:'DejaVu Sans Mono';-inkscape-font-specification:'DejaVu Sans Mono Bold';fill:#333333;fill-opacity:1;stroke-width:0.29675695"
               d="m -186.99194,307.45609 q -0.59119,0.24343 -1.20557,0.36515 -0.61438,0.12172 -1.29831,0.12172 -1.62869,0 -2.4923,-0.86941 -0.85781,-0.8752 -0.85781,-2.51548 0,-1.58811 0.82883,-2.50968 0.82883,-0.92157 2.26045,-0.92157 1.44322,0 2.23727,0.85781 0.79986,0.85202 0.79986,2.40536 v 0.68973 h -4.39919 q 0.006,0.76507 0.45209,1.14181 0.44629,0.37675 1.33308,0.37675 0.5854,0 1.15342,-0.16809 0.56801,-0.16808 1.18818,-0.53323 z m -1.43741,-3.6515 q -0.0116,-0.67234 -0.34777,-1.01431 -0.33037,-0.34776 -0.97953,-0.34776 -0.5854,0 -0.93316,0.35935 -0.34776,0.35356 -0.41152,1.00851 z" />
            <path
               inkscape:connector-curvature="0"
               id="path1076"
               style="font-style:normal;font-variant:normal;font-weight:bold;font-stretch:normal;font-family:'DejaVu Sans Mono';-inkscape-font-specification:'DejaVu Sans Mono Bold';fill:#333333;fill-opacity:1;stroke-width:0.29675695"
               d="m -179.56722,303.07429 q -0.27821,-0.25503 -0.65495,-0.38254 -0.37095,-0.12751 -0.81724,-0.12751 -0.53903,0 -0.94476,0.19127 -0.39992,0.18547 -0.62017,0.54482 -0.13911,0.22025 -0.19707,0.53324 -0.0522,0.31298 -0.0522,0.95055 v 2.99075 h -1.69824 v -6.49156 h 1.69824 v 1.00851 q 0.24923,-0.55642 0.76508,-0.85781 0.51584,-0.30719 1.20557,-0.30719 0.34776,0 0.67814,0.0869 0.33617,0.0812 0.63756,0.24343 z" />
            <path
               inkscape:connector-curvature="0"
               id="path1078"
               style="font-style:normal;font-variant:normal;font-weight:bold;font-stretch:normal;font-family:'DejaVu Sans Mono';-inkscape-font-specification:'DejaVu Sans Mono Bold';fill:#333333;fill-opacity:1;stroke-width:0.29675695"
               d="m -174.44352,304.42476 q 0,-0.8694 -0.33038,-1.39104 -0.33037,-0.52744 -0.8694,-0.52744 -0.53324,0 -0.86361,0.52164 -0.32458,0.52164 -0.32458,1.39684 0,0.881 0.32458,1.40264 0.33037,0.52165 0.86361,0.52165 0.53903,0 0.8694,-0.52165 0.33038,-0.52743 0.33038,-1.40264 z m 1.69824,2.86324 q 0,1.55914 -0.70712,2.24887 -0.70132,0.69552 -2.28364,0.69552 -0.53323,0 -1.05488,-0.0811 -0.52164,-0.0754 -1.06067,-0.23764 v -1.55913 q 0.48107,0.26661 0.97953,0.39413 0.49846,0.12751 1.0259,0.12751 0.71871,0 1.06067,-0.34197 0.34197,-0.33617 0.34197,-1.05488 v -0.70132 q -0.24923,0.46369 -0.66075,0.68973 -0.41152,0.22605 -1.00271,0.22605 -1.11284,0 -1.76779,-0.86941 -0.65496,-0.8694 -0.65496,-2.35898 0,-1.54175 0.65496,-2.44593 0.65495,-0.90418 1.75619,-0.90418 0.55642,0 0.99113,0.26082 0.4347,0.26082 0.68393,0.7361 v -0.82884 h 1.69824 z" />
            <path
               inkscape:connector-curvature="0"
               id="path1080"
               style="font-style:normal;font-variant:normal;font-weight:bold;font-stretch:normal;font-family:'DejaVu Sans Mono';-inkscape-font-specification:'DejaVu Sans Mono Bold';fill:#333333;fill-opacity:1;stroke-width:0.29675695"
               d="m -165.5698,307.45609 q -0.59119,0.24343 -1.20557,0.36515 -0.61438,0.12172 -1.29831,0.12172 -1.62869,0 -2.4923,-0.86941 -0.85781,-0.8752 -0.85781,-2.51548 0,-1.58811 0.82883,-2.50968 0.82884,-0.92157 2.26046,-0.92157 1.44321,0 2.23727,0.85781 0.79985,0.85202 0.79985,2.40536 v 0.68973 h -4.39919 q 0.006,0.76507 0.45209,1.14181 0.44629,0.37675 1.33309,0.37675 0.5854,0 1.15341,-0.16809 0.56801,-0.16808 1.18818,-0.53323 z m -1.43741,-3.6515 q -0.0116,-0.67234 -0.34776,-1.01431 -0.33038,-0.34776 -0.97953,-0.34776 -0.5854,0 -0.93317,0.35935 -0.34776,0.35356 -0.41151,1.00851 z" />
          </g>
        </g>
        <g
           id="g1264"
           transform="matrix(0.6679069,0,0,0.6679069,135.55901,-71.963747)">
          <rect
             ry="3.4745038"
             rx="3.4745038"
             y="332.87128"
             x="-232.82291"
             height="23.519718"
             width="71.764153"
             id="rect1045"
             style="opacity:1;vector-effect:none;fill:#5f8dd3;fill-opacity:1;stroke:#333333;stroke-width:2.5;stroke-linecap:round;stroke-linejoin:round;stroke-miterlimit:4;stroke-dasharray:none;stroke-dashoffset:0;stroke-opacity:1" />
          <g
             id="text1049"
             style="font-style:normal;font-variant:normal;font-weight:bold;font-stretch:normal;font-size:11.87027836px;line-height:1.25;font-family:'DejaVu Sans Mono';-inkscape-font-specification:'DejaVu Sans Mono Bold';text-align:center;letter-spacing:0px;word-spacing:0px;text-anchor:middle;fill:#333333;fill-opacity:1;stroke:none;stroke-width:0.29675695"
             aria-label="git push">
            <path
               inkscape:connector-curvature="0"
               id="path1051"
               style="font-style:normal;font-variant:normal;font-weight:bold;font-stretch:normal;font-family:'DejaVu Sans Mono';-inkscape-font-specification:'DejaVu Sans Mono Bold';fill:#333333;fill-opacity:1;stroke-width:0.29675695"
               d="m -220.68139,344.51519 q 0,-0.86941 -0.33038,-1.39105 -0.33037,-0.52744 -0.8694,-0.52744 -0.53324,0 -0.86361,0.52164 -0.32458,0.52165 -0.32458,1.39685 0,0.88099 0.32458,1.40264 0.33037,0.52164 0.86361,0.52164 0.53903,0 0.8694,-0.52164 0.33038,-0.52744 0.33038,-1.40264 z m 1.69824,2.86324 q 0,1.55913 -0.70712,2.24886 -0.70132,0.69552 -2.28364,0.69552 -0.53323,0 -1.05488,-0.0811 -0.52164,-0.0754 -1.06067,-0.23764 v -1.55913 q 0.48107,0.26662 0.97953,0.39413 0.49846,0.12751 1.0259,0.12751 0.71871,0 1.06067,-0.34196 0.34197,-0.33617 0.34197,-1.05488 v -0.70132 q -0.24923,0.46368 -0.66075,0.68973 -0.41152,0.22604 -1.00271,0.22604 -1.11284,0 -1.76779,-0.8694 -0.65496,-0.86941 -0.65496,-2.35899 0,-1.54175 0.65496,-2.44593 0.65495,-0.90418 1.75619,-0.90418 0.55642,0 0.99113,0.26082 0.4347,0.26083 0.68393,0.7361 v -0.82883 h 1.69824 z" />
            <path
               inkscape:connector-curvature="0"
               id="path1053"
               style="font-style:normal;font-variant:normal;font-weight:bold;font-stretch:normal;font-family:'DejaVu Sans Mono';-inkscape-font-specification:'DejaVu Sans Mono Bold';fill:#333333;fill-opacity:1;stroke-width:0.29675695"
               d="m -216.91397,341.37374 h 3.3617 v 5.18745 h 2.10976 v 1.30411 h -5.92355 v -1.30411 h 2.11555 v -3.88335 h -1.66346 z m 1.66346,-3.15884 h 1.69824 v 1.98224 h -1.69824 z" />
            <path
               inkscape:connector-curvature="0"
               id="path1055"
               style="font-style:normal;font-variant:normal;font-weight:bold;font-stretch:normal;font-family:'DejaVu Sans Mono';-inkscape-font-specification:'DejaVu Sans Mono Bold';fill:#333333;fill-opacity:1;stroke-width:0.29675695"
               d="m -207.05492,339.5306 v 1.84314 h 2.21989 v 1.3041 h -2.21989 v 3.0719 q 0,0.43471 0.20866,0.62597 0.21445,0.18548 0.70712,0.18548 h 1.30411 v 1.30411 h -1.42583 q -1.4606,0 -1.97645,-0.46369 -0.51584,-0.46948 -0.51584,-1.73301 v -2.99076 h -1.65767 v -1.3041 h 1.65767 v -1.84314 z" />
            <path
               inkscape:connector-curvature="0"
               id="path1057"
               style="font-style:normal;font-variant:normal;font-weight:bold;font-stretch:normal;font-family:'DejaVu Sans Mono';-inkscape-font-specification:'DejaVu Sans Mono Bold';fill:#333333;fill-opacity:1;stroke-width:0.29675695"
               d="m -194.2109,346.94952 v 3.38489 h -1.69245 v -8.96067 h 1.69245 v 0.97373 q 0.26661,-0.56221 0.70132,-0.84622 0.4347,-0.28401 1.0201,-0.28401 1.11284,0 1.72722,0.89259 0.61438,0.89259 0.61438,2.51548 0,1.64608 -0.62598,2.52707 -0.62017,0.881 -1.77358,0.881 -0.52165,0 -0.93896,-0.26662 -0.41152,-0.27241 -0.7245,-0.81724 z m 2.36478,-2.3358 q 0,-0.93896 -0.31299,-1.47219 -0.31298,-0.53324 -0.86361,-0.53324 -0.55062,0 -0.8694,0.53324 -0.31878,0.53323 -0.31878,1.47219 0,0.93896 0.31878,1.47219 0.31878,0.53324 0.8694,0.53324 0.55063,0 0.86361,-0.53324 0.31299,-0.53323 0.31299,-1.47219 z" />
            <path
               inkscape:connector-curvature="0"
               id="path1059"
               style="font-style:normal;font-variant:normal;font-weight:bold;font-stretch:normal;font-family:'DejaVu Sans Mono';-inkscape-font-specification:'DejaVu Sans Mono Bold';fill:#333333;fill-opacity:1;stroke-width:0.29675695"
               d="m -188.70467,345.59905 v -4.22531 h 1.69824 v 3.96448 q 0,0.70132 0.19706,1.00272 0.19707,0.30139 0.65495,0.30139 0.45789,0 0.71292,-0.40572 0.26082,-0.40572 0.26082,-1.13602 v -3.72685 h 1.69824 v 6.49156 h -1.69824 v -0.96215 q -0.17968,0.53903 -0.61438,0.83463 -0.42891,0.2956 -1.03749,0.2956 -0.92737,0 -1.40264,-0.61438 -0.46948,-0.61438 -0.46948,-1.81995 z" />
            <path
               inkscape:connector-curvature="0"
               id="path1061"
               style="font-style:normal;font-variant:normal;font-weight:bold;font-stretch:normal;font-family:'DejaVu Sans Mono';-inkscape-font-specification:'DejaVu Sans Mono Bold';fill:#333333;fill-opacity:1;stroke-width:0.29675695"
               d="m -176.74745,341.5766 v 1.48378 q -0.46948,-0.30139 -0.97953,-0.45209 -0.50426,-0.15649 -1.01431,-0.15649 -0.56801,0 -0.85781,0.16808 -0.2898,0.16229 -0.2898,0.48687 0,0.46368 1.24035,0.75349 l 0.0637,0.0174 0.48687,0.11592 q 0.92737,0.22025 1.35627,0.71292 0.4347,0.48686 0.4347,1.32149 0,1.00272 -0.66074,1.50697 -0.65496,0.49846 -1.97645,0.49846 -0.5854,0 -1.19978,-0.10433 -0.61438,-0.0985 -1.24615,-0.30139 v -1.48379 q 0.56222,0.31879 1.14182,0.48687 0.5854,0.16809 1.13023,0.16809 0.59699,0 0.90418,-0.17389 0.30719,-0.17388 0.30719,-0.50425 0,-0.32458 -0.22025,-0.49846 -0.21445,-0.17388 -1.03169,-0.37095 l -0.46948,-0.10432 q -0.97374,-0.22025 -1.42003,-0.68973 -0.4463,-0.46948 -0.4463,-1.25774 0,-0.93896 0.67814,-1.4606 0.67814,-0.52165 1.9069,-0.52165 0.55062,0 1.09545,0.0927 0.55062,0.0869 1.06647,0.26662 z" />
            <path
               inkscape:connector-curvature="0"
               id="path1063"
               style="font-style:normal;font-variant:normal;font-weight:bold;font-stretch:normal;font-family:'DejaVu Sans Mono';-inkscape-font-specification:'DejaVu Sans Mono Bold';fill:#333333;fill-opacity:1;stroke-width:0.29675695"
               d="m -169.14305,343.65158 v 4.21372 h -1.68665 v -3.9529 q 0,-0.70132 -0.20286,-1.00271 -0.19707,-0.3014 -0.64916,-0.3014 -0.46368,0 -0.7245,0.41152 -0.26082,0.40572 -0.26082,1.13023 v 3.71526 h -1.68665 v -9.01863 h 1.68665 v 3.5008 q 0.17967,-0.53903 0.61438,-0.83463 0.4347,-0.2956 1.04908,-0.2956 0.92157,0 1.39105,0.61438 0.46948,0.60859 0.46948,1.81996 z" />
          </g>
        </g>
      </g>
      <path
         transform="matrix(0.96662224,0,0,0.96662224,2.1245293,4.4391756)"
         id="path1522"
         d="m 56.448219,157.82881 0.882979,-2.22438 c 1.379307,0.10318 2.765466,0.0807 4.140545,-0.067 l 0.956029,2.19295 c 0.373108,0.85583 1.377369,1.24986 2.238955,0.87856 l 9.33288,-4.02521 c 0.860424,-0.37167 1.258293,-1.36967 0.88496,-2.22571 l -0.956308,-2.19319 c 1.047402,-0.89672 2.011272,-1.88775 2.878511,-2.96014 l 2.23642,0.87881 c 0.871126,0.34249 1.861254,-0.0847 2.207644,-0.95339 l 3.737561,-9.41054 c 0.344341,-0.869 -0.08491,-1.85357 -0.956573,-2.1961 l -2.236059,-0.87881 c 0.103449,-1.3716 0.08124,-2.75028 -0.06741,-4.11802 l 2.205966,-0.95143 c 0.860423,-0.37166 1.256369,-1.37135 0.881868,-2.22654 l -4.046868,-9.28173 c -0.180506,-0.41429 -0.512143,-0.73433 -0.933471,-0.90094 -0.423589,-0.16748 -0.886645,-0.16046 -1.304046,0.0195 l -2.205116,0.95117 c -0.902155,-1.04233 -1.898459,-2.00102 -2.976397,-2.86334 l 0.883554,-2.22377 c 0.167235,-0.42158 0.159059,-0.88191 -0.02284,-1.29707 -0.181334,-0.414 -0.514085,-0.73322 -0.935999,-0.89871 l -9.460993,-3.71771 c -0.873396,-0.3422 -1.863533,0.0847 -2.207881,0.95147 l -0.883279,2.22437 c -1.378212,-0.10329 -2.764611,-0.0808 -4.139931,0.0671 l -0.956328,-2.1932 c -0.372807,-0.8558 -1.377021,-1.24986 -2.238834,-0.87852 l -9.332403,4.02544 c -0.861289,0.37138 -1.258298,1.36991 -0.885534,2.22547 l 0.956328,2.19355 c -1.047972,0.89732 -2.01188,1.88835 -2.878741,2.96014 l -2.234381,-0.87768 c -0.42358,-0.16717 -0.887498,-0.15959 -1.305726,0.022 -0.415417,0.18035 -0.736079,0.51022 -0.90357,0.93069 l -3.736728,9.4085 c -0.08068,0.20225 -0.12074,0.41374 -0.12074,0.62495 0,0.22832 0.04703,0.45665 0.141282,0.67235 0.180781,0.41487 0.512706,0.73463 0.93516,0.90042 l 2.236059,0.87853 c -0.10382,1.37219 -0.0811,2.75089 0.06762,4.11801 l -2.205348,0.95148 c -0.859865,0.3711 -1.256142,1.36905 -0.882688,2.22653 l 4.046859,9.28197 c 0.373389,0.85665 1.37702,1.25215 2.237746,0.88131 h 2.76e-4 l 2.205114,-0.95115 c 0.901881,1.04234 1.898219,2.00102 2.976032,2.86309 l -0.883273,2.22379 c -0.167236,0.42101 -0.159338,0.88187 0.02293,1.29753 0.181345,0.41344 0.513546,0.73238 0.935746,0.89845 l 9.460384,3.71746 c 0.872543,0.34277 1.863302,-0.0833 2.208119,-0.9512 z"
         inkscape:connector-curvature="0"
         style="fill:#f05133;fill-opacity:0.49019608;stroke:#f05133;stroke-width:1.40626585;stroke-opacity:1;filter:url(#filter1828)"
         inkscape:export-xdpi="64.279999"
         inkscape:export-ydpi="64.279999" />
      <g
         id="g1837">
        <path
           id="path29"
           d="m 56.688633,157.00001 0.853507,-2.15013 c 1.333269,0.0997 2.673161,0.078 4.002343,-0.0648 l 0.924119,2.11976 c 0.360655,0.82726 1.331396,1.20814 2.164224,0.84923 l 9.021369,-3.89085 c 0.831705,-0.35927 1.216294,-1.32396 0.855422,-2.15142 l -0.924388,-2.11999 c 1.012442,-0.86679 1.94414,-1.82474 2.782432,-2.86134 l 2.161774,0.84948 c 0.84205,0.33106 1.799129,-0.0819 2.133958,-0.92157 l 3.612809,-9.09643 c 0.332848,-0.84 -0.08208,-1.79171 -0.924645,-2.1228 l -2.161424,-0.84948 c 0.1,-1.32582 0.07853,-2.65848 -0.06516,-3.98057 l 2.132336,-0.91967 c 0.831704,-0.35926 1.214434,-1.32558 0.852433,-2.15223 l -3.911793,-8.97192 c -0.174481,-0.40047 -0.495048,-0.70982 -0.902313,-0.87087 -0.409451,-0.16189 -0.857051,-0.15511 -1.26052,0.0189 l -2.131514,0.91942 c -0.872044,-1.00754 -1.835093,-1.93423 -2.877052,-2.76777 l 0.854063,-2.14955 c 0.161653,-0.4075 0.15375,-0.85247 -0.02208,-1.25377 -0.175281,-0.40018 -0.496926,-0.70875 -0.904757,-0.86872 L 63.80857,107.9993 c -0.844244,-0.33077 -1.801333,0.0819 -2.134187,0.91972 l -0.853797,2.15012 c -1.332211,-0.0998 -2.672335,-0.0781 -4.00175,0.0649 l -0.924408,-2.11999 c -0.360363,-0.82724 -1.331059,-1.20815 -2.164106,-0.8492 l -9.020909,3.89108 c -0.832541,0.35898 -1.216299,1.32418 -0.855977,2.15119 l 0.924408,2.12033 c -1.012993,0.86737 -1.944728,1.82532 -2.782655,2.86134 l -2.159802,-0.84839 c -0.409442,-0.16159 -0.857875,-0.15426 -1.262144,0.0213 -0.401551,0.17433 -0.71151,0.49319 -0.873411,0.89963 l -3.612004,9.09446 c -0.07799,0.1955 -0.11671,0.39993 -0.11671,0.60409 0,0.2207 0.04546,0.44141 0.136566,0.64991 0.174747,0.40102 0.495593,0.71011 0.903947,0.87037 l 2.161424,0.8492 c -0.100355,1.32639 -0.07839,2.65907 0.06536,3.98056 l -2.131738,0.91972 c -0.831165,0.35872 -1.214215,1.32336 -0.853226,2.15222 l 3.911784,8.97216 c 0.360926,0.82805 1.331058,1.21035 2.163055,0.85189 h 2.66e-4 l 2.131513,-0.9194 c 0.871778,1.00755 1.83486,1.93423 2.876698,2.76752 l -0.853791,2.14957 c -0.161654,0.40696 -0.15402,0.85243 0.02217,1.25422 0.175292,0.39964 0.496405,0.70793 0.904513,0.86846 l 9.144617,3.59338 c 0.84342,0.33133 1.801109,-0.0805 2.134417,-0.91945 z"
           inkscape:connector-curvature="0"
           style="fill:#ffffff;stroke:#4d4d4d;stroke-width:1.35932791"
           inkscape:export-xdpi="64.279999"
           inkscape:export-ydpi="64.279999" />
        <path
           id="path31"
           d="m 46.883437,152.42625 0.926573,-2.33309 c 0.193002,-0.48532 0.03325,-1.03954 -0.388714,-1.35001 -1.391907,-1.02354 -2.642303,-2.22661 -3.716617,-3.57581 -0.325729,-0.40911 -0.88758,-0.54931 -1.368993,-0.34189 l -2.31329,0.99777 -3.377844,-7.74745 2.247095,-0.96933 c 0.514392,-0.18463 0.833596,-0.70605 0.751282,-1.254 -0.255986,-1.70358 -0.284584,-3.43452 -0.08475,-5.14509 0.05972,-0.51896 -0.23689,-1.01296 -0.725116,-1.20466 l -2.345427,-0.92157 3.119129,-7.85373 2.345765,0.92159 c 0.488247,0.19197 1.045153,0.0333 1.357245,-0.38663 1.02934,-1.38494 2.239624,-2.62928 3.597209,-3.69836 0.0072,-0.006 0.01529,-0.0123 0.02246,-0.0182 0.42552,-0.35275 0.532935,-0.94543 0.286789,-1.41611 l -0.970748,-2.22661 7.789255,-3.35967 0.97508,2.23601 c 0.17584,0.48265 0.657524,0.79663 1.179518,0.75542 0.03491,-0.003 0.06947,-0.007 0.103932,-0.0124 1.706959,-0.25191 3.440217,-0.27903 5.151601,-0.0805 0.55608,0.0647 1.068044,-0.2747 1.235379,-0.78768 l 0.900667,-2.26722 7.896091,3.10261 -0.902304,2.27104 c -0.213443,0.45688 -0.102828,1.01053 0.287033,1.35001 0.02998,0.0263 0.06111,0.0509 0.09351,0.0738 1.384815,1.02085 2.629274,2.21927 3.699163,3.56219 0.02868,0.0362 0.05919,0.0702 0.0913,0.10242 0.36092,0.35898 0.90366,0.43328 1.340124,0.21473 l 2.251968,-0.97122 3.377836,7.74747 -2.312952,0.99752 c -0.481419,0.2077 -0.762991,0.71173 -0.684771,1.22747 0.255711,1.70299 0.28405,3.43312 0.08399,5.14262 -0.05969,0.51952 0.236892,1.01299 0.725112,1.20489 l 2.346005,0.92189 -3.119355,7.85371 -2.346006,-0.92187 c -0.488239,-0.19167 -1.045157,-0.0333 -1.35723,0.38665 -1.030158,1.38574 -2.240215,2.63009 -3.596749,3.69812 -0.43317,0.34108 -0.556637,0.93026 -0.321665,1.40796 l 0.982716,2.25372 -7.789248,3.35944 -0.972915,-2.23172 c -0.185933,-0.51541 -0.713399,-0.83212 -1.261916,-0.7505 -1.712429,0.2549 -3.453023,0.28307 -5.172888,0.084 -0.521471,-0.0605 -1.018701,0.23565 -1.211765,0.72151 l -0.92628,2.33309 z"
           inkscape:connector-curvature="0"
           style="fill:#ececec;stroke:#808080;stroke-width:0.40779832"
           inkscape:export-xdpi="64.279999"
           inkscape:export-ydpi="64.279999" />
        <path
           id="path33"
           d="m 74.470573,138.97262 c 1.614084,-4.06332 1.540183,-8.5086 -0.207195,-12.51676 -1.747688,-4.0085 -4.959681,-7.10004 -9.045114,-8.7054 -4.0852,-1.60513 -8.554804,-1.53192 -12.585411,0.20605 -6.19507,2.6721 -9.902502,8.70482 -9.901917,15.02942 0,2.16831 0.436172,4.37209 1.356989,6.48452 3.607345,8.27432 13.310484,12.08731 21.629381,8.49905 4.03015,-1.73804 7.138566,-4.93304 8.752418,-8.99635 z"
           inkscape:connector-curvature="0"
           style="fill:#ffffff;stroke:#4d4d4d;stroke-width:0.77742368"
           inkscape:export-xdpi="64.279999"
           inkscape:export-ydpi="64.279999" />
        <path
           id="path35"
           d="m 45.464285,132.95573 c 0,-7.52252 6.152938,-13.64216 13.715477,-13.64216 7.562894,0 13.71548,6.12 13.71548,13.64216 0,7.52228 -6.153053,13.64216 -13.71548,13.64216 -7.563124,0 -13.715477,-6.11999 -13.715477,-13.64216 z"
           inkscape:connector-curvature="0"
           style="fill:#ffffff;stroke:#4d4d4d;stroke-width:0.43199393"
           inkscape:export-xdpi="64.279999"
           inkscape:export-ydpi="64.279999" />
        <path
           style="fill:#f05133;stroke-width:0.20460394"
           inkscape:connector-curvature="0"
           d="M 70.395781,131.92145 60.217766,121.74467 c -0.585625,-0.58613 -1.536221,-0.58613 -2.122564,0 l -2.11335,2.11357 2.68071,2.6807 c 0.623202,-0.21041 1.337514,-0.0694 1.834051,0.42732 0.499114,0.49971 0.639189,1.22013 0.423479,1.84542 l 2.583753,2.58374 c 0.62509,-0.2154 1.346296,-0.0762 1.84542,0.42378 0.697832,0.69761 0.697832,1.82803 0,2.52583 -0.697924,0.69802 -1.828335,0.69802 -2.526659,0 -0.524696,-0.52511 -0.654478,-1.29605 -0.388725,-1.94256 l -2.409621,-2.40961 -2.25e-4,6.3409 c 0.170121,0.0843 0.330676,0.19662 0.472455,0.33776 0.697606,0.69756 0.697606,1.82776 0,2.52642 -0.697831,0.69755 -1.828756,0.69755 -2.525838,0 -0.697729,-0.69858 -0.697729,-1.82883 0,-2.52642 0.172418,-0.1721 0.371947,-0.3024 0.584835,-0.38973 V 129.882 c -0.212991,-0.0869 -0.412283,-0.21628 -0.584959,-0.38975 -0.528502,-0.52813 -0.655781,-1.30378 -0.384753,-1.95275 l -2.642661,-2.6431 -6.978213,6.97804 c -0.586344,0.58661 -0.586344,1.53718 0,2.12337 l 10.177409,10.1768 c 0.585934,0.58615 1.536201,0.58615 2.122975,0 l 10.130353,-10.12872 c 0.586138,-0.58642 0.586138,-1.53731 0,-2.12359"
           id="path2113-3"
           inkscape:export-filename="/home/viniciusramos/Documents/Python Academy/Redes Sociais/git-vs-github/1.png"
           inkscape:export-xdpi="96"
           inkscape:export-ydpi="96" />
      </g>
    </g>
  </g>
</svg>
