<?xml version="1.0" encoding="UTF-8" standalone="no"?>
<!-- Created with Inkscape (http://www.inkscape.org/) -->

<svg
   xmlns:dc="http://purl.org/dc/elements/1.1/"
   xmlns:cc="http://creativecommons.org/ns#"
   xmlns:rdf="http://www.w3.org/1999/02/22-rdf-syntax-ns#"
   xmlns:svg="http://www.w3.org/2000/svg"
   xmlns="http://www.w3.org/2000/svg"
   xmlns:xlink="http://www.w3.org/1999/xlink"
   xmlns:sodipodi="http://sodipodi.sourceforge.net/DTD/sodipodi-0.dtd"
   xmlns:inkscape="http://www.inkscape.org/namespaces/inkscape"
   width="197.55849mm"
   height="141.10895mm"
   viewBox="0 0 197.55849 141.10895"
   version="1.1"
   id="svg1054"
   inkscape:version="0.92.5 (0.92.5+69)"
   sodipodi:docname="featured_img.svg">
  <defs
     id="defs1048">
    <linearGradient
       inkscape:collect="always"
       xlink:href="#linearGradient4689"
       id="linearGradient956"
       gradientUnits="userSpaceOnUse"
       gradientTransform="matrix(0.13823253,0,0,0.13984116,101.34579,55.009208)"
       x1="26.648937"
       y1="20.603781"
       x2="135.66525"
       y2="114.39767" />
    <linearGradient
       id="linearGradient4689">
      <stop
         style="stop-color:#5a9fd4;stop-opacity:1;"
         offset="0"
         id="stop4691" />
      <stop
         style="stop-color:#306998;stop-opacity:1;"
         offset="1"
         id="stop4693" />
    </linearGradient>
    <linearGradient
       inkscape:collect="always"
       xlink:href="#linearGradient4671"
       id="linearGradient958"
       gradientUnits="userSpaceOnUse"
       gradientTransform="matrix(0.13823253,0,0,0.13984116,101.34579,55.009208)"
       x1="150.96111"
       y1="192.35176"
       x2="112.03144"
       y2="137.27299" />
    <linearGradient
       id="linearGradient4671">
      <stop
         style="stop-color:#ffd43b;stop-opacity:1;"
         offset="0"
         id="stop4673" />
      <stop
         style="stop-color:#ffe873;stop-opacity:1"
         offset="1"
         id="stop4675" />
    </linearGradient>
  </defs>
  <sodipodi:namedview
     id="base"
     pagecolor="#ffffff"
     bordercolor="#666666"
     borderopacity="1.0"
     inkscape:pageopacity="0.0"
     inkscape:pageshadow="2"
     inkscape:zoom="0.35"
     inkscape:cx="-718.0897"
     inkscape:cy="-30.480279"
     inkscape:document-units="mm"
     inkscape:current-layer="layer1"
     showgrid="false"
     fit-margin-top="0"
     fit-margin-left="0"
     fit-margin-right="0"
     fit-margin-bottom="0"
     inkscape:window-width="2560"
     inkscape:window-height="993"
     inkscape:window-x="0"
     inkscape:window-y="384"
     inkscape:window-maximized="1" />
  <metadata
     id="metadata1051">
    <rdf:RDF>
      <cc:Work
         rdf:about="">
        <dc:format>image/svg+xml</dc:format>
        <dc:type
           rdf:resource="http://purl.org/dc/dcmitype/StillImage" />
        <dc:title />
      </cc:Work>
    </rdf:RDF>
  </metadata>
  <g
     inkscape:label="Layer 1"
     inkscape:groupmode="layer"
     id="layer1"
     transform="translate(-19.905281,-1.1717166)">
    <rect
       id="rect37"
       height="141.10895"
       width="197.55849"
       y="1.1717166"
       x="19.905281"
       style="fill:none;fill-opacity:1;stroke-width:0.99999231"
       inkscape:export-xdpi="64.279999"
       inkscape:export-ydpi="64.279999" />
    <circle
       style="opacity:1;fill:#27678d;fill-opacity:0.09803922;stroke:#306998;stroke-width:1.77703476;stroke-linecap:round;stroke-linejoin:round;stroke-miterlimit:4;stroke-dasharray:none;stroke-dashoffset:0;stroke-opacity:1"
       id="path1105"
       cx="93.366615"
       cy="71.726189"
       r="46.939537"
       inkscape:export-xdpi="64.279999"
       inkscape:export-ydpi="64.279999" />
    <circle
       style="opacity:1;fill:#ffdb4e;fill-opacity:0.09803922;stroke:#ffda4d;stroke-width:1.77703476;stroke-linecap:round;stroke-linejoin:round;stroke-miterlimit:4;stroke-dasharray:none;stroke-dashoffset:0;stroke-opacity:1"
       id="circle1119"
       cx="-152.54713"
       cy="51.110977"
       r="46.939537"
       transform="rotate(-135)"
       inkscape:export-xdpi="64.279999"
       inkscape:export-ydpi="64.279999" />
    <path
       id="path952"
       d="m 118.52467,57.890701 c -1.12633,0.0063 -2.20197,0.101443 -3.1484,0.269265 -2.78809,0.493572 -3.2943,1.526533 -3.2943,3.431593 v 2.515983 h 6.5886 v 0.838626 h -6.5886 -2.47265 c -1.91483,0 -3.59151,1.153205 -4.11596,3.346958 -0.60493,2.514516 -0.63177,4.08366 0,6.70926 0.46834,1.954398 1.58681,3.346917 3.50165,3.346917 h 2.2653 v -3.016052 c 0,-2.178978 1.8816,-4.100993 4.11596,-4.100993 h 6.58094 c 1.83188,0 3.29428,-1.511275 3.29428,-3.354651 v -6.286048 c 0,-1.789071 -1.50631,-3.132985 -3.29428,-3.431593 -1.13183,-0.188634 -2.30619,-0.274505 -3.43254,-0.269265 z m -3.56306,2.023522 c 0.68056,0 1.23632,0.565965 1.23632,1.261858 0,0.69342 -0.55576,1.254146 -1.23632,1.254146 -0.68299,0 -1.23632,-0.560726 -1.23632,-1.254146 0,-0.695893 0.55333,-1.261858 1.23632,-1.261858 z"
       style="fill:url(#linearGradient956);fill-opacity:1;stroke:#000000;stroke-width:0;stroke-miterlimit:7.69810009;stroke-dasharray:none"
       inkscape:connector-curvature="0"
       inkscape:export-xdpi="64.279999"
       inkscape:export-ydpi="64.279999" />
    <path
       id="path954"
       d="m 126.07316,64.946168 v 2.931439 c 0,2.272749 -1.92305,4.185627 -4.11595,4.185627 h -6.58094 c -1.80261,0 -3.2943,1.545837 -3.2943,3.35463 v 6.286069 c 0,1.78907 1.55265,2.841356 3.2943,3.35463 2.08558,0.614465 4.08555,0.725529 6.58094,0 1.65871,-0.481164 3.29428,-1.449592 3.29428,-3.35463 v -2.515962 h -6.58092 v -0.838668 h 6.58092 3.2943 c 1.91485,0 2.62839,-1.338255 3.29431,-3.346917 0.68787,-2.067893 0.65861,-4.056538 0,-6.70926 -0.47322,-1.909964 -1.37703,-3.346958 -3.29431,-3.346958 z m -3.70129,15.919118 c 0.68298,0 1.23633,0.560726 1.23633,1.254145 0,0.695893 -0.55335,1.261817 -1.23633,1.261817 -0.68057,0 -1.23632,-0.565924 -1.23632,-1.261817 0,-0.693419 0.55575,-1.254145 1.23632,-1.254145 z"
       style="fill:url(#linearGradient958);fill-opacity:1;stroke:#000000;stroke-width:0;stroke-miterlimit:7.69810009;stroke-dasharray:none"
       inkscape:connector-curvature="0"
       inkscape:export-xdpi="64.279999"
       inkscape:export-ydpi="64.279999" />
  </g>
</svg>
